<!-- Generator: Adobe Illustrator 18.1.1, SVG Export Plug-In  -->
<svg version="1.1"
	 xmlns="http://www.w3.org/2000/svg" xmlns:xlink="http://www.w3.org/1999/xlink" xmlns:a="http://ns.adobe.com/AdobeSVGViewerExtensions/3.0/"
	 x="0px" y="0px" width="86.2px" height="112.6px" viewBox="0 0 86.2 112.6" enable-background="new 0 0 86.2 112.6"
	 xml:space="preserve">
<defs>
</defs>
<g id="backLleg_copy">
	<g>
		<g>
			<g>
				<path fill="#CCCC66" d="M16.6,0c0,0-0.3,0.5-0.7,1.3c-0.4,0.8-1,2-1.5,3.5c-0.3,0.7-0.6,1.5-0.9,2.4C13.2,8,13,8.9,12.7,9.8
					c-0.2,0.9-0.5,1.9-0.7,2.9c-0.2,1-0.4,2-0.6,3l-0.2,1.5c0,0.5-0.1,1-0.1,1.5c-0.1,1-0.1,2-0.1,3c0,1,0,1.9,0.1,2.8
					c0,0.4,0.1,0.9,0.1,1.3c0.1,0.4,0.1,0.8,0.2,1.2c0.1,0.8,0.2,1.5,0.3,2.1c0.1,0.6,0.3,1.2,0.4,1.6c0.2,0.9,0.3,1.4,0.3,1.4
					s-0.2-0.5-0.5-1.4c-0.2-0.4-0.3-1-0.5-1.6c-0.2-0.6-0.3-1.3-0.5-2.1c-0.1-0.4-0.2-0.8-0.3-1.2c-0.1-0.4-0.1-0.9-0.2-1.3
					c-0.1-0.9-0.3-1.9-0.3-2.9c0-1-0.1-2,0-3.1c0-0.5,0.1-1,0.1-1.6l0.2-1.6c0.1-1.1,0.4-2.1,0.6-3.1c0.2-1,0.6-2,0.8-3
					c0.3-0.9,0.6-1.9,1-2.7c0.4-0.8,0.7-1.6,1.1-2.3c0.7-1.4,1.4-2.6,1.9-3.3C16.3,0.4,16.6,0,16.6,0z"/>
			</g>
			<g>
				<path fill="#CCCC66" d="M86.2,22.7c0,0,0,0.5-0.2,1.3c-0.1,0.4-0.2,0.9-0.3,1.4c-0.1,0.5-0.3,1.2-0.6,1.8
					c-0.2,0.7-0.6,1.3-0.9,2.1c-0.4,0.7-0.8,1.5-1.3,2.2c-0.3,0.4-0.5,0.7-0.8,1.1c-0.3,0.3-0.6,0.7-0.9,1.1c-0.6,0.7-1.3,1.3-2,2
					c-0.7,0.6-1.5,1.2-2.2,1.7c-0.8,0.5-1.6,0.9-2.3,1.4c-0.8,0.4-1.6,0.7-2.3,1c-0.7,0.3-1.5,0.5-2.1,0.7c-0.7,0.2-1.3,0.4-1.8,0.5
					c-0.6,0.1-1,0.2-1.4,0.3c-0.8,0.1-1.3,0.2-1.3,0.2s0.4-0.1,1.2-0.4c0.4-0.1,0.8-0.3,1.4-0.4c0.5-0.1,1.1-0.4,1.8-0.7
					c0.6-0.3,1.3-0.5,2-0.9c0.7-0.4,1.4-0.8,2.2-1.1c0.7-0.5,1.4-0.9,2.2-1.4c0.7-0.6,1.4-1.1,2.1-1.7c0.6-0.6,1.4-1.2,1.9-1.9
					c0.3-0.3,0.6-0.7,0.9-1c0.3-0.3,0.5-0.7,0.8-1c0.5-0.7,0.9-1.4,1.4-2c0.4-0.7,0.8-1.3,1-1.9c0.6-1.2,1-2.3,1.2-3.1
					C86.1,23.2,86.2,22.7,86.2,22.7z"/>
			</g>
			<g>
				<path fill="#FFFF67" d="M27.6,0.1c0,0-39.2,42.1-23.5,61.3C13.8,73.2,22.3,78,27.5,80c1.7,0.6,1.8,2.9,0.2,3.7l-14,6.8
					c-2,1-1.1,4,1.1,3.8l9.5-1c1.6-0.2,2.7,1.5,2,2.9l-5.7,5.9c-0.9,1.7,0.9,3.5,2.7,2.7l13-3.9c1.6-0.8,3.3,0.7,2.8,2.3l-5.1,7
					c-0.5,1.8,1.2,2.8,3,2.3c11.3-3.6,37.3-12.9,39.2-16.7C78.4,90.9,71,62.6,49.8,53c0,0,34.6-14.5,32.5-41.8"/>
			</g>
			<g>
				<g>
					<path fill="#CCCC66" d="M50,53.5c0,0,3.1-1.7,7.5-4.6c1.1-0.7,2.3-1.5,3.5-2.4c1.2-0.9,2.5-1.9,3.7-2.9c1.3-1,2.5-2.1,3.8-3.3
						c1.3-1.2,2.5-2.4,3.6-3.7c0.6-0.6,1.1-1.3,1.7-1.9c0.5-0.7,1.1-1.3,1.6-2c1-1.4,1.9-2.8,2.7-4.2c0.2-0.4,0.4-0.7,0.6-1
						c0.2-0.4,0.3-0.7,0.5-1.1c0.2-0.3,0.3-0.7,0.5-1c0.1-0.4,0.3-0.7,0.4-1c0.1-0.3,0.3-0.7,0.4-1c0.1-0.3,0.2-0.7,0.3-1
						c0.2-0.7,0.4-1.3,0.6-1.9c0.4-1.2,0.5-2.4,0.7-3.5c0.1-1,0.2-2,0.3-2.7c0.1-1.5,0.1-2.4,0.1-2.4s0.1,0.9,0.3,2.4
						c0,0.8,0.1,1.7,0,2.8c-0.1,1.1-0.1,2.3-0.4,3.6c-0.1,0.7-0.2,1.4-0.4,2.1c-0.1,0.4-0.2,0.7-0.3,1.1c-0.1,0.4-0.2,0.7-0.4,1.1
						c-0.1,0.4-0.2,0.7-0.4,1.1c-0.1,0.4-0.3,0.7-0.5,1.1c-0.3,0.8-0.7,1.5-1,2.3c-0.8,1.5-1.7,3-2.7,4.5c-0.5,0.7-1.1,1.4-1.6,2.1
						c-0.6,0.7-1.1,1.4-1.7,2.1c-1.2,1.3-2.5,2.6-3.8,3.8c-1.3,1.2-2.7,2.3-4,3.3c-2.7,2-5.3,3.6-7.7,4.9C53.3,52.4,50,53.5,50,53.5
						z"/>
				</g>
				<g>
					<path fill="#CCCC66" d="M27.8,0.6c0,0-0.7,0.9-1.9,2.4c-1.2,1.5-2.8,3.7-4.8,6.3c-1.9,2.6-4.1,5.8-6.4,9.2
						c-1.1,1.7-2.2,3.5-3.4,5.3c-1.1,1.8-2.2,3.7-3.2,5.6c-1,1.9-2,3.8-2.8,5.8c-0.4,1-0.9,1.9-1.2,2.9c-0.2,0.5-0.4,1-0.6,1.4
						c-0.2,0.5-0.3,1-0.5,1.4c-0.6,1.9-1.1,3.8-1.5,5.6c-0.1,0.9-0.3,1.8-0.4,2.7c0,0.9-0.1,1.7-0.1,2.5c0.1,0.8,0,1.6,0.1,2.3
						c0.1,0.7,0.2,1.4,0.3,2c0.2,0.6,0.3,1.2,0.5,1.8c0.2,0.5,0.4,1,0.6,1.4C3,59.5,3,59.7,3.1,59.9c0.1,0.2,0.2,0.4,0.3,0.5
						c0.2,0.3,0.4,0.6,0.5,0.8c0.3,0.4,0.4,0.7,0.4,0.7s-0.2-0.2-0.5-0.6c-0.2-0.2-0.4-0.4-0.6-0.7c-0.1-0.1-0.3-0.3-0.4-0.5
						c-0.1-0.2-0.2-0.4-0.3-0.6C2.3,59,2,58.6,1.7,58.1c-0.2-0.5-0.5-1.1-0.7-1.8c-0.2-0.6-0.4-1.4-0.6-2.1
						c-0.2-0.7-0.2-1.6-0.3-2.4C0,51,0,50.1,0,49.2c0-0.9,0.1-1.8,0.2-2.8c0.3-1.9,0.6-3.9,1.3-5.9c0.2-0.5,0.3-1,0.5-1.5
						c0.2-0.5,0.4-1,0.5-1.5c0.3-1,0.8-2,1.2-3c0.9-2,1.8-4,2.9-6c1.1-1.9,2.2-3.9,3.3-5.7c1.1-1.8,2.4-3.6,3.5-5.3
						c1.2-1.7,2.4-3.3,3.6-4.8c1.2-1.5,2.3-2.9,3.4-4.1c2.1-2.5,4-4.5,5.4-5.9C27,1.3,27.8,0.6,27.8,0.6z"/>
				</g>
			</g>
		</g>
		<g>
			<path fill="#CCCC66" d="M4.4,56c0,0,0.9-0.1,2.1-0.1c1.2,0,2.9,0,4.5,0c0.8,0,1.6,0,2.3-0.1c0.4,0,0.7,0,1.1-0.1
				c0.3,0,0.7-0.1,1-0.1c0.6-0.1,1.1-0.1,1.5-0.2c0.4-0.1,0.6-0.1,0.6-0.1s-0.2,0.1-0.5,0.4c-0.2,0.1-0.3,0.3-0.6,0.4
				c-0.2,0.1-0.5,0.3-0.8,0.4c-0.3,0.1-0.6,0.2-1,0.4c-0.4,0.1-0.7,0.2-1.1,0.3c-0.8,0.1-1.6,0.2-2.5,0.2c-0.8,0-1.7,0-2.5-0.2
				c-0.8-0.1-1.5-0.3-2.1-0.4C5.1,56.4,4.4,56,4.4,56z"/>
		</g>
		<g>
			<path fill="#CCCC66" d="M4.4,59c0,0,0.9-0.1,2.1-0.1c1.2,0,2.9,0,4.5,0c0.8,0,1.6,0,2.3-0.1c0.4,0,0.7,0,1.1-0.1
				c0.3,0,0.7-0.1,1-0.1c0.6-0.1,1.1-0.1,1.5-0.2c0.4-0.1,0.6-0.1,0.6-0.1s-0.2,0.1-0.5,0.4c-0.2,0.1-0.3,0.3-0.6,0.4
				c-0.2,0.1-0.5,0.3-0.8,0.4c-0.3,0.1-0.6,0.2-1,0.4c-0.4,0.1-0.7,0.2-1.1,0.3c-0.8,0.1-1.6,0.2-2.5,0.2c-0.8,0-1.7,0-2.5-0.2
				c-0.8-0.1-1.5-0.3-2.1-0.4C5.2,59.4,4.4,59,4.4,59z"/>
		</g>
	</g>
	<path fill="#CCCC66" d="M14.2,31.7l0.5,1.1c0.2,0.4,0.1,0.9-0.3,1.1l-0.9,0.8c-0.3,0.3-0.8,0.3-1.1,0.1l-1-0.6
		c-0.4-0.2-0.5-0.7-0.4-1.1l0.3-1.2c0.1-0.4,0.4-0.7,0.9-0.8l1.2-0.1C13.6,31.1,14,31.3,14.2,31.7z"/>
	<path fill="#CCCC66" d="M26.5,21.7l0.5,1c0.2,0.3,0,0.7-0.3,1l-1,0.7c-0.4,0.2-0.9,0.3-1.2,0.1L23.3,24c-0.4-0.2-0.6-0.6-0.5-0.9
		l0.3-1c0.1-0.4,0.5-0.6,1-0.7l1.3-0.1C25.9,21.2,26.3,21.4,26.5,21.7z"/>
	<path fill="#CCCC66" d="M24.1,29.5l0.8,1.9c0.3,0.7,0.1,1.4-0.4,1.9l-1.5,1.4c-0.5,0.5-1.3,0.5-1.9,0.2l-1.8-1.1
		c-0.6-0.4-0.9-1.1-0.8-1.8l0.5-2c0.2-0.7,0.8-1.2,1.5-1.3l2-0.2C23.1,28.4,23.8,28.8,24.1,29.5z"/>
</g>
</svg>
