<!-- Generator: Adobe Illustrator 18.1.1, SVG Export Plug-In  -->
<svg version="1.1"
	 xmlns="http://www.w3.org/2000/svg" xmlns:xlink="http://www.w3.org/1999/xlink" xmlns:a="http://ns.adobe.com/AdobeSVGViewerExtensions/3.0/"
	 x="0px" y="0px" width="130.1px" height="24.6px" viewBox="0 0 130.1 24.6" enable-background="new 0 0 130.1 24.6"
	 xml:space="preserve">
<defs>
</defs>
<path fill="#FFFFFF" d="M125.9,9h-14v0c0-2.6-2.1-4.7-4.7-4.7h-12v0c0-2.4-1.9-4.3-4.3-4.3H28.5c-2.4,0-4.3,1.9-4.3,4.3v0h-12
	C9.5,4.3,7.4,6.4,7.4,9v0c0,2.6,2.1,4.7,4.7,4.7H4.3c-2.4,0-4.3,1.9-4.3,4.3c0,2.4,1.9,4.3,4.3,4.3H36c0.7,1.3,2.1,2.2,3.7,2.2h62.3
	c2.4,0,4.3-1.9,4.3-4.3v0c0-0.6-0.1-1.2-0.4-1.8h19.9c2.3,0,4.2-1.9,4.2-4.2v-1.1C130.1,10.9,128.2,9,125.9,9z"/>
</svg>
