<!-- Generator: Adobe Illustrator 18.1.1, SVG Export Plug-In  -->
<svg version="1.1"
	 xmlns="http://www.w3.org/2000/svg" xmlns:xlink="http://www.w3.org/1999/xlink" xmlns:a="http://ns.adobe.com/AdobeSVGViewerExtensions/3.0/"
	 x="0px" y="0px" width="137.5px" height="84.9px" viewBox="0 0 137.5 84.9" enable-background="new 0 0 137.5 84.9"
	 xml:space="preserve">
<defs>
</defs>
<g>
	<g>
		<path fill="#349946" d="M135.8,58c-0.2-1.8-2.1-3-4.3-2.8c-0.3,0-0.7,0.1-1.1,0.2c0.3-0.7,0.4-1.5,0.1-2.2
			c-0.7-1.7-2.9-2.5-4.9-1.9c0,0,0,0-0.1,0c1.8-1.2,2.4-3.3,1.2-4.9c-1.2-1.7-4-2.3-6.2-1.2c0.7-1.4,0.5-3-0.7-4.1
			c-1.6-1.5-4.4-1.7-6.4-0.4c0.8-1.8,0.2-3.8-1.8-4.9c-1.7-0.9-3.8-0.9-5.5-0.1c0.4-1.8-0.6-3.6-2.7-4.4c-1.5-0.6-3.3-0.5-4.7,0.2
			c-0.4-1.2-1.5-2.3-2.9-2.8c-2.3-0.9-4.9-0.4-6.7,1c0-0.2,0.1-0.4,0.1-0.6c0.3-2.6-2.1-4.9-5.3-5c-1.3-0.1-2.6,0.3-3.6,0.8
			c-0.8-1.5-2.6-2.6-4.8-2.7c-3.2-0.1-6,1.9-6.3,4.5c-0.2,1.9,0.7,7,2.4,9.6l-0.1,0.2c-3.7,1-8.8,4.1-10.4,5.6c-2.2,2.1-2,5.3,0.5,7
			c1.7,1.2,3.9,1.4,5.9,0.9c0.3,0.7,0.9,1.4,1.7,2c2.5,1.8,6.4,1.5,8.6-0.6c0.1-0.1,0.3-0.3,0.5-0.5c0.1,1.4,1.1,2.8,2.8,3.4
			c2,0.8,4.3,0.4,5.9-0.8c0,1.8,1.4,3.5,3.7,4c1.2,0.3,2.4,0.1,3.4-0.2c0.5,1.2,1.6,2.2,3.2,2.6c1.5,0.4,3,0.2,4.3-0.5
			c0.5,0.9,1.5,1.7,2.8,2c0.8,0.2,1.7,0.2,2.5,0.1c0.3,1.1,1.2,2.1,2.6,2.5c0.9,0.3,1.9,0.3,2.8,0.1c0.3,0.9,0.9,1.6,2,2
			c1.7,0.7,3.7,0.3,4.9-0.9c-0.2,0.3-0.3,0.6-0.3,0.9c-0.4,1.5,0.7,2.9,2.5,3.2c1.1,0.2,2.1-0.1,2.9-0.7c0.1,0.8,0.8,1.5,1.8,1.6
			c0.6,0.1,1.2,0,1.7-0.3c0,0.7,0.6,1.3,1.5,1.5c1,0.2,2-0.4,2.3-1.2c0-0.2,0.1-0.4,0.1-0.7l0.1,0c0.4,0.8,0.9,1.6,1.2,2
			c0.7,0.7,2,0.8,2.9,0.2c0.9-0.6,1.1-1.7,0.3-2.4c-0.2-0.2-0.6-0.5-1.1-0.8c1.1,0.1,2.1-0.4,2.4-1.3c0.3-0.9-0.4-1.9-1.5-2.1
			c-0.2,0-0.5-0.1-0.8-0.1c0-0.2,0-0.3-0.1-0.5c0.8-0.4,1.3-1.2,1.2-2c-0.1-0.8-0.8-1.5-1.7-1.7C135.4,60.1,135.9,59.1,135.8,58z"/>
		<g>
			<path fill="#078E45" d="M70.3,35.2c0,0,1.2,0,3.3,0.3c1,0.1,2.3,0.3,3.8,0.6c1.4,0.3,3.1,0.6,4.8,1c1.8,0.4,3.7,0.9,5.7,1.5
				c2,0.6,4.1,1.2,6.2,2c2.1,0.8,4.3,1.6,6.5,2.5c2.2,1,4.4,2,6.5,3.1c2.1,1.1,4.3,2.3,6.3,3.6c0.5,0.3,1,0.6,1.5,0.9
				c0.5,0.3,1,0.7,1.5,1c1,0.6,1.9,1.3,2.8,2c1.8,1.3,3.6,2.7,5.1,4.1c0.8,0.7,1.5,1.4,2.2,2.1c0.7,0.7,1.4,1.3,2,2
				c1.3,1.3,2.3,2.6,3.3,3.7c0.9,1.1,1.7,2.2,2.3,3.1c1.2,1.8,1.8,2.8,1.8,2.8s-0.9-0.8-2.3-2.3c-0.8-0.7-1.7-1.6-2.8-2.6
				c-1.1-0.9-2.3-2-3.7-3.1c-0.7-0.6-1.4-1.1-2.2-1.7c-0.8-0.6-1.5-1.2-2.4-1.8c-1.6-1.2-3.4-2.4-5.2-3.6c-1.8-1.2-3.8-2.4-5.8-3.5
				c-2-1.2-4.1-2.3-6.2-3.3c-2.1-1.1-4.2-2.1-6.3-3.1c-2.1-0.9-4.2-1.9-6.2-2.8c-2-0.8-4-1.7-5.9-2.4c-1.9-0.7-3.7-1.4-5.4-2
				c-3.3-1.2-6.2-2.2-8.1-2.9C71.4,35.6,70.3,35.2,70.3,35.2z"/>
		</g>
	</g>
	<g>
		<path fill="#349946" d="M108.1,68.5c0.2-1.3-0.9-2.5-2.5-2.7c-0.2,0-0.5,0-0.8,0c0.4-0.4,0.6-1,0.5-1.6c-0.1-1.3-1.5-2.3-3.1-2.2
			c0,0,0,0,0,0c1.6-0.5,2.4-2,1.9-3.3c-0.5-1.5-2.4-2.3-4.2-1.9c0.8-0.9,1-2.1,0.3-3.1c-0.9-1.3-2.8-1.9-4.5-1.3
			c1-1.1,0.9-2.7-0.3-3.8c-1-0.9-2.6-1.3-3.9-0.9c0.7-1.2,0.3-2.7-1-3.6c-1-0.7-2.3-0.9-3.4-0.6c-0.1-0.9-0.6-1.8-1.5-2.5
			c-1.4-1-3.4-1.1-5-0.4c0.1-0.2,0.1-0.3,0.2-0.4c0.7-1.8-0.5-3.8-2.7-4.4c-0.9-0.3-1.9-0.2-2.8,0c-0.3-1.2-1.3-2.3-2.9-2.7
			c-2.3-0.6-4.7,0.4-5.4,2.2c-0.5,1.4-1,5.1-0.3,7.3l-0.2,0.2c-2.9,0.1-7.2,1.6-8.6,2.4c-2,1.2-2.5,3.5-1.1,5.1
			c0.9,1.1,2.5,1.6,4,1.6c0.1,0.6,0.3,1.2,0.8,1.7c1.4,1.7,4.2,2.1,6.3,0.9c0.1-0.1,0.3-0.2,0.4-0.3c-0.2,1,0.2,2.1,1.3,2.9
			c1.3,0.9,3,1,4.4,0.3c-0.4,1.3,0.3,2.7,1.8,3.4c0.8,0.4,1.7,0.5,2.5,0.4c0.1,0.9,0.7,1.8,1.8,2.4c1,0.5,2.1,0.6,3.2,0.3
			c0.2,0.7,0.7,1.4,1.6,1.9c0.6,0.3,1.2,0.4,1.8,0.4c0,0.8,0.5,1.7,1.4,2.2c0.6,0.4,1.3,0.5,2,0.5c0,0.7,0.3,1.3,1,1.8
			c1.1,0.8,2.6,0.8,3.7,0.1c-0.2,0.2-0.3,0.4-0.4,0.6c-0.6,1-0.1,2.2,1.1,2.7c0.7,0.3,1.5,0.3,2.2,0c-0.1,0.6,0.2,1.2,0.9,1.4
			c0.4,0.2,0.9,0.2,1.3,0.1c-0.1,0.5,0.2,1,0.7,1.3c0.7,0.3,1.5,0,1.9-0.5c0.1-0.1,0.1-0.3,0.2-0.5l0.1,0c0.1,0.7,0.3,1.3,0.5,1.6
			c0.4,0.6,1.3,0.9,2.1,0.6c0.8-0.3,1.1-1.1,0.7-1.7c-0.1-0.2-0.3-0.5-0.6-0.8c0.7,0.3,1.6,0.1,2-0.5c0.4-0.6,0.1-1.4-0.6-1.7
			c-0.1-0.1-0.3-0.1-0.6-0.2c0-0.1,0.1-0.2,0-0.4c0.7-0.2,1.2-0.6,1.3-1.3c0.1-0.6-0.3-1.2-0.9-1.5C107.4,69.9,108,69.2,108.1,68.5z
			"/>
		<g>
			<path fill="#078E45" d="M65.9,41.7c0,0,0.9,0.2,2.3,0.7c1.5,0.5,3.5,1.2,5.9,2.3c1.2,0.6,2.5,1.1,3.8,1.9c0.7,0.4,1.3,0.7,2,1.1
				c0.7,0.4,1.4,0.8,2.1,1.3c0.7,0.4,1.4,0.9,2.1,1.4c0.7,0.5,1.4,1,2.1,1.5c1.4,1,2.7,2.1,4.1,3.3c0.6,0.6,1.3,1.2,1.9,1.8
				c0.7,0.6,1.3,1.2,1.9,1.8c0.6,0.6,1.2,1.3,1.8,1.9c0.6,0.6,1.1,1.3,1.6,1.9c1,1.3,2,2.5,2.8,3.8c0.4,0.6,0.8,1.3,1.2,1.9
				c0.2,0.3,0.4,0.6,0.5,0.9c0.2,0.3,0.3,0.6,0.4,0.9c0.6,1.2,1.1,2.3,1.5,3.3c0.4,1,0.6,1.9,0.9,2.6c0.4,1.5,0.7,2.3,0.7,2.3
				s-0.5-0.7-1.3-2c-0.4-0.6-0.9-1.4-1.5-2.3c-0.6-0.8-1.3-1.8-2.1-2.8c-0.2-0.3-0.4-0.5-0.6-0.8c-0.2-0.2-0.4-0.5-0.7-0.8
				c-0.4-0.5-0.9-1.1-1.4-1.6c-0.9-1.1-2-2.2-3-3.4c-1-1.2-2.3-2.2-3.4-3.4c-0.6-0.6-1.2-1.1-1.8-1.7l-1.9-1.7
				c-1.3-1.1-2.6-2.2-3.8-3.2c-1.3-1-2.6-2.1-3.9-3c-0.6-0.5-1.3-0.9-1.9-1.4c-0.6-0.4-1.2-0.9-1.8-1.3C75.2,48,74,47.2,73,46.5
				c-1.1-0.7-2-1.4-2.9-2c-0.9-0.6-1.6-1.1-2.3-1.5C66.6,42.1,65.9,41.7,65.9,41.7z"/>
		</g>
	</g>
	<g>
		<path fill="#349946" d="M114.2,8.4c-1.4-0.8-3.2-0.3-4.1,0.9c-0.1,0.2-0.3,0.4-0.4,0.7c-0.3-0.5-0.8-0.9-1.5-1.1
			c-1.5-0.5-3.2,0.3-3.8,1.7c0,0,0,0,0,0c0.1-1.6-1.1-2.9-2.9-3.1c-1.9-0.2-3.6,1-3.9,2.7c-0.6-1.1-1.9-1.8-3.3-1.7
			c-1.9,0.1-3.4,1.6-3.5,3.2c-0.8-1.3-2.6-2-4.4-1.5c-1.5,0.4-2.6,1.6-2.8,2.9c-1.1-1.1-2.9-1.5-4.5-0.7c-1.2,0.5-2,1.5-2.2,2.6
			c-1.1-0.4-2.3-0.3-3.5,0.2c-1.8,0.8-2.7,2.4-2.6,4.1c-0.1-0.1-0.3-0.3-0.4-0.4c-1.7-1.5-4.5-1.3-6.2,0.4c-0.7,0.7-1.1,1.5-1.2,2.4
			c-1.5-0.3-3.1,0.1-4.3,1.3c-1.7,1.7-1.7,4.2,0.1,5.6c1.3,1.1,5.3,3.1,8,3.5l0.1,0.2c-1.1,2.5-1.4,6.8-1.1,8.4
			c0.4,2.3,2.7,3.7,5.3,3.2c1.7-0.3,3-1.4,3.5-2.7c0.7,0.2,1.5,0.2,2.3,0.1c2.5-0.5,4.2-2.7,3.8-5c0-0.1-0.1-0.3-0.1-0.5
			c1.1,0.7,2.5,0.8,3.8,0.2c1.6-0.7,2.4-2.2,2.3-3.6c1.3,0.9,3.2,1,4.7,0c0.8-0.5,1.3-1.2,1.5-2c1.1,0.3,2.4,0.2,3.5-0.4
			c1-0.6,1.6-1.6,1.8-2.5c0.9,0.2,1.9,0,2.8-0.5c0.6-0.3,1-0.8,1.3-1.3c0.9,0.4,2.1,0.3,3.1-0.2c0.7-0.3,1.2-0.9,1.5-1.4
			c0.7,0.3,1.6,0.3,2.4,0c1.3-0.6,2-1.9,1.7-3.1c0.2,0.3,0.3,0.5,0.5,0.6c0.9,1,2.4,1.1,3.6,0.2c0.7-0.5,1-1.2,1-1.9
			c0.6,0.3,1.4,0.3,2-0.1c0.4-0.3,0.6-0.7,0.7-1.1c0.5,0.3,1.2,0.3,1.8-0.1c0.6-0.5,0.7-1.3,0.3-1.8c-0.1-0.1-0.2-0.2-0.4-0.4
			l0.1-0.1c0.8,0.2,1.6,0.3,2,0.3c0.9,0,1.6-0.7,1.6-1.5c0-0.8-0.7-1.4-1.6-1.4c-0.3,0-0.7,0.1-1.1,0.2c0.6-0.5,0.8-1.4,0.3-2
			c-0.5-0.6-1.5-0.7-2.2-0.2c-0.1,0.1-0.3,0.2-0.5,0.4c-0.1-0.1-0.3-0.2-0.4-0.2c0.1-0.6-0.2-1.3-0.8-1.7c-0.7-0.4-1.5-0.3-2.1,0.1
			C115.4,9.7,115,8.9,114.2,8.4z"/>
		<g>
			<path fill="#078E45" d="M69.5,31.2c0,0,0.6-0.7,1.9-1.7c0.6-0.5,1.4-1.1,2.3-1.8c0.9-0.6,1.9-1.4,3.1-2.2
				c0.6-0.4,1.2-0.8,1.8-1.2c0.6-0.4,1.3-0.8,2-1.2c1.4-0.8,2.8-1.6,4.4-2.3c0.8-0.4,1.6-0.7,2.4-1.1c0.8-0.4,1.6-0.8,2.5-1.1
				c1.7-0.6,3.4-1.3,5.2-1.9c0.9-0.3,1.8-0.5,2.6-0.8c0.9-0.3,1.8-0.4,2.7-0.7c0.9-0.2,1.8-0.4,2.6-0.6c0.9-0.1,1.7-0.3,2.6-0.4
				c0.9-0.1,1.7-0.3,2.5-0.4c0.8-0.1,1.6-0.1,2.4-0.2c0.8,0,1.6-0.1,2.3-0.1c0.7-0.1,1.5,0,2.2,0c1.4,0,2.6,0.1,3.8,0.2
				c1.1,0.1,2.1,0.3,2.9,0.4c1.6,0.3,2.5,0.5,2.5,0.5s-0.9,0.1-2.5,0.3c-0.8,0.1-1.7,0.2-2.8,0.2c-1.1,0.2-2.3,0.4-3.6,0.5
				c-1.3,0.1-2.7,0.5-4.2,0.7c-0.7,0.1-1.5,0.3-2.3,0.4c-0.8,0.2-1.6,0.4-2.4,0.6c-0.8,0.2-1.6,0.4-2.5,0.6
				c-0.8,0.2-1.7,0.5-2.5,0.7c-1.7,0.4-3.4,1-5.1,1.5c-1.7,0.5-3.3,1.1-5,1.7c-1.6,0.6-3.2,1.2-4.8,1.8c-1.5,0.7-3.1,1.2-4.5,1.8
				c-1.4,0.6-2.8,1.2-4,1.7c-1.2,0.6-2.4,1.1-3.4,1.5c-1,0.5-1.9,0.9-2.6,1.2C70.3,30.8,69.5,31.2,69.5,31.2z"/>
		</g>
	</g>
	<g>
		<path fill="#349946" d="M0,62.3c-0.2-1.4,1.4-2.7,3.7-2.8c0.3,0,0.7,0,1.2,0c-0.5-0.5-0.7-1.1-0.6-1.8c0.3-1.4,2.3-2.4,4.5-2.2
			c0,0,0,0,0.1,0c-2.1-0.7-3.2-2.3-2.4-3.8c0.8-1.6,3.5-2.4,6-1.8c-1.1-1-1.3-2.3-0.3-3.4c1.3-1.4,4.1-1.9,6.4-1.2
			c-1.3-1.3-1.1-3,0.6-4.2c1.5-1,3.7-1.3,5.6-0.8c-0.8-1.4-0.2-3,1.7-4c1.4-0.7,3.2-0.8,4.8-0.5c0.1-1,0.9-2,2.3-2.7
			c2.1-1,4.9-1,7-0.1c-0.1-0.2-0.2-0.3-0.2-0.5c-0.9-2.1,0.9-4.2,4.1-4.8c1.3-0.2,2.7-0.1,3.8,0.2c0.5-1.3,2-2.4,4.2-2.8
			c3.2-0.5,6.5,0.7,7.5,2.8c0.7,1.5,1,5.7-0.1,8.1l0.2,0.2c4,0.3,9.9,2.1,11.9,3.2c2.8,1.4,3.3,4,1.2,5.7c-1.4,1.2-3.6,1.7-5.7,1.5
			c-0.2,0.7-0.6,1.3-1.2,1.8c-2.1,1.8-6.1,2.1-8.9,0.6c-0.2-0.1-0.4-0.2-0.6-0.3c0.2,1.2-0.4,2.4-2,3.1c-1.8,0.9-4.3,0.9-6.2,0.1
			c0.5,1.5-0.6,3-2.7,3.7c-1.1,0.4-2.4,0.4-3.5,0.3c-0.2,1-1.1,2-2.6,2.6c-1.4,0.5-3,0.5-4.5,0.2c-0.3,0.8-1.1,1.5-2.3,2
			c-0.8,0.3-1.7,0.4-2.5,0.4c-0.1,0.9-0.8,1.8-2,2.4c-0.9,0.4-1.8,0.5-2.8,0.5c0,0.7-0.6,1.4-1.5,1.9c-1.5,0.8-3.7,0.7-5.2-0.1
			c0.2,0.3,0.4,0.5,0.6,0.7c0.8,1.2,0,2.5-1.8,3c-1,0.3-2.2,0.2-3.1-0.1c0.1,0.6-0.4,1.3-1.4,1.5c-0.6,0.2-1.3,0.2-1.8,0
			c0.2,0.6-0.3,1.1-1.1,1.4c-1,0.3-2.2,0-2.6-0.7c-0.1-0.1-0.2-0.3-0.3-0.5l-0.1,0c-0.2,0.7-0.5,1.5-0.8,1.8
			c-0.6,0.7-1.9,0.9-2.9,0.6c-1.1-0.4-1.5-1.2-0.9-1.9c0.2-0.2,0.5-0.5,0.9-0.8c-1.1,0.3-2.3,0-2.8-0.7c-0.5-0.7-0.1-1.5,1-1.9
			c0.2-0.1,0.5-0.1,0.8-0.2c0-0.1-0.1-0.3,0-0.4c-0.9-0.2-1.6-0.8-1.7-1.5c-0.1-0.7,0.5-1.3,1.3-1.6C0.9,63.9,0.1,63.2,0,62.3z"/>
		<g>
			<path fill="#078E45" d="M60.9,35c0,0-1,0.5-2.8,1.3c-1.7,0.8-4.2,2-7.2,3.4c-1.5,0.7-3.1,1.5-4.8,2.3c-1.7,0.8-3.4,1.8-5.3,2.7
				c-1.8,0.9-3.7,2-5.5,3c-1.9,1-3.8,2.1-5.6,3.3c-1.9,1.1-3.7,2.3-5.5,3.4c-0.9,0.6-1.8,1.2-2.6,1.8c-0.8,0.6-1.7,1.2-2.5,1.8
				c-1.6,1.2-3.2,2.4-4.6,3.6c-1.4,1.2-2.7,2.4-3.9,3.5c-0.6,0.6-1.1,1.1-1.7,1.6c-0.5,0.5-1,1-1.5,1.5c-0.9,1-1.7,1.9-2.3,2.6
				c-1.2,1.5-1.9,2.4-1.9,2.4s0.1-0.3,0.3-0.7c0.2-0.5,0.5-1.2,1-2c0.5-0.8,1-1.9,1.8-3c0.4-0.6,0.8-1.2,1.2-1.8
				c0.5-0.6,1-1.3,1.5-1.9c1.1-1.3,2.2-2.7,3.6-4.1c1.4-1.4,2.8-2.8,4.4-4.1c1.6-1.4,3.3-2.7,5.1-4c1.8-1.3,3.7-2.5,5.6-3.7
				c1.9-1.1,3.9-2.2,5.8-3.2c1.9-1,3.9-1.9,5.8-2.8c1.9-0.9,3.8-1.6,5.6-2.3c1.8-0.7,3.5-1.3,5.1-1.8c3.2-1,5.9-1.7,7.8-2.1
				C59.8,35.2,60.9,35,60.9,35z"/>
		</g>
	</g>
	<g>
		<path fill="#349946" d="M30.2,0.2c1.1-0.5,2.5,0.1,3.2,1.5c0.1,0.2,0.2,0.4,0.3,0.7C34,1.9,34.4,1.6,35,1.5
			c1.2-0.2,2.5,0.8,2.9,2.2c0,0,0,0,0,0c0-1.5,1-2.6,2.4-2.5c1.5,0.1,2.8,1.5,3,3.1C43.8,3.5,44.8,3,46,3.3c1.5,0.4,2.6,1.9,2.6,3.5
			c0.7-1.1,2.1-1.5,3.5-0.7c1.2,0.6,2,1.9,2.1,3.1c0.9-0.9,2.3-0.9,3.6,0c0.9,0.7,1.5,1.7,1.7,2.8c0.9-0.2,1.8,0,2.7,0.7
			c1.4,1,2.1,2.7,1.9,4.2c0.1-0.1,0.2-0.2,0.3-0.3c1.4-1.1,3.6-0.5,4.9,1.2c0.5,0.7,0.8,1.6,0.9,2.4c1.2-0.1,2.5,0.6,3.3,1.8
			c1.3,1.8,1.2,4.1-0.2,5.2c-1,0.8-4.3,2.1-6.4,2l-0.1,0.2c0.8,2.5,0.9,6.6,0.6,8c-0.4,2-2.3,3-4.2,2.2c-1.3-0.5-2.3-1.7-2.7-3.1
			c-0.6,0.1-1.2,0-1.8-0.3c-2-0.8-3.2-3.1-2.8-5.2c0-0.1,0.1-0.3,0.1-0.5c-0.9,0.5-2,0.4-3-0.4c-1.2-0.9-1.9-2.4-1.7-3.7
			c-1,0.7-2.5,0.4-3.7-0.7c-0.6-0.6-1-1.3-1.1-2.1c-0.9,0.2-1.9-0.1-2.7-0.9c-0.8-0.7-1.2-1.7-1.3-2.6c-0.7,0-1.5-0.3-2.2-0.9
			c-0.4-0.4-0.8-0.9-1-1.4c-0.8,0.2-1.7,0-2.4-0.6c-0.5-0.4-0.9-1-1.1-1.6c-0.6,0.2-1.3,0-1.9-0.4c-1-0.7-1.5-2-1.3-3.1
			c-0.1,0.2-0.3,0.4-0.4,0.5c-0.7,0.8-2,0.6-2.8-0.3c-0.5-0.6-0.7-1.3-0.7-1.9c-0.5,0.2-1.1,0.1-1.6-0.4c-0.3-0.3-0.5-0.7-0.5-1.1
			c-0.4,0.2-1,0.1-1.4-0.3c-0.5-0.5-0.5-1.3-0.1-1.7C25,7,25.1,6.9,25.3,6.8l-0.1-0.1c-0.6,0.1-1.3,0.1-1.6,0
			c-0.7-0.2-1.2-0.9-1.2-1.6c0-0.7,0.6-1.2,1.3-1.1c0.2,0,0.5,0.2,0.9,0.3C24,3.8,24,3,24.4,2.5c0.4-0.5,1.2-0.5,1.7,0.1
			c0.1,0.1,0.2,0.2,0.3,0.4C26.6,3,26.7,3,26.8,2.9c-0.1-0.6,0.2-1.2,0.7-1.4c0.5-0.2,1.2-0.1,1.6,0.4C29.2,1.1,29.6,0.5,30.2,0.2z"
			/>
		<g>
			<path fill="#078E45" d="M67.9,29.7c0,0-0.7-0.5-1.9-1.3c-1.2-0.8-2.8-2-4.8-3.5c-1-0.7-2.1-1.5-3.3-2.3c-1.1-0.8-2.4-1.6-3.6-2.5
				c-1.2-0.9-2.6-1.7-3.9-2.5c-1.4-0.8-2.7-1.7-4.1-2.5c-0.7-0.4-1.4-0.8-2.1-1.2c-0.7-0.4-1.4-0.8-2.1-1.1
				c-1.4-0.7-2.8-1.5-4.1-2.1c-1.4-0.6-2.7-1.3-4-1.8c-0.6-0.3-1.3-0.5-1.9-0.8c-0.3-0.1-0.6-0.3-0.9-0.4c-0.3-0.1-0.6-0.2-0.9-0.3
				c-1.1-0.4-2.2-0.8-3.1-1.1c-0.9-0.3-1.8-0.5-2.5-0.7c-1.4-0.4-2.2-0.7-2.2-0.7s0.8,0,2.3,0c0.7,0,1.6,0,2.7,0.1
				c1,0.1,2.2,0.3,3.4,0.5c1.3,0.1,2.6,0.5,4,0.9c1.4,0.3,2.8,0.9,4.3,1.4c1.5,0.5,3,1.2,4.5,1.9c1.5,0.7,3,1.6,4.4,2.3
				c1.4,0.9,2.9,1.8,4.2,2.7c0.7,0.5,1.3,1,2,1.4c0.7,0.5,1.3,1,1.9,1.5c1.2,1,2.4,2,3.4,2.9c1.1,1,2,1.9,2.9,2.8
				c1.7,1.8,3.1,3.4,4,4.6C67.4,29,67.9,29.7,67.9,29.7z"/>
		</g>
	</g>
	<g>
		<path fill="#349946" d="M10.5,20.8c0.7-0.9,2.4-0.8,3.6,0.2c0.2,0.1,0.4,0.3,0.6,0.5c0-0.5,0.3-0.9,0.7-1.2c1-0.6,2.7-0.2,3.7,0.9
			c0,0,0,0,0,0c-0.7-1.3-0.3-2.7,0.9-3.1c1.4-0.5,3.3,0.3,4.3,1.7c0-1,0.7-1.8,1.9-1.9c1.5-0.2,3.3,0.8,4.1,2.2
			c0.1-1.3,1.2-2.1,2.8-1.9c1.4,0.1,2.7,1,3.4,2.1c0.4-1.1,1.7-1.7,3.2-1.3c1.2,0.3,2.2,1,2.9,1.9c0.7-0.5,1.7-0.7,2.8-0.4
			c1.7,0.4,3.2,1.7,3.8,3.1c0-0.1,0.1-0.3,0.1-0.4c0.7-1.5,3-1.8,5-0.7c0.8,0.5,1.5,1.1,1.9,1.8c1-0.5,2.5-0.4,3.9,0.4
			c2,1.1,3.1,3.3,2.3,4.8c-0.5,1.1-2.8,3.5-4.8,4.2l0,0.2c1.9,2,4,5.6,4.5,7c0.6,2-0.6,3.6-2.8,3.6c-1.4,0-2.9-0.7-3.9-1.8
			c-0.5,0.3-1.1,0.4-1.7,0.4c-2.2,0-4.4-1.6-5.1-3.6c0-0.1-0.1-0.3-0.1-0.4c-0.6,0.7-1.6,1.1-2.9,0.8c-1.5-0.3-2.8-1.5-3.3-2.7
			c-0.6,1-2.1,1.3-3.7,0.7c-0.8-0.3-1.5-0.8-2-1.4c-0.7,0.5-1.8,0.6-2.9,0.2c-1-0.4-1.9-1.1-2.5-1.9c-0.6,0.3-1.5,0.3-2.4,0
			c-0.6-0.2-1.1-0.5-1.6-0.9c-0.6,0.5-1.5,0.6-2.5,0.3c-0.7-0.2-1.3-0.5-1.8-1c-0.5,0.4-1.1,0.5-1.9,0.3c-1.3-0.3-2.4-1.3-2.7-2.4
			c0,0.2,0,0.5-0.1,0.6c-0.3,1-1.5,1.3-2.7,0.8c-0.7-0.3-1.3-0.9-1.6-1.5c-0.3,0.4-1,0.5-1.7,0.2c-0.4-0.2-0.8-0.5-1-0.8
			c-0.2,0.4-0.8,0.5-1.4,0.2c-0.7-0.3-1.1-1-1-1.5c0-0.1,0.1-0.2,0.2-0.4l-0.1,0c-0.5,0.3-1.1,0.5-1.5,0.6c-0.7,0.1-1.5-0.3-1.9-1
			c-0.3-0.7-0.1-1.3,0.6-1.4c0.2,0,0.6,0,1,0c-0.7-0.3-1.2-1-1.1-1.6c0.1-0.6,0.9-0.9,1.6-0.6c0.1,0.1,0.3,0.1,0.5,0.3
			c0.1-0.1,0.1-0.2,0.2-0.2c-0.4-0.5-0.4-1.1-0.1-1.6c0.4-0.4,1-0.5,1.7-0.3C10,22.1,10.1,21.3,10.5,20.8z"/>
		<g>
			<path fill="#078E45" d="M59,33.7c0,0-3.3-0.7-8.3-1.8c-1.2-0.3-2.6-0.5-4-0.8c-0.7-0.1-1.4-0.3-2.2-0.5c-0.7-0.1-1.5-0.3-2.3-0.4
				c-1.5-0.3-3.1-0.6-4.8-0.9c-1.6-0.3-3.3-0.5-4.9-0.8c-1.7-0.2-3.3-0.4-4.9-0.6c-1.6-0.1-3.2-0.4-4.8-0.4c-0.8,0-1.5-0.1-2.3-0.1
				c-0.4,0-0.7,0-1.1-0.1c-0.4,0-0.7,0-1.1,0c-0.7,0-1.4,0-2.1,0c-0.7,0-1.3-0.1-2,0c-1.2,0.1-2.4,0.1-3.4,0.1
				c-1,0.1-1.9,0.2-2.7,0.3C6.7,28,5.8,28,5.8,28s0.8-0.4,2.2-0.9c0.7-0.3,1.6-0.7,2.6-0.9c1-0.3,2.2-0.6,3.4-0.9
				c1.3-0.3,2.7-0.4,4.2-0.7c0.4,0,0.7-0.1,1.1-0.1c0.4,0,0.8,0,1.2-0.1c0.8,0,1.6-0.1,2.4-0.1c0.8-0.1,1.6,0,2.5,0
				c0.8,0,1.7,0.1,2.5,0.1c1.7,0.1,3.4,0.3,5.1,0.5c1.7,0.3,3.4,0.5,5.1,0.9c1.7,0.4,3.3,0.7,4.8,1.2c0.8,0.2,1.5,0.4,2.3,0.7
				c0.7,0.2,1.5,0.5,2.2,0.7c1.4,0.5,2.7,1,3.9,1.5c2.4,1,4.3,1.9,5.6,2.7C58.2,33.2,59,33.7,59,33.7z"/>
		</g>
	</g>
	<g>
		<path fill="#349946" d="M29,77.3c-0.8-1.1,0-2.6,1.7-3.4c0.2-0.1,0.6-0.2,0.9-0.4c-0.6-0.2-1.1-0.6-1.2-1.2
			c-0.4-1.2,0.8-2.7,2.6-3.2c0,0,0,0,0.1,0c-2,0.2-3.5-0.8-3.6-2.2c0-1.5,1.7-3,3.9-3.4c-1.3-0.4-2-1.4-1.7-2.6
			c0.4-1.5,2.4-2.9,4.5-3c-1.6-0.6-2.2-2-1.3-3.5c0.7-1.3,2.3-2.2,4.1-2.5c-1.3-0.8-1.5-2.3-0.4-3.7c0.8-1,2.2-1.7,3.6-2
			c-0.3-0.9-0.1-1.9,0.7-2.9c1.2-1.5,3.4-2.4,5.5-2.4c-0.2-0.1-0.3-0.2-0.4-0.3c-1.6-1.3-1.1-3.6,1.2-5.1c0.9-0.6,2-1,3.1-1.1
			c-0.2-1.2,0.6-2.6,2.1-3.6c2.3-1.5,5.5-1.6,7.1-0.2c1.2,1,3.3,4.2,3.4,6.4L65,37c3.3-1.1,8.8-1.6,10.8-1.4
			c2.8,0.2,4.3,2.1,3.4,4.1c-0.6,1.4-2.1,2.5-3.9,3.1c0.2,0.6,0.1,1.2-0.2,1.8c-0.9,2.1-3.9,3.6-6.7,3.4c-0.2,0-0.4,0-0.6-0.1
			c0.7,0.8,0.7,2-0.2,3.1c-1.1,1.3-3,2.1-4.8,2.1c1,1,0.8,2.6-0.6,3.8c-0.7,0.7-1.7,1.1-2.7,1.4c0.3,0.9,0,1.9-1,2.9
			c-0.9,0.9-2.2,1.4-3.4,1.6c0.1,0.7-0.2,1.6-1,2.3c-0.5,0.5-1.2,0.9-1.8,1.1c0.4,0.8,0.2,1.7-0.6,2.5c-0.5,0.6-1.2,1-2,1.3
			c0.3,0.6,0.2,1.3-0.4,2c-0.9,1.1-2.6,1.8-4.1,1.6c0.3,0.1,0.6,0.2,0.7,0.3c1.1,0.7,1.1,2-0.1,2.9c-0.7,0.6-1.6,0.9-2.5,0.9
			c0.4,0.5,0.2,1.2-0.4,1.7c-0.4,0.3-0.9,0.5-1.5,0.6c0.4,0.4,0.3,1-0.3,1.5c-0.7,0.5-1.7,0.7-2.3,0.3c-0.1-0.1-0.3-0.2-0.4-0.3
			l-0.1,0.1c0.2,0.6,0.2,1.3,0.2,1.7c-0.1,0.7-1.1,1.3-2.1,1.4c-1,0.1-1.7-0.5-1.6-1.2c0-0.2,0.2-0.6,0.4-0.9
			c-0.7,0.6-1.8,0.7-2.5,0.3c-0.7-0.4-0.7-1.2,0-1.8c0.1-0.1,0.3-0.2,0.5-0.4c-0.1-0.1-0.2-0.2-0.2-0.3c-0.8,0.1-1.6-0.1-2-0.6
			c-0.4-0.5-0.2-1.2,0.4-1.7C30.4,78.3,29.5,77.9,29,77.3z"/>
		<g>
			<path fill="#078E45" d="M65.3,35.8c0,0-0.6,0.7-1.6,1.9c-1,1.2-2.5,3-4.2,5.1c-0.9,1.1-1.8,2.2-2.8,3.4c-1,1.2-2,2.5-3,3.9
				c-1,1.3-2.1,2.7-3.1,4.2c-1,1.4-2,2.9-3,4.4c-1,1.5-1.9,3-2.8,4.5c-0.9,1.5-1.7,3-2.5,4.5c-0.8,1.5-1.5,2.9-2.1,4.3
				c-0.6,1.4-1.1,2.8-1.6,4c-0.2,0.6-0.4,1.2-0.6,1.8c-0.2,0.6-0.3,1.1-0.5,1.7c-0.3,1.1-0.5,2-0.7,2.8c-0.3,1.6-0.5,2.5-0.5,2.5
				s0-0.2-0.1-0.7c0-0.4-0.1-1.1-0.1-1.9c0-0.8,0-1.8,0.1-2.9c0-0.6,0.1-1.2,0.2-1.8c0.1-0.6,0.2-1.3,0.3-2c0.3-1.4,0.6-2.9,1.1-4.4
				c0.5-1.5,1-3.2,1.7-4.8c0.7-1.6,1.5-3.3,2.3-4.9c0.9-1.6,1.8-3.2,2.9-4.8c1-1.5,2.1-3.1,3.2-4.5c1.1-1.5,2.3-2.8,3.4-4.1
				c2.3-2.6,4.7-4.8,6.8-6.7c2.1-1.8,3.9-3.2,5.3-4.1C64.5,36.3,65.3,35.8,65.3,35.8z"/>
		</g>
	</g>
</g>
</svg>
