<!-- Generator: Adobe Illustrator 18.1.1, SVG Export Plug-In  -->
<svg version="1.1"
	 xmlns="http://www.w3.org/2000/svg" xmlns:xlink="http://www.w3.org/1999/xlink" xmlns:a="http://ns.adobe.com/AdobeSVGViewerExtensions/3.0/"
	 x="0px" y="0px" width="1187.1px" height="120.7px" viewBox="0 0 1187.1 120.7" enable-background="new 0 0 1187.1 120.7"
	 xml:space="preserve">
<defs>
</defs>
<g>
	<path fill="#33CC00" d="M1187,59.1c-1.9-1.2-4.4-1.9-7.1-2c-0.5,0-0.9,0-1.3,0c0.1-4.3-4.1-8.2-10.2-9c-1-0.1-2.1-0.2-3.1-0.1
		c-1.6-2.7-4.9-4.7-9.2-5.3c-3.3-0.4-6.4,0.1-9,1.3c-0.6-0.2-1.3-0.4-1.9-0.6c-1.2-2.1-3.5-3.9-6.6-4.8c-2-0.6-4-0.8-6-0.7
		c-0.5-0.1-0.9-0.2-1.4-0.2c-1.9-0.3-3.8-0.2-5.6,0.2c-1.3-1.3-3-2.3-5.2-3c-1.1-0.3-2.2-0.5-3.3-0.6c-1.1-0.4-2.3-0.7-3.6-0.9
		c-0.1,0-0.2,0-0.3,0c-1.2-0.7-2.5-1.3-4-1.6c-1.8-1.9-4.6-3.3-8-3.7c-1.7-0.2-3.4-0.2-5,0.1c-0.9-0.2-1.9-0.4-3-0.5
		c-0.3,0-0.5,0-0.7,0c-1.9-2.9-5.9-5-10.7-5.1c-1,0-2.1,0-3,0.2c-2.1-2.5-5.8-4.2-10.1-4.4c-2.9-0.1-5.5,0.5-7.7,1.6
		c-1.8-2.7-5.5-4.6-9.9-4.9c-2.3-0.2-4.5,0.2-6.5,0.8h-0.1c-0.5-0.1-0.9-0.1-1.4-0.1s-1,0-1.5,0c-2-2-5.2-3.5-9-3.7
		c-2.6-0.2-5.2,0.3-7.3,1.1c-0.2,0-0.4,0-0.6-0.1c-1,0-2.1,0-3,0.2c-2.1-2.5-5.8-4.2-10.1-4.4c-2.7-0.1-5.2,0.4-7.3,1.4
		c-1.5-0.6-3.2-1-5-1.2c-2.3-0.2-4.5,0.2-6.5,0.8c0,0,0,0-0.1,0c-1,0-1.9,0-2.8,0.2c-2-2.2-5.3-3.7-9.2-4c-4.3-0.3-8.3,1-10.8,3.3
		c-0.9-0.2-1.9-0.4-3-0.5c-1.3-0.1-2.6,0-3.8,0.2c-1.1-0.1-2.2-0.1-3.4,0c-0.6,0.1-1.3,0.2-1.9,0.3c-2,0.1-3.8,0.5-5.4,1.1
		c-1.3-0.4-2.7-0.7-4.2-0.8c-0.5,0-1,0-1.4,0c-1.9-0.5-3.9-0.7-6.1-0.5c-2.7,0.3-5,1.1-6.8,2.3c-0.8,0.3-1.6,0.7-2.3,1.1
		c-0.4,0-0.8,0.1-1.1,0.1c-2-1.7-4.9-2.8-8.2-3c-4.3-0.3-8.3,1-10.8,3.3c-0.9-0.2-1.9-0.4-3-0.5c-0.8-0.1-1.6,0-2.4,0
		c-1.1-0.3-2.2-0.5-3.4-0.6c-2.6-0.2-5.2,0.3-7.3,1.1c-0.2,0-0.4,0-0.6-0.1c-1,0-2.1,0-3,0.2c-2.1-2.5-5.8-4.2-10.1-4.4
		c-2.7-0.1-5.2,0.4-7.3,1.4c-1.5-0.6-3.2-1-5-1.2c-2.3-0.2-4.5,0.2-6.5,0.8c0,0,0,0-0.1,0c-1,0-1.9,0-2.8,0.2c-2-2.2-5.3-3.7-9.2-4
		c-4.3-0.3-8.3,1-10.8,3.3c-0.9-0.2-1.9-0.4-3-0.5c-1.3-0.1-2.6,0-3.8,0.2c-1.1-0.1-2.2-0.1-3.4,0c-0.6,0.1-1.3,0.2-1.9,0.3
		c-2,0.1-3.8,0.5-5.4,1.1c-1.3-0.4-2.7-0.7-4.2-0.8c-0.5,0-1,0-1.4,0C815,9,813,8.8,810.8,9c-2.7,0.3-5,1.1-6.8,2.3
		c-0.8,0.3-1.6,0.7-2.3,1.1c-0.4,0-0.8,0.1-1.1,0.1c-2-1.7-4.9-2.8-8.2-3c-4.3-0.3-8.3,1-10.8,3.3c-0.9-0.2-1.9-0.4-3-0.5
		c-2.8-0.2-5.5,0.3-7.7,1.3c-1.7-0.8-3.7-1.2-5.9-1.3c-2.9-0.1-5.5,0.5-7.7,1.6c-1.8-2.7-5.5-4.6-9.9-4.9c-2.3-0.2-4.5,0.2-6.5,0.8
		h-0.1c-0.5-0.1-0.9-0.1-1.4-0.1s-1,0-1.5,0c-2-2-5.2-3.5-9-3.7c-2.6-0.2-5.2,0.3-7.3,1.1c-0.2,0-0.4,0-0.6-0.1c-1,0-2.1,0-3,0.2
		c-2.1-2.5-5.8-4.2-10.1-4.4c-2.7-0.1-5.2,0.4-7.3,1.4c-1.5-0.6-3.2-1-5-1.2c-2.3-0.2-4.5,0.2-6.5,0.8c0,0,0,0-0.1,0
		c-1,0-1.9,0-2.8,0.2c-2-2.2-5.3-3.7-9.2-4c-4.3-0.3-8.3,1-10.8,3.3c-0.9-0.2-1.9-0.4-3-0.5c-1.3-0.1-2.6,0-3.8,0.2
		c-1.1-0.1-2.2-0.1-3.4,0c-0.6,0.1-1.3,0.2-1.9,0.3c-2,0.1-3.8,0.5-5.4,1.1c-1.3-0.4-2.7-0.7-4.2-0.8c-0.5,0-1,0-1.4,0
		c-1.9-0.5-3.9-0.7-6.1-0.5c-2.7,0.3-5,1.1-6.8,2.3c-0.8,0.3-1.6,0.7-2.3,1.1c-0.4,0-0.8,0.1-1.1,0.1c-2-1.7-4.9-2.8-8.2-3
		c-4.3-0.3-8.3,1-10.8,3.3c-0.9-0.2-1.9-0.4-3-0.5c-3.5-0.2-6.8,0.6-9.2,2.1c-0.4,0-0.8-0.1-1.2-0.1c-2.7-0.1-5.2,0.4-7.3,1.4
		c-1.5-0.6-3.2-1-5-1.2c-2.3-0.2-4.5,0.2-6.5,0.8c0,0,0,0-0.1,0c-1,0-1.9,0-2.8,0.2c-2-2.2-5.3-3.7-9.2-4c-4.3-0.3-8.3,1-10.8,3.3
		c-0.9-0.2-1.9-0.4-3-0.5c-1.3-0.1-2.6,0-3.8,0.2c-1.1-0.1-2.2-0.1-3.4,0c-0.6,0.1-1.3,0.2-1.9,0.3c-2,0.1-3.8,0.5-5.4,1.1
		c-1.3-0.4-2.7-0.7-4.2-0.8c-0.5,0-1,0-1.4,0c-1.9-0.5-3.9-0.7-6.1-0.5c-2.2,0.2-4.2,0.8-5.8,1.7c-2.1-0.9-4.6-1.4-7.2-1.2
		c-0.9,0.1-1.9,0.2-2.7,0.4c-0.2,0-0.3-0.1-0.5-0.1c-2.5-2.2-6.4-3.5-10.6-3.3c-2.8,0.2-5.4,1-7.3,2.3c-2.3-2.5-6.3-4.1-10.7-4
		c-2.3,0.1-4.5,0.6-6.3,1.4h-0.1c-0.5,0-1,0-1.4,0c-0.5,0-1,0.1-1.5,0.1c-2.4-1.9-5.8-3-9.5-2.9c-2.7,0.1-5.1,0.7-7.1,1.8
		c-0.2,0-0.4,0-0.6,0c-1,0.1-2,0.2-3,0.5c-2.5-2.3-6.5-3.7-10.8-3.4c-2.7,0.2-5.1,0.9-7,2.1c-1.6-0.5-3.4-0.7-5.2-0.7
		c-2.3,0.1-4.4,0.6-6.3,1.4c0,0,0,0-0.1,0c-1,0.1-1.9,0.2-2.7,0.4c-2.4-2-5.9-3.2-9.8-3.1c-4.3,0.1-8.1,1.8-10.2,4.3
		c-1-0.2-2-0.2-3-0.2c-1.3,0-2.6,0.2-3.7,0.5c-1.1,0-2.2,0.1-3.4,0.3c-0.6,0.1-1.2,0.3-1.8,0.5c-1.9,0.3-3.7,0.8-5.2,1.6
		c-1.3-0.3-2.8-0.5-4.3-0.4c-0.5,0-1,0-1.4,0.1c-1.9-0.3-4-0.4-6.1,0c-2.6,0.5-4.8,1.5-6.4,2.9c-0.4,0.2-0.7,0.4-1.1,0.6
		c-2.1-2.3-5.7-3.9-9.8-4c-2.7-0.1-5.2,0.4-7.3,1.4c-1.5-0.6-3.2-1-5-1.2c-2.3-0.2-4.5,0.2-6.5,0.8c0,0,0,0-0.1,0
		c-1,0-1.9,0-2.8,0.2c-2-2.2-5.3-3.7-9.2-4c-4.3-0.3-8.3,1-10.8,3.3c-0.9-0.2-1.9-0.4-3-0.5c-1.3-0.1-2.6,0-3.8,0.2
		c-1.1-0.1-2.2-0.1-3.4,0c-0.6,0.1-1.3,0.2-1.9,0.3c-2,0.1-3.8,0.5-5.4,1.1c-1.3-0.4-2.7-0.7-4.2-0.8c-0.5,0-1,0-1.4,0
		c-1.9-0.5-3.9-0.7-6.1-0.5c-2.7,0.3-5,1.1-6.8,2.3c-0.8,0.3-1.6,0.7-2.3,1.1c-0.4,0-0.8,0.1-1.1,0.1c-2-1.7-4.9-2.8-8.2-3
		c-0.1,0-0.3,0-0.4,0c-1.4-0.5-3-0.8-4.7-0.8c-2.7-0.1-5.2,0.4-7.3,1.4c-1.5-0.6-3.2-1-5-1.2c-2.3-0.2-4.5,0.2-6.5,0.8
		c0,0,0,0-0.1,0c-1,0-1.9,0-2.8,0.2c-2-2.2-5.3-3.7-9.2-4c-4.3-0.3-8.3,1-10.8,3.3c-0.9-0.2-1.9-0.4-3-0.5c-1.3-0.1-2.6,0-3.8,0.2
		c-1.1-0.1-2.2-0.1-3.4,0c-0.6,0.1-1.3,0.2-1.9,0.3c-2,0.1-3.8,0.5-5.4,1.1c-1.3-0.4-2.7-0.7-4.2-0.8c-0.5,0-1,0-1.4,0
		c-1.9-0.5-3.9-0.7-6.1-0.5c-2.7,0.3-5,1.1-6.8,2.3c-0.8,0.3-1.6,0.7-2.3,1.1c-0.4,0-0.8,0.1-1.1,0.1c-2-1.7-4.9-2.8-8.2-3
		c-4.3-0.3-8.3,1-10.8,3.3c-0.9-0.2-1.9-0.4-3-0.5c-5.4-0.4-10.4,1.9-12.5,5.2c-2.2-1.1-4.9-1.8-7.8-1.7c-3.4,0.1-6.5,1.2-8.6,2.9
		c-1.5,0.2-3,0.6-4.3,1.2c-0.1,0-0.2,0-0.3,0c-1.3,0-2.6,0.2-3.7,0.5c-1.1,0-2.2,0.1-3.4,0.3c-2.3,0.4-4.2,1.3-5.7,2.5
		c-1.7-0.5-3.5-0.8-5.5-0.8c-0.5,0-1,0.1-1.4,0.1c-1.9-0.3-4-0.3-6.1,0.1c-3.3,0.6-5.9,2.2-7.5,4.1c-0.7,0.1-1.4,0.2-2,0.4
		c-2.3-1.5-5.4-2.3-8.7-2.2c-4.3,0.1-8,1.8-10.1,4.3c-1-0.1-2-0.2-3-0.2c-6.2,0.2-11.1,3.6-11.8,7.9c-0.4-0.1-0.9-0.1-1.3-0.1
		c-2.7-0.2-5.3,0.3-7.4,1.2c-1.1-0.2-2.3-0.3-3.5-0.3c-6.7,0.2-11.9,4.2-11.6,9c0,0.2,0,0.5,0.1,0.7c-3.9,1.4-6.5,4.3-6.8,7.4
		c-0.4,0.1-0.8,0.2-1.2,0.3c-1.1-0.1-2.1-0.1-3.2,0c-3.4,0.3-6.3,1.7-8.2,3.5c-2.3-1.1-5-1.8-7.9-1.8v64.3h1186.6V59.1
		C1187.1,59.1,1187.1,59.1,1187,59.1z"/>
</g>
</svg>
