<!-- Generator: Adobe Illustrator 18.1.1, SVG Export Plug-In  -->
<svg version="1.1"
	 xmlns="http://www.w3.org/2000/svg" xmlns:xlink="http://www.w3.org/1999/xlink" xmlns:a="http://ns.adobe.com/AdobeSVGViewerExtensions/3.0/"
	 x="0px" y="0px" width="182px" height="122.9px" viewBox="0 0 182 122.9" enable-background="new 0 0 182 122.9"
	 xml:space="preserve">
<defs>
</defs>
<g>
	<path fill="#FFFFFF" stroke="#FF0033" stroke-width="6.1684" stroke-miterlimit="10" d="M145.3,119.8H36.7
		c-18.5,0-33.6-15.1-33.6-33.6V36.7c0-18.5,15.1-33.6,33.6-33.6h108.6c18.5,0,33.6,15.1,33.6,33.6v49.5
		C178.9,104.7,163.8,119.8,145.3,119.8z"/>
	<g>
		<path fill="#33CC00" d="M54.7,17.9c0.3-0.7,0.9-1.1,1.8-1.4c0.9-0.3,2-0.4,3.4-0.4c1.4,0,2.6,0.1,3.4,0.4c0.9,0.3,1.5,0.7,1.8,1.4
			c0.3,0.7,0.5,1.3,0.6,1.8c0.1,0.5,0.1,1.3,0.1,2.3v40.6c0,1,0,1.8-0.1,2.3c-0.1,0.5-0.3,1.1-0.6,1.7c-0.7,1.2-2.6,1.8-5.7,1.8
			c-3.1,0-4.9-1.1-5.3-3.3c-1.9,2.2-4.6,3.3-8,3.3c-4.1,0-7.8-1.8-11.1-5.3s-5-7.7-5-12.4s1.7-8.9,5.1-12.5
			c3.4-3.6,7.1-5.4,11.1-5.4c3.4,0,6,1.1,7.8,3.4V22c0-1,0-1.8,0.1-2.3C54.1,19.1,54.3,18.5,54.7,17.9z M43.6,54.8
			c1.2,1.2,2.6,1.8,4.3,1.8c1.7,0,3.1-0.6,4.2-1.8c1.1-1.2,1.7-2.6,1.7-4c0-1.5-0.5-2.8-1.6-4.1c-1.1-1.3-2.5-1.9-4.3-1.9
			c-1.8,0-3.3,0.6-4.3,1.9c-1.1,1.2-1.6,2.6-1.6,4.1C41.8,52.3,42.4,53.6,43.6,54.8z"/>
		<path fill="#33CC00" d="M78.7,26.2c-0.3,0.7-0.9,1.1-1.8,1.4c-0.9,0.3-2,0.4-3.4,0.4c-1.4,0-2.6-0.1-3.4-0.4
			c-0.9-0.3-1.5-0.7-1.8-1.4c-0.3-0.7-0.5-1.3-0.6-1.8c-0.1-0.5-0.1-1.3-0.1-2.3c0-1,0-1.8,0.1-2.3c0.1-0.5,0.3-1.1,0.6-1.7
			c0.6-1.2,2.4-1.8,5.3-1.8c2.9,0,4.6,0.6,5.2,1.8c0.4,0.7,0.6,1.3,0.6,1.8c0.1,0.5,0.1,1.3,0.1,2.3c0,1,0,1.8-0.1,2.3
			C79.2,24.9,79,25.5,78.7,26.2z M67.5,38.8c0-1,0-1.8,0.1-2.3s0.3-1.1,0.6-1.8c0.6-1.2,2.4-1.8,5.3-1.8c2.2,0,3.7,0.4,4.6,1.2
			c0.8,0.6,1.2,1.6,1.2,2.9c0,0.5,0.1,1.1,0.1,2v23.8c0,1,0,1.8-0.1,2.3c-0.1,0.5-0.3,1.1-0.6,1.8c-0.6,1.2-2.3,1.8-5.2,1.8
			c-2.9,0-4.6-0.6-5.2-1.8c-0.3-0.7-0.5-1.3-0.6-1.8s-0.1-1.3-0.1-2.4V38.8z"/>
		<path fill="#33CC00" d="M100.9,32.8c4.5,0,8.3,1.7,11.3,5.2c3,3.5,4.5,7.7,4.5,12.7v12c0,1,0,1.8-0.1,2.3
			c-0.1,0.5-0.3,1.1-0.6,1.7c-0.6,1.2-2.4,1.8-5.3,1.8c-3.2,0-5.1-0.8-5.6-2.5c-0.3-0.8-0.4-1.9-0.4-3.5v-12c0-1.9-0.5-3.3-1.6-4.4
			c-1.1-1-2.5-1.6-4.3-1.6c-1.8,0-3.2,0.5-4.3,1.6c-1.1,1.1-1.7,2.5-1.7,4.3v12c0,1,0,1.8-0.1,2.3c-0.1,0.5-0.3,1.1-0.6,1.7
			c-0.6,1.2-2.3,1.8-5.2,1.8c-2.9,0-4.6-0.6-5.2-1.8c-0.3-0.7-0.5-1.3-0.6-1.8C81,64.4,81,63.6,81,62.6V38.5c0-1,0-1.8,0.1-2.3
			c0.1-0.5,0.3-1.1,0.6-1.7c0.6-1.1,2.4-1.7,5.2-1.7c2.8,0,4.5,0.5,5.1,1.6c0.5,0.8,0.7,1.7,0.7,2.8c0.2-0.3,0.6-0.8,1.2-1.4
			c0.6-0.6,1.2-1.1,1.8-1.4C97.4,33.3,99.1,32.8,100.9,32.8z"/>
		<path fill="#33CC00" d="M120.4,37.3c3.8-3.5,8.2-5.3,13.1-5.3c4.9,0,9.2,1.8,13,5.3c3.8,3.5,5.6,8,5.6,13.4c0,3.8-1,7.1-2.9,10
			c-1.9,2.9-4.3,5.1-7.1,6.5c-2.8,1.4-5.7,2.1-8.7,2.1c-3,0-5.9-0.7-8.7-2.2c-2.8-1.5-5.2-3.6-7.1-6.5c-1.9-2.9-2.9-6.1-2.9-9.8
			C114.7,45.3,116.6,40.8,120.4,37.3z M128.9,55.6c1.4,1.1,2.9,1.7,4.4,1.7c1.5,0,3-0.6,4.5-1.7c1.5-1.1,2.2-2.8,2.2-5
			c0-2.2-0.7-3.9-2.1-5c-1.4-1.1-2.9-1.6-4.6-1.6c-1.6,0-3.1,0.6-4.6,1.7c-1.4,1.1-2.1,2.8-2.1,5S127.4,54.5,128.9,55.6z"/>
		<g>
			<path fill="#FFCC05" stroke="#FFFFFF" stroke-width="2.7012" stroke-miterlimit="10" d="M148.5,61.9c-1.3-0.6-2.4-0.8-3.3-0.8
				c-0.9,0-1.7,0.3-2.2,1c-0.3,0.4-0.5,0.7-0.7,1c-0.1,0.3-1.2,2.5-3.1,6.8c-1.9,4.2-3,6.7-3.2,7.3c-1.8-2.9-3.7-6-5.6-9.3
				c-2-3.3-3-5.2-3.3-5.5c-0.2-0.3-0.6-0.7-1-1c-0.5-0.3-1.1-0.5-1.8-0.5c-0.8,0-1.8,0.4-3.1,1.2c-1.1,0.6-1.9,1.3-2.4,1.9
				c-2.4-1.9-5-2.9-7.8-2.9c-2.9,0-5.2,1-6.8,2.9V51.6c0-0.9,0-1.6-0.1-2c-0.1-0.5-0.2-1-0.6-1.6c-0.5-1.1-2-1.6-4.5-1.6
				c-2.5,0-4.1,0.5-4.6,1.6c-0.3,0.6-0.4,1.1-0.5,1.5c-0.1,0.5-0.1,1.1-0.1,2v35.4c0,0.9,0,1.6,0.1,2c0.1,0.5,0.2,1,0.5,1.6
				c0.6,1.1,2.1,1.6,4.6,1.6c3.1,0,4.8-1,5.1-2.9c1.4,1.9,3.8,2.8,7.2,2.8c3.4,0,6.5-1.5,9.4-4.7c2.5-2.6,3.8-5.6,4.2-8.9l6,10.1
				c-3.8,8.1-5.7,12.6-5.7,13.6c0,1.4,1.2,2.7,3.5,3.7c1.4,0.6,2.4,0.9,3.1,0.9c0.7,0,1.3-0.2,1.8-0.5c0.5-0.4,0.8-0.7,1-1.1
				c0.2-0.4,0.5-1,0.8-1.7L151,68.7c0,0,0.2-0.4,0.5-1c0.3-0.6,0.5-1.3,0.5-2C152,64.2,150.8,62.9,148.5,61.9z M113.1,80.2
				c-1,1.1-2.3,1.6-3.7,1.6c-1.5,0-2.7-0.5-3.6-1.6c-1-1.1-1.5-2.2-1.5-3.5c0-1.3,0.5-2.5,1.4-3.6c0.9-1.1,2.2-1.7,3.8-1.7
				c1.6,0,2.8,0.5,3.8,1.6c1,1.1,1.4,2.3,1.4,3.6C114.7,77.9,114.2,79.1,113.1,80.2z"/>
			<path fill="#FFCC05" stroke="#FFFFFF" stroke-width="2.7012" stroke-miterlimit="10" d="M47.1,61.7c-2.9,0-5.2,1-6.8,2.9V52.2
				c0-0.9,0-1.6-0.1-2c-0.1-0.5-0.2-1-0.6-1.6c-0.5-1.1-2-1.6-4.5-1.6c-2.5,0-4.1,0.5-4.6,1.6c-0.3,0.6-0.4,1.1-0.5,1.5
				c-0.1,0.5-0.1,1.1-0.1,2v35.4c0,0.9,0,1.6,0.1,2c0.1,0.5,0.2,1,0.5,1.6c0.6,1.1,2.1,1.6,4.6,1.6c3.1,0,4.8-1,5.1-2.9
				c1.4,1.9,3.8,2.8,7.2,2.8c3.4,0,6.5-1.5,9.4-4.7c2.9-3.1,4.4-6.7,4.4-10.9c0-4.1-1.5-7.8-4.4-10.9C53.8,63.2,50.6,61.7,47.1,61.7
				z M49.3,80.8c-1,1.1-2.3,1.6-3.7,1.6c-1.5,0-2.7-0.5-3.6-1.6c-1-1.1-1.5-2.2-1.5-3.5c0-1.3,0.5-2.5,1.4-3.6
				c0.9-1.1,2.2-1.7,3.8-1.7c1.6,0,2.8,0.5,3.8,1.6c1,1.1,1.4,2.3,1.4,3.6C50.8,78.6,50.3,79.8,49.3,80.8z"/>
			<path fill="#FFCC05" stroke="#FFFFFF" stroke-width="2.7012" stroke-miterlimit="10" d="M92.1,63.2c-0.3-0.6-0.8-1-1.6-1.2
				c-0.7-0.2-1.9-0.4-3.4-0.4c-2.9,0-4.5,1.1-4.7,3.3c-0.3-0.4-0.6-0.8-1.1-1.2s-1.2-0.9-2.3-1.3c-1.1-0.5-2.3-0.7-3.7-0.7
				c-3.5,0-6.8,1.5-9.7,4.7c-3,3.1-4.4,6.7-4.4,10.9c0,4.1,1.5,7.8,4.4,10.9c2.9,3.1,6.1,4.7,9.5,4.7c3.4,0,5.9-1,7.3-3.1
				c0.1,1,0.5,1.8,1.3,2.3c0.7,0.5,2.2,0.8,4.3,0.8c2.2,0,3.5-0.5,4.1-1.5c0.3-0.6,0.4-1.1,0.5-1.6c0.1-0.5,0.1-1.1,0.1-2V66.8
				c0-0.9,0-1.6-0.1-2C92.6,64.3,92.4,63.8,92.1,63.2z M80.5,80.8c-1,1.1-2.2,1.6-3.7,1.6s-2.7-0.5-3.7-1.6c-1-1-1.5-2.2-1.5-3.5
				c0-1.3,0.5-2.5,1.5-3.6c1-1.1,2.2-1.7,3.8-1.7c1.6,0,2.8,0.6,3.7,1.7c0.9,1.1,1.4,2.3,1.4,3.6C82,78.5,81.5,79.7,80.5,80.8z"/>
			<path fill="#66CCFF" d="M148.3,83c-1.8,0-2.9,0.4-3.3,1.3c-0.2,0.4-0.4,0.8-0.4,1.2c0,0.3-0.1,0.9-0.1,1.5v0.2
				c0,1.5,0.3,2.6,0.9,3.2c0.6,0.6,1.7,0.8,3.5,0.8c1.8,0,2.9-0.4,3.3-1.3c0.3-0.5,0.4-0.9,0.5-1.2c0-0.3,0.1-0.9,0.1-1.6V87
				c0-1.5-0.2-2.6-0.7-3.1C151.2,83.3,150,83,148.3,83z"/>
		</g>
	</g>
</g>
</svg>
