<!-- Generator: Adobe Illustrator 18.1.1, SVG Export Plug-In  -->
<svg version="1.1"
	 xmlns="http://www.w3.org/2000/svg" xmlns:xlink="http://www.w3.org/1999/xlink" xmlns:a="http://ns.adobe.com/AdobeSVGViewerExtensions/3.0/"
	 x="0px" y="0px" width="1126.4px" height="209.7px" viewBox="0 0 1126.4 209.7" enable-background="new 0 0 1126.4 209.7"
	 xml:space="preserve">
<defs>
</defs>
<polygon fill="#999999" points="1126.4,209.7 0,209.7 0,80.2 18.3,80.2 23.8,61.8 36.6,60.1 47.6,40.1 67.8,28.4 76.9,30.1 
	89.7,23.4 117.2,23.4 131.9,45.1 155.7,45.1 161.2,61.8 203.3,61.8 207,33.4 234.4,28.4 249.1,15 260.1,13.4 265.6,30.1 283.9,31.7 
	296.7,50.1 329.7,50.1 340.7,33.4 366.3,31.7 371.8,0 393.8,8.3 395.6,23.4 415.8,30.1 421.3,58.4 485.4,58.4 492.7,68.5 
	514.7,68.5 534,63.9 562.7,65.9 591.6,45.1 606.3,41.7 611.8,26.7 646.6,20 653.9,26.7 683.2,20 694.2,28.4 714.3,48.4 752.8,56.8 
	772.9,41.7 813.2,63.5 838.9,58.4 848,45.1 870,43.4 875.5,30.1 890.2,30.1 890.2,38.4 908.5,43.4 914,60.1 956.1,75.1 985.4,71.8 
	1009.2,45.1 1031.2,45.1 1044,58.4 1067.8,53.4 1075.2,23.4 1097.1,23.4 1102.6,38.4 1126.4,40.1 "/>
</svg>
