<!-- Generator: Adobe Illustrator 18.1.1, SVG Export Plug-In  -->
<svg version="1.1"
	 xmlns="http://www.w3.org/2000/svg" xmlns:xlink="http://www.w3.org/1999/xlink" xmlns:a="http://ns.adobe.com/AdobeSVGViewerExtensions/3.0/"
	 x="0px" y="0px" width="1024px" height="253px" viewBox="0 0 1024 253" enable-background="new 0 0 1024 253" xml:space="preserve"
	>
<defs>
</defs>
<polygon fill="#CCCCCC" points="872.4,188.3 0,188.3 0,168.2 7.1,168.2 11.9,75.3 18.5,75.3 24.2,75.3 25.2,85 25.2,100.7 
	34.7,107.7 39.4,108.6 40.4,117.4 40.4,122.6 48.9,124.4 48.9,131.8 59.4,138.4 71.8,148 73.7,126.1 87,115.6 89.8,120 92.7,127 
	92.7,131.8 101.2,136.6 101.2,142.8 104.1,150.7 117.4,147.2 120.2,135.8 131.6,131.8 131.6,120 133.5,105.1 135.4,100.7 
	144.9,97.2 151.6,99.9 165.8,99.9 169.6,106 170.6,111.2 191.5,112.1 193.4,120 198.1,137.5 210.5,145.4 219.1,151.5 228.6,160.3 
	254.2,161.2 259.9,139.3 279.9,131.8 288.4,127 288.4,113.9 295.1,111.2 295.1,98.1 299.8,92 299.8,75.3 308.6,68.5 308.4,54.3 
	319.8,54.3 321.5,69.9 330.2,79.7 329.3,90.2 344.5,89.3 350.2,71 357.8,65.7 364.5,15.8 373,15.8 376.1,18.6 388.2,11.4 
	393.9,11.4 393.9,34.2 394.9,68.3 399.1,69.2 409.8,60 424.1,58.7 423.4,123.1 436.2,123.7 446.2,125 449,134.2 469.7,137.5 
	477.5,150 513.2,148 525.3,117.2 536.7,102 541,78.8 551.7,76.8 552.1,55.4 557.8,55.4 557.8,48.2 561.4,46.2 562.1,31.1 
	571.4,31.1 571.6,84.4 578.8,84.4 578.8,93.5 589.5,95.5 598,129 621.5,131 633.6,140.8 661.4,136.9 675,96.8 689.2,97.4 
	702.8,77.7 712.8,73.8 714.2,61.3 733.4,57.4 746.3,60.7 748.4,71.2 757.7,73.1 765.3,25 776.7,18.4 781.7,0 787.4,0 787.4,42 
	797.3,46 796.2,73.8 798.3,93.5 811.8,93.5 812.5,100.7 830.4,127 849.1,119.1 861.5,127.9 872.4,114.7 899.5,113.9 911.9,74.5 
	922.3,75.3 928,57.8 941.3,58.7 948,108.6 970.8,111.2 976.5,129.6 1005,130.5 1012.6,143.7 1024,143.7 1024,188.3 "/>
<polygon fill="#999999" points="1024,253 0,253 0,160.4 16.7,160.4 21.6,147.3 33.3,146.1 43.3,131.8 61.6,123.4 69.9,124.6 
	81.6,119.8 106.6,119.8 119.9,135.3 141.5,135.3 146.5,147.3 184.8,147.3 188.1,127 213.1,123.4 226.4,113.8 236.4,112.7 
	241.4,124.6 258.1,125.8 269.7,138.9 299.7,138.9 309.7,127 333,125.8 338,103.1 358,109.1 359.6,119.8 378,124.6 383,144.9 
	441.2,144.9 447.9,152.1 467.9,152.1 485.5,148.8 511.5,150.3 537.8,135.3 551.1,133 556.1,122.2 587.8,117.4 594.4,122.2 
	621.1,117.4 631.1,123.4 649.4,137.7 684.3,143.7 702.6,133 739.3,148.5 762.6,144.9 770.9,135.3 790.9,134.1 795.9,124.6 
	809.2,124.6 809.2,130.6 825.9,134.1 830.9,146.1 869.2,156.8 895.8,154.4 917.4,135.3 937.4,135.3 949.1,144.9 970.7,141.3 
	977.4,119.8 997.4,119.8 1002.4,130.6 1024,131.8 "/>
</svg>
