<!-- Generator: Adobe Illustrator 18.1.1, SVG Export Plug-In  -->
<svg version="1.1"
	 xmlns="http://www.w3.org/2000/svg" xmlns:xlink="http://www.w3.org/1999/xlink" xmlns:a="http://ns.adobe.com/AdobeSVGViewerExtensions/3.0/"
	 x="0px" y="0px" width="952.9px" height="272.4px" viewBox="0 0 952.9 272.4" enable-background="new 0 0 952.9 272.4"
	 xml:space="preserve">
<defs>
</defs>
<g>
	<g>
		<defs>
			<polygon id="XMLID_14_" points="20.5,251.2 8.5,253.4 0,249.5 3.2,238.9 13.1,233.4 21.8,238.5 25,244.9 			"/>
		</defs>
		<use xlink:href="#XMLID_14_"  overflow="visible" fill="#989898"/>
		<clipPath id="XMLID_19_">
			<use xlink:href="#XMLID_14_"  overflow="visible"/>
		</clipPath>
	</g>
	<polygon fill="#CCCBCB" points="3.2,238.9 12.5,239.7 21.8,238.5 13.1,233.4 	"/>
</g>
<g>
	<g>
		<defs>
			<polygon id="XMLID_13_" points="950.8,92.7 945.3,93.7 941.5,92 942.9,87.1 947.5,84.6 951.4,86.9 952.9,89.9 			"/>
		</defs>
		<use xlink:href="#XMLID_13_"  overflow="visible" fill="#989898"/>
		<clipPath id="XMLID_20_">
			<use xlink:href="#XMLID_13_"  overflow="visible"/>
		</clipPath>
	</g>
	<polygon fill="#CCCBCB" points="942.9,87.1 947.2,87.5 951.4,86.9 947.5,84.6 	"/>
</g>
<g>
	<g>
		<defs>
			<polygon id="XMLID_12_" points="899.9,94.7 903.8,84.3 918,81 923.6,84.3 926.9,88.5 928.1,90.1 929.3,91.6 928.3,95.1 
				917.6,97.3 			"/>
		</defs>
		<use xlink:href="#XMLID_12_"  overflow="visible" fill="#989898"/>
		<clipPath id="XMLID_21_">
			<use xlink:href="#XMLID_12_"  overflow="visible"/>
		</clipPath>
	</g>
	<path fill="#989898" d="M916.8,86.2"/>
	<polygon fill="#CCCBCB" points="903.8,84.3 906.4,87.4 910.8,86.2 917.2,86.9 920.2,86.2 923.6,84.3 918,81 	"/>
</g>
<g>
	<g>
		<defs>
			<polygon id="XMLID_9_" points="29.5,161.7 34.2,149.1 43.8,145.6 50.6,149.5 54.6,154.6 56.1,156.5 57.5,158.4 56.3,162.6 
				43.4,165.2 			"/>
		</defs>
		<use xlink:href="#XMLID_9_"  overflow="visible" fill="#989898"/>
		<clipPath id="XMLID_23_">
			<use xlink:href="#XMLID_9_"  overflow="visible"/>
		</clipPath>
	</g>
	<path fill="#989898" d="M42.4,151.8"/>
	<polygon fill="#CCCBCB" points="34.2,149.1 35.5,156.5 41,157.8 42.8,152.7 49.5,155.1 50.6,149.5 43.8,145.6 	"/>
</g>
<g>
	<g>
		<defs>
			<polygon id="XMLID_8_" points="73,173.1 78.4,158.3 98.6,153.7 106.4,158.3 111.2,164.3 112.9,166.5 114.6,168.7 113.2,173.6 
				98.1,176.7 			"/>
		</defs>
		<use xlink:href="#XMLID_8_"  overflow="visible" fill="#989898"/>
		<clipPath id="XMLID_24_">
			<use xlink:href="#XMLID_8_"  overflow="visible"/>
		</clipPath>
	</g>
	<path fill="#989898" d="M96.9,161"/>
	<polygon fill="#CCCBCB" points="78.4,158.3 82.2,162.7 88.4,161 97.4,162 101.7,161 106.4,158.3 98.6,153.7 	"/>
</g>
<g>
	<g>
		<defs>
			<polygon id="XMLID_7_" points="342.2,258.7 334.9,238.8 319.6,233.2 309.1,239.4 302.7,247.5 300.4,250.5 298.1,253.5 
				299.9,260.1 320.3,264.2 			"/>
		</defs>
		<use xlink:href="#XMLID_7_"  overflow="visible" fill="#989898"/>
		<clipPath id="XMLID_25_">
			<use xlink:href="#XMLID_7_"  overflow="visible"/>
		</clipPath>
	</g>
	<path fill="#989898" d="M321.9,243.1"/>
	<polygon fill="#CCCBCB" points="334.9,238.8 332.7,250.5 324.1,252.5 321.2,244.4 310.7,248.2 309.1,239.4 319.6,233.2 	"/>
</g>
<g>
	<g>
		<defs>
			<polygon id="XMLID_6_" points="348.1,267.5 355.4,247.5 382.7,241.3 393.3,247.6 399.7,255.6 402,258.6 404.4,261.6 402.5,268.3 
				382,272.4 			"/>
		</defs>
		<use xlink:href="#XMLID_6_"  overflow="visible" fill="#989898"/>
		<clipPath id="XMLID_26_">
			<use xlink:href="#XMLID_6_"  overflow="visible"/>
		</clipPath>
	</g>
	<path fill="#989898" d="M380.4,251.2"/>
	<polygon fill="#CCCBCB" points="355.4,247.5 360.5,253.5 368.9,251.2 381.1,252.6 386.9,251.2 393.3,247.6 382.7,241.3 	"/>
</g>
<g>
	<g>
		<defs>
			<polygon id="XMLID_5_" points="416.7,256.1 409.5,257.4 404.4,255.1 406.3,248.8 412.2,245.5 417.4,248.5 419.4,252.4 			"/>
		</defs>
		<use xlink:href="#XMLID_5_"  overflow="visible" fill="#989898"/>
		<clipPath id="XMLID_27_">
			<use xlink:href="#XMLID_5_"  overflow="visible"/>
		</clipPath>
	</g>
	<polygon fill="#CCCBCB" points="406.3,248.8 411.9,249.2 417.4,248.5 412.2,245.5 	"/>
</g>
<g>
	<g>
		<g>
			<defs>
				<polygon id="XMLID_4_" points="587.2,208 596.5,182.5 615.9,175.5 629.4,183.4 637.6,193.6 640.5,197.4 643.4,201.2 641,209.7 
					615.1,215 				"/>
			</defs>
			<use xlink:href="#XMLID_4_"  overflow="visible" fill="#989898"/>
			<clipPath id="XMLID_28_">
				<use xlink:href="#XMLID_4_"  overflow="visible"/>
			</clipPath>
		</g>
		<polygon fill="#CCCBCB" points="596.5,182.5 599.3,197.4 610.2,200.1 614,189.8 627.4,194.6 629.4,183.4 615.9,175.5 		"/>
	</g>
	<g>
		<defs>
			<polygon id="XMLID_3_" points="543.6,193.2 548.4,180.2 566.1,176.2 573,180.3 577.1,185.5 578.6,187.4 580.1,189.4 578.9,193.7 
				565.6,196.4 			"/>
		</defs>
		<use xlink:href="#XMLID_3_"  overflow="visible" fill="#989898"/>
		<clipPath id="XMLID_29_">
			<use xlink:href="#XMLID_3_"  overflow="visible"/>
		</clipPath>
	</g>
	<polygon fill="#CCCBCB" points="548.4,180.2 551.7,184.1 557.1,182.7 565,183.5 568.8,182.7 573,180.3 566.1,176.2 	"/>
</g>
<g>
	<g>
		<defs>
			<polygon id="XMLID_2_" points="803.4,183 791.4,185.2 782.9,181.3 786.1,170.7 796,165.2 804.7,170.3 807.9,176.7 			"/>
		</defs>
		<use xlink:href="#XMLID_2_"  overflow="visible" fill="#989898"/>
		<clipPath id="XMLID_30_">
			<use xlink:href="#XMLID_2_"  overflow="visible"/>
		</clipPath>
	</g>
	<polygon fill="#CCCBCB" points="786.1,170.7 795.4,171.5 804.7,170.3 796,165.2 	"/>
</g>
<path fill="#33CC00" d="M148.7,17.6c-0.7-0.5-2.1-0.7-3.7-0.7c1.1-2.9,1.8-6.5,1.8-7.8c-0.6,0.5-1.9,2-3.1,3.6
	c0.6-2.7-0.9-6.6-2.1-8.9c0.7,2.9,0.6,6.2-0.4,9c-0.3-1.1-0.6-2-0.8-2.4c-0.2,0.7-0.5,1.4-0.7,2.1c-1.3-2.6-2.7-5.1-3-6
	c0,1.1,0,5.8,0.8,9.3c-0.9-0.3-2.1-0.5-3.9-0.5c2.3,0.8,3.1,2.4,4.5,4c-0.7,1.1-1.8,2.4,2.6,1c0.1,0,0.1,0.1,0.2,0.1
	c1.1,0.5,2.2-0.3,3-1.6C146.2,18.3,148.6,17.7,148.7,17.6z"/>
<path fill="#33CC00" d="M823.4,10.8c-0.6-0.4-1.7-0.5-2.9-0.6c0.9-2.2,1.4-5.1,1.4-6.1c-0.4,0.4-1.5,1.5-2.5,2.8
	c0.4-2.1-0.7-5.2-1.6-7c0.5,2.3,0.5,4.8-0.3,7.1c-0.2-0.9-0.5-1.6-0.6-1.9c-0.2,0.5-0.4,1.1-0.5,1.6c-1-2-2.1-4-2.3-4.7
	c0,0.8,0,4.5,0.6,7.3c-0.7-0.2-1.6-0.4-3-0.4c1.8,0.7,2.4,1.8,3.5,3.2c-0.6,0.9-1.4,1.9,2,0.8c0,0,0.1,0.1,0.2,0.1
	c0.9,0.4,1.7-0.2,2.4-1.3C821.5,11.3,823.3,10.8,823.4,10.8z"/>
<g>
	<g>
		<defs>
			<polygon id="XMLID_1_" points="124.7,31.5 126.3,27 132.4,25.6 134.8,27 136.2,28.8 136.7,29.5 137.2,30.2 136.8,31.6 
				132.3,32.6 			"/>
		</defs>
		<use xlink:href="#XMLID_1_"  overflow="visible" fill="#989898"/>
		<clipPath id="XMLID_31_">
			<use xlink:href="#XMLID_1_"  overflow="visible"/>
		</clipPath>
	</g>
	<path fill="#989898" d="M131.9,27.8"/>
	<polygon fill="#CCCBCB" points="126.3,27 127.5,28.3 129.3,27.8 132.1,28.1 133.3,27.8 134.8,27 132.4,25.6 	"/>
</g>
</svg>
