<!-- Generator: Adobe Illustrator 18.1.1, SVG Export Plug-In  -->
<svg version="1.1"
	 xmlns="http://www.w3.org/2000/svg" xmlns:xlink="http://www.w3.org/1999/xlink" xmlns:a="http://ns.adobe.com/AdobeSVGViewerExtensions/3.0/"
	 x="0px" y="0px" width="110.2px" height="119.3px" viewBox="0 0 110.2 119.3" enable-background="new 0 0 110.2 119.3"
	 xml:space="preserve">
<defs>
</defs>
<g>
	<path fill="#FF9966" d="M61.6,55c0,0-16.9,22.5-20.2,7.6s9-10.1,10-12.9c1.1-2.8-20.5,7.6-17.6-3.2s15.4-2.2,16.3-6.1
		S27.8,40.8,28.7,30c0.6-7.2,6.1-12.8,18.3-4.8c0,0-15.4-22.2-3.1-24.9S54.7,10.4,56.3,22c0,0,10.2-10.9,15.7-4.7
		s-0.2,14.2-13.2,19.4c0,0,17.5-9,18.9,0.9c1,7.1-8.6,7.2-16.9,8.6c0,0,25-6,18.9,6.6C73.6,65.4,61.6,55,61.6,55z"/>
	<g>
		<path fill="#996733" d="M45.3,110.1c0,0,0.1-0.1,0.2-0.2c0.1-0.1,0.2-0.2,0.3-0.3c-0.1,0-0.1,0.1-0.2,0.1c0,0-0.1,0.1-0.1,0.1
			c0,0,0,0.1,0,0l0.1-0.1c0.1-0.1,0.2-0.3,0.3-0.5c0.2-0.3,0.5-0.9,0.7-1.4c0.5-1.2,1.2-2.7,1.8-4.5c0.7-1.8,1.4-3.9,2-6.3
			c0.7-2.3,1.4-4.9,2-7.7c0.6-2.7,1.3-5.7,1.8-8.7c0.6-3,1-6.2,1.4-9.4c0.2-1.6,0.3-3.2,0.5-4.9c0.1-1.6,0.3-3.3,0.3-4.9
			c0.1-1.6,0.2-3.3,0.2-4.9c0.1-1.6,0-3.3,0-4.9c0-3.3-0.2-6.5-0.5-9.6c-0.2-1.5-0.4-3.1-0.5-4.5c-0.2-1.5-0.4-2.9-0.7-4.3
			c-0.3-1.4-0.5-2.8-0.8-4.1c-0.3-1.3-0.6-2.6-0.9-3.8c-0.4-1.2-0.7-2.3-1-3.4C51.9,21,51.5,20,51.2,19c-0.2-0.5-0.3-0.9-0.5-1.4
			c-0.2-0.4-0.4-0.9-0.5-1.3c-0.4-0.8-0.7-1.6-1-2.2c-0.6-1.3-1.2-2.3-1.5-3c-0.4-0.7-0.5-1.1-0.5-1.1s0.2,0.4,0.6,1
			c0.4,0.7,1.1,1.6,1.8,2.9c0.4,0.6,0.8,1.4,1.2,2.1c0.2,0.4,0.4,0.8,0.7,1.2c0.2,0.4,0.4,0.9,0.6,1.3c0.4,0.9,0.9,1.9,1.4,3
			c0.4,1.1,0.9,2.2,1.4,3.4c0.4,1.2,0.9,2.4,1.3,3.7c0.4,1.3,0.8,2.7,1.2,4.1c0.4,1.4,0.7,2.9,1.1,4.4c0.3,1.5,0.6,3,1,4.6
			c0.6,3.1,1.1,6.4,1.4,9.7c0.2,1.7,0.4,3.4,0.5,5.1c0.1,1.7,0.2,3.4,0.3,5.1c0.1,1.7,0.1,3.4,0.1,5.1c0,1.7,0,3.4,0,5.1
			c-0.1,3.4-0.3,6.7-0.5,9.9c-0.3,3.2-0.6,6.3-1,9.2c-0.4,2.9-0.9,5.7-1.4,8.3c-0.5,2.6-1,4.9-1.6,7c-0.5,2.1-1.1,3.9-1.7,5.5
			c-0.3,0.8-0.6,1.5-0.9,2.2c-0.2,0.3-0.3,0.7-0.4,0.9l-0.1,0.2c0,0.1-0.1,0.2-0.2,0.3c-0.1,0.2-0.3,0.4-0.4,0.6
			c-0.3,0.4-0.5,0.7-0.8,1c-0.1,0.1-0.2,0.2-0.3,0.3c-0.1,0.2-0.2,0.2-0.2,0.2c-1.9,2.1-5.1,2.3-7.2,0.4c-2.1-1.9-2.3-5.1-0.4-7.2
			c0.1-0.1,0.2-0.2,0.3-0.3L45.3,110.1z"/>
	</g>
	<path fill="#FF9966" d="M81,83.6c0,0,4.4,19.4,10.8,10.8c6.5-8.7-2.9-9.1-2.8-11.2c0.1-2.1,11.1,10.9,12.3,3.1
		c1.2-7.8-9.3-5.9-8.8-8.7c0.6-2.8,14.4,6.8,17-0.5c1.7-4.8-0.2-10.1-10.4-8.4c0,0,16.4-9.9,9.2-15.2c-7.2-5.3-9.9,3.4-14.3,10.4
		c0,0-3.4-10-8.8-7.6c-5.4,2.4-4,9.3,2.9,16.4c0,0-8.7-10.9-12.5-4.9c-2.7,4.3,3.5,7.2,8.5,10.5c0,0-14.4-11.2-14.2-1.2
		C70.2,86.8,81,83.6,81,83.6z"/>
	<g>
		<path fill="#996733" d="M52.5,100c0,0,0.2-0.1,0.7-0.3c0.4-0.2,1.1-0.5,1.9-0.9c1.7-0.8,4-2,6.8-3.5c1.4-0.8,2.9-1.6,4.5-2.6
			c1.6-0.9,3.2-2,4.9-3.1c1.7-1.1,3.3-2.3,5-3.5c1.7-1.3,3.4-2.6,5-3.9c0.8-0.7,1.6-1.4,2.4-2.1l1.2-1L86,78c1.5-1.5,3-2.9,4.3-4.4
			c1.3-1.5,2.7-2.9,3.8-4.4c0.6-0.7,1.1-1.4,1.6-2.1c0.3-0.3,0.5-0.7,0.8-1c0.2-0.4,0.5-0.7,0.7-1c0.9-1.4,1.7-2.6,2.4-3.7
			c0.7-1.1,1.2-2.2,1.6-3c0.9-1.7,1.4-2.6,1.4-2.6s-0.4,1-1.2,2.7c-0.4,0.9-0.8,1.9-1.4,3.1c-0.6,1.2-1.3,2.5-2.1,3.9
			c-0.2,0.4-0.4,0.7-0.6,1.1c-0.2,0.4-0.5,0.7-0.7,1.1c-0.5,0.7-1,1.5-1.5,2.3c-1,1.6-2.2,3.1-3.5,4.8c-1.2,1.7-2.7,3.2-4.1,4.8
			l-1.1,1.2l-1.1,1.2c-0.8,0.8-1.5,1.6-2.3,2.3c-1.6,1.5-3.2,3-4.8,4.4c-1.7,1.4-3.2,2.8-4.9,4c-1.6,1.3-3.2,2.5-4.7,3.6
			c-1.5,1.1-3,2.1-4.4,3c-2.8,1.8-5.1,3.2-6.8,4.2c-0.8,0.5-1.5,0.9-2,1.1c-0.5,0.2-0.7,0.4-0.7,0.4L52.5,100z"/>
	</g>
	<g>
		<path fill="#FF9966" d="M29.4,94.2c0,0-4.8,19.6-11.2,10.7s3.1-9.2,3-11.3c-0.1-2.2-11.4,10.8-12.5,2.9s9.6-5.8,9.1-8.7
			C17.2,84.9,3,94.4,0.5,87c-1.7-4.9,0.4-10.2,10.7-8.3c0,0-16.4-10.3-9.1-15.6s10,3.6,14.3,10.8c0,0,3.6-10,9.1-7.6
			c5.4,2.5,3.9,9.4-3.2,16.6c0,0,9-10.9,12.7-4.8c2.7,4.4-3.6,7.2-8.7,10.4c0,0,14.8-11,14.4-1C40.2,97.7,29.4,94.2,29.4,94.2z"/>
		<g>
			<path fill="#996733" d="M46.3,114.5c0,0-2.7-2.6-6.5-6.5c-3.9-3.9-8.9-9.2-13.8-14.7c-1.2-1.4-2.4-2.7-3.6-4.1
				c-1.2-1.4-2.3-2.7-3.4-4.1c-0.5-0.7-1.1-1.3-1.6-2c-0.5-0.7-1-1.3-1.5-1.9c-0.5-0.6-0.9-1.2-1.4-1.8c-0.4-0.6-0.8-1.2-1.2-1.8
				c-0.4-0.6-0.8-1.1-1.1-1.6c-0.3-0.5-0.6-1-0.9-1.5c-0.6-1-1.1-1.8-1.5-2.5c-0.7-1.4-1.1-2.2-1.1-2.2s0.5,0.8,1.3,2.1
				c0.4,0.7,1,1.4,1.7,2.3c0.3,0.4,0.7,0.9,1.1,1.4c0.4,0.5,0.8,1,1.3,1.5c0.4,0.5,0.9,1.1,1.4,1.6c0.5,0.5,1,1.1,1.5,1.7
				c0.5,0.6,1.1,1.2,1.6,1.8c0.6,0.6,1.2,1.2,1.7,1.8c1.2,1.2,2.4,2.5,3.7,3.7c1.3,1.3,2.6,2.5,3.9,3.7c5.3,5,10.8,9.7,14.9,13.2
				c4.2,3.5,7,5.8,7,5.8L46.3,114.5z"/>
		</g>
	</g>
</g>
</svg>
