<!-- Generator: Adobe Illustrator 18.1.1, SVG Export Plug-In  -->
<svg version="1.1"
	 xmlns="http://www.w3.org/2000/svg" xmlns:xlink="http://www.w3.org/1999/xlink" xmlns:a="http://ns.adobe.com/AdobeSVGViewerExtensions/3.0/"
	 x="0px" y="0px" width="11.7px" height="13.4px" viewBox="0 0 11.7 13.4" enable-background="new 0 0 11.7 13.4"
	 xml:space="preserve">
<defs>
</defs>
<path fill="#33CC00" d="M11.7,10.8c-0.6-0.4-1.7-0.5-2.9-0.6c0.9-2.2,1.4-5.1,1.4-6.1C9.8,4.6,8.8,5.7,7.8,7c0.4-2.1-0.7-5.2-1.6-7
	c0.5,2.3,0.5,4.8-0.3,7.1C5.7,6.2,5.4,5.5,5.3,5.2C5.1,5.7,4.9,6.2,4.7,6.8c-1-2-2.1-4-2.3-4.7c0,0.8,0,4.5,0.6,7.3
	C2.4,9.2,1.4,9,0,9c1.8,0.7,2.4,1.8,3.5,3.2C3,13.1,2.1,14,5.6,13c0,0,0.1,0.1,0.2,0.1c0.9,0.4,1.7-0.2,2.4-1.3
	C9.8,11.3,11.6,10.8,11.7,10.8z"/>
</svg>
