<!-- Generator: Adobe Illustrator 18.1.1, SVG Export Plug-In  -->
<svg version="1.1"
	 xmlns="http://www.w3.org/2000/svg" xmlns:xlink="http://www.w3.org/1999/xlink" xmlns:a="http://ns.adobe.com/AdobeSVGViewerExtensions/3.0/"
	 x="0px" y="0px" width="88.5px" height="129.6px" viewBox="0 0 88.5 129.6" enable-background="new 0 0 88.5 129.6"
	 xml:space="preserve">
<defs>
</defs>
<g>
	<g>
		<g>
			<defs>
				<path id="XMLID_1_" d="M87,70.2c-0.9,35.3-20.6,58.4-44.5,57.9s-42.9-24.6-42-59.9S15.7-1,45.7,0C74.8,1,87.9,34.9,87,70.2z"/>
			</defs>
			
				<radialGradient id="XMLID_2_" cx="-41.8978" cy="318.9169" r="248.578" gradientTransform="matrix(0.937 -0.1394 0.1122 1.081 66.2589 -326.1955)" gradientUnits="userSpaceOnUse">
				<stop  offset="0" style="stop-color:#FFFFFF"/>
				<stop  offset="1" style="stop-color:#000000"/>
			</radialGradient>
			<use xlink:href="#XMLID_1_"  overflow="visible" fill="url(#XMLID_2_)"/>
			<clipPath id="XMLID_3_">
				<use xlink:href="#XMLID_1_"  overflow="visible"/>
			</clipPath>
			<path clip-path="url(#XMLID_3_)" fill="#FF0066" d="M53.1,63c-0.4,14-10.3,25.1-22.1,24.9c-11.8-0.2-21-11.7-20.6-25.7
				s10.3-25.1,22.1-24.9S53.5,49,53.1,63z"/>
			<path clip-path="url(#XMLID_3_)" fill="#FF0066" d="M84.2,121c-5.2,7.9-14.8,10.9-21.5,6.6c-6.6-4.3-7.8-14.2-2.6-22.1
				S75,94.7,81.6,98.9C88.2,103.2,89.4,113.1,84.2,121z"/>
			<path clip-path="url(#XMLID_3_)" fill="#FF0066" d="M27.7,102.4c4,8.6,1.6,18.3-5.6,21.8S6,123.4,1.9,114.8S0.4,96.5,7.5,93.1
				S23.6,93.8,27.7,102.4z"/>
			<path clip-path="url(#XMLID_3_)" fill="#FF0066" d="M87.1,29.8c3.4,10,0.5,20-6.5,22.5c-7,2.4-15.3-3.6-18.7-13.6
				c-3.4-10-0.5-20,6.5-22.5S83.7,19.8,87.1,29.8z"/>
			<path clip-path="url(#XMLID_3_)" fill="#FF0066" d="M31.2,18.4c-4.8,5.1-11.5,6.5-15.1,3.2s-2.7-10.1,2.1-15.2S29.7,0,33.3,3.3
				S36,13.3,31.2,18.4z"/>
		</g>
	</g>
	<path fill="#FFFFFF" d="M71.8,19c-0.9-5.4-6.1-9.1-11.6-8.3c-5.5,0.8-9.2,5.9-8.3,11.4c0.9,5.4,6.1,9.1,11.6,8.3
		C69,29.5,72.7,24.4,71.8,19z"/>
</g>
</svg>
