<!-- Generator: Adobe Illustrator 18.1.1, SVG Export Plug-In  -->
<svg version="1.1"
	 xmlns="http://www.w3.org/2000/svg" xmlns:xlink="http://www.w3.org/1999/xlink" xmlns:a="http://ns.adobe.com/AdobeSVGViewerExtensions/3.0/"
	 x="0px" y="0px" width="57.3px" height="66.2px" viewBox="0 0 57.3 66.2" enable-background="new 0 0 57.3 66.2"
	 xml:space="preserve">
<defs>
</defs>
<g>
	
		<path fill="#FFFFFF" stroke="#666666" stroke-width="3" stroke-linecap="round" stroke-linejoin="round" stroke-miterlimit="10" d="
		M10.2,64l-7.4-5.8c-1.5-1.2-1.7-3.3-0.6-4.8l40-50.5c1.2-1.5,3.3-1.7,4.8-0.6l7.4,5.8c1.5,1.2,1.7,3.3,0.6,4.8L15,63.4
		C13.8,64.9,11.7,65.1,10.2,64z"/>
	<g>
		
			<line fill="#FFFFFF" stroke="#666666" stroke-width="3" stroke-linecap="round" stroke-linejoin="round" stroke-miterlimit="10" x1="36.8" y1="10.1" x2="40.4" y2="13"/>
		
			<line fill="#FFFFFF" stroke="#666666" stroke-width="3" stroke-linecap="round" stroke-linejoin="round" stroke-miterlimit="10" x1="39.9" y1="6.2" x2="43.5" y2="9.1"/>
		
			<line fill="#FFFFFF" stroke="#666666" stroke-width="3" stroke-linecap="round" stroke-linejoin="round" stroke-miterlimit="10" x1="33.2" y1="14.7" x2="38.6" y2="19"/>
	</g>
	<g>
		
			<line fill="#FFFFFF" stroke="#666666" stroke-width="3" stroke-linecap="round" stroke-linejoin="round" stroke-miterlimit="10" x1="27.1" y1="22.4" x2="30.7" y2="25.2"/>
		
			<line fill="#FFFFFF" stroke="#666666" stroke-width="3" stroke-linecap="round" stroke-linejoin="round" stroke-miterlimit="10" x1="30.2" y1="18.5" x2="33.8" y2="21.3"/>
		
			<line fill="#FFFFFF" stroke="#666666" stroke-width="3" stroke-linecap="round" stroke-linejoin="round" stroke-miterlimit="10" x1="23.5" y1="26.9" x2="28.9" y2="31.2"/>
	</g>
	<g>
		
			<line fill="#FFFFFF" stroke="#666666" stroke-width="3" stroke-linecap="round" stroke-linejoin="round" stroke-miterlimit="10" x1="17.1" y1="34.9" x2="20.7" y2="37.7"/>
		
			<line fill="#FFFFFF" stroke="#666666" stroke-width="3" stroke-linecap="round" stroke-linejoin="round" stroke-miterlimit="10" x1="20.2" y1="31" x2="23.8" y2="33.8"/>
		
			<line fill="#FFFFFF" stroke="#666666" stroke-width="3" stroke-linecap="round" stroke-linejoin="round" stroke-miterlimit="10" x1="13.5" y1="39.4" x2="18.9" y2="43.7"/>
	</g>
	<g>
		
			<line fill="#FFFFFF" stroke="#666666" stroke-width="3" stroke-linecap="round" stroke-linejoin="round" stroke-miterlimit="10" x1="7.4" y1="47.1" x2="11" y2="49.9"/>
		
			<line fill="#FFFFFF" stroke="#666666" stroke-width="3" stroke-linecap="round" stroke-linejoin="round" stroke-miterlimit="10" x1="10.5" y1="43.2" x2="14.1" y2="46"/>
		
			<line fill="#FFFFFF" stroke="#666666" stroke-width="3" stroke-linecap="round" stroke-linejoin="round" stroke-miterlimit="10" x1="3.8" y1="51.6" x2="9.2" y2="56"/>
	</g>
</g>
</svg>
