<!-- Generator: Adobe Illustrator 18.1.1, SVG Export Plug-In  -->
<svg version="1.1"
	 xmlns="http://www.w3.org/2000/svg" xmlns:xlink="http://www.w3.org/1999/xlink" xmlns:a="http://ns.adobe.com/AdobeSVGViewerExtensions/3.0/"
	 x="0px" y="0px" width="289.6px" height="175.2px" viewBox="0 0 289.6 175.2" enable-background="new 0 0 289.6 175.2"
	 xml:space="preserve">
<defs>
</defs>
<path fill="#666666" d="M231.7,98c0.9-2.2,0.4-4.9,0-6.4c-0.1-0.2-0.3-0.2-0.4,0c-0.1,2.5-0.9,4.6-1.6,6c0.7-2.3,0.2-4.8-0.2-6.3
	c-0.1-0.2-0.4-0.2-0.4,0c-0.1,3.2-1.4,5.8-2.1,7.1c-0.1,0-0.3,0-0.4,0c1.8-4,0.2-8.8-0.9-11.3c-0.1-0.3-0.6-0.2-0.5,0.1
	c0.5,4.8-0.9,9-1.7,10.9c0,0.1,0,0.1-0.1,0.2c-0.1,0-0.2,0-0.3,0c1.7-3.7,0.3-8.2-0.7-10.5c-0.1-0.3-0.5-0.2-0.5,0.1
	c0.4,4.5-1,8.3-1.8,10.2c-9.4-1.2-17.7-5.3-24-9.4c1.3-2.1,0.7-3.8,0.7-3.8c0-0.1,0-0.2,0-0.3c0,0,0-0.1-0.1-0.1
	c-0.1,0.1-0.2,0.1-0.2,0.1c-1.6-0.2-3,0.9-3.9,1.8c-0.2-0.2-0.5-0.3-0.7-0.5c2.1-3.1,1.2-5.5,1.2-5.6c0-0.1,0-0.2,0-0.4
	c0-0.1,0-0.1-0.1-0.1c-0.2,0.1-0.3,0.1-0.3,0.1c-0.8-0.1-1.5,0-2.2,0.3c2.7-3,2.9-5.9,2.9-6.1c0-0.2,0.1-0.4,0.4-0.6
	c0.1-0.1,0-0.2-0.1-0.2c-0.3,0-0.5-0.1-0.5-0.1c-1.9-1.2-4-1.3-6.1-1c1.1-0.8,2.2-1.8,3.1-2.9l-0.3,0.2c6.5-6.4,6.7-13.1,6.7-13.5
	c0-0.3,0.3-0.8,0.6-1.2c0.1-0.2,0.1-0.4-0.1-0.3c-0.6,0.1-1-0.2-1-0.2c-2.1-1.3-4.3-2.1-6.5-2.4c1.5-2.9,1.7-5.1,1.7-5.3
	c0-0.3,0.3-0.7,0.6-1.1c0.1-0.1,0.1-0.3-0.1-0.3c-0.6,0.1-0.9-0.1-0.9-0.1c-1.5-0.9-3.1-1.4-4.8-1.6c4.2-8.1,2.5-15.3,2.3-15.8
	c-0.1-0.4,0-1,0.4-1.6c0.1-0.2-0.1-0.5-0.3-0.4c-0.7,0.2-1.3-0.1-1.3-0.1c-4.9-2.4-9.7-2.6-14-1.8c0.4-6.6-1.6-10.8-1.8-11.1
	c-0.2-0.4-0.2-1,0-1.7c0.1-0.2-0.1-0.4-0.4-0.3c-0.6,0.4-1.2,0.4-1.2,0.4c-5.4-0.5-10.1,1.3-14.1,4c-3.8-9.6-11.7-13.5-12.2-13.7
	c-0.5-0.2-0.9-0.8-1.1-1.4c-0.1-0.3-0.5-0.3-0.6-0.1c-0.4,0.7-1.1,1-1.1,1c-6.5,2.6-10.5,6.9-13.1,11.6c-4.8-5.3-9.8-6.7-10.2-6.8
	c-0.4-0.1-0.9-0.6-1.2-1.1c-0.1-0.2-0.4-0.2-0.5,0.1c-0.1,0.7-0.5,1.2-0.5,1.2c-4.9,4.6-6.5,10.9-6.7,16.8
	c-8.1-3.4-14.7-1.8-15.2-1.7c-0.5,0.1-1.2-0.1-1.8-0.4c-0.2-0.1-0.5,0.1-0.4,0.3c0.2,0.8,0,1.4,0,1.4c-3.7,8.3-1.9,16.3,1.1,22.6
	c-5.7-1.1-9.4,0.6-9.7,0.8c-0.3,0.1-0.7,0.1-1.2-0.1c-0.2-0.1-0.3,0.1-0.2,0.2c0.3,0.5,0.3,0.9,0.3,0.9c-0.7,5.5,2.1,10.1,5.3,13.5
	c-2.5,0.2-4,1.1-4.1,1.2c-0.1,0.1-0.4,0.1-0.7,0.1c-0.1,0-0.2,0.1-0.1,0.2c0.2,0.2,0.2,0.5,0.2,0.5c0,2.1,0.8,3.9,1.9,5.3l-0.1-0.1
	c0.1,0.1,0.2,0.3,0.3,0.4c0.1,0.2,0.3,0.4,0.4,0.5c-0.5,0.2-0.8,0.4-0.9,0.4C83.6,69,83.4,69,83.2,69c-0.1,0-0.1,0.1-0.1,0.1
	c0.2,0.2,0.2,0.3,0.2,0.3c0.1,1.7,0.9,3.2,2,4.3c-0.1,0.2-0.3,0.4-0.5,0.7c-1,0.3-1.6,0.8-1.6,0.8c-0.1,0.1-0.2,0.1-0.4,0.1
	c-0.1,0-0.1,0.1,0,0.1c0.1,0.1,0.2,0.2,0.2,0.2c0.1,0.9,0.5,1.6,1,2.2c0,0.2,0,0.4,0,0.6c0,0,0.2,0,0.6,0c0.3,0.3,0.7,0.6,1.1,0.8
	c-0.3,0.8-0.6,1.6-0.9,2.2c-0.6,1.4-1.7,2.3-2.8,3.2c-0.3,0-0.7,0.1-1,0.2c-1.6,0.1-2.8,0.9-3.4,1.4c-0.1,0.1-0.3,0.2-0.4,0.3
	c-4.7,0.7-11.4,0.1-11.8,5.2c0,0-0.2,0.9-0.1,2c0,0.3,0.3,0.5,0.6,0.5c0,0,0,0,0,0l0.2,0c0.6,3.4,9.7,4.6,15.1,4.3
	c0.7,0.1,1.5,0.2,2.2,0.2c1.5,0,2.9-0.4,4.1-0.9c0.1,0,0.1,0,0.2,0l-0.3,0.4c0.5-0.2,1-0.3,1.4-0.6c0.5-0.1,1-0.3,1.6-0.4
	c2.1-0.7,4.3-1.2,6.5-1.4c2.7-0.3,5.3-0.6,7.9-0.9c0.7,0.7,1.2,1.2,1.4,1.3c0,0,0,0.1,0,0.1c0.2,1.9-0.9,3.2-1.6,4.3
	c-0.4,0.7-1.8,1.4-2.5,1.7l-2.6,0.7c-0.1,0-0.1,0.2,0,0.3l1.5,0.3c0.1,0,0.1,0.2,0,0.2l-2,1.2c-0.1,0.1-0.1,0.2,0.1,0.2l2.7,0
	c0.1,0,0.2,0.1,0.1,0.2l-1.3,1.8c-0.1,0.1,0,0.2,0.2,0.2l5.9-1.6c0,0,0,0,0,0l1.8-1.2c0.9-0.7,5.7-3.9,5.8-6.4
	c0.1-1.4-0.1-2.8-0.4-4c0.1,0.1,0.2,0.2,0.3,0.3c0,0,0.1,0.1,0.1,0.1c0.1,0.1,0.2,0.2,0.2,0.2c0,0,0.1,0.1,0.1,0.1
	c0.1,0.1,0.1,0.1,0.2,0.2c0,0,0.1,0.1,0.1,0.1c0.1,0.1,0.1,0.1,0.2,0.2c0,0,0.1,0.1,0.1,0.1c0.1,0,0.1,0.1,0.2,0.1
	c0,0,0.1,0.1,0.1,0.1c0,0,0.1,0.1,0.1,0.1c0,0,0.1,0.1,0.1,0.1c0,0,0.1,0.1,0.1,0.1c0,0,0.1,0.1,0.1,0.1c0,0,0.1,0.1,0.1,0.1
	c0,0,0.1,0,0.1,0.1c0,0,0.1,0.1,0.1,0.1c0,0,0,0,0.1,0.1c0,0,0,0,0.1,0.1c0,0,0,0,0,0c0,0,0,0,0,0c0,0,0.1,0.1,0.1,0.1
	c0.3,2.7-1.2,4.6-2.1,6.3c-0.5,1-2.4,2.1-3.5,2.5l-3.6,1.1c-0.2,0.1-0.2,0.3,0,0.4l2,0.4c0.2,0,0.2,0.2,0.1,0.3l-2.7,1.8
	c-0.2,0.1-0.1,0.4,0.1,0.3l3.8-0.2c0.2,0,0.3,0.2,0.2,0.3l-1.7,2.6c-0.1,0.1,0,0.3,0.2,0.3l8.2-2.6c0,0,0,0,0.1,0l2.4-1.8
	c1.3-1.1,7.8-5.9,8-9.4c0.1-2-0.2-3.9-0.7-5.7c4.4-0.2,8.6-0.3,12.6-0.3c2,3.4,4.1,5,5.3,5.7c0.3,0.2,0.3,0.6-0.1,0.7l-4.6,0.9
	c-0.5,0.1-0.4,0.7,0,0.8l2.9,0.6c0.3,0,0.5,0.4,0.3,0.6l-1.9,2c-0.3,0.3,0,0.7,0.4,0.6l4.1-0.7c0.2,0,0.3,0,0.4,0.2l-0.1,0.1
	c-0.5,0.2-0.5,0.8-0.3,1.1l-0.9,1.4c-0.2,0.3,0.1,0.7,0.5,0.6c1.2-0.3,3.4-0.9,5.6-1.5c0.1,0.2,0.1,0.4,0,0.6l-2.2,2.3
	c-0.3,0.7,0.4,1.4,1,1.1l5.1-1.5c0.6-0.3,1.3,0.3,1.1,0.9l-2,2.7c-0.2,0.7,0.5,1.1,1.2,0.9c4.4-1.4,14.6-5,15.3-6.5
	c0.7-1.4-0.7-7.7-4.8-12.5c2.9,0.3,5.4,0.6,7.3,1c0.3,0.2,0.5,0.3,0.8,0.5c0,0,0,0,0,0c39.5,18.9,66.3,0.1,66.3,0.1
	C237.6,96.7,234.6,97.5,231.7,98z"/>
<rect x="0" y="136.6" fill="none" width="289.6" height="38.6"/>
<text transform="matrix(1 0 0 1 56.3264 161.5445)" fill="#33CC00" font-family="'FredokaOne-Regular'" font-size="32.3238" letter-spacing="-1">Stegosaurus</text>
</svg>
