<!-- Generator: Adobe Illustrator 18.1.1, SVG Export Plug-In  -->
<svg version="1.1"
	 xmlns="http://www.w3.org/2000/svg" xmlns:xlink="http://www.w3.org/1999/xlink" xmlns:a="http://ns.adobe.com/AdobeSVGViewerExtensions/3.0/"
	 x="0px" y="0px" width="310.6px" height="231.5px" viewBox="0 0 310.6 231.5" enable-background="new 0 0 310.6 231.5"
	 xml:space="preserve">
<defs>
</defs>
<g>
	<path id="tail_2_" fill="#99FF66" d="M197.2,82.4C153.4,91,108.4,47.5,88.8,33.1C55.5,8.6,43.9,5.8,24.7,2C5.4-1.9-2.6-0.4,0.7,9
		C5.5,22.4,48.2,0.5,90,109.5c21.3,55.5,60.3,89.7,97.1,105.8c13,10.1,29.5,16.2,47.3,16.1c41.2-0.2,75.2-33.6,76.1-74.7
		c1-43.1-33.6-78.3-76.5-78.3C234.1,78.4,226.2,76.7,197.2,82.4z"/>
	<path fill="#99CC66" d="M147.5,85.5l1,2.8c0.3,1,0,2.1-0.9,2.7l-2.6,1.7c-0.9,0.6-2.1,0.6-3.1,0l-2.6-1.7c-0.9-0.6-1.3-1.7-0.9-2.7
		l1-2.8c0.3-1,1.3-1.6,2.5-1.6l3.2,0C146.1,83.9,147.1,84.5,147.5,85.5z"/>
	<path fill="#99CC66" d="M165.6,113.8l1,1.2c0.3,0.4,0.3,1,0,1.5l-1,1.3c-0.4,0.5-1,0.7-1.5,0.5l-1.6-0.4c-0.6-0.2-0.9-0.6-0.9-1.2
		l0-1.6c0-0.5,0.4-1,1-1.2l1.6-0.5C164.6,113.2,165.2,113.4,165.6,113.8z"/>
	<path fill="#99CC66" d="M130.1,84l0.9,1.2c0.3,0.4,0.3,1,0,1.5l-1,1.3c-0.4,0.4-1,0.6-1.5,0.5L127,88c-0.5-0.2-0.9-0.6-0.9-1.2
		l0-1.6c0-0.5,0.4-1,1-1.2l1.6-0.5C129.2,83.4,129.8,83.6,130.1,84z"/>
	<path fill="#99CC66" d="M120.4,69.5l0.5,0.6c0.2,0.2,0.2,0.5,0,0.7l-0.5,0.6c-0.2,0.2-0.5,0.3-0.7,0.2l-0.8-0.2
		c-0.3-0.1-0.4-0.3-0.4-0.6l0-0.8c0-0.3,0.2-0.5,0.5-0.6l0.8-0.3C120,69.2,120.3,69.3,120.4,69.5z"/>
</g>
</svg>
