<!-- Generator: Adobe Illustrator 18.1.1, SVG Export Plug-In  -->
<svg version="1.1"
	 xmlns="http://www.w3.org/2000/svg" xmlns:xlink="http://www.w3.org/1999/xlink" xmlns:a="http://ns.adobe.com/AdobeSVGViewerExtensions/3.0/"
	 x="0px" y="0px" width="104.7px" height="327.4px" viewBox="0 0 104.7 327.4" enable-background="new 0 0 104.7 327.4"
	 xml:space="preserve">
<defs>
</defs>
<g>
	<defs>
		<path id="XMLID_2_" d="M18.9,307.3c7-41.2,28.8-181.9,22.4-291C40.9,8.3,46.6,1,54.6,0.1c2.1-0.2,4.5,0,6.9,0.8
			c6.3,2.2,10.3,8.5,10,15.2c-2,39.7-5.9,211.6,14.3,288.2c2.4,9-2.1,18.3-11.2,20.3c-12.3,2.7-29.1,4.6-44.6,0.1
			C22.3,322.6,17.6,315.1,18.9,307.3z"/>
	</defs>
	<use xlink:href="#XMLID_2_"  overflow="visible" fill="#CA992C"/>
	<clipPath id="XMLID_3_">
		<use xlink:href="#XMLID_2_"  overflow="visible"/>
	</clipPath>
	<g clip-path="url(#XMLID_3_)">
		<path fill="#996733" d="M75.4,94.3c0,0-0.4,0-1.1,0.1c-0.7,0-1.7,0-2.9,0c-2.4,0-5.6-0.2-8.8-0.6C61,93.6,59.4,93.3,58,93
			c-0.7-0.1-1.4-0.3-2.1-0.4c-0.7-0.2-1.3-0.3-1.9-0.5c-1.1-0.3-2.1-0.6-2.7-0.8c-0.6-0.2-1-0.4-1-0.4s0.4,0.1,1.1,0.1
			c0.7,0.1,1.6,0.2,2.8,0.3c0.6,0.1,1.2,0.1,1.9,0.1c0.7,0,1.4,0,2.1,0c1.4,0,3-0.1,4.5-0.2c3.1-0.2,6.1-0.7,8.3-1.1
			c1.1-0.2,2-0.4,2.7-0.6c0.6-0.2,1-0.2,1-0.2L75.4,94.3z"/>
	</g>
	<g clip-path="url(#XMLID_3_)">
		<path fill="#996733" d="M77.5,67.6c0,0-0.4,0-1.1,0.1c-0.7,0-1.7,0-2.9,0c-2.4,0-5.6-0.2-8.8-0.6c-1.6-0.2-3.1-0.4-4.6-0.7
			c-0.7-0.1-1.4-0.3-2.1-0.4c-0.7-0.2-1.3-0.3-1.9-0.5c-1.1-0.3-2.1-0.6-2.7-0.8c-0.6-0.2-1-0.4-1-0.4s0.4,0.1,1.1,0.1
			c0.7,0.1,1.6,0.2,2.8,0.3c0.6,0.1,1.2,0.1,1.9,0.1c0.7,0,1.4,0,2.1,0c1.4,0,3-0.1,4.5-0.2c3.1-0.2,6.1-0.7,8.3-1.1
			c1.1-0.2,2-0.4,2.7-0.6c0.6-0.2,1-0.2,1-0.2L77.5,67.6z"/>
	</g>
	<g clip-path="url(#XMLID_3_)">
		<path fill="#996733" d="M75.4,124.7c0,0-0.4,0-1.1,0.1c-0.7,0-1.7,0-2.9,0c-2.4,0-5.6-0.2-8.8-0.6c-1.6-0.2-3.1-0.4-4.6-0.7
			c-0.7-0.1-1.4-0.3-2.1-0.4c-0.7-0.2-1.3-0.3-1.9-0.5c-1.1-0.3-2.1-0.6-2.7-0.8c-0.6-0.2-1-0.4-1-0.4s0.4,0.1,1.1,0.1
			c0.7,0.1,1.6,0.2,2.8,0.3c0.6,0.1,1.2,0.1,1.9,0.1c0.7,0,1.4,0,2.1,0c1.4,0,3-0.1,4.5-0.2c3.1-0.2,6.1-0.7,8.3-1.1
			c1.1-0.2,2-0.4,2.7-0.6c0.6-0.2,1-0.2,1-0.2L75.4,124.7z"/>
	</g>
	<g clip-path="url(#XMLID_3_)">
		<path fill="#996733" d="M82.1,162c0,0-0.5,0-1.3,0.1c-0.8,0-2.1,0.1-3.5,0.1c-2.9,0.1-6.7,0.1-10.6-0.2c-1.9-0.1-3.8-0.3-5.6-0.5
			c-0.9-0.1-1.7-0.3-2.6-0.4c-0.8-0.2-1.6-0.3-2.3-0.4c-0.7-0.2-1.3-0.3-1.9-0.5c-0.6-0.1-1-0.3-1.4-0.4c-0.8-0.2-1.2-0.4-1.2-0.4
			s0.5,0.1,1.3,0.2c0.4,0.1,0.9,0.1,1.5,0.2c0.6,0,1.2,0.1,1.9,0.1c0.7,0,1.5,0,2.3,0.1c0.8,0,1.7,0,2.5,0c1.8-0.1,3.6-0.2,5.5-0.4
			c3.7-0.4,7.4-1,10.2-1.5c1.4-0.3,2.5-0.5,3.3-0.7c0.8-0.2,1.2-0.3,1.2-0.3L82.1,162z"/>
	</g>
	<g clip-path="url(#XMLID_3_)">
		<path fill="#996733" d="M87.1,199.1c0,0-0.9,0.1-2.6,0.4c-1.6,0.2-4,0.5-6.7,0.9c-5.6,0.6-13.1,1.3-20.5,1.3c-1.9,0-3.7,0-5.6-0.1
			c-1.8-0.1-3.7-0.2-5.4-0.3c-1.8-0.2-3.4-0.4-5-0.6c-1.6-0.3-3.1-0.6-4.4-0.9c-0.7-0.2-1.3-0.4-1.9-0.6c-0.6-0.2-1.2-0.4-1.7-0.6
			c-1.1-0.4-2-0.8-2.7-1.3c-0.7-0.4-1.2-0.8-1.6-1c-0.4-0.3-0.5-0.4-0.5-0.4s0.2,0.1,0.6,0.3c0.4,0.2,0.9,0.6,1.6,0.9
			c0.7,0.4,1.6,0.7,2.7,1c0.5,0.1,1.1,0.3,1.7,0.5c0.6,0.1,1.3,0.3,1.9,0.4c1.4,0.2,2.8,0.4,4.4,0.5c1.6,0.1,3.2,0.2,5,0.2
			c1.7,0,3.5,0,5.3-0.1c1.8-0.1,3.6-0.2,5.5-0.4c7.3-0.7,14.6-1.9,20-3c2.7-0.5,5-1,6.5-1.4c1.5-0.4,2.4-0.6,2.4-0.6L87.1,199.1z"/>
	</g>
	<g clip-path="url(#XMLID_3_)">
		<path fill="#996733" d="M104.5,248c0,0-1,0.1-2.8,0.3c-1.8,0.2-4.3,0.4-7.4,0.7c-3.1,0.3-6.6,0.5-10.4,0.7
			c-1.9,0.1-3.9,0.2-5.9,0.3c-2,0.1-4,0.2-6.1,0.2c-2,0-4.1,0.1-6.1,0c-2,0-4,0-5.9-0.1c-1,0-1.9-0.1-2.8-0.1
			c-0.9-0.1-1.8-0.1-2.7-0.2c-0.9-0.1-1.7-0.1-2.5-0.2c-0.8-0.1-1.6-0.2-2.4-0.3c-0.8-0.1-1.5-0.2-2.2-0.3c-0.7-0.1-1.3-0.3-1.9-0.4
			c-1.2-0.2-2.3-0.4-3.1-0.7c-1.7-0.5-2.7-0.8-2.7-0.8s1,0.2,2.7,0.6c0.9,0.2,1.9,0.3,3.2,0.5c0.6,0.1,1.3,0.1,1.9,0.2
			c0.7,0,1.4,0.1,2.2,0.1c0.8,0,1.5,0.1,2.4,0.1c0.8,0,1.7,0,2.5,0c0.9,0,1.8,0,2.7,0c0.9,0,1.8-0.1,2.8-0.1c1.9,0,3.9-0.2,5.8-0.3
			c2-0.1,4-0.3,6-0.5c2-0.2,4-0.4,6-0.6c2-0.2,3.9-0.5,5.8-0.7c3.8-0.5,7.3-1,10.3-1.5c3-0.5,5.5-0.9,7.2-1.2
			c1.7-0.3,2.7-0.5,2.7-0.5L104.5,248z"/>
	</g>
	<g clip-path="url(#XMLID_3_)">
		<path fill="#996733" d="M104.7,283.8c0,0-1,0.1-2.8,0.3c-1.8,0.2-4.3,0.4-7.4,0.7c-3.1,0.3-6.6,0.5-10.4,0.7
			c-1.9,0.1-3.9,0.2-5.9,0.3c-2,0.1-4,0.2-6.1,0.2c-2,0-4.1,0.1-6.1,0c-2,0-4,0-5.9-0.1c-1,0-1.9-0.1-2.8-0.1
			c-0.9-0.1-1.8-0.1-2.7-0.2c-0.9-0.1-1.7-0.1-2.5-0.2c-0.8-0.1-1.6-0.2-2.4-0.3c-0.8-0.1-1.5-0.2-2.2-0.3c-0.7-0.1-1.3-0.3-1.9-0.4
			c-1.2-0.2-2.3-0.4-3.1-0.7c-1.7-0.5-2.7-0.8-2.7-0.8s1,0.2,2.7,0.6c0.9,0.2,1.9,0.3,3.2,0.5c0.6,0.1,1.3,0.1,1.9,0.2
			c0.7,0,1.4,0.1,2.2,0.1c0.8,0,1.5,0.1,2.4,0.1c0.8,0,1.7,0,2.5,0c0.9,0,1.8,0,2.7,0c0.9,0,1.8-0.1,2.8-0.1c1.9,0,3.9-0.2,5.8-0.3
			c2-0.1,4-0.3,6-0.5c2-0.2,4-0.4,6-0.6c2-0.2,3.9-0.5,5.8-0.7c3.8-0.5,7.3-1,10.3-1.5c3-0.5,5.5-0.9,7.2-1.2
			c1.7-0.3,2.7-0.5,2.7-0.5L104.7,283.8z"/>
	</g>
	<g clip-path="url(#XMLID_3_)">
		<path fill="#996733" d="M30.1,101c0,0,0.4,0.1,1,0.2c0.6,0.2,1.6,0.4,2.7,0.6c2.2,0.4,5.3,0.9,8.3,1.1c1.5,0.1,3.1,0.2,4.5,0.2
			c0.7,0,1.4,0,2.1,0c0.7,0,1.3,0,1.9-0.1c1.2-0.1,2.1-0.2,2.8-0.3c0.7-0.1,1.1-0.1,1.1-0.1s-0.4,0.1-1,0.4
			c-0.6,0.2-1.6,0.5-2.7,0.8c-0.6,0.2-1.2,0.3-1.9,0.5c-0.7,0.2-1.4,0.3-2.1,0.4c-1.5,0.3-3,0.5-4.6,0.7c-3.2,0.4-6.3,0.5-8.8,0.6
			c-1.2,0-2.2,0-2.9,0c-0.7,0-1.1-0.1-1.1-0.1L30.1,101z"/>
	</g>
	<g clip-path="url(#XMLID_3_)">
		<path fill="#996733" d="M28,74.3c0,0,0.4,0.1,1,0.2c0.6,0.2,1.6,0.4,2.7,0.6c2.2,0.4,5.3,0.9,8.3,1.1c1.5,0.1,3.1,0.2,4.5,0.2
			c0.7,0,1.4,0,2.1,0c0.7,0,1.3,0,1.9-0.1c1.2-0.1,2.1-0.2,2.8-0.3c0.7-0.1,1.1-0.1,1.1-0.1s-0.4,0.1-1,0.4
			c-0.6,0.2-1.6,0.5-2.7,0.8c-0.6,0.2-1.2,0.3-1.9,0.5c-0.7,0.2-1.4,0.3-2.1,0.4c-1.5,0.3-3,0.5-4.6,0.7c-3.2,0.4-6.3,0.5-8.8,0.6
			c-1.2,0-2.2,0-2.9,0c-0.7,0-1.1-0.1-1.1-0.1L28,74.3z"/>
	</g>
	<g clip-path="url(#XMLID_3_)">
		<path fill="#996733" d="M30.1,131.4c0,0,0.4,0.1,1,0.2c0.6,0.2,1.6,0.4,2.7,0.6c2.2,0.4,5.3,0.9,8.3,1.1c1.5,0.1,3.1,0.2,4.5,0.2
			c0.7,0,1.4,0,2.1,0c0.7,0,1.3,0,1.9-0.1c1.2-0.1,2.1-0.2,2.8-0.3c0.7-0.1,1.1-0.1,1.1-0.1s-0.4,0.1-1,0.4
			c-0.6,0.2-1.6,0.5-2.7,0.8c-0.6,0.2-1.2,0.3-1.9,0.5c-0.7,0.2-1.4,0.3-2.1,0.4c-1.5,0.3-3,0.5-4.6,0.7c-3.2,0.4-6.3,0.5-8.8,0.6
			c-1.2,0-2.2,0-2.9,0c-0.7,0-1.1-0.1-1.1-0.1L30.1,131.4z"/>
	</g>
	<g clip-path="url(#XMLID_3_)">
		<path fill="#996733" d="M23.4,168.8c0,0,0.4,0.1,1.2,0.3c0.8,0.2,1.9,0.4,3.3,0.7c2.7,0.5,6.4,1.1,10.2,1.5
			c1.9,0.2,3.7,0.3,5.5,0.4c0.9,0,1.7,0,2.5,0c0.8,0,1.6,0,2.3-0.1c0.7-0.1,1.3-0.1,1.9-0.1c0.6,0,1.1-0.1,1.5-0.2
			c0.8-0.1,1.3-0.2,1.3-0.2s-0.5,0.1-1.2,0.4c-0.4,0.1-0.9,0.3-1.4,0.4c-0.6,0.1-1.2,0.3-1.9,0.5c-0.7,0.1-1.5,0.3-2.3,0.4
			c-0.8,0.1-1.7,0.2-2.6,0.4c-1.8,0.2-3.7,0.4-5.6,0.5c-3.8,0.2-7.7,0.2-10.6,0.2c-1.4,0-2.6-0.1-3.5-0.1c-0.9-0.1-1.3-0.1-1.3-0.1
			L23.4,168.8z"/>
	</g>
	<g clip-path="url(#XMLID_3_)">
		<path fill="#996733" d="M20.9,222.7c0,0,0.9,0.2,2.4,0.6c1.6,0.4,3.8,0.9,6.5,1.4c5.4,1.1,12.7,2.3,20,3c1.8,0.2,3.7,0.3,5.5,0.4
			c1.8,0.1,3.6,0.1,5.3,0.1c1.7,0,3.4-0.1,5-0.2c1.6-0.1,3.1-0.3,4.4-0.5c0.7-0.1,1.3-0.3,1.9-0.4c0.6-0.1,1.2-0.3,1.7-0.5
			c1.1-0.3,2-0.7,2.7-1c0.7-0.3,1.3-0.7,1.6-0.9c0.4-0.2,0.6-0.3,0.6-0.3s-0.2,0.1-0.5,0.4c-0.3,0.3-0.9,0.7-1.6,1
			c-0.7,0.4-1.6,0.8-2.7,1.3c-0.5,0.2-1.1,0.4-1.7,0.6c-0.6,0.2-1.3,0.4-1.9,0.6c-1.4,0.3-2.9,0.7-4.4,0.9c-1.6,0.3-3.3,0.5-5,0.6
			c-1.8,0.2-3.6,0.3-5.4,0.3c-1.8,0.1-3.7,0.1-5.6,0.1c-7.5-0.1-15-0.7-20.5-1.3c-2.8-0.3-5.1-0.6-6.7-0.9c-1.6-0.2-2.6-0.4-2.6-0.4
			L20.9,222.7z"/>
	</g>
	<g clip-path="url(#XMLID_3_)">
		<path fill="#996733" d="M1,254.7c0,0,1,0.2,2.7,0.5c1.7,0.3,4.2,0.7,7.2,1.2c3,0.5,6.5,1,10.3,1.5c1.9,0.2,3.8,0.5,5.8,0.7
			c2,0.2,4,0.5,6,0.6c2,0.2,4,0.4,6,0.5c2,0.1,3.9,0.3,5.8,0.3c0.9,0,1.9,0.1,2.8,0.1c0.9,0,1.8,0,2.7,0c0.9,0,1.7,0,2.5,0
			c0.8,0,1.6-0.1,2.4-0.1c0.8,0,1.5-0.1,2.2-0.1c0.7-0.1,1.3-0.2,1.9-0.2c1.2-0.2,2.3-0.2,3.2-0.5c1.7-0.4,2.7-0.6,2.7-0.6
			s-1,0.3-2.7,0.8c-0.8,0.3-1.9,0.5-3.1,0.7c-0.6,0.1-1.3,0.2-1.9,0.4c-0.7,0.1-1.4,0.2-2.2,0.3c-0.8,0.1-1.6,0.2-2.4,0.3
			c-0.8,0.1-1.7,0.1-2.5,0.2c-0.9,0.1-1.8,0.1-2.7,0.2c-0.9,0-1.9,0.1-2.8,0.1c-1.9,0.1-3.9,0.1-5.9,0.1c-2,0-4.1,0-6.1,0
			c-2,0-4.1-0.1-6.1-0.2c-2-0.1-4-0.2-5.9-0.3c-3.8-0.2-7.4-0.5-10.4-0.7c-3.1-0.2-5.6-0.5-7.4-0.7c-1.8-0.2-2.8-0.3-2.8-0.3
			L1,254.7z"/>
	</g>
	<g clip-path="url(#XMLID_3_)">
		<path fill="#996733" d="M0.8,290.6c0,0,1,0.2,2.7,0.5c1.7,0.3,4.2,0.7,7.2,1.2c3,0.5,6.5,1,10.3,1.5c1.9,0.2,3.8,0.5,5.8,0.7
			c2,0.2,4,0.5,6,0.6c2,0.2,4,0.4,6,0.5c2,0.1,3.9,0.3,5.8,0.3c0.9,0,1.9,0.1,2.8,0.1c0.9,0,1.8,0,2.7,0c0.9,0,1.7,0,2.5,0
			c0.8,0,1.6-0.1,2.4-0.1c0.8,0,1.5-0.1,2.2-0.1c0.7-0.1,1.3-0.2,1.9-0.2c1.2-0.2,2.3-0.2,3.2-0.5c1.7-0.4,2.7-0.6,2.7-0.6
			s-1,0.3-2.7,0.8c-0.8,0.3-1.9,0.5-3.1,0.7c-0.6,0.1-1.3,0.2-1.9,0.4c-0.7,0.1-1.4,0.2-2.2,0.3c-0.8,0.1-1.6,0.2-2.4,0.3
			c-0.8,0.1-1.7,0.1-2.5,0.2c-0.9,0.1-1.8,0.1-2.7,0.2c-0.9,0-1.9,0.1-2.8,0.1c-1.9,0.1-3.9,0.1-5.9,0.1c-2,0-4.1,0-6.1,0
			c-2,0-4.1-0.1-6.1-0.2c-2-0.1-4-0.2-5.9-0.3c-3.8-0.2-7.4-0.5-10.4-0.7c-3.1-0.2-5.6-0.5-7.4-0.7C1,295.6,0,295.5,0,295.5
			L0.8,290.6z"/>
	</g>
</g>
</svg>
