<!-- Generator: Adobe Illustrator 18.1.1, SVG Export Plug-In  -->
<svg version="1.1"
	 xmlns="http://www.w3.org/2000/svg" xmlns:xlink="http://www.w3.org/1999/xlink" xmlns:a="http://ns.adobe.com/AdobeSVGViewerExtensions/3.0/"
	 x="0px" y="0px" width="1156.4px" height="226.2px" viewBox="0 0 1156.4 226.2" enable-background="new 0 0 1156.4 226.2"
	 xml:space="preserve">
<defs>
</defs>
<g>
	<g>
		<defs>
			<polygon id="XMLID_42_" points="436.7,132.6 444.6,111.2 460.9,105.2 472.3,111.9 479.2,120.5 481.6,123.7 484.1,126.9 
				482.1,134 460.2,138.5 			"/>
		</defs>
		<use xlink:href="#XMLID_42_"  overflow="visible" fill="#989898"/>
		<clipPath id="XMLID_43_">
			<use xlink:href="#XMLID_42_"  overflow="visible"/>
		</clipPath>
	</g>
	<polygon fill="#CCCBCB" points="444.6,111.2 446.9,123.7 456.1,125.9 459.3,117.3 470.6,121.3 472.3,111.9 460.9,105.2 	"/>
</g>
<g>
	<g>
		<defs>
			<polygon id="XMLID_41_" points="625.7,103.4 619.5,104.5 615.1,102.5 616.8,97 621.9,94.2 626.4,96.8 628,100.1 			"/>
		</defs>
		<use xlink:href="#XMLID_41_"  overflow="visible" fill="#989898"/>
		<clipPath id="XMLID_44_">
			<use xlink:href="#XMLID_41_"  overflow="visible"/>
		</clipPath>
	</g>
	<polygon fill="#CCCBCB" points="616.8,97 621.6,97.4 626.4,96.8 621.9,94.2 	"/>
</g>
<g>
	<g>
		<defs>
			<polygon id="XMLID_40_" points="128.6,97.8 122.4,98.9 118,97 119.7,91.5 124.8,88.7 129.2,91.3 130.9,94.6 			"/>
		</defs>
		<use xlink:href="#XMLID_40_"  overflow="visible" fill="#989898"/>
		<clipPath id="XMLID_45_">
			<use xlink:href="#XMLID_40_"  overflow="visible"/>
		</clipPath>
	</g>
	<polygon fill="#CCCBCB" points="119.7,91.5 124.4,91.9 129.2,91.3 124.8,88.7 	"/>
</g>
<path fill="#72BE44" d="M751.6,81.9c-2.9-1.9-8.9-2.9-15.4-3c4.8-11.9,7.5-27,7.5-32.4c-2.4,2.2-7.7,8.1-13,15.1
	c2.4-11.3-3.9-27.5-8.6-37.1c2.7,12.2,2.6,25.6-1.6,37.5c-1.3-4.6-2.6-8.3-3.4-10c-1,2.8-2,5.7-2.9,8.6
	c-5.4-10.8-11.3-21.2-12.5-25.1c-0.1,4.5,0.1,24,3.4,38.9c-3.5-1.2-8.7-2-16.1-2c9.7,3.5,12.7,9.8,18.8,16.8
	c-3.1,4.7-7.5,9.9,10.8,4.3c0.3,0.2,0.5,0.3,0.8,0.5c4.8,2.2,9-1.1,12.5-6.7C741.3,84.7,750.9,82.1,751.6,81.9z"/>
<path fill="#72BE44" d="M104.9,117.8c-1.9-1.2-2.4,3.2-6.6,3.2c2.9-7.7,7.4-17.5,7.3-21c-1.5,1.5-7.9,5.4-11.2,9.9
	c1.3-7.3,0.2-7.8-3-13.8c2,7.8-1.1,6.6-3.6,14.3c-0.9-2.9-1.8-5.3-2.3-6.4c-0.6,1.8-1.2,3.7-1.7,5.6c-3.6-6.9-6.9-1.2-7.7-3.7
	c0,2.9-0.3,3.2,2.1,12.7c-2.3-0.7-4-7.7-8.7-7.6c6.3,2.1,7.5,14.6,10.8,17c-1.9,3.1,5,0.1,7,2.6c0.2,0.1,0.3,0.2,0.5,0.3
	c3.1,1.3,5.8-0.8,7.9-4.5C101.7,124.7,104.4,118,104.9,117.8z"/>
<path fill="#72BE44" d="M403.6,32.6c-2.1-1.4-6.4,3.9-11,3.9c3.4-8.5,7.7-15.4,7.7-19.2c-1.7,1.6-7.9,1.8-11.7,6.8
	c1.7-8.1,1.8-8.3-1.6-15.2c2,8.8-2.7,7-5.7,15.5c-0.9-3.3-1.9-6-2.4-7.2c-0.7,2-1.4,4.1-2.1,6.2c-3.8-7.8-8-7.6-8.8-10.4
	c-0.1,3.2-0.1,9.6,2.3,20.3c-2.5-0.9-1.8,0.8-7.1,0.8c7,2.5,4.7,4.8,9.1,9.9c-2.2,3.4,1.7,0.2,7.8,3.1c0.2,0.1,0.4,0.2,0.6,0.3
	c3.4,1.6,6.5-0.8,9-4.8C396.2,40.6,403.1,32.7,403.6,32.6z"/>
<g>
	<g>
		<path fill="#349946" d="M386.8,180.3c-0.4-3-3.6-5.1-7.3-4.7c-0.5,0.1-1.2,0.2-1.9,0.3c0.6-1.2,0.6-2.5,0.1-3.7
			c-1.2-2.8-4.9-4.3-8.4-3.2c0,0-0.1,0-0.1,0c3.1-2,4.1-5.6,2.1-8.3c-2.1-3-6.9-3.9-10.6-2.1c1.3-2.3,0.9-5.1-1.3-7.1
			c-2.8-2.6-7.5-2.8-10.9-0.7c1.4-3,0.3-6.5-3-8.3c-2.9-1.6-6.6-1.6-9.4-0.2c0.7-3.1-1.1-6.2-4.6-7.6c-2.6-1-5.6-0.9-8.1,0.3
			c-0.7-2.1-2.5-3.8-5-4.8c-3.9-1.5-8.4-0.7-11.4,1.7c0.1-0.4,0.1-0.7,0.2-1c0.5-4.5-3.6-8.3-9-8.5c-2.2-0.1-4.4,0.4-6.1,1.4
			c-1.4-2.6-4.5-4.4-8.2-4.6c-5.4-0.2-10.2,3.2-10.7,7.7c-0.3,3.3,1.2,11.9,4.1,16.3l-0.2,0.4c-6.3,1.7-15,7.1-17.7,9.6
			c-3.8,3.6-3.4,9,0.9,12c2.8,2,6.6,2.4,10,1.5c0.6,1.3,1.5,2.5,2.9,3.4c4.3,3,10.8,2.5,14.6-1.1c0.3-0.2,0.5-0.5,0.8-0.8
			c0.2,2.4,1.9,4.7,4.7,5.8c3.4,1.4,7.4,0.7,10-1.4c0,3.1,2.4,6,6.3,6.8c2,0.4,4,0.3,5.8-0.4c0.8,2.1,2.8,3.8,5.5,4.5
			c2.5,0.6,5.2,0.3,7.3-0.8c0.9,1.6,2.6,2.8,4.7,3.4c1.4,0.4,2.9,0.4,4.3,0.1c0.5,1.9,2.1,3.5,4.5,4.3c1.6,0.5,3.2,0.6,4.8,0.2
			c0.4,1.5,1.6,2.8,3.4,3.5c2.9,1.2,6.3,0.4,8.3-1.6c-0.3,0.6-0.5,1.1-0.6,1.5c-0.7,2.5,1.2,5,4.3,5.5c1.8,0.3,3.6-0.2,5-1.1
			c0.1,1.3,1.3,2.5,3,2.8c1.1,0.2,2.1,0,3-0.5c0,1.2,1,2.2,2.5,2.5c1.7,0.3,3.5-0.7,3.9-2.1c0.1-0.3,0.1-0.7,0.2-1.1l0.2,0.1
			c0.6,1.4,1.5,2.8,2.1,3.4c1.2,1.2,3.5,1.4,5,0.3c1.5-1.1,1.8-2.9,0.6-4.1c-0.4-0.4-1.1-0.9-1.9-1.4c1.8,0.3,3.7-0.7,4.2-2.2
			c0.5-1.6-0.6-3.2-2.5-3.5c-0.3-0.1-0.8-0.1-1.4-0.1c0-0.3,0-0.6-0.1-0.8c1.4-0.7,2.3-2,2.1-3.4c-0.2-1.4-1.4-2.6-3-2.9
			C386.1,183.8,387,182.1,386.8,180.3z"/>
		<g>
			<path fill="#078E45" d="M274.9,141.4c0,0,2.1,0.1,5.6,0.5c1.8,0.2,3.9,0.5,6.4,1c2.5,0.4,5.2,1,8.2,1.7c3,0.7,6.2,1.5,9.6,2.5
				c3.4,1,7,2.1,10.6,3.4c0.9,0.3,1.8,0.7,2.8,1c0.9,0.4,1.8,0.7,2.8,1.1c1.9,0.7,3.7,1.5,5.6,2.3c1.9,0.8,3.7,1.6,5.6,2.5
				c1.8,0.9,3.7,1.8,5.6,2.7c1.8,1,3.7,1.9,5.5,2.9c1.8,1,3.6,2,5.3,3.1c0.9,0.5,1.7,1.1,2.6,1.6c0.8,0.6,1.7,1.1,2.5,1.7
				c1.7,1.1,3.3,2.3,4.8,3.4c3.1,2.3,6.1,4.7,8.7,7c1.4,1.2,2.6,2.4,3.8,3.5c0.6,0.6,1.2,1.2,1.8,1.7c0.6,0.6,1.1,1.2,1.6,1.7
				c1,1.2,2.1,2.2,3,3.3c0.9,1.1,1.8,2.1,2.6,3.1c1.6,2,2.8,3.8,3.9,5.2c1,1.5,1.7,2.7,2.3,3.5c0.5,0.8,0.8,1.3,0.8,1.3
				s-0.4-0.4-1.1-1c-0.7-0.7-1.7-1.7-2.9-2.9c-1.3-1.2-2.9-2.7-4.7-4.4c-1.9-1.6-3.9-3.5-6.3-5.3c-0.6-0.5-1.2-1-1.8-1.5
				c-0.6-0.5-1.3-1-1.9-1.4c-1.3-1-2.6-2-4-3c-1.4-1-2.8-2.1-4.3-3.1c-1.5-1-3-2.1-4.6-3.1c-3.2-2-6.5-4.1-9.9-6
				c-0.9-0.5-1.7-1-2.6-1.5c-0.9-0.5-1.7-1-2.6-1.4c-1.7-1-3.5-1.9-5.3-2.8c-1.8-0.9-3.6-1.8-5.4-2.7c-1.8-0.8-3.6-1.7-5.4-2.6
				c-3.6-1.6-7.2-3.3-10.6-4.7c-3.5-1.5-6.9-2.8-10.1-4.1c-3.2-1.3-6.3-2.4-9.2-3.5c-5.7-2.1-10.5-3.8-13.9-4.9
				C276.9,142,274.9,141.4,274.9,141.4z"/>
		</g>
	</g>
	<g>
		<path fill="#349946" d="M339.5,198.1c0.4-2.2-1.5-4.2-4.2-4.5c-0.4,0-0.9-0.1-1.4-0.1c0.6-0.7,1-1.7,0.9-2.7
			c-0.2-2.2-2.6-3.9-5.4-3.7c0,0-0.1,0-0.1,0c2.7-0.9,4.1-3.3,3.3-5.6c-0.9-2.5-4.1-3.9-7.1-3.2c1.4-1.5,1.7-3.5,0.6-5.3
			c-1.5-2.3-4.8-3.2-7.7-2.2c1.6-1.9,1.5-4.6-0.4-6.5c-1.7-1.6-4.4-2.2-6.7-1.6c1.1-2.1,0.5-4.6-1.7-6.2c-1.7-1.2-3.9-1.5-5.8-1.1
			c-0.1-1.6-1-3.2-2.6-4.3c-2.5-1.7-5.9-1.9-8.5-0.6c0.1-0.3,0.3-0.5,0.3-0.7c1.3-3.1-0.8-6.5-4.7-7.6c-1.6-0.4-3.2-0.4-4.7,0
			c-0.5-2.1-2.3-3.9-4.9-4.6c-3.9-1-8,0.7-9.3,3.8c-0.9,2.3-1.7,8.7-0.5,12.4l-0.3,0.3c-4.9,0.2-12.3,2.7-14.8,4.1
			c-3.5,2-4.3,5.9-1.9,8.7c1.6,1.9,4.3,2.8,6.9,2.7c0.1,1,0.6,2,1.3,2.9c2.4,2.8,7.3,3.5,10.7,1.6c0.2-0.1,0.5-0.3,0.8-0.5
			c-0.4,1.8,0.4,3.7,2.2,4.9c2.2,1.5,5.2,1.7,7.5,0.6c-0.7,2.2,0.5,4.7,3.1,5.9c1.3,0.6,2.8,0.8,4.3,0.6c0.1,1.6,1.2,3.2,3,4.1
			c1.7,0.9,3.7,1,5.4,0.6c0.3,1.3,1.2,2.4,2.7,3.2c1,0.5,2,0.7,3.1,0.7c0,1.4,0.8,2.9,2.3,3.8c1,0.6,2.2,0.9,3.4,0.9
			c0,1.1,0.6,2.2,1.7,3c1.8,1.3,4.5,1.3,6.3,0.2c-0.3,0.4-0.6,0.7-0.7,1c-1,1.7-0.2,3.8,1.9,4.6c1.2,0.5,2.6,0.5,3.8,0
			c-0.2,1,0.4,2,1.6,2.5c0.7,0.3,1.5,0.3,2.2,0.1c-0.2,0.9,0.3,1.8,1.3,2.2c1.2,0.5,2.6,0.1,3.2-0.9c0.1-0.2,0.2-0.5,0.4-0.8
			l0.2,0.1c0.2,1.1,0.5,2.3,0.8,2.8c0.6,1.1,2.2,1.6,3.5,1c1.3-0.5,1.9-1.8,1.3-2.9c-0.2-0.3-0.6-0.8-1.1-1.3
			c1.3,0.5,2.8,0.1,3.4-0.9c0.7-1,0.2-2.4-1.1-2.9c-0.2-0.1-0.6-0.2-0.9-0.3c0.1-0.2,0.1-0.4,0.1-0.6c1.1-0.3,2-1.1,2.2-2.1
			c0.2-1.1-0.5-2.1-1.5-2.6C338.3,200.5,339.3,199.4,339.5,198.1z"/>
		<g>
			<path fill="#078E45" d="M267.4,152.4c0,0,1.5,0.3,3.9,1.1c1.2,0.4,2.7,0.9,4.4,1.6c1.7,0.7,3.6,1.4,5.6,2.3
				c4.1,1.8,8.7,4.3,13.4,7.2c1.2,0.7,2.4,1.5,3.6,2.3c1.2,0.8,2.4,1.6,3.6,2.5c1.2,0.9,2.4,1.8,3.5,2.7c1.1,1,2.3,1.9,3.5,2.9
				c2.2,2,4.5,4,6.5,6.1c0.5,0.5,1,1.1,1.5,1.6c0.5,0.5,1,1.1,1.5,1.6c1,1.1,1.9,2.2,2.8,3.3c1.8,2.2,3.4,4.4,4.8,6.6
				c0.7,1.1,1.4,2.1,2,3.2c0.6,1,1.2,2.1,1.7,3.1c0.5,1,1,1.9,1.4,2.9c0.4,0.9,0.8,1.8,1.1,2.7c0.7,1.7,1.2,3.2,1.6,4.4
				c0.4,1.3,0.6,2.3,0.8,2.9c0.2,0.7,0.2,1,0.2,1s-0.2-0.3-0.6-0.9c-0.4-0.6-0.9-1.4-1.6-2.5c-0.7-1.1-1.6-2.3-2.6-3.8
				c-1-1.4-2.2-3.1-3.5-4.8c-0.3-0.4-0.7-0.9-1-1.3c-0.4-0.4-0.7-0.9-1.1-1.3c-0.7-0.9-1.5-1.8-2.3-2.8c-0.8-0.9-1.6-1.9-2.5-2.8
				c-0.9-0.9-1.7-1.9-2.7-2.9c-1.8-1.9-3.8-3.9-5.9-5.8c-2-1.9-4.2-3.9-6.3-5.7c-2.2-1.9-4.4-3.7-6.6-5.5c-2.2-1.8-4.4-3.5-6.6-5.1
				c-2.2-1.6-4.3-3.2-6.3-4.6c-2-1.4-3.9-2.8-5.7-4.1c-3.6-2.5-6.6-4.5-8.8-6C268.6,153.2,267.4,152.4,267.4,152.4z"/>
		</g>
	</g>
	<g>
		<path fill="#349946" d="M349.9,95.7c-2.3-1.3-5.4-0.6-7,1.6c-0.2,0.3-0.5,0.7-0.7,1.2c-0.6-0.9-1.4-1.6-2.6-1.9
			c-2.6-0.8-5.5,0.5-6.5,2.9c0,0,0,0,0,0.1c0.1-2.7-1.9-5-4.9-5.3c-3.2-0.3-6.2,1.8-6.7,4.7c-1-1.8-3.2-3-5.7-2.8
			c-3.2,0.2-5.7,2.7-5.9,5.5c-1.4-2.3-4.5-3.4-7.4-2.5c-2.6,0.7-4.4,2.8-4.8,5c-1.8-1.9-5-2.5-7.7-1.3c-2,0.9-3.4,2.6-3.8,4.5
			c-1.8-0.6-4-0.6-5.9,0.3c-3,1.3-4.7,4.2-4.5,7c-0.2-0.2-0.4-0.4-0.6-0.6c-3-2.5-7.7-2.2-10.6,0.6c-1.2,1.2-1.9,2.6-2.1,4
			c-2.5-0.5-5.4,0.2-7.3,2.2c-2.9,2.8-2.8,7.1,0.1,9.6c2.2,1.8,9,5.3,13.7,5.9l0.2,0.3c-1.9,4.3-2.4,11.6-2,14.4
			c0.7,3.9,4.7,6.3,9,5.5c2.8-0.5,5-2.4,6-4.7c1.2,0.3,2.5,0.4,3.8,0.1c4.3-0.8,7.2-4.6,6.5-8.5c0-0.3-0.1-0.5-0.2-0.9
			c1.8,1.1,4.3,1.3,6.5,0.4c2.7-1.2,4.2-3.7,4-6.1c2.2,1.6,5.4,1.7,8,0c1.3-0.9,2.2-2.1,2.6-3.4c1.9,0.6,4.1,0.4,5.9-0.7
			c1.7-1,2.8-2.7,3.1-4.3c1.6,0.3,3.3,0,4.8-0.9c1-0.6,1.7-1.4,2.2-2.3c1.6,0.6,3.6,0.6,5.3-0.3c1.1-0.6,2-1.5,2.5-2.5
			c1.3,0.5,2.8,0.5,4.2-0.1c2.3-1,3.5-3.2,3-5.3c0.3,0.4,0.5,0.8,0.8,1.1c1.5,1.6,4.2,1.8,6.1,0.4c1.1-0.8,1.7-2.1,1.7-3.2
			c1,0.6,2.4,0.5,3.5-0.3c0.6-0.5,1-1.2,1.1-1.9c0.9,0.6,2.1,0.6,3-0.1c1.1-0.8,1.3-2.2,0.4-3.1c-0.2-0.2-0.4-0.4-0.7-0.7l0.2-0.1
			c1.3,0.4,2.8,0.6,3.5,0.5c1.5-0.1,2.7-1.2,2.7-2.6c0-1.4-1.2-2.4-2.7-2.4c-0.4,0-1.2,0.1-1.9,0.3c1.1-0.9,1.3-2.3,0.5-3.3
			c-0.9-1.1-2.6-1.2-3.8-0.4c-0.2,0.1-0.5,0.4-0.8,0.7c-0.2-0.1-0.4-0.3-0.7-0.3c0.2-1.1-0.3-2.2-1.4-2.8c-1.1-0.6-2.5-0.5-3.6,0.1
			C352,97.8,351.2,96.4,349.9,95.7z"/>
		<g>
			<path fill="#078E45" d="M273.5,134.5c0,0,0.3-0.3,0.8-0.8c0.5-0.5,1.3-1.2,2.4-2.1c1-0.9,2.3-1.9,3.8-3.1
				c1.5-1.1,3.3-2.4,5.2-3.7c1.9-1.3,4.1-2.6,6.4-4c2.3-1.3,4.8-2.7,7.5-4c2.6-1.3,5.4-2.5,8.3-3.7c2.9-1.2,5.8-2.2,8.8-3.2
				c3-1,6-1.8,9-2.5c1.5-0.4,3-0.7,4.5-1c1.5-0.3,3-0.5,4.4-0.8c1.5-0.2,2.9-0.4,4.3-0.5c1.4-0.1,2.8-0.2,4.1-0.3
				c2.7-0.1,5.3-0.2,7.6-0.1c2.4,0,4.5,0.3,6.4,0.4c1.9,0.2,3.5,0.4,4.9,0.7c1.3,0.2,2.4,0.5,3.1,0.6c0.7,0.2,1.1,0.2,1.1,0.2
				s-0.4,0-1.1,0.1c-0.7,0.1-1.8,0.2-3.1,0.3c-1.3,0.1-3,0.4-4.8,0.5c-0.9,0.1-1.9,0.3-2.9,0.4c-0.5,0.1-1,0.1-1.6,0.2
				c-0.5,0.1-1.1,0.2-1.7,0.3c-2.3,0.3-4.7,0.8-7.2,1.2c-1.3,0.3-2.6,0.5-3.9,0.8c-1.3,0.3-2.7,0.6-4.1,0.9c-1.4,0.3-2.8,0.7-4.2,1
				c-1.4,0.4-2.8,0.8-4.3,1.1c-2.9,0.8-5.8,1.6-8.6,2.6c-1.4,0.4-2.9,0.9-4.3,1.4c-1.4,0.5-2.8,1-4.2,1.5c-1.4,0.5-2.8,1-4.2,1.5
				c-1.4,0.5-2.7,1-4,1.6c-5.3,2.1-10.2,4.2-14.4,6c-2.1,0.9-4,1.8-5.7,2.6c-1.7,0.8-3.2,1.5-4.4,2
				C274.9,133.9,273.5,134.5,273.5,134.5z"/>
		</g>
	</g>
	<g>
		<path fill="#349946" d="M155,187.7c-0.4-2.5,2.4-4.6,6.2-4.8c0.5,0,1.2,0,2,0c-0.9-0.9-1.3-1.9-1-3c0.5-2.4,4-4.1,7.8-3.8
			c0,0,0.1,0,0.1,0c-3.7-1.2-5.5-3.9-4.2-6.4c1.4-2.7,6-4.1,10.2-3.1c-1.9-1.7-2.1-4-0.5-5.9c2.2-2.4,6.9-3.3,10.9-2.1
			c-2.2-2.2-1.8-5.2,1.1-7.2c2.5-1.7,6.3-2.2,9.5-1.4c-1.4-2.4-0.4-5.1,2.9-6.7c2.4-1.2,5.5-1.4,8.2-0.9c0.3-1.8,1.6-3.4,3.9-4.6
			c3.5-1.7,8.3-1.7,11.9-0.2c-0.2-0.3-0.3-0.6-0.4-0.8c-1.6-3.6,1.6-7.2,7.1-8.1c2.3-0.4,4.5-0.2,6.6,0.3c0.8-2.3,3.5-4.2,7.2-4.8
			c5.5-0.9,11.2,1.2,12.7,4.7c1.2,2.6,1.7,9.8-0.2,13.8l0.4,0.3c6.8,0.5,17,3.7,20.4,5.4c4.7,2.4,5.7,6.8,2,9.8
			c-2.4,2-6.1,2.9-9.8,2.6c-0.3,1.1-1,2.2-2.1,3.1c-3.6,3-10.4,3.5-15.1,1.1c-0.3-0.2-0.7-0.4-1-0.6c0.4,2-0.7,4-3.4,5.3
			c-3.1,1.6-7.4,1.6-10.5,0.2c0.8,2.5-1,5.2-4.7,6.3c-1.9,0.6-4,0.8-6,0.5c-0.3,1.8-1.9,3.4-4.5,4.4c-2.4,0.9-5.2,0.9-7.6,0.3
			c-0.5,1.4-1.9,2.6-4,3.4c-1.4,0.5-2.9,0.7-4.3,0.7c-0.1,1.6-1.3,3.1-3.5,4.1c-1.5,0.6-3.1,0.9-4.8,0.8c-0.1,1.2-0.9,2.5-2.6,3.3
			c-2.6,1.3-6.3,1.2-8.8-0.2c0.4,0.4,0.8,0.8,1,1.1c1.3,2,0,4.2-3,5c-1.8,0.5-3.7,0.4-5.3-0.2c0.2,1.1-0.7,2.2-2.4,2.6
			c-1,0.3-2.2,0.3-3.1,0c0.3,1-0.5,1.9-1.9,2.3c-1.7,0.5-3.7-0.1-4.4-1.2c-0.1-0.2-0.3-0.5-0.4-0.9l-0.2,0.1c-0.3,1.2-0.9,2.5-1.3,3
			c-0.9,1.2-3.2,1.6-5,1c-1.8-0.6-2.5-2.1-1.6-3.3c0.3-0.3,0.9-0.9,1.6-1.4c-1.8,0.5-3.9-0.1-4.8-1.2c-0.9-1.2-0.2-2.6,1.7-3.2
			c0.3-0.1,0.8-0.2,1.3-0.3c-0.1-0.2-0.1-0.5-0.1-0.7c-1.6-0.4-2.8-1.3-3-2.5c-0.2-1.2,0.8-2.3,2.3-2.8
			C156.5,190.4,155.2,189.1,155,187.7z"/>
		<g>
			<path fill="#078E45" d="M259,141.1c0,0-1.7,0.8-4.7,2.2c-1.5,0.7-3.3,1.5-5.4,2.5c-2.1,1-4.4,2.1-6.9,3.3
				c-5.1,2.4-10.9,5.3-17.1,8.5c-1.5,0.8-3.1,1.6-4.7,2.5c-1.6,0.9-3.2,1.7-4.8,2.6c-1.6,0.9-3.2,1.8-4.8,2.7
				c-1.6,0.9-3.2,1.9-4.8,2.8c-3.2,1.9-6.3,3.9-9.3,5.9c-1.5,1-3,2-4.5,3.1c-1.4,1-2.9,2-4.3,3.1c-2.8,2.1-5.4,4.1-7.8,6.2
				c-2.4,2-4.7,4-6.7,5.9c-1,1-2,1.9-2.9,2.8c-0.9,0.9-1.7,1.8-2.5,2.6c-0.4,0.4-0.8,0.8-1.1,1.2c-0.3,0.4-0.7,0.8-1,1.2
				c-0.7,0.7-1.3,1.4-1.8,2c-1,1.3-1.9,2.3-2.4,3c-0.6,0.7-0.9,1.1-0.9,1.1s0.2-0.4,0.6-1.2c0.4-0.8,0.9-2,1.7-3.5
				c0.4-0.7,0.9-1.5,1.4-2.4c0.5-0.9,1.1-1.8,1.7-2.8c0.6-1,1.3-2,2.1-3.1c0.8-1,1.6-2.1,2.5-3.3c1.8-2.2,3.9-4.6,6.2-7
				c2.3-2.4,4.9-4.7,7.6-7.1c2.7-2.3,5.7-4.6,8.7-6.8c1.6-1.1,3.1-2.2,4.7-3.2c1.6-1,3.2-2.1,4.9-3c3.3-2,6.6-3.8,10-5.5
				c3.3-1.7,6.7-3.3,9.9-4.7c6.5-2.9,12.8-5.1,18.2-6.9c2.7-0.9,5.2-1.6,7.5-2.1c2.2-0.6,4.2-1,5.8-1.4
				C257.1,141.3,259,141.1,259,141.1z"/>
		</g>
	</g>
	<g>
		<path fill="#349946" d="M206.6,81.6c1.9-0.9,4.3,0.3,5.4,2.5c0.2,0.3,0.3,0.7,0.5,1.2c0.5-0.7,1.2-1.3,2.1-1.4
			c2.1-0.4,4.3,1.3,5,3.7c0,0,0,0,0,0.1c0-2.5,1.7-4.4,4-4.2c2.5,0.2,4.8,2.5,5.2,5.3c0.9-1.6,2.6-2.3,4.5-1.8
			c2.5,0.7,4.4,3.3,4.5,6c1.2-1.9,3.6-2.5,6-1.2c2,1.1,3.4,3.2,3.6,5.4c1.5-1.5,4-1.6,6.1,0c1.6,1.1,2.6,2.9,2.9,4.7
			c1.5-0.3,3.1,0,4.7,1.2c2.3,1.7,3.6,4.6,3.3,7.1c0.2-0.2,0.4-0.3,0.5-0.5c2.4-1.9,6.1-0.9,8.3,2.1c0.9,1.3,1.4,2.7,1.5,4
			c2-0.1,4.2,1,5.7,3.1c2.2,3,2,7-0.4,8.9c-1.8,1.4-7.3,3.6-11,3.5l-0.2,0.3c1.4,4.3,1.5,11.2,1.1,13.7c-0.7,3.5-3.9,5.2-7.2,3.8
			c-2.2-0.9-3.9-3-4.6-5.2c-1,0.1-2,0-3-0.4c-3.3-1.4-5.5-5.3-4.8-8.8c0-0.2,0.1-0.5,0.2-0.8c-1.5,0.8-3.4,0.6-5.1-0.6
			c-2.1-1.5-3.2-4-2.9-6.3c-1.8,1.2-4.3,0.8-6.3-1.2c-1-1-1.7-2.2-1.9-3.5c-1.5,0.3-3.2-0.2-4.6-1.6c-1.3-1.2-2.1-2.9-2.3-4.5
			c-1.2,0.1-2.6-0.4-3.7-1.5c-0.7-0.7-1.3-1.5-1.7-2.4c-1.3,0.4-2.8,0-4.1-1c-0.9-0.7-1.5-1.7-1.9-2.7c-1,0.3-2.2,0.1-3.3-0.7
			c-1.7-1.2-2.6-3.5-2.2-5.4c-0.2,0.4-0.5,0.7-0.6,0.9c-1.2,1.3-3.4,1.1-4.8-0.5c-0.9-0.9-1.3-2.2-1.2-3.3c-0.8,0.4-1.9,0.1-2.7-0.7
			c-0.5-0.5-0.8-1.2-0.8-1.9c-0.7,0.4-1.7,0.2-2.4-0.5c-0.8-0.9-0.9-2.2-0.2-3c0.1-0.1,0.3-0.3,0.6-0.5l-0.1-0.1
			c-1,0.1-2.2,0.1-2.8,0c-1.2-0.3-2.1-1.5-2.1-2.8c0-1.3,1-2.1,2.2-1.8c0.3,0.1,0.9,0.3,1.5,0.6c-0.8-1-1-2.4-0.3-3.2
			c0.7-0.9,2.1-0.8,3,0.2c0.2,0.2,0.4,0.4,0.6,0.7c0.2-0.1,0.3-0.2,0.5-0.2c-0.1-1.1,0.3-2,1.2-2.4c0.9-0.4,2-0.1,2.8,0.6
			C204.8,83.2,205.4,82.1,206.6,81.6z"/>
		<g>
			<path fill="#078E45" d="M270.8,132c0,0-1.1-0.8-3.2-2.3c-2-1.4-4.8-3.5-8.3-5.9c-1.7-1.2-3.6-2.5-5.5-3.9c-2-1.4-4-2.8-6.2-4.2
				c-2.2-1.4-4.4-2.9-6.7-4.3c-2.3-1.4-4.6-2.9-7-4.2c-2.4-1.4-4.8-2.7-7.2-4c-2.4-1.3-4.8-2.5-7.1-3.6c-2.3-1.1-4.6-2.1-6.8-3.1
				c-1.1-0.5-2.2-0.9-3.2-1.3c-0.5-0.2-1-0.4-1.5-0.6c-0.5-0.2-1-0.4-1.5-0.5c-1.9-0.7-3.7-1.3-5.4-1.9c-1.6-0.5-3.1-1-4.2-1.3
				c-1.2-0.3-2.1-0.6-2.8-0.8c-0.6-0.2-1-0.3-1-0.3s0.4,0,1-0.1c0.7,0,1.7-0.1,2.9-0.1c1.2,0,2.8,0,4.5,0.2c0.9,0.1,1.8,0.2,2.8,0.3
				c1,0.1,2,0.3,3.1,0.5c1.1,0.2,2.2,0.4,3.3,0.6c1.1,0.2,2.3,0.5,3.5,0.9c2.4,0.6,4.9,1.4,7.4,2.4c1.3,0.5,2.5,1,3.8,1.5
				c0.6,0.3,1.3,0.5,1.9,0.8c0.6,0.3,1.3,0.6,1.9,0.9c2.6,1.2,5.1,2.6,7.6,4c1.2,0.7,2.4,1.5,3.7,2.2c1.2,0.8,2.4,1.6,3.5,2.4
				c1.2,0.8,2.3,1.6,3.4,2.4c1.1,0.8,2.2,1.6,3.2,2.5c4.2,3.3,7.9,6.8,10.8,9.8c1.5,1.5,2.8,3,3.9,4.3c1.1,1.3,2.1,2.5,2.8,3.5
				C270.1,130.8,270.8,132,270.8,132z"/>
		</g>
	</g>
	<g>
		<path fill="#349946" d="M172.9,116.8c1.3-1.5,4-1.4,6.2,0.3c0.3,0.2,0.7,0.5,1.1,0.9c0.1-0.8,0.5-1.6,1.2-2.1
			c1.7-1.1,4.5-0.4,6.3,1.5c0,0,0,0,0,0.1c-1.2-2.3-0.6-4.6,1.6-5.3c2.4-0.8,5.6,0.5,7.3,2.9c0-1.7,1.2-3.1,3.2-3.3
			c2.6-0.3,5.6,1.4,7,3.8c0.2-2.2,2.1-3.6,4.8-3.3c2.3,0.2,4.6,1.7,5.9,3.5c0.6-1.9,2.8-2.9,5.5-2.3c2,0.5,3.8,1.7,4.9,3.2
			c1.2-0.8,2.9-1.1,4.8-0.7c2.9,0.7,5.4,2.8,6.4,5.3c0.1-0.2,0.2-0.4,0.3-0.6c1.3-2.6,5.1-3.1,8.6-1.1c1.4,0.8,2.6,1.9,3.3,3.1
			c1.8-0.8,4.3-0.7,6.7,0.7c3.5,2,5.2,5.6,3.9,8.2c-0.9,1.9-4.9,6-8.3,7.2l0,0.3c3.3,3.4,6.8,9.6,7.6,12c1.1,3.4-1,6.1-4.7,6.1
			c-2.4,0-5-1.2-6.7-3c-0.8,0.5-1.8,0.7-3,0.7c-3.7,0-7.6-2.8-8.7-6.2c-0.1-0.2-0.1-0.5-0.2-0.8c-1,1.2-2.8,1.8-4.9,1.3
			c-2.6-0.6-4.8-2.5-5.7-4.6c-1.1,1.7-3.6,2.3-6.2,1.3c-1.4-0.5-2.6-1.4-3.5-2.5c-1.2,0.8-3,1-5,0.3c-1.8-0.6-3.3-1.8-4.2-3.2
			c-1.1,0.5-2.6,0.5-4.1,0c-1-0.4-1.9-0.9-2.7-1.6c-1,0.8-2.5,1.1-4.3,0.6c-1.1-0.3-2.2-0.9-3-1.7c-0.8,0.6-2,0.9-3.3,0.6
			c-2.2-0.5-4.1-2.2-4.6-4.1c0,0.4-0.1,0.8-0.2,1c-0.5,1.6-2.5,2.2-4.6,1.3c-1.2-0.5-2.2-1.5-2.7-2.5c-0.6,0.7-1.7,0.8-2.8,0.3
			c-0.7-0.3-1.3-0.8-1.7-1.4c-0.4,0.6-1.4,0.8-2.4,0.4c-1.2-0.5-1.9-1.7-1.7-2.6c0-0.2,0.2-0.4,0.3-0.7l-0.2-0.1
			c-0.9,0.5-1.9,0.9-2.5,1c-1.2,0.2-2.6-0.6-3.2-1.8c-0.6-1.2-0.1-2.3,1.1-2.4c0.3-0.1,1-0.1,1.7,0c-1.2-0.6-2-1.8-1.8-2.8
			c0.2-1.1,1.5-1.5,2.8-0.9c0.2,0.1,0.5,0.2,0.9,0.4c0.1-0.2,0.2-0.3,0.4-0.4c-0.6-0.9-0.7-2-0.1-2.7c0.6-0.7,1.7-0.8,2.9-0.4
			C172.1,119,172.1,117.7,172.9,116.8z"/>
		<g>
			<path fill="#078E45" d="M255.6,138.8c0,0-5.7-1.2-14.2-3.1c-2.1-0.4-4.4-0.9-6.8-1.4c-2.4-0.5-5-1-7.6-1.5
				c-5.3-1-10.9-2-16.5-2.7c-2.8-0.4-5.6-0.7-8.4-1c-2.8-0.3-5.5-0.5-8.2-0.7c-0.7,0-1.3-0.1-2-0.1c-0.7,0-1.3-0.1-1.9-0.1
				c-0.6,0-1.3-0.1-1.9-0.1c-0.6,0-1.2,0-1.9,0c-1.2,0-2.4-0.1-3.6,0c-1.2,0-2.3,0-3.3,0c-1.1,0-2.1,0.1-3.1,0.1
				c-1,0.1-1.9,0.1-2.8,0.1c-1.8,0.1-3.3,0.3-4.5,0.4c-2.5,0.3-4,0.4-4,0.4s0.3-0.2,1-0.4c0.6-0.3,1.5-0.7,2.7-1.2
				c1.2-0.4,2.7-1,4.4-1.5c0.9-0.2,1.8-0.5,2.8-0.8c1-0.3,2-0.5,3.1-0.7c1.1-0.3,2.2-0.4,3.4-0.6c1.2-0.2,2.4-0.4,3.7-0.5
				c1.3-0.2,2.6-0.3,3.9-0.4c1.3-0.1,2.7-0.2,4.1-0.2c1.4-0.1,2.8,0,4.2,0c1.4,0,2.9,0.1,4.3,0.2c2.9,0.2,5.9,0.5,8.8,0.9
				c2.9,0.4,5.8,0.9,8.7,1.5c1.4,0.3,2.8,0.6,4.2,1c1.4,0.3,2.7,0.7,4.1,1.1c5.3,1.5,10.2,3.2,14.2,4.9c2,0.8,3.9,1.7,5.5,2.5
				c1.6,0.8,3,1.5,4.1,2.1C254.4,138,255.6,138.8,255.6,138.8z"/>
		</g>
	</g>
	<g>
		<path fill="#349946" d="M204.4,213.2c-1.4-1.8-0.1-4.4,2.9-5.8c0.4-0.2,1-0.4,1.6-0.6c-1-0.4-1.8-1.1-2.1-2
			c-0.7-2.1,1.3-4.6,4.5-5.5c0,0,0.1,0,0.1,0c-3.4,0.3-6-1.3-6.1-3.7c0-2.6,3-5.2,6.7-5.8c-2.2-0.7-3.4-2.5-2.9-4.5
			c0.7-2.6,4.1-4.9,7.7-5.2c-2.7-1.1-3.7-3.5-2.2-6c1.3-2.2,4-3.8,6.9-4.2c-2.2-1.4-2.5-3.9-0.6-6.3c1.4-1.7,3.7-2.9,6.1-3.4
			c-0.6-1.5-0.2-3.2,1.1-4.9c2-2.5,5.8-4.1,9.3-4.1c-0.3-0.2-0.5-0.3-0.7-0.5c-2.8-2.3-1.8-6.2,2.1-8.7c1.6-1,3.5-1.7,5.3-1.9
			c-0.3-2.1,0.9-4.4,3.6-6.1c3.9-2.5,9.3-2.7,12.1-0.4c2,1.7,5.6,7.2,5.8,10.9l0.4,0.1c5.6-1.8,15-2.7,18.4-2.4
			c4.8,0.3,7.4,3.5,5.8,7.1c-1,2.3-3.6,4.3-6.6,5.2c0.3,1,0.2,2-0.3,3.2c-1.6,3.6-6.7,6.2-11.5,5.8c-0.3,0-0.7-0.1-1.1-0.1
			c1.2,1.4,1.2,3.4-0.3,5.3c-1.8,2.2-5.1,3.6-8.2,3.6c1.7,1.7,1.4,4.4-1,6.5c-1.3,1.1-2.9,1.9-4.5,2.3c0.5,1.5,0,3.3-1.7,4.9
			c-1.5,1.5-3.7,2.4-5.9,2.8c0.2,1.3-0.4,2.7-1.7,4c-0.9,0.8-2,1.5-3.1,1.9c0.6,1.3,0.3,2.9-1,4.3c-0.9,1-2.1,1.7-3.4,2.2
			c0.5,1,0.3,2.2-0.6,3.4c-1.5,1.9-4.5,3-7,2.7c0.5,0.2,1,0.4,1.3,0.6c1.9,1.1,1.8,3.3-0.2,5c-1.2,1-2.8,1.5-4.3,1.5
			c0.6,0.8,0.4,2-0.7,2.9c-0.7,0.6-1.6,0.9-2.5,1c0.6,0.7,0.5,1.7-0.5,2.5c-1.1,0.9-2.9,1.2-4,0.5c-0.2-0.1-0.5-0.3-0.7-0.6
			l-0.1,0.1c0.3,1.1,0.4,2.2,0.3,2.8c-0.2,1.2-1.8,2.3-3.6,2.4c-1.7,0.1-2.9-0.8-2.7-2.1c0.1-0.4,0.3-1,0.7-1.6
			c-1.2,0.9-3.1,1.2-4.3,0.6c-1.2-0.7-1.3-2-0.1-3.1c0.2-0.2,0.5-0.4,0.9-0.7c-0.2-0.2-0.3-0.3-0.3-0.5c-1.4,0.2-2.8-0.1-3.4-1
			c-0.6-0.9-0.4-2,0.6-2.9C206.8,214.8,205.3,214.3,204.4,213.2z"/>
		<g>
			<path fill="#078E45" d="M266.5,142.4c0,0-1,1.2-2.8,3.3c-0.9,1-1.9,2.3-3.2,3.8c-1.2,1.5-2.6,3.1-4,4.9
				c-2.9,3.6-6.3,7.8-9.8,12.4c-0.9,1.2-1.7,2.3-2.6,3.5c-0.9,1.2-1.8,2.4-2.6,3.6c-0.9,1.2-1.7,2.5-2.6,3.7
				c-0.9,1.2-1.7,2.5-2.6,3.8c-0.9,1.3-1.7,2.6-2.5,3.8c-0.8,1.3-1.6,2.6-2.4,3.9c-0.7,1.3-1.5,2.6-2.2,3.9c-0.7,1.3-1.4,2.5-2,3.8
				c-1.3,2.5-2.5,5-3.5,7.4c-1.1,2.4-2,4.7-2.8,6.8c-0.4,1.1-0.7,2.1-1.1,3.1c-0.3,1-0.6,2-0.9,2.9c-0.3,0.9-0.5,1.8-0.7,2.5
				c-0.2,0.8-0.4,1.5-0.6,2.2c-0.6,2.7-0.9,4.2-0.9,4.2s0-0.4-0.1-1.1c0-0.7-0.2-1.8-0.2-3.2c0-1.4-0.1-3.1,0.1-5
				c0.1-1,0.2-2,0.3-3.1c0.2-1.1,0.3-2.2,0.5-3.4c0.4-2.4,1-4.9,1.8-7.5c0.8-2.6,1.8-5.4,2.9-8.1c1.2-2.8,2.5-5.6,4-8.3
				c0.8-1.4,1.5-2.8,2.4-4.1c0.8-1.3,1.7-2.7,2.5-4c1.8-2.6,3.6-5.2,5.5-7.7c1.9-2.5,3.9-4.8,5.9-7c4-4.4,8-8.3,11.5-11.4
				c1.8-1.5,3.5-2.9,5-4.1c1.5-1.2,2.9-2.2,4-3C265.1,143.2,266.5,142.4,266.5,142.4z"/>
		</g>
	</g>
</g>
<g>
	<g>
		<path fill="#349946" d="M1100.3,101.8c-0.3-2.2-2.7-3.8-5.4-3.5c-0.4,0-0.9,0.1-1.4,0.3c0.4-0.9,0.5-1.8,0.1-2.8
			c-0.9-2.1-3.7-3.2-6.2-2.4c0,0,0,0-0.1,0c2.3-1.5,3-4.1,1.6-6.2c-1.6-2.2-5.1-2.9-7.8-1.5c0.9-1.7,0.7-3.8-0.9-5.2
			c-2.1-1.9-5.6-2.1-8.1-0.5c1-2.2,0.2-4.8-2.3-6.2c-2.1-1.2-4.9-1.2-7-0.1c0.5-2.3-0.8-4.6-3.4-5.6c-2-0.8-4.2-0.6-6,0.2
			c-0.6-1.5-1.8-2.8-3.7-3.6c-2.9-1.1-6.2-0.5-8.4,1.2c0.1-0.3,0.1-0.5,0.1-0.8c0.3-3.3-2.6-6.1-6.7-6.3c-1.7-0.1-3.2,0.3-4.5,1
			c-1.1-1.9-3.3-3.3-6.1-3.4c-4-0.2-7.6,2.4-7.9,5.7c-0.3,2.4,0.9,8.8,3.1,12.1l-0.2,0.3c-4.7,1.3-11.1,5.2-13.1,7.1
			c-2.8,2.7-2.5,6.6,0.6,8.9c2.1,1.5,4.9,1.8,7.4,1.1c0.4,0.9,1.1,1.8,2.1,2.5c3.2,2.2,8,1.9,10.8-0.8c0.2-0.2,0.4-0.4,0.6-0.6
			c0.1,1.8,1.4,3.5,3.5,4.3c2.5,1,5.5,0.5,7.4-1.1c0,2.3,1.8,4.4,4.6,5c1.5,0.3,3,0.2,4.3-0.3c0.6,1.5,2.1,2.8,4.1,3.3
			c1.9,0.5,3.8,0.2,5.4-0.6c0.7,1.2,1.9,2.1,3.5,2.5c1.1,0.3,2.2,0.3,3.2,0.1c0.4,1.4,1.6,2.6,3.3,3.2c1.2,0.4,2.4,0.4,3.5,0.2
			c0.3,1.1,1.2,2.1,2.5,2.6c2.1,0.9,4.7,0.3,6.1-1.2c-0.2,0.4-0.4,0.8-0.4,1.1c-0.5,1.9,0.9,3.7,3.2,4.1c1.3,0.2,2.7-0.1,3.7-0.8
			c0.1,1,1,1.8,2.2,2c0.8,0.1,1.6,0,2.2-0.4c0,0.9,0.8,1.7,1.8,1.8c1.3,0.2,2.6-0.5,2.9-1.5c0.1-0.2,0.1-0.5,0.1-0.8l0.2,0
			c0.5,1,1.1,2.1,1.6,2.5c0.9,0.9,2.6,1,3.7,0.2c1.1-0.8,1.3-2.2,0.4-3.1c-0.3-0.3-0.8-0.7-1.4-1c1.4,0.2,2.7-0.5,3.1-1.6
			c0.4-1.2-0.4-2.3-1.9-2.6c-0.2,0-0.6-0.1-1-0.1c0-0.2,0-0.4-0.1-0.6c1-0.5,1.7-1.5,1.5-2.5c-0.1-1.1-1-1.9-2.2-2.2
			C1099.8,104.4,1100.5,103.2,1100.3,101.8z"/>
		<g>
			<path fill="#078E45" d="M1017.5,73c0,0,1.5,0.1,4.2,0.4c1.3,0.2,2.9,0.4,4.7,0.7c1.8,0.3,3.9,0.7,6.1,1.2
				c2.2,0.5,4.6,1.1,7.1,1.8c2.5,0.7,5.2,1.5,7.9,2.5c1.4,0.5,2.7,1,4.1,1.5c1.4,0.5,2.8,1.1,4.1,1.7c1.4,0.6,2.8,1.2,4.2,1.9
				c1.4,0.7,2.8,1.3,4.1,2c2.7,1.4,5.4,2.9,8,4.5c0.6,0.4,1.3,0.8,1.9,1.2c0.6,0.4,1.2,0.8,1.9,1.2c1.2,0.8,2.4,1.7,3.6,2.5
				c2.3,1.7,4.5,3.5,6.5,5.2c1,0.9,1.9,1.7,2.8,2.6c0.4,0.4,0.9,0.9,1.3,1.3c0.4,0.4,0.8,0.9,1.2,1.3c0.8,0.8,1.6,1.6,2.2,2.4
				c0.7,0.8,1.3,1.6,1.9,2.3c1.2,1.4,2.1,2.8,2.9,3.9c1.5,2.2,2.2,3.5,2.2,3.5s-1.1-1.1-3-2.9c-1-0.9-2.1-2-3.5-3.2
				c-1.4-1.2-2.9-2.6-4.7-4c-0.4-0.4-0.9-0.7-1.3-1.1c-0.5-0.3-0.9-0.7-1.4-1.1c-1-0.7-1.9-1.5-3-2.2c-2.1-1.5-4.3-3-6.6-4.5
				c-2.3-1.5-4.8-3-7.3-4.5c-2.5-1.5-5.1-2.9-7.8-4.2c-2.6-1.4-5.3-2.7-8-3.9c-2.7-1.2-5.3-2.4-7.9-3.5c-2.6-1.1-5.1-2.1-7.5-3.1
				c-2.4-0.9-4.7-1.8-6.8-2.6c-4.2-1.6-7.8-2.8-10.3-3.6C1018.9,73.5,1017.5,73,1017.5,73z"/>
		</g>
	</g>
	<g>
		<path fill="#349946" d="M1065.3,115c0.3-1.6-1.1-3.1-3.1-3.4c-0.3,0-0.6,0-1.1,0c0.5-0.6,0.7-1.2,0.7-2c-0.2-1.6-2-2.9-4-2.7
			c0,0,0,0-0.1,0c2-0.7,3-2.5,2.4-4.2c-0.7-1.8-3-2.9-5.3-2.4c1-1.1,1.3-2.6,0.4-3.9c-1.1-1.7-3.6-2.4-5.7-1.7
			c1.2-1.4,1.1-3.4-0.3-4.8c-1.3-1.2-3.2-1.6-5-1.2c0.8-1.5,0.4-3.4-1.3-4.6c-1.2-0.9-2.9-1.1-4.3-0.8c-0.1-1.2-0.7-2.3-1.9-3.2
			c-1.8-1.3-4.3-1.4-6.3-0.5c0.1-0.2,0.2-0.4,0.2-0.5c0.9-2.3-0.6-4.8-3.5-5.6c-1.2-0.3-2.4-0.3-3.5,0c-0.4-1.5-1.7-2.9-3.6-3.4
			c-2.9-0.8-5.9,0.5-6.9,2.8c-0.7,1.7-1.2,6.5-0.3,9.2l-0.2,0.2c-3.6,0.2-9.1,2-10.9,3c-2.6,1.5-3.2,4.4-1.4,6.5
			c1.2,1.4,3.2,2.1,5.1,2c0.1,0.7,0.4,1.5,1,2.1c1.8,2.1,5.4,2.6,8,1.2c0.2-0.1,0.4-0.2,0.6-0.4c-0.3,1.3,0.3,2.7,1.6,3.7
			c1.6,1.1,3.8,1.2,5.6,0.4c-0.5,1.7,0.4,3.5,2.3,4.4c1,0.5,2.1,0.6,3.2,0.5c0.1,1.2,0.9,2.3,2.2,3c1.2,0.6,2.7,0.8,4,0.4
			c0.2,0.9,0.9,1.8,2,2.4c0.7,0.4,1.5,0.5,2.3,0.6c0,1.1,0.6,2.1,1.7,2.8c0.8,0.5,1.6,0.7,2.5,0.7c0,0.8,0.4,1.7,1.2,2.3
			c1.3,1,3.3,1,4.7,0.1c-0.2,0.3-0.4,0.5-0.6,0.7c-0.8,1.3-0.1,2.8,1.4,3.4c0.9,0.4,2,0.3,2.8,0c-0.1,0.7,0.3,1.5,1.2,1.8
			c0.5,0.2,1.1,0.2,1.7,0.1c-0.2,0.6,0.2,1.3,0.9,1.6c0.9,0.4,1.9,0.1,2.4-0.7c0.1-0.1,0.2-0.3,0.3-0.6l0.1,0.1
			c0.1,0.8,0.4,1.7,0.6,2.1c0.5,0.8,1.6,1.1,2.6,0.8s1.4-1.3,0.9-2.1c-0.1-0.2-0.4-0.6-0.8-1c0.9,0.4,2,0.1,2.6-0.7
			c0.5-0.8,0.2-1.8-0.8-2.2c-0.2-0.1-0.4-0.2-0.7-0.2c0-0.2,0.1-0.3,0.1-0.5c0.8-0.2,1.5-0.8,1.6-1.6c0.1-0.8-0.3-1.5-1.1-1.9
			C1064.4,116.8,1065.1,116,1065.3,115z"/>
		<g>
			<path fill="#078E45" d="M1011.9,81.2c0,0,1.1,0.2,2.9,0.8c0.9,0.3,2,0.7,3.3,1.2c1.2,0.5,2.7,1,4.1,1.7c3,1.4,6.4,3.1,9.9,5.3
				c0.9,0.5,1.8,1.1,2.6,1.7c0.9,0.6,1.8,1.2,2.6,1.9c0.9,0.6,1.7,1.3,2.6,2c0.8,0.7,1.7,1.4,2.6,2.1c1.7,1.5,3.3,3,4.8,4.5
				c0.4,0.4,0.8,0.8,1.1,1.2c0.4,0.4,0.7,0.8,1.1,1.2c0.7,0.8,1.4,1.6,2.1,2.4c1.3,1.6,2.5,3.3,3.5,4.9c0.5,0.8,1,1.6,1.5,2.4
				c0.5,0.8,0.9,1.5,1.2,2.3c0.8,1.5,1.4,2.9,1.9,4.1c0.5,1.2,0.9,2.4,1.2,3.3c0.5,1.9,0.8,2.9,0.8,2.9s-0.6-0.9-1.6-2.5
				c-0.5-0.8-1.2-1.7-1.9-2.8c-0.8-1.1-1.6-2.3-2.6-3.5c-0.5-0.6-1-1.3-1.6-1.9c-0.5-0.7-1.1-1.4-1.7-2c-1.2-1.4-2.5-2.8-3.8-4.2
				c-2.7-2.9-5.8-5.8-9-8.5c-1.6-1.4-3.2-2.7-4.9-4.1c-1.6-1.3-3.3-2.6-4.9-3.8c-1.6-1.2-3.2-2.3-4.7-3.4c-1.5-1.1-2.9-2.1-4.2-3
				c-2.7-1.8-4.9-3.4-6.5-4.4C1012.8,81.8,1011.9,81.2,1011.9,81.2z"/>
		</g>
	</g>
	<g>
		<path fill="#349946" d="M1072.9,39.2c-1.7-1-4-0.4-5.2,1.2c-0.2,0.2-0.3,0.5-0.5,0.9c-0.4-0.7-1.1-1.2-1.9-1.4
			c-1.9-0.6-4.1,0.4-4.8,2.2c0,0,0,0,0,0.1c0.1-2-1.4-3.7-3.6-3.9c-2.4-0.2-4.6,1.3-5,3.5c-0.8-1.4-2.4-2.2-4.2-2.1
			c-2.4,0.2-4.3,2-4.4,4.1c-1.1-1.7-3.3-2.5-5.5-1.8c-1.9,0.6-3.2,2-3.6,3.7c-1.4-1.4-3.7-1.8-5.7-0.9c-1.5,0.7-2.5,1.9-2.8,3.3
			c-1.4-0.5-2.9-0.4-4.4,0.2c-2.2,1-3.5,3.1-3.3,5.2c-0.2-0.2-0.3-0.3-0.5-0.4c-2.2-1.8-5.7-1.6-7.8,0.5c-0.9,0.9-1.4,1.9-1.5,3
			c-1.9-0.4-4,0.2-5.4,1.6c-2.1,2.1-2.1,5.3,0.1,7.1c1.6,1.3,6.7,3.9,10.1,4.4l0.1,0.3c-1.4,3.2-1.8,8.6-1.5,10.7
			c0.5,2.9,3.5,4.7,6.6,4.1c2.1-0.4,3.7-1.8,4.5-3.5c0.9,0.2,1.9,0.3,2.8,0.1c3.2-0.6,5.3-3.4,4.8-6.3c0-0.2-0.1-0.4-0.1-0.6
			c1.3,0.8,3.2,1,4.8,0.3c2-0.9,3.1-2.7,2.9-4.5c1.6,1.2,4,1.2,5.9,0c1-0.6,1.6-1.5,1.9-2.5c1.4,0.4,3,0.3,4.4-0.6
			c1.3-0.8,2.1-2,2.3-3.2c1.2,0.2,2.4,0,3.5-0.7c0.7-0.4,1.3-1,1.6-1.7c1.2,0.5,2.6,0.4,3.9-0.2c0.8-0.4,1.5-1.1,1.9-1.8
			c0.9,0.4,2,0.4,3.1-0.1c1.7-0.7,2.6-2.4,2.2-3.9c0.2,0.3,0.4,0.6,0.6,0.8c1.1,1.2,3.1,1.4,4.5,0.3c0.8-0.6,1.2-1.5,1.2-2.4
			c0.8,0.4,1.8,0.4,2.6-0.2c0.5-0.4,0.8-0.9,0.8-1.4c0.6,0.4,1.6,0.4,2.2-0.1c0.8-0.6,0.9-1.6,0.3-2.3c-0.1-0.1-0.3-0.3-0.5-0.5
			l0.1-0.1c1,0.3,2,0.4,2.6,0.4c1.1,0,2-0.9,2-1.9c0-1-0.9-1.8-2-1.8c-0.3,0-0.9,0.1-1.4,0.2c0.8-0.6,1-1.7,0.4-2.5
			c-0.6-0.8-1.9-0.9-2.8-0.3c-0.2,0.1-0.4,0.3-0.6,0.5c-0.2-0.1-0.3-0.2-0.5-0.2c0.1-0.8-0.2-1.7-1-2.1c-0.8-0.5-1.9-0.4-2.6,0.1
			C1074.5,40.7,1074,39.7,1072.9,39.2z"/>
		<g>
			<path fill="#078E45" d="M1016.4,67.9c0,0,0.2-0.2,0.6-0.6c0.4-0.4,1-0.9,1.8-1.6c0.8-0.7,1.7-1.4,2.8-2.3
				c1.1-0.8,2.4-1.8,3.9-2.7c0.7-0.5,1.5-1,2.3-1.5c0.8-0.5,1.6-1,2.5-1.5c1.7-1,3.6-2,5.5-2.9c1-0.5,2-0.9,3-1.4
				c1-0.4,2-0.9,3.1-1.3c2.1-0.8,4.3-1.7,6.5-2.3c1.1-0.3,2.2-0.7,3.3-1c1.1-0.4,2.2-0.6,3.4-0.8c1.1-0.3,2.2-0.5,3.3-0.7
				c1.1-0.2,2.2-0.4,3.3-0.5c1.1-0.2,2.1-0.3,3.2-0.5c1-0.1,2.1-0.1,3.1-0.2c1-0.1,2-0.1,2.9-0.2c0.9-0.1,1.9,0,2.7,0
				c1.7,0.1,3.3,0.1,4.7,0.2c1.4,0.2,2.6,0.4,3.6,0.6c2,0.3,3.1,0.6,3.1,0.6s-1.2,0.2-3.2,0.4c-1,0.1-2.2,0.2-3.6,0.3
				c-1.4,0.2-2.9,0.5-4.6,0.7c-1.7,0.2-3.5,0.6-5.4,0.9c-0.9,0.2-1.9,0.3-2.9,0.5c-1,0.2-2,0.5-3,0.7c-1,0.2-2.1,0.5-3.1,0.7
				c-1,0.3-2.1,0.6-3.1,0.9c-1.1,0.3-2.1,0.5-3.2,0.9c-1.1,0.3-2.1,0.7-3.2,1l-1.6,0.5l-1.6,0.6c-1.1,0.4-2.1,0.7-3.1,1.1
				c-2.1,0.8-4.1,1.5-6.1,2.3c-1.9,0.8-3.9,1.5-5.6,2.3c-1.8,0.7-3.5,1.5-5,2.2c-1.6,0.7-3,1.3-4.2,1.9c-1.3,0.6-2.4,1.1-3.3,1.5
				C1017.5,67.4,1016.4,67.9,1016.4,67.9z"/>
		</g>
	</g>
	<g>
		<path fill="#349946" d="M928.7,107.3c-0.3-1.8,1.8-3.4,4.6-3.6c0.4,0,0.9,0,1.5,0c-0.6-0.6-0.9-1.4-0.8-2.2
			c0.4-1.8,2.9-3.1,5.7-2.8c0,0,0.1,0,0.1,0c-2.7-0.9-4.1-2.9-3.1-4.8c1.1-2,4.4-3,7.6-2.3c-1.4-1.3-1.6-3-0.3-4.4
			c1.6-1.8,5.1-2.4,8-1.5c-1.6-1.7-1.4-3.8,0.8-5.3c1.9-1.3,4.6-1.6,7.1-1c-1.1-1.8-0.3-3.8,2.1-5c1.8-0.9,4.1-1.1,6.1-0.7
			c0.2-1.3,1.2-2.5,2.9-3.4c2.6-1.3,6.2-1.3,8.8-0.1c-0.1-0.2-0.2-0.4-0.3-0.6c-1.2-2.6,1.2-5.3,5.2-6c1.7-0.3,3.4-0.2,4.9,0.2
			c0.6-1.7,2.6-3.1,5.3-3.6c4-0.7,8.3,0.9,9.4,3.5c0.9,1.9,1.3,7.2-0.1,10.2l0.3,0.2c5.1,0.4,12.6,2.7,15.1,4c3.5,1.8,4.2,5,1.5,7.3
			c-1.8,1.5-4.5,2.1-7.2,1.9c-0.2,0.8-0.7,1.6-1.5,2.3c-2.7,2.2-7.7,2.6-11.2,0.8c-0.2-0.1-0.5-0.3-0.8-0.4c0.3,1.5-0.6,3-2.5,4
			c-2.3,1.2-5.4,1.2-7.8,0.2c0.6,1.9-0.7,3.8-3.5,4.7c-1.4,0.5-3,0.6-4.5,0.3c-0.2,1.3-1.4,2.5-3.3,3.2c-1.8,0.6-3.8,0.7-5.6,0.3
			c-0.4,1-1.4,2-3,2.5c-1,0.4-2.1,0.5-3.2,0.5c-0.1,1.2-1,2.3-2.6,3c-1.1,0.5-2.3,0.7-3.5,0.6c-0.1,0.9-0.7,1.8-1.9,2.4
			c-1.9,1-4.7,0.9-6.5-0.1c0.3,0.3,0.6,0.6,0.7,0.8c1,1.5,0,3.1-2.2,3.7c-1.3,0.4-2.8,0.3-3.9-0.2c0.1,0.8-0.5,1.6-1.8,2
			c-0.8,0.2-1.6,0.2-2.3,0c0.2,0.7-0.4,1.4-1.4,1.7c-1.3,0.3-2.7,0-3.3-0.9c-0.1-0.2-0.2-0.4-0.3-0.7l-0.2,0.1
			c-0.2,0.9-0.6,1.8-1,2.3c-0.7,0.9-2.4,1.2-3.7,0.7c-1.4-0.5-1.9-1.6-1.2-2.4c0.2-0.3,0.6-0.6,1.2-1c-1.3,0.3-2.9,0-3.5-0.9
			c-0.7-0.9-0.1-2,1.2-2.4c0.2-0.1,0.6-0.2,1-0.2c-0.1-0.2-0.1-0.3,0-0.5c-1.2-0.3-2.1-1-2.2-1.8c-0.1-0.9,0.6-1.7,1.7-2.1
			C929.8,109.3,928.8,108.4,928.7,107.3z"/>
		<g>
			<path fill="#078E45" d="M1005.6,72.8c0,0-1.3,0.6-3.5,1.6c-1.1,0.5-2.5,1.1-4,1.8c-1.5,0.7-3.3,1.5-5.1,2.4
				c-1.9,0.9-3.9,1.9-6,2.9c-2.1,1-4.3,2.2-6.7,3.4c-2.3,1.2-4.6,2.5-7,3.8c-2.4,1.3-4.7,2.7-7.1,4.1c-2.4,1.4-4.7,2.9-6.9,4.4
				c-1.1,0.8-2.2,1.5-3.3,2.3c-1.1,0.8-2.1,1.5-3.2,2.3c-2,1.5-4,3-5.8,4.6c-1.8,1.5-3.5,3-5,4.4c-0.7,0.7-1.4,1.4-2.1,2.1
				c-0.7,0.7-1.3,1.3-1.9,1.9c-0.6,0.6-1.1,1.2-1.6,1.7c-0.5,0.5-0.9,1.1-1.3,1.5c-1.5,1.9-2.4,3-2.4,3s0.1-0.3,0.4-0.9
				c0.3-0.6,0.7-1.5,1.2-2.6c0.6-1.1,1.3-2.4,2.3-3.8c0.5-0.7,1-1.5,1.5-2.3c0.6-0.8,1.2-1.6,1.9-2.4c0.7-0.8,1.4-1.7,2.1-2.6
				c0.7-0.9,1.6-1.7,2.4-2.6c1.7-1.7,3.6-3.5,5.6-5.2c2-1.7,4.2-3.4,6.5-5c2.3-1.6,4.7-3.2,7.1-4.6c2.4-1.4,4.9-2.8,7.4-4.1
				c2.5-1.3,4.9-2.4,7.4-3.5c2.4-1.1,4.8-2,7.1-2.8c2.3-0.9,4.4-1.6,6.4-2.2c4-1.3,7.4-2.1,9.8-2.6
				C1004.2,73,1005.6,72.8,1005.6,72.8z"/>
		</g>
	</g>
	<g>
		<path fill="#349946" d="M966.8,28.7c1.4-0.6,3.2,0.2,4,1.9c0.1,0.2,0.2,0.5,0.4,0.9c0.3-0.5,0.9-0.9,1.6-1.1
			c1.5-0.3,3.2,1,3.7,2.7c0,0,0,0,0,0.1c0-1.9,1.2-3.2,3-3.1c1.9,0.1,3.6,1.9,3.8,3.9c0.6-1.2,1.9-1.7,3.4-1.3
			c1.9,0.5,3.3,2.5,3.3,4.4c0.9-1.4,2.7-1.8,4.4-0.9c1.5,0.8,2.5,2.4,2.7,4c1.1-1.1,2.9-1.2,4.5,0c1.2,0.8,1.9,2.2,2.1,3.5
			c1.1-0.2,2.3,0,3.5,0.9c1.7,1.2,2.6,3.4,2.4,5.3c0.1-0.1,0.3-0.3,0.4-0.3c1.8-1.4,4.5-0.7,6.1,1.6c0.7,0.9,1,2,1.1,3
			c1.5-0.1,3.1,0.7,4.2,2.3c1.6,2.3,1.5,5.2-0.3,6.6c-1.3,1-5.4,2.7-8.1,2.6l-0.1,0.2c1,3.2,1.1,8.3,0.8,10.1
			c-0.5,2.6-2.9,3.8-5.4,2.8c-1.6-0.7-2.9-2.2-3.4-3.9c-0.7,0.1-1.5,0-2.2-0.3c-2.5-1-4.1-4-3.6-6.5c0-0.2,0.1-0.4,0.1-0.6
			c-1.1,0.6-2.5,0.5-3.8-0.5c-1.5-1.1-2.3-3-2.2-4.7c-1.3,0.9-3.2,0.6-4.6-0.9c-0.7-0.7-1.2-1.7-1.4-2.6c-1.1,0.2-2.4-0.2-3.4-1.2
			c-1-0.9-1.6-2.1-1.7-3.3c-0.9,0-1.9-0.3-2.8-1.1c-0.6-0.5-1-1.1-1.2-1.8c-1,0.3-2.1,0-3.1-0.8c-0.7-0.5-1.1-1.2-1.4-2
			c-0.7,0.2-1.6,0.1-2.4-0.5c-1.3-0.9-1.9-2.6-1.6-4c-0.2,0.3-0.3,0.5-0.5,0.7c-0.9,1-2.5,0.8-3.5-0.4c-0.6-0.7-0.9-1.6-0.9-2.4
			c-0.6,0.3-1.4,0.1-2-0.5c-0.4-0.4-0.6-0.9-0.6-1.4c-0.5,0.3-1.2,0.2-1.8-0.4c-0.6-0.7-0.7-1.7-0.2-2.2c0.1-0.1,0.3-0.2,0.4-0.4
			l-0.1-0.1c-0.8,0.1-1.6,0.1-2,0c-0.9-0.2-1.6-1.1-1.5-2.1c0-0.9,0.7-1.5,1.6-1.3c0.3,0.1,0.7,0.2,1.1,0.4
			c-0.6-0.7-0.7-1.7-0.2-2.4c0.5-0.6,1.5-0.6,2.2,0.1c0.1,0.1,0.3,0.3,0.4,0.5c0.1-0.1,0.3-0.1,0.4-0.2c-0.1-0.8,0.2-1.5,0.9-1.8
			c0.7-0.3,1.5-0.1,2.1,0.5C965.5,29.9,966,29.1,966.8,28.7z"/>
		<g>
			<path fill="#078E45" d="M1014.4,66.1c0,0-0.9-0.6-2.3-1.7c-1.5-1.1-3.6-2.6-6.1-4.4c-1.3-0.9-2.6-1.9-4.1-2.8
				c-0.7-0.5-1.5-1-2.2-1.5c-0.8-0.5-1.6-1-2.4-1.6c-1.6-1.1-3.3-2.1-5-3.2c-1.7-1-3.4-2.1-5.2-3.1c-0.9-0.5-1.8-1-2.7-1.5l-1.3-0.8
				c-0.4-0.2-0.9-0.5-1.3-0.7c-1.8-0.9-3.5-1.9-5.2-2.6c-1.7-0.8-3.4-1.7-5-2.3c-0.8-0.3-1.6-0.7-2.4-1c-0.4-0.2-0.8-0.3-1.1-0.5
				c-0.4-0.1-0.7-0.3-1.1-0.4c-1.5-0.5-2.8-1-4-1.4c-1.2-0.4-2.3-0.6-3.1-0.9c-1.8-0.5-2.8-0.9-2.8-0.9s1-0.1,2.9-0.1
				c0.9,0,2.1,0,3.4,0.1c1.3,0.1,2.7,0.3,4.3,0.6c0.4,0.1,0.8,0.1,1.2,0.2c0.4,0.1,0.8,0.2,1.2,0.3c0.8,0.2,1.7,0.4,2.6,0.6
				c1.8,0.4,3.6,1.1,5.5,1.8c1.9,0.6,3.8,1.5,5.7,2.4c1,0.4,1.9,0.9,2.8,1.4c0.9,0.5,1.9,1,2.8,1.5c1.8,1.1,3.6,2.2,5.3,3.4
				c0.9,0.6,1.7,1.2,2.5,1.8c0.4,0.3,0.8,0.6,1.2,0.9c0.4,0.3,0.8,0.6,1.2,0.9c1.6,1.2,3,2.5,4.3,3.7c1.4,1.2,2.6,2.4,3.7,3.6
				c1.1,1.1,2.1,2.2,2.9,3.2c0.8,1,1.5,1.8,2.1,2.6C1013.9,65.2,1014.4,66.1,1014.4,66.1z"/>
		</g>
	</g>
	<g>
		<path fill="#349946" d="M941.9,54.8c0.9-1.1,3-1,4.6,0.2c0.2,0.2,0.5,0.4,0.8,0.7c0-0.6,0.3-1.2,0.9-1.5c1.3-0.8,3.4-0.3,4.7,1.1
			c0,0,0,0,0,0c-0.9-1.7-0.4-3.4,1.2-3.9c1.7-0.6,4.1,0.4,5.4,2.2c0-1.3,0.9-2.3,2.4-2.5c1.9-0.2,4.2,1,5.2,2.8
			c0.1-1.6,1.6-2.7,3.5-2.5c1.7,0.2,3.4,1.2,4.4,2.6c0.5-1.4,2.1-2.2,4.1-1.7c1.5,0.3,2.8,1.3,3.6,2.4c0.9-0.6,2.1-0.8,3.5-0.5
			c2.2,0.5,4,2.1,4.8,3.9c0.1-0.2,0.1-0.3,0.2-0.5c0.9-1.9,3.8-2.3,6.3-0.8c1.1,0.6,1.9,1.4,2.5,2.3c1.3-0.6,3.2-0.5,4.9,0.5
			c2.6,1.5,3.9,4.2,2.9,6.1c-0.7,1.4-3.6,4.4-6.1,5.3l0,0.2c2.4,2.5,5.1,7.1,5.6,8.9c0.8,2.5-0.8,4.6-3.5,4.5c-1.8,0-3.7-0.9-5-2.3
			c-0.6,0.3-1.3,0.5-2.2,0.5c-2.7,0-5.6-2.1-6.4-4.6c-0.1-0.2-0.1-0.4-0.2-0.6c-0.7,0.9-2.1,1.3-3.7,1c-1.9-0.4-3.6-1.8-4.2-3.4
			c-0.8,1.3-2.6,1.7-4.6,0.9c-1-0.4-1.9-1-2.6-1.8c-0.9,0.6-2.2,0.7-3.7,0.2c-1.3-0.5-2.4-1.4-3.1-2.4c-0.8,0.4-1.9,0.4-3.1,0
			c-0.8-0.3-1.4-0.7-2-1.2c-0.7,0.6-1.9,0.8-3.1,0.4c-0.8-0.2-1.6-0.7-2.2-1.3c-0.6,0.5-1.4,0.7-2.4,0.4c-1.6-0.4-3-1.6-3.4-3
			c0,0.3-0.1,0.6-0.1,0.8c-0.3,1.2-1.9,1.7-3.4,1c-0.9-0.4-1.6-1.1-2-1.9c-0.4,0.5-1.2,0.6-2.1,0.2c-0.5-0.2-1-0.6-1.2-1
			c-0.3,0.5-1,0.6-1.8,0.3c-0.9-0.4-1.4-1.2-1.2-1.9c0-0.1,0.1-0.3,0.2-0.5l-0.1,0c-0.7,0.4-1.4,0.7-1.9,0.8c-0.9,0.1-2-0.4-2.4-1.3
			c-0.4-0.9-0.1-1.7,0.8-1.8c0.3,0,0.7,0,1.2,0c-0.9-0.4-1.5-1.3-1.3-2.1c0.2-0.8,1.1-1.1,2.1-0.7c0.2,0.1,0.4,0.2,0.7,0.3
			c0.1-0.1,0.2-0.2,0.3-0.3c-0.5-0.7-0.5-1.5-0.1-2c0.5-0.5,1.3-0.6,2.1-0.3C941.3,56.4,941.3,55.5,941.9,54.8z"/>
		<g>
			<path fill="#078E45" d="M1003.2,71.1c0,0-4.2-0.9-10.5-2.3c-1.6-0.3-3.3-0.7-5.1-1c-0.9-0.2-1.8-0.4-2.8-0.6
				c-0.9-0.2-1.9-0.4-2.9-0.5c-1.9-0.4-4-0.7-6-1.1c-2-0.3-4.1-0.6-6.2-1c-2.1-0.2-4.2-0.5-6.2-0.7c-2.1-0.1-4.1-0.5-6-0.5
				c-1-0.1-2-0.1-2.9-0.2c-0.5,0-0.9-0.1-1.4-0.1c-0.5,0-0.9,0-1.4,0c-0.9,0-1.8,0-2.6,0c-0.9,0-1.7-0.1-2.5,0
				c-1.6,0.1-3,0.1-4.3,0.2c-0.7,0-1.2,0.1-1.8,0.2c-0.6,0.1-1.1,0.1-1.5,0.2c-1.9,0.2-3,0.2-3,0.2s1-0.5,2.8-1.2
				c0.9-0.3,2-0.8,3.2-1.2c1.3-0.3,2.7-0.7,4.4-1.1c1.6-0.4,3.4-0.6,5.3-0.8c0.5-0.1,0.9-0.1,1.4-0.2c0.5,0,1-0.1,1.5-0.1
				c1,0,2-0.1,3-0.1c0.5,0,1-0.1,1.6,0c0.5,0,1,0,1.6,0c1.1,0,2.1,0.1,3.2,0.1c2.2,0.1,4.3,0.4,6.5,0.6c2.2,0.4,4.3,0.7,6.4,1.1
				c2.1,0.5,4.2,0.9,6.1,1.5c1,0.3,1.9,0.6,2.9,0.8c0.9,0.3,1.8,0.6,2.7,0.9c1.8,0.6,3.4,1.3,4.9,1.9c3,1.2,5.5,2.4,7.1,3.4
				C1002.3,70.5,1003.2,71.1,1003.2,71.1z"/>
		</g>
	</g>
	<g>
		<path fill="#349946" d="M965.3,126.2c-1-1.4-0.1-3.3,2.1-4.3c0.3-0.1,0.7-0.3,1.2-0.5c-0.8-0.3-1.4-0.8-1.6-1.5
			c-0.5-1.5,1-3.4,3.3-4.1c0,0,0,0,0.1,0c-2.5,0.2-4.5-1-4.5-2.8c0-1.9,2.2-3.8,5-4.3c-1.6-0.5-2.5-1.8-2.1-3.3c0.5-2,3-3.6,5.7-3.8
			c-2-0.8-2.7-2.6-1.7-4.4c0.9-1.6,3-2.8,5.1-3.1c-1.6-1-1.9-2.9-0.5-4.6c1-1.3,2.8-2.2,4.5-2.5c-0.4-1.1-0.2-2.4,0.8-3.6
			c1.5-1.9,4.3-3,6.9-3c-0.2-0.1-0.4-0.3-0.5-0.4c-2-1.7-1.4-4.6,1.5-6.5c1.2-0.8,2.6-1.2,3.9-1.4c-0.2-1.5,0.7-3.3,2.7-4.5
			c2.9-1.9,6.9-2,9-0.3c1.5,1.2,4.1,5.3,4.3,8.1l0.3,0.1c4.2-1.3,11.1-2,13.6-1.8c3.5,0.3,5.5,2.6,4.3,5.2c-0.8,1.7-2.7,3.2-4.9,3.9
			c0.2,0.7,0.1,1.5-0.2,2.3c-1.2,2.6-5,4.6-8.5,4.3c-0.2,0-0.5,0-0.8-0.1c0.9,1.1,0.9,2.5-0.3,3.9c-1.3,1.7-3.8,2.7-6.1,2.7
			c1.3,1.3,1.1,3.3-0.7,4.8c-0.9,0.8-2.1,1.4-3.4,1.7c0.4,1.1,0,2.5-1.2,3.6c-1.1,1.1-2.7,1.8-4.3,2c0.1,0.9-0.3,2-1.3,2.9
			c-0.6,0.6-1.5,1.1-2.3,1.4c0.5,1,0.2,2.1-0.7,3.2c-0.7,0.7-1.6,1.3-2.5,1.6c0.4,0.7,0.2,1.7-0.5,2.5c-1.1,1.4-3.3,2.2-5.2,2
			c0.4,0.2,0.7,0.3,0.9,0.4c1.4,0.8,1.3,2.5-0.2,3.7c-0.9,0.7-2.1,1.1-3.2,1.1c0.5,0.6,0.3,1.5-0.5,2.1c-0.5,0.4-1.2,0.7-1.8,0.8
			c0.5,0.5,0.3,1.3-0.4,1.8c-0.8,0.7-2.2,0.9-3,0.4c-0.2-0.1-0.3-0.2-0.5-0.4l-0.1,0.1c0.2,0.8,0.3,1.7,0.2,2.1
			c-0.2,0.9-1.4,1.7-2.6,1.8c-1.3,0.1-2.2-0.6-2-1.5c0.1-0.3,0.2-0.7,0.5-1.2c-0.9,0.7-2.3,0.9-3.2,0.4c-0.9-0.5-0.9-1.5,0-2.3
			c0.2-0.1,0.4-0.3,0.7-0.5c-0.1-0.1-0.2-0.2-0.3-0.4c-1.1,0.2-2.1-0.1-2.5-0.7c-0.5-0.7-0.3-1.5,0.5-2.2
			C967,127.4,965.9,127,965.3,126.2z"/>
		<g>
			<path fill="#078E45" d="M1011.2,73.8c0,0-0.8,0.9-2.1,2.4c-1.3,1.6-3.1,3.8-5.3,6.4c-2.2,2.7-4.7,5.8-7.3,9.2
				c-1.3,1.7-2.6,3.5-3.9,5.3c-1.3,1.8-2.6,3.7-3.8,5.6c-1.3,1.9-2.4,3.8-3.6,5.7c-0.6,1-1.1,1.9-1.6,2.9c-0.5,1-1,1.9-1.5,2.8
				c-1,1.9-1.9,3.7-2.6,5.5c-0.8,1.8-1.5,3.5-2.1,5.1c-0.3,0.8-0.5,1.6-0.8,2.3c-0.2,0.7-0.4,1.4-0.6,2.1c-0.4,1.3-0.7,2.5-0.9,3.5
				c-0.4,2-0.7,3.1-0.7,3.1s0-0.3-0.1-0.8c0-0.5-0.1-1.3-0.2-2.4c0-1-0.1-2.3,0.1-3.7c0.1-0.7,0.1-1.5,0.2-2.3
				c0.1-0.8,0.3-1.6,0.4-2.5c0.3-1.7,0.7-3.6,1.3-5.6c0.6-2,1.3-4,2.2-6c0.9-2.1,1.9-4.1,3-6.2c1.1-2,2.3-4.1,3.6-6
				c1.3-2,2.7-3.9,4.1-5.7c1.4-1.8,2.9-3.6,4.3-5.2c1.5-1.6,2.9-3.2,4.4-4.6c1.4-1.4,2.8-2.7,4.2-3.8c2.6-2.3,5-4.1,6.7-5.2
				C1010.2,74.4,1011.2,73.8,1011.2,73.8z"/>
		</g>
	</g>
</g>
<g>
	<g>
		<defs>
			<polygon id="XMLID_39_" points="773.4,173.9 778,161.3 787.7,157.8 794.4,161.7 798.5,166.8 799.9,168.7 801.4,170.6 
				800.2,174.8 787.2,177.4 			"/>
		</defs>
		<use xlink:href="#XMLID_39_"  overflow="visible" fill="#989898"/>
		<clipPath id="XMLID_46_">
			<use xlink:href="#XMLID_39_"  overflow="visible"/>
		</clipPath>
	</g>
	<path fill="#989898" d="M786.2,164"/>
	<polygon fill="#CCCBCB" points="778,161.3 779.4,168.7 784.8,170 786.7,164.9 793.4,167.3 794.4,161.7 787.7,157.8 	"/>
</g>
<g>
	<g>
		<defs>
			<polygon id="XMLID_38_" points="1110,61.8 1114.6,49.2 1124.3,45.7 1131,49.6 1135.1,54.7 1136.5,56.6 1138,58.5 1136.8,62.7 
				1123.8,65.3 			"/>
		</defs>
		<use xlink:href="#XMLID_38_"  overflow="visible" fill="#989898"/>
		<clipPath id="XMLID_47_">
			<use xlink:href="#XMLID_38_"  overflow="visible"/>
		</clipPath>
	</g>
	<path fill="#989898" d="M1122.8,51.9"/>
	<polygon fill="#CCCBCB" points="1114.6,49.2 1116,56.6 1121.4,57.9 1123.3,52.8 1130,55.2 1131,49.6 1124.3,45.7 	"/>
</g>
<g>
	<g>
		<defs>
			<polygon id="XMLID_37_" points="371.4,71.8 373.9,62.7 381.4,60 386.6,63.1 389.8,67 390.9,68.5 390.1,70 388.2,72.8 379.6,73.3 
							"/>
		</defs>
		<use xlink:href="#XMLID_37_"  overflow="visible" fill="#989898"/>
		<clipPath id="XMLID_48_">
			<use xlink:href="#XMLID_37_"  overflow="visible"/>
		</clipPath>
	</g>
	<path fill="#989898" d="M380.3,64.9"/>
	<polygon fill="#CCCBCB" points="373.9,62.7 375.8,67.1 379.4,66.8 383.3,69.2 385.8,67.4 386.6,63.1 381.4,60 	"/>
</g>
<g>
	<g>
		<defs>
			<polygon id="XMLID_36_" points="560.2,173.3 564.1,159.5 575.6,155.3 583.6,160 588.4,166 590.1,168.3 588.8,170.5 585.9,174.9 
				572.7,175.6 			"/>
		</defs>
		<use xlink:href="#XMLID_36_"  overflow="visible" fill="#989898"/>
		<clipPath id="XMLID_49_">
			<use xlink:href="#XMLID_36_"  overflow="visible"/>
		</clipPath>
	</g>
	<path fill="#989898" d="M573.9,162.7"/>
	<polygon fill="#CCCBCB" points="564.1,159.5 567,166.1 572.5,165.7 578.5,169.3 582.3,166.6 583.6,160 575.6,155.3 	"/>
</g>
<g>
	<g>
		<defs>
			<polygon id="XMLID_35_" points="0,99.8 3.9,86 15.4,81.8 23.3,86.5 28.1,92.6 29.9,94.8 28.6,97.1 25.7,101.4 12.5,102.1 			"/>
		</defs>
		<use xlink:href="#XMLID_35_"  overflow="visible" fill="#989898"/>
		<clipPath id="XMLID_50_">
			<use xlink:href="#XMLID_35_"  overflow="visible"/>
		</clipPath>
	</g>
	<path fill="#989898" d="M13.6,89.3"/>
	<polygon fill="#CCCBCB" points="3.9,86 6.7,92.6 12.3,92.3 18.3,95.9 22.1,93.1 23.3,86.5 15.4,81.8 	"/>
</g>
<g>
	<g>
		<defs>
			<polygon id="XMLID_34_" points="1021.9,151.4 1025.8,137.6 1037.2,133.4 1045.2,138.1 1050,144.2 1051.8,146.4 1050.5,148.7 
				1047.6,153 1034.4,153.7 			"/>
		</defs>
		<use xlink:href="#XMLID_34_"  overflow="visible" fill="#989898"/>
		<clipPath id="XMLID_51_">
			<use xlink:href="#XMLID_34_"  overflow="visible"/>
		</clipPath>
	</g>
	<path fill="#989898" d="M1035.5,140.9"/>
	<polygon fill="#CCCBCB" points="1025.8,137.6 1028.6,144.2 1034.1,143.9 1040.2,147.5 1044,144.7 1045.2,138.1 1037.2,133.4 	"/>
</g>
<g>
	<g>
		<defs>
			<polygon id="XMLID_33_" points="130.9,125.6 135.3,109.9 148.3,105.2 157.3,110.5 162.7,117.4 164.7,119.9 163.3,122.5 
				160,127.4 145,128.2 			"/>
		</defs>
		<use xlink:href="#XMLID_33_"  overflow="visible" fill="#989898"/>
		<clipPath id="XMLID_52_">
			<use xlink:href="#XMLID_33_"  overflow="visible"/>
		</clipPath>
	</g>
	<path fill="#989898" d="M146.3,113.6"/>
	<polygon fill="#CCCBCB" points="135.3,109.9 138.5,117.4 144.8,117 151.6,121.1 155.9,118 157.3,110.5 148.3,105.2 	"/>
</g>
<g>
	<g>
		<defs>
			<polygon id="XMLID_32_" points="397.4,58.1 398.6,53.8 402.1,52.5 404.6,53.9 406.1,55.8 406.6,56.5 406.2,57.2 405.3,58.5 
				401.2,58.8 			"/>
		</defs>
		<use xlink:href="#XMLID_32_"  overflow="visible" fill="#989898"/>
		<clipPath id="XMLID_53_">
			<use xlink:href="#XMLID_32_"  overflow="visible"/>
		</clipPath>
	</g>
	<path fill="#989898" d="M401.6,54.8"/>
	<polygon fill="#CCCBCB" points="398.6,53.8 399.5,55.8 401.2,55.7 403,56.8 404.2,56 404.6,53.9 402.1,52.5 	"/>
</g>
<g>
	<g>
		<defs>
			<polygon id="XMLID_31_" points="773.5,54.8 774.7,50.5 778.2,49.2 780.7,50.7 782.2,52.5 782.7,53.2 782.3,53.9 781.4,55.3 
				777.3,55.5 			"/>
		</defs>
		<use xlink:href="#XMLID_31_"  overflow="visible" fill="#989898"/>
		<clipPath id="XMLID_54_">
			<use xlink:href="#XMLID_31_"  overflow="visible"/>
		</clipPath>
	</g>
	<path fill="#989898" d="M777.7,51.5"/>
	<polygon fill="#CCCBCB" points="774.7,50.5 775.6,52.6 777.3,52.5 779.1,53.6 780.3,52.7 780.7,50.7 778.2,49.2 	"/>
</g>
<g>
	<g>
		<defs>
			<polygon id="XMLID_30_" points="820.5,191.3 825.9,176.5 846.1,171.9 853.9,176.5 858.7,182.5 860.4,184.7 862.1,186.9 
				860.7,191.8 845.6,194.9 			"/>
		</defs>
		<use xlink:href="#XMLID_30_"  overflow="visible" fill="#989898"/>
		<clipPath id="XMLID_55_">
			<use xlink:href="#XMLID_30_"  overflow="visible"/>
		</clipPath>
	</g>
	<path fill="#989898" d="M844.4,179.3"/>
	<polygon fill="#CCCBCB" points="825.9,176.5 829.7,180.9 835.9,179.3 844.9,180.2 849.2,179.3 853.9,176.5 846.1,171.9 	"/>
</g>
<g>
	<g>
		<defs>
			<polygon id="XMLID_29_" points="500.7,138.5 495.4,125.9 480.6,122.5 474.8,125.9 471.2,130.3 470,132 468.7,133.6 469.8,137.2 
				484.7,142.7 			"/>
		</defs>
		<use xlink:href="#XMLID_29_"  overflow="visible" fill="#989898"/>
		<clipPath id="XMLID_56_">
			<use xlink:href="#XMLID_29_"  overflow="visible"/>
		</clipPath>
	</g>
	<path fill="#989898" d="M481.8,127.9"/>
	<polygon fill="#CCCBCB" points="495.4,125.9 492.7,129.2 487.6,134.1 481.4,128.6 478.3,127.9 474.8,125.9 480.6,122.5 	"/>
</g>
<g>
	<g>
		<defs>
			<polygon id="XMLID_22_" points="886.6,172.3 879.4,173.6 874.3,171.3 876.2,164.9 882.2,161.6 887.4,164.7 889.3,168.5 			"/>
		</defs>
		<use xlink:href="#XMLID_22_"  overflow="visible" fill="#989898"/>
		<clipPath id="XMLID_57_">
			<use xlink:href="#XMLID_22_"  overflow="visible"/>
		</clipPath>
	</g>
	<polygon fill="#CCCBCB" points="876.2,164.9 881.8,165.4 887.4,164.7 882.2,161.6 	"/>
</g>
<g>
	<g>
		<defs>
			<polygon id="XMLID_19_" points="1153.7,137.8 1146.5,139.1 1141.4,136.8 1143.3,130.5 1149.2,127.2 1154.4,130.2 1156.4,134.1 
							"/>
		</defs>
		<use xlink:href="#XMLID_19_"  overflow="visible" fill="#989898"/>
		<clipPath id="XMLID_58_">
			<use xlink:href="#XMLID_19_"  overflow="visible"/>
		</clipPath>
	</g>
	<polygon fill="#CCCBCB" points="1143.3,130.5 1148.9,130.9 1154.4,130.2 1149.2,127.2 	"/>
</g>
<g>
	<g>
		<defs>
			<polygon id="XMLID_16_" points="558.3,185 552,186.2 547.6,184.2 549.2,178.6 554.4,175.7 559,178.4 560.6,181.7 			"/>
		</defs>
		<use xlink:href="#XMLID_16_"  overflow="visible" fill="#989898"/>
		<clipPath id="XMLID_59_">
			<use xlink:href="#XMLID_16_"  overflow="visible"/>
		</clipPath>
	</g>
	<polygon fill="#CCCBCB" points="549.2,178.6 554.1,179 559,178.4 554.4,175.7 	"/>
</g>
<g>
	<g>
		<defs>
			<polygon id="XMLID_15_" points="51.4,169.5 45.2,170.7 40.7,168.7 42.4,163.1 47.6,160.2 52.1,162.9 53.8,166.2 			"/>
		</defs>
		<use xlink:href="#XMLID_15_"  overflow="visible" fill="#989898"/>
		<clipPath id="XMLID_60_">
			<use xlink:href="#XMLID_15_"  overflow="visible"/>
		</clipPath>
	</g>
	<polygon fill="#CCCBCB" points="42.4,163.1 47.3,163.5 52.1,162.9 47.6,160.2 	"/>
</g>
<g>
	<g>
		<defs>
			<polygon id="XMLID_14_" points="272.1,42.6 265.8,43.7 261.3,41.7 263,36.2 268.2,33.3 272.7,35.9 274.4,39.3 			"/>
		</defs>
		<use xlink:href="#XMLID_14_"  overflow="visible" fill="#989898"/>
		<clipPath id="XMLID_61_">
			<use xlink:href="#XMLID_14_"  overflow="visible"/>
		</clipPath>
	</g>
	<polygon fill="#CCCBCB" points="263,36.2 267.9,36.6 272.7,35.9 268.2,33.3 	"/>
</g>
<g>
	<g>
		<defs>
			<polygon id="XMLID_13_" points="907,56.9 900.8,58.1 896.3,56.1 898,50.5 903.2,47.6 907.7,50.3 909.4,53.6 			"/>
		</defs>
		<use xlink:href="#XMLID_13_"  overflow="visible" fill="#989898"/>
		<clipPath id="XMLID_62_">
			<use xlink:href="#XMLID_13_"  overflow="visible"/>
		</clipPath>
	</g>
	<polygon fill="#CCCBCB" points="898,50.5 902.8,50.9 907.7,50.3 903.2,47.6 	"/>
</g>
<g>
	<path fill="#996733" d="M838.9,119.1c0,0-27.8,19.1-25.9,0.9s14-8,16.3-10.8s-26.3,0.8-18.9-10.3s18.4,3.4,20.9-0.7
		c2.6-4.2-25.7-8-20.6-20.1c3.4-8,11.9-12.3,22.6,1.6c0,0-9-31.2,6-29.5c15,1.7,8.5,15.6,5.9,29.4c0,0,15.7-8.5,19.7,0.7
		c4,9.1-5.7,16.1-22.5,17.1c0,0,23.3-3.6,21.2,8.2c-1.6,8.5-12.5,4.9-22.5,3.3c0,0,30.8,2.7,19,14.8S838.9,119.1,838.9,119.1z"/>
	<g>
		<path fill="#663333" d="M839.9,165c0,0-0.1-0.1-0.3-0.2c-0.1-0.1-0.3-0.3-0.4-0.4c-0.1-0.1-0.1-0.2-0.2-0.3l-0.1-0.2l0-0.1
			c-0.1-0.2-0.3-0.5-0.4-0.7c-0.4-1-0.8-2.1-1.1-3.5c-0.6-2.8-1.2-6.7-1.7-11.3c-1-9.3-1.6-21.6-1.6-33.9c0-12.3,0.8-24.6,2.2-33.7
			c0.7-4.6,1.6-8.3,2.3-10.9c0.4-1.3,0.7-2.3,1-3c0.3-0.7,0.4-1,0.4-1s-0.1,0.4-0.3,1.1c-0.2,0.7-0.5,1.7-0.8,3
			c-0.6,2.6-1.2,6.4-1.7,10.9c-0.9,9.1-0.9,21.4-0.2,33.5c0.7,12.2,2.1,24.3,3.6,33.3c0.7,4.5,1.5,8.2,2.2,10.6
			c0.3,1.2,0.7,2.1,0.9,2.4c0.1,0.1,0.1,0.1,0.1,0.1c0,0,0,0,0,0l0-0.1c0,0-0.1-0.1-0.1-0.1c-0.1-0.1-0.1-0.1-0.2-0.2
			c-0.1,0,0,0,0,0l0,0c0,0,0,0,0.1,0.1c0,0,0.1,0,0.1,0l0.1,0.1c1.3,1.1,1.5,2.9,0.4,4.2c-1.1,1.3-2.9,1.5-4.2,0.4
			C840,165.1,840,165.1,839.9,165z"/>
	</g>
	<path fill="#996733" d="M865.8,131.3c0,0,1.5,18.5,8.6,11.4c7.1-7.2-1.5-8.8-1.1-10.8s8.8,11.5,11,4.4c2.2-7-7.9-6.7-7-9.2
		c0.9-2.5,12.4,8.2,15.7,1.8c2.2-4.2,1.1-9.4-8.6-9.1c0,0,16.5-7,10.5-12.9c-6-5.8-9.6,1.8-14.6,7.7c0,0-1.9-9.7-7.2-8.2
		c-5.3,1.5-4.9,8,0.6,15.6c0,0-6.6-11.2-10.9-6.2c-3.1,3.6,2.3,7.1,6.5,10.8c0,0-11.9-12.2-12.9-2.9S865.8,131.3,865.8,131.3z"/>
	<g>
		<path fill="#663333" d="M838.4,149.2c0,0,3.6-2.2,8.9-5.6c2.7-1.7,5.8-3.7,9.1-5.9c1.6-1.1,3.3-2.3,5-3.4c1.7-1.2,3.4-2.4,5.2-3.6
			c1.7-1.2,3.4-2.5,5.1-3.7c1.7-1.2,3.3-2.5,4.8-3.7c0.8-0.6,1.5-1.2,2.3-1.8c0.7-0.6,1.4-1.2,2.1-1.8c0.7-0.6,1.4-1.2,2-1.7
			c0.6-0.6,1.2-1.1,1.8-1.7c0.6-0.5,1.1-1,1.7-1.5c0.5-0.5,1-1,1.4-1.5c0.9-0.9,1.7-1.7,2.3-2.4c1.2-1.4,1.9-2.2,1.9-2.2
			s-0.6,0.8-1.8,2.3c-0.5,0.8-1.3,1.6-2.2,2.5c-0.4,0.5-0.9,1-1.4,1.5c-0.5,0.5-1.1,1-1.6,1.6c-0.6,0.6-1.2,1.1-1.8,1.7
			c-0.6,0.6-1.3,1.2-2,1.8c-0.7,0.6-1.4,1.2-2.1,1.9c-0.7,0.6-1.5,1.3-2.2,1.9c-1.5,1.3-3.1,2.6-4.7,3.9c-1.6,1.3-3.3,2.6-5,3.9
			c-1.7,1.3-3.4,2.6-5,3.8c-1.7,1.2-3.3,2.5-4.9,3.6c-3.2,2.3-6.2,4.5-8.9,6.3c-5.2,3.6-8.8,6-8.8,6L838.4,149.2z"/>
	</g>
	<g>
		<path fill="#996733" d="M823.6,144.4c0,0-4.5,18.3-10.4,10s2.9-8.6,2.8-10.6s-10.7,10.1-11.7,2.7c-1-7.4,8.9-5.4,8.4-8.1
			s-13.7,6.2-16-0.7c-1.6-4.6,0.4-9.5,10-7.8c0,0-15.4-9.6-8.5-14.5c6.9-4.9,9.3,3.3,13.4,10c0,0,3.4-9.4,8.5-7.1
			c5.1,2.3,3.6,8.8-3,15.5c0,0,8.4-10.2,11.9-4.5c2.5,4.1-3.4,6.7-8.2,9.7c0,0,13.8-10.3,13.4-0.9
			C833.7,147.6,823.6,144.4,823.6,144.4z"/>
		<g>
			<path fill="#663333" d="M840.4,162.2c0,0-2.5-2.3-6.2-5.8c-3.7-3.5-8.5-8.3-13.2-13.3c-2.3-2.5-4.6-5-6.7-7.4
				c-0.5-0.6-1-1.2-1.5-1.8c-0.5-0.6-1-1.2-1.4-1.8c-0.5-0.6-0.9-1.1-1.3-1.7c-0.4-0.6-0.8-1.1-1.2-1.6c-0.4-0.5-0.7-1-1.1-1.5
				c-0.3-0.5-0.6-0.9-0.9-1.4c-0.6-0.9-1.1-1.6-1.4-2.3c-0.7-1.3-1.1-2-1.1-2s0.4,0.7,1.2,2c0.4,0.7,0.9,1.4,1.5,2.2
				c0.3,0.4,0.6,0.9,1,1.3c0.4,0.5,0.7,0.9,1.1,1.4c0.4,0.5,0.8,1,1.2,1.5c0.4,0.5,0.9,1.1,1.4,1.6c0.5,0.6,1,1.1,1.5,1.7
				c0.5,0.6,1,1.1,1.6,1.7c2.1,2.3,4.5,4.8,6.9,7.2c4.8,4.8,9.8,9.4,13.6,12.7c3.8,3.4,6.4,5.6,6.4,5.6L840.4,162.2z"/>
		</g>
	</g>
</g>
<g>
	<path fill="#996733" d="M154,53.5c0,0,21.5,14.8,20.1,0.7s-10.9-6.2-12.7-8.4c-1.8-2.2,20.4,0.6,14.6-8c-5.7-8.6-14.3,2.7-16.2-0.6
		s19.9-6.2,15.9-15.6c-2.6-6.2-9.2-9.5-17.6,1.2c0,0,7-24.2-4.7-22.9c-11.7,1.3-6.6,12.1-4.6,22.8c0,0-12.2-6.6-15.3,0.5
		s4.4,12.5,17.4,13.2c0,0-18.1-2.8-16.4,6.3c1.2,6.6,9.7,3.8,17.5,2.6c0,0-23.9,2.1-14.7,11.5S154,53.5,154,53.5z"/>
	<g>
		<path fill="#663333" d="M150.2,85.6c0,0,0.1-0.1,0.1-0.1C150.3,85.6,150.2,85.6,150.2,85.6c-0.1,0.1-0.1,0.1-0.1,0.1
			c0,0,0,0.1,0,0.1C150.1,85.8,150.1,85.8,150.2,85.6c0.1-0.2,0.3-0.8,0.6-1.7c0.5-1.9,1.1-4.7,1.7-8.2c1.2-6.9,2.2-16.4,2.8-25.8
			c0.6-9.4,0.6-18.9-0.1-26c-0.3-3.5-0.8-6.5-1.3-8.5c-0.2-1-0.5-1.8-0.6-2.3c-0.2-0.5-0.3-0.8-0.3-0.8s0.1,0.3,0.3,0.8
			c0.2,0.5,0.5,1.3,0.8,2.3c0.6,2,1.3,4.9,1.8,8.4c1.1,7.1,1.7,16.6,1.7,26.2c0,9.6-0.5,19.1-1.2,26.3c-0.4,3.6-0.8,6.6-1.3,8.8
			c-0.2,1.1-0.5,2-0.8,2.7c-0.1,0.2-0.2,0.4-0.3,0.6c0,0-0.1,0.1-0.1,0.2c-0.1,0.1-0.1,0.1-0.2,0.2c-0.1,0.1-0.2,0.2-0.3,0.3
			c-0.1,0.1-0.2,0.2-0.2,0.2c-1,0.8-2.4,0.7-3.3-0.3S149.2,86.5,150.2,85.6z"/>
	</g>
	<path fill="#996733" d="M142.3,70.5c0,0-4.4,13.7-8.5,7.1c-4.1-6.7,2.7-6.4,2.7-7.9c0-1.5-8.7,7.1-9.1,1.4
		c-0.4-5.7,7.1-3.6,6.9-5.7s-10.8,4-12.2-1.4c-0.9-3.6,0.8-7.3,8.1-5.4c0,0-11.2-8.2-5.7-11.6c5.5-3.4,6.9,3.1,9.7,8.4
		c0,0,3.1-7,6.8-4.9c3.7,2.1,2.3,6.9-3.2,11.7c0,0,7-7.3,9.3-2.8c1.7,3.3-3,5-6.8,7c0,0,11.1-7.1,10.3,0
		C149.9,73.6,142.3,70.5,142.3,70.5z"/>
	<g>
		<path fill="#663333" d="M154.1,78.7c0,0-0.1,0-0.5,0.1c-0.3,0-0.8,0.1-1.3,0c-0.5,0-1.2-0.1-1.9-0.3c-0.3-0.1-0.7-0.2-1.1-0.3
			c-0.4-0.2-0.8-0.3-1.2-0.5c-0.4-0.2-0.8-0.4-1.2-0.6c-0.2-0.1-0.4-0.2-0.6-0.3c-0.2-0.1-0.4-0.3-0.6-0.4c-0.4-0.3-0.8-0.6-1.2-0.9
			c-0.4-0.3-0.8-0.7-1.2-1c-0.4-0.3-0.8-0.7-1.1-1.1c-0.4-0.4-0.7-0.8-1.1-1.2c-0.7-0.8-1.4-1.7-2.1-2.6c-0.6-0.9-1.2-1.9-1.8-2.8
			c-0.6-0.9-1.1-1.9-1.6-2.8c-0.5-0.9-1-1.8-1.4-2.7c-0.4-0.9-0.8-1.7-1.2-2.4c-0.3-0.8-0.6-1.5-0.9-2.1c-0.3-0.6-0.5-1.2-0.7-1.6
			c-0.4-0.9-0.6-1.4-0.6-1.4s0.2,0.5,0.7,1.4c0.2,0.4,0.5,1,0.8,1.6c0.3,0.6,0.6,1.3,1,2c0.4,0.7,0.8,1.5,1.3,2.3
			c0.5,0.8,0.9,1.7,1.5,2.5c0.6,0.9,1.1,1.8,1.7,2.6c0.6,0.9,1.3,1.7,1.9,2.6c0.7,0.8,1.4,1.6,2.1,2.4c0.4,0.4,0.8,0.7,1.1,1.1
			c0.4,0.4,0.7,0.7,1.2,1c0.4,0.3,0.8,0.6,1.2,0.9c0.4,0.3,0.8,0.5,1.2,0.8c0.2,0.1,0.4,0.2,0.6,0.4c0.2,0.1,0.4,0.2,0.6,0.3
			c0.4,0.2,0.7,0.4,1.1,0.5c0.4,0.1,0.7,0.2,1,0.4c0.3,0.1,0.7,0.1,1,0.2c0.6,0.1,1.1,0.2,1.5,0.1c0.4,0,0.8-0.1,0.9-0.1
			c0.1,0,0.3-0.1,0.3-0.1L154.1,78.7z"/>
	</g>
	<g>
		<path fill="#996733" d="M165.6,71.5c0,0,6.5,13.1,9.6,5.8c3.1-7.3-3.6-6-3.9-7.5c-0.3-1.5,9.8,5.8,9.3,0c-0.5-5.8-7.7-2.5-7.8-4.7
			c-0.1-2.1,11.4,2.3,12-3.3c0.4-3.8-1.9-7.2-8.9-4.2c0,0,10-9.9,3.9-12.4c-6.1-2.5-6.5,4.1-8.4,9.9c0,0-4.2-6.5-7.6-3.9
			s-1.2,7.3,5,11.2c0,0-8.1-6.2-9.7-1.3c-1.2,3.5,3.7,4.5,7.9,6c0,0-12.2-5.4-10.3,1.6S165.6,71.5,165.6,71.5z"/>
		<g>
			<path fill="#663333" d="M151.8,85.8c0,0,2-1.5,4.8-4.1c2.8-2.5,6.4-6.1,9.7-10c0.8-1,1.6-2,2.3-3c0.7-1,1.4-2,2.1-3
				c0.6-1,1.2-2,1.7-3c0.5-1,0.9-1.9,1.3-2.8c0.2-0.4,0.3-0.9,0.5-1.3c0.1-0.4,0.3-0.8,0.4-1.2c0.2-0.7,0.4-1.4,0.5-1.9
				c0.1-0.5,0.1-1,0.2-1.3c0-0.3,0.1-0.5,0.1-0.5s0,0.2,0,0.5c0,0.3,0,0.7-0.1,1.3c-0.1,0.6-0.2,1.2-0.4,2c-0.1,0.4-0.2,0.8-0.3,1.2
				c-0.1,0.4-0.3,0.9-0.4,1.3c-0.3,0.9-0.7,1.9-1.2,2.9c-0.5,1-1,2-1.6,3.1c-0.6,1-1.3,2.1-2,3.1c-0.7,1-1.5,2.1-2.2,3.1
				c-3.1,4.1-6.6,7.8-9.3,10.5c-2.7,2.7-4.7,4.4-4.7,4.4L151.8,85.8z"/>
		</g>
	</g>
</g>
<g>
	<g>
		<g>
			<path fill="#FFFF00" d="M656.5,139.8c-0.2-0.5-0.9-0.8-1.6-0.8c0.3-0.6,0.2-1.2-0.3-1.6c-0.4-0.3-1.1-0.4-1.7-0.3
				c0-0.5-0.4-0.9-1-1.1c-0.7-0.2-1.5,0-2.1,0.4c-0.2-0.5-0.9-0.9-1.7-0.9c-0.7,0-1.3,0.3-1.7,0.7c-0.5-0.3-1.2-0.4-1.8-0.2
				c-0.8,0.2-1.3,0.8-1.5,1.4c-0.7-0.2-1.5-0.1-2.2,0.3c-0.6,0.4-0.9,1.1-0.8,1.6c-0.8,0-1.6,0.4-2,1c-0.4,0.5-0.4,1-0.2,1.4
				c-0.6,0.3-1.1,0.7-1.3,1.3c-0.2,0.6,0.1,1.2,0.7,1.4c-0.6,0.4-1,1-0.9,1.6c0.1,0.5,0.6,0.9,1.1,1c-0.3,0.5-0.3,1,0,1.5
				c0.4,0.5,1.1,0.7,1.9,0.5c-0.2,0.6,0.1,1.2,0.7,1.5c0.5,0.3,1.2,0.2,1.8,0c0.2,0.5,0.6,0.8,1.3,0.9c0.8,0.1,1.5-0.2,2.1-0.7
				c0.4,0.5,1.1,0.7,1.9,0.6c0.7-0.1,1.3-0.5,1.6-1c0.5,0.2,1.3,0.2,1.9-0.1c0.7-0.3,1.2-0.9,1.2-1.5c0.7,0.1,1.6-0.1,2.1-0.7
				c0.5-0.4,0.6-1,0.5-1.4c0.6-0.2,1.2-0.6,1.5-1.1c0.3-0.6,0.2-1.2-0.3-1.6c0.7-0.3,1.2-0.9,1.2-1.5c0-0.5-0.3-0.9-0.8-1.2
				C656.5,140.9,656.7,140.3,656.5,139.8z M647.5,146.6c-2.4,0.7-4.7-0.1-5.2-1.8c-0.5-1.7,0.9-3.7,3.3-4.5c2.4-0.7,4.7,0.1,5.2,1.8
				C651.4,143.9,649.9,145.9,647.5,146.6z"/>
		</g>
		
			<ellipse transform="matrix(-0.9559 0.2938 -0.2938 -0.9559 1306.9541 90.4522)" fill="#FF9900" cx="646.7" cy="143.4" rx="5.1" ry="3.8"/>
	</g>
	<g>
		<g>
			<path fill="#FFFF00" d="M687.5,146c0.2-0.6-0.1-1.3-0.7-1.8c0.7-0.2,1.1-0.8,0.9-1.5c-0.1-0.6-0.6-1.1-1.2-1.5
				c0.3-0.4,0.3-1,0-1.6c-0.4-0.7-1.2-1.1-2-1.2c0.2-0.6,0-1.3-0.7-1.9c-0.6-0.5-1.3-0.7-1.9-0.6c-0.2-0.6-0.7-1.1-1.4-1.4
				c-0.8-0.4-1.6-0.3-2.2,0c-0.4-0.6-1.1-1.2-2-1.3c-0.8-0.1-1.5,0.2-1.8,0.7c-0.6-0.5-1.5-0.8-2.3-0.6c-0.6,0.1-1.1,0.6-1.2,1.1
				c-0.7-0.2-1.4-0.2-1.9,0.1c-0.6,0.4-0.7,1-0.5,1.7c-0.8-0.1-1.6,0.1-1.9,0.7c-0.3,0.5-0.2,1.1,0.2,1.6c-0.6,0.2-1,0.6-1,1.2
				c0,0.7,0.4,1.3,1.1,1.8c-0.6,0.4-0.8,1-0.5,1.7c0.2,0.6,0.8,1.1,1.5,1.3c-0.2,0.5-0.1,1.1,0.4,1.7c0.5,0.6,1.4,0.9,2.1,0.9
				c-0.1,0.6,0.4,1.4,1.1,1.8c0.6,0.4,1.4,0.5,1.9,0.3c0.3,0.6,0.9,1,1.6,1.2c0.8,0.2,1.6,0.1,2-0.4c0.5,0.6,1.3,1,2.2,1
				c0.7,0,1.2-0.3,1.4-0.8c0.6,0.3,1.4,0.4,2,0.2c0.7-0.3,1-0.9,0.9-1.5c0.8,0.2,1.6,0.1,2.1-0.4c0.4-0.4,0.4-1,0.2-1.5
				C686.8,146.9,687.4,146.6,687.5,146z M675.5,145.3c-2.4-1.1-3.7-3.4-2.9-5.2c0.8-1.8,3.4-2.4,5.8-1.3c2.4,1.1,3.7,3.4,2.9,5.2
				C680.6,145.8,677.9,146.4,675.5,145.3z"/>
		</g>
		
			<ellipse transform="matrix(-0.912 -0.4103 0.4103 -0.912 1236.4917 549.3181)" fill="#FF9900" cx="677.2" cy="142" rx="5.4" ry="4.1"/>
	</g>
	<g>
		<g>
			<path fill="#FFFF00" d="M675.9,139.3c-0.1-0.9-0.8-1.6-1.7-1.8c0.6-0.7,0.7-1.6,0.2-2.4c-0.4-0.7-1.2-1.1-2-1.1
				c0.1-0.7-0.2-1.5-0.9-2c-0.8-0.6-1.9-0.7-2.8-0.4c-0.1-0.8-0.7-1.6-1.8-1.9c-0.9-0.2-1.7-0.1-2.4,0.3c-0.5-0.6-1.3-1-2.2-1
				c-1,0-1.9,0.5-2.3,1.3c-0.7-0.6-1.8-0.8-2.8-0.4c-1,0.3-1.5,1.1-1.6,1.9c-0.9-0.3-2.1-0.1-2.8,0.5c-0.6,0.5-0.9,1.3-0.7,2
				c-0.9,0.1-1.6,0.6-2,1.3c-0.4,0.8-0.3,1.7,0.4,2.3c-0.9,0.3-1.6,1.1-1.7,2c0,0.8,0.4,1.4,1,1.9c-0.6,0.6-0.8,1.3-0.5,2.1
				c0.3,0.8,1.2,1.4,2.1,1.5c-0.5,0.8-0.4,1.7,0.3,2.4c0.6,0.6,1.4,0.8,2.3,0.8c0,0.7,0.5,1.4,1.3,1.8c0.9,0.4,2,0.4,2.8-0.1
				c0.3,0.8,1.1,1.5,2.2,1.6c0.9,0.1,1.7-0.2,2.3-0.7c0.6,0.5,1.5,0.8,2.4,0.6c1-0.2,1.8-0.8,2-1.6c0.9,0.4,2,0.5,2.9-0.1
				c0.7-0.4,1.1-1.1,1.2-1.8c0.9,0,1.7-0.3,2.3-0.9c0.6-0.7,0.6-1.6,0.2-2.3c1-0.2,1.8-0.8,2.1-1.7c0.2-0.7,0-1.5-0.6-2
				C675.6,140.8,676,140.1,675.9,139.3z M662.4,145.3c-3.2,0-5.8-2.1-5.9-4.8c0-2.7,2.5-4.9,5.7-4.9c3.2,0,5.8,2.1,5.9,4.8
				C668.1,143,665.6,145.2,662.4,145.3z"/>
		</g>
		
			<ellipse transform="matrix(-0.9999 1.528934e-02 -1.528934e-02 -0.9999 1327.0354 270.5191)" fill="#FF9900" cx="662.5" cy="140.3" rx="6.6" ry="5.6"/>
	</g>
</g>
<g>
	<g>
		<g>
			<path fill="#FFFF00" d="M378.9,93.7c-0.2-0.4-0.7-0.7-1.3-0.7c0.3-0.5,0.2-1-0.2-1.3c-0.4-0.3-0.9-0.3-1.4-0.2
				c0-0.4-0.3-0.7-0.8-0.9c-0.6-0.2-1.2,0-1.7,0.3c-0.2-0.4-0.7-0.7-1.3-0.7c-0.5,0-1.1,0.3-1.4,0.6c-0.4-0.2-0.9-0.3-1.5-0.1
				c-0.6,0.2-1.1,0.6-1.2,1.1c-0.5-0.2-1.2-0.1-1.8,0.3c-0.5,0.4-0.8,0.9-0.7,1.3c-0.6,0-1.3,0.3-1.6,0.8c-0.3,0.4-0.3,0.8-0.1,1.2
				c-0.5,0.2-0.9,0.6-1,1c-0.1,0.5,0.1,0.9,0.6,1.2c-0.5,0.3-0.8,0.8-0.7,1.3c0.1,0.4,0.4,0.7,0.9,0.8c-0.2,0.4-0.3,0.8,0,1.2
				c0.3,0.4,0.9,0.5,1.5,0.4c-0.2,0.5,0,1,0.6,1.2c0.4,0.2,1,0.2,1.5,0c0.1,0.4,0.5,0.7,1.1,0.7c0.6,0.1,1.2-0.2,1.7-0.5
				c0.3,0.4,0.9,0.6,1.5,0.5c0.6-0.1,1-0.4,1.3-0.8c0.4,0.2,1,0.1,1.5-0.1c0.6-0.3,0.9-0.8,1-1.2c0.6,0.1,1.3-0.1,1.7-0.5
				c0.4-0.4,0.5-0.8,0.4-1.2c0.5-0.1,1-0.5,1.2-0.9c0.3-0.5,0.1-1-0.3-1.3c0.6-0.3,1-0.7,1-1.2c0-0.4-0.2-0.8-0.7-0.9
				C378.9,94.5,379.1,94.1,378.9,93.7z M371.7,99.2c-1.9,0.6-3.8-0.1-4.2-1.5c-0.4-1.4,0.8-3,2.7-3.6c1.9-0.6,3.8,0.1,4.2,1.5
				C374.8,97,373.6,98.6,371.7,99.2z"/>
		</g>
		
			<ellipse transform="matrix(-0.9559 0.2938 -0.2938 -0.9559 753.9848 79.8421)" fill="#FF9900" cx="371" cy="96.5" rx="4.1" ry="3.1"/>
	</g>
	<g>
		<g>
			<path fill="#FFFF00" d="M404,98.7c0.2-0.5-0.1-1.1-0.6-1.5c0.5-0.2,0.9-0.7,0.8-1.2c-0.1-0.5-0.5-0.9-0.9-1.2
				c0.3-0.4,0.3-0.8,0-1.3c-0.3-0.5-0.9-0.9-1.6-1c0.2-0.5,0-1.1-0.6-1.5c-0.5-0.4-1-0.5-1.5-0.5c-0.1-0.5-0.5-0.9-1.1-1.2
				c-0.6-0.3-1.3-0.3-1.7,0c-0.3-0.5-0.9-0.9-1.6-1c-0.7-0.1-1.2,0.2-1.5,0.6c-0.5-0.4-1.2-0.6-1.8-0.5c-0.5,0.1-0.9,0.4-0.9,0.9
				c-0.5-0.2-1.1-0.2-1.5,0.1c-0.5,0.3-0.6,0.8-0.4,1.4c-0.6-0.1-1.3,0.1-1.5,0.6c-0.2,0.4-0.1,0.9,0.2,1.3c-0.5,0.1-0.8,0.5-0.8,1
				c0,0.5,0.4,1.1,0.9,1.4c-0.5,0.3-0.7,0.8-0.4,1.4c0.2,0.5,0.7,0.9,1.2,1.1c-0.2,0.4-0.1,0.9,0.3,1.3c0.4,0.5,1.1,0.8,1.7,0.7
				c0,0.5,0.3,1.1,0.9,1.5c0.5,0.3,1.1,0.4,1.6,0.3c0.2,0.4,0.7,0.8,1.3,1c0.7,0.2,1.3,0,1.6-0.3c0.4,0.5,1.1,0.8,1.8,0.8
				c0.6,0,1-0.3,1.2-0.7c0.5,0.3,1.1,0.3,1.6,0.1c0.6-0.2,0.8-0.7,0.7-1.2c0.6,0.2,1.3,0.1,1.7-0.3c0.3-0.3,0.3-0.8,0.1-1.2
				C403.4,99.4,403.8,99.1,404,98.7z M394.3,98.1c-1.9-0.9-3-2.8-2.3-4.2c0.7-1.5,2.8-1.9,4.7-1.1c1.9,0.9,3,2.8,2.3,4.2
				S396.2,99,394.3,98.1z"/>
		</g>
		
			<ellipse transform="matrix(-0.912 -0.4103 0.4103 -0.912 717.2528 344.7667)" fill="#FF9900" cx="395.6" cy="95.4" rx="4.4" ry="3.3"/>
	</g>
	<g>
		<g>
			<path fill="#FFFF00" d="M394.6,93.3c-0.1-0.7-0.7-1.3-1.4-1.5c0.5-0.5,0.6-1.3,0.2-1.9c-0.3-0.5-1-0.9-1.6-0.9
				c0.1-0.6-0.1-1.2-0.7-1.6c-0.6-0.5-1.5-0.6-2.2-0.3c-0.1-0.7-0.6-1.3-1.4-1.5c-0.7-0.2-1.4-0.1-2,0.3c-0.4-0.5-1-0.8-1.8-0.8
				c-0.8,0-1.6,0.4-1.9,1c-0.6-0.5-1.5-0.6-2.3-0.3c-0.8,0.3-1.2,0.9-1.3,1.6c-0.8-0.2-1.7-0.1-2.3,0.4c-0.5,0.4-0.7,1-0.6,1.6
				c-0.7,0.1-1.3,0.4-1.6,1c-0.4,0.6-0.2,1.4,0.3,1.9c-0.8,0.3-1.3,0.9-1.4,1.6c0,0.6,0.3,1.2,0.8,1.5c-0.4,0.5-0.6,1.1-0.4,1.7
				c0.3,0.7,0.9,1.1,1.7,1.2c-0.4,0.6-0.3,1.4,0.3,1.9c0.5,0.5,1.2,0.7,1.8,0.6c0,0.6,0.4,1.1,1,1.5c0.7,0.4,1.6,0.3,2.3-0.1
				c0.2,0.7,0.9,1.2,1.7,1.3c0.7,0.1,1.4-0.1,1.9-0.6c0.5,0.4,1.2,0.6,1.9,0.5c0.8-0.1,1.4-0.7,1.6-1.3c0.7,0.4,1.6,0.4,2.3,0
				c0.6-0.3,0.9-0.9,0.9-1.5c0.7,0,1.4-0.2,1.8-0.7c0.5-0.6,0.5-1.3,0.1-1.9c0.8-0.1,1.5-0.6,1.7-1.3c0.2-0.6,0-1.2-0.5-1.6
				C394.3,94.5,394.7,93.9,394.6,93.3z M383.7,98.1c-2.6,0-4.7-1.7-4.7-3.8c0-2.2,2-3.9,4.6-4c2.6,0,4.7,1.7,4.7,3.8
				C388.3,96.3,386.2,98,383.7,98.1z"/>
		</g>
		
			<ellipse transform="matrix(-0.9999 1.528934e-02 -1.528934e-02 -0.9999 768.8954 182.2927)" fill="#FF9900" cx="383.8" cy="94.1" rx="5.3" ry="4.5"/>
	</g>
</g>
<g>
	<g>
		<defs>
			<polygon id="XMLID_1_" points="450.9,27.4 446.6,28.1 443.5,26.8 444.7,23 448.2,21 451.3,22.8 452.5,25.1 			"/>
		</defs>
		<use xlink:href="#XMLID_1_"  overflow="visible" fill="#989898"/>
		<clipPath id="XMLID_63_">
			<use xlink:href="#XMLID_1_"  overflow="visible"/>
		</clipPath>
	</g>
	<polygon fill="#CCCBCB" points="444.7,23 448,23.3 451.3,22.8 448.2,21 	"/>
</g>
</svg>
