<!-- Generator: Adobe Illustrator 18.1.1, SVG Export Plug-In  -->
<svg version="1.1"
	 xmlns="http://www.w3.org/2000/svg" xmlns:xlink="http://www.w3.org/1999/xlink" xmlns:a="http://ns.adobe.com/AdobeSVGViewerExtensions/3.0/"
	 x="0px" y="0px" width="66.4px" height="64.7px" viewBox="0 0 66.4 64.7" enable-background="new 0 0 66.4 64.7"
	 xml:space="preserve">
<defs>
</defs>
<g>
	
		<path fill="#666666" stroke="#666666" stroke-width="3.0479" stroke-linecap="round" stroke-linejoin="round" stroke-miterlimit="10" d="
		M53.8,23.1l10.4,26.6c2.5,6.4-2.2,13.4-9.1,13.4H33.2H11.3c-6.9,0-11.6-6.9-9.1-13.4l10.4-26.6c1.5-3.8,5.1-6.2,9.1-6.2h22.9
		C48.7,16.9,52.3,19.4,53.8,23.1z"/>
	
		<circle fill="none" stroke="#666666" stroke-width="2.5108" stroke-linecap="round" stroke-linejoin="round" stroke-miterlimit="10" cx="33.2" cy="8.6" r="7.3"/>
	<g>
		<path fill="#FFFFFF" d="M29.3,41.4l2.7,2.2c0.3,0.3,0.5,0.5,0.6,0.6c0.1,0.1,0.1,0.3,0.1,0.4c0,0.3-0.2,0.8-0.6,1.3
			c-0.5,0.6-0.9,0.8-1.2,0.8c-0.3,0-0.7-0.2-1.2-0.6l-0.2-0.1c-0.3-0.3-0.8-0.7-1.4-1.3c-0.6-0.6-1.1-1.1-1.5-1.4V45
			c0,0.3,0,0.5,0,0.7c0,0.2-0.1,0.3-0.2,0.5c-0.2,0.3-0.7,0.5-1.5,0.5c-0.8,0-1.4-0.2-1.5-0.5c-0.1-0.2-0.2-0.4-0.2-0.5
			c0-0.2,0-0.4,0-0.7V33c0-0.3,0-0.5,0-0.7c0-0.2,0.1-0.3,0.2-0.5c0.2-0.4,0.7-0.5,1.6-0.5c0.6,0,1.1,0.1,1.4,0.3
			c0.2,0.2,0.3,0.5,0.4,0.9c0,0.1,0,0.3,0,0.6v6.4c0.2-0.2,0.6-0.5,1.1-1c0.5-0.5,0.9-0.8,1.1-1l0.2-0.2c0.5-0.4,0.9-0.5,1.2-0.5
			c0.3,0,0.7,0.3,1.2,0.8c0.4,0.5,0.7,1,0.7,1.3c0,0.3-0.2,0.7-0.7,1.1L29.3,41.4z"/>
		<path fill="#FFFFFF" d="M39.9,45.4c-0.5,0.7-1.3,1-2.4,1c-1.1,0-2.2-0.5-3.1-1.5c-1-1-1.5-2.2-1.5-3.6s0.5-2.6,1.5-3.6
			c1-1,2-1.5,3.2-1.5c0.5,0,0.9,0.1,1.2,0.3c0.4,0.2,0.6,0.3,0.8,0.5c0.1,0.1,0.3,0.3,0.3,0.4c0-0.4,0.2-0.7,0.4-0.9
			c0.2-0.2,0.6-0.3,1.1-0.3c0.5,0,0.9,0,1.1,0.1c0.2,0.1,0.4,0.2,0.5,0.4c0.1,0.2,0.2,0.4,0.2,0.5c0,0.1,0,0.4,0,0.7v8.3
			c0,1.5-0.5,2.8-1.6,3.7c-1.1,0.9-2.3,1.4-3.6,1.4c-1,0-2-0.2-2.9-0.7c-0.9-0.5-1.4-0.9-1.4-1.3c0-0.5,0.2-1,0.6-1.4
			c0.3-0.3,0.5-0.5,0.6-0.6c0.1-0.1,0.3-0.2,0.5-0.2c0.2,0,0.4,0.1,0.6,0.2c0.6,0.5,1.3,0.7,2.1,0.7c0.5,0,0.9-0.2,1.2-0.6
			c0.3-0.4,0.5-0.9,0.5-1.4V45.4z M36.4,41.3c0,0.4,0.2,0.8,0.5,1.2c0.3,0.3,0.8,0.5,1.2,0.5c0.5,0,0.9-0.2,1.2-0.5s0.5-0.7,0.5-1.2
			s-0.2-0.8-0.5-1.2c-0.3-0.4-0.7-0.6-1.2-0.6c-0.5,0-0.9,0.2-1.3,0.5S36.4,40.9,36.4,41.3z"/>
	</g>
</g>
</svg>
