<!-- Generator: Adobe Illustrator 18.1.1, SVG Export Plug-In  -->
<svg version="1.1"
	 xmlns="http://www.w3.org/2000/svg" xmlns:xlink="http://www.w3.org/1999/xlink" xmlns:a="http://ns.adobe.com/AdobeSVGViewerExtensions/3.0/"
	 x="0px" y="0px" width="1781.3px" height="81.1px" viewBox="0 0 1781.3 81.1" enable-background="new 0 0 1781.3 81.1"
	 xml:space="preserve">
<defs>
</defs>
<path fill="#FFFFFF" d="M415,13.7h-21.1v-0.4c0-0.4-0.1-0.8-0.2-1.2h2c2.3,0,4.2-1.9,4.2-4.2s-1.9-4.2-4.2-4.2h-12.2V3.4
	c0-1.9-1.5-3.4-3.4-3.4h-55.9c-1.9,0-3.4,1.5-3.4,3.4v0.4h-9.1c-2.3,0-4.2,1.9-4.2,4.2h-16.4c-2.3,0-4.2,1.9-4.2,4.2
	s1.9,4.2,4.2,4.2h35.9c-0.2,0.5-0.3,1-0.3,1.6c0,0.1,0,0.3,0,0.4h-17.1c-1.9,0-3.4,1.5-3.4,3.4v0.8c0,1.9,1.5,3.4,3.4,3.4h55.9
	c1.9,0,3.4-1.5,3.4-3.4v-0.4h46c2.3,0,4.2-1.9,4.2-4.2S417.3,13.7,415,13.7z"/>
<path fill="#FFFFFF" d="M756.7,60.1H737c-0.5-1.3-1.7-2.2-3.1-2.2h-29.9c-1.8,0-3.3,1.5-3.3,3.3v0c0,0.8,0.3,1.6,0.8,2.2h-13.8
	c-1.8,0-3.3,1.5-3.3,3.3v0c0,1.8,1.5,3.3,3.3,3.3h27.2c-1.8,0-3.3,1.5-3.3,3.3c0,0.4,0.1,0.8,0.2,1.1h-10.4c-1.8,0-3.3,1.5-3.3,3.3
	v0c0,1.8,1.5,3.3,3.3,3.3h29.9c1.8,0,3.3-1.5,3.3-3.3v0c0-0.4-0.1-0.8-0.2-1.1h10.4c1.8,0,3.3-1.5,3.3-3.3c0-1.8-1.5-3.3-3.3-3.3
	h3.1c1.8,0,3.3-1.5,3.3-3.3v0h5.5c1.8,0,3.3-1.5,3.3-3.3S758.6,60.1,756.7,60.1z M717.6,70.1c0.1,0,0.1,0,0.2,0c0.1,0,0.1,0,0.2,0
	H717.6z"/>
<path fill="#FFFFFF" d="M0,63.4c0,2,1.6,3.6,3.6,3.6h16.6C20.1,67.5,20,68,20,68.5v0c0,2,1.6,3.6,3.6,3.6h33c1.7,0,3.1-1.1,3.5-2.7
	h13.6c2,0,3.6-1.6,3.6-3.6c0-0.9-0.3-1.8-0.9-2.4H84c2,0,3.6-1.6,3.6-3.6c0-2-1.6-3.6-3.6-3.6H65c0.1-0.4,0.2-0.8,0.2-1.3
	c0-2-1.6-3.6-3.6-3.6h-33c-2,0-3.6,1.6-3.6,3.6h-9.4c-2,0-3.6,1.6-3.6,3.6v0c0,0.4,0.1,0.9,0.2,1.3H3.6C1.6,59.8,0,61.4,0,63.4z
	 M40.1,62.2h0.7C40.5,62.2,40.3,62.2,40.1,62.2C40.1,62.2,40.1,62.2,40.1,62.2z"/>
<path fill="#FFFFFF" d="M1436.2,13.7h-21.1v-0.4c0-0.4-0.1-0.8-0.2-1.2h2c2.3,0,4.2-1.9,4.2-4.2s-1.9-4.2-4.2-4.2h-12.2V3.4
	c0-1.9-1.5-3.4-3.4-3.4h-55.9c-1.9,0-3.4,1.5-3.4,3.4v0.4h-9.1c-2.3,0-4.2,1.9-4.2,4.2h-16.4c-2.3,0-4.2,1.9-4.2,4.2
	s1.9,4.2,4.2,4.2h35.9c-0.2,0.5-0.3,1-0.3,1.6c0,0.1,0,0.3,0,0.4H1331c-1.9,0-3.4,1.5-3.4,3.4v0.8c0,1.9,1.5,3.4,3.4,3.4h55.9
	c1.9,0,3.4-1.5,3.4-3.4v-0.4h46c2.3,0,4.2-1.9,4.2-4.2S1438.5,13.7,1436.2,13.7z"/>
<path fill="#FFFFFF" d="M1778,60.1h-19.8c-0.5-1.3-1.7-2.2-3.1-2.2h-29.9c-1.8,0-3.3,1.5-3.3,3.3v0c0,0.8,0.3,1.6,0.8,2.2h-13.8
	c-1.8,0-3.3,1.5-3.3,3.3v0c0,1.8,1.5,3.3,3.3,3.3h27.2c-1.8,0-3.3,1.5-3.3,3.3c0,0.4,0.1,0.8,0.2,1.1h-10.4c-1.8,0-3.3,1.5-3.3,3.3
	v0c0,1.8,1.5,3.3,3.3,3.3h29.9c1.8,0,3.3-1.5,3.3-3.3v0c0-0.4-0.1-0.8-0.2-1.1h10.4c1.8,0,3.3-1.5,3.3-3.3c0-1.8-1.5-3.3-3.3-3.3
	h3.1c1.8,0,3.3-1.5,3.3-3.3v0h5.5c1.8,0,3.3-1.5,3.3-3.3S1779.8,60.1,1778,60.1z M1738.9,70.1c0.1,0,0.1,0,0.2,0c0.1,0,0.1,0,0.2,0
	H1738.9z"/>
<path fill="#FFFFFF" d="M1021.3,63.4c0,2,1.6,3.6,3.6,3.6h16.6c-0.2,0.4-0.3,0.9-0.3,1.4v0c0,2,1.6,3.6,3.6,3.6h33
	c1.7,0,3.1-1.1,3.5-2.7h13.6c2,0,3.6-1.6,3.6-3.6c0-0.9-0.3-1.8-0.9-2.4h7.5c2,0,3.6-1.6,3.6-3.6c0-2-1.6-3.6-3.6-3.6h-19
	c0.1-0.4,0.2-0.8,0.2-1.3c0-2-1.6-3.6-3.6-3.6h-33c-2,0-3.6,1.6-3.6,3.6h-9.4c-2,0-3.6,1.6-3.6,3.6v0c0,0.4,0.1,0.9,0.2,1.3h-8.5
	C1022.9,59.8,1021.3,61.4,1021.3,63.4z M1061.3,62.2h0.7C1061.8,62.2,1061.6,62.2,1061.3,62.2C1061.3,62.2,1061.3,62.2,1061.3,62.2z
	"/>
</svg>
