<!-- Generator: Adobe Illustrator 18.1.1, SVG Export Plug-In  -->
<svg version="1.1"
	 xmlns="http://www.w3.org/2000/svg" xmlns:xlink="http://www.w3.org/1999/xlink" xmlns:a="http://ns.adobe.com/AdobeSVGViewerExtensions/3.0/"
	 x="0px" y="0px" width="55.8px" height="69.5px" viewBox="0 0 55.8 69.5" enable-background="new 0 0 55.8 69.5"
	 xml:space="preserve">
<defs>
</defs>
<g>
	
		<path fill="#FFFFFF" stroke="#666666" stroke-width="3" stroke-linecap="round" stroke-linejoin="round" stroke-miterlimit="10" d="
		M26.5,67.8C-2,47.5,1.1,21.2,2.1,16c0.1-0.6,0.6-0.9,1.1-1C15.1,14.2,24.6,4.1,26.5,1.9c0.2-0.3,0.6-0.4,0.9-0.4h1
		c0.4,0,0.7,0.1,0.9,0.4C31.2,4.1,40.7,14.2,52.6,15c0.6,0,1,0.4,1.1,1c1,5.3,4.1,31.5-24.4,51.8C29,68,28.8,68,28.5,68h-1.3
		C27,68,26.7,68,26.5,67.8z"/>
	<g>
		
			<line fill="#FFFFFF" stroke="#666666" stroke-width="3" stroke-linecap="round" stroke-linejoin="round" stroke-miterlimit="10" x1="41.6" y1="42.7" x2="34.6" y2="49"/>
		
			<line fill="#FFFFFF" stroke="#666666" stroke-width="3" stroke-linecap="round" stroke-linejoin="round" stroke-miterlimit="10" x1="44.4" y1="52.9" x2="38.8" y2="46.8"/>
		<path fill="#666666" stroke="#666666" stroke-linecap="round" stroke-linejoin="round" stroke-miterlimit="10" d="M38,44.2
			L14,17.7c-0.1-0.1-0.3-0.3-0.5-0.3l0,0c-0.9-0.3-1.8,0.5-1.6,1.4l0,0c0,0.2,0.1,0.4,0.3,0.5l23.9,26.5c0.4,0.5,1.2,0.5,1.7,0.1v0
			C38.4,45.5,38.4,44.7,38,44.2z"/>
	</g>
	<g>
		
			<line fill="#FFFFFF" stroke="#666666" stroke-width="3" stroke-linecap="round" stroke-linejoin="round" stroke-miterlimit="10" x1="14.2" y1="42.7" x2="21.2" y2="49"/>
		
			<line fill="#FFFFFF" stroke="#666666" stroke-width="3" stroke-linecap="round" stroke-linejoin="round" stroke-miterlimit="10" x1="11.4" y1="52.9" x2="17" y2="46.8"/>
		<path fill="#666666" stroke="#666666" stroke-linecap="round" stroke-linejoin="round" stroke-miterlimit="10" d="M17.8,44.2
			l23.9-26.5c0.1-0.1,0.3-0.3,0.5-0.3l0,0c0.9-0.3,1.8,0.5,1.6,1.4l0,0c0,0.2-0.1,0.4-0.3,0.5L19.6,45.8c-0.4,0.5-1.2,0.5-1.7,0.1
			l0,0C17.4,45.5,17.4,44.7,17.8,44.2z"/>
	</g>
</g>
</svg>
