<!-- Generator: Adobe Illustrator 18.1.1, SVG Export Plug-In  -->
<svg version="1.1"
	 xmlns="http://www.w3.org/2000/svg" xmlns:xlink="http://www.w3.org/1999/xlink" xmlns:a="http://ns.adobe.com/AdobeSVGViewerExtensions/3.0/"
	 x="0px" y="0px" width="47.7px" height="91.8px" viewBox="0 0 47.7 91.8" enable-background="new 0 0 47.7 91.8"
	 xml:space="preserve">
<defs>
</defs>
<g>
	
		<line fill="#FFFFFF" stroke="#666666" stroke-width="3.3001" stroke-linecap="round" stroke-linejoin="round" stroke-miterlimit="10" x1="9" y1="71.2" x2="9" y2="42"/>
	<g>
		
			<path fill="#FFFFFF" stroke="#666666" stroke-width="3.3001" stroke-linecap="round" stroke-linejoin="round" stroke-miterlimit="10" d="
			M1.7,16.2v21.5c0,2.2,1.8,4,4,4h6.6c2.3,0,4.2-1.9,4.2-4.2V16.2"/>
		
			<line fill="#FFFFFF" stroke="#666666" stroke-width="3.3001" stroke-linecap="round" stroke-linejoin="round" stroke-miterlimit="10" x1="9.1" y1="16.2" x2="9.1" y2="41.7"/>
	</g>
	<g>
		<g>
			<path fill="#FFFFFF" d="M45.8,0"/>
		</g>
		<g>
			<line fill="#FFFFFF" x1="38.5" y1="17.6" x2="38.5" y2="71"/>
			<path fill="#666666" d="M38.9,17.6c0,0,0.1,0.2,0.4,0.6c0.2,0.4,0.6,1,0.9,1.7c0.4,0.7,0.8,1.6,1.2,2.6c0.4,1,0.9,2.2,1.3,3.4
				c0.4,1.3,0.8,2.6,1.1,4c0.3,1.4,0.6,2.9,0.9,4.5c0.1,0.8,0.2,1.6,0.3,2.4c0.1,0.8,0.2,1.6,0.2,2.4c0.1,1.6,0.2,3.3,0.2,5
				c0,1.7-0.1,3.3-0.2,5c0,0.8-0.1,1.6-0.2,2.4c-0.1,0.8-0.2,1.6-0.3,2.4c-0.5,3.1-1.2,6-2,8.6c-0.4,1.3-0.8,2.4-1.3,3.4
				c-0.4,1-0.9,1.9-1.2,2.6c-0.3,0.7-0.7,1.3-0.9,1.7C39,70.8,38.9,71,38.9,71l-0.1,0.2c-0.1,0.2-0.3,0.2-0.5,0.1
				c-0.1-0.1-0.1-0.2-0.1-0.3c0,0,0-0.8-0.1-2.3c0-1.5-0.1-3.5-0.1-6c0-5-0.1-11.7-0.2-18.4c0.1-6.7,0.1-13.3,0.2-18.4
				c0-2.5,0.1-4.6,0.1-6c0-1.5,0.1-2.3,0.1-2.3c0-0.2,0.2-0.3,0.4-0.3c0.1,0,0.2,0.1,0.3,0.1L38.9,17.6z"/>
		</g>
	</g>
	
		<path fill="#FFFFFF" stroke="#666666" stroke-width="3.7172" stroke-linecap="round" stroke-linejoin="round" stroke-miterlimit="10" d="
		M9.1,89.9L9.1,89.9c-2.5,0-4.5-2-4.5-4.5V57.1c0-2.5,2-4.5,4.5-4.5h0c2.5,0,4.5,2,4.5,4.5v28.3C13.7,87.9,11.6,89.9,9.1,89.9z"/>
	
		<path fill="#FFFFFF" stroke="#666666" stroke-width="3.7172" stroke-linecap="round" stroke-linejoin="round" stroke-miterlimit="10" d="
		M41.3,89.9L41.3,89.9c-2.5,0-4.5-2-4.5-4.5V57.1c0-2.5,2-4.5,4.5-4.5h0c2.5,0,4.5,2,4.5,4.5v28.3C45.8,87.9,43.8,89.9,41.3,89.9z"
		/>
</g>
</svg>
