<!-- Generator: Adobe Illustrator 18.1.1, SVG Export Plug-In  -->
<svg version="1.1"
	 xmlns="http://www.w3.org/2000/svg" xmlns:xlink="http://www.w3.org/1999/xlink" xmlns:a="http://ns.adobe.com/AdobeSVGViewerExtensions/3.0/"
	 x="0px" y="0px" width="120px" height="120px" viewBox="0 0 120 120" enable-background="new 0 0 120 120" xml:space="preserve">
<defs>
</defs>
<g>
	<g>
		<g>
			<circle fill="#FFFFFF" stroke="#33CC00" stroke-width="6" stroke-miterlimit="10" cx="60" cy="60" r="34.2"/>
			<path fill="#FFFFFF" stroke="#FF0066" stroke-width="6" stroke-miterlimit="10" d="M76.3,76.8"/>
			<path fill="#FFFFFF" stroke="#FF0066" stroke-width="6" stroke-miterlimit="10" d="M44.9,45.5"/>
		</g>
		<g>
			<path fill="#33CC00" d="M56.3,62.4l0-0.4c0-1.4,0.4-2.5,1.2-3.3c0.8-0.8,1.6-1.3,2.6-1.6s1.8-0.7,2.6-1.3
				c0.8-0.6,1.2-1.4,1.2-2.5c0-1-0.3-1.8-0.9-2.4c-0.6-0.6-1.5-0.9-2.7-0.9c-1.2,0-2.1,0.2-2.6,0.6c-0.6,0.4-0.9,0.7-1,1.1l-0.1,0.6
				c-0.3,0.8-0.6,1.5-1,1.9c-0.4,0.4-0.9,0.6-1.5,0.6c-0.6,0-1.4-0.2-2.4-0.6c-1.9-0.7-2.9-1.6-2.9-2.7c0-0.5,0.1-1,0.3-1.5
				c0.2-0.5,0.4-0.9,0.5-1.2c0.1-0.3,0.5-0.9,1-1.8s1.2-1.6,1.9-2.2c0.7-0.6,1.7-1.2,3-1.7c1.3-0.5,2.8-0.8,4.4-0.8
				c3.4,0,6.2,1.1,8.3,3.3c2.1,2.2,3.2,4.7,3.2,7.6c0,1.4-0.2,2.6-0.7,3.8s-1.1,2.1-1.8,2.8c-1.4,1.3-2.7,2.2-3.9,2.7l-0.8,0.2
				c0,0.5,0,1-0.1,1.2s-0.2,0.6-0.4,0.9s-0.6,0.6-1.2,0.7c-0.6,0.1-1.3,0.2-2.2,0.2c-0.9,0-1.7-0.1-2.2-0.2c-0.6-0.2-1-0.4-1.2-0.8
				c-0.2-0.4-0.4-0.7-0.4-1C56.3,63.5,56.3,63.1,56.3,62.4z M56.1,71c0.3-0.5,0.7-0.9,1.4-1.1c0.7-0.2,1.7-0.3,3.1-0.3
				c1.4,0,2.4,0.3,3,0.9s0.9,1.8,0.9,3.6c0,1.3-0.2,2.2-0.5,2.9c-0.3,0.6-0.8,1-1.5,1.2c-0.7,0.2-1.7,0.3-3,0.3
				c-1.4,0-2.4-0.3-3.2-1c-0.5-0.5-0.8-1.5-0.8-2.8V74c0-0.7,0-1.3,0.1-1.7C55.7,71.9,55.8,71.5,56.1,71z"/>
		</g>
	</g>
	<rect x="0" y="0" fill="none" width="120" height="120"/>
</g>
</svg>
