<!-- Generator: Adobe Illustrator 18.1.1, SVG Export Plug-In  -->
<svg version="1.1"
	 xmlns="http://www.w3.org/2000/svg" xmlns:xlink="http://www.w3.org/1999/xlink" xmlns:a="http://ns.adobe.com/AdobeSVGViewerExtensions/3.0/"
	 x="0px" y="0px" width="39.9px" height="62.8px" viewBox="0 0 39.9 62.8" enable-background="new 0 0 39.9 62.8"
	 xml:space="preserve">
<defs>
</defs>
<g>
	
		<ellipse fill="#666666" stroke="#666666" stroke-width="3" stroke-linecap="round" stroke-linejoin="round" stroke-miterlimit="10" cx="19.9" cy="54.3" rx="7.2" ry="6.9"/>
	
		<path fill="#FFFFFF" stroke="#666666" stroke-width="3" stroke-linecap="round" stroke-linejoin="round" stroke-miterlimit="10" d="
		M38.4,19.9c0-10.6-9-19.1-19.7-18.4C9.7,2.2,2.5,9.2,1.6,18.1C1,24.4,3.6,30.2,8,33.9c2.2,1.9,3.4,4.6,3.4,7.5l0,4.5
		c0,2.8,2.3,5.1,5.1,5.1h6.9c2.8,0,5.1-2.3,5.1-5.1v-4.9c0-2.8,1.3-5.4,3.4-7.2C35.8,30.6,38.4,25.5,38.4,19.9z"/>
	<g>
		
			<line fill="#FFFFFF" stroke="#666666" stroke-width="3" stroke-linecap="round" stroke-linejoin="round" stroke-miterlimit="10" x1="16.8" y1="49.5" x2="16.8" y2="24.7"/>
		
			<line fill="#FFFFFF" stroke="#666666" stroke-width="3" stroke-linecap="round" stroke-linejoin="round" stroke-miterlimit="10" x1="23" y1="24.7" x2="23" y2="49.5"/>
	</g>
	
		<path fill="#FFFFFF" stroke="#666666" stroke-width="3" stroke-linecap="round" stroke-linejoin="round" stroke-miterlimit="10" d="
		M24.4,43.3h-9h-4.9v4.9v2.6v1.2c0,2.7,2.2,4.9,4.9,4.9h9c2.7,0,4.9-2.2,4.9-4.9v-1.2v-2.6v-4.9H24.4z"/>
	
		<path fill="#FFFFFF" stroke="#666666" stroke-width="3" stroke-linecap="round" stroke-linejoin="round" stroke-miterlimit="10" d="
		M24.6,7.3c0,0,7,1.8,8.3,9.8"/>
</g>
</svg>
