<!-- Generator: Adobe Illustrator 18.1.1, SVG Export Plug-In  -->
<svg version="1.1"
	 xmlns="http://www.w3.org/2000/svg" xmlns:xlink="http://www.w3.org/1999/xlink" xmlns:a="http://ns.adobe.com/AdobeSVGViewerExtensions/3.0/"
	 x="0px" y="0px" width="136px" height="49px" viewBox="0 0 136 49" enable-background="new 0 0 136 49" xml:space="preserve">
<defs>
</defs>
<g>
	<g>
		<g>
			<path fill="#FFFFFF" d="M42.1,6.6L42.1,6.6c0,0,7.5-7,9.6-6.6s2.1,11.5,2.1,11.5l0,0C53.8,11.5,46.5,12.1,42.1,6.6z"/>
			<path fill="#FFFFFF" d="M57,14.3L57,14.3c0,0,6.1-8.3,8.2-8.2c2.1,0,4.2,10.9,4.2,10.9l0,0C69.4,16.9,62.4,18.9,57,14.3z"/>
			<path fill="#FFFFFF" d="M71.4,18.7L71.4,18.7c0,0,6.1-8.3,8.2-8.2c2.1,0,4.2,10.9,4.2,10.9l0,0C83.8,21.3,76.8,23.3,71.4,18.7z"
				/>
			<path fill="#FFFFFF" d="M90.4,23.5L90.4,23.5c0,0,3.2-9.8,5.2-10.4c2-0.6,7.4,9,7.4,9l0,0C103,22.1,96.9,26.2,90.4,23.5z"/>
			<path fill="#FFFFFF" d="M105.2,23.4L105.2,23.4c0,0,4-9.5,6-9.9c2.1-0.5,6.6,9.6,6.6,9.6l0,0C117.9,23,111.5,26.6,105.2,23.4z"/>
			<path fill="#FFFFFF" d="M121.1,21.9L121.1,21.9c0,0,3.2-6.7,4.7-7s4.5,7.2,4.5,7.2l0,0C130.4,22.1,125.6,24.5,121.1,21.9z"/>
			<path fill="#FFFFFF" d="M129.9,21.6L129.9,21.6c0,0,3.4-3.4,4.4-3.2c1,0.2,1,5.6,1,5.6l0,0C135.3,24,131.9,24.3,129.9,21.6z"/>
		</g>
		<g>
			<path fill="#99FF66" d="M135,25.8c-7.7,32.1-52,24-63.9,16.1C58.5,33.6,43,41.3,43,41.3l0,0C6.2,47.6,0.2,17.2,0.2,17.2
				S-3.6,4.7,19.1,6.3l0,0c0,0,22.1-9.8,39.2,6.9l0,0c0,0,24.9,9.3,40,9c22-0.5,31.5-7.1,35.2-0.3c0,0,2.7-0.3,2.5,2.2
				C135.8,24.6,135,25.8,135,25.8z"/>
			<g>
				<path fill="#99CC66" d="M71.5,42.2c0,0-0.3-0.1-0.8-0.4c-0.3-0.1-0.6-0.3-1-0.5s-0.9-0.3-1.4-0.6c-0.5-0.2-1.1-0.4-1.8-0.6
					c-0.7-0.2-1.4-0.4-2.1-0.5c-1.5-0.3-3.3-0.4-5.2-0.4s-4,0.2-6.1,0.6c-1.1,0.2-2.2,0.5-3.3,0.8s-2.2,0.7-3.4,1.1
					c-2.4,0.8-5,1.4-7.6,1.8c-2.6,0.4-5.4,0.5-8.1,0.3c-0.3,0-0.7-0.1-1-0.1h-0.3h-0.2h-0.1l-0.5-0.1l-1.9-0.3
					c-0.6-0.1-1.3-0.2-1.9-0.3c-0.7-0.2-1.3-0.4-2-0.6c-0.7-0.2-1.3-0.4-2-0.6c-0.6-0.3-1.2-0.5-1.8-0.8c-0.6-0.3-1.2-0.5-1.8-0.8
					c-0.6-0.3-1.1-0.7-1.7-1c-0.5-0.3-1.1-0.6-1.6-1s-1-0.8-1.5-1.1c-1-0.7-1.9-1.6-2.7-2.4c-1.7-1.6-3-3.4-4.1-5
					c-0.6-0.8-1-1.7-1.5-2.5c-0.4-0.8-0.8-1.6-1.1-2.3c-0.3-0.8-0.6-1.5-0.8-2.1C2,22.1,1.8,21.5,1.6,21c-0.3-1.1-0.5-2-0.6-2.6
					s-0.1-0.9-0.1-0.9s0.1,0.3,0.3,0.9s0.6,1.4,1,2.5C2.4,21.4,2.7,22,3,22.6s0.7,1.2,1.1,1.9c0.4,0.7,0.9,1.4,1.3,2.1
					c0.5,0.7,1,1.5,1.6,2.2c1.2,1.5,2.6,3,4.3,4.4c0.8,0.7,1.7,1.4,2.6,2c0.5,0.3,0.9,0.6,1.4,1c0.5,0.3,1,0.6,1.5,0.8
					c0.5,0.3,1,0.6,1.6,0.8s1.1,0.4,1.7,0.7c0.6,0.2,1.1,0.4,1.7,0.7c0.6,0.2,1.2,0.3,1.7,0.5c0.6,0.2,1.2,0.3,1.8,0.5
					c0.6,0.1,1.3,0.2,1.9,0.3l1.9,0.3l0.5,0.1h0.1l0,0c0.1,0-0.1,0-0.1,0h0.1h0.2l0.9,0.1c2.5,0.2,5,0.1,7.5-0.2s4.9-0.8,7.2-1.4
					c1.2-0.3,2.4-0.7,3.6-1c1.2-0.3,2.4-0.5,3.5-0.6c2.3-0.3,4.5-0.3,6.5-0.2c2,0.2,3.8,0.5,5.4,1c0.8,0.2,1.5,0.5,2.1,0.8
					s1.2,0.6,1.7,0.8c0.5,0.3,1,0.6,1.3,0.8c0.4,0.2,0.7,0.5,0.9,0.7C71.3,42,71.5,42.2,71.5,42.2z"/>
			</g>
		</g>
	</g>
	<g>
		<path fill="#99CC66" d="M23.5,4.9c0,0,0.4-0.2,1.2-0.4c0.8-0.2,2-0.6,3.6-0.9C29.9,3.3,31.8,3,34,2.9s4.8-0.1,7.5,0.4
			s5.7,1.4,8.5,3.1c0.4,0.2,0.7,0.4,1,0.7c0.3,0.2,0.7,0.4,1,0.7c0.7,0.5,1.3,0.8,2,1.2c1.4,0.8,2.8,1.5,4.3,2.2
			c3,1.3,6.3,2.5,9.6,3.6s6.8,2,10.2,2.9c3.5,0.9,6.9,1.6,10.4,2.2s6.9,1.1,10.2,1.3c3.3,0.2,6.5,0.3,9.5,0.1
			c1.5-0.1,2.9-0.3,4.3-0.6c1.4-0.3,2.8-0.6,4.1-0.9c5.3-1.1,10-1.4,13.1-0.6c1.6,0.4,2.7,1.1,3.2,1.8c0.3,0.3,0.4,0.6,0.5,0.9
			c0.1,0.2,0.1,0.3,0.1,0.3s0-0.1-0.1-0.3c-0.1-0.2-0.3-0.5-0.6-0.8c-0.6-0.6-1.7-1.1-3.2-1.3c-1.5-0.2-3.4-0.1-5.5,0.2
			c-2.1,0.3-4.5,0.9-7.1,1.6c-1.3,0.4-2.6,0.8-4,1.2c-1.5,0.4-3,0.7-4.6,0.9c-3.2,0.4-6.5,0.5-9.9,0.3s-6.9-0.5-10.5-1.1
			c-3.5-0.6-7.1-1.3-10.6-2.1c-3.5-0.9-7-1.9-10.4-3s-6.7-2.5-9.8-3.9c-1.5-0.8-3.1-1.5-4.5-2.4c-0.7-0.5-1.5-1-2.1-1.4
			C50.3,9.4,50,9.2,49.7,9s-0.6-0.4-0.9-0.6c-2.4-1.6-5.1-2.7-7.6-3.3C36,3.8,31.5,3.9,28.4,4.2C25.3,4.4,23.5,4.9,23.5,4.9z"/>
	</g>
</g>
</svg>
