<!-- Generator: Adobe Illustrator 18.1.1, SVG Export Plug-In  -->
<svg version="1.1"
	 xmlns="http://www.w3.org/2000/svg" xmlns:xlink="http://www.w3.org/1999/xlink" xmlns:a="http://ns.adobe.com/AdobeSVGViewerExtensions/3.0/"
	 x="0px" y="0px" width="1306px" height="123.5px" viewBox="0 0 1306 123.5" enable-background="new 0 0 1306 123.5"
	 xml:space="preserve">
<defs>
</defs>
<g>
	<path fill="#FFFFFF" d="M272.9,19.6h-30.4v0c0-5.7-4.6-10.3-10.3-10.3h-26.1v0c0-5.1-4.2-9.3-9.3-9.3H61.7c-5.1,0-9.3,4.2-9.3,9.3
		v0H26.3C20.7,9.3,16,13.9,16,19.6v0c0,5.7,4.6,10.3,10.3,10.3h-17C4.2,29.9,0,34,0,39.2c0,5.1,4.2,9.3,9.3,9.3H78
		c1.6,2.9,4.6,4.8,8.1,4.8h135.1c5.1,0,9.3-4.2,9.3-9.3v0c0-1.4-0.3-2.6-0.8-3.8h43.1c5,0,9.1-4.1,9.1-9.1v-2.3
		C282,23.7,277.9,19.6,272.9,19.6z"/>
	<path fill="#FFFFFF" d="M1296.9,19.6h-30.4v0c0-5.7-4.6-10.3-10.3-10.3h-26.1v0c0-5.1-4.2-9.3-9.3-9.3h-135.1
		c-5.1,0-9.3,4.2-9.3,9.3v0h-26.1c-5.7,0-10.3,4.6-10.3,10.3v0c0,5.7,4.6,10.3,10.3,10.3h-17c-5.1,0-9.3,4.2-9.3,9.3
		c0,5.1,4.2,9.3,9.3,9.3h68.7c1.6,2.9,4.6,4.8,8.1,4.8h135.1c5.1,0,9.3-4.2,9.3-9.3v0c0-1.4-0.3-2.6-0.8-3.8h43.1
		c5,0,9.1-4.1,9.1-9.1v-2.3C1306,23.7,1301.9,19.6,1296.9,19.6z"/>
	<path fill="#FFFFFF" d="M693,114.6h20.3c3.6,0,6.8-2.1,8.3-5.2h51.2c5.1,0,9.3-4.2,9.3-9.3c0-5.1-4.2-9.3-9.3-9.3h-21.1
		c-0.1-5-4.2-9.1-9.3-9.1H736c-1.2-3.8-4.7-6.5-8.9-6.5h-194c-5.1,0-9.3,4.2-9.3,9.3v0c0,5.1,4.2,9.3,9.3,9.3h33.9
		c-0.5,1.1-0.8,2.4-0.8,3.7v0c0,3.1,1.5,5.8,3.8,7.5h-80.4c-5.1,0-9.3,4.2-9.3,9.3v0c0,5.1,4.2,9.3,9.3,9.3h194
		C688.7,123.5,692.8,119.5,693,114.6z"/>
</g>
</svg>
