<!-- Generator: Adobe Illustrator 18.1.1, SVG Export Plug-In  -->
<svg version="1.1"
	 xmlns="http://www.w3.org/2000/svg" xmlns:xlink="http://www.w3.org/1999/xlink" xmlns:a="http://ns.adobe.com/AdobeSVGViewerExtensions/3.0/"
	 x="0px" y="0px" width="81.1px" height="95.3px" viewBox="0 0 81.1 95.3" enable-background="new 0 0 81.1 95.3"
	 xml:space="preserve">
<defs>
</defs>
<g>
	<path fill="#FF9966" d="M34.6,55.9c0,0-22.5,15.5-20.9,0.8s11.4-6.5,13.2-8.8c1.9-2.3-21.3,0.6-15.3-8.4s14.9,2.8,16.9-0.6
		S7.7,32.4,11.9,22.7c2.8-6.5,9.6-9.9,18.3,1.3c0,0-7.3-25.3,4.9-23.9s6.9,12.6,4.8,23.8c0,0,12.7-6.9,16,0.5
		c3.2,7.4-4.6,13-18.2,13.8c0,0,18.9-2.9,17.2,6.6c-1.3,6.9-10.2,4-18.2,2.7c0,0,24.9,2.2,15.4,12S34.6,55.9,34.6,55.9z"/>
	<g>
		<path fill="#996733" d="M34.5,94.2c0,0-0.1-0.1-0.2-0.2c-0.1-0.1-0.3-0.3-0.5-0.5c-0.1-0.1-0.2-0.2-0.2-0.3L33.4,93l0-0.1
			c-0.1-0.2-0.3-0.5-0.4-0.7c-0.4-0.9-0.7-1.9-0.9-3.1c-0.5-2.4-0.9-5.5-1.2-9.3c-0.7-7.6-1-17.6-0.8-27.6c0.2-10,1-20,2.3-27.4
			c0.6-3.7,1.4-6.7,2.1-8.8c0.3-1,0.6-1.8,0.8-2.4c0.2-0.5,0.3-0.8,0.3-0.8s-0.1,0.3-0.2,0.9c-0.2,0.6-0.4,1.4-0.6,2.4
			c-0.4,2.1-0.9,5.2-1.2,8.9C33,32.3,33.2,42.2,34,52c0.7,9.8,2,19.6,3.4,26.8c0.7,3.6,1.3,6.5,1.9,8.4c0.3,0.9,0.6,1.5,0.6,1.7
			c0,0.1,0,0,0,0c0,0-0.1-0.1-0.1-0.1c0-0.1-0.1-0.1-0.2-0.2c-0.1-0.1-0.2-0.2-0.3-0.3c-0.1-0.1-0.1,0,0,0l0,0c0,0,0,0,0.1,0
			c0,0,0,0,0,0l0.1,0.1c1.7,1.3,2,3.8,0.6,5.4s-3.8,2-5.4,0.6C34.6,94.4,34.5,94.3,34.5,94.2z"/>
	</g>
	<path fill="#FF9966" d="M56.4,65.8c0,0,1.2,15,7,9.2s-1.2-7.1-0.9-8.7c0.3-1.6,7.1,9.3,8.9,3.6c1.8-5.7-6.4-5.4-5.7-7.4
		c0.7-2.1,10,6.6,12.8,1.4c1.8-3.4,0.9-7.6-6.9-7.4c0,0,13.3-5.7,8.5-10.4c-4.8-4.7-7.8,1.5-11.8,6.3c0,0-1.5-7.8-5.8-6.6
		s-4,6.5,0.5,12.6c0,0-5.4-9.1-8.8-5c-2.5,2.9,1.8,5.7,5.2,8.7c0,0-9.6-9.9-10.5-2.4S56.4,65.8,56.4,65.8z"/>
	<g>
		<path fill="#996733" d="M33.6,79.5c0,0,2.9-1.7,7.3-4.4c4.4-2.7,10.1-6.4,15.8-10.3c2.8-1.9,5.6-3.9,8.1-5.9
			c0.6-0.5,1.3-1,1.9-1.4c0.6-0.5,1.2-1,1.8-1.4c0.6-0.5,1.1-0.9,1.7-1.4c0.5-0.5,1-0.9,1.5-1.3c0.5-0.4,0.9-0.8,1.4-1.2
			c0.4-0.4,0.8-0.8,1.2-1.2c0.7-0.7,1.4-1.3,1.9-1.9c1-1.1,1.5-1.8,1.5-1.8s-0.5,0.7-1.4,1.9c-0.4,0.6-1.1,1.3-1.7,2.1
			c-0.3,0.4-0.7,0.8-1.1,1.3c-0.4,0.4-0.8,0.9-1.3,1.3c-0.5,0.5-0.9,0.9-1.4,1.4c-0.5,0.5-1,1-1.6,1.5c-0.5,0.5-1.1,1-1.7,1.6
			c-0.6,0.5-1.2,1-1.8,1.6c-2.4,2.2-5.1,4.3-7.7,6.5c-5.4,4.3-10.9,8.4-15.1,11.5c-4.2,3-7,5-7,5L33.6,79.5z"/>
	</g>
	<g>
		<path fill="#FF9966" d="M22.2,76.4c0,0-3.6,14.8-8.4,8.1s2.3-6.9,2.3-8.6c-0.1-1.6-8.6,8.2-9.5,2.2s7.2-4.4,6.8-6.5
			c-0.4-2.2-11.1,5-13-0.6c-1.3-3.7,0.3-7.7,8.1-6.3c0,0-12.4-7.8-6.8-11.8s7.5,2.7,10.8,8.1c0,0,2.7-7.6,6.9-5.7
			c4.1,1.9,2.9,7.1-2.5,12.5c0,0,6.8-8.2,9.6-3.6c2,3.3-2.8,5.4-6.6,7.9c0,0,11.2-8.3,10.9-0.7S22.2,76.4,22.2,76.4z"/>
		<g>
			<path fill="#996733" d="M35,91.8c0,0-2-1.9-4.9-4.9c-2.9-3-6.7-6.9-10.4-11.1c-1.8-2.1-3.6-4.2-5.3-6.2c-0.8-1-1.6-2-2.3-2.9
				c-0.7-0.9-1.4-1.9-2-2.7c-0.3-0.4-0.6-0.8-0.9-1.2c-0.2-0.4-0.5-0.8-0.7-1.1c-0.4-0.7-0.8-1.3-1.1-1.9C6.9,58.6,6.6,58,6.6,58
				s0.4,0.6,1,1.6c0.3,0.5,0.8,1.1,1.3,1.8c0.3,0.3,0.5,0.7,0.8,1.1c0.3,0.4,0.6,0.7,1,1.1c0.7,0.8,1.4,1.6,2.2,2.5
				c0.8,0.9,1.6,1.8,2.5,2.7c1.8,1.8,3.8,3.8,5.8,5.6c4,3.8,8.1,7.3,11.3,10c3.1,2.7,5.3,4.4,5.3,4.4L35,91.8z"/>
		</g>
	</g>
</g>
</svg>
