<!-- Generator: Adobe Illustrator 18.1.1, SVG Export Plug-In  -->
<svg version="1.1"
	 xmlns="http://www.w3.org/2000/svg" xmlns:xlink="http://www.w3.org/1999/xlink" xmlns:a="http://ns.adobe.com/AdobeSVGViewerExtensions/3.0/"
	 x="0px" y="0px" width="72.6px" height="36px" viewBox="0 0 72.6 36" enable-background="new 0 0 72.6 36" xml:space="preserve">
<defs>
</defs>
<path fill="#FFFF66" d="M24.4,13.1C27,5.7,35.3,0.3,45.3,0c4.9-0.1,9.4,1,13.1,3.1c0,0,9.9,4.6,9.1,15c-0.7,10.4-8,14-8,14
	c-3.7,2.4-8.3,3.8-13.3,4c-2.2,0.1-4.3-0.1-6.3-0.6c0,0,5.6-11.3,2.9-13.4c-3.5-2.7-17.1-8.2-17.1-8.2L24.4,13.1z"/>
<g>
	<path fill="#CCCC66" d="M68.6,18c0,0,0.1,0.3,0.1,0.9c0,0.6,0.1,1.5,0,2.5c0,0.5-0.1,1.1-0.3,1.7c-0.1,0.6-0.3,1.2-0.5,1.8
		c-0.3,0.6-0.5,1.3-0.8,1.9c-0.2,0.3-0.3,0.6-0.5,0.9l-0.6,0.9c-0.4,0.6-0.9,1.1-1.4,1.6c-0.5,0.5-1.1,0.9-1.6,1.3
		c-0.5,0.4-1.1,0.7-1.6,1c-0.5,0.3-1.1,0.5-1.5,0.7c-0.5,0.2-0.9,0.4-1.3,0.5c-0.4,0.1-0.8,0.2-1.1,0.3c-0.6,0.2-0.9,0.2-0.9,0.2
		s0.3-0.2,0.9-0.4c0.3-0.1,0.6-0.3,1-0.5c0.4-0.2,0.8-0.4,1.2-0.7c0.4-0.3,0.9-0.5,1.4-0.9c0.5-0.4,1-0.7,1.5-1.1
		c0.5-0.4,1-0.9,1.4-1.3c0.4-0.5,0.9-1,1.3-1.5l0.6-0.8c0.2-0.3,0.3-0.6,0.5-0.9c0.3-0.6,0.6-1.2,0.9-1.7c0.2-0.6,0.5-1.2,0.6-1.7
		c0.2-0.6,0.3-1.1,0.4-1.6c0.2-1,0.4-1.8,0.4-2.4C68.6,18.4,68.6,18,68.6,18z"/>
</g>
<g>
	<path fill="#CCCC66" d="M72.4,22.7c0,0,0.2,0.5,0.2,1.2c0,0.4,0,0.8-0.1,1.2c-0.1,0.4-0.2,0.9-0.4,1.3c-0.2,0.4-0.4,0.9-0.7,1.2
		c-0.1,0.2-0.3,0.4-0.4,0.5c-0.1,0.2-0.3,0.3-0.4,0.4c-0.3,0.2-0.5,0.4-0.7,0.5c-0.2,0.1-0.3,0.1-0.3,0.1s0.1-0.1,0.1-0.3
		c0.1-0.2,0.2-0.4,0.4-0.7c0.2-0.3,0.3-0.6,0.5-1c0.1-0.2,0.2-0.4,0.3-0.6c0.1-0.2,0.2-0.4,0.2-0.6c0.3-0.8,0.6-1.6,0.8-2.3
		C72.3,23.2,72.4,22.7,72.4,22.7z"/>
</g>
<g>
	<g>
		<path fill="#FFFF66" d="M50.6,19c-0.6,3.9-4.4,6-7.5,4.2c-0.1,0-0.1-0.1-0.2-0.1c-5.1-2.9-29.5,0.1-34.8-0.4
			c-2.9-0.3-4.8,0.7-5.9,1.6c-0.8,0.7-1.9,0.1-2.1-1c-0.4-2.7,0.2-5.1,0.2-5.1C1.6,2.7,25.4,7.8,36.7,3.5"/>
		<g>
			<path fill="#CCCC66" d="M54.1,18.1c0,0,0,0.1,0,0.2c0,0.1,0.1,0.3,0.1,0.5c0.1,0.4,0,1.1-0.3,1.8c-0.4,0.7-1,1.4-2,2
				c-0.9,0.6-2.1,1-3.4,1.3c-1.3,0.3-2.8,0.4-4.4,0.1c-0.4-0.1-0.8-0.2-1.2-0.4c-0.3-0.2-0.7-0.3-1-0.4c-0.7-0.2-1.5-0.4-2.3-0.4
				c-3.3-0.4-6.8-0.3-10.3-0.2c-3.5,0.1-7.1,0.3-10.4,0.4c-3.3,0.2-6.4,0.3-9.1,0.2c-0.7,0-1.3-0.1-1.9-0.1
				c-0.6-0.1-1.2-0.1-1.7-0.1c-1.1,0-2,0.2-2.7,0.5c-0.7,0.3-1.2,0.6-1.5,0.9c-0.3,0.3-0.5,0.4-0.5,0.4s0.1-0.2,0.4-0.5
				c0.3-0.3,0.8-0.7,1.5-1.1c0.7-0.4,1.7-0.6,2.8-0.7c1.1-0.1,2.3,0.1,3.6,0c1.3,0,2.7-0.1,4.3-0.2c1.5-0.1,3.1-0.2,4.8-0.3
				c3.3-0.2,6.8-0.5,10.4-0.5c1.8,0,3.6,0,5.3,0c1.8,0.1,3.5,0.1,5.1,0.4c0.8,0.1,1.6,0.3,2.4,0.6c0.4,0.1,0.8,0.3,1.1,0.5
				c0.3,0.2,0.6,0.3,1,0.4c1.4,0.4,2.9,0.3,4.1,0.1c1.3-0.2,2.4-0.6,3.4-1.1c0.9-0.5,1.6-1.2,2-1.8c0.4-0.7,0.4-1.3,0.4-1.7
				c0-0.2,0-0.4-0.1-0.5C54.1,18.1,54.1,18.1,54.1,18.1z"/>
		</g>
	</g>
	<g>
		<path fill="#CCCC66" d="M9.7,13.7c0,0,0.2-0.1,0.5-0.3c0.3-0.2,0.6-0.6,0.8-1c0.1-0.2,0.1-0.5,0.1-0.7c0-0.2,0-0.5-0.1-0.6
			c-0.1-0.4-0.3-0.6-0.3-0.6c0,0,0.2,0.2,0.4,0.5c0.1,0.2,0.2,0.4,0.3,0.7c0.1,0.3,0.1,0.6,0,0.8c-0.1,0.6-0.4,1.1-0.6,1.5
			c-0.1,0.2-0.2,0.3-0.3,0.4c-0.1,0.1-0.2,0.2-0.2,0.2l0,0c-0.2,0.2-0.5,0.2-0.7,0s-0.2-0.5,0-0.7C9.6,13.8,9.6,13.7,9.7,13.7z"/>
	</g>
</g>
<g>
	<path fill="#CCCC66" d="M30.1,5.8c0,0,0.2-0.3,0.6-0.9c0.4-0.5,1.1-1.2,2-2c0.9-0.7,2.1-1.4,3.5-2c0.7-0.3,1.4-0.5,2.2-0.7
		c0.4-0.1,0.8-0.1,1.2-0.2L40.8,0c0.8,0,1.5,0,2.3,0c0.8,0,1.5,0.2,2.3,0.3c0.4,0.1,0.7,0.2,1.1,0.2c0.3,0.1,0.7,0.2,1,0.3
		c0.3,0.1,0.6,0.3,0.9,0.4c0.3,0.2,0.6,0.3,0.8,0.4c0.5,0.3,1,0.6,1.3,1c0.4,0.3,0.6,0.6,0.9,0.9C51.9,4.1,52,4.5,52,4.5
		s-0.2-0.3-0.7-0.8C51,3.5,50.7,3.3,50.3,3c-0.4-0.2-0.8-0.5-1.4-0.7c-0.5-0.2-1.1-0.4-1.7-0.6c-0.6-0.2-1.3-0.3-2-0.4
		c-0.7-0.1-1.4-0.2-2.2-0.2c-0.7-0.1-1.5,0-2.3,0l-1.1,0.1c-0.4,0-0.7,0.1-1.1,0.2c-0.7,0.1-1.4,0.3-2.1,0.5c-1.3,0.4-2.5,1-3.5,1.6
		c-1,0.6-1.7,1.2-2.2,1.6C30.3,5.5,30.1,5.8,30.1,5.8z"/>
</g>
<path fill="#CCCC66" d="M23.7,13.3l0.5,1c0.2,0.4,0.1,0.8-0.3,1L23,16.1c-0.3,0.3-0.8,0.3-1.1,0.1l-1-0.6c-0.4-0.2-0.5-0.6-0.4-1
	l0.3-1.1c0.1-0.4,0.4-0.7,0.9-0.7l1.2-0.1C23.1,12.7,23.5,12.9,23.7,13.3z"/>
<path fill="#CCCC66" d="M19,12.9l0.2,0.4c0.1,0.1,0,0.3-0.1,0.4L18.7,14c-0.1,0.1-0.3,0.1-0.4,0l-0.4-0.2c-0.1-0.1-0.2-0.2-0.2-0.4
	l0.1-0.4c0-0.1,0.2-0.3,0.3-0.3l0.5,0C18.8,12.6,18.9,12.7,19,12.9z"/>
<path fill="#CCCC66" d="M25.4,10.2l0.1,0.4c0.1,0.1,0,0.3-0.1,0.4l-0.3,0.3c-0.1,0.1-0.2,0.1-0.4,0L24.5,11
	c-0.1-0.1-0.2-0.2-0.1-0.4l0.1-0.4c0-0.1,0.1-0.2,0.3-0.2l0.4,0C25.2,10,25.3,10.1,25.4,10.2z"/>
<path fill="#CCCC66" d="M28.9,11.7l0.2,0.6c0.1,0.2,0,0.4-0.1,0.6l-0.4,0.4c-0.2,0.1-0.4,0.2-0.6,0l-0.5-0.3
	c-0.2-0.1-0.3-0.3-0.2-0.5l0.1-0.6c0-0.2,0.2-0.4,0.4-0.4l0.6,0C28.6,11.3,28.8,11.5,28.9,11.7z"/>
</svg>
