<!-- Generator: Adobe Illustrator 18.1.1, SVG Export Plug-In  -->
<svg version="1.1"
	 xmlns="http://www.w3.org/2000/svg" xmlns:xlink="http://www.w3.org/1999/xlink" xmlns:a="http://ns.adobe.com/AdobeSVGViewerExtensions/3.0/"
	 x="0px" y="0px" width="175.6px" height="41.9px" viewBox="0 0 175.6 41.9" enable-background="new 0 0 175.6 41.9"
	 xml:space="preserve">
<defs>
</defs>
<path fill="#FFFFFF" d="M168.3,17.1h-17c0.3-0.8,0.5-1.6,0.5-2.5v0c0-4-3.3-7.3-7.3-7.3h-18.8c0-4-3.3-7.3-7.3-7.3H52.2
	c-4,0-7.3,3.3-7.3,7.3c0,0.9,0.2,1.7,0.5,2.5h-38c-4,0-7.3,3.3-7.3,7.3c0,4,3.3,7.3,7.3,7.3h15c-1.1,1.3-1.8,3-1.8,4.8
	c0,4,3.3,7.3,7.3,7.3h27.3c0.9,3.1,3.7,5.3,7,5.3h66.1c4,0,7.3-3.3,7.3-7.3v0c0-1-0.2-1.9-0.6-2.8h33.3c4,0,7.3-3.3,7.3-7.3
	S172.3,17.1,168.3,17.1z M95.3,22.1c-0.4-0.1-0.9-0.1-1.4-0.1h1.4C95.3,22,95.3,22,95.3,22.1z"/>
</svg>
