<!-- Generator: Adobe Illustrator 18.1.1, SVG Export Plug-In  -->
<svg version="1.1"
	 xmlns="http://www.w3.org/2000/svg" xmlns:xlink="http://www.w3.org/1999/xlink" xmlns:a="http://ns.adobe.com/AdobeSVGViewerExtensions/3.0/"
	 x="0px" y="0px" width="877.3px" height="100.3px" viewBox="0 0 877.3 100.3" enable-background="new 0 0 877.3 100.3"
	 xml:space="preserve">
<defs>
</defs>
<path fill="#FFFFFF" d="M503.7,75.6h-17c0.3-0.8,0.5-1.6,0.5-2.5v0c0-4-3.3-7.3-7.3-7.3h-18.8c0-4-3.3-7.3-7.3-7.3h-66.1
	c-4,0-7.3,3.3-7.3,7.3c0,0.9,0.2,1.7,0.5,2.5h-38c-4,0-7.3,3.3-7.3,7.3c0,4,3.3,7.3,7.3,7.3h15c-1.1,1.3-1.8,3-1.8,4.8
	c0,4,3.3,7.3,7.3,7.3h27.3c0.9,3.1,3.7,5.3,7,5.3h66.1c4,0,7.3-3.3,7.3-7.3v0c0-1-0.2-1.9-0.6-2.8h33.3c4,0,7.3-3.3,7.3-7.3
	S507.8,75.6,503.7,75.6z M430.7,80.5c-0.4-0.1-0.9-0.1-1.4-0.1h1.4C430.7,80.4,430.7,80.5,430.7,80.5z"/>
<path fill="#FFFFFF" d="M164.6,11.8h-18.3v0c0-3.4-2.8-6.2-6.2-6.2h-15.7v0c0-3.1-2.5-5.6-5.6-5.6H37.2c-3.1,0-5.6,2.5-5.6,5.6v0
	H15.9c-3.4,0-6.2,2.8-6.2,6.2v0c0,3.4,2.8,6.2,6.2,6.2H5.6C2.5,18,0,20.5,0,23.6c0,3.1,2.5,5.6,5.6,5.6h41.5c1,1.7,2.8,2.9,4.9,2.9
	h81.5c3.1,0,5.6-2.5,5.6-5.6v0c0-0.8-0.2-1.6-0.5-2.3h26c3,0,5.5-2.5,5.5-5.5v-1.4C170.1,14.3,167.6,11.8,164.6,11.8z"/>
<path fill="#FFFFFF" d="M868.1,36.8h-20.9c-0.1,5-4.2,9-9.2,9H801c-1.2,3.6-4.7,6.3-8.7,6.3h-82.9c-5,0-9.2-4.1-9.2-9.2v0
	c0-1.2,0.2-2.4,0.7-3.5h-27.5c-5,0-9.2-4.1-9.2-9.2v0c0-5,4.1-9.2,9.2-9.2h15.4c-0.4-1-0.6-2.1-0.6-3.2c0-5,4.1-9.2,9.2-9.2h82.9
	c3.4,0,6.3,1.8,7.9,4.5h21.2c3.6,0,6.7,2.1,8.2,5.1h50.5c5,0,9.2,4.1,9.2,9.2C877.3,32.7,873.2,36.8,868.1,36.8z"/>
</svg>
