<!-- Generator: Adobe Illustrator 18.1.1, SVG Export Plug-In  -->
<svg version="1.1"
	 xmlns="http://www.w3.org/2000/svg" xmlns:xlink="http://www.w3.org/1999/xlink" xmlns:a="http://ns.adobe.com/AdobeSVGViewerExtensions/3.0/"
	 x="0px" y="0px" width="1190.5px" height="188.3px" viewBox="0 0 1190.5 188.3" enable-background="new 0 0 1190.5 188.3"
	 xml:space="preserve">
<defs>
</defs>
<polygon fill="#CCCCCC" points="1014.3,188.3 0,188.3 0,168.2 8.3,168.2 13.8,75.3 21.5,75.3 28.2,75.3 29.3,85 29.3,100.7 
	40.3,107.7 45.9,108.6 47,117.4 47,122.6 56.9,124.4 56.9,131.8 69.1,138.4 83.4,148 85.6,126.1 101.1,115.6 104.4,120 107.7,127 
	107.7,131.8 117.7,136.6 117.7,142.8 121,150.7 136.5,147.2 139.8,135.8 153,131.8 153,120 155.2,105.1 157.4,100.7 168.5,97.2 
	176.2,99.9 192.8,99.9 197.2,106 198.3,111.2 222.6,112.1 224.8,120 230.4,137.5 244.7,145.4 254.7,151.5 265.7,160.3 295.6,161.2 
	302.2,139.3 325.4,131.8 335.3,127 335.3,113.9 343.1,111.2 343.1,98.1 348.6,92 348.6,75.3 358.8,68.5 358.5,54.3 371.8,54.3 
	373.7,69.9 383.9,79.7 382.8,90.2 400.5,89.3 407.1,71 416,65.7 423.7,15.8 433.7,15.8 437.3,18.6 451.3,11.4 458,11.4 458,34.2 
	459.1,68.3 464.1,69.2 476.5,60 493.1,58.7 492.2,123.1 507.1,123.7 518.7,125 522.1,134.2 546.1,137.5 555.2,150 596.6,148 
	610.7,117.2 624,102 629,78.8 641.4,76.8 641.9,55.4 648.6,55.4 648.6,48.2 652.7,46.2 653.5,31.1 664.3,31.1 664.6,84.4 
	672.9,84.4 672.9,93.5 685.3,95.5 695.2,129 722.6,131 736.7,140.8 769,136.9 784.7,96.8 801.3,97.4 817.1,77.7 828.7,73.8 
	830.3,61.3 852.7,57.4 867.6,60.7 870.1,71.2 880.9,73.1 889.7,25 903,18.4 908.8,0 915.4,0 915.4,42 927,46 925.6,73.8 928.1,93.5 
	943.8,93.5 944.7,100.7 965.4,127 987.2,119.1 1001.6,127.9 1014.3,114.7 1045.8,113.9 1060.1,74.5 1072.3,75.3 1078.9,57.8 
	1094.4,58.7 1102.1,108.6 1128.6,111.2 1135.3,129.6 1168.4,130.5 1177.3,143.7 1190.5,143.7 1190.5,188.3 "/>
</svg>
