<!-- Generator: Adobe Illustrator 18.1.1, SVG Export Plug-In  -->
<svg version="1.1"
	 xmlns="http://www.w3.org/2000/svg" xmlns:xlink="http://www.w3.org/1999/xlink" xmlns:a="http://ns.adobe.com/AdobeSVGViewerExtensions/3.0/"
	 x="0px" y="0px" width="1232.7px" height="165.8px" viewBox="0 0 1232.7 165.8" enable-background="new 0 0 1232.7 165.8"
	 xml:space="preserve">
<defs>
</defs>
<g>
	<path fill="#339900" d="M1232.1,82.7L1232.1,82.7c0.2,0,0.4,0,0.6,0H1232.1z"/>
	<path fill="#339900" d="M1225.6,84.8c-1.7-3.4-5.7-5.8-10.4-5.8c-4.3,0-8.1,2.1-10,5.1c-1.6-0.7-3.5-1.2-5.5-1.2
		c-1.4,0-2.8,0.2-4,0.6c-2.1-3.4-6.3-5.7-11.2-5.7c-2.1,0-4.1,0.4-5.9,1.2c-1.8-0.8-3.8-1.2-5.9-1.2c-2.9,0-5.6,0.8-7.7,2.2
		c-2.1-1.9-5.1-3.1-8.4-3.1c-1.8,0-3.4,0.3-4.9,0.9c-0.2,0-0.4,0-0.6,0c-0.8,0-1.5,0.1-2.2,0.2c-1.6-2.4-4.5-4.1-7.8-4.6
		c-1.6-0.6-3.5-1-5.4-1c-4.5,0-8.4,1.9-10.6,4.8c-0.5,0-0.9-0.1-1.4-0.1c-1.4,0-2.8,0.2-4,0.6c-2.1-3.4-6.3-5.7-11.2-5.7
		c-2.1,0-4.1,0.4-5.9,1.2c-1.8-0.8-3.8-1.2-5.9-1.2c-2,0-3.9,0.4-5.6,1.1c-1.5-0.5-3.1-0.8-4.8-0.8c-0.8,0-1.6,0.1-2.4,0.2
		c-1.2-0.3-2.5-0.5-3.8-0.5c-0.9,0-1.7,0.1-2.5,0.2c-0.8-0.1-1.7-0.2-2.5-0.2c-1.4,0-2.8,0.2-4,0.6c-2-3.5-6.4-6-11.4-6
		c-4.9,0-9.2,2.4-11.3,5.8c-0.2,0-0.3-0.1-0.5-0.1c-1.2-1.2-3.1-1.9-5.1-1.9c-2.2,0-4.1,0.9-5.4,2.3c-1.2-0.3-2.3-0.6-3.6-0.8
		c-3-1.2-6.2-2-9.6-2.3c-0.4-8.9-0.7-17.3-0.8-21.8c0.2,0.2,0.4,0.4,0.7,0.4c0,0.2,0,0.4,0.2,0.6c0.1,0.1,0.3,0.2,0.4,0.3
		c-0.1,0.2-0.1,0.4,0.1,0.6c0.1,0.1,0.2,0.2,0.4,0.3c0,0.2,0,0.3,0.1,0.5c0.2,0.3,0.6,0.4,0.9,0.4c-0.1,0-0.2,0.1-0.2,0.1
		c-0.3,0.2-0.2,0.5,0,0.7c0.1,0.1,0.3,0.2,0.5,0.2c-0.1,0.1,0,0.3,0.1,0.4c0.1,0,0.2,0.1,0.3,0.1c0,0,0,0.2,0.1,0.3
		c0.2,0.2,0.4,0.2,0.5,0.1l0.1-0.1c0,0.2,0,0.3,0,0.4c0,0.1,0.2,0.3,0.4,0.3c0.2,0,0.3-0.1,0.3-0.3c0,0-0.1-0.1-0.1-0.2
		c0.1,0.1,0.4,0.2,0.5,0.1c0.1-0.1,0.1-0.3,0-0.4l-0.1-0.1v-0.1c0.2,0.1,0.3,0,0.4-0.1s0-0.3-0.1-0.4c0.2,0,0.4,0,0.5-0.2
		c0.2-0.2,0.1-0.6-0.3-0.8c-0.1,0-0.1-0.1-0.2-0.1c0.2-0.1,0.3-0.2,0.3-0.3c0.1-0.3-0.1-0.7-0.5-0.8c0.4,0.1,0.7-0.2,0.7-0.5
		c0-0.4-0.3-0.7-0.8-0.8c0.3-0.1,0.4-0.3,0.4-0.6c0.1,0,0.2,0,0.3,0c0,0.3,0.1,0.5,0.4,0.6c0.2,0.1,0.4,0.1,0.6,0.1
		c0,0.2,0.1,0.4,0.3,0.5c0.4,0.2,0.8,0.2,1.1,0c0,0.1-0.1,0.2-0.1,0.2c-0.1,0.3,0,0.6,0.4,0.7c0.2,0.1,0.4,0.1,0.6,0
		c0,0.2,0.1,0.3,0.3,0.4c0.1,0,0.3,0,0.4,0c-0.1,0.1,0,0.2,0.2,0.3c0.2,0,0.4,0,0.5-0.2c0.1,0,0.1,0,0.1-0.1
		c0.1,0.1,0.1,0.3,0.2,0.4c0.1,0.1,0.4,0.2,0.6,0.1c0.2-0.1,0.3-0.3,0.2-0.5c0-0.1-0.1-0.1-0.2-0.2c0.2,0,0.5,0,0.6-0.2
		c0.1-0.1,0-0.3-0.2-0.4c-0.1,0-0.1,0-0.2,0v-0.1c0.2,0,0.4-0.1,0.4-0.3c0-0.2-0.1-0.3-0.3-0.4c0.2-0.1,0.4-0.3,0.4-0.5
		c0-0.4-0.3-0.7-0.8-0.7c0,0-0.1,0-0.2,0c0.1-0.1,0.1-0.2,0.1-0.4c0-0.3-0.4-0.6-0.9-0.5c0.4-0.2,0.7-0.6,0.5-0.9
		c-0.1-0.3-0.7-0.5-1.2-0.4c0.3-0.2,0.3-0.5,0.1-0.8c-0.3-0.4-0.8-0.5-1.3-0.3c0.3-0.3,0.3-0.7-0.1-1c-0.4-0.2-0.8-0.3-1.2-0.2
		c0.2-0.3,0.1-0.7-0.3-0.9c-0.3-0.1-0.7-0.2-1-0.1c-0.1-0.1-0.1-0.1-0.1-0.2s0-0.1,0-0.1c0.1,0.1,0.3,0.1,0.5,0
		c0.1,0,0.2-0.1,0.3-0.2c0.1,0.1,0.3,0.2,0.5,0.1c0.2,0,0.3-0.1,0.4-0.2c0.1,0.1,0.2,0.1,0.4,0.1c0.3-0.1,0.5-0.3,0.6-0.6V41
		c0.1,0.2,0.3,0.3,0.6,0.2c0.1,0,0.2-0.2,0.3-0.3c0,0,0.2,0.1,0.3,0c0.1,0,0.2-0.1,0.2-0.2c0.1,0.1,0.2,0.2,0.3,0.1s0.2-0.3,0.2-0.4
		v-0.1c0.1,0,0.2,0.1,0.3,0.1c0.2,0.1,0.3,0,0.4-0.2c0.1-0.1,0-0.3-0.1-0.3c0,0-0.1,0-0.2,0c0.1-0.1,0.2-0.3,0.2-0.4
		c0-0.1-0.1-0.2-0.3-0.1c0,0.1-0.1,0.1-0.1,0.1c0-0.1,0-0.1,0-0.1c0.1-0.2,0.1-0.3,0-0.4c0-0.1-0.2-0.2-0.3-0.1
		c0.1-0.2,0.1-0.4,0-0.5c-0.1-0.2-0.4-0.2-0.7,0c0,0-0.1,0-0.1,0.1c0-0.1,0-0.2-0.1-0.3c-0.2-0.2-0.6-0.1-0.8,0.2
		c0.1-0.3,0.1-0.6-0.2-0.7c-0.3-0.1-0.7,0.1-0.9,0.4c0-0.3-0.2-0.5-0.4-0.5c-0.3-0.1-0.6,0.2-0.8,0.5c0-0.3-0.3-0.5-0.6-0.5
		c-0.3,0-0.5,0.2-0.7,0.5c-0.1-0.2-0.3-0.4-0.6-0.3c0.1-0.1,0.1-0.1,0.1-0.2c0.2,0.1,0.3,0,0.5-0.1c0.1-0.1,0.2-0.3,0.2-0.4
		c0.1,0,0.3,0,0.4-0.1c0.2-0.1,0.4-0.4,0.3-0.7c0.1,0,0.1,0.1,0.1,0.1c0.2,0.2,0.4,0.1,0.6-0.1c0.1-0.2,0.1-0.3,0.1-0.5
		c0.1,0.1,0.2,0,0.3-0.1c0.1-0.1,0.1-0.2,0.1-0.3c0.1,0,0.2,0,0.3-0.1s0.1-0.3,0-0.4c0-0.1-0.1-0.1-0.1-0.1c0.1,0,0.2,0,0.3,0
		c0.2-0.1,0.3-0.2,0.3-0.4c0-0.2-0.2-0.3-0.3-0.3s-0.1,0.1-0.2,0.1c0.1-0.1,0.1-0.3,0-0.4s-0.3-0.1-0.4,0l-0.1,0.1
		c-0.1,0-0.1,0-0.1,0c0.1-0.1,0-0.2-0.1-0.3c-0.1,0-0.2,0-0.3,0.1c0-0.2-0.1-0.3-0.2-0.4c-0.3-0.2-0.6,0-0.7,0.3
		c-0.1,0.1-0.1,0.1-0.1,0.2c-0.1-0.1-0.2-0.2-0.3-0.2c-0.2-0.1-0.5,0.2-0.6,0.5c0-0.4-0.2-0.6-0.5-0.6c-0.3,0-0.6,0.3-0.6,0.7
		c-0.2-0.3-0.4-0.4-0.6-0.3c-0.3,0.1-0.5,0.4-0.5,0.8c-0.1-0.3-0.4-0.4-0.7-0.2c-0.2,0.1-0.4,0.4-0.4,0.7c-0.1-0.2-0.4-0.2-0.7,0
		c-0.1,0.2-0.3,0.5-0.3,0.7c-0.2,0-0.4,0-0.6,0.2c-0.3,0.2-0.4,0.6-0.4,1c-0.1-0.1-0.1-0.1-0.1-0.1c-0.3-0.3-0.7-0.1-1,0.3
		c0,0-0.1,0.1-0.1,0.2l-0.1,0.1l-0.1,0.1c0.1-0.4-0.1-0.8-0.5-1c-0.2-0.1-0.5-0.1-0.7,0c-0.1-0.2-0.3-0.5-0.5-0.6
		c-0.3-0.1-0.7-0.1-0.9,0.2c-0.1-0.3-0.3-0.6-0.6-0.7c-0.4-0.2-0.7,0-0.9,0.3c0-0.4-0.3-0.8-0.7-0.8c-0.3,0-0.6,0.1-0.7,0.4
		c-0.1-0.4-0.4-0.6-0.8-0.6c-0.4,0-0.6,0.3-0.6,0.7c-0.1-0.3-0.5-0.5-0.8-0.4c-0.1,0.1-0.2,0.2-0.3,0.3c0-0.1-0.1-0.2-0.1-0.2
		c-0.1-0.3-0.5-0.4-0.8-0.2c-0.2,0.1-0.3,0.3-0.3,0.5c-0.1-0.1-0.3-0.1-0.4,0c-0.2,0.1-0.2,0.2-0.2,0.4h-0.1l-0.1-0.1
		c-0.2-0.1-0.4,0-0.5,0.1c-0.1,0.2,0,0.4,0.1,0.5c-0.1,0-0.1,0-0.2,0c-0.2,0-0.3,0.1-0.3,0.3s0.1,0.4,0.3,0.4c0.1,0,0.2,0,0.4-0.1
		l-0.1,0.1c-0.1,0.1,0,0.3,0.1,0.4c0.1,0.1,0.3,0.1,0.4,0c0,0.1,0,0.2,0.1,0.3c0.1,0.1,0.3,0.1,0.4,0c0,0.2,0.1,0.4,0.2,0.5
		c0.2,0.2,0.5,0.1,0.7-0.1c0,0,0.1,0,0.1-0.1c0,0.3,0.1,0.6,0.4,0.7c0.2,0.1,0.3,0.1,0.5,0c0.1,0.1,0.2,0.2,0.3,0.3
		c0.2,0.1,0.4,0.1,0.6,0c0.1,0.1,0.2,0.2,0.3,0.3c0.2,0.1,0.4,0.1,0.6,0.1c0,0.1,0.1,0.3,0.2,0.4c-0.1,0.2-0.2,0.3-0.3,0.5
		c-0.3-0.1-0.7-0.1-1,0c-0.5,0.2-0.7,0.7-0.6,1.1c-0.3-0.2-0.8-0.2-1.1,0c-0.4,0.3-0.6,0.8-0.4,1.2c-0.4-0.3-1-0.3-1.3,0.1
		c-0.3,0.3-0.4,0.7-0.2,1c-0.5-0.2-1-0.1-1.3,0.3c-0.2,0.4-0.1,0.9,0.3,1.2c-0.4-0.1-0.9,0.1-1,0.5c-0.1,0.2-0.1,0.3,0,0.5
		c-0.1,0-0.1,0-0.2,0c-0.5,0-0.9,0.3-0.9,0.7c0,0.2,0.1,0.4,0.3,0.6c-0.2,0-0.4,0.2-0.4,0.4s0.1,0.4,0.3,0.5v0.1c-0.1,0-0.2,0-0.2,0
		c-0.2,0.1-0.3,0.3-0.8,0.2c0.1,0.2,0.3,0.3,0.5,0.3c-0.1,0.1-0.2,0.1-0.2,0.2c-0.1,0.2-0.1,0.5,0.1,0.6c0.2,0.2,0.5,0.2,0.6,0
		c0.1-0.1,0.2-0.3,0.3-0.5c0,0.1,0,0.2,0,0.2c0.1,0.2,0.3,0.3,0.5,0.3s0.3-0.1,0.3-0.3c0.1,0.1,0.3,0.1,0.4,0.1
		c0.2-0.1,0.4-0.2,0.4-0.4c0.2,0.2,0.4,0.2,0.6,0.2c0.4-0.1,0.6-0.4,0.5-0.8c0,0-0.1-0.1-0.1-0.2c0.2,0.3,0.7,0.4,1,0.2
		c0.2-0.1,0.3-0.3,0.4-0.5c0.2,0.1,0.4,0.1,0.6,0c0.2-0.1,0.4-0.3,0.5-0.6c0.1,0.1,0.3,0.1,0.5,0c0-0.1,0.1-0.1,0.1-0.1
		c0.1,0.1,0.2,0.2,0.3,0.2c-0.4,0-0.7,0.2-0.7,0.5c0,0.2,0,0.3,0.1,0.4c-0.1,0-0.2,0-0.2,0c-0.3,0-0.5,0.3-0.5,0.6
		c0,0.2,0.1,0.3,0.3,0.4c-0.1,0.1-0.2,0.3-0.2,0.4c0.1,0.1,0.2,0.3,0.3,0.3v0.1h-0.1c-0.1,0.1-0.2,0.3-0.1,0.4
		c0.1,0.1,0.2,0.2,0.4,0.1c0,0.1-0.1,0.2-0.1,0.2c0,0.2,0,0.3,0.2,0.4c0.1,0.1,0.3,0.1,0.4-0.1c0-0.1,0.1-0.2,0.1-0.4v0.1
		c0.1,0.1,0.3,0.2,0.4,0.1c0.2-0.1,0.2-0.2,0.2-0.3c0.1,0,0.2,0,0.3,0c0.1,0,0.2-0.2,0.2-0.3c0.2,0.1,0.3,0.1,0.5,0
		c0.2-0.1,0.3-0.4,0.2-0.6c0,0-0.1,0-0.1-0.1c0.3,0.2,0.6,0.2,0.8,0c0.1-0.1,0.2-0.2,0.2-0.4c0.1,0,0.3,0,0.4-0.1
		c0.2-0.1,0.3-0.3,0.3-0.5c0.2,0,0.3,0,0.4-0.1c0.2-0.1,0.3-0.2,0.3-0.4c0.3,0,0.5,0,0.7-0.1c0.3-0.2,0.4-0.4,0.4-0.6
		c0.2,0,0.3,0,0.5-0.1c0.1-0.1,0.2-0.2,0.3-0.3c0.1,3.4,0.1,12.3-0.1,22c-0.4,0-0.9,0.1-1.3,0.1c-2.3-1.8-5.3-2.9-8.7-2.9
		c-3.1,0-6,0.9-8.2,2.5c-1.9-1.2-4.2-1.9-6.8-1.9c-4.3,0-8,2-9.9,4.9c-0.1,0-0.2,0-0.3,0c-1.2-0.5-2.5-0.9-3.9-1
		c-0.9-0.4-1.9-0.7-3-0.7c-2.3-2.5-5.9-4.2-10.1-4.2c-0.3,0-0.6,0-0.8,0.1c-0.9-0.2-1.7-0.3-2.7-0.3c-2.1,0-4.1,0.4-5.9,1.2
		c-1.8-0.8-3.8-1.2-5.9-1.2c-2.8,0-5.3,0.8-7.4,2c-0.4-0.2-0.8-0.4-1.2-0.5c-2-1.5-4.6-2.4-7.5-2.4c-1.8,0-3.4,0.3-4.9,0.9
		c-0.2,0-0.4,0-0.6,0c-0.8,0-1.5,0.1-2.2,0.2c-1.6-2.4-4.5-4.1-7.8-4.6c-1.6-0.6-3.5-1-5.4-1c-4.5,0-8.4,1.9-10.6,4.8
		c-0.5,0-0.9-0.1-1.4-0.1c-1.4,0-2.8,0.2-4,0.6c-2.1-3.4-6.3-5.7-11.2-5.7c-2.1,0-4.1,0.4-5.9,1.2c-1.8-0.8-3.8-1.2-5.9-1.2
		c-2,0-3.9,0.4-5.6,1.1c-1.5-0.5-3.1-0.8-4.8-0.8c-0.8,0-1.6,0.1-2.4,0.2c-1.2-0.3-2.5-0.5-3.8-0.5c-0.9,0-1.7,0.1-2.5,0.2
		c-0.8-0.1-1.7-0.2-2.5-0.2c-0.7,0-1.5,0.1-2.2,0.2c-1.2-0.7-2.4-1.4-3.7-2c-2.3-2.2-5.7-3.6-9.5-3.6c-1.4,0-2.8,0.2-4.1,0.6
		c-0.4,0-0.7,0-1.1,0c-7.6,0-14.6,2.3-20,6.1c0,0,0,0-0.1,0c-0.7,0-1.3,0.1-1.9,0.2c-0.1,0-0.3,0-0.4,0.1c-1.9-1-4.1-1.5-6.5-1.5
		c-1.4,0-2.8,0.2-4,0.6c-2-3.5-6.4-6-11.4-6c-4.8,0-8.9,2.2-11.1,5.5c-0.1,0-0.1,0-0.2,0c-0.1,0-0.3,0-0.4,0c-1.2-1.2-3-1.9-5.1-1.9
		c-0.7,0-1.3,0.1-1.9,0.2c-1.6,0.1-3.1,0.7-4.2,1.7c-0.1,0-0.1,0-0.2,0c-0.3,0-0.7,0-1,0c-0.7,0-1.3,0.1-1.9,0.1
		c-0.5-0.1-1.1-0.1-1.6-0.1c-1.2-1-2.7-1.6-4.5-1.7c-2.3-2.5-5.9-4.2-10.1-4.2c-1.2,0-2.4,0.2-3.6,0.4c-3.7,0.3-7,2-9,4.4
		c-0.3,0-0.6,0-0.9,0.1c-1-0.5-2.1-0.7-3.4-0.7c-0.7,0-1.4,0.1-2.1,0.3c0,0-0.1,0-0.1-0.1c-2.3-2.4-5.9-4-9.9-4
		c-1.5,0-2.9,0.2-4.2,0.6c-0.5,0-0.9,0-1.4,0c-3.5,0-6.8,0.5-10,1.4c-2-1.2-4.5-1.9-7.2-1.9c-2.9,0-5.6,0.8-7.7,2.2
		c-0.8-12.2-1.9-34.8-2-43.2c0.2,0.2,0.4,0.4,0.7,0.4c0,0.1,0,0.3,0.2,0.5c0.1,0.2,0.3,0.2,0.4,0.3c-0.1,0.2-0.1,0.4,0.1,0.6
		c0.1,0.1,0.2,0.2,0.4,0.3c0,0.2,0,0.3,0.1,0.5c0.2,0.3,0.5,0.4,0.8,0.4c0,0.1-0.1,0.1-0.1,0.1c-0.2,0.2-0.2,0.5,0,0.7
		c0.1,0.1,0.3,0.2,0.5,0.2c-0.1,0.1,0,0.3,0.1,0.4c0.1,0,0.2,0.1,0.3,0.1c0,0.1,0,0.2,0.1,0.3c0.2,0.2,0.4,0.2,0.5,0.1l0.1-0.1
		c0,0.2,0,0.3,0,0.4c0,0.1,0.2,0.3,0.4,0.3s0.3-0.1,0.3-0.3c0,0-0.1-0.1-0.1-0.2c0.1,0.1,0.4,0.2,0.5,0.1c0.1-0.1,0.1-0.3,0-0.4
		l-0.1-0.1c0-0.1,0-0.1,0-0.1c0.2,0.1,0.3,0,0.4-0.1c0-0.1,0-0.3-0.1-0.4c0.2,0,0.4-0.1,0.5-0.2c0.2-0.3,0-0.6-0.3-0.8
		c-0.1,0-0.1-0.1-0.2-0.1c0.1-0.1,0.2-0.2,0.2-0.3c0.1-0.2-0.1-0.6-0.5-0.7c0.4,0,0.7-0.2,0.7-0.5c0-0.4-0.4-0.7-0.8-0.8
		c0.2-0.1,0.3-0.3,0.3-0.6c0.1,0,0.2,0,0.3,0c0,0.2,0.1,0.4,0.4,0.5c0.2,0.1,0.4,0.1,0.6,0.1c0,0.1,0.1,0.3,0.3,0.4
		c0.3,0.2,0.7,0.2,1,0l-0.1,0.1c-0.2,0.3,0,0.6,0.3,0.7c0.2,0.1,0.4,0.1,0.6,0c0,0.1,0.1,0.2,0.3,0.3c0.2,0,0.3,0,0.4,0
		c-0.1,0.1,0,0.2,0.2,0.3c0.2,0,0.4-0.1,0.5-0.2c0.1,0,0.1-0.1,0.1-0.1c0.1,0.2,0.1,0.3,0.2,0.4c0.1,0.1,0.4,0.2,0.6,0.1
		c0.2-0.1,0.3-0.2,0.2-0.4c0-0.1-0.1-0.1-0.2-0.2c0.2,0,0.4,0,0.5-0.2c0.1-0.1,0-0.3-0.2-0.4c-0.1,0-0.1,0-0.2,0v-0.1
		c0.1,0,0.3-0.1,0.3-0.3s-0.1-0.3-0.3-0.4c0.2-0.1,0.4-0.3,0.4-0.5c0.1-0.3-0.3-0.6-0.7-0.6c0,0-0.1,0-0.2,0
		c0.1-0.1,0.1-0.3,0.1-0.4c-0.1-0.3-0.5-0.5-0.9-0.5c0.4-0.2,0.7-0.6,0.5-0.9c-0.2-0.3-0.7-0.5-1.2-0.4c0.3-0.2,0.3-0.6,0.1-0.8
		c-0.3-0.4-0.8-0.5-1.3-0.3c0.3-0.2,0.2-0.6-0.1-0.9c-0.3-0.2-0.7-0.3-1.1-0.2c0.2-0.3,0.1-0.7-0.3-0.9c-0.3-0.1-0.7-0.2-1-0.1
		c-0.1-0.1-0.1-0.1-0.1-0.2c0-0.1,0-0.1,0-0.1c0.2,0.1,0.3,0.1,0.5,0c0.1,0,0.2-0.1,0.3-0.2c0.1,0.1,0.3,0.2,0.5,0.1
		c0.2,0,0.3-0.1,0.4-0.2c0.1,0.1,0.2,0.1,0.4,0.1s0.4-0.3,0.5-0.5v0.1c0,0.2,0.3,0.3,0.5,0.2c0.1,0,0.2-0.2,0.3-0.3
		c0,0,0.2,0.1,0.3,0c0.1-0.1,0.2-0.1,0.2-0.2c0.1,0,0.2,0.1,0.3,0c0.1,0,0.2-0.2,0.2-0.3V6.5c0.1,0,0.2,0.1,0.3,0.1
		c0.2,0.1,0.3,0,0.4-0.2c0.1-0.1,0-0.3-0.1-0.3c0,0-0.1,0-0.2,0c0.1-0.1,0.2-0.3,0.2-0.4c0-0.1-0.1-0.2-0.3-0.1
		c0,0.1-0.1,0.1-0.1,0.1c0-0.1,0-0.1,0-0.1c0.1-0.2,0.1-0.3,0-0.4c0-0.1-0.2-0.2-0.3-0.1c0.1-0.1,0.1-0.3,0-0.4
		c-0.1-0.2-0.5-0.2-0.7,0c0,0-0.1,0-0.1,0.1c0-0.1,0-0.2-0.1-0.3c-0.2-0.1-0.5-0.1-0.7,0.2c0.1-0.3,0.1-0.6-0.2-0.7
		c-0.2-0.1-0.6,0.1-0.8,0.4c0-0.2-0.2-0.4-0.4-0.4c-0.3,0-0.6,0.2-0.8,0.5c-0.1-0.2-0.3-0.4-0.6-0.4c-0.3,0.1-0.6,0.3-0.7,0.5
		c-0.1-0.2-0.3-0.3-0.6-0.3c0.1-0.1,0.1-0.1,0.1-0.2c0.2,0.1,0.3,0,0.5-0.1c0.1-0.1,0.2-0.3,0.2-0.4c0.1,0,0.3,0,0.4-0.1
		c0.3-0.2,0.4-0.5,0.3-0.7c0.1,0,0.1,0.1,0.1,0.1c0.2,0.1,0.4,0.1,0.6-0.1c0.1-0.1,0.1-0.3,0.1-0.4c0.1,0.1,0.2,0,0.3-0.1
		s0.1-0.2,0.1-0.3c0.1,0,0.2,0,0.3-0.1c0.1-0.1,0.1-0.3,0-0.4c0-0.1-0.1-0.1-0.1-0.1c0.1,0,0.2,0,0.3,0c0.1-0.1,0.2-0.2,0.2-0.4
		c-0.1-0.1-0.2-0.2-0.3-0.2c-0.1,0-0.1,0.1-0.2,0.1c0.1-0.1,0.1-0.3,0-0.4c0-0.1-0.2-0.1-0.3,0l-0.1,0.1c-0.1,0-0.1,0-0.1,0
		c0.1-0.1,0-0.2-0.1-0.3c-0.1,0-0.2,0-0.3,0.1c0-0.2-0.1-0.3-0.2-0.4c-0.2-0.1-0.5,0-0.6,0.3c-0.1,0.1-0.1,0.1-0.1,0.2
		c0-0.1-0.1-0.2-0.2-0.2c-0.3,0-0.5,0.2-0.6,0.5c0-0.4-0.2-0.6-0.5-0.6s-0.6,0.3-0.6,0.7c-0.1-0.2-0.3-0.3-0.5-0.2
		c-0.3,0.1-0.5,0.4-0.5,0.8c-0.2-0.3-0.4-0.4-0.7-0.2c-0.2,0.1-0.4,0.4-0.4,0.7c-0.2-0.2-0.5-0.2-0.7,0c-0.2,0.1-0.3,0.4-0.3,0.6
		c-0.1,0-0.3,0.1-0.5,0.2c-0.3,0.2-0.4,0.6-0.4,0.9c-0.1-0.1-0.1-0.1-0.1-0.1c-0.3-0.2-0.7-0.1-1,0.3c0,0-0.1,0.1-0.1,0.2l-0.1,0.1
		l-0.1,0.1c0-0.3-0.2-0.7-0.5-0.9c-0.2-0.1-0.5-0.1-0.7,0c0-0.3-0.2-0.5-0.4-0.6c-0.3-0.1-0.7-0.1-0.9,0.2c-0.1-0.3-0.3-0.6-0.6-0.7
		c-0.4-0.1-0.7,0-0.9,0.3c0-0.3-0.3-0.7-0.7-0.7c-0.3,0-0.6,0.2-0.7,0.4c-0.1-0.4-0.4-0.6-0.8-0.6c-0.4,0-0.6,0.3-0.6,0.7
		c-0.2-0.3-0.5-0.5-0.8-0.4c-0.1,0.1-0.2,0.2-0.3,0.3c0-0.1-0.1-0.2-0.1-0.2c-0.2-0.3-0.5-0.4-0.8-0.2c-0.2,0.1-0.3,0.3-0.3,0.5
		c-0.1-0.1-0.3-0.1-0.4,0c-0.2,0.1-0.2,0.3-0.2,0.4c-0.1,0-0.1,0-0.1,0l-0.1-0.1c-0.1-0.1-0.3,0-0.4,0.1c-0.1,0.1,0,0.3,0.1,0.4
		c-0.1,0-0.1,0-0.2,0c-0.2,0-0.3,0.1-0.3,0.3c0,0.1,0.1,0.3,0.3,0.3c0.1,0,0.2-0.1,0.4-0.1c-0.1,0-0.1,0.1-0.1,0.1
		c-0.1,0.1-0.1,0.3,0,0.4c0.1,0.1,0.2,0.1,0.3,0c0,0,0,0.1,0.1,0.2c0.1,0.1,0.3,0.1,0.4,0c0,0.1,0.1,0.3,0.2,0.4
		c0.2,0.1,0.5,0.1,0.7-0.1c0,0,0.1,0,0.1-0.1c-0.1,0.3,0,0.6,0.3,0.7c0.2,0.1,0.4,0.1,0.5,0c0.1,0.1,0.2,0.2,0.3,0.3
		c0.2,0.1,0.4,0.1,0.6,0c0.1,0.1,0.2,0.2,0.3,0.3c0.2,0.1,0.4,0.1,0.6,0.1c0.1,0.1,0.1,0.3,0.2,0.4c-0.1,0.2-0.2,0.3-0.3,0.5
		c-0.3-0.1-0.6-0.1-0.9,0c-0.4,0.2-0.6,0.6-0.5,1c-0.3-0.2-0.8-0.2-1.1,0c-0.4,0.2-0.6,0.7-0.4,1.1c-0.4-0.3-1-0.2-1.3,0.1
		c-0.2,0.2-0.2,0.6-0.1,0.9c-0.4-0.2-1-0.1-1.2,0.3c-0.3,0.4-0.2,0.8,0.2,1.1c-0.4-0.2-0.9,0-1,0.4c-0.1,0.2-0.1,0.3,0,0.5
		c-0.1,0-0.1,0-0.2,0c-0.4-0.1-0.8,0.2-0.8,0.6c0,0.2,0.1,0.4,0.3,0.6c-0.1,0.1-0.3,0.2-0.3,0.4c-0.1,0.2,0,0.4,0.2,0.5v0.1
		c-0.1,0-0.2,0-0.2,0c-0.2,0.1-0.3,0.3-0.2,0.6c0.1,0.2,0.3,0.3,0.5,0.3c-0.1,0.1-0.2,0.2-0.2,0.2c-0.1,0.1-0.1,0.4,0.1,0.5
		c0.2,0.2,0.5,0.2,0.6,0c0-0.1,0.1-0.3,0.2-0.5c0,0.1,0,0.2,0,0.2c0,0.2,0.2,0.3,0.4,0.3s0.3-0.1,0.3-0.3c0.1,0.1,0.2,0.1,0.3,0.1
		c0.1-0.1,0.3-0.2,0.3-0.4c0.2,0.1,0.4,0.1,0.6,0.1c0.4,0,0.6-0.4,0.5-0.7c0-0.1-0.1-0.1-0.1-0.2c0.3,0.3,0.7,0.4,1,0.2
		c0.2-0.1,0.4-0.3,0.4-0.5c0.2,0.1,0.4,0.1,0.6,0c0.3-0.1,0.4-0.4,0.5-0.6c0.2,0,0.3,0,0.5,0c0-0.1,0.1-0.1,0.1-0.1
		c0.1,0.1,0.2,0.2,0.3,0.2c-0.3,0-0.6,0.2-0.6,0.5c0,0.2,0,0.3,0.1,0.4c-0.1,0-0.2,0-0.2,0c-0.3,0-0.5,0.3-0.5,0.6
		c0,0.2,0.1,0.3,0.3,0.4c-0.1,0-0.2,0.2-0.2,0.3c0.1,0.2,0.2,0.3,0.3,0.3v0.1h-0.1c-0.1,0.1-0.2,0.3-0.1,0.4
		c0.1,0.1,0.3,0.2,0.4,0.1c0,0.1-0.1,0.2-0.1,0.2c-0.1,0.2-0.1,0.3,0.1,0.4c0.1,0.1,0.3,0,0.4-0.1c0-0.1,0.1-0.3,0.1-0.4v0.1
		c0.1,0.1,0.3,0.2,0.4,0.1s0.1-0.2,0.1-0.3c0.1,0,0.2,0,0.3,0c0.2,0,0.2-0.2,0.2-0.3c0.1,0.1,0.3,0.1,0.4,0c0.2-0.1,0.3-0.4,0.2-0.6
		l-0.1-0.1c0.2,0.2,0.5,0.2,0.7,0c0.1-0.1,0.2-0.3,0.2-0.4c0.1,0,0.3,0,0.4-0.1c0.2-0.1,0.3-0.3,0.3-0.5c0.2,0,0.3,0,0.4-0.1
		c0.2-0.1,0.3-0.2,0.3-0.4c0.2,0,0.4,0,0.6-0.1c0.2-0.1,0.3-0.3,0.3-0.5c0.2,0,0.3,0,0.5-0.1c0.1,0,0.2-0.1,0.3-0.2
		c0.2,6,0.1,30.1-0.8,43.3c-1.3-0.4-2.7-0.7-4.2-0.7c-0.9,0-1.7,0.1-2.5,0.2c-1.8-0.9-4-1.4-6.3-1.4c-2.8,0-5.3,0.7-7.4,2
		c-2.2-1.5-5-2.4-8-2.4c-5,0-9.3,2.4-11.3,5.9c-0.2,0-0.5,0-0.7,0c-1.2-1.1-2.9-1.8-4.8-1.9c-2.3-2.4-5.9-4-9.9-4
		c-2.4,0-4.6,0.6-6.5,1.5c-3.3-1-6.8-1.5-10.5-1.5c-3,0-6,0.4-8.7,1.1c-3.7,0.3-7.2,1.2-10.4,2.5c-1.9-1.2-4.3-2-6.9-2
		c-3.5,0-6.5,1.3-8.6,3.4c-1.1-0.6-2.4-1-3.8-1c-1.4,0-2.6,0.4-3.7,0.9c-2.3-2.7-6.1-4.5-10.3-4.5c-2.9,0-5.6,0.8-7.7,2.2
		c-3.3-1.1-6.9-1.6-10.6-1.6c-0.3-11.9-0.3-24.7-0.2-28.8c0.1,0.1,0.2,0.2,0.3,0.2c0.2,0.1,0.3,0.1,0.5,0.1c0,0.2,0.1,0.4,0.3,0.5
		c0.2,0.1,0.4,0.1,0.6,0.1c0,0.2,0.1,0.3,0.3,0.4c0.1,0.1,0.2,0.1,0.4,0.1c0,0.2,0.1,0.4,0.3,0.5c0.1,0.1,0.3,0.1,0.4,0.1
		c0,0.1,0.1,0.3,0.2,0.4c0.2,0.2,0.5,0.2,0.7,0l-0.1,0.1c-0.1,0.2,0,0.5,0.2,0.6c0.1,0.1,0.3,0.1,0.4,0c0,0.1,0,0.3,0.2,0.3
		c0.1,0,0.2,0,0.3,0c0,0.1,0,0.2,0.1,0.3c0.1,0.1,0.3,0,0.4-0.1v-0.1c0,0.1,0.1,0.3,0.1,0.4c0.1,0.1,0.3,0.2,0.4,0.1
		c0.2-0.1,0.2-0.2,0.1-0.4c0,0-0.1-0.1-0.1-0.2c0.1,0.1,0.3,0,0.4-0.1c0.1-0.1,0-0.3-0.1-0.4h-0.1v-0.1c0.1,0,0.2-0.1,0.3-0.3
		c0-0.1-0.1-0.3-0.2-0.3c0.2-0.1,0.3-0.2,0.3-0.4c0-0.3-0.2-0.6-0.5-0.6c0,0-0.1,0-0.2,0c0.1-0.1,0.1-0.2,0.1-0.4
		c0-0.3-0.3-0.5-0.6-0.5c0.1,0,0.2-0.1,0.3-0.2c0,0,0.1,0,0.1,0.1c0.2,0,0.3,0,0.5,0c0.1,0.2,0.2,0.5,0.5,0.6c0.2,0.1,0.4,0.1,0.6,0
		c0,0.2,0.2,0.4,0.4,0.5c0.3,0.2,0.7,0.1,1-0.2c0,0.1-0.1,0.1-0.1,0.2c-0.1,0.3,0.1,0.7,0.5,0.7c0.2,0,0.4,0,0.6-0.1
		c0,0.2,0.2,0.3,0.3,0.4c0.1,0,0.2,0,0.3-0.1c0,0.2,0.1,0.3,0.3,0.3s0.4-0.1,0.4-0.3c0,0,0-0.1,0-0.2c0.1,0.2,0.2,0.4,0.2,0.5
		c0.1,0.2,0.4,0.2,0.6,0c0.2-0.1,0.2-0.4,0.1-0.5c0,0-0.1-0.1-0.2-0.2c0.2,0,0.4-0.1,0.5-0.3c0.1-0.4,0-0.6-0.2-0.6c0,0-0.1,0-0.2,0
		v-0.1c0.2-0.1,0.3-0.3,0.2-0.5c0-0.2-0.2-0.3-0.3-0.4c0.2-0.2,0.3-0.4,0.3-0.6c0-0.4-0.4-0.7-0.8-0.6c-0.1,0-0.1,0-0.2,0
		c0.1-0.2,0.1-0.3,0-0.5c-0.1-0.4-0.6-0.6-1-0.4c0.4-0.3,0.5-0.7,0.2-1.1c-0.2-0.4-0.8-0.5-1.2-0.3c0.1-0.3,0.1-0.7-0.1-0.9
		c-0.3-0.3-0.9-0.4-1.3-0.1c0.2-0.4,0-0.9-0.4-1.1c-0.3-0.2-0.8-0.2-1.1,0c0.1-0.4-0.1-0.8-0.5-1c-0.3-0.1-0.6-0.1-0.9,0
		c-0.1-0.2-0.2-0.3-0.3-0.5c0.1-0.1,0.1-0.3,0.2-0.4c0.2,0,0.4,0,0.6-0.1c0.1-0.1,0.2-0.2,0.3-0.3c0.2,0.1,0.4,0.1,0.6,0
		c0.1-0.1,0.2-0.2,0.3-0.3c0.1,0.1,0.3,0.1,0.5,0c0.3-0.1,0.4-0.4,0.3-0.7c0,0.1,0.1,0.1,0.1,0.1c0.2,0.2,0.5,0.2,0.7,0.1
		c0.1-0.1,0.2-0.3,0.2-0.4c0.1,0.1,0.3,0.1,0.4,0c0.1-0.1,0.1-0.2,0.1-0.2c0.1,0.1,0.2,0.1,0.3,0c0.1-0.1,0.1-0.3,0-0.4
		c0,0,0-0.1-0.1-0.1c0.2,0,0.3,0.1,0.4,0.1c0.2,0,0.3-0.2,0.3-0.3c0-0.2-0.1-0.3-0.3-0.3c-0.1,0-0.1,0-0.2,0
		c0.1-0.1,0.2-0.3,0.1-0.4c-0.1-0.1-0.3-0.2-0.4-0.1l-0.1,0.1c0,0,0,0-0.1,0c0-0.1,0-0.3-0.2-0.4c-0.1-0.1-0.3-0.1-0.4,0
		c0-0.2-0.1-0.4-0.3-0.5c-0.3-0.2-0.6-0.1-0.8,0.2c0,0-0.1,0.1-0.1,0.2c-0.1-0.1-0.2-0.2-0.3-0.3c-0.3-0.1-0.6,0.1-0.8,0.4
		c0-0.4-0.2-0.7-0.6-0.7c-0.4,0-0.7,0.2-0.8,0.6c-0.1-0.2-0.4-0.4-0.7-0.4c-0.4,0-0.7,0.4-0.7,0.7c-0.2-0.3-0.5-0.4-0.9-0.3
		c-0.3,0.1-0.5,0.4-0.6,0.7c-0.2-0.3-0.6-0.3-0.9-0.2c-0.2,0.1-0.4,0.3-0.4,0.6c-0.2-0.1-0.5-0.1-0.7,0c-0.3,0.2-0.5,0.6-0.5,0.9
		l-0.1-0.1l-0.1-0.1c0-0.1-0.1-0.2-0.1-0.2c-0.3-0.4-0.7-0.5-1-0.3c0,0,0,0-0.1,0.1c0-0.3-0.1-0.7-0.4-0.9c-0.2-0.1-0.4-0.2-0.5-0.2
		c0-0.2-0.1-0.5-0.3-0.6c-0.2-0.2-0.5-0.2-0.7,0c0-0.3-0.2-0.6-0.4-0.7c-0.3-0.2-0.5-0.1-0.7,0.2c0-0.4-0.2-0.7-0.5-0.8
		c-0.2-0.1-0.4,0-0.5,0.2c0-0.4-0.3-0.7-0.6-0.7s-0.5,0.2-0.5,0.6c-0.1-0.3-0.3-0.5-0.6-0.5c-0.1,0-0.2,0.1-0.2,0.2
		c0-0.1,0-0.1-0.1-0.2c-0.1-0.3-0.4-0.4-0.6-0.3c-0.1,0.1-0.2,0.2-0.2,0.4c-0.1-0.1-0.2-0.1-0.3-0.1c-0.1,0.1-0.2,0.2-0.1,0.3
		c0,0,0,0-0.1,0l-0.1-0.1c-0.1-0.1-0.3-0.1-0.3,0c-0.1,0.1-0.1,0.3,0,0.4c-0.1,0-0.1-0.1-0.2-0.1c-0.1,0-0.2,0.1-0.3,0.2
		c0,0.2,0.1,0.3,0.2,0.4c0.1,0,0.2,0,0.3,0c0,0-0.1,0-0.1,0.1c-0.1,0.1-0.1,0.3,0,0.4c0.1,0.1,0.2,0.1,0.3,0.1c0,0.1,0,0.2,0.1,0.3
		c0.1,0.1,0.2,0.2,0.3,0.1c0,0.1,0,0.3,0.1,0.4c0.2,0.2,0.4,0.2,0.6,0.1c0,0,0-0.1,0.1-0.1c-0.1,0.2,0,0.5,0.3,0.7
		c0.1,0.1,0.3,0.1,0.4,0.1c0,0.1,0.1,0.3,0.2,0.4c0.2,0.1,0.3,0.2,0.5,0.1c0,0.1,0,0.1,0.1,0.2c-0.3,0-0.5,0.1-0.6,0.3
		c-0.1-0.2-0.4-0.4-0.7-0.5c-0.3,0-0.5,0.2-0.6,0.4c-0.2-0.3-0.5-0.5-0.8-0.5c-0.2,0-0.4,0.2-0.4,0.4c-0.2-0.3-0.6-0.5-0.8-0.4
		c-0.3,0.1-0.3,0.4-0.2,0.7c-0.2-0.3-0.5-0.3-0.7-0.2c-0.1,0.1-0.1,0.2-0.1,0.3c0-0.1-0.1-0.1-0.1-0.1c-0.2-0.2-0.6-0.2-0.7,0
		c-0.1,0.1-0.1,0.3,0,0.4c-0.1-0.1-0.3,0-0.3,0.1c-0.1,0.1-0.1,0.2,0,0.4c0,0,0,0,0,0.1c0,0-0.1,0-0.1-0.1c-0.2-0.1-0.3,0-0.3,0.1
		c0,0.1,0.1,0.3,0.2,0.4c-0.1,0-0.2,0-0.2,0c-0.1,0-0.2,0.2-0.1,0.3c0.1,0.2,0.2,0.3,0.4,0.2c0.1,0,0.2-0.1,0.3-0.1v0.1
		c0,0.1,0.1,0.3,0.2,0.3c0.1,0.1,0.2,0,0.3,0c0,0.1,0.1,0.1,0.2,0.2c0.1,0.1,0.3,0,0.3,0c0.1,0.1,0.2,0.3,0.3,0.3
		c0.2,0.1,0.5,0,0.5-0.2v-0.1c0.1,0.2,0.3,0.5,0.5,0.5s0.3,0,0.4-0.1c0.1,0.1,0.2,0.2,0.4,0.2c0.2,0.1,0.4,0,0.5-0.1
		c0.1,0.1,0.2,0.2,0.3,0.2c0.2,0.1,0.3,0.1,0.5,0c0,0,0,0,0,0.1c0,0.1,0,0.1-0.1,0.2c-0.3-0.1-0.7,0-1,0.1c-0.4,0.2-0.5,0.6-0.3,0.9
		c-0.4-0.1-0.8,0-1.1,0.2c-0.3,0.3-0.4,0.7-0.1,0.9c-0.5-0.2-1-0.1-1.3,0.3c-0.2,0.2-0.2,0.6,0.1,0.8c-0.5-0.1-1,0.1-1.2,0.4
		c-0.2,0.3,0.1,0.7,0.5,0.9c-0.4,0-0.8,0.2-0.9,0.5c0,0.1,0,0.3,0.1,0.4c-0.1,0-0.2,0-0.2,0c-0.4,0-0.8,0.3-0.7,0.6
		c0,0.2,0.2,0.4,0.4,0.5c-0.2,0.1-0.3,0.2-0.3,0.4c0,0.2,0.2,0.3,0.3,0.3v0.1c-0.1,0-0.1,0-0.2,0c-0.2,0.1-0.3,0.3-0.2,0.4
		c0.1,0.2,0.3,0.2,0.5,0.2c-0.1,0.1-0.2,0.1-0.2,0.2c-0.1,0.2,0,0.3,0.2,0.4s0.5,0,0.6-0.1c0.1-0.1,0.1-0.2,0.2-0.4
		c0,0,0,0.1,0.1,0.1c0.1,0.1,0.3,0.2,0.5,0.2c0.2-0.1,0.3-0.2,0.2-0.3c0.1,0,0.2,0,0.4,0c0.2-0.1,0.3-0.2,0.3-0.3
		c0.2,0.1,0.4,0.1,0.6,0c0.3-0.1,0.5-0.4,0.3-0.7l-0.1-0.1c0.3,0.2,0.7,0.2,1,0c0.2-0.1,0.3-0.3,0.3-0.4c0.2,0,0.4,0,0.6-0.1
		c0.3-0.1,0.4-0.3,0.4-0.5c0.1,0,0.2,0,0.3,0c0,0.3,0.1,0.5,0.3,0.6c-0.4,0.1-0.8,0.4-0.8,0.8c0,0.3,0.3,0.5,0.7,0.5
		c-0.4,0.1-0.6,0.5-0.5,0.7c0,0.1,0.1,0.2,0.2,0.3c-0.1,0-0.1,0.1-0.2,0.1c-0.3,0.2-0.5,0.5-0.3,0.8c0.1,0.1,0.3,0.2,0.5,0.2
		c-0.1,0.1-0.1,0.3-0.1,0.4c0.1,0.1,0.2,0.2,0.4,0.1c0,0,0,0,0,0.1l-0.1,0.1c-0.1,0.1-0.1,0.3,0,0.4s0.4,0,0.5-0.1
		c0,0.1-0.1,0.2-0.1,0.2c0,0.2,0.1,0.3,0.3,0.3s0.4-0.2,0.4-0.3c0-0.1,0-0.2,0-0.4l0.1,0.1c0.1,0.1,0.3,0.1,0.5-0.1
		c0.1-0.1,0.1-0.2,0.1-0.3c0.1,0,0.2-0.1,0.3-0.1c0.1-0.1,0.2-0.3,0.1-0.4c0.2,0,0.4-0.1,0.5-0.2c0.2-0.2,0.2-0.5,0-0.7
		c0,0-0.1,0-0.1-0.1c0.3,0,0.6-0.1,0.8-0.4c0.1-0.2,0.1-0.3,0.1-0.5c0.2-0.1,0.3-0.2,0.4-0.3c0.2-0.2,0.2-0.4,0.1-0.6
		c0.1-0.1,0.3-0.1,0.4-0.3c0.2-0.2,0.2-0.4,0.2-0.5c0.3,0,0.5-0.2,0.7-0.4c-0.1,5.6-0.6,17.7-1.1,28.7c-3.4,0.4-6.7,1.3-9.7,2.5
		c-2.3-2.3-5.7-3.7-9.6-3.7c-1.2,0-2.4,0.2-3.6,0.4c-3.7,0.3-7,2-9,4.4c-0.3,0-0.6,0-0.9,0.1c-1-0.5-2.1-0.7-3.4-0.7
		c-0.1,0-0.2,0-0.3,0c-1.3-0.6-2.7-1.2-4.1-1.6c-2.1-1.4-4.8-2.2-7.7-2.2c-1.5,0-2.9,0.2-4.2,0.6c-3.7,0.1-7.2,0.8-10.5,1.9
		c-2.2-1.5-5-2.5-8.1-2.5c-2.5,0-4.9,0.6-6.9,1.7c-0.1,0-0.3,0-0.4,0c0.6-0.7,1.2-1.6,1.7-2.3c0.1-0.1,0.2-0.2,0.3-0.3
		c0.6-0.7,1.2-1.3,1.8-2c0.5,0.1,1.4,0.2,2,0c-0.6,0-1.3-0.1-1.9-0.1c0.5-0.5,0.9-1.1,1.4-1.6c0.4-0.4,0.8-0.9,1.2-1.3
		c0.4-0.2,1-0.2,1.1-0.3c-0.3,0-0.7,0.1-1,0.1c0.5-0.6,1.1-1.2,1.6-1.8l-1.9,1.9l-1.3,1.3l-1.6,1.6c0.2-0.5,0.7-2.3,0.8-3l-0.9,3
		l-2.2,2.2l-1.9,2c0-0.2,0-0.3,0-0.5c0.3-1,0.8-2.6,0.9-3.4l-0.9,3.3c-0.1-2.6-0.1-5.1-0.2-7.7c0.2-0.2,0.4-0.4,0.6-0.7
		c0.6,0.1,1.3,0.1,1.8,0c-0.6,0-1.1,0-1.7,0c0.5-0.6,0.9-1.3,1.2-1.7c0.5-0.6,1-1.1,1.5-1.7c0.3-0.4,0.7-0.8,1-1.2
		c0.3-0.3,0.6-0.7,0.9-1c0.4-0.5,0.8-0.9,1.2-1.4l-1.3,1.4l-0.9,1l-1.1,1.2l-1.6,1.7l-1.5,1.6V47c0.2-0.7,0.6-2.2,0.8-2.9l-0.8,2.8
		c0-0.8,0-1.5-0.1-2.3c0-1.6-0.1-3.2-0.1-4.8c0.1-0.1,0.2-0.2,0.3-0.4c0.4-0.4,0.8-0.8,1-1.1c0.1-0.1,0.1-0.2,0.2-0.3
		c0.4,0,1-0.1,1.3-0.2c-0.4,0-0.8,0.1-1.2,0.1c0.3-0.5,0.6-0.9,0.9-1.4c0.2-0.3,0.4-0.6,0.6-1c0.2-0.3,0.4-0.5,0.5-0.8
		c0.2-0.4,0.5-0.7,0.7-1.1l-0.9,1.2l-0.6,0.8l0,0.1l-0.7,1l-1,1.4c0.1-0.4,0.3-1.5,0.2-2l-0.3,2l-1,1.3l-0.2,0.2
		c-0.1-2.3-0.1-4.7-0.2-7l0,0c0,0,0,0,0,0c0,0,0-0.1,0-0.1l0,0c0-1.3-0.1-2.6-0.1-3.9l0,0l-0.1,0.2c0-0.3,0-0.6,0-1l0,0.1
		c0,0,0-0.1,0-0.2c0-1-0.1-1.9-0.1-2.9l-0.1,2c0-0.1,0-0.1,0-0.2l0,0.3l0,1.5c0,0,0,0-0.1,0l0.1,0.1l-0.1,4.7v0.5c0,0,0,0,0,0
		l-0.1,5.6c-0.3-0.4-0.6-0.9-0.9-1.1c-0.1-0.1-0.2-0.2-0.4-0.3c-0.4-0.4-0.8-0.8-1.2-1.1c0,0,0-0.1,0-0.1c-0.3-0.3-0.5-0.5-0.8-0.8
		c-0.2-0.2-0.5-0.4-0.7-0.7c-0.3-0.3-0.6-0.6-0.9-0.9l1,1.1l0.7,0.7c-0.2,0-0.7-0.2-0.8-0.1c0.3,0.1,0.5,0.1,0.8,0.2l0.8,0.9
		l1.2,1.3l1.1,1.2l-0.2,8.2c-0.2-0.2-0.4-0.5-0.6-0.8c-0.3-0.4-0.6-0.7-0.9-1l1,1.6l0.7,1l-0.2,8.3c-0.2-0.3-0.4-0.6-0.7-0.9
		c0-1.1-0.1-2.6-0.2-3.4l0.1,3.3c-0.6-0.7-1.3-1.5-1.8-2l-0.1-0.1c-0.6-0.8-1.1-1.5-1.7-2.3c-0.4-0.5-0.8-1.1-1.2-1.6
		c-0.3-0.5-0.7-0.9-1-1.4c0-0.4-0.1-1.1-0.2-1.4l0.1,1.4c-0.5-0.6-0.9-1.3-1.4-1.9l1.4,2.2l1,1.6l1.2,1.8l1.7,2.7l1.7,2.6l0.5,0.8
		c0,0.1,0,0.1,0.1,0.1l0.2,0.3l0,0.1c-0.1,0-0.1,0-0.1,0c-2-1.6-4.8-2.6-7.8-2.6c-0.9,0-1.7,0.1-2.5,0.2c-1.8-0.9-4-1.4-6.3-1.4
		c-2.8,0-5.3,0.7-7.4,2c-2.2-1.5-5-2.4-8-2.4c-1.9,0-3.7,0.4-5.3,1c-4.3,0.2-8.3,1.1-11.9,2.6c-2.3-2.2-5.7-3.6-9.5-3.6
		c-2,0-4,0.4-5.7,1.1c-2.8-0.7-5.8-1.1-8.9-1.1c-6.3,0-12.1,1.6-17,4.3c-0.4,0-0.7-0.1-1.1-0.1c-0.8,0-1.5,0.1-2.2,0.3
		c-2-1.8-4.9-2.9-8.1-2.9c-3.5,0-6.5,1.3-8.6,3.4c-1.1-0.6-2.4-1-3.8-1c-2,0-3.7,0.7-4.9,1.8c-0.1-0.1-0.2-0.2-0.3-0.4
		c-0.1-7.9,0-14.4,0-17.4c0.1,0.1,0.2,0.2,0.3,0.3c0.2,0.1,0.4,0.1,0.6,0.1c0,0.3,0.2,0.5,0.5,0.7s0.6,0.2,0.8,0.1
		c0,0.2,0.2,0.4,0.4,0.6c0.1,0.1,0.3,0.1,0.5,0.1c0,0.2,0.1,0.5,0.4,0.7c0.2,0.1,0.3,0.2,0.5,0.2c0,0.2,0.1,0.4,0.3,0.5
		c0.3,0.2,0.7,0.2,1,0c0,0.1-0.1,0.1-0.1,0.2c-0.2,0.3,0,0.7,0.3,0.8c0.2,0.1,0.4,0.1,0.6,0c0,0.2,0.1,0.3,0.2,0.4
		c0.1,0.1,0.2,0.1,0.3,0c0,0.1,0,0.3,0.2,0.4c0.2,0.1,0.4,0,0.5-0.2c0,0,0-0.1,0.1-0.1c0,0.2,0.1,0.4,0.1,0.5
		c0.1,0.2,0.3,0.3,0.5,0.2c0.2-0.1,0.3-0.3,0.2-0.5c0-0.1-0.1-0.1-0.2-0.2c0.2,0.1,0.4,0,0.5-0.2c0.1-0.2,0-0.4-0.2-0.5
		c0,0-0.1,0-0.1-0.1v-0.1c0.2-0.1,0.3-0.2,0.3-0.4c0-0.2-0.1-0.4-0.2-0.4c0.2-0.1,0.4-0.3,0.4-0.5c0.1-0.4-0.2-0.7-0.6-0.8
		c-0.1,0-0.1,0-0.2,0c0.1-0.1,0.1-0.3,0.1-0.5c0-0.4-0.4-0.7-0.8-0.6c0.2-0.1,0.3-0.2,0.4-0.3c0.1,0,0.1,0.1,0.2,0.1
		c0.2,0.1,0.4,0.1,0.7,0c0.1,0.3,0.3,0.6,0.7,0.7c0.2,0.1,0.5,0.1,0.7,0c0.1,0.3,0.2,0.5,0.5,0.6c0.4,0.2,1,0.1,1.3-0.3
		c0,0.1-0.1,0.2-0.1,0.3c-0.1,0.4,0.2,0.9,0.7,1c0.3,0.1,0.6,0,0.8-0.2c0,0.2,0.2,0.4,0.5,0.5c0.2,0,0.3,0,0.5-0.1
		c0,0.2,0.2,0.4,0.4,0.4c0.3,0,0.5-0.1,0.6-0.4c0,0,0-0.1,0-0.2c0.1,0.2,0.2,0.5,0.3,0.6c0.2,0.2,0.5,0.2,0.8,0.1
		c0.2-0.2,0.3-0.5,0.1-0.7c-0.1-0.1-0.2-0.2-0.3-0.2c0.3,0,0.6-0.1,0.6-0.4c-0.4-0.8-0.6-1.1-0.9-1.1c-0.1,0-0.1,0-0.2,0
		c0-0.1,0-0.1,0-0.1c0.2-0.1,0.3-0.4,0.3-0.6c0-0.3-0.2-0.4-0.4-0.5c0.2-0.2,0.4-0.5,0.3-0.8c-0.1-0.5-0.5-0.9-1.1-0.8
		c-0.1,0-0.2,0-0.3,0.1c0.1-0.2,0.1-0.4,0-0.7c-0.2-0.5-0.7-0.7-1.3-0.6c0.5-0.3,0.6-1,0.3-1.4c-0.3-0.5-1-0.7-1.6-0.4
		c0.2-0.4,0.1-0.9-0.2-1.2c-0.4-0.4-1.1-0.5-1.6-0.1c0.2-0.5,0-1.1-0.5-1.5c-0.4-0.3-1-0.3-1.4,0c0.1-0.5-0.2-1.1-0.7-1.3
		c-0.4-0.2-0.9-0.1-1.2,0c-0.1-0.2-0.2-0.4-0.4-0.6c0.1-0.2,0.2-0.3,0.2-0.5c0.2,0.1,0.5,0,0.7-0.2c0.1-0.1,0.3-0.2,0.3-0.4
		c0.2,0.1,0.5,0.1,0.8-0.1c0.2-0.1,0.3-0.3,0.4-0.4c0.2,0.1,0.4,0.1,0.6,0c0.3-0.2,0.5-0.6,0.5-0.9c0,0.1,0.1,0.1,0.1,0.2
		c0.2,0.3,0.6,0.3,0.9,0.1c0.2-0.1,0.3-0.4,0.3-0.6c0.2,0.1,0.4,0.1,0.5,0c0.1-0.1,0.2-0.2,0.2-0.3c0.1,0.1,0.3,0.1,0.5,0
		c0.2-0.1,0.2-0.4,0.1-0.5l-0.1-0.1c0.2,0.1,0.4,0.1,0.5,0.1c0.2,0,0.4-0.2,0.4-0.4s-0.2-0.4-0.4-0.4c-0.1,0-0.2,0-0.3,0.1
		c0.2-0.1,0.2-0.4,0.1-0.6c-0.1-0.2-0.4-0.2-0.6-0.1l-0.1,0.1c0,0-0.1,0-0.1-0.1c0-0.2,0-0.4-0.2-0.5s-0.4-0.1-0.5,0
		c0-0.2-0.1-0.5-0.3-0.6c-0.4-0.2-0.8-0.1-1.1,0.3c0,0.1-0.1,0.1-0.1,0.2c-0.1-0.2-0.2-0.3-0.4-0.3c-0.4-0.1-0.8,0.1-1,0.5
		c0-0.5-0.3-0.9-0.7-0.9c-0.5-0.1-0.9,0.3-1,0.8c-0.2-0.3-0.5-0.5-0.9-0.5c-0.5,0-0.9,0.5-0.9,1c-0.2-0.4-0.7-0.6-1.1-0.4
		c-0.4,0.1-0.7,0.5-0.7,0.9c-0.3-0.3-0.8-0.4-1.2-0.2c-0.3,0.2-0.5,0.5-0.6,0.8c-0.3-0.1-0.6-0.1-0.9,0.1c-0.5,0.2-0.7,0.7-0.7,1.2
		l-0.1-0.1l-0.1-0.1c0-0.1-0.1-0.2-0.1-0.3c-0.3-0.5-0.9-0.7-1.3-0.4c0,0-0.1,0-0.1,0.1c0-0.4-0.1-0.9-0.5-1.2
		c-0.2-0.2-0.5-0.3-0.7-0.2c0-0.3-0.2-0.6-0.4-0.8c-0.3-0.3-0.7-0.3-0.9,0c0-0.4-0.2-0.7-0.5-0.9c-0.4-0.2-0.7-0.1-0.9,0.2
		c0-0.5-0.3-0.9-0.7-1c-0.3-0.1-0.6,0-0.7,0.3c-0.1-0.5-0.4-0.9-0.8-0.9c-0.4,0-0.6,0.3-0.6,0.7c-0.1-0.4-0.4-0.7-0.8-0.6
		c-0.1,0-0.2,0.1-0.3,0.2c0-0.1-0.1-0.2-0.1-0.2c-0.2-0.4-0.5-0.6-0.8-0.4c-0.2,0.1-0.3,0.3-0.3,0.5c-0.1-0.1-0.3-0.2-0.4-0.1
		c-0.1,0.1-0.2,0.2-0.2,0.4h-0.1c0-0.1-0.1-0.1-0.1-0.1c-0.1-0.2-0.3-0.2-0.5,0c-0.1,0.1-0.1,0.4,0,0.6c-0.1-0.1-0.2-0.1-0.2-0.1
		c-0.2,0-0.3,0.1-0.3,0.3s0.1,0.4,0.3,0.5c0.1,0,0.3,0,0.4,0l-0.1,0.1c-0.1,0.1-0.1,0.4,0,0.5c0.1,0.1,0.3,0.2,0.4,0.1
		c0,0.1,0,0.2,0.1,0.3c0.1,0.2,0.3,0.2,0.4,0.1c0,0.2,0.1,0.4,0.2,0.6c0.2,0.3,0.5,0.3,0.7,0.1c0,0,0.1-0.1,0.1-0.2
		c-0.1,0.3,0.1,0.7,0.3,0.9c0.2,0.1,0.3,0.2,0.5,0.1c0.1,0.2,0.2,0.3,0.3,0.5c0.2,0.2,0.4,0.2,0.6,0.2c0,0.1,0.1,0.1,0.1,0.2
		c-0.4-0.1-0.7,0.1-0.8,0.4c-0.2-0.3-0.5-0.6-0.9-0.6c-0.4,0-0.7,0.2-0.7,0.6c-0.2-0.4-0.7-0.7-1.1-0.7c-0.3,0-0.5,0.3-0.5,0.6
		c-0.3-0.4-0.7-0.6-1.1-0.5c-0.3,0.1-0.4,0.5-0.2,0.9c-0.3-0.3-0.7-0.4-1-0.3c-0.1,0.1-0.2,0.2-0.2,0.4c-0.1-0.1-0.1-0.1-0.2-0.2
		c-0.3-0.3-0.7-0.3-0.9,0c-0.1,0.2-0.1,0.4,0,0.6c-0.2-0.1-0.3,0-0.4,0.1c-0.1,0.1-0.1,0.3,0,0.5c0,0,0,0-0.1,0.1
		c-0.1,0-0.1-0.1-0.1-0.1c-0.2-0.1-0.4,0-0.4,0.2s0.1,0.4,0.3,0.5c-0.1,0-0.2,0-0.3,0c-0.2,0-0.3,0.2-0.2,0.4
		c0.1,0.2,0.3,0.3,0.5,0.3c0.1,0,0.2-0.1,0.4-0.2v0.1c0,0.2,0.1,0.4,0.3,0.5c0.2,0.1,0.3,0,0.4-0.1c0.1,0.1,0.1,0.2,0.3,0.2
		c0.2,0.1,0.3,0.1,0.4-0.1c0.1,0.2,0.2,0.3,0.4,0.4c0.3,0.2,0.6,0.1,0.7-0.2c0,0,0-0.1,0-0.2c0.1,0.3,0.4,0.6,0.7,0.7
		c0.2,0.1,0.4,0,0.5-0.1c0.1,0.1,0.3,0.2,0.5,0.3c0.3,0.1,0.5,0,0.6-0.1c0.1,0.1,0.3,0.2,0.4,0.3c0.2,0.1,0.5,0.1,0.6,0v0.1
		c0,0.1-0.1,0.2-0.1,0.3c-0.4-0.1-0.9-0.1-1.2,0.2c-0.5,0.3-0.7,0.8-0.4,1.2c-0.5-0.1-1.1,0-1.4,0.2c-0.4,0.3-0.5,0.9-0.2,1.2
		c-0.6-0.2-1.3-0.1-1.6,0.4c-0.3,0.3-0.2,0.7,0.1,1c-0.6-0.2-1.3,0.1-1.5,0.5c-0.2,0.4,0.1,0.9,0.6,1.1c-0.6-0.1-1.1,0.2-1.2,0.7
		c0,0.2,0,0.4,0.2,0.5c-0.1,0-0.2,0-0.3,0c-0.6,0-1,0.4-0.9,0.8c0,0.3,0.2,0.5,0.5,0.6c-0.2,0.1-0.4,0.3-0.3,0.5
		c0,0.2,0.2,0.4,0.4,0.4v0.1c-0.1,0-0.2,0-0.2,0.1c-0.3,0.1-0.4,0.3-0.3,0.6c0.1,0.2,0.4,0.3,0.7,0.2c-0.1,0.1-0.2,0.2-0.2,0.2
		c-0.1,0.2,0,0.5,0.2,0.6c0.3,0.1,0.6,0,0.8-0.2c0.1-0.1,0.2-0.3,0.2-0.5c0,0.1,0,0.1,0.1,0.2c0.1,0.2,0.4,0.3,0.7,0.2
		c0.2-0.1,0.3-0.2,0.3-0.4c0.1,0,0.3,0,0.5,0c0.3-0.1,0.4-0.3,0.4-0.5c0.2,0.1,0.5,0.1,0.8,0c0.5-0.1,0.7-0.5,0.5-0.9
		c0-0.1-0.1-0.1-0.1-0.2c0.4,0.2,0.9,0.3,1.3,0c0.2-0.1,0.4-0.4,0.4-0.6c0.2,0,0.5,0,0.7-0.1c0.3-0.2,0.5-0.4,0.5-0.7
		c0.1,0,0.2,0,0.4,0c-0.1,0.3,0.1,0.6,0.4,0.7c-0.6,0.1-1,0.6-1,1s0.4,0.7,0.9,0.6c-0.5,0.2-0.8,0.6-0.7,1c0,0.2,0.2,0.3,0.3,0.4
		c-0.1,0-0.2,0.1-0.2,0.1c-0.4,0.2-0.6,0.7-0.4,1c0.1,0.2,0.4,0.3,0.6,0.3c-0.1,0.2-0.2,0.4-0.1,0.5c0.1,0.1,0.3,0.2,0.5,0.2
		c0,0,0,0.1,0.1,0.1c-0.1,0-0.1,0.1-0.1,0.1c-0.2,0.2-0.2,0.4,0,0.5c0.2,0.1,0.5,0.1,0.6-0.1c-0.1,0.1-0.1,0.2-0.1,0.3
		c0,0.2,0.1,0.4,0.4,0.4s0.5-0.2,0.5-0.4c0-0.1,0-0.3,0-0.5l0.1,0.1c0.2,0.1,0.4,0.1,0.6-0.1c0.1-0.1,0.2-0.3,0.1-0.4
		c0.1,0,0.3-0.1,0.4-0.2c0.2-0.2,0.2-0.4,0.1-0.5c0.2,0,0.5-0.1,0.7-0.3c0.3-0.3,0.3-0.7,0-0.9c0,0-0.1-0.1-0.2-0.1
		c0.4,0,0.8-0.1,1.1-0.5c0.1-0.2,0.2-0.4,0.1-0.6c0.2-0.1,0.4-0.2,0.5-0.4c0.2-0.3,0.2-0.5,0.2-0.8c0.2-0.1,0.3-0.2,0.5-0.3
		c0.2-0.2,0.3-0.5,0.3-0.7c0.3-0.1,0.7-0.2,0.9-0.5c0,3.3-0.2,8.3-0.4,14.1c-1.3-0.5-2.8-0.9-4.4-0.9c-3.3-1-6.9-1.6-10.6-1.6
		c-8.3,0-15.7,2.7-21.3,7.1c-0.5,0-1,0.1-1.5,0.1c-0.5-0.1-0.9-0.1-1.4-0.1c-0.1,0-0.3,0-0.4,0c-1.6-0.7-3.4-1.1-5.3-1.1
		c-1.1,0-2.2,0.1-3.3,0.4c-1.2-0.4-2.6-0.6-4-0.6c-3.1,0-5.8,1-7.9,2.6c-1.1-0.8-2.5-1.3-4-1.3c-0.6,0-1.1,0.1-1.6,0.2
		c-1.7-0.9-3.7-1.4-5.9-1.4c-3.7,0-7,1.5-9,3.8h-0.1c-2,0-3.7,0.8-4.8,2c-0.4,0-0.9,0.1-1.3,0.2c-2.4-1.2-5.3-1.8-8.3-1.8
		c-1.9,0-3.6,0.3-5.3,0.7c-5-4.4-12.1-7.1-19.9-7.1c-8.5,0-16,3.2-21,8.3c-2.6-1.5-5.8-2.3-9.2-2.3c-4.8,0-9.1,1.7-12.1,4.4
		c-4.9-6.2-13.3-10.3-22.9-10.3c-8.4,0-15.8,3.1-20.8,8c-0.3,0-0.6-0.1-0.8-0.1c-3.7,0-7.1,1.2-9.7,3c-1.9-0.3-3.8-0.5-5.8-0.5
		c-2.3,0-4.5,0.2-6.7,0.6c-1.2-0.2-2.5-0.4-3.8-0.5c-2.5-1.7-5.7-2.7-9.2-2.7c-5.8,0-10.8,2.8-13.3,6.9c-2.1-0.8-4.4-1.2-6.8-1.2
		c-1.2,0-2.4,0.1-3.6,0.3C63.2,72.1,62,72,60.8,72c-0.3,0-0.6,0-1,0.1c-3.8-1.7-8.2-2.7-12.9-2.7c-2.8,0-5.5,0.4-8,1
		c-3-0.9-6.3-1.5-9.8-1.5c-7.5,0-14.3,2.5-19.3,6.5c-2.6-1.9-6-3.1-9.8-3.1v77h1232.1V82.8C1229.6,82.9,1227.4,83.6,1225.6,84.8z
		 M456.6,56.8c0.2,0,0.3,0,0.5,0c-0.4,0.2-0.9,0.5-1.3,0.8c0,0,0,0,0-0.1C456.1,57.4,456.3,57.1,456.6,56.8z"/>
	<path fill="#339900" d="M1157.1,164.8c-0.4,0.3-0.8,0.7-1.2,1L1157.1,164.8z"/>
	<path fill="#339900" d="M454.6,32.5c0,0.1,0-1.5-0.1-2L454.6,32.5z"/>
	<path fill="#339900" d="M453.7,29.7l0.1,1.7C453.8,31.5,453.8,30.1,453.7,29.7z"/>
	<path fill="#339900" d="M455,28C455,28,455,28.1,455,28L455,28z"/>
	<path fill="#339900" d="M454.4,27.3c0-0.2-0.1-0.9-0.2-1L454.4,27.3z"/>
	<path fill="#339900" d="M454.4,27.3C454.4,27.3,454.4,27.4,454.4,27.3L454.4,27.3z"/>
	<path fill="#339900" d="M452.3,30c0-0.2,0-0.8-0.1-0.9L452.3,30z"/>
	<path fill="#339900" d="M454.4,33.2L454.4,33.2c0.1,0.2,0.2,0.5,0.3,0.6l0-0.1L454.4,33.2z"/>
	<path fill="#339900" d="M451.8,29.2C451.8,29.2,451.8,29.2,451.8,29.2C451.8,29.2,451.8,29.2,451.8,29.2L451.8,29.2z"/>
	<path fill="#339900" d="M454.7,28.5c-0.3-0.1-0.5-0.1-0.8-0.1C454.1,28.4,454.5,28.5,454.7,28.5z"/>
	<path fill="#339900" d="M454.3,33.1c-0.2-0.3-0.4-0.7-0.7-1.1c-0.2-0.4-0.5-0.8-0.7-1.1c0,0,0-0.1-0.1-0.1
		c-0.2-0.3-0.4-0.5-0.5-0.8c-0.2-0.2-0.3-0.5-0.5-0.7l0.4,0.7l0.5,0.8l0.8,1.1c-0.3-0.1-0.9-0.3-1.1-0.2c0.4,0.1,0.7,0.2,1.1,0.3
		l0.7,1.1C454.2,33.1,454.3,33.1,454.3,33.1l0.1,0.1h0C454.4,33.2,454.4,33.2,454.3,33.1z"/>
	<path fill="#339900" d="M452.8,30.8c0-0.2,0-1.1-0.1-1.4L452.8,30.8z"/>
	<path fill="#339900" d="M451.8,29.2c0-0.2,0-0.4-0.1-0.6L451.8,29.2z"/>
	<path fill="#339900" d="M452.7,30.8c-0.2-0.1-0.7-0.2-0.9-0.2C452.1,30.7,452.4,30.7,452.7,30.8z"/>
	<path fill="#339900" d="M451.2,28.3l0.6,1c0,0,0-0.1,0-0.1C451.6,28.9,451.4,28.6,451.2,28.3z"/>
	<path fill="#339900" d="M454.2,33.1L454.2,33.1c-0.1,0-0.2-0.1-0.2-0.1C454.1,33.1,454.1,33.1,454.2,33.1z"/>
	<path fill="#339900" d="M454,33.1c-0.3-0.1-0.8-0.2-1-0.2C453.3,32.9,453.6,33,454,33.1z"/>
	<path fill="#339900" d="M451.8,29.3C451.6,29.2,451.1,29,451.8,29.3L451.8,29.3z"/>
	<path fill="#339900" d="M452.2,30c-0.1-0.1-0.5-0.2-0.6-0.2C451.8,29.9,452,30,452.2,30z"/>
	<path fill="#339900" d="M454,23.6C453.7,23.4,453.9,23.6,454,23.6L454,23.6z"/>
	<path fill="#339900" d="M453.8,23.4c-0.1-0.1-0.1-0.2-0.2-0.3L453.8,23.4z"/>
	<path fill="#339900" d="M453.8,23.4l0.2,0.2c0-0.1-0.1-0.2-0.2-0.4V23.4z"/>
	<path fill="#339900" d="M454.6,39.4c-0.1-0.5-0.3-1.8-0.5-2.3L454.6,39.4z"/>
	<path fill="#339900" d="M453.8,23.4C453.5,23.3,453.7,23.4,453.8,23.4L453.8,23.4z"/>
	<path fill="#339900" d="M454.5,24.3c-0.1,0-0.1,0-0.2,0C454.3,24.4,454.4,24.4,454.5,24.3c-0.1,0.2,0,0.2,0,0.3c-0.1,0-0.1,0,0,0
		c0.1,0.1,0.1,0.2,0.2,0.3c0,0.1,0.1,0.2,0.1,0.2l0-0.4l0,0L454.5,24.3z"/>
	<path fill="#339900" d="M454.5,24.3l-0.3-0.4c0,0.1,0,0.1,0,0.1c0,0.1,0,0.1,0.1,0.2C454.3,24.3,454.4,24.3,454.5,24.3z"/>
	<path fill="#339900" d="M454,23.4v0.2l0.2,0.3c0,0,0-0.1,0-0.1C454.2,23.7,454.1,23.6,454,23.4z"/>
	<path fill="#339900" d="M454.3,24.3C454.3,24.3,454.3,24.3,454.3,24.3C454.1,24.2,454.2,24.3,454.3,24.3z"/>
	<path fill="#339900" d="M453.2,26.4l0-0.3C453.1,26.2,453.1,26.3,453.2,26.4z"/>
	<path fill="#339900" d="M453.2,26.7c0-0.1,0-0.2-0.1-0.3L453.2,26.7z"/>
	<path fill="#339900" d="M452.8,26.3C452.3,26.2,452.7,26.3,452.8,26.3L452.8,26.3z"/>
	<path fill="#339900" d="M453.6,27.2c-0.1-0.2-0.3-0.3-0.4-0.5c-0.1-0.1-0.2-0.3-0.4-0.4l0.3,0.4L453.6,27.2l0.5,0.6
		c-0.2,0-0.6-0.1-0.7,0c0.2,0,0.5,0,0.7,0.1l0.6,0.6c-0.2-0.2-0.3-0.4-0.5-0.6C454,27.7,453.8,27.4,453.6,27.2z"/>
	<path fill="#339900" d="M453.6,27.2c0-0.1-0.1-0.7-0.2-0.9L453.6,27.2z"/>
	<path fill="#339900" d="M453.1,26.7C452.5,26.5,452.9,26.7,453.1,26.7L453.1,26.7z"/>
	<path fill="#339900" d="M454.2,23.9C453.7,23.7,454.1,23.9,454.2,23.9L454.2,23.9z"/>
	<path fill="#339900" d="M452.9,39.6c0.5,0,1.1,0.1,1.6,0.1C454.1,39.6,453.3,39.5,452.9,39.6z"/>
	<path fill="#339900" d="M451,44.2L451,44.2c-0.1,0-0.2-0.1-0.3-0.1C450.8,44.2,450.9,44.2,451,44.2z"/>
	<path fill="#339900" d="M451.7,54c0-0.9,0-2.4-0.1-3.2L451.7,54z"/>
	<path fill="#339900" d="M453.8,47.7c-0.5-0.2-1.5-0.5-2.1-0.5C452.4,47.4,453.1,47.6,453.8,47.7z"/>
	<path fill="#339900" d="M450.7,44.2c-0.4-0.1-1-0.3-1.2-0.3C449.9,43.9,450.3,44,450.7,44.2z"/>
	<path fill="#339900" d="M450.8,45.4c0.6,0.1,1.1,0.3,1.7,0.4c0,0,0,0,0,0C452,45.7,451.2,45.4,450.8,45.4z"/>
	<path fill="#339900" d="M449.3,41.5c0-0.3-0.1-0.9-0.1-1L449.3,41.5z"/>
	<path fill="#339900" d="M449.4,41.7c-0.1-0.1-0.6-0.3-0.8-0.3C448.9,41.5,449.1,41.6,449.4,41.7z"/>
	<path fill="#339900" d="M450.1,42.8c-0.2-0.1-0.8-0.4-1-0.4C449.4,42.5,449.8,42.7,450.1,42.8z"/>
	<path fill="#339900" d="M453.2,57.6c-0.7-0.2-2.2-0.6-2.9-0.7C451.3,57.1,452.2,57.4,453.2,57.6z"/>
	<path fill="#339900" d="M449.8,52.3c-0.4-0.2-1.5-0.5-2.1-0.5C448.4,52,449.1,52.2,449.8,52.3z"/>
	<path fill="#339900" d="M453.3,38c-0.1-0.5-0.2-1.3-0.4-1.7L453.3,38z"/>
	<path fill="#339900" d="M449.9,51.6c0-0.8,0-2.1-0.1-2.7L449.9,51.6z"/>
	<path fill="#339900" d="M451.1,43.7c0-0.5,0-1.5-0.1-2L451.1,43.7z"/>
	<path fill="#339900" d="M448.7,50c0-0.5-0.1-1.4-0.2-1.8L448.7,50z"/>
	<path fill="#339900" d="M447.6,48.9c-0.2-0.1-0.9-0.4-1.1-0.4C446.9,48.6,447.2,48.8,447.6,48.9z"/>
	<path fill="#339900" d="M448.6,50.5c-0.3-0.1-1.1-0.5-1.4-0.5C447.7,50.2,448.2,50.4,448.6,50.5z"/>
	<path fill="#339900" d="M451.5,55c-0.6-0.2-1.9-0.5-2.5-0.6C449.8,54.6,450.7,54.8,451.5,55z"/>
	<path fill="#339900" d="M450.7,35.5c-0.1,0-0.2,0-0.3-0.1C450.5,35.5,450.7,35.5,450.7,35.5z"/>
	<path fill="#339900" d="M450.6,35.3l-0.2-0.7C450.4,34.7,450.5,35.1,450.6,35.3z"/>
	<path fill="#339900" d="M450.4,35.5c-0.1,0-0.2,0-0.3,0C450.2,35.4,450.3,35.5,450.4,35.5z"/>
	<path fill="#339900" d="M452.2,37.2c-0.2,0-0.4,0-0.6-0.1C451.8,37.2,452.1,37.2,452.2,37.2z"/>
	<path fill="#339900" d="M451.6,37.2c-0.2,0-0.5,0-0.6,0C451.2,37.1,451.4,37.2,451.6,37.2z"/>
	<path fill="#339900" d="M451.9,36.1c0,0.3,0.1,0.5,0.1,0.7c0,0,0,0,0,0L451.9,36.1z"/>
	<path fill="#339900" d="M451.3,36c-0.1-0.3-0.2-0.8-0.3-1L451.3,36z"/>
	<path fill="#339900" d="M451.9,36.1c0-0.3-0.1-0.5-0.1-0.6L451.9,36.1z"/>
	<polygon fill="#339900" points="452.4,45.5 452.4,45.5 452.4,45.5 	"/>
	<path fill="#339900" d="M451.1,43.7c-0.3-0.4-0.6-0.8-0.9-1.2c0-0.4-0.1-1.1-0.2-1.3l0.1,1.3c-0.3-0.3-0.5-0.7-0.8-1
		c-0.3-0.5-0.7-0.9-1-1.4l1.1,1.6l0.7,1.1l0.9,1.4c0,0,0.1,0,0.1,0l1.3,1.4c0,0,0-0.1,0-0.1C452,44.9,451.5,44.3,451.1,43.7z"/>
	<path fill="#339900" d="M453.4,38.5c-0.3-0.1-1.1-0.1-1.4-0.1C452.5,38.4,452.9,38.5,453.4,38.5z"/>
	<path fill="#339900" d="M452.4,45.5c0-0.7,0-1.7-0.1-2.3L452.4,45.5z"/>
	<path fill="#339900" d="M452.4,45.6C452.4,45.6,452.4,45.6,452.4,45.6c0,0.1,0.1,0.1,0.1,0.2c0,0,0.1,0,0.1,0L452.4,45.6z"/>
	<path fill="#339900" d="M454.9,21.6l-0.1,3.1l0.1,0.2c0,0,0,0,0.1-0.1C455,23.8,454.9,22.7,454.9,21.6z"/>
	<path fill="#339900" d="M453.7,47.1c0-0.8,0-1.9-0.1-2.5L453.7,47.1z"/>
	<path fill="#339900" d="M452.5,45.8C452.5,45.8,452.5,45.8,452.5,45.8c0.1,0.1,0.2,0.2,0.3,0.3l-0.2-0.3
		C452.6,45.8,452.5,45.8,452.5,45.8z"/>
	<path fill="#339900" d="M453.5,27.2C452.6,27,453.2,27.2,453.5,27.2L453.5,27.2z"/>
	<path fill="#339900" d="M458.7,35.5c0.2,0,0.6-0.1,0.7-0.2C459.2,35.4,458.9,35.4,458.7,35.5z"/>
	<path fill="#339900" d="M459.2,34.7c0.2,0,0.5-0.1,0.5-0.1C459.5,34.6,459.3,34.7,459.2,34.7z"/>
	<path fill="#339900" d="M459.1,34.6c0.1-0.2,0.2-0.5,0.2-0.7L459.1,34.6z"/>
	<path fill="#339900" d="M458.1,36.5c0.2,0,0.5,0,0.7-0.1C458.6,36.5,458.4,36.5,458.1,36.5z"/>
	<path fill="#339900" d="M457.3,45.5c0.2-0.5,0.6-2,0.7-2.6L457.3,45.5z"/>
	<path fill="#339900" d="M459,34.8l0-0.2C459,34.7,459,34.8,459,34.8z"/>
	<path fill="#339900" d="M458.8,36.5c0.1,0,0.2,0,0.4,0C459.1,36.4,459,36.5,458.8,36.5z"/>
	<path fill="#339900" d="M458.4,29.1c0.1-0.2,0.2-0.4,0.2-0.5L458.4,29.1z"/>
	<path fill="#339900" d="M457.7,36.7c0.1-0.3,0.2-1.3,0.2-1.7L457.7,36.7z"/>
	<path fill="#339900" d="M458.1,30.5c-0.3,0-0.7,0-1,0C457.2,30.5,457.9,30.6,458.1,30.5z"/>
	<path fill="#339900" d="M457.8,29.8c0.1,0,0.5,0,0.7-0.1C458.3,29.7,458.1,29.7,457.8,29.8z"/>
	<path fill="#339900" d="M457.1,30.5c0.2-0.2,0.4-0.5,0.7-0.7c0.2-0.2,0.4-0.4,0.6-0.6c0.3-0.3,0.5-0.6,0.7-0.8l-0.8,0.8l-0.6,0.6
		L457.1,30.5l-1,1l0,0C456.4,31.2,456.8,30.8,457.1,30.5z"/>
	<path fill="#339900" d="M455.6,39.4c0.1-0.5,0.3-1.7,0.3-2.3L455.6,39.4z"/>
	<path fill="#339900" d="M458.4,35.6L458.4,35.6l0-0.1C458.4,35.6,458.4,35.6,458.4,35.6z"/>
	<path fill="#339900" d="M458.4,35.5c0.1-0.3,0.2-0.8,0.2-1L458.4,35.5z"/>
	<path fill="#339900" d="M458.9,43.8c0.1-0.4,0.6-1.6,0.6-2.2L458.9,43.8z"/>
	<path fill="#339900" d="M455.9,39.4c0.3,0,1.3,0,1.7-0.2C457,39.3,456.5,39.3,455.9,39.4z"/>
	<path fill="#339900" d="M463,49.1c0.1-0.2,0.5-1.2,0.5-1.5L463,49.1z"/>
	<path fill="#339900" d="M461.7,50.4c0.2-0.3,0.6-1.4,0.7-2L461.7,50.4z"/>
	<path fill="#339900" d="M457.8,54.2c0.2-0.7,0.8-2.6,1-3.6L457.8,54.2z"/>
	<path fill="#339900" d="M460,42.6c0.1-0.3,0.4-1.1,0.5-1.5L460,42.6z"/>
	<path fill="#339900" d="M455.2,32.6l0.9-1l0-0.1c0,0,0,0,0,0c-0.3,0.3-0.6,0.6-0.8,0.8C455.2,32.5,455.2,32.6,455.2,32.6
		C455.2,32.6,455.2,32.6,455.2,32.6z"/>
	<path fill="#339900" d="M459.7,54.6c0.4,0,0.7,0,1,0C460.4,54.6,460,54.6,459.7,54.6z"/>
	<path fill="#339900" d="M458.4,54.5c0.5,0,0.9,0,1.3,0.1C459.3,54.6,458.8,54.5,458.4,54.5z"/>
	<path fill="#339900" d="M462,50.5c0.4,0,1.1,0,1.3-0.1C462.9,50.4,462.4,50.5,462,50.5z"/>
	<path fill="#339900" d="M461.1,41.1l0.2-0.5C461.3,40.6,461.2,40.9,461.1,41.1z"/>
	<path fill="#339900" d="M461,41.6c0.2,0,0.6,0,0.7-0.1C461.5,41.5,461.2,41.5,461,41.6z"/>
	<path fill="#339900" d="M460.9,41.6c0.1-0.1,0.1-0.3,0.2-0.6L460.9,41.6z"/>
	<path fill="#339900" d="M460.6,42.6c0.2,0,0.3,0,0.5,0C461,42.5,460.8,42.6,460.6,42.6z"/>
	<path fill="#339900" d="M460.5,43.8c-0.5,0-0.9,0-1.4,0C459.5,43.8,460.2,43.9,460.5,43.8z"/>
	<path fill="#339900" d="M459.3,45.5c-0.6,0-1.1,0-1.7,0C458.1,45.5,458.9,45.6,459.3,45.5z"/>
	<path fill="#339900" d="M460.1,42.6c0.1,0,0.3,0,0.5,0C460.5,42.6,460.3,42.6,460.1,42.6z"/>
	<path fill="#339900" d="M456.2,27.1l0.4-0.5C456.4,26.8,456.3,26.9,456.2,27.1z"/>
	<path fill="#339900" d="M455.8,27.3c0-0.2,0-0.4,0-0.5L455.8,27.3z"/>
	<path fill="#339900" d="M455.7,27.8l0-0.5C455.7,27.5,455.7,27.7,455.7,27.8z"/>
	<path fill="#339900" d="M455.1,28.5C455.1,28.6,455.1,28.6,455.1,28.5L455.1,28.5L455.1,28.5z"/>
	<path fill="#339900" d="M456.2,27.1l0.1-0.6C456.2,26.7,456.2,27,456.2,27.1z"/>
	<path fill="#339900" d="M455.2,24.1l-0.1,0.6l0,0C455.1,24.5,455.2,24.3,455.2,24.1z"/>
	<path fill="#339900" d="M458.3,29.2l0-0.2C458.3,29.1,458.3,29.2,458.3,29.2z"/>
	<path fill="#339900" d="M455.1,24.8l0-0.1C455.1,24.8,455,24.8,455.1,24.8c-0.1,0-0.1,0-0.1,0C455,24.9,455,24.9,455.1,24.8
		L455.1,24.8z"/>
	<path fill="#339900" d="M456.3,26.5c0-0.1,0-0.2,0-0.2L456.3,26.5z"/>
	<path fill="#339900" d="M455.8,23.8c0-0.1,0.1-0.2,0.1-0.3L455.8,23.8z"/>
	<path fill="#339900" d="M455.5,23.8l-0.1,0.3C455.5,24,455.5,23.9,455.5,23.8z"/>
	<path fill="#339900" d="M456,23.4l-0.1,0.3l0.1-0.1C456,23.5,456,23.5,456,23.4z"/>
	<path fill="#339900" d="M456.1,23.4v0.1c0.1-0.1,0.1-0.2,0.2-0.3L456.1,23.4z"/>
	<path fill="#339900" d="M455.9,23.7l-0.1,0.1C455.9,24.1,456,24.5,455.9,23.7z"/>
	<path fill="#339900" d="M456.1,23.5L456.1,23.5C456.1,23.7,456.2,24.1,456.1,23.5z"/>
	<path fill="#339900" d="M455.4,24.4l0.3-0.4l0.1-0.2c0,0,0,0,0,0c0,0-0.1,0.1-0.1,0.1l0-0.1c0,0,0,0.1,0,0.1c0,0-0.1,0.1-0.1,0.1
		c-0.1,0.1-0.1,0.1-0.2,0.2l0-0.1c0,0,0,0.1,0,0.1C455.4,24.3,455.3,24.4,455.4,24.4c-0.2,0.1-0.2,0.2-0.3,0.3c0,0,0,0.1,0,0.1
		L455.4,24.4z"/>
	<path fill="#339900" d="M456.6,26.6l0-0.3C456.6,26.5,456.6,26.6,456.6,26.6z"/>
	<path fill="#339900" d="M457.7,29.8c0.1-0.2,0.3-0.7,0.3-0.9L457.7,29.8z"/>
	<path fill="#339900" d="M457,30.5c0.1-0.3,0.3-1.1,0.3-1.3L457,30.5z"/>
	<path fill="#339900" d="M455.2,32.4C455.2,32.5,455.2,32.5,455.2,32.4L455.2,32.4C455.2,32.4,455.2,32.4,455.2,32.4z"/>
	<path fill="#339900" d="M455.2,28.4c0.1-0.3,0.1-0.8,0.1-0.9l-0.2,1.1L455.2,28.4C455.2,28.4,455.2,28.4,455.2,28.4z"/>
	<path fill="#339900" d="M455.7,30.8l-0.5,1.6c0,0,0,0,0,0C455.4,31.9,455.6,31.2,455.7,30.8z"/>
	<path fill="#339900" d="M456.2,31.2c0,0.1-0.1,0.2-0.1,0.3l0,0L456.2,31.2z"/>
	<path fill="#339900" d="M456.2,31.2c0.1-0.4,0.3-1,0.3-1.2L456.2,31.2z"/>
	<path fill="#339900" d="M455.6,28c0.2,0,0.7,0,0.8-0.1C456.1,27.9,455.8,28,455.6,28l0.1-0.2C455.6,27.9,455.6,28,455.6,28
		C455.5,28,455.5,28,455.6,28C455.5,28,455.5,28,455.6,28c-0.2,0.1-0.2,0.2-0.3,0.3c0,0.1,0,0.1,0,0.2L455.6,28z"/>
	<path fill="#339900" d="M456.9,26.2l0.1-0.4C457,25.8,456.9,26.1,456.9,26.2z"/>
	<path fill="#339900" d="M456.6,26.6c0.1-0.1,0.2-0.3,0.3-0.4L456.6,26.6z"/>
	<path fill="#339900" d="M456.7,26.3c0-0.1,0.1-0.3,0.1-0.3L456.7,26.3z"/>
	<path fill="#339900" d="M456.6,26.6C456.8,26.6,457.2,26.5,456.6,26.6L456.6,26.6z"/>
	<path fill="#339900" d="M456.9,26.2C457,26.2,457.4,26.1,456.9,26.2L456.9,26.2z"/>
	<path fill="#339900" d="M456.9,26.2l0.4-0.6C457.2,25.8,457,26,456.9,26.2z"/>
	<path fill="#339900" d="M456.9,32.3c-0.5,0-1,0-1.4,0C455.4,32.3,456.5,32.4,456.9,32.3z"/>
	<path fill="#339900" d="M457.6,31.3c-0.4,0-0.8,0-1.2,0C456.2,31.3,457.3,31.4,457.6,31.3z"/>
	<path fill="#339900" d="M456,27.3C456,27.3,456,27.3,456,27.3C456,27.3,456,27.3,456,27.3z"/>
	<path fill="#339900" d="M456.8,27.2c-0.3,0-0.5,0.1-0.7,0.1c0-0.1,0.1-0.1,0.1-0.2l-0.1,0.2c0,0,0,0-0.1,0c0,0,0,0,0.1,0l-0.4,0.5
		c0.1-0.1,0.3-0.3,0.4-0.5C456.3,27.3,456.7,27.3,456.8,27.2z"/>
</g>
</svg>
