<!-- Generator: Adobe Illustrator 18.1.1, SVG Export Plug-In  -->
<svg version="1.1"
	 xmlns="http://www.w3.org/2000/svg" xmlns:xlink="http://www.w3.org/1999/xlink" xmlns:a="http://ns.adobe.com/AdobeSVGViewerExtensions/3.0/"
	 x="0px" y="0px" width="65.4px" height="73.7px" viewBox="0 0 65.4 73.7" enable-background="new 0 0 65.4 73.7"
	 xml:space="preserve">
<defs>
</defs>
<g id="backRleg_copy">
	<path fill="#CCCC66" d="M28,0C28,0-6.9,19.9,1.2,34.8c5.4,9.9,11.2,14.3,14.5,16.2c0.8,0.5,0.6,1.6-0.3,1.8L3.6,55.2
		c-1.2,0.2-1.1,1.8,0.1,1.9l7.5,1.5c0.9,0.1,1.3,1,0.7,1.6L7,65.4c-0.7,0.7,0.1,1.8,1.1,1.6l10.6-1.8c0.9-0.2,1.7,0.7,1.2,1.5
		l-3.4,5.6c-0.5,0.8,0.4,1.7,1.3,1.4c7.7-2,30-7.8,32-10c2.4-2.5-0.5-15.4-12.7-25c-0.7-0.5-0.4-1.5,0.4-1.7
		C44,35.8,63,31.1,65.4,16.5"/>
</g>
</svg>
