<!-- Generator: Adobe Illustrator 18.1.1, SVG Export Plug-In  -->
<svg version="1.1"
	 xmlns="http://www.w3.org/2000/svg" xmlns:xlink="http://www.w3.org/1999/xlink" xmlns:a="http://ns.adobe.com/AdobeSVGViewerExtensions/3.0/"
	 x="0px" y="0px" width="56.1px" height="27.7px" viewBox="0 0 56.1 27.7" enable-background="new 0 0 56.1 27.7"
	 xml:space="preserve">
<defs>
</defs>
<g id="tongue_1_">
	<path fill="#FF0066" d="M0,0c0,0,0.1,0,0.2,0c0.1,0,0.2,0,0.3,0c0.1,0,0.2,0,0.4,0c0.6,0,1.3,0,2.3,0c1.9,0.1,4.5,0.2,7.6,0.6
		C17,1.4,25.2,3.3,32.6,6.8c1.9,0.9,3.7,1.8,5.4,2.8c0.9,0.5,1.7,1.1,2.5,1.6c0.8,0.6,1.6,1.1,2.3,1.7c0.7,0.6,1.5,1.1,2.2,1.7
		c0.7,0.6,1.3,1.2,2,1.7c0.6,0.6,1.2,1.2,1.8,1.7c0.6,0.6,1.1,1.2,1.6,1.7c0.5,0.5,0.9,1.1,1.4,1.6c0.4,0.5,0.8,1,1.2,1.5
		c0.7,1,1.3,1.8,1.8,2.5c0.9,1.4,1.4,2.2,1.4,2.2s-0.7-0.7-1.9-1.8c-0.6-0.6-1.4-1.2-2.3-1.9c-0.4-0.4-1-0.7-1.5-1.1
		c-0.5-0.4-1.1-0.8-1.7-1.2c-0.6-0.4-1.2-0.8-1.8-1.2c-0.7-0.4-1.3-0.7-2-1.1c-0.7-0.4-1.4-0.7-2.2-1.1c-0.8-0.3-1.5-0.7-2.3-1
		c-0.8-0.3-1.6-0.6-2.4-0.9c-0.8-0.3-1.7-0.5-2.5-0.8c-1.7-0.5-3.5-0.9-5.2-1.2c-1.8-0.3-3.5-0.5-5.3-0.7c-1.8-0.1-3.5-0.2-5.1-0.2
		c-1.7,0-3.3,0.1-4.8,0.2c-1.5,0.1-2.9,0.3-4.2,0.4c-2.6,0.3-4.7,0.8-6.1,1.1c-0.7,0.2-1.2,0.3-1.6,0.4c-0.1,0-0.2,0-0.2,0.1
		c0,0-0.1,0-0.1,0c0,0-0.1,0-0.1,0L0,0z"/>
</g>
</svg>
