<!-- Generator: Adobe Illustrator 18.1.1, SVG Export Plug-In  -->
<svg version="1.1"
	 xmlns="http://www.w3.org/2000/svg" xmlns:xlink="http://www.w3.org/1999/xlink" xmlns:a="http://ns.adobe.com/AdobeSVGViewerExtensions/3.0/"
	 x="0px" y="0px" width="175.4px" height="58.6px" viewBox="0 0 175.4 58.6" enable-background="new 0 0 175.4 58.6"
	 xml:space="preserve">
<defs>
</defs>
<g>
	<path fill="#FF0066" d="M163.4,58.6H12c-6.6,0-12-5.4-12-12V12C0,5.4,5.4,0,12,0h151.4c6.6,0,12,5.4,12,12v34.6
		C175.4,53.2,170,58.6,163.4,58.6z"/>
	<g>
		<path fill="#FFFFFF" d="M47,16c0.2,0.4,0.3,0.7,0.3,1c0,0.3,0.1,0.7,0.1,1.3v20c0,1.7-0.5,2.6-1.4,2.9c-0.5,0.1-1,0.2-1.7,0.2
			c-0.7,0-1.2-0.1-1.7-0.2c-0.4-0.1-0.7-0.3-0.9-0.4c-0.2-0.2-0.4-0.4-0.5-0.7c-0.1-0.4-0.2-1-0.2-1.9V26.1
			c-0.6,0.7-1.5,1.9-2.6,3.5c-1.2,1.6-1.9,2.6-2.2,3c-0.3,0.4-0.5,0.7-0.6,0.8c-0.1,0.2-0.4,0.4-0.9,0.6c-0.5,0.3-1,0.4-1.5,0.4
			s-1-0.1-1.5-0.4c-0.4-0.3-0.8-0.5-1-0.7l-0.3-0.4c-0.5-0.6-1.4-1.9-2.8-3.8c-1.4-2-2.2-3-2.3-3.1v12.1c0,0.6,0,1-0.1,1.2
			c0,0.3-0.2,0.6-0.3,0.9c-0.4,0.6-1.3,1-2.8,1c-1.5,0-2.4-0.3-2.7-1c-0.2-0.3-0.3-0.6-0.3-0.9c0-0.3-0.1-0.7-0.1-1.3v-20
			c0-0.6,0-1,0.1-1.2c0-0.3,0.1-0.6,0.3-1c0.4-0.6,1.3-0.9,2.8-0.9c0.6,0,1.2,0.1,1.7,0.2c0.5,0.2,0.8,0.3,0.9,0.5L25,16l8.2,10.7
			c4.1-5.4,6.8-9,8.2-10.7c0.4-0.6,1.4-1,2.9-1C45.7,15.1,46.7,15.4,47,16z"/>
		<path fill="#FFFFFF" d="M65.9,22.7c1.4,0.6,2.1,1.4,2.1,2.3c0,0.4-0.1,0.8-0.3,1.2c-0.2,0.4-0.3,0.6-0.3,0.6L58,47.9
			c-0.2,0.5-0.4,0.8-0.5,1c-0.1,0.2-0.3,0.5-0.6,0.7c-0.3,0.2-0.6,0.3-1.1,0.3s-1.1-0.2-1.9-0.5c-1.4-0.6-2.1-1.4-2.1-2.2
			c0-0.6,1.2-3.3,3.5-8.2l-7.2-12.1c-0.5-0.8-0.7-1.4-0.7-1.8c0-0.8,0.6-1.5,1.9-2.3c0.8-0.5,1.5-0.7,1.9-0.7c0.5,0,0.8,0.1,1.1,0.3
			c0.3,0.2,0.5,0.4,0.6,0.6c0.1,0.2,0.8,1.3,2,3.3c1.2,2,2.3,3.9,3.4,5.7c0.1-0.4,0.8-1.9,1.9-4.4c1.2-2.6,1.8-4,1.9-4.1
			c0.1-0.2,0.2-0.4,0.4-0.6c0.3-0.4,0.7-0.6,1.3-0.6C64.5,22.2,65.1,22.3,65.9,22.7z"/>
		<path fill="#FFFFFF" d="M87.8,14.6c0.2-0.3,0.5-0.6,1-0.7c0.5-0.1,1.1-0.2,1.8-0.2s1.4,0.1,1.8,0.2c0.5,0.1,0.8,0.4,1,0.8
			c0.2,0.4,0.3,0.7,0.3,1c0,0.3,0.1,0.7,0.1,1.2v21.5c0,0.6,0,1-0.1,1.2c0,0.3-0.2,0.6-0.3,0.9c-0.4,0.6-1.4,1-3,1
			c-1.7,0-2.6-0.6-2.8-1.8c-1,1.2-2.4,1.7-4.2,1.7c-2.2,0-4.1-0.9-5.9-2.8c-1.8-1.9-2.7-4.1-2.7-6.6s0.9-4.7,2.7-6.6
			c1.8-1.9,3.7-2.8,5.9-2.8c1.8,0,3.2,0.6,4.1,1.8v-7.6c0-0.6,0-1,0.1-1.2C87.5,15.2,87.6,14.9,87.8,14.6z M82,34.1
			c0.6,0.6,1.4,1,2.3,1c0.9,0,1.6-0.3,2.2-1c0.6-0.6,0.9-1.4,0.9-2.1c0-0.8-0.3-1.5-0.8-2.2c-0.6-0.7-1.3-1-2.3-1s-1.7,0.3-2.3,1
			C81.3,30.4,81,31.2,81,32C81,32.7,81.3,33.5,82,34.1z"/>
		<path fill="#FFFFFF" d="M100.5,18.9c-0.2,0.3-0.5,0.6-1,0.7c-0.5,0.1-1.1,0.2-1.8,0.2c-0.8,0-1.4-0.1-1.8-0.2
			c-0.5-0.1-0.8-0.4-1-0.8c-0.2-0.4-0.3-0.7-0.3-1c0-0.3-0.1-0.7-0.1-1.2c0-0.6,0-1,0.1-1.2c0-0.3,0.1-0.6,0.3-0.9
			c0.3-0.6,1.3-1,2.8-1c1.5,0,2.4,0.3,2.7,1c0.2,0.4,0.3,0.7,0.3,1c0,0.3,0.1,0.7,0.1,1.2c0,0.6,0,1-0.1,1.2S100.7,18.6,100.5,18.9z
			 M94.6,25.6c0-0.6,0-1,0.1-1.2c0-0.3,0.1-0.6,0.3-1c0.3-0.6,1.3-0.9,2.8-0.9c1.2,0,2,0.2,2.4,0.6c0.4,0.3,0.6,0.9,0.6,1.5
			c0,0.2,0,0.6,0,1v12.6c0,0.6,0,1-0.1,1.2c0,0.3-0.2,0.6-0.3,1c-0.3,0.6-1.2,0.9-2.8,0.9c-1.5,0-2.4-0.3-2.8-1
			c-0.2-0.4-0.3-0.7-0.3-0.9c0-0.3-0.1-0.7-0.1-1.3V25.6z"/>
		<path fill="#FFFFFF" d="M112.3,22.5c2.4,0,4.4,0.9,6,2.8c1.6,1.8,2.4,4.1,2.4,6.7v6.3c0,0.6,0,1-0.1,1.2c0,0.3-0.1,0.6-0.3,0.9
			c-0.3,0.6-1.3,1-2.8,1c-1.7,0-2.7-0.4-3-1.3c-0.1-0.4-0.2-1-0.2-1.8v-6.3c0-1-0.3-1.8-0.8-2.3c-0.6-0.6-1.3-0.8-2.3-0.8
			s-1.7,0.3-2.3,0.9c-0.6,0.6-0.9,1.3-0.9,2.3v6.4c0,0.6,0,1-0.1,1.2c0,0.3-0.1,0.6-0.3,0.9c-0.3,0.6-1.2,1-2.8,1
			c-1.5,0-2.4-0.3-2.8-1c-0.2-0.4-0.3-0.7-0.3-1c0-0.3-0.1-0.7-0.1-1.2V25.5c0-0.5,0-0.9,0.1-1.2c0-0.3,0.1-0.6,0.3-0.9
			c0.3-0.6,1.3-0.9,2.8-0.9c1.5,0,2.4,0.3,2.7,0.8c0.2,0.4,0.4,0.9,0.4,1.5c0.1-0.2,0.3-0.4,0.6-0.7c0.3-0.3,0.7-0.6,1-0.8
			C110.4,22.7,111.3,22.5,112.3,22.5z"/>
		<path fill="#FFFFFF" d="M124,24.8c2-1.9,4.3-2.8,6.9-2.8s4.9,0.9,6.9,2.8c2,1.9,3,4.2,3,7.1c0,2-0.5,3.8-1.5,5.3
			c-1,1.5-2.3,2.7-3.8,3.4c-1.5,0.7-3,1.1-4.6,1.1s-3.1-0.4-4.6-1.2c-1.5-0.8-2.7-1.9-3.8-3.5c-1-1.5-1.5-3.2-1.5-5.2
			C121,29.1,122,26.7,124,24.8z M128.5,34.5c0.8,0.6,1.5,0.9,2.3,0.9s1.6-0.3,2.4-0.9s1.2-1.5,1.2-2.7c0-1.2-0.4-2.1-1.1-2.6
			s-1.5-0.9-2.4-0.9s-1.7,0.3-2.4,0.9s-1.1,1.5-1.1,2.6C127.4,33.1,127.8,33.9,128.5,34.5z"/>
		<path fill="#FFFFFF" d="M141.3,39.7c-0.5-0.3-0.7-0.7-0.7-1.4c0-0.6,0.5-1.6,1.4-2.8c0.3-0.4,0.7-0.6,1.3-0.6s1.4,0.3,2.4,0.9
			c1,0.6,1.9,0.9,2.7,0.9c1.5,0,2.2-0.3,2.2-0.9c0-0.5-0.8-0.8-2.4-1c-1.5-0.2-3-0.8-4.5-1.7c-0.7-0.4-1.3-1.1-1.7-2
			c-0.5-0.9-0.7-2-0.7-3.3c0-3.8,2.6-5.7,7.8-5.7c1.7,0,3.5,0.4,5.3,1.2c0.8,0.4,1.3,0.9,1.3,1.4s-0.3,1.3-0.8,2.1
			c-0.5,0.8-1.1,1.3-1.6,1.3c-0.3,0-0.8-0.2-1.6-0.5c-0.8-0.4-1.6-0.5-2.5-0.5c-1.4,0-2.1,0.3-2.1,0.8c0,0.7,0.8,1.2,2.4,1.4
			c1.6,0.2,3.1,0.6,4.6,1.4c0.7,0.3,1.3,0.9,1.7,1.7c0.5,0.8,0.7,1.9,0.7,3.1c0,1.2-0.2,2.3-0.7,3.2s-1.1,1.5-2,2
			c-1.5,0.7-3.5,1.1-5.8,1.1S143.4,41.1,141.3,39.7z"/>
	</g>
</g>
</svg>
