<!-- Generator: Adobe Illustrator 18.1.1, SVG Export Plug-In  -->
<svg version="1.1"
	 xmlns="http://www.w3.org/2000/svg" xmlns:xlink="http://www.w3.org/1999/xlink" xmlns:a="http://ns.adobe.com/AdobeSVGViewerExtensions/3.0/"
	 x="0px" y="0px" width="297.6px" height="217.6px" viewBox="0 0 297.6 217.6" enable-background="new 0 0 297.6 217.6"
	 xml:space="preserve">
<defs>
</defs>
<g id="spikes_copy">
	<path fill="#FFCC33" d="M216.8,127.8c0,0,38.1-26.8,64.2-11.7c0,0,1,0.4,2.4,0.2c0.5-0.1,0.7,0.4,0.3,0.7c-1,0.9-1.6,2-1.7,2.7
		c0,1.3-2.5,30.3-45.7,48.3C236.4,168.1,238.6,146.5,216.8,127.8z"/>
	<g>
		<g>
			<path fill="#FF9900" d="M270.2,126.7c0,0-0.3,0.2-1,0.7c-0.6,0.4-1.5,1-2.6,1.7c-1.1,0.7-2.3,1.5-3.7,2.3
				c-1.4,0.8-2.8,1.7-4.3,2.6c-1.5,0.9-2.9,1.7-4.3,2.5c-1.4,0.8-2.7,1.5-3.8,2.1c-1.1,0.6-2.1,1.1-2.8,1.4
				c-0.7,0.3-1.1,0.5-1.1,0.5s0.3-0.2,1-0.7c0.6-0.4,1.5-1,2.6-1.7c1.1-0.7,2.3-1.5,3.7-2.3c1.4-0.8,2.8-1.7,4.3-2.6
				c1.5-0.9,2.9-1.7,4.3-2.5c1.4-0.8,2.7-1.5,3.8-2.1c1.1-0.6,2.1-1.1,2.8-1.4C269.8,126.9,270.2,126.7,270.2,126.7z"/>
		</g>
		<g>
			<path fill="#FF9900" d="M263,118.9c0,0-0.3,0.3-0.8,0.8c-0.5,0.5-1.2,1.3-2.1,2.1c-0.9,0.9-1.9,1.9-3.1,2.9
				c-1.1,1.1-2.4,2.2-3.6,3.3c-1.2,1.1-2.5,2.2-3.7,3.2c-1.2,1-2.3,1.9-3.3,2.7c-1,0.8-1.8,1.4-2.4,1.9c-0.6,0.4-0.9,0.7-0.9,0.7
				s0.3-0.3,0.8-0.8c0.5-0.5,1.2-1.3,2.1-2.1c0.9-0.9,1.9-1.9,3.1-2.9c1.1-1.1,2.4-2.2,3.6-3.3c1.2-1.1,2.5-2.2,3.7-3.2
				c1.2-1,2.3-1.9,3.3-2.7c1-0.8,1.8-1.4,2.4-1.9C262.6,119.2,263,118.9,263,118.9z"/>
		</g>
		<g>
			<path fill="#FF9900" d="M274.9,134.5c0,0-0.4,0.2-1,0.6c-0.7,0.3-1.6,0.9-2.7,1.4c-1.2,0.6-2.5,1.2-3.9,1.9
				c-1.4,0.7-3,1.4-4.5,2.1c-1.6,0.7-3.1,1.4-4.6,2c-1.5,0.6-2.9,1.2-4.1,1.6c-1.2,0.5-2.2,0.8-2.9,1.1c-0.7,0.2-1.1,0.4-1.1,0.4
				s0.4-0.2,1-0.6c0.7-0.3,1.6-0.9,2.7-1.4c1.2-0.6,2.5-1.2,3.9-1.9c1.4-0.7,3-1.4,4.6-2.1c1.6-0.7,3.1-1.4,4.6-2
				c1.5-0.6,2.9-1.2,4.1-1.6c1.2-0.5,2.2-0.8,2.9-1.1C274.5,134.6,274.9,134.5,274.9,134.5z"/>
		</g>
	</g>
	<path fill="#FFCC33" d="M77.7,101.8c0,0-22.1-56.7,9.7-86.3c0,0,1-1.1,1.3-3c0.1-0.6,0.8-0.8,1.2-0.2c0.9,1.5,2.1,2.7,3.1,2.9
		c1.8,0.4,41.5,11.7,49.1,72.6C142.1,87.7,112.8,78.7,77.7,101.8z"/>
	<g>
		<path fill="#FF9900" d="M94.7,27.7c0,0,0.2,0.6,0.5,1.5c0.3,1,0.8,2.4,1.3,4.1c0.5,1.7,1.1,3.6,1.7,5.8c0.6,2.1,1.3,4.4,1.9,6.6
			c0.6,2.3,1.2,4.5,1.8,6.7c0.6,2.1,1,4.1,1.4,5.8c0.4,1.7,0.7,3.2,0.9,4.2c0.2,1,0.3,1.6,0.3,1.6s-0.2-0.6-0.5-1.5
			c-0.3-1-0.8-2.4-1.3-4.1c-0.5-1.7-1.1-3.6-1.7-5.8c-0.6-2.1-1.3-4.4-1.9-6.6c-0.6-2.3-1.2-4.5-1.8-6.7c-0.6-2.1-1-4.1-1.4-5.8
			c-0.4-1.7-0.7-3.2-0.9-4.2C94.8,28.3,94.7,27.7,94.7,27.7z"/>
	</g>
	<g>
		<path fill="#FF9900" d="M108.7,38c0,0,0.1,0.6,0.4,1.6c0.2,1,0.5,2.4,0.9,4.2c0.3,1.7,0.7,3.7,1.1,5.9c0.4,2.2,0.8,4.5,1.2,6.8
			c0.4,2.3,0.7,4.6,1,6.8c0.3,2.2,0.6,4.2,0.8,6c0.2,1.7,0.4,3.2,0.5,4.2c0.1,1,0.2,1.6,0.2,1.6s-0.1-0.6-0.4-1.6
			c-0.2-1-0.5-2.4-0.9-4.2c-0.3-1.7-0.7-3.7-1.1-5.9c-0.4-2.2-0.8-4.5-1.2-6.8c-0.4-2.3-0.7-4.6-1-6.8c-0.3-2.2-0.6-4.2-0.8-6
			c-0.2-1.7-0.4-3.2-0.5-4.2C108.8,38.6,108.7,38,108.7,38z"/>
	</g>
	<path fill="#FFCC33" d="M156.3,79.5c0,0,27.5-54.3,70.7-50.4c0,0,1.5,0,3.1-1.1c0.5-0.4,1.1,0.1,0.9,0.7c-0.5,1.7-0.6,3.4-0.1,4.3
		c0.9,1.7,18.9,38.7-21.3,85C209.7,118.1,196.8,90.3,156.3,79.5z"/>
	<g>
		<g>
			<path fill="#FF9900" d="M223,38.9c0,0-0.3,0.5-0.8,1.4c-0.5,0.9-1.3,2.1-2.3,3.6c-1,1.5-2.1,3.2-3.3,5.1
				c-1.2,1.8-2.5,3.8-3.9,5.7c-1.3,1.9-2.7,3.9-4,5.7c-1.3,1.8-2.5,3.5-3.5,4.9c-1,1.4-1.9,2.6-2.6,3.4c-0.6,0.8-1,1.3-1,1.3
				s0.3-0.5,0.8-1.4c0.5-0.9,1.3-2.1,2.3-3.6c1-1.5,2.1-3.2,3.3-5.1c1.2-1.8,2.5-3.8,3.9-5.7c1.3-1.9,2.7-3.9,4-5.7
				c1.3-1.8,2.5-3.5,3.5-4.9c1-1.4,1.9-2.6,2.6-3.4C222.6,39.4,223,38.9,223,38.9z"/>
		</g>
		<g>
			<path fill="#FF9900" d="M204.4,44.3c0,0-0.2,0.5-0.5,1.5c-0.4,0.9-0.8,2.3-1.5,3.9c-0.6,1.6-1.4,3.5-2.2,5.5
				c-0.8,2-1.7,4.1-2.6,6.2c-0.9,2.1-1.8,4.2-2.7,6.2c-0.9,2-1.7,3.8-2.5,5.3c-0.7,1.6-1.4,2.8-1.8,3.7c-0.5,0.9-0.7,1.4-0.7,1.4
				s0.2-0.5,0.5-1.5c0.4-0.9,0.8-2.3,1.5-3.9c0.6-1.6,1.3-3.5,2.2-5.5c0.8-2,1.7-4.1,2.6-6.2c0.9-2.1,1.8-4.2,2.7-6.2
				c0.9-2,1.7-3.8,2.5-5.3c0.7-1.6,1.4-2.8,1.8-3.7C204.2,44.8,204.4,44.3,204.4,44.3z"/>
		</g>
		<g>
			<path fill="#FF9900" d="M228.2,57.3c0,0-0.4,0.5-1,1.3c-0.6,0.8-1.5,2-2.7,3.3c-1.1,1.4-2.4,3-3.8,4.7c-1.4,1.7-2.9,3.5-4.5,5.3
				c-1.5,1.8-3.1,3.5-4.6,5.2c-1.5,1.6-2.9,3.1-4.1,4.4c-1.2,1.3-2.2,2.3-2.9,3.1c-0.7,0.7-1.1,1.2-1.1,1.2s0.4-0.5,1-1.3
				c0.6-0.8,1.5-2,2.7-3.3c1.1-1.4,2.4-3,3.8-4.7c1.4-1.7,2.9-3.5,4.5-5.3c1.5-1.8,3.1-3.5,4.6-5.2c1.5-1.6,2.9-3.1,4.1-4.4
				c1.2-1.3,2.2-2.3,2.9-3.1C227.8,57.7,228.2,57.3,228.2,57.3z"/>
		</g>
	</g>
	<path fill="#FFCC33" d="M23.5,197.1c0,0-17.5-6.2-18-19.3c0,0-0.1-0.5-0.5-0.9c-0.1-0.1,0-0.3,0.2-0.3c0.5,0.1,1,0,1.3-0.1
		c0.5-0.3,10.9-7.2,26.5,3.1C33,179.6,25.1,184.5,23.5,197.1z"/>
	<g>
		<g>
			<path fill="#FF9900" d="M10.2,180.4c0,0,0.5,0.1,1.3,0.5c0.8,0.3,1.7,0.8,2.6,1.4c0.9,0.6,1.8,1.2,2.4,1.7c0.6,0.5,1,1,1,1
				s-0.5-0.1-1.3-0.5c-0.8-0.3-1.7-0.8-2.6-1.4c-0.9-0.6-1.8-1.2-2.4-1.7C10.6,180.8,10.2,180.4,10.2,180.4z"/>
		</g>
		<g>
			<path fill="#FF9900" d="M9.1,183.4c0,0,0.6,0,1.3,0.2c0.8,0.2,1.8,0.5,2.8,0.8c1,0.4,1.9,0.8,2.6,1.2c0.7,0.4,1.1,0.7,1.1,0.7
				s-0.6,0-1.3-0.2c-0.8-0.2-1.8-0.5-2.8-0.8c-1-0.4-1.9-0.8-2.6-1.2C9.5,183.8,9.1,183.4,9.1,183.4z"/>
		</g>
		<g>
			<path fill="#FF9900" d="M11.8,178c0,0,0.5,0.2,1.2,0.6c0.7,0.4,1.6,1,2.5,1.7c0.8,0.7,1.7,1.4,2.2,2c0.6,0.6,0.9,1.1,0.9,1.1
				s-0.5-0.2-1.2-0.6c-0.7-0.4-1.6-1-2.5-1.7c-0.8-0.7-1.6-1.4-2.2-2C12.1,178.5,11.8,178,11.8,178z"/>
		</g>
	</g>
	<path fill="#FFCC33" d="M19.6,206.6c0,0-13.5-3-15.2-12.7c0,0-0.1-0.3-0.4-0.6C4,193.1,4,193,4.2,193c0.4,0,0.8-0.1,0.9-0.2
		c0.3-0.3,7.5-6.3,20-0.1C25.1,192.7,19.7,197,19.6,206.6z"/>
	<g>
		<g>
			<path fill="#FF9900" d="M8.9,193.8c0,0,0.5,0.1,1.3,0.5c0.8,0.3,1.7,0.8,2.6,1.4c0.9,0.6,1.8,1.2,2.4,1.7c0.6,0.5,1,1,1,1
				s-0.5-0.1-1.3-0.5c-0.8-0.3-1.7-0.8-2.6-1.4c-0.9-0.6-1.8-1.2-2.4-1.7C9.3,194.2,8.9,193.8,8.9,193.8z"/>
		</g>
		<g>
			<path fill="#FF9900" d="M7.7,196.8c0,0,0.6,0,1.3,0.2c0.8,0.2,1.8,0.5,2.8,0.8c1,0.4,1.9,0.8,2.6,1.2c0.7,0.4,1.1,0.7,1.1,0.7
				s-0.6,0-1.3-0.2c-0.8-0.2-1.8-0.5-2.8-0.8c-1-0.4-1.9-0.8-2.6-1.2C8.2,197.1,7.7,196.8,7.7,196.8z"/>
		</g>
		<g>
			<path fill="#FF9900" d="M10.4,191.4c0,0,0.5,0.2,1.2,0.6c0.7,0.4,1.6,1,2.5,1.7c0.8,0.7,1.7,1.4,2.2,2c0.6,0.6,0.9,1.1,0.9,1.1
				s-0.5-0.2-1.2-0.6c-0.7-0.4-1.6-1-2.5-1.7c-0.8-0.7-1.6-1.4-2.2-2C10.8,191.9,10.4,191.4,10.4,191.4z"/>
		</g>
	</g>
	<path fill="#FFCC33" d="M224.5,149.1c0,0,40.3-28.7,69.9-9.7c0,0,1.1,0.6,2.7,0.4c0.5-0.1,0.8,0.5,0.4,0.9c-1,1-1.7,2.2-1.7,3.1
		c0,1.5-0.9,35-47.3,53.2C248.5,197,249.7,172.2,224.5,149.1z"/>
	<g>
		<g>
			<path fill="#FF9900" d="M290.8,145.7c0,0-0.6,0.3-1.6,0.9c-1,0.6-2.4,1.4-4.2,2.3c-1.7,0.9-3.8,2-6,3.2c-2.2,1.2-4.5,2.4-6.9,3.6
				c-2.4,1.2-4.7,2.4-6.9,3.4c-2.2,1.1-4.3,2.1-6.1,2.9c-1.8,0.9-3.3,1.5-4.3,2c-1.1,0.5-1.7,0.7-1.7,0.7s0.6-0.3,1.6-0.9
				c1-0.6,2.4-1.4,4.2-2.3c1.7-0.9,3.8-2.1,6-3.2c2.2-1.2,4.5-2.4,6.9-3.6c2.4-1.2,4.7-2.4,6.9-3.4c2.2-1.1,4.3-2.1,6.1-2.9
				c1.8-0.9,3.3-1.5,4.3-2C290.2,146,290.8,145.7,290.8,145.7z"/>
		</g>
		<g>
			<path fill="#FF9900" d="M274.1,142.4c0,0-0.4,0.3-1,0.8c-0.6,0.5-1.5,1.3-2.6,2.1c-1.1,0.9-2.4,1.9-3.8,2.9
				c-1.4,1.1-2.9,2.2-4.4,3.3c-1.5,1.1-3.1,2.2-4.5,3.2c-1.4,1-2.8,1.9-4,2.7c-1.2,0.8-2.2,1.4-2.9,1.8c-0.7,0.4-1.1,0.7-1.1,0.7
				s0.4-0.3,1-0.8c0.6-0.5,1.5-1.3,2.6-2.1c1.1-0.9,2.4-1.9,3.8-2.9c1.4-1.1,2.9-2.2,4.4-3.3c1.5-1.1,3.1-2.2,4.5-3.2
				c1.4-1,2.8-1.9,4-2.7c1.2-0.8,2.2-1.4,2.9-1.8C273.7,142.7,274.1,142.4,274.1,142.4z"/>
		</g>
		<g>
			<path fill="#FF9900" d="M285.6,161.3c0,0-0.4,0.2-1.2,0.5c-0.8,0.3-1.9,0.8-3.3,1.3c-1.4,0.5-2.9,1.1-4.7,1.7
				c-1.7,0.6-3.5,1.2-5.4,1.8c-1.8,0.6-3.7,1.2-5.4,1.7c-1.7,0.5-3.4,1-4.8,1.4c-1.4,0.4-2.6,0.7-3.4,0.9c-0.8,0.2-1.3,0.3-1.3,0.3
				s0.4-0.2,1.2-0.5c0.8-0.3,1.9-0.8,3.3-1.3c1.4-0.5,2.9-1.1,4.7-1.7c1.7-0.6,3.5-1.2,5.4-1.8c1.8-0.6,3.7-1.2,5.4-1.7
				c1.7-0.5,3.4-1,4.8-1.4c1.4-0.4,2.6-0.7,3.4-0.9C285.1,161.5,285.6,161.3,285.6,161.3z"/>
		</g>
	</g>
	<path fill="#FFCC33" d="M108.6,84.5c0,0-6.3-61.4,44-81.5c0,0,1.6-0.8,2.7-2.6c0.4-0.6,1.3-0.5,1.5,0.1c0.6,1.7,1.6,3.2,2.8,3.7
		c2.1,0.9,47,23,34,84.4C193.6,88.7,160.7,71.8,108.6,84.5z"/>
	<path fill="#FFCC33" d="M189.9,87.1c0,0,39.2-41.5,81.6-20.9c0,0,1.5,0.6,3.4,0.2c0.6-0.1,1.1,0.5,0.8,1.1c-0.9,1.4-1.3,3-1,4.1
		c0.6,1.9,10.7,44.7-39.5,73.6C235.2,145.1,228.2,113.3,189.9,87.1z"/>
	<path fill="#FFCC33" d="M51.8,147.4c0,0-47.1-43.5-26.1-89.9c0,0,0.6-1.7,0.1-3.7c-0.2-0.7,0.5-1.2,1.1-0.8c1.6,1,3.4,1.5,4.5,1.1
		c2.1-0.6,48.5-11.3,82.2,44.2C113.5,98.2,79,105.5,51.8,147.4z"/>
	<path fill="#FFCC33" d="M34.8,171c0,0-37.7-20.5-34.1-50.9c0,0,0-1.1-0.7-2.2c-0.2-0.4,0.1-0.8,0.5-0.6c1.2,0.4,2.4,0.5,3,0.1
		c1.2-0.6,27.7-12.5,59.5,16.7C63.1,134.2,43.3,142.6,34.8,171z"/>
	<path fill="#FFCC33" d="M25.9,187.4c0,0-23.7-9.5-23.6-27.8c0,0-0.1-0.6-0.6-1.3c-0.2-0.2,0-0.5,0.3-0.4c0.7,0.2,1.4,0.1,1.8-0.1
		c0.7-0.4,15.5-9.5,36.3,5.6C40.1,163.5,28.9,169.9,25.9,187.4z"/>
	<path fill="#FFCC33" d="M250.3,193.7c0,0,21.4-15.1,36.5-5.9c0,0,0.6,0.3,1.4,0.2c0.3,0,0.4,0.2,0.2,0.4c-0.5,0.5-0.9,1.1-0.9,1.6
		c0,0.8-1,17.7-25.4,27.6C262.1,217.6,263.1,205,250.3,193.7z"/>
	<g>
		<path fill="#FF9900" d="M85,46.3c0,0,0.3,0.5,0.8,1.4c0.5,0.9,1.3,2.1,2.2,3.7c0.9,1.5,1.9,3.3,3,5.2c1.1,1.9,2.2,4,3.3,6.1
			c1.1,2.1,2.2,4.2,3.2,6.1c1,2,1.9,3.8,2.7,5.4c0.8,1.6,1.4,2.9,1.8,3.9c0.4,0.9,0.7,1.5,0.7,1.5s-0.3-0.5-0.8-1.4
			c-0.5-0.9-1.3-2.1-2.2-3.7c-0.9-1.5-1.9-3.3-3-5.2c-1.1-1.9-2.2-4-3.3-6.1c-1.1-2.1-2.2-4.2-3.2-6.1c-1-2-1.9-3.8-2.7-5.4
			c-0.8-1.6-1.4-2.9-1.8-3.9C85.3,46.9,85,46.3,85,46.3z"/>
	</g>
	<g>
		<g>
			<path fill="#FF9900" d="M153.8,14.2c0,0,0,0.8,0,2.3c0,1.5-0.1,3.6-0.2,6.1c-0.1,2.5-0.2,5.5-0.3,8.6c-0.2,3.1-0.3,6.5-0.5,9.8
				c-0.2,3.3-0.4,6.7-0.6,9.8c-0.2,3.1-0.5,6.1-0.7,8.6c-0.2,2.5-0.4,4.6-0.5,6.1c-0.1,1.5-0.2,2.3-0.2,2.3s0-0.8,0-2.3
				c0-1.5,0.1-3.6,0.2-6.1c0.1-2.5,0.2-5.5,0.3-8.6c0.2-3.1,0.3-6.5,0.5-9.8c0.2-3.3,0.4-6.7,0.6-9.8c0.2-3.1,0.5-6.1,0.7-8.6
				c0.2-2.5,0.4-4.6,0.5-6.1C153.7,15,153.8,14.2,153.8,14.2z"/>
		</g>
		<g>
			<path fill="#FF9900" d="M135.7,27.7c0,0,0.1,0.6,0.3,1.7c0.2,1.1,0.5,2.6,0.8,4.4c0.3,1.8,0.7,4,1,6.3c0.4,2.3,0.7,4.8,1.1,7.2
				c0.3,2.5,0.7,4.9,1,7.2c0.3,2.3,0.5,4.5,0.7,6.3c0.2,1.9,0.3,3.4,0.4,4.5c0.1,1.1,0.1,1.7,0.1,1.7s-0.1-0.6-0.3-1.7
				c-0.2-1.1-0.5-2.6-0.8-4.4c-0.3-1.8-0.7-4-1-6.3c-0.4-2.3-0.7-4.8-1.1-7.2c-0.3-2.5-0.7-4.9-1-7.2c-0.3-2.3-0.5-4.5-0.7-6.3
				c-0.2-1.9-0.3-3.4-0.4-4.5C135.7,28.3,135.7,27.7,135.7,27.7z"/>
		</g>
		<g>
			<path fill="#FF9900" d="M168.7,28.3c0,0-0.1,0.7-0.2,1.9c-0.2,1.2-0.4,2.9-0.7,4.9c-0.3,2-0.6,4.4-1,6.9
				c-0.4,2.5-0.8,5.2-1.3,7.9c-0.5,2.7-0.9,5.3-1.4,7.8c-0.5,2.5-1,4.8-1.3,6.8c-0.4,2-0.8,3.6-1,4.8c-0.3,1.2-0.4,1.8-0.4,1.8
				s0.1-0.7,0.2-1.9c0.2-1.2,0.4-2.9,0.7-4.9c0.3-2,0.6-4.4,1-6.9c0.4-2.5,0.8-5.2,1.3-7.9c0.5-2.7,0.9-5.3,1.4-7.8
				c0.5-2.5,1-4.8,1.3-6.8c0.4-2,0.8-3.6,1-4.8C168.6,29,168.7,28.3,168.7,28.3z"/>
		</g>
	</g>
	<g>
		<g>
			<path fill="#FF9900" d="M265,75.3c0,0-0.5,0.5-1.4,1.4c-0.9,0.9-2.2,2.2-3.7,3.7c-1.6,1.5-3.4,3.3-5.4,5.2
				c-2,1.9-4.1,3.9-6.2,5.9c-2.1,2-4.3,4-6.3,5.8c-2,1.9-3.9,3.5-5.6,5c-1.6,1.5-3,2.6-4,3.5c-1,0.8-1.5,1.3-1.5,1.3
				s0.5-0.5,1.4-1.4c0.9-0.9,2.2-2.2,3.7-3.7c1.6-1.5,3.4-3.3,5.4-5.2c2-1.9,4.1-3.9,6.2-5.9c2.1-2,4.3-4,6.3-5.8
				c2-1.9,3.9-3.5,5.6-5c1.6-1.5,3-2.6,4-3.5C264.4,75.8,265,75.3,265,75.3z"/>
		</g>
		<g>
			<path fill="#FF9900" d="M246.5,74.4c0,0-0.3,0.5-0.8,1.3c-0.5,0.8-1.3,2-2.2,3.3c-0.9,1.3-2,2.9-3.2,4.6
				c-1.2,1.7-2.5,3.4-3.8,5.2c-1.3,1.8-2.6,3.5-3.9,5.1c-1.2,1.6-2.4,3.1-3.5,4.4c-1,1.3-1.9,2.3-2.5,3.1c-0.6,0.7-1,1.2-1,1.2
				s0.3-0.5,0.8-1.3c0.5-0.8,1.3-2,2.2-3.3c0.9-1.3,2-2.9,3.2-4.6c1.2-1.7,2.5-3.4,3.8-5.2c1.3-1.8,2.6-3.5,3.9-5.1
				c1.2-1.6,2.4-3.1,3.5-4.4c1-1.3,1.9-2.3,2.5-3.1C246.2,74.8,246.5,74.4,246.5,74.4z"/>
		</g>
		<g>
			<path fill="#FF9900" d="M264.5,92.8c0,0-0.5,0.4-1.3,1c-0.8,0.6-2,1.6-3.5,2.7c-1.5,1.1-3.1,2.4-5,3.7c-1.8,1.3-3.8,2.8-5.8,4.2
				c-2,1.4-4,2.8-5.8,4.1c-1.9,1.3-3.6,2.4-5.1,3.5c-1.5,1-2.8,1.8-3.7,2.4c-0.9,0.6-1.4,0.9-1.4,0.9s0.5-0.4,1.3-1
				c0.8-0.6,2-1.6,3.5-2.7c1.5-1.1,3.1-2.4,5-3.7c1.8-1.3,3.8-2.8,5.8-4.2c2-1.4,4-2.8,5.8-4.1c1.9-1.3,3.6-2.4,5.1-3.5
				c1.5-1,2.8-1.8,3.7-2.4C264,93.1,264.5,92.8,264.5,92.8z"/>
		</g>
	</g>
	<g>
		<g>
			<path fill="#FF9900" d="M280.6,192c0,0-0.2,0.2-0.6,0.4c-0.4,0.3-0.9,0.7-1.5,1.1c-1.3,0.9-3,2-4.8,3.1c-1.8,1-3.6,2-5,2.7
				c-0.7,0.3-1.3,0.6-1.7,0.8c-0.4,0.2-0.7,0.3-0.7,0.3s0.2-0.2,0.6-0.4c0.4-0.3,0.9-0.7,1.5-1.1c1.3-0.9,3-2,4.8-3.1
				c1.8-1,3.6-2,5-2.7c0.7-0.3,1.3-0.6,1.7-0.8C280.3,192.1,280.6,192,280.6,192z"/>
		</g>
		<g>
			<path fill="#FF9900" d="M276.2,187.3c0,0-0.2,0.2-0.4,0.5c-0.3,0.3-0.7,0.8-1.2,1.3c-1,1.1-2.5,2.5-4,3.8c-1.5,1.3-3,2.6-4.3,3.5
				c-0.6,0.5-1.1,0.8-1.5,1.1c-0.4,0.3-0.6,0.4-0.6,0.4s0.2-0.2,0.4-0.5c0.3-0.3,0.7-0.8,1.2-1.4c1-1.1,2.5-2.5,4-3.8
				c1.5-1.3,3-2.6,4.3-3.5c0.6-0.5,1.1-0.8,1.5-1.1C276,187.4,276.2,187.3,276.2,187.3z"/>
		</g>
		<g>
			<path fill="#FF9900" d="M283.4,196.7c0,0-0.2,0.1-0.6,0.4c-0.4,0.2-0.9,0.6-1.6,0.9c-1.4,0.7-3.2,1.7-5.1,2.5
				c-1.9,0.8-3.8,1.6-5.3,2.1c-0.7,0.3-1.4,0.4-1.8,0.6c-0.4,0.1-0.7,0.2-0.7,0.2s0.2-0.1,0.6-0.4c0.4-0.2,0.9-0.6,1.6-0.9
				c1.4-0.7,3.2-1.7,5.1-2.5c1.9-0.8,3.8-1.6,5.3-2.1c0.7-0.3,1.4-0.4,1.8-0.6C283.2,196.7,283.4,196.7,283.4,196.7z"/>
		</g>
	</g>
	<g>
		<g>
			<path fill="#FF9900" d="M35.7,67.3c0,0,0.5,0.5,1.3,1.5c0.8,1,2.1,2.3,3.5,4c1.4,1.7,3.1,3.6,4.8,5.7c1.7,2.1,3.6,4.4,5.4,6.6
				c1.8,2.3,3.6,4.6,5.3,6.7c1.7,2.1,3.2,4.2,4.6,5.9c1.3,1.7,2.4,3.2,3.2,4.2c0.8,1,1.2,1.6,1.2,1.6s-0.5-0.5-1.3-1.5
				c-0.8-1-2.1-2.3-3.5-4c-1.4-1.7-3.1-3.6-4.8-5.7c-1.7-2.1-3.6-4.4-5.4-6.6c-1.8-2.3-3.6-4.6-5.3-6.7c-1.7-2.1-3.2-4.2-4.6-5.9
				c-1.3-1.7-2.4-3.2-3.2-4.2C36.1,67.9,35.7,67.3,35.7,67.3z"/>
		</g>
		<g>
			<path fill="#FF9900" d="M32.4,88c0,0,0.5,0.3,1.3,0.8c0.8,0.5,1.9,1.3,3.3,2.3c1.3,1,2.9,2.1,4.6,3.3c1.7,1.2,3.4,2.5,5.1,3.9
				c1.7,1.3,3.5,2.7,5.1,4c1.6,1.3,3.1,2.5,4.4,3.5c1.3,1,2.3,1.9,3,2.6c0.7,0.6,1.1,1,1.1,1s-0.5-0.3-1.3-0.8
				c-0.8-0.5-1.9-1.3-3.3-2.3c-1.3-1-2.9-2.1-4.6-3.3c-1.7-1.2-3.4-2.5-5.1-3.9c-1.7-1.3-3.5-2.7-5.1-4c-1.6-1.3-3.1-2.5-4.4-3.5
				c-1.3-1-2.3-1.9-3-2.6C32.8,88.3,32.4,88,32.4,88z"/>
		</g>
		<g>
			<path fill="#FF9900" d="M51.2,68.3c0,0,0.3,0.4,0.9,1.2c0.6,0.8,1.4,1.9,2.4,3.3c1,1.4,2.1,3,3.3,4.7c1.2,1.7,2.5,3.6,3.7,5.4
				c1.2,1.9,2.5,3.7,3.6,5.5c1.1,1.8,2.2,3.4,3.1,4.9c0.9,1.4,1.6,2.6,2.1,3.5c0.5,0.8,0.8,1.3,0.8,1.3s-0.3-0.4-0.9-1.2
				c-0.6-0.8-1.4-1.9-2.4-3.3c-1-1.4-2.1-3-3.3-4.7c-1.2-1.7-2.5-3.6-3.7-5.4c-1.2-1.9-2.5-3.7-3.6-5.5c-1.1-1.8-2.2-3.4-3.1-4.9
				c-0.9-1.4-1.6-2.6-2.1-3.5C51.5,68.8,51.2,68.3,51.2,68.3z"/>
		</g>
	</g>
	<g>
		<g>
			<path fill="#FF9900" d="M6.6,123.6c0,0,0.4,0.2,1,0.5c0.6,0.4,1.5,0.9,2.6,1.5c1,0.7,2.3,1.4,3.6,2.2c1.3,0.8,2.6,1.7,4,2.6
				c1.3,0.9,2.7,1.8,3.9,2.7c1.3,0.9,2.4,1.8,3.4,2.5c1,0.7,1.8,1.4,2.3,1.8c0.6,0.4,0.9,0.7,0.9,0.7s-0.4-0.2-1-0.5
				c-0.6-0.4-1.5-0.9-2.6-1.5c-1-0.7-2.3-1.4-3.6-2.2c-1.3-0.8-2.6-1.7-4-2.6c-1.3-0.9-2.7-1.8-3.9-2.7c-1.3-0.9-2.4-1.8-3.4-2.5
				c-1-0.7-1.8-1.4-2.3-1.8C6.9,123.8,6.6,123.6,6.6,123.6z"/>
		</g>
		<g>
			<path fill="#FF9900" d="M11.5,137.8c0,0,0.4,0.1,1,0.3c0.7,0.2,1.6,0.5,2.7,0.9c1.1,0.4,2.4,0.9,3.8,1.4c1.4,0.5,2.8,1.1,4.3,1.7
				c1.4,0.6,2.9,1.2,4.2,1.8c1.3,0.6,2.6,1.2,3.7,1.7c1.1,0.5,1.9,1,2.6,1.3c0.6,0.3,1,0.5,1,0.5s-0.4-0.1-1-0.3
				c-0.7-0.2-1.6-0.5-2.7-0.9c-1.1-0.4-2.4-0.9-3.8-1.4c-1.4-0.5-2.8-1.1-4.3-1.7c-1.4-0.6-2.9-1.2-4.2-1.8
				c-1.3-0.6-2.6-1.2-3.7-1.7c-1.1-0.5-1.9-1-2.6-1.3C11.9,138,11.5,137.8,11.5,137.8z"/>
		</g>
		<g>
			<path fill="#FF9900" d="M19.4,120.6c0,0,0.3,0.2,0.9,0.7c0.6,0.4,1.4,1,2.4,1.8c1,0.8,2.1,1.6,3.3,2.6c1.2,1,2.5,2,3.7,3.1
				c1.2,1.1,2.5,2.1,3.6,3.2c1.2,1,2.2,2,3.1,2.9c0.9,0.8,1.6,1.6,2.1,2.1c0.5,0.5,0.8,0.8,0.8,0.8s-0.3-0.2-0.9-0.7
				c-0.6-0.4-1.4-1-2.4-1.8c-1-0.8-2.1-1.6-3.3-2.6c-1.2-1-2.5-2-3.7-3.1c-1.2-1.1-2.5-2.2-3.6-3.2c-1.2-1-2.2-2-3.1-2.9
				c-0.9-0.8-1.6-1.6-2.1-2.1C19.7,120.9,19.4,120.6,19.4,120.6z"/>
		</g>
	</g>
	<g>
		<g>
			<path fill="#FF9900" d="M5.1,161.3c0,0,0.3,0.1,0.8,0.3c0.5,0.2,1.2,0.5,2,0.8c1.7,0.7,3.9,1.8,6,2.9c2.2,1.1,4.3,2.3,5.8,3.3
				c0.8,0.5,1.4,0.9,1.9,1.2c0.4,0.3,0.7,0.5,0.7,0.5s-0.3-0.1-0.8-0.3c-0.5-0.2-1.2-0.5-2-0.8c-1.7-0.7-3.9-1.8-6-2.9
				c-2.2-1.1-4.3-2.3-5.8-3.3c-0.8-0.5-1.4-0.9-1.9-1.2C5.3,161.5,5.1,161.3,5.1,161.3z"/>
		</g>
		<g>
			<path fill="#FF9900" d="M7.6,167.6c0,0,0.9,0.2,2.2,0.5c1.3,0.4,3.1,0.9,4.8,1.6c1.7,0.7,3.4,1.4,4.6,2c1.2,0.6,2,1.1,2,1.1
				s-0.9-0.2-2.2-0.5c-1.3-0.4-3.1-0.9-4.8-1.6c-1.7-0.7-3.4-1.4-4.6-2C8.4,168.1,7.6,167.6,7.6,167.6z"/>
		</g>
		<g>
			<path fill="#FF9900" d="M12.3,158.4c0,0,0.8,0.4,2,1.2c1.2,0.8,2.7,1.8,4.2,3c1.5,1.1,2.9,2.4,3.9,3.3c1,1,1.7,1.7,1.7,1.7
				s-0.8-0.4-2-1.2c-1.2-0.8-2.7-1.8-4.2-3c-1.5-1.1-2.9-2.4-3.9-3.3C12.9,159.1,12.3,158.4,12.3,158.4z"/>
		</g>
	</g>
	<g>
		<path fill="#FF9900" d="M10.2,190.2c0,0,0.3-0.2,0.7-0.4c0.4-0.2,1.1-0.4,1.8-0.4c0.7,0,1.4,0.3,1.8,0.6c0.4,0.3,0.6,0.6,0.6,0.6
			s-0.1,0-0.2,0c-0.1,0-0.3,0-0.6-0.1c-0.2,0-0.5-0.1-0.8-0.1c-0.3,0-0.6,0-0.8-0.1c-0.6,0-1.2,0-1.7-0.1
			C10.5,190.4,10.2,190.2,10.2,190.2z"/>
	</g>
	<g>
		<path fill="#FF9900" d="M119,32.9c0,0-0.3,0.8-1,2.1c-0.3,0.7-0.7,1.5-1.1,2.4c-0.4,0.9-0.8,2-1.3,3.2c-0.2,0.6-0.5,1.2-0.7,1.8
			c-0.2,0.6-0.4,1.3-0.7,2c-0.5,1.4-0.9,2.8-1.3,4.3c-0.4,1.5-0.9,3.1-1.2,4.7c-0.2,0.8-0.4,1.6-0.6,2.4c-0.2,0.8-0.3,1.6-0.5,2.5
			c-0.4,1.6-0.6,3.3-0.9,4.9c-0.3,1.6-0.4,3.2-0.6,4.8c-0.1,1.6-0.3,3.1-0.4,4.5c-0.1,1.4-0.2,2.8-0.2,4c-0.1,2.5-0.1,4.6-0.1,6.1
			c0,1.5,0.1,2.3,0.1,2.3s-0.1-0.8-0.2-2.3c-0.1-0.7-0.1-1.6-0.2-2.6c0-1-0.1-2.2-0.1-3.4c0-1.3,0-2.6,0.1-4.1c0-1.4,0.2-3,0.3-4.5
			c0.2-1.6,0.3-3.2,0.6-4.8c0.2-1.6,0.5-3.3,0.8-5c0.2-0.8,0.3-1.7,0.5-2.5c0.2-0.8,0.4-1.6,0.6-2.4c0.4-1.6,0.8-3.2,1.3-4.7
			c0.2-0.8,0.4-1.5,0.7-2.2c0.3-0.7,0.5-1.4,0.8-2.1c0.3-0.7,0.5-1.3,0.7-2c0.3-0.6,0.5-1.2,0.8-1.8c0.5-1.2,1-2.2,1.4-3.1
			c0.5-0.9,0.9-1.7,1.3-2.3C118.6,33.7,119,32.9,119,32.9z"/>
	</g>
	<g>
		<path fill="#FF9900" d="M101.8,83.1c0,0-0.4-0.5-1.1-1.3c-0.4-0.4-0.8-0.9-1.3-1.5c-0.5-0.6-1.1-1.2-1.7-2c-0.6-0.7-1.3-1.5-2-2.3
			c-0.7-0.8-1.6-1.6-2.4-2.5c-0.9-0.8-1.7-1.7-2.6-2.5c-0.5-0.4-0.9-0.8-1.4-1.2l-1.5-1.2c-1-0.8-2-1.5-3-2.2
			c-1-0.7-2.1-1.3-3.1-1.9c-1-0.6-2-1.1-3-1.6c-1-0.5-1.9-1-2.7-1.4c-3.4-1.6-5.7-2.7-5.7-2.7s0.6,0.2,1.6,0.6
			c1,0.4,2.5,0.9,4.3,1.7c0.9,0.4,1.8,0.8,2.8,1.2c1,0.5,2,1,3.1,1.5c1,0.6,2.1,1.2,3.2,1.9c1.1,0.7,2.1,1.4,3.1,2.2l1.5,1.2
			c0.5,0.4,0.9,0.8,1.4,1.3c0.9,0.8,1.8,1.7,2.6,2.6c0.8,0.9,1.6,1.7,2.3,2.6c0.7,0.9,1.4,1.6,1.9,2.4c1.2,1.5,2.1,2.8,2.7,3.7
			C101.4,82.6,101.8,83.1,101.8,83.1z"/>
	</g>
	<g>
		<path fill="#FF9900" d="M51.1,125.2c0,0-0.3-0.2-0.9-0.5c-0.6-0.4-1.4-0.8-2.4-1.4c-0.5-0.3-1.1-0.6-1.6-0.9
			c-0.6-0.3-1.2-0.6-1.8-1c-1.3-0.6-2.7-1.3-4.1-1.9c-0.7-0.3-1.4-0.6-2.1-0.9c-0.7-0.2-1.4-0.5-2.1-0.7c-1.4-0.5-2.6-0.8-3.8-1.2
			c-1.1-0.3-2-0.6-2.7-0.7c-0.7-0.2-1-0.3-1-0.3s0.4,0,1.1,0.1c0.7,0.1,1.6,0.1,2.8,0.4c1.2,0.2,2.5,0.5,3.9,0.9
			c1.4,0.4,2.9,0.9,4.3,1.5c1.4,0.6,2.8,1.3,4.1,2c0.6,0.4,1.2,0.7,1.8,1.1c0.6,0.4,1.1,0.7,1.6,1.1c1,0.7,1.7,1.3,2.2,1.7
			C50.8,124.9,51.1,125.2,51.1,125.2z"/>
	</g>
	<g>
		<path fill="#FF9900" d="M6.7,173c0,0,0.2,0.2,0.5,0.4c0.3,0.3,0.8,0.7,1.3,1.2c1.1,1,2.6,2.2,4.1,3.5c1.5,1.3,3,2.6,4.1,3.5
			c0.5,0.5,1,0.9,1.3,1.2c0.3,0.3,0.5,0.5,0.5,0.5s-0.2-0.1-0.6-0.3c-0.4-0.2-0.9-0.5-1.6-0.9c-1.3-0.8-2.9-1.9-4.4-3.2
			c-0.7-0.7-1.5-1.3-2.1-2c-0.7-0.7-1.2-1.3-1.7-1.9C7.2,173.8,6.7,173,6.7,173z"/>
	</g>
	<g>
		<path fill="#FF9900" d="M30.2,159.3c0,0-0.2-0.1-0.6-0.4c-0.2-0.1-0.4-0.3-0.7-0.4c-0.3-0.1-0.6-0.3-0.9-0.5
			c-0.4-0.2-0.7-0.4-1.1-0.6c-0.4-0.2-0.8-0.4-1.3-0.5c-0.9-0.3-1.9-0.7-2.9-0.9c-0.5-0.1-1-0.3-1.5-0.4c-0.5-0.1-1-0.2-1.5-0.3
			c-1-0.1-1.9-0.2-2.7-0.3c-0.8,0-1.4,0-1.9,0c-0.5,0-0.7,0.1-0.7,0.1s0.2-0.1,0.7-0.2c0.5-0.1,1.1-0.3,1.9-0.4
			c0.4-0.1,0.8-0.1,1.3-0.1c0.5,0,1,0,1.5,0.1c1,0.1,2.1,0.3,3.1,0.5c0.5,0.2,1,0.3,1.5,0.5c0.5,0.2,1,0.4,1.4,0.6
			c0.9,0.4,1.7,0.9,2.4,1.4c0.3,0.2,0.6,0.5,0.9,0.7c0.3,0.2,0.4,0.4,0.6,0.6C30,159.1,30.2,159.3,30.2,159.3z"/>
	</g>
	<g>
		<path fill="#FF9900" d="M194.7,82.9c0,0,0.1-0.7,0.2-1.9c0.1-0.6,0.1-1.3,0.2-2.2c0.1-0.8,0.1-1.8,0.2-2.8c0.1-2,0.2-4.4,0.2-7
			c0-1.3,0-2.6-0.1-3.9c0-1.3-0.1-2.7-0.2-4.1c-0.1-1.4-0.2-2.7-0.4-4c-0.2-1.3-0.3-2.6-0.6-3.9c-0.2-1.3-0.4-2.5-0.7-3.6
			c-0.2-1.2-0.5-2.2-0.7-3.2c-0.3-1-0.5-1.9-0.7-2.7c-0.2-0.8-0.4-1.5-0.6-2.1c-0.4-1.1-0.6-1.8-0.6-1.8s0.3,0.6,0.7,1.7
			c0.2,0.6,0.5,1.2,0.8,2c0.3,0.8,0.6,1.7,0.9,2.7c0.3,1,0.6,2.1,0.9,3.2c0.3,1.1,0.6,2.4,0.8,3.6c0.2,1.3,0.5,2.6,0.6,3.9
			c0.2,1.3,0.3,2.7,0.4,4.1c0.1,1.4,0.2,2.8,0.2,4.1c0,1.4,0,2.7,0,4c0,1.3-0.1,2.5-0.2,3.7c-0.1,1.2-0.2,2.3-0.3,3.3
			c-0.3,2-0.5,3.7-0.8,4.9C194.8,82.2,194.7,82.9,194.7,82.9z"/>
	</g>
	<g>
		<path fill="#FF9900" d="M235.6,61.9c0,0-0.7,0.2-1.9,0.5c-0.6,0.2-1.4,0.3-2.2,0.6c-0.8,0.3-1.8,0.6-2.8,0.9
			c-1,0.4-2.1,0.7-3.3,1.2c-1.1,0.5-2.4,0.9-3.6,1.5c-1.2,0.5-2.5,1.1-3.8,1.7c-1.3,0.6-2.6,1.3-3.8,2c-1.3,0.7-2.6,1.4-3.8,2.1
			c-1.2,0.7-2.4,1.4-3.6,2.2c-1.1,0.7-2.2,1.4-3.3,2.1c-1,0.7-2,1.4-2.9,2c-1.8,1.3-3.2,2.3-4.2,3.1c-1,0.8-1.6,1.2-1.6,1.2
			s0.5-0.5,1.5-1.4c1-0.8,2.3-2.1,4-3.4c0.9-0.7,1.8-1.4,2.8-2.1c1-0.7,2.1-1.5,3.2-2.3c1.1-0.7,2.3-1.5,3.6-2.2
			c1.2-0.8,2.5-1.4,3.8-2.2c1.3-0.6,2.6-1.3,3.9-1.9c1.3-0.6,2.6-1.2,3.9-1.7c1.3-0.6,2.5-0.9,3.7-1.4c1.2-0.4,2.3-0.7,3.4-1
			c1.1-0.3,2-0.5,2.9-0.7c0.9-0.2,1.6-0.3,2.3-0.4C234.8,62,235.6,61.9,235.6,61.9z"/>
	</g>
	<g>
		<path fill="none" d="M235.1,145.4"/>
	</g>
	<g>
		<path fill="#FF9900" d="M277.7,133.7c0,0-0.6,0-1.5-0.1c-1-0.1-2.4-0.1-4,0c-0.8,0-1.7,0.1-2.7,0.1c-0.9,0.1-1.9,0.2-3,0.3
			c-2.1,0.2-4.2,0.6-6.4,1c-1.1,0.2-2.2,0.4-3.2,0.7c-1.1,0.2-2.1,0.5-3.1,0.8c-2,0.5-3.9,1.1-5.4,1.6c-1.6,0.5-2.9,1-3.8,1.3
			c-0.9,0.3-1.4,0.5-1.4,0.5s0.5-0.3,1.4-0.7c0.4-0.2,1-0.5,1.6-0.8c0.6-0.3,1.3-0.6,2.1-0.9c0.8-0.3,1.6-0.6,2.5-1
			c0.9-0.3,1.9-0.7,2.9-1c1-0.3,2-0.6,3.1-0.9c1.1-0.3,2.2-0.5,3.3-0.7c1.1-0.2,2.2-0.4,3.3-0.5c1.1-0.2,2.2-0.2,3.2-0.3
			c1-0.1,2.1-0.1,3-0.1c1,0,1.9,0,2.7,0c0.8,0,1.6,0.1,2.3,0.2c0.7,0.1,1.3,0.1,1.7,0.2C277.2,133.6,277.7,133.7,277.7,133.7z"/>
	</g>
	<g>
		<path fill="#FF9900" d="M242.6,140.3c0,0,0.5-0.4,1.3-1.1c0.4-0.3,0.9-0.8,1.4-1.2c0.5-0.5,1.2-1,1.8-1.6c1.4-1.2,2.9-2.6,4.5-4.2
			c0.8-0.8,1.6-1.6,2.5-2.4c0.8-0.8,1.7-1.7,2.5-2.6c0.8-0.9,1.7-1.7,2.4-2.6c0.8-0.9,1.6-1.7,2.3-2.6c0.7-0.9,1.4-1.7,2.1-2.5
			c0.7-0.8,1.2-1.6,1.8-2.3c0.5-0.7,1-1.4,1.4-2c0.4-0.6,0.8-1.1,1.1-1.6c0.6-0.9,0.9-1.4,0.9-1.4s-0.3,0.5-0.7,1.5
			c-0.5,0.9-1.2,2.3-2.2,3.8c-0.5,0.7-1,1.6-1.7,2.4c-0.6,0.8-1.3,1.7-2,2.6c-0.7,0.9-1.5,1.8-2.3,2.7c-0.8,0.9-1.6,1.8-2.4,2.7
			c-1.7,1.7-3.4,3.4-5.1,4.9c-1.7,1.5-3.3,2.8-4.8,4c-0.7,0.6-1.4,1-2,1.5c-0.6,0.4-1.1,0.8-1.5,1.1
			C243.1,139.9,242.6,140.3,242.6,140.3z"/>
	</g>
	<g>
		<path fill="#FF9900" d="M261,191.2c0,0,0.3-0.2,0.9-0.5c0.6-0.3,1.3-0.8,2.2-1.3c0.5-0.3,1-0.6,1.5-0.9c0.5-0.3,1.1-0.7,1.6-1
			c1.1-0.7,2.3-1.6,3.4-2.4c1.1-0.8,2.3-1.7,3.3-2.6c1-0.9,2-1.7,2.8-2.4c1.6-1.4,2.7-2.4,2.7-2.4s-0.2,0.3-0.6,0.8
			c-0.4,0.5-1,1.2-1.7,2c-0.7,0.8-1.6,1.7-2.6,2.6c-0.5,0.4-1,0.9-1.6,1.4c-0.5,0.5-1.1,0.9-1.7,1.3c-1.2,0.9-2.4,1.7-3.5,2.4
			c-1.2,0.7-2.3,1.3-3.3,1.7c-1,0.5-1.8,0.8-2.4,1C261.3,191.1,261,191.2,261,191.2z"/>
	</g>
</g>
</svg>
