<!-- Generator: Adobe Illustrator 18.1.1, SVG Export Plug-In  -->
<svg version="1.1"
	 xmlns="http://www.w3.org/2000/svg" xmlns:xlink="http://www.w3.org/1999/xlink" xmlns:a="http://ns.adobe.com/AdobeSVGViewerExtensions/3.0/"
	 x="0px" y="0px" width="279px" height="180.6px" viewBox="0 0 279 180.6" enable-background="new 0 0 279 180.6"
	 xml:space="preserve">
<defs>
</defs>
<g id="body_copy">
	<g>
		<g>
			<defs>
				<path id="XMLID_2_" d="M7,149.5c3.9-3.4,8.5-5.9,10.4-10.7C29.1,109.6,66.8,1.1,157.4,6.5c98.7,5.9,90.3,81.5,118,128.8
					c11,18.8-4.8,42.2-26.2,38.5c-0.5-0.1-0.9-0.2-1.4-0.3c-27.2-5.7-104.8-10.2-200,1.5c-5.7,0.7-11.3,1.9-16.7,3.7
					c-8,2.6-17.3,3-22.8-2.5C4,171.9-7.2,161.9,7,149.5z"/>
			</defs>
			<use xlink:href="#XMLID_2_"  overflow="visible" fill="#FFFF66"/>
			<clipPath id="XMLID_3_">
				<use xlink:href="#XMLID_2_"  overflow="visible"/>
			</clipPath>
			<path clip-path="url(#XMLID_3_)" fill="#FFCC33" d="M96.9,19.2c0,0,17.8,6,27.2,42.2c0.5,2,3.9,1.7,4-0.3
				c0.8-10.2,0.2-27.6-8.2-51.3C119.8,9.8,100.9,8.6,96.9,19.2z"/>
			<path clip-path="url(#XMLID_3_)" fill="#FFCC33" d="M144.2,4.1c0,0,10.2,32.6,10.2,51.8c0,1.4,2.6,1.5,3.1,0.2
				c3-7.7,7.8-26.7,12.2-53.8C169.7,2.3,160.7-3.9,144.2,4.1z"/>
			<path clip-path="url(#XMLID_3_)" fill="#FFCC33" d="M198.7,9.4c0,0,3.5,31.1-7.8,45.7c-0.7,1,2,2.2,3,1.3
				c5.7-4.8,19.7-16.3,30.5-37C224.3,19.4,218,9.6,198.7,9.4z"/>
			<path clip-path="url(#XMLID_3_)" fill="#FFCC33" d="M234,36.9c0,0-4.8,25.5-15.7,35.1c-0.7,0.6,1.2,2.1,2.1,1.7
				c5.5-2.6,17.3-6.8,29.8-20.7C250.2,53.1,249.3,41,234,36.9z"/>
			<path clip-path="url(#XMLID_3_)" fill="#FFCC33" d="M252.7,72.1c0,0-7.2,22-18.5,29.3c-0.8,0.5,0.9,2.1,1.9,1.9
				c5.4-1.6,17.1-3.6,30.2-14.6C266.3,88.6,266.8,78.1,252.7,72.1z"/>
			<path clip-path="url(#XMLID_3_)" fill="#FFCC33" d="M266.7,103.9c0,0-8.5,11.4-16.5,13.5c-0.5,0.1,0.1,1.4,0.7,1.4
				c3.5,0.1,10.6,1,20.4-2.9C271.3,116,273.7,110,266.7,103.9z"/>
			<path clip-path="url(#XMLID_3_)" fill="#FFCC33" d="M39.6,77.5c0,0,21,2.8,31,13.1c0.7,0.7,2-1.3,1.5-2.2
				c-2.8-5.3-7.4-16.8-21.7-28.4C50.5,60,42.9,62.1,39.6,77.5z"/>
			<path clip-path="url(#XMLID_3_)" fill="#FFCC33" d="M24.6,109.5c0,0,17.2-1.2,27.1,4.9c0.7,0.4,1.4-1.3,0.8-1.9
				c-3.3-3.5-9.1-11.5-22.6-17.9C29.8,94.6,24.2,97.4,24.6,109.5z"/>
			<path clip-path="url(#XMLID_3_)" fill="#FFCC33" d="M15.4,131.1c0,0,13.4-1.5,21,3.6c0.5,0.3,1.1-1.2,0.7-1.7
				c-2.5-3-6.8-9.9-17.2-15.2C19.9,117.8,15.5,120.4,15.4,131.1z"/>
			<path clip-path="url(#XMLID_3_)" fill="#FFCC33" d="M58.9,44.7c0,0,26.8,12.5,37.7,29.3c0.7,1.1,2.9-0.7,2.5-2
				c-2.6-7.6-6.2-23.7-22.4-43.9C76.7,28.1,66.4,27.3,58.9,44.7z"/>
		</g>
		<g>
			<path fill="#CCCC66" d="M144.4,149.9c0,0,0.3,1,0.2,2.6c0,0.4,0,0.8-0.1,1.3c-0.1,0.4-0.1,0.9-0.2,1.4c-0.2,1-0.5,2-1,3
				c-0.2,0.5-0.5,0.9-0.7,1.4c-0.2,0.5-0.5,0.9-0.8,1.3c-0.3,0.4-0.6,0.8-0.9,1.1c-0.3,0.4-0.6,0.7-0.9,0.9c-0.5,0.6-1.1,1-1.4,1.2
				c-0.4,0.3-0.6,0.4-0.6,0.4s0.1-0.2,0.4-0.6c0.1-0.2,0.3-0.4,0.4-0.7c0.2-0.3,0.3-0.6,0.5-0.9c0.2-0.3,0.4-0.7,0.6-1
				c0.2-0.4,0.4-0.8,0.7-1.2c0.2-0.4,0.4-0.8,0.6-1.3c0.2-0.4,0.4-0.9,0.6-1.3c0.4-0.9,0.7-1.8,1.1-2.7c0.3-0.9,0.6-1.7,0.8-2.4
				C144.1,150.9,144.4,149.9,144.4,149.9z"/>
		</g>
		<g>
			<path fill="#CCCC66" d="M152.7,149.9c0,0,0.3,1,0.2,2.6c0,0.4,0,0.8-0.1,1.3c-0.1,0.4-0.1,0.9-0.2,1.4c-0.2,1-0.5,2-1,3
				c-0.2,0.5-0.5,0.9-0.7,1.4c-0.2,0.5-0.5,0.9-0.8,1.3c-0.3,0.4-0.6,0.8-0.9,1.1c-0.3,0.4-0.6,0.7-0.9,0.9c-0.5,0.6-1.1,1-1.4,1.2
				c-0.4,0.3-0.6,0.4-0.6,0.4s0.1-0.2,0.4-0.6c0.1-0.2,0.3-0.4,0.4-0.7c0.2-0.3,0.3-0.6,0.5-0.9c0.2-0.3,0.4-0.7,0.6-1
				c0.2-0.4,0.4-0.8,0.7-1.2c0.2-0.4,0.4-0.8,0.6-1.3c0.2-0.4,0.4-0.9,0.6-1.3c0.4-0.9,0.7-1.8,1.1-2.7c0.3-0.9,0.6-1.7,0.8-2.4
				C152.5,150.9,152.7,149.9,152.7,149.9z"/>
		</g>
	</g>
	<path fill="#CCCC66" d="M164.4,75.8l5.6,0.2c1.9,0.1,3.5,1.5,4,3.4l1.2,5.7c0.4,2-0.4,4.1-2.1,5.3l-4.8,3.3
		c-1.7,1.2-3.8,1.1-5.3-0.2l-4.2-3.6c-1.5-1.3-1.9-3.5-1.2-5.4l2.2-5.6C160.6,77,162.4,75.7,164.4,75.8z"/>
	<path fill="#CCCC66" d="M139.5,48.8l4.4,0.1c1.5,0,2.8,1.2,3.1,2.8l1,4.6c0.3,1.6-0.3,3.3-1.7,4.3l-3.8,2.7c-1.3,0.9-3,0.9-4.2-0.1
		l-3.3-2.9c-1.2-1-1.5-2.8-0.9-4.3l1.8-4.5C136.5,49.8,138,48.8,139.5,48.8z"/>
	<path fill="#CCCC66" d="M89.4,83.6l1.9,2c0.7,0.7,0.8,1.7,0.2,2.6l-1.5,2.5c-0.5,0.9-1.6,1.4-2.6,1.2l-2.9-0.4
		c-1-0.2-1.7-0.9-1.8-1.9l-0.3-2.8c-0.1-1,0.5-1.9,1.4-2.4l2.7-1.3C87.6,82.8,88.7,82.9,89.4,83.6z"/>
	<path fill="#CCCC66" d="M106,106.9l0.3,2.2c0.1,0.8-0.3,1.5-0.9,1.9l-1.8,1c-0.6,0.4-1.4,0.2-1.9-0.3l-1.4-1.6
		c-0.5-0.5-0.6-1.4-0.3-2.1l1-2c0.3-0.7,1-1.1,1.7-1l2,0.3C105.4,105.6,105.9,106.2,106,106.9z"/>
	<path fill="#CCCC66" d="M173,51.9l0.7,1.7c0.2,0.6,0.1,1.3-0.4,1.7l-1.3,1.2c-0.5,0.4-1.1,0.5-1.6,0.1l-1.5-1
		c-0.5-0.3-0.8-1-0.6-1.6l0.4-1.8c0.1-0.6,0.6-1.1,1.2-1.2l1.7-0.1C172.2,51,172.8,51.3,173,51.9z"/>
	<path fill="#CCCC66" d="M121.4,78.4l1.8,4.6c0.6,1.6,0.2,3.4-0.9,4.6l-3.4,3.2c-1.2,1.1-2.9,1.3-4.3,0.4l-3.9-2.6
		c-1.4-0.9-2.1-2.7-1.7-4.3l1-4.8c0.3-1.7,1.7-2.9,3.2-3l4.5-0.4C119.3,75.8,120.8,76.8,121.4,78.4z"/>
	<path fill="#CCCC66" d="M142,82.5l0.7,1.7c0.2,0.6,0.1,1.3-0.4,1.7l-1.3,1.2c-0.5,0.4-1.1,0.5-1.6,0.1l-1.5-1
		c-0.5-0.3-0.8-1-0.6-1.6l0.4-1.8c0.1-0.6,0.6-1.1,1.2-1.2l1.7-0.1C141.2,81.6,141.8,81.9,142,82.5z"/>
	<path fill="#CCCC66" d="M219.4,89l0.4,1.1c0.2,0.4,0.1,0.8-0.2,1.1l-0.8,0.8c-0.3,0.3-0.7,0.3-1,0.1l-1-0.6
		c-0.3-0.2-0.5-0.7-0.4-1.1l0.2-1.2c0.1-0.4,0.4-0.7,0.8-0.7l1.1-0.1C218.9,88.4,219.3,88.6,219.4,89z"/>
	<path fill="#CCCC66" d="M78.7,108.8l0.4,1.1c0.2,0.4,0.1,0.8-0.2,1.1l-0.8,0.8c-0.3,0.3-0.7,0.3-1,0.1l-1-0.6
		c-0.3-0.2-0.5-0.7-0.4-1.1l0.2-1.2c0.1-0.4,0.4-0.7,0.8-0.7l1.1-0.1C78.2,108.1,78.5,108.4,78.7,108.8z"/>
	<path fill="#CCCC66" d="M197,94.8l0.7,1.7c0.2,0.6,0.1,1.3-0.4,1.7l-1.3,1.2c-0.5,0.4-1.1,0.5-1.6,0.1l-1.5-1
		c-0.5-0.3-0.8-1-0.6-1.6l0.4-1.8c0.1-0.6,0.6-1.1,1.2-1.2l1.7-0.1C196.2,93.8,196.8,94.2,197,94.8z"/>
	<path fill="#CCCC66" d="M208.3,70.7l0.3,2.4c0.1,0.8-0.3,1.7-1,2l-2,1.1c-0.7,0.4-1.5,0.2-2.1-0.4l-1.5-1.7
		c-0.5-0.6-0.6-1.5-0.2-2.3l1.1-2.2c0.4-0.8,1.2-1.2,1.9-1l2.2,0.4C207.6,69.1,208.2,69.8,208.3,70.7z"/>
	<path fill="#CCCC66" d="M32.3,148.4l0.3,0.8c0.1,0.3,0,0.6-0.2,0.8l-0.6,0.6c-0.2,0.2-0.5,0.2-0.7,0.1l-0.7-0.5
		c-0.2-0.2-0.4-0.5-0.3-0.8l0.2-0.8c0.1-0.3,0.3-0.5,0.6-0.5l0.8-0.1C31.9,148,32.1,148.1,32.3,148.4z"/>
	<path fill="#CCCC66" d="M21.8,145.9l0.2,0.6c0.1,0.2,0,0.4-0.1,0.6l-0.4,0.4c-0.2,0.1-0.4,0.2-0.5,0l-0.5-0.3
		c-0.2-0.1-0.3-0.3-0.2-0.6l0.1-0.6c0-0.2,0.2-0.4,0.4-0.4l0.6,0C21.5,145.6,21.7,145.7,21.8,145.9z"/>
	<path fill="#CCCC66" d="M27.4,137.2l0.9,1.1c0.3,0.4,0.4,0.9,0.2,1.3l-0.6,1.2c-0.2,0.4-0.7,0.6-1.1,0.5l-1.3-0.3
		c-0.5-0.1-0.8-0.5-0.9-1l-0.2-1.4c-0.1-0.5,0.2-1,0.6-1.2l1.2-0.6C26.6,136.7,27.1,136.8,27.4,137.2z"/>
</g>
</svg>
