<!-- Generator: Adobe Illustrator 18.1.1, SVG Export Plug-In  -->
<svg version="1.1"
	 xmlns="http://www.w3.org/2000/svg" xmlns:xlink="http://www.w3.org/1999/xlink" xmlns:a="http://ns.adobe.com/AdobeSVGViewerExtensions/3.0/"
	 x="0px" y="0px" width="797.2px" height="533.3px" viewBox="0 0 797.2 533.3" enable-background="new 0 0 797.2 533.3"
	 xml:space="preserve">
<defs>
</defs>
<rect x="0.5" y="109.6" fill="none" width="194" height="35.7"/>
<text transform="matrix(1 0 0 1 67.4376 126.7918)" fill="#009999" font-family="'FredokaOne-Regular'" font-size="22.2057" letter-spacing="-1">T-Rex</text>
<rect x="301.3" y="109.6" fill="none" width="194" height="35.7"/>
<text transform="matrix(1 0 0 1 337.55 126.7918)" fill="#009999" font-family="'FredokaOne-Regular'" font-size="22.2057" letter-spacing="-1">Stegosuarus</text>
<g>
	<g>
		<g>
			<defs>
				<path id="XMLID_7_" d="M431.5,247c-0.7,26.6-15.5,44.1-33.6,43.7c-18-0.4-32.4-18.6-31.7-45.2c0.7-26.6,11.4-52.2,34.1-51.5
					C422.2,194.8,432.1,220.4,431.5,247z"/>
			</defs>
			
				<radialGradient id="XMLID_8_" cx="78.2157" cy="103.8893" r="187.6807" gradientTransform="matrix(0.937 -0.1394 0.1122 1.081 328.2181 111.025)" gradientUnits="userSpaceOnUse">
				<stop  offset="0" style="stop-color:#FFFFFF"/>
				<stop  offset="1" style="stop-color:#000000"/>
			</radialGradient>
			<use xlink:href="#XMLID_7_"  overflow="visible" fill="url(#XMLID_8_)"/>
			<clipPath id="XMLID_9_">
				<use xlink:href="#XMLID_7_"  overflow="visible"/>
			</clipPath>
			<path clip-path="url(#XMLID_9_)" fill="#FF0066" d="M405.8,241.6c-0.3,10.5-7.8,19-16.7,18.8c-8.9-0.2-15.9-8.8-15.6-19.4
				c0.3-10.5,7.8-19,16.7-18.8S406.1,231,405.8,241.6z"/>
			<path clip-path="url(#XMLID_9_)" fill="#FF0066" d="M429.3,285.4c-3.9,6-11.2,8.2-16.2,5c-5-3.2-5.9-10.7-1.9-16.7
				c3.9-6,11.2-8.2,16.2-5C432.4,271.9,433.3,279.4,429.3,285.4z"/>
			<path clip-path="url(#XMLID_9_)" fill="#FF0066" d="M386.7,271.3c3.1,6.5,1.2,13.8-4.2,16.4c-5.4,2.6-12.2-0.5-15.2-7
				c-3.1-6.5-1.2-13.8,4.2-16.4C376.8,261.7,383.6,264.8,386.7,271.3z"/>
			<path clip-path="url(#XMLID_9_)" fill="#FF0066" d="M431.5,216.5c2.6,7.5,0.4,15.1-4.9,17c-5.3,1.8-11.6-2.8-14.1-10.3
				c-2.6-7.5-0.4-15.1,4.9-17C422.7,204.4,429,209,431.5,216.5z"/>
			<path clip-path="url(#XMLID_9_)" fill="#FF0066" d="M389.3,207.9c-3.6,3.8-8.7,4.9-11.4,2.4s-2-7.6,1.6-11.4
				c3.6-3.8,8.7-4.9,11.4-2.4C393.6,199,392.9,204.1,389.3,207.9z"/>
		</g>
	</g>
	<path fill="#FFFFFF" d="M420,208.3c-0.7-4.1-4.6-6.9-8.7-6.3s-7,4.5-6.3,8.6c0.7,4.1,4.6,6.9,8.7,6.3
		C417.8,216.3,420.6,212.4,420,208.3z"/>
</g>
<g>
	<rect x="301.9" y="145.3" fill="none" width="194" height="194"/>
</g>
<rect x="300.8" y="303.6" fill="none" width="194" height="35.7"/>
<text transform="matrix(1 0 0 1 340.6422 320.7899)" fill="#009999" font-family="'FredokaOne-Regular'" font-size="22.2057" letter-spacing="-1">Triceratops</text>
<g>
	<g>
		<g>
			<defs>
				<path id="XMLID_6_" d="M130.7,247c-0.7,26.6-15.5,44.1-33.6,43.7s-32.4-18.6-31.7-45.2s11.4-52.2,34.1-51.5
					C121.5,194.8,131.4,220.4,130.7,247z"/>
			</defs>
			
				<radialGradient id="XMLID_10_" cx="-237.9002" cy="63.1115" r="187.6807" gradientTransform="matrix(0.937 -0.1394 0.1122 1.081 328.2181 111.025)" gradientUnits="userSpaceOnUse">
				<stop  offset="0" style="stop-color:#FFFFFF"/>
				<stop  offset="1" style="stop-color:#000000"/>
			</radialGradient>
			<use xlink:href="#XMLID_6_"  overflow="visible" fill="url(#XMLID_10_)"/>
			<clipPath id="XMLID_11_">
				<use xlink:href="#XMLID_6_"  overflow="visible"/>
			</clipPath>
			<path clip-path="url(#XMLID_11_)" fill="#FF0066" d="M105.1,241.6c-0.3,10.5-7.8,19-16.7,18.8c-8.9-0.2-15.9-8.8-15.6-19.4
				s7.8-19,16.7-18.8S105.4,231,105.1,241.6z"/>
			<path clip-path="url(#XMLID_11_)" fill="#FF0066" d="M128.5,285.4c-3.9,6-11.2,8.2-16.2,5c-5-3.2-5.9-10.7-1.9-16.7
				c3.9-6,11.2-8.2,16.2-5C131.6,271.9,132.5,279.4,128.5,285.4z"/>
			<path clip-path="url(#XMLID_11_)" fill="#FF0066" d="M85.9,271.3c3.1,6.5,1.2,13.8-4.2,16.4c-5.4,2.6-12.2-0.5-15.2-7
				c-3.1-6.5-1.2-13.8,4.2-16.4C76,261.7,82.8,264.8,85.9,271.3z"/>
			<path clip-path="url(#XMLID_11_)" fill="#FF0066" d="M130.8,216.5c2.6,7.5,0.4,15.1-4.9,17c-5.3,1.8-11.6-2.8-14.1-10.3
				c-2.6-7.5-0.4-15.1,4.9-17C121.9,204.4,128.2,209,130.8,216.5z"/>
			<path clip-path="url(#XMLID_11_)" fill="#FF0066" d="M88.6,207.9c-3.6,3.8-8.7,4.9-11.4,2.4s-2-7.6,1.6-11.4s8.7-4.9,11.4-2.4
				C92.9,199,92.1,204.1,88.6,207.9z"/>
		</g>
	</g>
	<path fill="#FFFFFF" d="M119.2,208.3c-0.7-4.1-4.6-6.9-8.7-6.3c-4.2,0.6-7,4.5-6.3,8.6c0.7,4.1,4.6,6.9,8.7,6.3
		C117.1,216.3,119.9,212.4,119.2,208.3z"/>
</g>
<g>
	<rect x="1.1" y="145.3" fill="none" width="194" height="194"/>
</g>
<rect x="0" y="303.6" fill="none" width="194" height="35.7"/>
<text transform="matrix(1 0 0 1 30.55 320.7899)" fill="#009999" font-family="'FredokaOne-Regular'" font-size="22.2057" letter-spacing="-1">Brontosaurus</text>
<g>
	<g>
		<g>
			<defs>
				<path id="XMLID_5_" d="M732.8,247c-0.7,26.6-15.5,44.1-33.6,43.7s-32.4-18.6-31.7-45.2c0.7-26.6,11.4-52.2,34.1-51.5
					C723.5,194.8,733.5,220.4,732.8,247z"/>
			</defs>
			
				<radialGradient id="XMLID_12_" cx="394.8969" cy="144.7399" r="187.6807" gradientTransform="matrix(0.937 -0.1394 0.1122 1.081 328.2181 111.025)" gradientUnits="userSpaceOnUse">
				<stop  offset="0" style="stop-color:#FFFFFF"/>
				<stop  offset="1" style="stop-color:#000000"/>
			</radialGradient>
			<use xlink:href="#XMLID_5_"  overflow="visible" fill="url(#XMLID_12_)"/>
			<clipPath id="XMLID_13_">
				<use xlink:href="#XMLID_5_"  overflow="visible"/>
			</clipPath>
			<path clip-path="url(#XMLID_13_)" fill="#FF0066" d="M707.1,241.6c-0.3,10.5-7.8,19-16.7,18.8c-8.9-0.2-15.9-8.8-15.6-19.4
				s7.8-19,16.7-18.8S707.5,231,707.1,241.6z"/>
			<path clip-path="url(#XMLID_13_)" fill="#FF0066" d="M730.6,285.4c-3.9,6-11.2,8.2-16.2,5c-5-3.2-5.9-10.7-1.9-16.7
				c3.9-6,11.2-8.2,16.2-5C733.7,271.9,734.6,279.4,730.6,285.4z"/>
			<path clip-path="url(#XMLID_13_)" fill="#FF0066" d="M688,271.3c3.1,6.5,1.2,13.8-4.2,16.4c-5.4,2.6-12.2-0.5-15.2-7
				s-1.2-13.8,4.2-16.4C678.1,261.7,684.9,264.8,688,271.3z"/>
			<path clip-path="url(#XMLID_13_)" fill="#FF0066" d="M732.9,216.5c2.6,7.5,0.4,15.1-4.9,17c-5.3,1.8-11.6-2.8-14.1-10.3
				c-2.6-7.5-0.4-15.1,4.9-17C724,204.4,730.3,209,732.9,216.5z"/>
			<path clip-path="url(#XMLID_13_)" fill="#FF0066" d="M690.6,207.9c-3.6,3.8-8.7,4.9-11.4,2.4s-2-7.6,1.6-11.4s8.7-4.9,11.4-2.4
				C694.9,199,694.2,204.1,690.6,207.9z"/>
		</g>
	</g>
	<path fill="#FFFFFF" d="M721.3,208.3c-0.7-4.1-4.6-6.9-8.7-6.3s-7,4.5-6.3,8.6c0.7,4.1,4.6,6.9,8.7,6.3S722,212.4,721.3,208.3z"/>
</g>
<g>
	<rect x="603.2" y="145.3" fill="none" width="194" height="194"/>
</g>
<rect x="602.1" y="303.6" fill="none" width="194" height="35.7"/>
<text transform="matrix(1 0 0 1 637.1378 320.7899)" fill="#009999" font-family="'FredokaOne-Regular'" font-size="22.2057" letter-spacing="-1">Velociraptor</text>
<g>
	<g>
		<g>
			<defs>
				<path id="XMLID_4_" d="M431.5,441c-0.7,26.6-15.5,44.1-33.6,43.7c-18-0.4-32.4-18.6-31.7-45.2c0.7-26.6,11.4-52.2,34.1-51.5
					C422.2,388.8,432.1,414.4,431.5,441z"/>
			</defs>
			
				<radialGradient id="XMLID_14_" cx="57.0601" cy="280.6178" r="187.6807" gradientTransform="matrix(0.937 -0.1394 0.1122 1.081 328.2181 111.025)" gradientUnits="userSpaceOnUse">
				<stop  offset="0" style="stop-color:#FFFFFF"/>
				<stop  offset="1" style="stop-color:#000000"/>
			</radialGradient>
			<use xlink:href="#XMLID_4_"  overflow="visible" fill="url(#XMLID_14_)"/>
			<clipPath id="XMLID_15_">
				<use xlink:href="#XMLID_4_"  overflow="visible"/>
			</clipPath>
			<path clip-path="url(#XMLID_15_)" fill="#FF0066" d="M405.8,435.6c-0.3,10.5-7.8,19-16.7,18.8c-8.9-0.2-15.9-8.8-15.6-19.4
				c0.3-10.5,7.8-19,16.7-18.8C399.2,416.3,406.1,425,405.8,435.6z"/>
			<path clip-path="url(#XMLID_15_)" fill="#FF0066" d="M429.3,479.4c-3.9,6-11.2,8.2-16.2,5c-5-3.2-5.9-10.7-1.9-16.7
				c3.9-6,11.2-8.2,16.2-5C432.4,465.9,433.3,473.4,429.3,479.4z"/>
			<path clip-path="url(#XMLID_15_)" fill="#FF0066" d="M386.7,465.3c3.1,6.5,1.2,13.8-4.2,16.4c-5.4,2.6-12.2-0.5-15.2-7
				c-3.1-6.5-1.2-13.8,4.2-16.4C376.8,455.7,383.6,458.8,386.7,465.3z"/>
			<path clip-path="url(#XMLID_15_)" fill="#FF0066" d="M431.5,410.5c2.6,7.5,0.4,15.1-4.9,17c-5.3,1.8-11.6-2.8-14.1-10.3
				c-2.6-7.5-0.4-15.1,4.9-17S429,403,431.5,410.5z"/>
			<path clip-path="url(#XMLID_15_)" fill="#FF0066" d="M389.3,401.9c-3.6,3.8-8.7,4.9-11.4,2.4c-2.7-2.5-2-7.6,1.6-11.4
				c3.6-3.8,8.7-4.9,11.4-2.4C393.6,393,392.9,398.1,389.3,401.9z"/>
		</g>
	</g>
	<path fill="#FFFFFF" d="M420,402.3c-0.7-4.1-4.6-6.9-8.7-6.3c-4.2,0.6-7,4.5-6.3,8.6c0.7,4.1,4.6,6.9,8.7,6.3
		C417.8,410.3,420.6,406.4,420,402.3z"/>
</g>
<g>
	<rect x="301.9" y="339.3" fill="none" width="194" height="194"/>
</g>
<rect x="300.8" y="497.6" fill="none" width="194" height="35.7"/>
<text transform="matrix(1 0 0 1 346.6374 514.7889)" fill="#009999" font-family="'FredokaOne-Regular'" font-size="22.2057" letter-spacing="-1">Iguanodon</text>
<g>
	<g>
		<g>
			<defs>
				<path id="XMLID_3_" d="M130.7,441c-0.7,26.6-15.5,44.1-33.6,43.7c-18-0.4-32.4-18.6-31.7-45.2s11.4-52.2,34.1-51.5
					C121.5,388.8,131.4,414.4,130.7,441z"/>
			</defs>
			
				<radialGradient id="XMLID_16_" cx="-259.0557" cy="239.8401" r="187.6807" gradientTransform="matrix(0.937 -0.1394 0.1122 1.081 328.2181 111.025)" gradientUnits="userSpaceOnUse">
				<stop  offset="0" style="stop-color:#FFFFFF"/>
				<stop  offset="1" style="stop-color:#000000"/>
			</radialGradient>
			<use xlink:href="#XMLID_3_"  overflow="visible" fill="url(#XMLID_16_)"/>
			<clipPath id="XMLID_17_">
				<use xlink:href="#XMLID_3_"  overflow="visible"/>
			</clipPath>
			<path clip-path="url(#XMLID_17_)" fill="#FF0066" d="M105.1,435.6c-0.3,10.5-7.8,19-16.7,18.8c-8.9-0.2-15.9-8.8-15.6-19.4
				c0.3-10.5,7.8-19,16.7-18.8C98.4,416.3,105.4,425,105.1,435.6z"/>
			<path clip-path="url(#XMLID_17_)" fill="#FF0066" d="M128.5,479.4c-3.9,6-11.2,8.2-16.2,5c-5-3.2-5.9-10.7-1.9-16.7
				c3.9-6,11.2-8.2,16.2-5C131.6,465.9,132.5,473.4,128.5,479.4z"/>
			<path clip-path="url(#XMLID_17_)" fill="#FF0066" d="M85.9,465.3c3.1,6.5,1.2,13.8-4.2,16.4c-5.4,2.6-12.2-0.5-15.2-7
				c-3.1-6.5-1.2-13.8,4.2-16.4C76,455.7,82.8,458.8,85.9,465.3z"/>
			<path clip-path="url(#XMLID_17_)" fill="#FF0066" d="M130.8,410.5c2.6,7.5,0.4,15.1-4.9,17c-5.3,1.8-11.6-2.8-14.1-10.3
				c-2.6-7.5-0.4-15.1,4.9-17C121.9,398.4,128.2,403,130.8,410.5z"/>
			<path clip-path="url(#XMLID_17_)" fill="#FF0066" d="M88.6,401.9c-3.6,3.8-8.7,4.9-11.4,2.4c-2.7-2.5-2-7.6,1.6-11.4
				s8.7-4.9,11.4-2.4C92.9,393,92.1,398.1,88.6,401.9z"/>
		</g>
	</g>
	<path fill="#FFFFFF" d="M119.2,402.3c-0.7-4.1-4.6-6.9-8.7-6.3c-4.2,0.6-7,4.5-6.3,8.6c0.7,4.1,4.6,6.9,8.7,6.3
		C117.1,410.3,119.9,406.4,119.2,402.3z"/>
</g>
<g>
	<rect x="1.1" y="339.3" fill="none" width="194" height="194"/>
</g>
<rect x="0" y="497.6" fill="none" width="194" height="35.7"/>
<text transform="matrix(1 0 0 1 14.2404 514.7889)" fill="#009999" font-family="'FredokaOne-Regular'" font-size="22.2057" letter-spacing="-1">Parasaurolophus</text>
<g>
	<g>
		<g>
			<defs>
				<path id="XMLID_2_" d="M732.8,441c-0.7,26.6-15.5,44.1-33.6,43.7c-18-0.4-32.4-18.6-31.7-45.2c0.7-26.6,11.4-52.2,34.1-51.5
					C723.5,388.8,733.5,414.4,732.8,441z"/>
			</defs>
			
				<radialGradient id="XMLID_18_" cx="373.7414" cy="321.4684" r="187.6807" gradientTransform="matrix(0.937 -0.1394 0.1122 1.081 328.2181 111.025)" gradientUnits="userSpaceOnUse">
				<stop  offset="0" style="stop-color:#FFFFFF"/>
				<stop  offset="1" style="stop-color:#000000"/>
			</radialGradient>
			<use xlink:href="#XMLID_2_"  overflow="visible" fill="url(#XMLID_18_)"/>
			<clipPath id="XMLID_19_">
				<use xlink:href="#XMLID_2_"  overflow="visible"/>
			</clipPath>
			<path clip-path="url(#XMLID_19_)" fill="#FF0066" d="M707.1,435.6c-0.3,10.5-7.8,19-16.7,18.8c-8.9-0.2-15.9-8.8-15.6-19.4
				c0.3-10.5,7.8-19,16.7-18.8C700.5,416.3,707.5,425,707.1,435.6z"/>
			<path clip-path="url(#XMLID_19_)" fill="#FF0066" d="M730.6,479.4c-3.9,6-11.2,8.2-16.2,5c-5-3.2-5.9-10.7-1.9-16.7
				c3.9-6,11.2-8.2,16.2-5C733.7,465.9,734.6,473.4,730.6,479.4z"/>
			<path clip-path="url(#XMLID_19_)" fill="#FF0066" d="M688,465.3c3.1,6.5,1.2,13.8-4.2,16.4c-5.4,2.6-12.2-0.5-15.2-7
				s-1.2-13.8,4.2-16.4C678.1,455.7,684.9,458.8,688,465.3z"/>
			<path clip-path="url(#XMLID_19_)" fill="#FF0066" d="M732.9,410.5c2.6,7.5,0.4,15.1-4.9,17s-11.6-2.8-14.1-10.3
				c-2.6-7.5-0.4-15.1,4.9-17S730.3,403,732.9,410.5z"/>
			<path clip-path="url(#XMLID_19_)" fill="#FF0066" d="M690.6,401.9c-3.6,3.8-8.7,4.9-11.4,2.4c-2.7-2.5-2-7.6,1.6-11.4
				s8.7-4.9,11.4-2.4C694.9,393,694.2,398.1,690.6,401.9z"/>
		</g>
	</g>
	<path fill="#FFFFFF" d="M721.3,402.3c-0.7-4.1-4.6-6.9-8.7-6.3c-4.2,0.6-7,4.5-6.3,8.6c0.7,4.1,4.6,6.9,8.7,6.3
		C719.1,410.3,722,406.4,721.3,402.3z"/>
</g>
<g>
	<rect x="603.2" y="339.3" fill="none" width="194" height="194"/>
</g>
<rect x="602.1" y="497.6" fill="none" width="194" height="35.7"/>
<text transform="matrix(1 0 0 1 629.7657 514.7889)" fill="#009999" font-family="'FredokaOne-Regular'" font-size="22.2057" letter-spacing="-1">Dilophosaurus</text>
<g>
	<g>
		<g>
			<defs>
				<path id="XMLID_1_" d="M733.3,53c-0.7,26.6-15.5,44.1-33.6,43.7c-18-0.4-32.4-18.6-31.7-45.2S679.5-0.7,702.2,0
					C724.1,0.8,734,26.4,733.3,53z"/>
			</defs>
			
				<radialGradient id="XMLID_20_" cx="416.6179" cy="-31.9157" r="187.6807" gradientTransform="matrix(0.937 -0.1394 0.1122 1.081 328.2181 111.025)" gradientUnits="userSpaceOnUse">
				<stop  offset="0" style="stop-color:#FFFFFF"/>
				<stop  offset="1" style="stop-color:#000000"/>
			</radialGradient>
			<use xlink:href="#XMLID_1_"  overflow="visible" fill="url(#XMLID_20_)"/>
			<clipPath id="XMLID_21_">
				<use xlink:href="#XMLID_1_"  overflow="visible"/>
			</clipPath>
			<path clip-path="url(#XMLID_21_)" fill="#FF0066" d="M707.7,47.6c-0.3,10.5-7.8,19-16.7,18.8c-8.9-0.2-15.9-8.8-15.6-19.4
				s7.8-19,16.7-18.8C701,28.3,708,37,707.7,47.6z"/>
			<path clip-path="url(#XMLID_21_)" fill="#FF0066" d="M731.2,91.4c-3.9,6-11.2,8.2-16.2,5c-5-3.2-5.9-10.7-1.9-16.7
				c3.9-6,11.2-8.2,16.2-5C734.2,77.9,735.1,85.4,731.2,91.4z"/>
			<path clip-path="url(#XMLID_21_)" fill="#FF0066" d="M688.5,77.3c3.1,6.5,1.2,13.8-4.2,16.4c-5.4,2.6-12.2-0.5-15.2-7
				c-3.1-6.5-1.2-13.8,4.2-16.4C678.6,67.7,685.5,70.8,688.5,77.3z"/>
			<path clip-path="url(#XMLID_21_)" fill="#FF0066" d="M733.4,22.5c2.6,7.5,0.4,15.1-4.9,17c-5.3,1.8-11.6-2.8-14.1-10.3
				c-2.6-7.5-0.4-15.1,4.9-17S730.8,15,733.4,22.5z"/>
			<path clip-path="url(#XMLID_21_)" fill="#FF0066" d="M691.2,13.9c-3.6,3.8-8.7,4.9-11.4,2.4s-2-7.6,1.6-11.4s8.7-4.9,11.4-2.4
				S694.8,10.1,691.2,13.9z"/>
		</g>
	</g>
	<path fill="#FFFFFF" d="M721.8,14.3c-0.7-4.1-4.6-6.9-8.7-6.3s-7,4.5-6.3,8.6c0.7,4.1,4.6,6.9,8.7,6.3
		C719.7,22.3,722.5,18.4,721.8,14.3z"/>
</g>
<g>
	<rect x="602.6" y="109.6" fill="none" width="194" height="35.7"/>
	
		<text transform="matrix(1 0 0 1 641.4288 126.7918)" fill="#009999" font-family="'FredokaOne-Regular'" font-size="22.2057" letter-spacing="-1">Pterodactyl</text>
</g>
</svg>
