<!-- Generator: Adobe Illustrator 18.1.1, SVG Export Plug-In  -->
<svg version="1.1"
	 xmlns="http://www.w3.org/2000/svg" xmlns:xlink="http://www.w3.org/1999/xlink" xmlns:a="http://ns.adobe.com/AdobeSVGViewerExtensions/3.0/"
	 x="0px" y="0px" width="132.1px" height="25.9px" viewBox="0 0 132.1 25.9" enable-background="new 0 0 132.1 25.9"
	 xml:space="preserve">
<defs>
</defs>
<path fill="#FFFFFF" d="M128,13.7h-21.1v-0.4c0-0.4-0.1-0.8-0.2-1.2h2c2.3,0,4.2-1.9,4.2-4.2s-1.9-4.2-4.2-4.2H96.5V3.4
	C96.5,1.5,95,0,93.1,0H37.2c-1.9,0-3.4,1.5-3.4,3.4v0.4h-9.1c-2.3,0-4.2,1.9-4.2,4.2H4.2C1.9,8,0,9.9,0,12.2s1.9,4.2,4.2,4.2h35.9
	c-0.2,0.5-0.3,1-0.3,1.6c0,0.1,0,0.3,0,0.4H22.7c-1.9,0-3.4,1.5-3.4,3.4v0.8c0,1.9,1.5,3.4,3.4,3.4h55.9c1.9,0,3.4-1.5,3.4-3.4v-0.4
	h46c2.3,0,4.2-1.9,4.2-4.2S130.3,13.7,128,13.7z"/>
</svg>
