<!-- Generator: Adobe Illustrator 18.1.1, SVG Export Plug-In  -->
<svg version="1.1"
	 xmlns="http://www.w3.org/2000/svg" xmlns:xlink="http://www.w3.org/1999/xlink" xmlns:a="http://ns.adobe.com/AdobeSVGViewerExtensions/3.0/"
	 x="0px" y="0px" width="283.1px" height="57.6px" viewBox="0 0 283.1 57.6" enable-background="new 0 0 283.1 57.6"
	 xml:space="preserve">
<defs>
</defs>
<path fill="#FFFFFF" d="M270.9,20.4h-27.7c-0.1-6.6-5.5-12-12.2-12h-49.3C180,3.5,175.5,0,170.1,0H60c-6.7,0-12.2,5.5-12.2,12.2v0
	c0,1.6,0.3,3.2,0.9,4.6H12.2C5.5,16.8,0,22.3,0,29v0c0,6.7,5.5,12.2,12.2,12.2h20.5c-0.5,1.3-0.8,2.7-0.8,4.2
	c0,6.7,5.5,12.2,12.2,12.2h110.1c4.5,0,8.4-2.4,10.5-6h28.1c4.8,0,8.9-2.8,10.9-6.8h67.1c6.7,0,12.2-5.5,12.2-12.2
	C283.1,25.8,277.6,20.4,270.9,20.4z"/>
</svg>
