<!-- Generator: Adobe Illustrator 18.1.1, SVG Export Plug-In  -->
<svg version="1.1"
	 xmlns="http://www.w3.org/2000/svg" xmlns:xlink="http://www.w3.org/1999/xlink" xmlns:a="http://ns.adobe.com/AdobeSVGViewerExtensions/3.0/"
	 x="0px" y="0px" width="75.7px" height="23.2px" viewBox="0 0 75.7 23.2" enable-background="new 0 0 75.7 23.2"
	 xml:space="preserve">
<defs>
</defs>
<path fill="#FFFFFF" d="M72.4,2.2H52.6C52.2,0.9,51,0,49.5,0H19.6c-1.8,0-3.3,1.5-3.3,3.3v0c0,0.8,0.3,1.6,0.8,2.2H3.3
	C1.5,5.5,0,7,0,8.8v0c0,1.8,1.5,3.3,3.3,3.3h27.2c-1.8,0-3.3,1.5-3.3,3.3c0,0.4,0.1,0.8,0.2,1.1H17c-1.8,0-3.3,1.5-3.3,3.3v0
	c0,1.8,1.5,3.3,3.3,3.3H47c1.8,0,3.3-1.5,3.3-3.3v0c0-0.4-0.1-0.8-0.2-1.1h10.4c1.8,0,3.3-1.5,3.3-3.3c0-1.8-1.5-3.3-3.3-3.3h3.1
	c1.8,0,3.3-1.5,3.3-3.3v0h5.5c1.8,0,3.3-1.5,3.3-3.3S74.2,2.2,72.4,2.2z M33.3,12.1c0.1,0,0.1,0,0.2,0c0.1,0,0.1,0,0.2,0H33.3z"/>
</svg>
