<!-- Generator: Adobe Illustrator 18.1.1, SVG Export Plug-In  -->
<svg version="1.1"
	 xmlns="http://www.w3.org/2000/svg" xmlns:xlink="http://www.w3.org/1999/xlink" xmlns:a="http://ns.adobe.com/AdobeSVGViewerExtensions/3.0/"
	 x="0px" y="0px" width="84.4px" height="19.8px" viewBox="0 0 84.4 19.8" enable-background="new 0 0 84.4 19.8"
	 xml:space="preserve">
<defs>
</defs>
<polygon points="0,15.8 4.4,10.5 5,14.8 9.6,8.8 12.9,14 20.2,6.2 24.4,11.5 30.9,3 32.9,8 38.4,1 41.4,7 46.4,0 51.4,12.8 56.4,5 
	61.9,12.5 65.9,8 69.9,13 72.4,7.8 75.9,13.5 84.4,14 76,14.9 73.1,11.6 70.1,17.5 66.4,12.5 61.4,16.8 56.9,12.2 50,17.3 46.4,8.2 
	40.4,14.2 37.2,7 33.5,14.7 29.9,8.5 23.5,15.5 19.4,11.5 12.4,19.8 9.8,14.1 4.9,17.8 3.4,15.2 0,15.8 "/>
</svg>
