<!-- Generator: Adobe Illustrator 18.1.1, SVG Export Plug-In  -->
<svg version="1.1"
	 xmlns="http://www.w3.org/2000/svg" xmlns:xlink="http://www.w3.org/1999/xlink" xmlns:a="http://ns.adobe.com/AdobeSVGViewerExtensions/3.0/"
	 x="0px" y="0px" width="1111.3px" height="102px" viewBox="0 0 1111.3 102" enable-background="new 0 0 1111.3 102"
	 xml:space="preserve">
<defs>
</defs>
<g>
	<g>
		<path fill="#349946" d="M107.5,51.4c-0.1-0.9-1.1-1.5-2.2-1.4c-0.2,0-0.3,0.1-0.6,0.1c0.2-0.3,0.2-0.7,0-1.1
			c-0.3-0.8-1.5-1.3-2.5-1c0,0,0,0,0,0c0.9-0.6,1.2-1.6,0.6-2.5c-0.6-0.9-2-1.2-3.1-0.6c0.4-0.7,0.3-1.5-0.4-2.1
			c-0.8-0.8-2.2-0.8-3.2-0.2c0.4-0.9,0.1-1.9-0.9-2.5c-0.9-0.5-1.9-0.5-2.8,0c0.2-0.9-0.3-1.8-1.4-2.2c-0.8-0.3-1.7-0.3-2.4,0.1
			c-0.2-0.6-0.7-1.1-1.5-1.4c-1.1-0.4-2.5-0.2-3.4,0.5c0-0.1,0-0.2,0-0.3c0.1-1.3-1.1-2.5-2.7-2.5c-0.7,0-1.3,0.1-1.8,0.4
			c-0.4-0.8-1.3-1.3-2.4-1.4c-1.6-0.1-3,0.9-3.2,2.3c-0.1,1,0.3,3.5,1.2,4.9L75,40.5c-1.9,0.5-4.5,2.1-5.3,2.9
			c-1.1,1.1-1,2.7,0.3,3.6c0.8,0.6,2,0.7,3,0.4c0.2,0.4,0.5,0.7,0.9,1c1.3,0.9,3.2,0.7,4.3-0.3c0.1-0.1,0.2-0.2,0.2-0.3
			c0.1,0.7,0.6,1.4,1.4,1.7c1,0.4,2.2,0.2,3-0.4c0,0.9,0.7,1.8,1.9,2c0.6,0.1,1.2,0.1,1.7-0.1c0.2,0.6,0.8,1.1,1.6,1.3
			c0.7,0.2,1.5,0.1,2.2-0.2c0.3,0.5,0.8,0.8,1.4,1c0.4,0.1,0.9,0.1,1.3,0c0.2,0.6,0.6,1,1.3,1.3c0.5,0.2,1,0.2,1.4,0.1
			c0.1,0.4,0.5,0.8,1,1c0.9,0.3,1.9,0.1,2.5-0.5c-0.1,0.2-0.1,0.3-0.2,0.4c-0.2,0.8,0.4,1.5,1.3,1.6c0.5,0.1,1.1-0.1,1.5-0.3
			c0,0.4,0.4,0.7,0.9,0.8c0.3,0.1,0.6,0,0.9-0.1c0,0.4,0.3,0.7,0.7,0.7c0.5,0.1,1-0.2,1.1-0.6c0-0.1,0-0.2,0-0.3l0.1,0
			c0.2,0.4,0.5,0.8,0.6,1c0.4,0.4,1,0.4,1.5,0.1c0.5-0.3,0.5-0.9,0.2-1.2c-0.1-0.1-0.3-0.3-0.6-0.4c0.5,0.1,1.1-0.2,1.2-0.7
			c0.2-0.5-0.2-0.9-0.7-1.1c-0.1,0-0.2,0-0.4,0c0-0.1,0-0.2,0-0.2c0.4-0.2,0.7-0.6,0.6-1c-0.1-0.4-0.4-0.8-0.9-0.9
			C107.3,52.5,107.6,52,107.5,51.4z"/>
		<g>
			<path fill="#078E45" d="M74.3,39.9c0,0,2.4,0.1,6,0.9c0.9,0.2,1.9,0.4,2.9,0.7c1,0.3,2.1,0.6,3.1,1c1.1,0.4,2.2,0.8,3.3,1.3
				c1.1,0.5,2.2,1,3.3,1.6c1.1,0.6,2.2,1.1,3.2,1.8c1,0.6,2,1.3,2.9,2c0.9,0.7,1.8,1.3,2.6,2.1c0.8,0.7,1.6,1.3,2.1,2.1
				c0.6,0.7,1.2,1.3,1.7,1.9c0.5,0.6,0.8,1.1,1.1,1.6c0.6,0.9,0.9,1.4,0.9,1.4s-0.5-0.4-1.2-1.1c-0.4-0.4-0.8-0.8-1.4-1.3
				c-0.6-0.5-1.2-1-1.9-1.6c-0.3-0.3-0.7-0.6-1.1-0.9c-0.4-0.3-0.8-0.6-1.2-0.9c-0.8-0.6-1.7-1.2-2.7-1.8c-0.9-0.7-1.9-1.2-2.9-1.8
				c-1-0.6-2.1-1.1-3.1-1.7C91,46.6,90,46,88.9,45.5c-1.1-0.4-2.1-1-3.2-1.4c-1-0.4-2-0.9-3-1.2c-1-0.4-1.9-0.7-2.7-1
				c-1.7-0.6-3.1-1.1-4.1-1.5C74.9,40.1,74.3,39.9,74.3,39.9z"/>
		</g>
	</g>
	<g>
		<path fill="#349946" d="M93.5,56.7c0.1-0.7-0.5-1.3-1.3-1.3c-0.1,0-0.3,0-0.4,0c0.2-0.2,0.3-0.5,0.3-0.8c-0.1-0.7-0.8-1.1-1.6-1.1
			c0,0,0,0,0,0c0.8-0.3,1.2-1,1-1.7c-0.3-0.7-1.2-1.2-2.1-0.9c0.4-0.4,0.5-1,0.2-1.6c-0.4-0.7-1.4-1-2.3-0.7
			c0.5-0.6,0.5-1.4-0.1-1.9c-0.5-0.5-1.3-0.6-2-0.5c0.3-0.6,0.1-1.4-0.5-1.8c-0.5-0.3-1.1-0.4-1.7-0.3c0-0.5-0.3-0.9-0.8-1.3
			c-0.7-0.5-1.7-0.6-2.5-0.2c0-0.1,0.1-0.1,0.1-0.2c0.4-0.9-0.2-1.9-1.4-2.2c-0.5-0.1-1-0.1-1.4,0c-0.1-0.6-0.7-1.1-1.5-1.4
			C74.2,38.5,73,39,72.6,40c-0.3,0.7-0.5,2.6-0.1,3.7l-0.1,0.1c-1.5,0.1-3.6,0.8-4.4,1.2c-1,0.6-1.3,1.8-0.6,2.6
			c0.5,0.6,1.3,0.8,2,0.8c0,0.3,0.2,0.6,0.4,0.9c0.7,0.8,2.2,1.1,3.2,0.5c0.1,0,0.1-0.1,0.2-0.1c-0.1,0.5,0.1,1.1,0.6,1.5
			c0.6,0.4,1.5,0.5,2.2,0.2c-0.2,0.7,0.1,1.4,0.9,1.7c0.4,0.2,0.8,0.2,1.3,0.2c0,0.5,0.4,0.9,0.9,1.2c0.5,0.3,1.1,0.3,1.6,0.2
			c0.1,0.4,0.4,0.7,0.8,0.9c0.3,0.1,0.6,0.2,0.9,0.2c0,0.4,0.2,0.8,0.7,1.1c0.3,0.2,0.7,0.3,1,0.3c0,0.3,0.2,0.7,0.5,0.9
			c0.5,0.4,1.3,0.4,1.9,0c-0.1,0.1-0.2,0.2-0.2,0.3c-0.3,0.5-0.1,1.1,0.6,1.4c0.4,0.1,0.8,0.1,1.1,0c-0.1,0.3,0.1,0.6,0.5,0.7
			c0.2,0.1,0.5,0.1,0.7,0c-0.1,0.3,0.1,0.5,0.4,0.6c0.4,0.1,0.8,0,1-0.3c0-0.1,0.1-0.1,0.1-0.2l0,0c0,0.3,0.2,0.7,0.2,0.8
			c0.2,0.3,0.7,0.5,1.1,0.3c0.4-0.2,0.6-0.5,0.4-0.9c-0.1-0.1-0.2-0.2-0.3-0.4c0.4,0.1,0.8,0,1-0.3c0.2-0.3,0.1-0.7-0.3-0.9
			c-0.1,0-0.2-0.1-0.3-0.1c0-0.1,0-0.1,0-0.2c0.3-0.1,0.6-0.3,0.7-0.6c0.1-0.3-0.1-0.6-0.4-0.8C93.1,57.5,93.4,57.1,93.5,56.7z"/>
		<g>
			<path fill="#078E45" d="M72.1,43.2c0,0,1.7,0.4,4.1,1.5c0.6,0.3,1.3,0.6,1.9,1c0.7,0.4,1.4,0.7,2.1,1.2c0.7,0.4,1.4,0.9,2.1,1.4
				c0.7,0.5,1.4,1.1,2.1,1.6c0.6,0.6,1.3,1.2,1.9,1.8c0.6,0.6,1.2,1.3,1.7,1.9c0.5,0.7,1,1.3,1.4,1.9c0.4,0.7,0.8,1.2,1.1,1.9
				c0.3,0.6,0.5,1.2,0.8,1.6c0.2,0.5,0.3,1,0.4,1.3c0.2,0.7,0.3,1.2,0.3,1.2s-0.3-0.4-0.7-1c-0.2-0.3-0.4-0.7-0.7-1.1
				C90.3,59,90,58.6,89.6,58c-0.4-0.5-0.9-1-1.3-1.6c-0.4-0.6-1-1.1-1.5-1.7c-0.5-0.6-1.2-1.1-1.7-1.7c-0.6-0.6-1.3-1.1-1.9-1.7
				c-0.6-0.6-1.3-1.1-1.9-1.6c-0.7-0.5-1.3-1.1-2-1.5c-0.6-0.5-1.3-1-1.9-1.4c-0.6-0.4-1.2-0.8-1.7-1.2
				C73.6,44.1,72.1,43.2,72.1,43.2z"/>
		</g>
	</g>
	<g>
		<path fill="#349946" d="M96.6,26.3c-0.7-0.4-1.6-0.2-2.1,0.5c-0.1,0.1-0.1,0.2-0.2,0.4c-0.2-0.3-0.4-0.5-0.8-0.6
			c-0.8-0.2-1.6,0.2-1.9,0.9c0,0,0,0,0,0c0-0.8-0.6-1.5-1.4-1.6c-0.9-0.1-1.8,0.5-2,1.4c-0.3-0.5-0.9-0.9-1.7-0.8
			c-0.9,0.1-1.7,0.8-1.8,1.6c-0.4-0.7-1.3-1-2.2-0.7c-0.8,0.2-1.3,0.8-1.4,1.5c-0.5-0.6-1.5-0.7-2.3-0.4c-0.6,0.3-1,0.8-1.1,1.3
			c-0.5-0.2-1.2-0.2-1.8,0.1c-0.9,0.4-1.4,1.2-1.3,2.1c-0.1-0.1-0.1-0.1-0.2-0.2c-0.9-0.7-2.3-0.7-3.1,0.2c-0.4,0.3-0.6,0.8-0.6,1.2
			c-0.8-0.2-1.6,0.1-2.2,0.6c-0.9,0.8-0.8,2.1,0,2.8c0.6,0.5,2.7,1.6,4.1,1.7l0.1,0.1C72,39.8,71.9,42,72,42.8
			c0.2,1.1,1.4,1.9,2.7,1.6c0.8-0.2,1.5-0.7,1.8-1.4c0.4,0.1,0.7,0.1,1.1,0c1.3-0.2,2.1-1.4,1.9-2.5c0-0.1,0-0.2-0.1-0.3
			c0.5,0.3,1.3,0.4,1.9,0.1c0.8-0.3,1.2-1.1,1.2-1.8c0.7,0.5,1.6,0.5,2.4,0c0.4-0.3,0.6-0.6,0.8-1c0.6,0.2,1.2,0.1,1.8-0.2
			c0.5-0.3,0.8-0.8,0.9-1.3c0.5,0.1,1,0,1.4-0.3c0.3-0.2,0.5-0.4,0.7-0.7c0.5,0.2,1.1,0.2,1.6-0.1c0.3-0.2,0.6-0.4,0.8-0.7
			c0.4,0.1,0.8,0.2,1.2,0c0.7-0.3,1-1,0.9-1.6c0.1,0.1,0.2,0.2,0.2,0.3c0.4,0.5,1.2,0.5,1.8,0.1c0.3-0.2,0.5-0.6,0.5-1
			c0.3,0.2,0.7,0.2,1-0.1c0.2-0.1,0.3-0.3,0.3-0.6c0.3,0.2,0.6,0.2,0.9,0c0.3-0.2,0.4-0.7,0.1-0.9c0-0.1-0.1-0.1-0.2-0.2l0,0
			c0.4,0.1,0.8,0.2,1,0.2c0.4,0,0.8-0.4,0.8-0.8c0-0.4-0.3-0.7-0.8-0.7c-0.1,0-0.3,0-0.6,0.1c0.3-0.3,0.4-0.7,0.1-1
			c-0.3-0.3-0.8-0.4-1.1-0.1c-0.1,0-0.1,0.1-0.2,0.2c-0.1,0-0.1-0.1-0.2-0.1c0.1-0.3-0.1-0.7-0.4-0.8c-0.3-0.2-0.7-0.2-1.1,0
			C97.2,27,97,26.6,96.6,26.3z"/>
		<g>
			<path fill="#078E45" d="M73.9,37.9c0,0,1.3-1.3,3.6-2.9c1.1-0.8,2.6-1.6,4.1-2.4c0.8-0.4,1.6-0.8,2.5-1.1
				c0.9-0.3,1.7-0.7,2.6-0.9c0.9-0.3,1.8-0.5,2.7-0.7c0.9-0.2,1.8-0.4,2.6-0.5c0.4-0.1,0.9-0.1,1.3-0.2c0.4,0,0.8-0.1,1.2-0.1
				c0.8-0.1,1.6-0.1,2.3,0c0.7,0,1.3,0.1,1.9,0.1c0.6,0.1,1.1,0.2,1.5,0.2c0.8,0.1,1.2,0.2,1.2,0.2s-0.5,0.1-1.3,0.1
				c-0.4,0-0.9,0.1-1.4,0.1c-0.6,0.1-1.2,0.2-1.8,0.3c-0.7,0.1-1.4,0.2-2.1,0.4c-0.4,0.1-0.8,0.1-1.2,0.2c-0.4,0.1-0.8,0.2-1.2,0.3
				c-0.4,0.1-0.8,0.2-1.2,0.3c-0.4,0.1-0.8,0.2-1.3,0.4c-0.9,0.2-1.7,0.5-2.6,0.8c-0.9,0.2-1.7,0.6-2.5,0.8
				c-0.8,0.3-1.6,0.6-2.4,0.9c-0.8,0.3-1.5,0.6-2.3,0.9c-0.7,0.3-1.4,0.6-2,0.9c-1.2,0.6-2.3,1-3,1.4C74.3,37.7,73.9,37.9,73.9,37.9
				z"/>
		</g>
	</g>
	<g>
		<path fill="#349946" d="M38.7,53.6c-0.1-0.7,0.7-1.4,1.9-1.4c0.2,0,0.4,0,0.6,0c-0.3-0.3-0.4-0.6-0.3-0.9c0.1-0.7,1.2-1.2,2.3-1.1
			c0,0,0,0,0,0c-1.1-0.3-1.6-1.2-1.2-1.9c0.4-0.8,1.8-1.2,3-0.9c-0.6-0.5-0.6-1.2-0.1-1.7c0.7-0.7,2.1-1,3.2-0.6
			c-0.6-0.7-0.5-1.5,0.3-2.1c0.7-0.5,1.9-0.6,2.8-0.4c-0.4-0.7-0.1-1.5,0.8-2c0.7-0.4,1.6-0.4,2.4-0.3c0.1-0.5,0.5-1,1.2-1.4
			c1.1-0.5,2.5-0.5,3.5-0.1c-0.1-0.1-0.1-0.2-0.1-0.2c-0.5-1.1,0.5-2.1,2.1-2.4c0.7-0.1,1.3-0.1,1.9,0.1c0.2-0.7,1-1.2,2.1-1.4
			c1.6-0.3,3.3,0.4,3.8,1.4c0.3,0.8,0.5,2.9-0.1,4.1l0.1,0.1c2,0.2,5,1.1,6,1.6c1.4,0.7,1.7,2,0.6,2.9c-0.7,0.6-1.8,0.9-2.9,0.8
			c-0.1,0.3-0.3,0.6-0.6,0.9c-1.1,0.9-3.1,1-4.5,0.3c-0.1,0-0.2-0.1-0.3-0.2c0.1,0.6-0.2,1.2-1,1.6c-0.9,0.5-2.2,0.5-3.1,0.1
			c0.2,0.7-0.3,1.5-1.4,1.9c-0.6,0.2-1.2,0.2-1.8,0.1c-0.1,0.5-0.6,1-1.3,1.3c-0.7,0.3-1.5,0.3-2.3,0.1c-0.2,0.4-0.6,0.8-1.2,1
			C55,53,54.5,53,54.1,53c0,0.5-0.4,0.9-1,1.2c-0.4,0.2-0.9,0.3-1.4,0.2c0,0.4-0.3,0.7-0.8,1c-0.8,0.4-1.9,0.4-2.6-0.1
			c0.1,0.1,0.2,0.2,0.3,0.3c0.4,0.6,0,1.3-0.9,1.5c-0.5,0.1-1.1,0.1-1.6-0.1c0.1,0.3-0.2,0.6-0.7,0.8c-0.3,0.1-0.6,0.1-0.9,0
			c0.1,0.3-0.1,0.6-0.6,0.7c-0.5,0.1-1.1,0-1.3-0.3c0-0.1-0.1-0.2-0.1-0.3l-0.1,0c-0.1,0.4-0.3,0.7-0.4,0.9
			c-0.3,0.3-0.9,0.5-1.5,0.3c-0.5-0.2-0.8-0.6-0.5-1c0.1-0.1,0.3-0.3,0.5-0.4c-0.5,0.1-1.2,0-1.4-0.4c-0.3-0.4,0-0.8,0.5-1
			c0.1,0,0.2-0.1,0.4-0.1c0-0.1,0-0.1,0-0.2c-0.5-0.1-0.8-0.4-0.9-0.7c-0.1-0.4,0.2-0.7,0.7-0.8C39.2,54.4,38.8,54.1,38.7,53.6z"/>
		<g>
			<path fill="#078E45" d="M69.6,39.8c0,0-2,0.9-5.1,2.4c-1.5,0.7-3.2,1.6-5.1,2.5c-0.9,0.5-1.9,1-2.8,1.5c-1,0.5-1.9,1.1-2.8,1.6
				c-0.9,0.6-1.9,1.2-2.8,1.7c-0.9,0.6-1.8,1.2-2.6,1.8c-0.8,0.7-1.6,1.2-2.3,1.8c-0.7,0.6-1.4,1.2-2,1.8c-0.6,0.6-1.1,1.1-1.6,1.6
				c-0.5,0.5-0.8,1-1.1,1.3c-0.6,0.7-1,1.2-1,1.2s0.2-0.5,0.7-1.4c0.2-0.4,0.5-1,0.9-1.6c0.4-0.6,0.8-1.2,1.4-1.9
				c0.5-0.7,1.2-1.3,1.8-2.1c0.7-0.7,1.5-1.4,2.3-2.1c0.8-0.7,1.7-1.4,2.6-2c0.9-0.6,1.9-1.3,2.8-1.9c1-0.5,2-1.1,3-1.6
				c1-0.5,2-1,3-1.4c1-0.5,1.9-0.8,2.8-1.2c0.9-0.4,1.8-0.6,2.6-0.9C67.4,40.1,69.6,39.8,69.6,39.8z"/>
		</g>
	</g>
	<g>
		<path fill="#349946" d="M54,22.2c0.6-0.3,1.3,0.1,1.6,0.7c0,0.1,0.1,0.2,0.2,0.4c0.1-0.2,0.4-0.4,0.6-0.4c0.6-0.1,1.3,0.4,1.5,1.1
			c0,0,0,0,0,0c0-0.7,0.5-1.3,1.2-1.2c0.7,0,1.4,0.8,1.5,1.6c0.3-0.5,0.8-0.7,1.3-0.5c0.7,0.2,1.3,1,1.3,1.8
			c0.4-0.6,1.1-0.7,1.8-0.4c0.6,0.3,1,1,1.1,1.6c0.4-0.4,1.2-0.5,1.8,0c0.5,0.3,0.8,0.9,0.8,1.4c0.4-0.1,0.9,0,1.4,0.3
			c0.7,0.5,1.1,1.4,1,2.1c0.1-0.1,0.1-0.1,0.2-0.1c0.7-0.6,1.8-0.3,2.5,0.6c0.3,0.4,0.4,0.8,0.4,1.2c0.6,0,1.3,0.3,1.7,0.9
			c0.6,0.9,0.6,2.1-0.1,2.6c-0.5,0.4-2.2,1.1-3.3,1l0,0.1c0.4,1.3,0.5,3.3,0.3,4.1c-0.2,1-1.2,1.5-2.1,1.1c-0.7-0.3-1.2-0.9-1.4-1.6
			c-0.3,0-0.6,0-0.9-0.1c-1-0.4-1.6-1.6-1.4-2.6c0-0.1,0-0.1,0.1-0.2c-0.4,0.2-1,0.2-1.5-0.2c-0.6-0.4-0.9-1.2-0.9-1.9
			c-0.5,0.3-1.3,0.2-1.9-0.3c-0.3-0.3-0.5-0.7-0.6-1c-0.4,0.1-1-0.1-1.4-0.5c-0.4-0.4-0.6-0.9-0.7-1.3c-0.4,0-0.8-0.1-1.1-0.4
			c-0.2-0.2-0.4-0.5-0.5-0.7c-0.4,0.1-0.8,0-1.2-0.3c-0.3-0.2-0.5-0.5-0.6-0.8c-0.3,0.1-0.7,0-1-0.2c-0.5-0.4-0.8-1-0.6-1.6
			c-0.1,0.1-0.1,0.2-0.2,0.3c-0.4,0.4-1,0.3-1.4-0.1c-0.3-0.3-0.4-0.6-0.4-1c-0.2,0.1-0.6,0-0.8-0.2c-0.1-0.2-0.2-0.4-0.2-0.6
			c-0.2,0.1-0.5,0.1-0.7-0.2c-0.2-0.3-0.3-0.7-0.1-0.9c0,0,0.1-0.1,0.2-0.1l0,0c-0.3,0-0.7,0-0.8,0c-0.3-0.1-0.6-0.4-0.6-0.8
			c0-0.4,0.3-0.6,0.6-0.5c0.1,0,0.3,0.1,0.5,0.2c-0.2-0.3-0.3-0.7-0.1-0.9c0.2-0.3,0.6-0.2,0.9,0.1c0,0,0.1,0.1,0.2,0.2
			c0,0,0.1-0.1,0.2-0.1c0-0.3,0.1-0.6,0.4-0.7c0.3-0.1,0.6,0,0.8,0.2C53.5,22.6,53.7,22.3,54,22.2z"/>
		<g>
			<path fill="#078E45" d="M73.1,37.1c0,0-1.4-1-3.4-2.4c-0.5-0.4-1.1-0.7-1.6-1.1c-0.6-0.4-1.2-0.8-1.8-1.2c-0.6-0.4-1.3-0.8-2-1.3
				c-0.7-0.4-1.4-0.9-2.1-1.3c-0.7-0.4-1.4-0.8-2.1-1.2c-0.7-0.3-1.4-0.8-2.1-1.1c-0.7-0.3-1.4-0.7-2-0.9c-0.7-0.2-1.3-0.6-1.8-0.7
				c-0.6-0.2-1.1-0.4-1.6-0.6c-0.5-0.1-0.9-0.3-1.3-0.4c-0.7-0.2-1.1-0.3-1.1-0.3s0.4,0,1.2,0c0.4,0,0.8,0,1.3,0
				c0.5,0.1,1.1,0.1,1.7,0.2c0.6,0.1,1.3,0.3,2,0.5c0.7,0.2,1.4,0.4,2.2,0.7c0.8,0.3,1.5,0.6,2.3,1c0.8,0.3,1.5,0.8,2.3,1.2
				c0.7,0.4,1.4,0.9,2.1,1.4c0.7,0.5,1.4,1,2,1.5c1.2,1,2.3,2,3.2,2.9C72.2,35.7,73.1,37.1,73.1,37.1z"/>
		</g>
	</g>
	<g>
		<path fill="#349946" d="M44.1,32.6c0.4-0.4,1.2-0.4,1.8,0.1c0.1,0.1,0.2,0.2,0.3,0.3c0-0.3,0.1-0.5,0.4-0.6
			c0.5-0.3,1.3-0.1,1.9,0.4c0,0,0,0,0,0c-0.4-0.7-0.2-1.4,0.5-1.6c0.7-0.2,1.7,0.2,2.2,0.9c0-0.5,0.4-0.9,1-1
			c0.8-0.1,1.7,0.4,2.1,1.1c0.1-0.6,0.6-1.1,1.4-1c0.7,0.1,1.4,0.5,1.7,1c0.2-0.6,0.8-0.9,1.6-0.7c0.6,0.1,1.1,0.5,1.5,1
			c0.3-0.2,0.9-0.3,1.4-0.2c0.9,0.2,1.6,0.8,1.9,1.6c0-0.1,0.1-0.1,0.1-0.2c0.4-0.8,1.5-0.9,2.5-0.3c0.4,0.2,0.8,0.6,1,0.9
			c0.5-0.2,1.3-0.2,2,0.2c1,0.6,1.5,1.7,1.2,2.4c-0.3,0.6-1.4,1.8-2.4,2.1l0,0.1c1,1,2,2.8,2.3,3.6c0.3,1-0.3,1.8-1.4,1.8
			c-0.7,0-1.5-0.4-2-0.9c-0.2,0.1-0.5,0.2-0.9,0.2c-1.1,0-2.3-0.8-2.6-1.8c0-0.1,0-0.1-0.1-0.2c-0.3,0.4-0.8,0.5-1.5,0.4
			c-0.8-0.2-1.4-0.7-1.7-1.4c-0.3,0.5-1.1,0.7-1.9,0.4c-0.4-0.2-0.8-0.4-1-0.7c-0.4,0.2-0.9,0.3-1.5,0.1c-0.5-0.2-1-0.5-1.3-1
			c-0.3,0.1-0.8,0.2-1.2,0c-0.3-0.1-0.6-0.3-0.8-0.5c-0.3,0.2-0.8,0.3-1.3,0.2c-0.3-0.1-0.7-0.3-0.9-0.5c-0.2,0.2-0.6,0.3-1,0.2
			c-0.6-0.1-1.2-0.7-1.4-1.2c0,0.1,0,0.2,0,0.3c-0.1,0.5-0.7,0.7-1.4,0.4c-0.4-0.2-0.6-0.4-0.8-0.7C45.7,38,45.4,38,45,37.9
			c-0.2-0.1-0.4-0.2-0.5-0.4c-0.1,0.2-0.4,0.2-0.7,0.1c-0.3-0.2-0.6-0.5-0.5-0.8c0-0.1,0-0.1,0.1-0.2l-0.1,0
			c-0.3,0.2-0.6,0.3-0.7,0.3c-0.4,0.1-0.8-0.2-1-0.5c-0.2-0.3,0-0.7,0.3-0.7c0.1,0,0.3,0,0.5,0c-0.4-0.2-0.6-0.5-0.5-0.8
			c0.1-0.3,0.4-0.4,0.8-0.3c0.1,0,0.2,0.1,0.3,0.1c0,0,0.1-0.1,0.1-0.1c-0.2-0.3-0.2-0.6,0-0.8c0.2-0.2,0.5-0.3,0.8-0.1
			C43.8,33.2,43.8,32.9,44.1,32.6z"/>
		<g>
			<path fill="#078E45" d="M68.6,39.1c0,0-1.7-0.4-4.2-0.9c-0.6-0.1-1.3-0.3-2-0.4c-0.7-0.1-1.5-0.3-2.3-0.4
				c-0.8-0.2-1.6-0.3-2.4-0.4c-0.8-0.1-1.7-0.3-2.5-0.4c-0.8-0.1-1.7-0.2-2.5-0.3c-0.8,0-1.6-0.2-2.4-0.2c-0.8,0-1.6-0.1-2.3-0.1
				c-0.7,0-1.4,0-2,0c-0.6,0-1.2,0.1-1.7,0.1c-0.5,0-1,0.1-1.3,0.1c-0.8,0.1-1.2,0.1-1.2,0.1s0.4-0.2,1.1-0.5
				c0.4-0.1,0.8-0.3,1.3-0.5c0.5-0.1,1.1-0.3,1.7-0.4c0.6-0.2,1.4-0.2,2.1-0.3c0.8-0.1,1.5-0.1,2.4-0.2c0.8,0,1.7,0,2.5,0
				c0.9,0.1,1.7,0.2,2.6,0.3c1.7,0.3,3.5,0.6,5,1.1c0.8,0.2,1.5,0.5,2.2,0.7c0.7,0.2,1.4,0.5,2,0.7C67.1,38.2,68.6,39.1,68.6,39.1z"
				/>
		</g>
	</g>
	<g>
		<path fill="#349946" d="M53.4,61.2c-0.4-0.5,0-1.3,0.8-1.7c0.1-0.1,0.3-0.1,0.5-0.2c-0.3-0.1-0.5-0.3-0.6-0.6
			c-0.2-0.6,0.4-1.4,1.3-1.6c0,0,0,0,0,0c-1,0.1-1.8-0.4-1.8-1.1c0-0.8,0.9-1.5,2-1.7c-0.7-0.2-1-0.7-0.9-1.3
			c0.2-0.8,1.2-1.4,2.3-1.5c-0.8-0.3-1.1-1-0.7-1.8c0.4-0.6,1.2-1.1,2.1-1.3c-0.6-0.4-0.7-1.2-0.2-1.9c0.4-0.5,1.1-0.9,1.8-1
			c-0.2-0.4-0.1-1,0.3-1.5c0.6-0.8,1.7-1.2,2.8-1.2c-0.1-0.1-0.1-0.1-0.2-0.1c-0.8-0.7-0.5-1.8,0.6-2.6c0.5-0.3,1-0.5,1.6-0.6
			c-0.1-0.6,0.3-1.3,1.1-1.8c1.2-0.7,2.8-0.8,3.6-0.1c0.6,0.5,1.7,2.1,1.7,3.2l0.1,0c1.7-0.5,4.4-0.8,5.5-0.7c1.4,0.1,2.2,1,1.7,2.1
			c-0.3,0.7-1.1,1.3-2,1.5c0.1,0.3,0.1,0.6-0.1,0.9c-0.5,1.1-2,1.8-3.4,1.7c-0.1,0-0.2,0-0.3,0c0.4,0.4,0.3,1-0.1,1.6
			c-0.5,0.7-1.5,1.1-2.4,1.1c0.5,0.5,0.4,1.3-0.3,1.9c-0.4,0.3-0.9,0.6-1.3,0.7c0.2,0.4,0,1-0.5,1.5c-0.5,0.4-1.1,0.7-1.7,0.8
			c0.1,0.4-0.1,0.8-0.5,1.2c-0.3,0.2-0.6,0.4-0.9,0.6c0.2,0.4,0.1,0.9-0.3,1.3c-0.3,0.3-0.6,0.5-1,0.7c0.1,0.3,0.1,0.7-0.2,1
			c-0.4,0.6-1.3,0.9-2.1,0.8c0.2,0.1,0.3,0.1,0.4,0.2c0.6,0.3,0.5,1-0.1,1.5c-0.4,0.3-0.8,0.4-1.3,0.5c0.2,0.2,0.1,0.6-0.2,0.8
			c-0.2,0.2-0.5,0.3-0.7,0.3c0.2,0.2,0.1,0.5-0.2,0.7c-0.3,0.3-0.9,0.3-1.2,0.2c-0.1,0-0.1-0.1-0.2-0.2l0,0c0.1,0.3,0.1,0.7,0.1,0.8
			c-0.1,0.4-0.5,0.7-1.1,0.7c-0.5,0-0.9-0.2-0.8-0.6c0-0.1,0.1-0.3,0.2-0.5c-0.4,0.3-0.9,0.4-1.3,0.2c-0.4-0.2-0.4-0.6,0-0.9
			c0.1-0.1,0.2-0.1,0.3-0.2c0,0-0.1-0.1-0.1-0.2c-0.4,0.1-0.8,0-1-0.3c-0.2-0.3-0.1-0.6,0.2-0.9C54.1,61.7,53.7,61.5,53.4,61.2z"/>
		<g>
			<path fill="#078E45" d="M71.8,40.2c0,0-1.2,1.4-3,3.6c-0.9,1.1-1.9,2.3-2.9,3.7c-0.5,0.7-1,1.4-1.6,2.1c-0.5,0.7-1,1.5-1.5,2.2
				c-0.5,0.8-1,1.5-1.4,2.3c-0.4,0.8-0.9,1.5-1.3,2.3c-0.3,0.8-0.8,1.5-1.1,2.2c-0.3,0.7-0.6,1.4-0.8,2c-0.2,0.6-0.4,1.2-0.6,1.8
				c-0.2,0.5-0.2,1-0.3,1.4c-0.2,0.8-0.3,1.2-0.3,1.2s0-0.5-0.1-1.3c0-0.4-0.1-0.9,0-1.5c0.1-0.6,0.1-1.2,0.2-1.9
				c0.1-0.7,0.3-1.4,0.5-2.2c0.2-0.8,0.5-1.6,0.9-2.4c0.3-0.8,0.8-1.6,1.2-2.5c0.5-0.8,0.9-1.6,1.5-2.4c0.6-0.8,1.1-1.6,1.6-2.3
				c0.6-0.7,1.2-1.4,1.7-2.1c0.6-0.7,1.2-1.3,1.7-1.8c0.6-0.6,1.1-1.1,1.7-1.5C70.2,41.2,71.8,40.2,71.8,40.2z"/>
		</g>
	</g>
</g>
<g>
	<g>
		<path fill="#349946" d="M438.2,57.8c-0.2-1.4-1.6-2.3-3.3-2.1c-0.2,0-0.5,0.1-0.9,0.2c0.3-0.5,0.3-1.1,0.1-1.7
			c-0.5-1.3-2.2-1.9-3.8-1.5c0,0,0,0,0,0c1.4-0.9,1.8-2.5,1-3.8c-1-1.3-3.1-1.8-4.8-0.9c0.6-1,0.4-2.3-0.6-3.2
			c-1.3-1.2-3.4-1.3-4.9-0.3c0.6-1.4,0.1-2.9-1.4-3.8c-1.3-0.7-3-0.7-4.3-0.1c0.3-1.4-0.5-2.8-2.1-3.4c-1.2-0.5-2.5-0.4-3.6,0.1
			c-0.3-0.9-1.1-1.7-2.3-2.2c-1.7-0.7-3.8-0.3-5.1,0.8c0-0.2,0.1-0.3,0.1-0.5c0.2-2-1.6-3.7-4.1-3.9c-1,0-2,0.2-2.8,0.6
			c-0.6-1.2-2-2-3.7-2.1c-2.5-0.1-4.6,1.4-4.8,3.5c-0.2,1.5,0.5,5.4,1.9,7.4l-0.1,0.2c-2.8,0.8-6.8,3.2-8,4.3
			c-1.7,1.6-1.5,4.1,0.4,5.4c1.3,0.9,3,1.1,4.5,0.7c0.3,0.6,0.7,1.1,1.3,1.5c1.9,1.4,4.9,1.1,6.6-0.5c0.1-0.1,0.2-0.2,0.4-0.4
			c0.1,1.1,0.8,2.1,2.1,2.6c1.5,0.6,3.3,0.3,4.5-0.6c0,1.4,1.1,2.7,2.8,3.1c0.9,0.2,1.8,0.1,2.6-0.2c0.4,0.9,1.2,1.7,2.5,2
			c1.1,0.3,2.3,0.1,3.3-0.4c0.4,0.7,1.2,1.3,2.1,1.5c0.6,0.2,1.3,0.2,1.9,0c0.2,0.8,1,1.6,2,1.9c0.7,0.2,1.5,0.3,2.2,0.1
			c0.2,0.7,0.7,1.3,1.5,1.6c1.3,0.5,2.9,0.2,3.7-0.7c-0.1,0.3-0.2,0.5-0.3,0.7c-0.3,1.2,0.6,2.3,1.9,2.5c0.8,0.1,1.6-0.1,2.2-0.5
			c0.1,0.6,0.6,1.1,1.4,1.2c0.5,0.1,1,0,1.3-0.2c0,0.5,0.5,1,1.1,1.1c0.8,0.1,1.6-0.3,1.7-0.9c0-0.1,0.1-0.3,0.1-0.5l0.1,0
			c0.3,0.6,0.7,1.3,1,1.5c0.6,0.6,1.6,0.6,2.3,0.2c0.7-0.5,0.8-1.3,0.3-1.9c-0.2-0.2-0.5-0.4-0.9-0.6c0.8,0.1,1.6-0.3,1.9-1
			c0.2-0.7-0.3-1.4-1.1-1.6c-0.2,0-0.4-0.1-0.6-0.1c0-0.1,0-0.3-0.1-0.4c0.6-0.3,1-0.9,0.9-1.6c-0.1-0.6-0.6-1.2-1.3-1.3
			C437.9,59.3,438.3,58.6,438.2,57.8z"/>
		<g>
			<path fill="#078E45" d="M387.8,40.2c0,0,0.2,0,0.7,0.1c0.4,0,1.1,0.1,1.9,0.2c1.6,0.2,3.9,0.6,6.6,1.2c1.4,0.3,2.8,0.7,4.3,1.1
				c1.5,0.4,3.1,0.9,4.8,1.5c0.8,0.3,1.7,0.6,2.5,0.9c0.8,0.3,1.7,0.7,2.5,1c1.7,0.8,3.4,1.5,5,2.4c0.8,0.5,1.6,0.9,2.4,1.3
				c0.8,0.4,1.6,0.9,2.4,1.4c1.6,1,3.1,1.9,4.5,3c1.4,1.1,2.8,2,3.9,3.2c0.6,0.5,1.2,1.1,1.7,1.6c0.3,0.3,0.5,0.5,0.8,0.8
				c0.2,0.3,0.5,0.5,0.7,0.8c0.9,1,1.8,2,2.5,2.9c0.7,0.9,1.2,1.7,1.7,2.4c0.9,1.3,1.4,2.1,1.4,2.1s-0.7-0.6-1.9-1.7
				c-0.6-0.6-1.3-1.3-2.1-2c-0.9-0.7-1.8-1.5-2.9-2.4c-0.3-0.2-0.5-0.4-0.8-0.7c-0.3-0.2-0.6-0.4-0.9-0.6c-0.6-0.4-1.2-0.9-1.8-1.4
				c-1.2-1-2.6-1.8-4-2.8c-1.4-1-3-1.8-4.5-2.7c-0.8-0.5-1.5-0.9-2.3-1.3c-0.8-0.4-1.6-0.8-2.4-1.3c-1.6-0.8-3.2-1.6-4.9-2.4
				c-1.6-0.7-3.2-1.5-4.8-2.1c-1.6-0.6-3.1-1.3-4.6-1.9c-1.5-0.6-2.8-1.1-4.1-1.6c-2.6-0.9-4.7-1.7-6.3-2.2
				c-0.8-0.3-1.4-0.5-1.8-0.6C388,40.3,387.8,40.2,387.8,40.2z"/>
		</g>
	</g>
	<g>
		<path fill="#349946" d="M416.9,65.8c0.2-1-0.7-1.9-1.9-2.1c-0.2,0-0.4,0-0.7,0c0.3-0.3,0.4-0.8,0.4-1.2c-0.1-1-1.2-1.7-2.4-1.7
			c0,0,0,0,0,0c1.2-0.4,1.9-1.5,1.5-2.5c-0.4-1.1-1.8-1.8-3.2-1.4c0.6-0.7,0.8-1.6,0.3-2.4c-0.7-1-2.2-1.5-3.5-1
			c0.7-0.9,0.7-2.1-0.2-2.9c-0.8-0.7-2-1-3-0.7c0.5-0.9,0.2-2.1-0.8-2.8c-0.8-0.5-1.7-0.7-2.6-0.5c0-0.7-0.4-1.4-1.2-1.9
			c-1.1-0.8-2.6-0.8-3.8-0.3c0.1-0.1,0.1-0.2,0.2-0.3c0.6-1.4-0.4-2.9-2.1-3.4c-0.7-0.2-1.5-0.2-2.1,0c-0.2-0.9-1-1.7-2.2-2.1
			c-1.7-0.5-3.6,0.3-4.2,1.7c-0.4,1-0.8,3.9-0.2,5.6l-0.1,0.1c-2.2,0.1-5.5,1.2-6.7,1.8c-1.6,0.9-2,2.7-0.9,3.9
			c0.7,0.8,1.9,1.3,3.1,1.2c0.1,0.5,0.3,0.9,0.6,1.3c1.1,1.3,3.3,1.6,4.8,0.7c0.1-0.1,0.2-0.1,0.3-0.2c-0.2,0.8,0.2,1.7,1,2.2
			c1,0.7,2.3,0.8,3.4,0.3c-0.3,1,0.2,2.1,1.4,2.7c0.6,0.3,1.3,0.4,1.9,0.3c0.1,0.7,0.5,1.4,1.4,1.8c0.8,0.4,1.6,0.5,2.4,0.3
			c0.1,0.6,0.6,1.1,1.2,1.4c0.4,0.2,0.9,0.3,1.4,0.3c0,0.6,0.4,1.3,1,1.7c0.5,0.3,1,0.4,1.5,0.4c0,0.5,0.3,1,0.8,1.4
			c0.8,0.6,2,0.6,2.8,0.1c-0.1,0.2-0.3,0.3-0.3,0.4c-0.5,0.8-0.1,1.7,0.9,2.1c0.6,0.2,1.2,0.2,1.7,0c-0.1,0.4,0.2,0.9,0.7,1.1
			c0.3,0.1,0.7,0.1,1,0.1c-0.1,0.4,0.1,0.8,0.6,1c0.5,0.2,1.2,0,1.4-0.4c0.1-0.1,0.1-0.2,0.2-0.4l0.1,0c0.1,0.5,0.2,1,0.4,1.3
			c0.3,0.5,1,0.7,1.6,0.5c0.6-0.2,0.9-0.8,0.6-1.3c-0.1-0.1-0.3-0.4-0.5-0.6c0.6,0.2,1.2,0,1.6-0.4c0.3-0.5,0.1-1.1-0.5-1.3
			c-0.1,0-0.3-0.1-0.4-0.1c0-0.1,0-0.2,0-0.3c0.5-0.1,0.9-0.5,1-1c0.1-0.5-0.2-0.9-0.7-1.2C416.4,66.9,416.8,66.4,416.9,65.8z"/>
		<g>
			<path fill="#078E45" d="M384.4,45.2c0,0,0.7,0.1,1.8,0.5c1.1,0.4,2.7,0.9,4.5,1.8c0.9,0.4,1.9,0.9,2.9,1.4c1,0.5,2.1,1.1,3.1,1.8
				c1.1,0.7,2.1,1.4,3.2,2.2c1.1,0.8,2.1,1.6,3.2,2.5c1,0.9,2,1.8,2.9,2.8c0.9,1,1.8,1.9,2.6,2.9c0.8,1,1.6,2,2.2,3
				c0.6,1,1.3,1.9,1.7,2.8c0.5,0.9,0.8,1.8,1.2,2.5c0.3,0.8,0.5,1.5,0.7,2c0.3,1.1,0.5,1.8,0.5,1.8s-0.4-0.6-1-1.5
				c-0.3-0.5-0.7-1.1-1.1-1.7c-0.5-0.6-1-1.4-1.6-2.1c-0.3-0.4-0.6-0.8-0.9-1.2c-0.3-0.4-0.7-0.8-1-1.2c-0.7-0.9-1.5-1.7-2.3-2.6
				c-0.8-0.9-1.8-1.7-2.6-2.6c-0.9-0.9-1.9-1.7-2.8-2.6c-1-0.8-2-1.7-3-2.5c-1-0.8-2-1.6-3-2.3c-1-0.7-1.9-1.4-2.8-2.1
				c-0.9-0.7-1.8-1.3-2.6-1.8c-1.6-1.1-3-2.1-4-2.7C384.9,45.5,384.4,45.2,384.4,45.2z"/>
		</g>
	</g>
	<g>
		<path fill="#349946" d="M421.6,19.6c-1-0.6-2.5-0.3-3.1,0.7c-0.1,0.1-0.2,0.3-0.3,0.5c-0.2-0.4-0.7-0.7-1.2-0.9
			c-1.2-0.4-2.5,0.2-2.9,1.3c0,0,0,0,0,0c0.1-1.2-0.9-2.2-2.2-2.4c-1.4-0.1-2.8,0.8-3,2.1c-0.5-0.8-1.4-1.4-2.5-1.3
			c-1.4,0.1-2.6,1.2-2.7,2.5c-0.7-1-2-1.5-3.4-1.1c-1.2,0.3-2,1.2-2.2,2.3c-0.8-0.9-2.2-1.1-3.5-0.6c-0.9,0.4-1.5,1.2-1.7,2
			c-0.8-0.3-1.8-0.3-2.7,0.1c-1.4,0.6-2.1,1.9-2,3.1c-0.1-0.1-0.2-0.2-0.3-0.3c-1.3-1.1-3.5-1-4.8,0.3c-0.5,0.5-0.8,1.2-0.9,1.8
			c-1.1-0.2-2.4,0.1-3.3,1c-1.3,1.3-1.3,3.2,0.1,4.3c1,0.8,4.1,2.4,6.2,2.7l0.1,0.2c-0.9,1.9-1.1,5.2-0.9,6.5c0.3,1.7,2.1,2.8,4,2.5
			c1.3-0.2,2.3-1.1,2.7-2.1c0.5,0.1,1.1,0.2,1.7,0.1c1.9-0.4,3.2-2.1,2.9-3.8c0-0.1-0.1-0.2-0.1-0.4c0.8,0.5,1.9,0.6,2.9,0.2
			c1.2-0.5,1.9-1.7,1.8-2.8c1,0.7,2.5,0.7,3.6,0c0.6-0.4,1-0.9,1.2-1.5c0.8,0.3,1.8,0.2,2.7-0.3c0.8-0.5,1.3-1.2,1.4-2
			c0.7,0.1,1.5,0,2.2-0.4c0.4-0.3,0.8-0.6,1-1c0.7,0.3,1.6,0.3,2.4-0.1c0.5-0.3,0.9-0.7,1.1-1.1c0.6,0.2,1.2,0.2,1.9,0
			c1-0.4,1.6-1.4,1.3-2.4c0.1,0.2,0.2,0.4,0.3,0.5c0.7,0.7,1.9,0.8,2.7,0.2c0.5-0.4,0.8-0.9,0.8-1.5c0.5,0.3,1.1,0.2,1.6-0.1
			c0.3-0.2,0.5-0.5,0.5-0.8c0.4,0.3,0.9,0.3,1.4-0.1c0.5-0.4,0.6-1,0.2-1.4c-0.1-0.1-0.2-0.2-0.3-0.3l0.1,0c0.6,0.2,1.2,0.3,1.6,0.2
			c0.7,0,1.2-0.5,1.2-1.2c0-0.6-0.5-1.1-1.2-1.1c-0.2,0-0.5,0.1-0.9,0.1c0.5-0.4,0.6-1,0.2-1.5c-0.4-0.5-1.2-0.6-1.7-0.2
			c-0.1,0.1-0.2,0.2-0.4,0.3c-0.1-0.1-0.2-0.1-0.3-0.2c0.1-0.5-0.1-1-0.6-1.3c-0.5-0.3-1.1-0.2-1.6,0.1
			C422.5,20.5,422.2,19.9,421.6,19.6z"/>
		<g>
			<path fill="#078E45" d="M387.2,37.1c0,0,0.5-0.5,1.4-1.3c0.5-0.4,1.1-0.9,1.7-1.4c0.7-0.5,1.5-1.1,2.4-1.7
				c0.4-0.3,0.9-0.6,1.4-0.9c0.5-0.3,1-0.6,1.5-0.9c1-0.6,2.2-1.2,3.4-1.8c1.2-0.6,2.4-1.2,3.7-1.7c1.3-0.5,2.6-1,4-1.4
				c1.4-0.4,2.7-0.8,4.1-1.1c0.7-0.2,1.4-0.3,2-0.4c0.7-0.1,1.3-0.2,2-0.3c0.7-0.1,1.3-0.2,1.9-0.3c0.6,0,1.3-0.1,1.9-0.1
				c1.2-0.1,2.4-0.1,3.4-0.1c1.1,0,2,0.1,2.9,0.1c0.9,0.1,1.6,0.2,2.2,0.3c1.2,0.2,1.9,0.4,1.9,0.4s-0.7,0.1-1.9,0.2
				c-0.6,0.1-1.3,0.1-2.2,0.2c-0.8,0.1-1.8,0.3-2.8,0.4c-1,0.1-2.1,0.4-3.3,0.6c-0.6,0.1-1.2,0.2-1.8,0.3c-0.6,0.2-1.2,0.3-1.8,0.4
				c-0.6,0.1-1.3,0.3-1.9,0.4c-0.6,0.2-1.3,0.4-1.9,0.5c-1.3,0.3-2.6,0.7-3.9,1.2c-1.3,0.4-2.6,0.9-3.9,1.3
				c-1.3,0.5-2.5,0.9-3.7,1.4c-1.2,0.5-2.4,0.9-3.4,1.4c-1.1,0.5-2.1,0.9-3.1,1.3c-1.9,0.8-3.5,1.6-4.6,2.1
				C387.8,36.8,387.2,37.1,387.2,37.1z"/>
		</g>
	</g>
	<g>
		<path fill="#349946" d="M333.7,61.1c-0.2-1.1,1.1-2.1,2.8-2.2c0.2,0,0.6,0,0.9,0c-0.4-0.4-0.6-0.9-0.5-1.4
			c0.2-1.1,1.8-1.9,3.5-1.7c0,0,0,0,0,0c-1.6-0.5-2.5-1.8-1.9-2.9c0.6-1.2,2.7-1.8,4.6-1.4c-0.8-0.8-1-1.8-0.2-2.7
			c1-1.1,3.1-1.5,4.9-0.9c-1-1-0.8-2.3,0.5-3.2c1.1-0.8,2.8-1,4.3-0.6c-0.6-1.1-0.2-2.3,1.3-3c1.1-0.5,2.5-0.7,3.7-0.4
			c0.1-0.8,0.7-1.6,1.8-2.1c1.6-0.8,3.8-0.8,5.4-0.1c-0.1-0.1-0.1-0.3-0.2-0.4c-0.7-1.6,0.7-3.2,3.2-3.7c1-0.2,2-0.1,3,0.1
			c0.4-1,1.6-1.9,3.2-2.2c2.5-0.4,5,0.5,5.7,2.1c0.5,1.2,0.8,4.4-0.1,6.2l0.2,0.1c3.1,0.2,7.7,1.7,9.2,2.4c2.1,1.1,2.6,3.1,0.9,4.4
			c-1.1,0.9-2.8,1.3-4.4,1.2c-0.1,0.5-0.4,1-0.9,1.4c-1.6,1.4-4.7,1.6-6.8,0.5c-0.1-0.1-0.3-0.2-0.5-0.3c0.2,0.9-0.3,1.8-1.5,2.4
			c-1.4,0.7-3.3,0.7-4.8,0.1c0.4,1.1-0.4,2.3-2.1,2.9c-0.9,0.3-1.8,0.3-2.7,0.2c-0.1,0.8-0.8,1.5-2,2c-1.1,0.4-2.3,0.4-3.4,0.2
			c-0.2,0.6-0.9,1.2-1.8,1.5c-0.6,0.2-1.3,0.3-2,0.3c0,0.7-0.6,1.4-1.6,1.8c-0.7,0.3-1.4,0.4-2.2,0.4c0,0.6-0.4,1.1-1.2,1.5
			c-1.2,0.6-2.9,0.5-4-0.1c0.2,0.2,0.3,0.4,0.4,0.5c0.6,0.9,0,1.9-1.4,2.3c-0.8,0.2-1.7,0.2-2.4-0.1c0.1,0.5-0.3,1-1.1,1.2
			c-0.5,0.1-1,0.1-1.4,0c0.1,0.4-0.2,0.9-0.9,1.1c-0.8,0.2-1.7,0-2-0.5c-0.1-0.1-0.1-0.2-0.2-0.4l-0.1,0c-0.1,0.6-0.4,1.1-0.6,1.4
			c-0.4,0.5-1.4,0.7-2.3,0.4c-0.8-0.3-1.1-0.9-0.7-1.5c0.1-0.2,0.4-0.4,0.7-0.6c-0.8,0.2-1.7,0-2.1-0.5c-0.4-0.5-0.1-1.2,0.8-1.4
			c0.1,0,0.4-0.1,0.6-0.1c0-0.1,0-0.2,0-0.3c-0.7-0.2-1.3-0.6-1.3-1.1c-0.1-0.5,0.4-1,1-1.3C334.4,62.3,333.8,61.8,333.7,61.1z"/>
		<g>
			<path fill="#078E45" d="M380.6,40.1c0,0-3.1,1.4-7.7,3.6c-1.1,0.6-2.4,1.2-3.7,1.8c-1.3,0.6-2.6,1.4-4.1,2.1
				c-1.4,0.7-2.8,1.5-4.3,2.3c-1.4,0.8-2.9,1.6-4.3,2.5c-1.4,0.8-2.8,1.7-4.2,2.6c-1.3,0.9-2.7,1.8-3.9,2.8
				c-1.2,0.9-2.4,1.9-3.5,2.8c-1.1,0.9-2.1,1.8-3,2.7c-0.9,0.9-1.7,1.7-2.4,2.4c-0.7,0.7-1.3,1.4-1.8,2c-0.9,1.2-1.5,1.8-1.5,1.8
				s0.1-0.2,0.3-0.6c0.2-0.4,0.4-0.9,0.7-1.6c0.4-0.6,0.8-1.5,1.4-2.3c0.3-0.4,0.6-0.9,0.9-1.4c0.4-0.5,0.7-1,1.1-1.5
				c0.8-1,1.7-2.1,2.8-3.1c1-1.1,2.2-2.2,3.4-3.2c1.2-1,2.5-2.1,3.9-3.1c1.4-1,2.8-1.9,4.3-2.8c1.5-0.9,3-1.7,4.5-2.5
				c1.5-0.8,3-1.5,4.5-2.1c2.9-1.3,5.8-2.3,8.2-3.1c2.4-0.8,4.5-1.3,6-1.6C379.7,40.2,380.6,40.1,380.6,40.1z"/>
		</g>
	</g>
	<g>
		<path fill="#349946" d="M356.9,13.2c0.8-0.4,1.9,0.1,2.5,1.1c0.1,0.1,0.2,0.3,0.2,0.6c0.2-0.3,0.5-0.6,1-0.6
			c0.9-0.2,1.9,0.6,2.3,1.7c0,0,0,0,0,0c0-1.1,0.8-2,1.8-1.9c1.1,0.1,2.2,1.1,2.3,2.4c0.4-0.7,1.2-1.1,2.1-0.8c1.1,0.3,2,1.5,2,2.7
			c0.5-0.9,1.6-1.1,2.7-0.6c0.9,0.5,1.5,1.4,1.6,2.4c0.7-0.7,1.8-0.7,2.8,0c0.7,0.5,1.2,1.3,1.3,2.1c0.7-0.1,1.4,0,2.1,0.5
			c1,0.8,1.6,2.1,1.5,3.2c0.1-0.1,0.2-0.2,0.2-0.2c1.1-0.8,2.8-0.4,3.7,1c0.4,0.6,0.6,1.2,0.7,1.8c0.9,0,1.9,0.4,2.6,1.4
			c1,1.4,0.9,3.2-0.2,4c-0.8,0.6-3.3,1.6-5,1.6l-0.1,0.1c0.6,1.9,0.7,5,0.5,6.2c-0.3,1.6-1.8,2.3-3.3,1.7c-1-0.4-1.8-1.3-2.1-2.4
			c-0.4,0.1-0.9,0-1.4-0.2c-1.5-0.6-2.5-2.4-2.2-4c0-0.1,0-0.2,0.1-0.3c-0.7,0.3-1.5,0.3-2.3-0.3c-0.9-0.7-1.4-1.8-1.3-2.8
			c-0.8,0.5-2,0.3-2.8-0.5c-0.5-0.4-0.7-1-0.9-1.6c-0.7,0.1-1.5-0.1-2.1-0.7c-0.6-0.6-0.9-1.3-1-2c-0.6,0-1.2-0.2-1.7-0.7
			c-0.3-0.3-0.6-0.7-0.7-1.1c-0.6,0.2-1.3,0-1.9-0.5c-0.4-0.3-0.7-0.7-0.9-1.2c-0.5,0.1-1,0-1.5-0.3c-0.8-0.6-1.2-1.6-1-2.4
			c-0.1,0.2-0.2,0.3-0.3,0.4c-0.5,0.6-1.5,0.5-2.2-0.2c-0.4-0.4-0.6-1-0.5-1.5c-0.4,0.2-0.9,0.1-1.2-0.3c-0.2-0.2-0.3-0.6-0.4-0.9
			c-0.3,0.2-0.8,0.1-1.1-0.2c-0.4-0.4-0.4-1-0.1-1.3c0.1-0.1,0.2-0.1,0.3-0.2l-0.1-0.1c-0.5,0.1-1,0.1-1.2,0
			c-0.5-0.1-0.9-0.7-0.9-1.3c0-0.6,0.5-0.9,1-0.8c0.2,0,0.4,0.1,0.7,0.3c-0.4-0.4-0.4-1.1-0.1-1.4c0.3-0.4,0.9-0.4,1.3,0.1
			c0.1,0.1,0.2,0.2,0.3,0.3c0.1,0,0.2-0.1,0.2-0.1c0-0.5,0.1-0.9,0.5-1.1c0.4-0.2,0.9-0.1,1.3,0.3C356.1,14,356.4,13.5,356.9,13.2z"
			/>
		<g>
			<path fill="#078E45" d="M385.9,36c0,0-2.1-1.5-5.2-3.7c-0.8-0.5-1.6-1.1-2.5-1.7c-0.9-0.6-1.8-1.2-2.8-1.9c-1-0.7-2-1.3-3-2
				c-1-0.6-2.1-1.3-3.2-1.9c-1.1-0.6-2.1-1.3-3.2-1.8c-1.1-0.5-2.1-1.2-3.2-1.6c-1.1-0.5-2.1-1-3.1-1.4c-0.5-0.2-1-0.4-1.4-0.6
				c-0.5-0.2-0.9-0.4-1.4-0.5c-0.9-0.3-1.7-0.6-2.4-0.9c-0.7-0.2-1.4-0.4-1.9-0.6c-1.1-0.3-1.7-0.5-1.7-0.5s0.6,0,1.8,0
				c0.6,0,1.3,0,2,0c0.8,0.1,1.7,0.2,2.6,0.3c1,0.1,2,0.4,3.1,0.7c1.1,0.2,2.2,0.7,3.3,1.1c1.2,0.4,2.3,0.9,3.5,1.5
				c1.2,0.5,2.3,1.2,3.4,1.8c1.1,0.7,2.2,1.4,3.3,2.1c1,0.7,2.1,1.5,3,2.2c1,0.7,1.8,1.5,2.6,2.3c0.8,0.7,1.6,1.5,2.2,2.2
				c1.3,1.4,2.4,2.6,3.1,3.5C385.6,35.4,385.9,36,385.9,36z"/>
		</g>
	</g>
	<g>
		<path fill="#349946" d="M341.8,29.1c0.6-0.7,1.8-0.6,2.8,0.1c0.1,0.1,0.3,0.2,0.5,0.4c0-0.4,0.2-0.7,0.6-0.9
			c0.8-0.5,2.1-0.2,2.9,0.7c0,0,0,0,0,0c-0.6-1-0.3-2.1,0.7-2.4c1.1-0.4,2.5,0.2,3.3,1.3c0-0.8,0.6-1.4,1.5-1.5
			c1.2-0.1,2.5,0.6,3.1,1.7c0.1-1,0.9-1.6,2.2-1.5c1.1,0.1,2.1,0.8,2.7,1.6c0.3-0.9,1.3-1.3,2.5-1c0.9,0.2,1.7,0.8,2.2,1.5
			c0.5-0.4,1.3-0.5,2.2-0.3c1.3,0.3,2.5,1.3,2.9,2.4c0-0.1,0.1-0.2,0.1-0.3c0.6-1.2,2.3-1.4,3.9-0.5c0.6,0.4,1.2,0.9,1.5,1.4
			c0.8-0.4,1.9-0.3,3,0.3c1.6,0.9,2.4,2.5,1.8,3.7c-0.4,0.9-2.2,2.7-3.7,3.3l0,0.1c1.5,1.5,3.1,4.3,3.4,5.4c0.5,1.5-0.5,2.8-2.1,2.8
			c-1.1,0-2.2-0.6-3-1.4c-0.4,0.2-0.8,0.3-1.3,0.3c-1.7,0-3.4-1.3-3.9-2.8c0-0.1-0.1-0.2-0.1-0.3c-0.4,0.6-1.3,0.8-2.2,0.6
			c-1.2-0.3-2.2-1.1-2.6-2.1c-0.5,0.8-1.6,1-2.8,0.6c-0.6-0.2-1.2-0.6-1.6-1.1c-0.6,0.4-1.4,0.4-2.2,0.1c-0.8-0.3-1.5-0.8-1.9-1.5
			c-0.5,0.2-1.2,0.2-1.9,0c-0.5-0.2-0.9-0.4-1.2-0.7c-0.4,0.4-1.1,0.5-1.9,0.3c-0.5-0.1-1-0.4-1.4-0.8c-0.4,0.3-0.9,0.4-1.5,0.3
			c-1-0.2-1.8-1-2.1-1.8c0,0.2,0,0.4-0.1,0.5c-0.2,0.7-1.1,1-2.1,0.6c-0.6-0.2-1-0.7-1.2-1.1c-0.3,0.3-0.8,0.4-1.3,0.1
			c-0.3-0.1-0.6-0.4-0.7-0.6c-0.2,0.3-0.6,0.4-1.1,0.2c-0.5-0.2-0.9-0.8-0.7-1.2c0-0.1,0.1-0.2,0.1-0.3l-0.1,0
			c-0.4,0.2-0.9,0.4-1.1,0.5c-0.5,0.1-1.2-0.3-1.5-0.8c-0.3-0.5,0-1,0.5-1.1c0.2,0,0.4,0,0.8,0c-0.6-0.3-0.9-0.8-0.8-1.3
			c0.1-0.5,0.7-0.7,1.3-0.4c0.1,0,0.2,0.1,0.4,0.2c0-0.1,0.1-0.1,0.2-0.2c-0.3-0.4-0.3-0.9,0-1.2c0.3-0.3,0.8-0.4,1.3-0.2
			C341.4,30.1,341.4,29.5,341.8,29.1z"/>
		<g>
			<path fill="#078E45" d="M379.1,39.1c0,0-2.6-0.6-6.4-1.4c-1-0.2-2-0.4-3.1-0.6c-1.1-0.2-2.2-0.4-3.4-0.7
				c-1.2-0.3-2.4-0.4-3.7-0.7c-1.2-0.2-2.5-0.4-3.8-0.6c-1.3-0.1-2.5-0.3-3.8-0.5c-1.3-0.1-2.5-0.3-3.7-0.3c-0.6,0-1.2,0-1.8-0.1
				c-0.6-0.1-1.1-0.1-1.7-0.1c-0.6,0-1.1,0-1.6,0c-0.5,0-1,0-1.5,0c-1,0.1-1.8,0.1-2.6,0.1c-0.8,0-1.5,0.2-2,0.2
				c-1.1,0.1-1.8,0.2-1.8,0.2s0.6-0.3,1.7-0.7c0.5-0.2,1.2-0.5,2-0.7c0.8-0.2,1.7-0.4,2.7-0.7c1-0.2,2.1-0.3,3.2-0.5
				c1.1-0.2,2.4-0.2,3.6-0.2c0.6,0,1.3,0,1.9,0c0.6,0,1.3,0,2,0.1c1.3,0.1,2.6,0.3,4,0.4c1.3,0.2,2.6,0.4,3.9,0.7
				c1.3,0.3,2.5,0.6,3.7,0.9c1.2,0.3,2.3,0.7,3.4,1.1c1.1,0.3,2.1,0.8,3,1.1c1.8,0.8,3.3,1.5,4.3,2
				C378.5,38.7,379.1,39.1,379.1,39.1z"/>
		</g>
	</g>
	<g>
		<path fill="#349946" d="M356,72.6c-0.6-0.8,0-2,1.3-2.6c0.2-0.1,0.4-0.2,0.7-0.3c-0.5-0.2-0.8-0.5-1-0.9c-0.3-0.9,0.6-2.1,2-2.5
			c0,0,0,0,0,0c-1.5,0.1-2.7-0.6-2.7-1.7c0-1.2,1.3-2.3,3-2.6c-1-0.3-1.5-1.1-1.3-2c0.3-1.2,1.8-2.2,3.5-2.3c-1.2-0.5-1.7-1.6-1-2.7
			c0.6-1,1.8-1.7,3.1-1.9c-1-0.6-1.1-1.8-0.3-2.8c0.6-0.8,1.7-1.3,2.8-1.5c-0.3-0.7-0.1-1.5,0.5-2.2c0.9-1.1,2.6-1.8,4.2-1.8
			c-0.1-0.1-0.2-0.2-0.3-0.2c-1.2-1-0.8-2.8,0.9-3.9c0.7-0.5,1.6-0.8,2.4-0.9c-0.2-0.9,0.4-2,1.6-2.8c1.8-1.1,4.2-1.2,5.5-0.2
			c0.9,0.8,2.5,3.2,2.6,4.9l0.2,0.1c2.5-0.8,6.8-1.2,8.3-1.1c2.2,0.2,3.3,1.6,2.6,3.2c-0.5,1.1-1.6,1.9-3,2.4
			c0.1,0.4,0.1,0.9-0.1,1.4c-0.7,1.6-3,2.8-5.2,2.6c-0.1,0-0.3,0-0.5-0.1c0.5,0.6,0.5,1.6-0.2,2.4c-0.8,1-2.3,1.6-3.7,1.6
			c0.8,0.8,0.6,2-0.4,3c-0.6,0.5-1.3,0.9-2.1,1.1c0.2,0.7,0,1.5-0.7,2.2c-0.7,0.7-1.7,1.1-2.6,1.2c0.1,0.6-0.2,1.2-0.8,1.8
			c-0.4,0.4-0.9,0.7-1.4,0.9c0.3,0.6,0.1,1.3-0.5,2c-0.4,0.4-0.9,0.8-1.5,1c0.2,0.5,0.1,1-0.3,1.5c-0.7,0.9-2,1.4-3.2,1.2
			c0.2,0.1,0.4,0.2,0.6,0.3c0.9,0.5,0.8,1.5-0.1,2.2c-0.5,0.4-1.3,0.7-1.9,0.7c0.3,0.4,0.2,0.9-0.3,1.3c-0.3,0.3-0.7,0.4-1.1,0.5
			c0.3,0.3,0.2,0.8-0.2,1.1c-0.5,0.4-1.3,0.5-1.8,0.2c-0.1-0.1-0.2-0.1-0.3-0.3l-0.1,0.1c0.1,0.5,0.2,1,0.1,1.3
			c-0.1,0.6-0.8,1-1.6,1.1s-1.3-0.4-1.2-0.9c0-0.2,0.1-0.4,0.3-0.7c-0.6,0.4-1.4,0.6-1.9,0.3c-0.6-0.3-0.6-0.9,0-1.4
			c0.1-0.1,0.2-0.2,0.4-0.3c-0.1-0.1-0.1-0.2-0.2-0.2c-0.6,0.1-1.3-0.1-1.5-0.5c-0.3-0.4-0.2-0.9,0.3-1.3
			C357.1,73.4,356.4,73.1,356,72.6z"/>
		<g>
			<path fill="#078E45" d="M384,40.7c0,0-1.8,2.2-4.5,5.4c-0.7,0.8-1.4,1.7-2.1,2.6c-0.7,0.9-1.5,1.9-2.3,3c-0.8,1-1.6,2.1-2.4,3.2
				c-0.8,1.1-1.6,2.2-2.3,3.4c-0.8,1.1-1.5,2.3-2.2,3.5c-0.7,1.2-1.4,2.3-1.9,3.5c-0.6,1.1-1.1,2.3-1.6,3.3
				c-0.5,1.1-0.9,2.1-1.2,3.1c-0.3,1-0.6,1.9-0.9,2.7c-0.2,0.8-0.4,1.5-0.6,2.1c-0.3,1.2-0.4,1.9-0.4,1.9s0-0.2-0.1-0.5
				c0-0.3-0.1-0.8-0.1-1.4c0-0.6,0-1.4,0.1-2.3c0-0.4,0.1-0.9,0.1-1.4c0.1-0.5,0.2-1,0.2-1.5c0.2-1.1,0.4-2.2,0.8-3.4
				c0.4-1.2,0.8-2.4,1.3-3.7c0.5-1.2,1.1-2.5,1.8-3.8c0.7-1.2,1.4-2.5,2.2-3.7c0.8-1.2,1.6-2.4,2.5-3.5c0.9-1.1,1.8-2.2,2.7-3.2
				c1.8-2,3.6-3.7,5.2-5.1c1.6-1.4,3-2.5,4.1-3.2C383.3,41,384,40.7,384,40.7z"/>
		</g>
	</g>
</g>
<g>
	<g>
		<path fill="#349946" d="M764.5,77.2c0.2-1.6,2-2.8,3.9-2.6c0.3,0,0.6,0.1,1,0.2c-0.3-0.6-0.3-1.3-0.1-2c0.6-1.5,2.7-2.3,4.6-1.8
			c0,0,0,0,0.1,0c-1.7-1.1-2.2-3-1.1-4.5c1.2-1.6,3.7-2.1,5.7-1.1c-0.7-1.3-0.5-2.8,0.7-3.8c1.5-1.4,4.1-1.5,5.9-0.4
			c-0.8-1.6-0.1-3.5,1.6-4.5c1.5-0.9,3.5-0.9,5.1-0.1c-0.4-1.7,0.6-3.3,2.5-4.1c1.4-0.6,3-0.5,4.4,0.1c0.4-1.1,1.3-2.1,2.7-2.6
			c2.1-0.8,4.5-0.4,6.1,0.9c0-0.2-0.1-0.4-0.1-0.6c-0.3-2.4,1.9-4.5,4.9-4.6c1.2-0.1,2.4,0.2,3.3,0.8c0.8-1.4,2.4-2.4,4.4-2.5
			c2.9-0.1,5.5,1.7,5.8,4.1c0.2,1.8-0.6,6.4-2.2,8.8l0.1,0.2c3.4,0.9,8.1,3.8,9.6,5.2c2.1,2,1.8,4.9-0.5,6.5
			c-1.5,1.1-3.6,1.3-5.4,0.8c-0.3,0.7-0.8,1.3-1.6,1.8c-2.3,1.6-5.9,1.4-7.9-0.6c-0.1-0.1-0.3-0.3-0.4-0.5c-0.1,1.3-1,2.5-2.5,3.2
			c-1.8,0.7-4,0.4-5.4-0.8c0,1.7-1.3,3.2-3.4,3.7c-1.1,0.2-2.2,0.1-3.2-0.2c-0.4,1.1-1.5,2-3,2.4c-1.4,0.3-2.8,0.2-3.9-0.4
			c-0.5,0.9-1.4,1.5-2.6,1.8c-0.8,0.2-1.6,0.2-2.3,0c-0.3,1-1.1,1.9-2.4,2.3c-0.8,0.3-1.7,0.3-2.6,0.1c-0.2,0.8-0.9,1.5-1.8,1.9
			c-1.6,0.6-3.4,0.2-4.5-0.9c0.1,0.3,0.3,0.6,0.3,0.8c0.4,1.4-0.7,2.7-2.3,3c-1,0.2-2-0.1-2.7-0.6c-0.1,0.7-0.7,1.3-1.6,1.5
			c-0.6,0.1-1.1,0-1.6-0.3c0,0.6-0.5,1.2-1.4,1.3c-0.9,0.2-1.9-0.4-2.1-1.1c0-0.1-0.1-0.4-0.1-0.6l-0.1,0c-0.3,0.8-0.8,1.5-1.1,1.8
			c-0.7,0.7-1.9,0.8-2.7,0.2c-0.8-0.6-1-1.6-0.3-2.2c0.2-0.2,0.6-0.5,1-0.8c-1,0.1-2-0.4-2.2-1.2c-0.3-0.9,0.3-1.7,1.4-1.9
			c0.2,0,0.4-0.1,0.7-0.1c0-0.2,0-0.3,0.1-0.5c-0.8-0.4-1.2-1.1-1.1-1.9c0.1-0.8,0.7-1.4,1.6-1.6C764.9,79.1,764.4,78.2,764.5,77.2z
			"/>
		<g>
			<path fill="#078E45" d="M825,56.2c0,0-1,0.3-2.9,1c-1.8,0.6-4.4,1.5-7.5,2.7c-1.5,0.6-3.2,1.2-5,1.9c-1.7,0.7-3.6,1.4-5.5,2.2
				c-1.9,0.8-3.8,1.7-5.8,2.6c-1.9,0.9-3.9,1.8-5.8,2.9c-1.9,1-3.9,2-5.7,3.1c-1.8,1.1-3.7,2.1-5.3,3.3c-1.7,1.1-3.3,2.2-4.8,3.3
				c-0.8,0.5-1.5,1.1-2.2,1.6c-0.7,0.5-1.4,1-2,1.6c-1.3,1-2.4,2-3.4,2.9c-1,0.9-1.8,1.7-2.5,2.4c-1.3,1.4-2.2,2.1-2.2,2.1
				s0.6-0.9,1.6-2.6c0.6-0.8,1.3-1.8,2.1-2.8c0.9-1,1.8-2.2,3-3.4c0.6-0.6,1.2-1.2,1.8-1.9c0.6-0.6,1.3-1.3,2.1-1.9
				c1.4-1.3,3-2.6,4.7-3.8c0.9-0.6,1.7-1.3,2.6-1.8c0.4-0.3,0.9-0.6,1.4-0.9c0.5-0.3,0.9-0.6,1.4-0.9c1.9-1.2,3.8-2.2,5.8-3.3
				c2-1,4-1.9,6-2.8c2-0.9,4-1.6,6-2.3c2-0.7,3.9-1.3,5.7-1.8c1.8-0.5,3.6-1,5.2-1.3c3.2-0.8,6-1.2,7.9-1.4
				C823.9,56.2,825,56.2,825,56.2z"/>
		</g>
	</g>
	<g>
		<path fill="#349946" d="M790.1,86.9c-0.2-1.2,0.8-2.3,2.3-2.5c0.2,0,0.5,0,0.8,0c-0.3-0.4-0.5-0.9-0.5-1.4c0.1-1.2,1.4-2.1,2.9-2
			c0,0,0,0,0,0c-1.4-0.5-2.2-1.8-1.8-3.1c0.5-1.3,2.2-2.1,3.9-1.7c-0.8-0.8-0.9-1.9-0.3-2.9c0.8-1.2,2.6-1.7,4.1-1.2
			c-0.9-1-0.8-2.5,0.2-3.5c0.9-0.9,2.4-1.2,3.6-0.9c-0.6-1.1-0.3-2.5,0.9-3.3c0.9-0.6,2.1-0.8,3.2-0.6c0.1-0.9,0.5-1.7,1.4-2.3
			c1.3-0.9,3.2-1,4.6-0.3c-0.1-0.1-0.1-0.3-0.2-0.4c-0.7-1.7,0.4-3.5,2.5-4.1c0.9-0.2,1.7-0.2,2.5,0c0.3-1.1,1.2-2.1,2.7-2.5
			c2.1-0.6,4.3,0.4,5,2.1c0.5,1.2,0.9,4.7,0.3,6.7l0.1,0.1c2.6,0.1,6.6,1.4,8,2.2c1.9,1.1,2.3,3.2,1,4.7c-0.9,1-2.3,1.5-3.7,1.4
			c-0.1,0.5-0.3,1.1-0.7,1.6c-1.3,1.5-3.9,1.9-5.8,0.8c-0.1-0.1-0.3-0.2-0.4-0.3c0.2,1-0.2,2-1.2,2.7c-1.2,0.8-2.8,0.9-4.1,0.3
			c0.4,1.2-0.3,2.5-1.7,3.2c-0.7,0.3-1.5,0.4-2.3,0.3c-0.1,0.9-0.6,1.7-1.6,2.2c-0.9,0.5-2,0.6-2.9,0.3c-0.2,0.7-0.7,1.3-1.5,1.7
			c-0.5,0.3-1.1,0.4-1.7,0.4c0,0.8-0.4,1.5-1.2,2c-0.5,0.3-1.2,0.5-1.8,0.5c0,0.6-0.3,1.2-0.9,1.6c-1,0.7-2.4,0.7-3.4,0.1
			c0.2,0.2,0.3,0.4,0.4,0.5c0.6,0.9,0.1,2.1-1,2.5c-0.7,0.3-1.4,0.2-2.1,0c0.1,0.5-0.2,1.1-0.9,1.3c-0.4,0.2-0.8,0.2-1.2,0.1
			c0.1,0.5-0.1,1-0.7,1.2c-0.6,0.3-1.4,0-1.7-0.5c-0.1-0.1-0.1-0.3-0.2-0.4l-0.1,0c-0.1,0.6-0.3,1.2-0.4,1.5
			c-0.3,0.6-1.2,0.8-1.9,0.6c-0.7-0.3-1-1-0.7-1.6c0.1-0.2,0.3-0.4,0.6-0.7c-0.7,0.3-1.5,0-1.9-0.5c-0.4-0.6-0.1-1.3,0.6-1.6
			c0.1-0.1,0.3-0.1,0.5-0.2c0-0.1,0-0.2,0-0.3c-0.6-0.2-1.1-0.6-1.2-1.2c-0.1-0.6,0.2-1.1,0.8-1.4C790.7,88.1,790.2,87.6,790.1,86.9
			z"/>
		<g>
			<path fill="#078E45" d="M829.1,62.1c0,0-0.7,0.4-1.8,1.2c-1.2,0.8-2.8,1.9-4.7,3.2c-1,0.7-2,1.4-3.1,2.2
				c-1.1,0.8-2.2,1.6-3.4,2.5c-1.2,0.8-2.3,1.8-3.6,2.7c-1.2,1-2.4,2-3.6,3l-1.7,1.5c-0.6,0.5-1.2,1-1.7,1.6
				c-1.1,1.1-2.2,2.1-3.2,3.2c-1,1.1-2,2-2.8,3.1c-0.4,0.5-0.8,1-1.2,1.5c-0.2,0.2-0.4,0.5-0.6,0.7c-0.2,0.2-0.4,0.5-0.5,0.7
				c-0.7,0.9-1.3,1.8-1.9,2.6c-0.5,0.8-1,1.5-1.3,2.1c-0.8,1.2-1.2,1.8-1.2,1.8s0.2-0.8,0.6-2.1c0.2-0.7,0.4-1.5,0.8-2.4
				c0.4-0.9,0.9-1.9,1.4-3c0.5-1.1,1.3-2.2,2-3.4c0.7-1.2,1.6-2.4,2.6-3.6c0.9-1.2,2-2.3,3.1-3.5c1.1-1.2,2.3-2.2,3.5-3.3
				c1.2-1,2.5-2.1,3.8-3c0.7-0.5,1.3-0.9,1.9-1.4c0.6-0.5,1.3-0.9,1.9-1.3c0.6-0.4,1.3-0.8,1.9-1.2c0.6-0.3,1.3-0.7,1.9-1
				c1.2-0.7,2.4-1.2,3.5-1.7c2.2-1,4.1-1.7,5.4-2.1C828.3,62.3,829.1,62.1,829.1,62.1z"/>
		</g>
	</g>
	<g>
		<path fill="#349946" d="M784.5,31.5c1.3-0.7,2.9-0.3,3.8,0.9c0.1,0.2,0.2,0.4,0.4,0.7c0.3-0.5,0.8-0.9,1.4-1
			c1.4-0.4,3,0.3,3.5,1.6c0,0,0,0,0,0c-0.1-1.4,1-2.7,2.6-2.9c1.7-0.2,3.3,1,3.6,2.5c0.6-1,1.7-1.6,3.1-1.5c1.7,0.1,3.1,1.4,3.2,3
			c0.8-1.2,2.4-1.8,4-1.4c1.4,0.4,2.4,1.5,2.6,2.7c1-1,2.7-1.3,4.2-0.7c1.1,0.5,1.8,1.4,2.1,2.4c1-0.3,2.1-0.3,3.2,0.2
			c1.6,0.7,2.5,2.3,2.4,3.8c0.1-0.1,0.2-0.2,0.4-0.3c1.6-1.3,4.2-1.2,5.7,0.3c0.6,0.6,1,1.4,1.1,2.2c1.4-0.3,2.9,0.1,4,1.2
			c1.6,1.5,1.5,3.8-0.1,5.2c-1.2,1-4.9,2.9-7.4,3.2l-0.1,0.2c1,2.3,1.3,6.3,1.1,7.8c-0.4,2.1-2.5,3.4-4.8,3
			c-1.5-0.3-2.7-1.3-3.3-2.5c-0.6,0.2-1.4,0.2-2.1,0.1c-2.3-0.4-3.9-2.5-3.5-4.6c0-0.1,0.1-0.3,0.1-0.5c-1,0.6-2.3,0.7-3.5,0.2
			c-1.4-0.6-2.3-2-2.1-3.3c-1.2,0.9-2.9,0.9-4.3,0c-0.7-0.5-1.2-1.1-1.4-1.8c-1,0.3-2.2,0.2-3.2-0.4c-0.9-0.6-1.5-1.4-1.7-2.4
			c-0.8,0.2-1.8,0-2.6-0.5c-0.5-0.3-0.9-0.8-1.2-1.2c-0.9,0.3-1.9,0.3-2.8-0.2c-0.6-0.3-1.1-0.8-1.4-1.3c-0.7,0.3-1.5,0.3-2.3,0
			c-1.2-0.5-1.9-1.7-1.6-2.9c-0.2,0.2-0.3,0.4-0.4,0.6c-0.8,0.9-2.3,1-3.3,0.2c-0.6-0.5-0.9-1.1-0.9-1.8c-0.6,0.3-1.3,0.3-1.9-0.1
			c-0.4-0.3-0.6-0.6-0.6-1c-0.5,0.3-1.1,0.3-1.6-0.1c-0.6-0.4-0.7-1.2-0.2-1.7c0.1-0.1,0.2-0.2,0.4-0.4l-0.1-0.1
			c-0.7,0.2-1.5,0.3-1.9,0.3c-0.8,0-1.5-0.6-1.5-1.4c0-0.7,0.6-1.3,1.4-1.3c0.2,0,0.6,0.1,1.1,0.2c-0.6-0.5-0.7-1.3-0.3-1.8
			c0.5-0.6,1.4-0.7,2-0.2c0.1,0.1,0.3,0.2,0.4,0.4c0.1-0.1,0.2-0.1,0.4-0.2c-0.1-0.6,0.2-1.2,0.8-1.5c0.6-0.3,1.4-0.3,1.9,0.1
			C783.3,32.6,783.7,31.9,784.5,31.5z"/>
		<g>
			<path fill="#078E45" d="M825.7,52.5c0,0-0.8-0.4-2.1-1c-0.7-0.3-1.5-0.7-2.4-1.1c-0.9-0.4-2-0.9-3.1-1.4c-1.1-0.5-2.4-1-3.7-1.6
				c-1.3-0.6-2.7-1.1-4.1-1.7c-1.4-0.5-2.9-1.1-4.4-1.7c-1.5-0.5-3-1.1-4.6-1.5c-1.6-0.5-3.1-1-4.7-1.4c-0.8-0.2-1.5-0.4-2.3-0.6
				c-0.8-0.2-1.5-0.3-2.3-0.5c-0.7-0.2-1.5-0.3-2.2-0.5c-0.7-0.1-1.4-0.3-2.1-0.4c-1.4-0.2-2.7-0.5-3.9-0.7
				c-1.2-0.1-2.3-0.3-3.3-0.5c-1-0.1-1.9-0.2-2.6-0.2c-1.5-0.1-2.3-0.3-2.3-0.3s0.8-0.2,2.3-0.4c0.7-0.1,1.6-0.3,2.6-0.4
				c1-0.1,2.2-0.1,3.5-0.2c0.6,0,1.3-0.1,2,0c0.7,0,1.4,0.1,2.1,0.1c0.7,0,1.5,0.1,2.2,0.1c0.8,0.1,1.5,0.2,2.3,0.3
				c0.8,0.1,1.6,0.2,2.4,0.4c0.8,0.2,1.6,0.4,2.4,0.5c1.6,0.3,3.3,0.8,4.9,1.3c1.6,0.5,3.2,1.1,4.8,1.7c0.8,0.3,1.5,0.7,2.3,1
				c0.7,0.3,1.5,0.6,2.2,1c1.4,0.7,2.8,1.4,4,2.2c0.6,0.4,1.2,0.7,1.8,1.1c0.6,0.4,1.1,0.7,1.7,1.1c1.1,0.7,2,1.4,2.8,2
				c0.8,0.6,1.5,1.2,2.1,1.7C825.2,51.8,825.7,52.5,825.7,52.5z"/>
		</g>
	</g>
	<g>
		<path fill="#349946" d="M889.8,81.2c0.2-1.3-1.3-2.5-3.4-2.6c-0.3,0-0.7,0-1.1,0c0.5-0.5,0.7-1,0.6-1.6c-0.3-1.3-2.1-2.2-4.2-2
			c0,0,0,0-0.1,0c2-0.6,3-2.1,2.3-3.5c-0.8-1.5-3.2-2.2-5.5-1.7c1-0.9,1.2-2.2,0.2-3.2c-1.2-1.3-3.8-1.8-5.9-1.1
			c1.2-1.2,1-2.8-0.6-3.9c-1.4-0.9-3.4-1.2-5.2-0.8c0.8-1.3,0.2-2.8-1.5-3.6c-1.3-0.6-3-0.8-4.5-0.5c-0.1-1-0.9-1.9-2.1-2.5
			c-1.9-0.9-4.5-0.9-6.5-0.1c0.1-0.2,0.2-0.3,0.2-0.4c0.8-1.9-0.9-3.9-3.8-4.4c-1.2-0.2-2.5-0.1-3.6,0.2c-0.4-1.2-1.9-2.3-3.9-2.6
			c-3-0.5-6,0.6-6.9,2.6c-0.6,1.4-0.9,5.3,0.1,7.4l-0.2,0.2c-3.7,0.3-9.2,2-11,2.9c-2.6,1.3-3.1,3.7-1.1,5.3
			c1.3,1.1,3.3,1.6,5.3,1.4c0.1,0.6,0.5,1.2,1.1,1.7c2,1.6,5.6,1.9,8.2,0.6c0.2-0.1,0.4-0.2,0.6-0.3c-0.2,1.1,0.4,2.2,1.8,2.9
			c1.7,0.8,4,0.8,5.7,0.1c-0.4,1.4,0.5,2.8,2.5,3.4c1,0.3,2.2,0.4,3.3,0.3c0.2,1,1,1.9,2.4,2.4c1.3,0.5,2.8,0.5,4.1,0.2
			c0.3,0.8,1,1.4,2.2,1.8c0.7,0.3,1.5,0.4,2.3,0.4c0,0.9,0.7,1.7,1.9,2.2c0.8,0.3,1.7,0.5,2.6,0.5c0,0.7,0.5,1.3,1.4,1.8
			c1.4,0.7,3.4,0.7,4.8-0.1c-0.2,0.2-0.4,0.4-0.5,0.6c-0.7,1.1,0,2.3,1.6,2.7c1,0.3,2,0.2,2.9-0.1c-0.1,0.6,0.4,1.2,1.3,1.4
			c0.6,0.2,1.2,0.1,1.7,0c-0.1,0.5,0.3,1.1,1,1.3c0.9,0.2,2,0,2.4-0.6c0.1-0.1,0.2-0.3,0.2-0.5l0.1,0c0.2,0.7,0.5,1.3,0.7,1.6
			c0.5,0.6,1.7,0.9,2.7,0.5c1-0.3,1.4-1.1,0.9-1.8c-0.2-0.2-0.5-0.5-0.9-0.8c1,0.2,2.1,0,2.6-0.7c0.5-0.7,0.1-1.4-0.9-1.7
			c-0.2-0.1-0.4-0.1-0.7-0.2c0-0.1,0-0.3,0-0.4c0.9-0.2,1.5-0.7,1.6-1.3c0.1-0.6-0.4-1.2-1.2-1.5C889,82.7,889.7,82,889.8,81.2z"/>
		<g>
			<path fill="#078E45" d="M833.6,56c0,0,1,0.1,2.8,0.5c1.8,0.4,4.2,1,7.2,1.9c1.5,0.5,3.1,1,4.7,1.6c1.7,0.6,3.4,1.3,5.2,2.1
				c1.8,0.8,3.6,1.6,5.4,2.6c1.8,0.9,3.6,1.9,5.4,3c1.8,1.1,3.5,2.2,5.2,3.4c1.7,1.2,3.2,2.4,4.7,3.7c1.5,1.2,2.9,2.5,4.1,3.8
				c1.3,1.3,2.4,2.6,3.3,3.8c0.5,0.6,0.9,1.2,1.4,1.8c0.4,0.6,0.8,1.1,1.1,1.7c0.7,1,1.2,2,1.7,2.8c0.4,0.8,0.7,1.5,0.9,1.9
				c0.2,0.4,0.3,0.7,0.3,0.7s-0.6-0.8-1.8-2.2c-0.6-0.7-1.3-1.5-2.1-2.4c-0.8-0.9-1.8-1.9-2.9-2.9c-1.1-1-2.3-2.1-3.6-3.2
				c-1.3-1.1-2.8-2.2-4.2-3.3c-0.7-0.6-1.5-1.1-2.3-1.7c-0.8-0.5-1.6-1.1-2.4-1.6c-1.6-1.1-3.3-2.2-5.1-3.2c-1.7-1.1-3.4-2.1-5.2-3
				c-1.7-0.9-3.4-1.9-5.1-2.8c-1.7-0.8-3.3-1.7-4.9-2.5c-1.6-0.8-3-1.5-4.4-2.1c-2.8-1.3-5.1-2.4-6.7-3.1
				C834.6,56.4,833.6,56,833.6,56z"/>
		</g>
	</g>
	<g>
		<path fill="#349946" d="M862,23.8c-1-0.5-2.3,0.1-2.9,1.4c-0.1,0.2-0.2,0.4-0.3,0.7c-0.3-0.4-0.6-0.7-1.1-0.8
			c-1.1-0.2-2.3,0.7-2.7,2c0,0,0,0,0,0c0-1.4-0.9-2.4-2.2-2.3c-1.4,0.1-2.6,1.4-2.8,2.9c-0.5-0.8-1.4-1.3-2.5-1
			c-1.4,0.4-2.4,1.8-2.4,3.2c-0.7-1-2-1.3-3.2-0.7c-1.1,0.6-1.8,1.7-2,2.9c-0.8-0.8-2.2-0.9-3.3,0c-0.9,0.6-1.4,1.6-1.5,2.6
			c-0.8-0.2-1.7,0-2.5,0.6c-1.3,0.9-1.9,2.5-1.8,3.9c-0.1-0.1-0.2-0.2-0.3-0.3c-1.3-1-3.3-0.5-4.5,1.1c-0.5,0.7-0.7,1.4-0.8,2.2
			c-1.1-0.1-2.3,0.5-3.1,1.7c-1.2,1.6-1.1,3.8,0.2,4.8c1,0.7,3.9,2,5.9,1.9l0.1,0.2c-0.7,2.3-0.8,6.1-0.6,7.4
			c0.4,1.9,2.1,2.8,3.9,2.1c1.2-0.5,2.1-1.6,2.5-2.8c0.5,0.1,1.1,0,1.6-0.2c1.8-0.7,3-2.9,2.6-4.8c0-0.1-0.1-0.3-0.1-0.4
			c0.8,0.4,1.8,0.3,2.8-0.3c1.1-0.8,1.7-2.2,1.6-3.4c1,0.6,2.4,0.4,3.4-0.6c0.5-0.5,0.9-1.2,1.1-1.9c0.8,0.1,1.7-0.1,2.5-0.8
			c0.7-0.7,1.1-1.6,1.2-2.4c0.7,0,1.4-0.2,2-0.8c0.4-0.4,0.7-0.8,0.9-1.3c0.7,0.2,1.5,0,2.2-0.6c0.5-0.4,0.8-0.9,1-1.4
			c0.5,0.2,1.2,0,1.8-0.4c0.9-0.7,1.4-1.9,1.2-2.9c0.1,0.2,0.2,0.4,0.3,0.5c0.7,0.7,1.8,0.6,2.6-0.3c0.5-0.5,0.7-1.2,0.7-1.8
			c0.4,0.2,1,0.1,1.5-0.4c0.3-0.3,0.4-0.7,0.4-1c0.4,0.2,0.9,0.1,1.3-0.3c0.4-0.5,0.5-1.2,0.1-1.6c-0.1-0.1-0.2-0.2-0.3-0.3l0.1-0.1
			c0.6,0.1,1.2,0.1,1.5,0c0.6-0.1,1.1-0.8,1.1-1.5c0-0.7-0.5-1.1-1.2-1c-0.2,0-0.5,0.2-0.8,0.3c0.4-0.5,0.5-1.3,0.2-1.7
			c-0.4-0.5-1.1-0.4-1.6,0.1c-0.1,0.1-0.2,0.2-0.3,0.4c-0.1-0.1-0.2-0.1-0.3-0.1c0.1-0.6-0.2-1.1-0.7-1.3c-0.5-0.2-1.1-0.1-1.5,0.4
			C862.9,24.7,862.6,24.1,862,23.8z"/>
		<g>
			<path fill="#078E45" d="M827.2,51.1c0,0,0.4-0.7,1.2-1.7c0.8-1.1,2.1-2.6,3.7-4.2c0.8-0.8,1.7-1.7,2.7-2.6c1-0.9,2-1.8,3.2-2.7
				c0.6-0.5,1.1-0.9,1.7-1.3c0.6-0.4,1.2-0.9,1.8-1.3c1.3-0.9,2.6-1.7,3.9-2.5c1.4-0.7,2.7-1.5,4.1-2.2c1.4-0.6,2.7-1.3,4.1-1.8
				c1.4-0.5,2.7-1,4-1.3c1.3-0.3,2.5-0.7,3.7-0.8c1.2-0.2,2.2-0.3,3.2-0.4c0.9-0.1,1.8,0,2.4-0.1c1.4,0,2.1,0,2.1,0s-0.7,0.3-2,0.6
				c-0.6,0.2-1.4,0.4-2.3,0.7c-0.9,0.3-1.8,0.7-2.9,1c-0.3,0.1-0.5,0.2-0.8,0.3c-0.3,0.1-0.5,0.2-0.8,0.4c-0.6,0.2-1.1,0.5-1.7,0.7
				c-1.2,0.4-2.4,1.1-3.7,1.7c-1.3,0.5-2.5,1.3-3.8,1.9c-1.3,0.6-2.6,1.4-3.9,2.2c-1.3,0.7-2.5,1.5-3.8,2.3
				c-1.2,0.8-2.5,1.5-3.6,2.3c-1.2,0.8-2.3,1.5-3.4,2.3c-1.1,0.7-2.1,1.4-3,2.1C829.7,49.3,827.2,51.1,827.2,51.1z"/>
		</g>
	</g>
	<g>
		<path fill="#349946" d="M880.2,42.9c-0.7-0.8-2.2-0.7-3.3,0.1c-0.2,0.1-0.4,0.3-0.6,0.5c0-0.5-0.3-0.9-0.7-1.1
			c-0.9-0.6-2.5-0.2-3.4,0.8c0,0,0,0,0,0c0.7-1.2,0.3-2.5-0.9-2.9c-1.3-0.4-3,0.3-3.9,1.6c0-0.9-0.7-1.7-1.8-1.8
			c-1.4-0.2-3,0.7-3.8,2.1c-0.1-1.2-1.1-1.9-2.6-1.8c-1.3,0.1-2.5,0.9-3.2,1.9c-0.3-1-1.5-1.6-3-1.2c-1.1,0.2-2,0.9-2.6,1.7
			c-0.6-0.4-1.6-0.6-2.6-0.4c-1.6,0.4-2.9,1.5-3.5,2.8c0-0.1-0.1-0.2-0.1-0.3c-0.7-1.4-2.8-1.7-4.6-0.6c-0.8,0.4-1.4,1-1.8,1.7
			c-1-0.5-2.3-0.4-3.6,0.4c-1.9,1.1-2.8,3.1-2.1,4.5c0.5,1,2.6,3.2,4.5,3.9l0,0.2c-1.8,1.8-3.7,5.2-4.1,6.5
			c-0.6,1.8,0.6,3.3,2.6,3.3c1.3,0,2.7-0.7,3.6-1.6c0.4,0.3,1,0.4,1.6,0.4c2,0,4.1-1.5,4.7-3.4c0-0.1,0.1-0.3,0.1-0.4
			c0.5,0.7,1.5,1,2.7,0.7c1.4-0.3,2.6-1.3,3.1-2.5c0.6,0.9,1.9,1.2,3.4,0.7c0.8-0.3,1.4-0.8,1.9-1.3c0.7,0.4,1.6,0.5,2.7,0.2
			c1-0.3,1.8-1,2.3-1.8c0.6,0.3,1.4,0.3,2.2,0c0.5-0.2,1-0.5,1.5-0.9c0.5,0.4,1.4,0.6,2.3,0.3c0.6-0.2,1.2-0.5,1.6-0.9
			c0.4,0.3,1.1,0.5,1.8,0.3c1.2-0.3,2.2-1.2,2.5-2.2c0,0.2,0,0.4,0.1,0.6c0.2,0.9,1.4,1.2,2.5,0.7c0.7-0.3,1.2-0.8,1.4-1.4
			c0.3,0.4,0.9,0.5,1.5,0.2c0.4-0.2,0.7-0.5,0.9-0.8c0.2,0.3,0.8,0.4,1.3,0.2c0.6-0.3,1-0.9,0.9-1.4c0-0.1-0.1-0.2-0.2-0.4l0.1,0
			c0.5,0.3,1,0.5,1.4,0.6c0.6,0.1,1.4-0.3,1.7-0.9c0.3-0.6,0.1-1.2-0.6-1.3c-0.2,0-0.5,0-0.9,0c0.7-0.3,1.1-1,1-1.5
			c-0.1-0.6-0.8-0.8-1.5-0.5c-0.1,0-0.3,0.1-0.5,0.2c-0.1-0.1-0.1-0.2-0.2-0.2c0.3-0.5,0.4-1.1,0.1-1.4c-0.3-0.4-0.9-0.5-1.5-0.2
			C880.6,44,880.6,43.4,880.2,42.9z"/>
		<g>
			<path fill="#078E45" d="M835.4,54.8c0,0,0.7-0.4,1.9-1.1c1.2-0.7,3-1.5,5.2-2.5c1.1-0.4,2.3-0.9,3.6-1.4c0.6-0.2,1.3-0.4,2-0.7
				c0.7-0.2,1.4-0.4,2.1-0.6c1.4-0.4,2.9-0.8,4.5-1.1c1.5-0.3,3.1-0.6,4.7-0.8c1.6-0.2,3.2-0.4,4.8-0.5c0.8,0,1.6-0.1,2.3-0.1
				c0.8,0,1.5-0.1,2.3,0c0.8,0,1.5,0.1,2.2,0.1c0.4,0,0.7,0,1.1,0.1c0.4,0,0.7,0.1,1,0.1c1.4,0.2,2.7,0.3,3.8,0.6
				c1.2,0.3,2.2,0.6,3.2,0.8c0.9,0.3,1.7,0.6,2.4,0.9c1.3,0.5,2,0.8,2,0.8s-0.8,0-2.2-0.2c-0.7-0.1-1.5-0.2-2.4-0.2
				c-1,0-2-0.1-3.2-0.1c-0.6-0.1-1.2,0-1.8,0c-0.6,0-1.3,0-1.9,0c-0.3,0-0.7,0-1,0c-0.3,0-0.7,0-1,0.1c-0.7,0.1-1.4,0.1-2.1,0.1
				c-1.4,0-2.9,0.3-4.4,0.4c-1.5,0.1-3,0.4-4.5,0.5c-1.5,0.2-3,0.4-4.5,0.7c-1.5,0.3-3,0.5-4.4,0.8c-1.4,0.3-2.8,0.5-4.1,0.8
				c-1.3,0.3-2.5,0.5-3.7,0.8C838.5,54.1,835.4,54.8,835.4,54.8z"/>
		</g>
	</g>
	<g>
		<path fill="#349946" d="M863.1,95c0.7-1,0-2.4-1.5-3.2c-0.2-0.1-0.5-0.2-0.9-0.4c0.6-0.2,1-0.6,1.1-1.1c0.4-1.1-0.7-2.5-2.4-3
			c0,0,0,0,0,0c1.8,0.1,3.3-0.7,3.3-2c0-1.4-1.6-2.8-3.6-3.1c1.2-0.4,1.8-1.3,1.6-2.4c-0.4-1.4-2.2-2.6-4.2-2.8
			c1.4-0.6,2-1.9,1.2-3.2c-0.7-1.2-2.2-2-3.7-2.3c1.2-0.8,1.4-2.1,0.3-3.4c-0.8-0.9-2-1.6-3.3-1.8c0.3-0.8,0.1-1.7-0.6-2.6
			c-1.1-1.4-3.2-2.2-5-2.2c0.1-0.1,0.3-0.2,0.4-0.3c1.5-1.2,1-3.4-1.1-4.7c-0.9-0.6-1.9-0.9-2.9-1c0.2-1.1-0.5-2.4-2-3.3
			c-2.1-1.4-5-1.5-6.5-0.2c-1.1,0.9-3,3.9-3.1,5.9l-0.2,0.1c-3-1-8.1-1.4-9.9-1.3c-2.6,0.2-4,1.9-3.2,3.8c0.6,1.3,2,2.3,3.6,2.8
			c-0.1,0.5-0.1,1.1,0.2,1.7c0.8,1.9,3.6,3.3,6.2,3.1c0.2,0,0.4,0,0.6-0.1c-0.6,0.8-0.6,1.9,0.2,2.9c1,1.2,2.8,2,4.5,1.9
			c-0.9,0.9-0.8,2.4,0.5,3.5c0.7,0.6,1.5,1,2.5,1.3c-0.3,0.8,0,1.8,0.9,2.7c0.8,0.8,2,1.3,3.2,1.5c-0.1,0.7,0.2,1.5,0.9,2.2
			c0.5,0.5,1.1,0.8,1.7,1c-0.3,0.7-0.2,1.6,0.5,2.4c0.5,0.5,1.1,0.9,1.8,1.2c-0.3,0.5-0.2,1.2,0.3,1.9c0.8,1,2.4,1.6,3.8,1.5
			c-0.3,0.1-0.5,0.2-0.7,0.3c-1,0.6-1,1.8,0.1,2.7c0.6,0.5,1.5,0.8,2.3,0.8c-0.3,0.4-0.2,1.1,0.4,1.5c0.4,0.3,0.9,0.5,1.3,0.6
			c-0.3,0.4-0.2,0.9,0.3,1.3c0.6,0.5,1.6,0.6,2.2,0.3c0.1-0.1,0.2-0.2,0.4-0.3l0.1,0.1c-0.2,0.6-0.2,1.2-0.1,1.5
			c0.1,0.7,1,1.2,1.9,1.3c0.9,0,1.6-0.4,1.4-1.1c0-0.2-0.2-0.5-0.4-0.9c0.7,0.5,1.7,0.7,2.3,0.3c0.7-0.4,0.7-1.1,0-1.7
			c-0.1-0.1-0.3-0.2-0.5-0.4c0.1-0.1,0.1-0.2,0.2-0.3c0.8,0.1,1.5-0.1,1.8-0.5c0.4-0.5,0.2-1.1-0.3-1.6
			C861.8,95.9,862.7,95.6,863.1,95z"/>
		<g>
			<path fill="#078E45" d="M829.6,56.7c0,0,0.7,0.4,2,1.3c1.2,0.9,2.9,2.1,4.9,3.8c1.9,1.7,4.1,3.8,6.2,6.1c1.1,1.2,2.1,2.5,3.2,3.8
				c1,1.3,2,2.7,3,4.2c0.9,1.4,1.8,2.9,2.6,4.4c0.8,1.5,1.5,3,2.2,4.5c0.6,1.5,1.2,3,1.6,4.4c0.4,1.4,0.7,2.8,1,4.1
				c0.1,0.6,0.2,1.3,0.3,1.8c0,0.6,0.1,1.1,0.1,1.7c0.1,1,0,2,0.1,2.7c0,0.8-0.1,1.3-0.1,1.7c0,0.4-0.1,0.6-0.1,0.6
				s-0.2-0.8-0.5-2.3c-0.2-0.7-0.4-1.6-0.7-2.6c-0.1-0.5-0.3-1-0.5-1.5c-0.2-0.5-0.4-1.1-0.6-1.7c-0.4-1.2-0.9-2.4-1.5-3.7
				c-0.6-1.3-1.2-2.6-1.9-4c-0.7-1.4-1.5-2.8-2.3-4.2c-0.8-1.4-1.7-2.8-2.6-4.2c-0.9-1.4-1.8-2.7-2.8-4.1c-0.9-1.3-1.9-2.6-2.8-3.9
				c-1-1.2-1.9-2.4-2.8-3.6c-0.9-1.1-1.8-2.2-2.5-3.2c-1.6-1.9-3-3.6-3.9-4.7C830.1,57.4,829.6,56.7,829.6,56.7z"/>
		</g>
	</g>
</g>
<g>
	<g>
		<path fill="#349946" d="M1105.3,47c-0.1-1-1.2-1.7-2.4-1.5c-0.2,0-0.4,0.1-0.6,0.1c0.2-0.4,0.2-0.8,0-1.2c-0.4-0.9-1.6-1.4-2.7-1
			c0,0,0,0,0,0c1-0.6,1.3-1.8,0.7-2.7c-0.7-1-2.2-1.3-3.4-0.7c0.4-0.8,0.3-1.6-0.4-2.3c-0.9-0.8-2.4-0.9-3.5-0.2
			c0.5-1,0.1-2.1-1-2.7c-0.9-0.5-2.1-0.5-3-0.1c0.2-1-0.4-2-1.5-2.4c-0.9-0.3-1.8-0.3-2.6,0.1c-0.2-0.7-0.8-1.2-1.6-1.6
			c-1.2-0.5-2.7-0.2-3.7,0.5c0-0.1,0-0.2,0.1-0.3c0.2-1.4-1.2-2.7-2.9-2.8c-0.7,0-1.4,0.1-2,0.5c-0.5-0.8-1.4-1.4-2.6-1.5
			c-1.8-0.1-3.3,1-3.5,2.5c-0.1,1.1,0.4,3.8,1.3,5.3l-0.1,0.1c-2,0.6-4.9,2.3-5.7,3.1c-1.2,1.2-1.1,2.9,0.3,3.9
			c0.9,0.6,2.1,0.8,3.2,0.5c0.2,0.4,0.5,0.8,0.9,1.1c1.4,1,3.5,0.8,4.7-0.4c0.1-0.1,0.2-0.2,0.3-0.3c0.1,0.8,0.6,1.5,1.5,1.9
			c1.1,0.4,2.4,0.2,3.2-0.5c0,1,0.8,1.9,2,2.2c0.6,0.1,1.3,0.1,1.9-0.1c0.3,0.7,0.9,1.2,1.8,1.4c0.8,0.2,1.7,0.1,2.4-0.3
			c0.3,0.5,0.8,0.9,1.5,1.1c0.5,0.1,0.9,0.1,1.4,0c0.2,0.6,0.7,1.1,1.4,1.4c0.5,0.2,1,0.2,1.5,0.1c0.1,0.5,0.5,0.9,1.1,1.1
			c0.9,0.4,2,0.1,2.7-0.5c-0.1,0.2-0.2,0.4-0.2,0.5c-0.2,0.8,0.4,1.6,1.4,1.8c0.6,0.1,1.2-0.1,1.6-0.4c0,0.4,0.4,0.8,1,0.9
			c0.3,0.1,0.7,0,1-0.2c0,0.4,0.3,0.7,0.8,0.8c0.6,0.1,1.1-0.2,1.2-0.7c0-0.1,0-0.2,0.1-0.4l0.1,0c0.2,0.5,0.5,0.9,0.7,1.1
			c0.4,0.4,1.1,0.4,1.6,0.1c0.5-0.3,0.6-0.9,0.2-1.3c-0.1-0.1-0.3-0.3-0.6-0.5c0.6,0.1,1.2-0.2,1.3-0.7c0.2-0.5-0.2-1-0.8-1.1
			c-0.1,0-0.3,0-0.4,0c0-0.1,0-0.2,0-0.3c0.4-0.2,0.7-0.7,0.7-1.1c-0.1-0.5-0.4-0.8-1-1C1105.1,48.2,1105.3,47.6,1105.3,47z"/>
		<g>
			<path fill="#078E45" d="M1069.1,34.5c0,0,2.7,0.1,6.5,1c1,0.2,2,0.5,3.1,0.8c1.1,0.3,2.3,0.7,3.4,1.1c1.2,0.4,2.4,0.9,3.6,1.4
				c1.2,0.5,2.4,1.1,3.6,1.7c1.2,0.7,2.4,1.2,3.5,2c1.1,0.7,2.2,1.4,3.2,2.2c1,0.8,2,1.5,2.8,2.3c0.8,0.8,1.7,1.5,2.3,2.2
				c0.7,0.7,1.3,1.4,1.8,2c0.5,0.6,0.9,1.2,1.2,1.7c0.7,1,1,1.5,1,1.5s-0.5-0.5-1.3-1.2c-0.4-0.4-0.9-0.9-1.5-1.4
				c-0.6-0.5-1.3-1.1-2-1.7c-0.4-0.3-0.8-0.6-1.2-0.9c-0.4-0.3-0.9-0.6-1.3-1c-0.9-0.7-1.9-1.3-2.9-2c-1-0.7-2.1-1.3-3.2-1.9
				c-1.1-0.7-2.3-1.2-3.4-1.8c-1.1-0.6-2.3-1.2-3.5-1.7c-1.2-0.5-2.3-1.1-3.4-1.5c-1.1-0.5-2.2-0.9-3.3-1.3c-1-0.4-2-0.8-3-1.1
				c-1.8-0.7-3.4-1.2-4.5-1.6C1069.8,34.7,1069.1,34.5,1069.1,34.5z"/>
		</g>
	</g>
	<g>
		<path fill="#349946" d="M1090,52.8c0.1-0.7-0.5-1.4-1.4-1.5c-0.1,0-0.3,0-0.5,0c0.2-0.2,0.3-0.5,0.3-0.9c-0.1-0.7-0.9-1.2-1.7-1.2
			c0,0,0,0,0,0c0.9-0.3,1.3-1.1,1.1-1.8c-0.3-0.8-1.3-1.3-2.3-1c0.5-0.5,0.6-1.1,0.2-1.7c-0.5-0.7-1.6-1-2.5-0.7
			c0.5-0.6,0.5-1.5-0.1-2.1c-0.6-0.5-1.4-0.7-2.2-0.5c0.4-0.7,0.2-1.5-0.6-2c-0.5-0.4-1.2-0.5-1.9-0.4c0-0.5-0.3-1-0.8-1.4
			c-0.8-0.5-1.9-0.6-2.7-0.2c0-0.1,0.1-0.2,0.1-0.2c0.4-1-0.3-2.1-1.5-2.4c-0.5-0.1-1-0.1-1.5,0c-0.2-0.7-0.7-1.3-1.6-1.5
			c-1.2-0.3-2.6,0.2-3,1.2c-0.3,0.7-0.5,2.8-0.1,4l-0.1,0.1c-1.6,0.1-4,0.9-4.8,1.3c-1.1,0.6-1.4,1.9-0.6,2.8
			c0.5,0.6,1.4,0.9,2.2,0.9c0,0.3,0.2,0.6,0.4,0.9c0.8,0.9,2.3,1.1,3.5,0.5c0.1,0,0.2-0.1,0.2-0.2c-0.1,0.6,0.1,1.2,0.7,1.6
			c0.7,0.5,1.7,0.5,2.4,0.2c-0.2,0.7,0.2,1.5,1,1.9c0.4,0.2,0.9,0.3,1.4,0.2c0,0.5,0.4,1,1,1.3c0.5,0.3,1.2,0.3,1.7,0.2
			c0.1,0.4,0.4,0.8,0.9,1c0.3,0.2,0.7,0.2,1,0.2c0,0.5,0.3,0.9,0.7,1.2c0.3,0.2,0.7,0.3,1.1,0.3c0,0.4,0.2,0.7,0.5,1
			c0.6,0.4,1.4,0.4,2,0.1c-0.1,0.1-0.2,0.2-0.2,0.3c-0.3,0.6-0.1,1.2,0.6,1.5c0.4,0.2,0.9,0.1,1.2,0c-0.1,0.3,0.1,0.6,0.5,0.8
			c0.2,0.1,0.5,0.1,0.7,0c-0.1,0.3,0.1,0.6,0.4,0.7c0.4,0.2,0.8,0,1-0.3c0-0.1,0.1-0.1,0.1-0.3l0.1,0c0,0.4,0.2,0.7,0.3,0.9
			c0.2,0.4,0.7,0.5,1.1,0.3s0.6-0.6,0.4-0.9c-0.1-0.1-0.2-0.3-0.3-0.4c0.4,0.2,0.9,0,1.1-0.3c0.2-0.3,0.1-0.8-0.3-1
			c-0.1,0-0.2-0.1-0.3-0.1c0-0.1,0-0.1,0-0.2c0.4-0.1,0.7-0.4,0.7-0.7c0.1-0.3-0.1-0.7-0.5-0.8C1089.6,53.6,1089.9,53.2,1090,52.8z"
			/>
		<g>
			<path fill="#078E45" d="M1066.7,38c0,0,1.9,0.4,4.5,1.6c0.6,0.3,1.4,0.6,2.1,1c0.7,0.4,1.5,0.8,2.2,1.3c0.8,0.5,1.5,1,2.3,1.6
				c0.8,0.6,1.5,1.2,2.3,1.8c0.7,0.7,1.4,1.3,2.1,2c0.7,0.7,1.3,1.4,1.9,2.1c0.6,0.7,1.1,1.4,1.5,2.1c0.4,0.7,0.9,1.4,1.2,2
				c0.3,0.7,0.6,1.3,0.8,1.8c0.2,0.5,0.4,1,0.5,1.4c0.2,0.8,0.4,1.3,0.4,1.3s-0.3-0.4-0.7-1.1c-0.2-0.3-0.5-0.8-0.8-1.2
				c-0.3-0.5-0.7-1-1.1-1.5c-0.2-0.3-0.4-0.6-0.7-0.8c-0.2-0.3-0.5-0.6-0.7-0.9c-0.5-0.6-1.1-1.2-1.7-1.8c-0.6-0.7-1.3-1.2-1.9-1.9
				c-0.6-0.7-1.4-1.2-2-1.8c-0.7-0.6-1.4-1.2-2.1-1.8c-0.7-0.5-1.4-1.1-2.1-1.6c-0.7-0.5-1.4-1-2-1.5c-0.7-0.5-1.3-0.9-1.9-1.3
				c-1.2-0.8-2.1-1.5-2.8-1.9C1067.1,38.3,1066.7,38,1066.7,38z"/>
		</g>
	</g>
	<g>
		<path fill="#349946" d="M1093.3,19.7c-0.7-0.4-1.8-0.2-2.3,0.5c-0.1,0.1-0.1,0.2-0.2,0.4c-0.2-0.3-0.5-0.5-0.8-0.6
			c-0.8-0.3-1.8,0.2-2.1,1c0,0,0,0,0,0c0-0.9-0.6-1.6-1.6-1.7c-1-0.1-2,0.6-2.2,1.5c-0.3-0.6-1-1-1.8-0.9c-1,0.1-1.9,0.9-1.9,1.8
			c-0.5-0.7-1.4-1.1-2.4-0.8c-0.8,0.2-1.4,0.9-1.6,1.6c-0.6-0.6-1.6-0.8-2.5-0.4c-0.7,0.3-1.1,0.8-1.2,1.4c-0.6-0.2-1.3-0.2-1.9,0.1
			c-1,0.4-1.5,1.3-1.4,2.3c-0.1-0.1-0.1-0.1-0.2-0.2c-1-0.8-2.5-0.7-3.4,0.2c-0.4,0.4-0.6,0.8-0.7,1.3c-0.8-0.2-1.7,0.1-2.4,0.7
			c-0.9,0.9-0.9,2.3,0,3.1c0.7,0.6,2.9,1.7,4.4,1.9l0.1,0.1c-0.6,1.4-0.8,3.8-0.6,4.6c0.2,1.2,1.5,2,2.9,1.8
			c0.9-0.2,1.6-0.8,1.9-1.5c0.4,0.1,0.8,0.1,1.2,0c1.4-0.3,2.3-1.5,2.1-2.7c0-0.1,0-0.2-0.1-0.3c0.6,0.4,1.4,0.4,2.1,0.1
			c0.9-0.4,1.3-1.2,1.3-2c0.7,0.5,1.8,0.5,2.6,0c0.4-0.3,0.7-0.7,0.8-1.1c0.6,0.2,1.3,0.1,1.9-0.2c0.6-0.3,0.9-0.9,1-1.4
			c0.5,0.1,1.1,0,1.5-0.3c0.3-0.2,0.6-0.4,0.7-0.7c0.5,0.2,1.1,0.2,1.7-0.1c0.4-0.2,0.6-0.5,0.8-0.8c0.4,0.2,0.9,0.2,1.3,0
			c0.7-0.3,1.1-1,1-1.7c0.1,0.1,0.2,0.3,0.2,0.3c0.5,0.5,1.4,0.6,2,0.1c0.4-0.3,0.5-0.7,0.5-1c0.3,0.2,0.8,0.2,1.1-0.1
			c0.2-0.2,0.3-0.4,0.4-0.6c0.3,0.2,0.7,0.2,1,0c0.3-0.3,0.4-0.7,0.1-1c-0.1-0.1-0.1-0.1-0.2-0.2l0.1,0c0.4,0.1,0.9,0.2,1.1,0.2
			c0.5,0,0.9-0.4,0.9-0.8c0-0.4-0.4-0.8-0.9-0.8c-0.1,0-0.4,0-0.6,0.1c0.4-0.3,0.4-0.7,0.2-1.1c-0.3-0.3-0.8-0.4-1.2-0.1
			c-0.1,0-0.2,0.1-0.3,0.2c-0.1,0-0.1-0.1-0.2-0.1c0.1-0.4-0.1-0.7-0.5-0.9c-0.4-0.2-0.8-0.2-1.2,0
			C1094,20.4,1093.8,19.9,1093.3,19.7z"/>
		<g>
			<path fill="#078E45" d="M1068.7,32.2c0,0,1.4-1.5,4-3.1c1.3-0.9,2.8-1.7,4.5-2.6c0.9-0.4,1.7-0.8,2.7-1.2c0.9-0.3,1.9-0.7,2.8-1
				c1-0.3,1.9-0.6,2.9-0.8c1-0.3,1.9-0.4,2.9-0.5c0.5-0.1,0.9-0.1,1.4-0.2c0.5,0,0.9-0.1,1.3-0.1c0.9-0.1,1.7-0.1,2.5-0.1
				c0.8,0,1.5,0.1,2.1,0.1c0.6,0.1,1.1,0.2,1.6,0.2c0.9,0.1,1.4,0.3,1.4,0.3s-0.5,0.1-1.4,0.2c-0.4,0-1,0.1-1.6,0.1
				c-0.6,0.1-1.3,0.2-2,0.3c-0.7,0.1-1.5,0.3-2.3,0.4c-0.4,0.1-0.8,0.2-1.3,0.2c-0.4,0.1-0.9,0.2-1.3,0.3c-0.4,0.1-0.9,0.2-1.4,0.3
				c-0.5,0.1-0.9,0.3-1.4,0.4c-0.9,0.2-1.9,0.5-2.8,0.8c-0.9,0.3-1.9,0.6-2.8,0.9c-0.9,0.3-1.8,0.7-2.6,1c-0.8,0.4-1.7,0.7-2.5,1
				c-0.8,0.3-1.5,0.7-2.2,0.9c-1.4,0.6-2.5,1.1-3.3,1.5C1069.1,32,1068.7,32.2,1068.7,32.2z"/>
		</g>
	</g>
	<g>
		<path fill="#349946" d="M1030.4,49.4c-0.1-0.8,0.8-1.5,2-1.6c0.2,0,0.4,0,0.7,0c-0.3-0.3-0.4-0.6-0.3-1c0.2-0.8,1.3-1.3,2.5-1.2
			c0,0,0,0,0,0c-1.2-0.4-1.8-1.3-1.3-2.1c0.5-0.9,1.9-1.3,3.3-1c-0.6-0.6-0.7-1.3-0.1-1.9c0.7-0.8,2.2-1.1,3.5-0.7
			c-0.7-0.7-0.6-1.7,0.3-2.3c0.8-0.5,2-0.7,3.1-0.5c-0.5-0.8-0.1-1.7,0.9-2.2c0.8-0.4,1.8-0.5,2.7-0.3c0.1-0.6,0.5-1.1,1.3-1.5
			c1.1-0.6,2.7-0.6,3.9-0.1c-0.1-0.1-0.1-0.2-0.1-0.3c-0.5-1.1,0.5-2.3,2.3-2.6c0.7-0.1,1.5-0.1,2.1,0.1c0.3-0.7,1.1-1.3,2.3-1.6
			c1.8-0.3,3.6,0.4,4.1,1.5c0.4,0.8,0.6,3.2-0.1,4.4l0.1,0.1c2.2,0.2,5.5,1.2,6.6,1.7c1.5,0.8,1.8,2.2,0.7,3.2
			c-0.8,0.6-2,0.9-3.2,0.8c-0.1,0.4-0.3,0.7-0.7,1c-1.2,1-3.4,1.1-4.9,0.4c-0.1-0.1-0.2-0.1-0.3-0.2c0.1,0.6-0.2,1.3-1.1,1.7
			c-1,0.5-2.4,0.5-3.4,0.1c0.3,0.8-0.3,1.7-1.5,2.1c-0.6,0.2-1.3,0.2-1.9,0.2c-0.1,0.6-0.6,1.1-1.4,1.4c-0.8,0.3-1.7,0.3-2.5,0.1
			c-0.2,0.5-0.6,0.9-1.3,1.1c-0.4,0.2-0.9,0.2-1.4,0.2c0,0.5-0.4,1-1.1,1.3c-0.5,0.2-1,0.3-1.5,0.3c0,0.4-0.3,0.8-0.8,1.1
			c-0.8,0.4-2,0.4-2.8-0.1c0.1,0.1,0.2,0.3,0.3,0.4c0.4,0.6,0,1.4-1,1.6c-0.6,0.2-1.2,0.1-1.7-0.1c0.1,0.4-0.2,0.7-0.8,0.9
			c-0.3,0.1-0.7,0.1-1,0c0.1,0.3-0.2,0.6-0.6,0.8c-0.5,0.1-1.2,0-1.4-0.4c0-0.1-0.1-0.2-0.1-0.3l-0.1,0c-0.1,0.4-0.3,0.8-0.4,1
			c-0.3,0.4-1,0.5-1.6,0.3s-0.8-0.7-0.5-1.1c0.1-0.1,0.3-0.3,0.5-0.5c-0.6,0.1-1.3,0-1.5-0.4c-0.3-0.4-0.1-0.9,0.5-1
			c0.1,0,0.3-0.1,0.4-0.1c0-0.1,0-0.2,0-0.2c-0.5-0.1-0.9-0.4-1-0.8c-0.1-0.4,0.3-0.7,0.7-0.9C1030.9,50.3,1030.5,49.9,1030.4,49.4z
			"/>
		<g>
			<path fill="#078E45" d="M1064,34.4c0,0-0.6,0.3-1.5,0.7c-1,0.4-2.3,1.1-4,1.9c-0.8,0.4-1.7,0.8-2.6,1.3c-0.9,0.5-1.9,1-2.9,1.5
				c-1,0.5-2,1.1-3.1,1.6c-1.1,0.5-2.1,1.2-3.1,1.8c-1,0.6-2,1.3-3,1.9c-0.9,0.7-1.9,1.3-2.8,2c-0.9,0.7-1.8,1.3-2.5,2
				c-0.8,0.7-1.5,1.3-2.2,1.9c-0.6,0.6-1.2,1.2-1.7,1.7c-0.5,0.5-0.9,1-1.2,1.4c-0.7,0.8-1.1,1.3-1.1,1.3s0.3-0.5,0.8-1.5
				c0.3-0.5,0.5-1.1,1-1.7c0.4-0.6,0.9-1.3,1.5-2.1c0.6-0.7,1.3-1.5,2-2.2c0.7-0.8,1.6-1.5,2.5-2.3c0.9-0.7,1.8-1.5,2.8-2.2
				c1-0.7,2-1.4,3.1-2c1.1-0.6,2.1-1.2,3.2-1.8c1.1-0.6,2.2-1.1,3.2-1.5c1-0.5,2.1-0.9,3.1-1.3c1-0.4,1.9-0.7,2.8-1
				C1061.5,34.7,1064,34.4,1064,34.4z"/>
		</g>
	</g>
	<g>
		<path fill="#349946" d="M1047.1,15.1c0.6-0.3,1.4,0.1,1.8,0.8c0.1,0.1,0.1,0.2,0.2,0.4c0.2-0.2,0.4-0.4,0.7-0.5
			c0.7-0.1,1.4,0.4,1.6,1.2c0,0,0,0,0,0c0-0.8,0.5-1.4,1.3-1.4c0.8,0,1.6,0.8,1.7,1.7c0.3-0.5,0.8-0.8,1.5-0.6
			c0.8,0.2,1.4,1.1,1.4,1.9c0.4-0.6,1.2-0.8,1.9-0.4c0.6,0.3,1.1,1,1.2,1.7c0.5-0.5,1.3-0.5,2,0c0.5,0.4,0.8,0.9,0.9,1.5
			c0.5-0.1,1,0,1.5,0.4c0.7,0.5,1.2,1.5,1.1,2.3c0.1-0.1,0.1-0.1,0.2-0.2c0.8-0.6,2-0.3,2.7,0.7c0.3,0.4,0.4,0.9,0.5,1.3
			c0.7,0,1.4,0.3,1.8,1c0.7,1,0.6,2.3-0.1,2.9c-0.6,0.4-2.4,1.2-3.5,1.1l0,0.1c0.4,1.4,0.5,3.6,0.3,4.4c-0.2,1.1-1.3,1.7-2.3,1.2
			c-0.7-0.3-1.3-1-1.5-1.7c-0.3,0-0.6,0-1-0.1c-1.1-0.4-1.8-1.7-1.6-2.9c0-0.1,0-0.2,0.1-0.2c-0.5,0.2-1.1,0.2-1.7-0.2
			c-0.7-0.5-1-1.3-0.9-2c-0.6,0.4-1.4,0.2-2-0.4c-0.3-0.3-0.5-0.7-0.6-1.1c-0.5,0.1-1-0.1-1.5-0.5c-0.4-0.4-0.7-0.9-0.7-1.5
			c-0.4,0-0.8-0.1-1.2-0.5c-0.2-0.2-0.4-0.5-0.5-0.8c-0.4,0.1-0.9,0-1.3-0.3c-0.3-0.2-0.5-0.5-0.6-0.9c-0.3,0.1-0.7,0-1.1-0.2
			c-0.6-0.4-0.8-1.1-0.7-1.7c-0.1,0.1-0.1,0.2-0.2,0.3c-0.4,0.4-1.1,0.4-1.5-0.2c-0.3-0.3-0.4-0.7-0.4-1.1c-0.3,0.1-0.6,0-0.9-0.2
			c-0.2-0.2-0.2-0.4-0.3-0.6c-0.2,0.1-0.5,0.1-0.8-0.2c-0.3-0.3-0.3-0.7-0.1-1c0,0,0.1-0.1,0.2-0.2l0,0c-0.3,0-0.7,0-0.9,0
			c-0.4-0.1-0.7-0.5-0.7-0.9c0-0.4,0.3-0.7,0.7-0.6c0.1,0,0.3,0.1,0.5,0.2c-0.3-0.3-0.3-0.8-0.1-1c0.2-0.3,0.7-0.3,1,0.1
			c0.1,0.1,0.1,0.1,0.2,0.2c0.1,0,0.1-0.1,0.2-0.1c0-0.3,0.1-0.7,0.4-0.8c0.3-0.1,0.6,0,0.9,0.2
			C1046.5,15.7,1046.7,15.3,1047.1,15.1z"/>
		<g>
			<path fill="#078E45" d="M1067.8,31.4c0,0-1.5-1.1-3.7-2.7c-0.6-0.4-1.2-0.8-1.8-1.2c-0.6-0.4-1.3-0.9-2-1.4
				c-0.7-0.5-1.4-0.9-2.2-1.4c-0.7-0.5-1.5-0.9-2.3-1.4c-0.8-0.4-1.5-0.9-2.3-1.3c-0.8-0.4-1.5-0.8-2.3-1.2c-0.8-0.3-1.5-0.7-2.2-1
				c-0.7-0.3-1.4-0.6-2-0.8c-0.6-0.2-1.2-0.4-1.7-0.6c-0.5-0.2-1-0.3-1.4-0.4c-0.8-0.2-1.2-0.4-1.2-0.4s0.5,0,1.3,0
				c0.4,0,0.9,0,1.5,0c0.6,0.1,1.2,0.1,1.9,0.2c0.7,0.1,1.4,0.3,2.2,0.5c0.8,0.2,1.6,0.5,2.4,0.8c0.8,0.3,1.6,0.7,2.5,1
				c0.8,0.4,1.6,0.9,2.5,1.3c0.8,0.5,1.6,1,2.3,1.5c0.7,0.5,1.5,1.1,2.1,1.6c0.7,0.5,1.3,1.1,1.9,1.6c0.6,0.5,1.1,1.1,1.6,1.6
				C1066.8,29.9,1067.8,31.4,1067.8,31.4z"/>
		</g>
	</g>
	<g>
		<path fill="#349946" d="M1036.2,26.5c0.4-0.5,1.3-0.4,2,0.1c0.1,0.1,0.2,0.2,0.3,0.3c0-0.3,0.2-0.5,0.4-0.7c0.6-0.3,1.5-0.1,2,0.5
			c0,0,0,0,0,0c-0.4-0.7-0.2-1.5,0.5-1.7c0.8-0.3,1.8,0.2,2.3,0.9c0-0.6,0.4-1,1-1.1c0.8-0.1,1.8,0.4,2.3,1.2
			c0.1-0.7,0.7-1.2,1.5-1.1c0.8,0.1,1.5,0.5,1.9,1.1c0.2-0.6,0.9-0.9,1.8-0.7c0.6,0.1,1.2,0.5,1.6,1c0.4-0.3,0.9-0.4,1.5-0.2
			c0.9,0.2,1.8,0.9,2.1,1.7c0-0.1,0.1-0.1,0.1-0.2c0.4-0.8,1.6-1,2.8-0.4c0.5,0.3,0.8,0.6,1.1,1c0.6-0.3,1.4-0.2,2.2,0.2
			c1.1,0.6,1.7,1.8,1.3,2.7c-0.3,0.6-1.6,1.9-2.7,2.3l0,0.1c1.1,1.1,2.2,3.1,2.5,3.9c0.4,1.1-0.3,2-1.5,2c-0.8,0-1.6-0.4-2.2-1
			c-0.3,0.2-0.6,0.2-1,0.2c-1.2,0-2.4-0.9-2.8-2c0-0.1,0-0.2-0.1-0.2c-0.3,0.4-0.9,0.6-1.6,0.4c-0.8-0.2-1.6-0.8-1.8-1.5
			c-0.3,0.6-1.2,0.7-2,0.4c-0.4-0.2-0.8-0.5-1.1-0.8c-0.4,0.3-1,0.3-1.6,0.1c-0.6-0.2-1.1-0.6-1.4-1c-0.4,0.2-0.8,0.2-1.3,0
			c-0.3-0.1-0.6-0.3-0.9-0.5c-0.3,0.3-0.8,0.3-1.4,0.2c-0.4-0.1-0.7-0.3-1-0.6c-0.3,0.2-0.6,0.3-1.1,0.2c-0.7-0.2-1.3-0.7-1.5-1.3
			c0,0.1,0,0.3,0,0.3c-0.1,0.5-0.8,0.7-1.5,0.4c-0.4-0.2-0.7-0.5-0.9-0.8c-0.2,0.2-0.5,0.3-0.9,0.1c-0.2-0.1-0.4-0.3-0.5-0.5
			c-0.1,0.2-0.5,0.3-0.8,0.1c-0.4-0.2-0.6-0.5-0.5-0.8c0-0.1,0-0.1,0.1-0.2l-0.1,0c-0.3,0.2-0.6,0.3-0.8,0.3c-0.4,0.1-0.9-0.2-1-0.6
			c-0.2-0.4,0-0.7,0.4-0.8c0.1,0,0.3,0,0.5,0c-0.4-0.2-0.7-0.6-0.6-0.9c0.1-0.3,0.5-0.5,0.9-0.3c0.1,0,0.2,0.1,0.3,0.1
			c0-0.1,0.1-0.1,0.1-0.1c-0.2-0.3-0.2-0.6,0-0.9c0.2-0.2,0.6-0.3,0.9-0.1C1035.9,27.2,1035.9,26.8,1036.2,26.5z"/>
		<g>
			<path fill="#078E45" d="M1062.9,33.6c0,0-1.8-0.4-4.6-1c-0.7-0.1-1.4-0.3-2.2-0.5c-0.8-0.2-1.6-0.3-2.5-0.5
				c-0.8-0.2-1.7-0.3-2.6-0.5c-0.9-0.2-1.8-0.3-2.7-0.4c-0.9-0.1-1.8-0.3-2.7-0.3c-0.9,0-1.8-0.2-2.6-0.2c-0.9,0-1.7-0.1-2.5-0.1
				c-0.8,0-1.5,0-2.2,0c-0.7,0-1.3,0.1-1.9,0.1c-0.6,0-1.1,0.1-1.5,0.1c-0.8,0.1-1.3,0.1-1.3,0.1s0.4-0.2,1.2-0.5
				c0.4-0.1,0.9-0.4,1.4-0.5c0.6-0.2,1.2-0.3,1.9-0.5c0.7-0.2,1.5-0.2,2.3-0.4c0.8-0.1,1.7-0.1,2.6-0.2c0.9,0,1.8,0,2.8,0.1
				c0.9,0.1,1.9,0.2,2.8,0.3c1.9,0.3,3.8,0.7,5.5,1.2c0.9,0.2,1.7,0.5,2.4,0.8c0.8,0.2,1.5,0.6,2.1,0.8
				C1061.3,32.6,1062.9,33.6,1062.9,33.6z"/>
		</g>
	</g>
	<g>
		<path fill="#349946" d="M1046.4,57.7c-0.4-0.6,0-1.4,0.9-1.9c0.1-0.1,0.3-0.1,0.5-0.2c-0.3-0.1-0.6-0.4-0.7-0.7
			c-0.2-0.7,0.4-1.5,1.5-1.8c0,0,0,0,0,0c-1.1,0.1-2-0.4-2-1.2c0-0.8,1-1.7,2.2-1.9c-0.7-0.2-1.1-0.8-0.9-1.5
			c0.2-0.9,1.3-1.6,2.5-1.7c-0.9-0.3-1.2-1.1-0.7-1.9c0.4-0.7,1.3-1.2,2.2-1.4c-0.7-0.5-0.8-1.3-0.2-2c0.5-0.6,1.2-1,2-1.1
			c-0.2-0.5-0.1-1,0.4-1.6c0.7-0.8,1.9-1.3,3-1.3c-0.1-0.1-0.2-0.1-0.2-0.2c-0.9-0.7-0.6-2,0.7-2.8c0.5-0.3,1.1-0.5,1.7-0.6
			c-0.1-0.7,0.3-1.4,1.2-2c1.3-0.8,3-0.9,3.9-0.1c0.7,0.5,1.8,2.3,1.9,3.5l0.1,0c1.8-0.6,4.8-0.9,5.9-0.8c1.5,0.1,2.4,1.1,1.9,2.3
			c-0.3,0.8-1.2,1.4-2.1,1.7c0.1,0.3,0.1,0.7-0.1,1c-0.5,1.1-2.2,2-3.7,1.9c-0.1,0-0.2,0-0.3,0c0.4,0.5,0.4,1.1-0.1,1.7
			c-0.6,0.7-1.7,1.2-2.7,1.2c0.6,0.6,0.5,1.4-0.3,2.1c-0.4,0.4-0.9,0.6-1.5,0.8c0.2,0.5,0,1.1-0.5,1.6c-0.5,0.5-1.2,0.8-1.9,0.9
			c0.1,0.4-0.1,0.9-0.5,1.3c-0.3,0.3-0.6,0.5-1,0.6c0.2,0.4,0.1,0.9-0.3,1.4c-0.3,0.3-0.7,0.6-1.1,0.7c0.2,0.3,0.1,0.7-0.2,1.1
			c-0.5,0.6-1.4,1-2.3,0.9c0.2,0.1,0.3,0.1,0.4,0.2c0.6,0.4,0.6,1.1-0.1,1.6c-0.4,0.3-0.9,0.5-1.4,0.5c0.2,0.3,0.1,0.6-0.2,0.9
			c-0.2,0.2-0.5,0.3-0.8,0.3c0.2,0.2,0.1,0.5-0.2,0.8c-0.4,0.3-0.9,0.4-1.3,0.2c-0.1,0-0.1-0.1-0.2-0.2l0,0c0.1,0.3,0.1,0.7,0.1,0.9
			c-0.1,0.4-0.6,0.7-1.1,0.8c-0.6,0-0.9-0.3-0.9-0.7c0-0.1,0.1-0.3,0.2-0.5c-0.4,0.3-1,0.4-1.4,0.2c-0.4-0.2-0.4-0.7,0-1
			c0.1-0.1,0.2-0.1,0.3-0.2c-0.1-0.1-0.1-0.1-0.1-0.2c-0.5,0.1-0.9,0-1.1-0.3c-0.2-0.3-0.1-0.7,0.2-1
			C1047.1,58.2,1046.6,58,1046.4,57.7z"/>
		<g>
			<path fill="#078E45" d="M1066.4,34.8c0,0-1.3,1.5-3.2,3.9c-0.9,1.2-2,2.5-3.2,4c-0.6,0.7-1.1,1.5-1.7,2.3
				c-0.6,0.8-1.1,1.6-1.7,2.4c-0.5,0.8-1.1,1.7-1.6,2.5c-0.4,0.9-1,1.7-1.4,2.5c-0.4,0.8-0.8,1.6-1.1,2.4c-0.3,0.8-0.6,1.5-0.9,2.2
				c-0.2,0.7-0.4,1.4-0.6,1.9c-0.2,0.6-0.3,1.1-0.4,1.5c-0.2,0.9-0.3,1.4-0.3,1.4s0-0.5-0.1-1.4c0-0.4-0.1-1,0-1.6
				c0.1-0.6,0.1-1.3,0.3-2.1c0.1-0.8,0.4-1.6,0.6-2.4c0.2-0.9,0.6-1.7,0.9-2.6c0.4-0.9,0.8-1.8,1.3-2.7c0.5-0.9,1-1.8,1.6-2.6
				c0.6-0.8,1.2-1.7,1.8-2.5c0.6-0.8,1.3-1.6,1.9-2.3c0.6-0.7,1.3-1.4,1.9-2c0.6-0.6,1.2-1.2,1.8-1.7
				C1064.6,35.8,1066.4,34.8,1066.4,34.8z"/>
		</g>
	</g>
</g>
<path fill="#72BE44" d="M213.4,75.6c-1.2-0.8-3.5-1.2-6.1-1.2c1.9-4.7,2.9-10.7,3-12.8c-0.9,0.9-3,3.2-5.1,5.9
	c0.9-4.4-1.5-10.8-3.4-14.6c1.1,4.8,1,10.1-0.6,14.8c-0.5-1.8-1-3.3-1.3-4c-0.4,1.1-0.8,2.3-1.1,3.4c-2.1-4.3-4.5-8.3-4.9-9.9
	c0,1.8,0,9.4,1.3,15.3c-1.4-0.5-3.4-0.8-6.3-0.8c3.8,1.4,5,3.9,7.4,6.6c-1.2,1.8-2.9,3.9,4.3,1.7c0.1,0.1,0.2,0.1,0.3,0.2
	c1.9,0.9,3.5-0.4,4.9-2.7C209.3,76.7,213.1,75.7,213.4,75.6z"/>
<path fill="#72BE44" d="M749.5,49.2c-1.2-0.8-3.5-1.2-6.1-1.2c1.9-4.7,2.9-10.7,3-12.8c-0.9,0.9-3,3.2-5.1,5.9
	c0.9-4.4-1.5-10.8-3.4-14.6c1.1,4.8,1,10.1-0.6,14.8c-0.5-1.8-1-3.3-1.3-4c-0.4,1.1-0.8,2.3-1.1,3.4c-2.1-4.3-4.5-8.3-4.9-9.9
	c0,1.8,0,9.4,1.3,15.3c-1.4-0.5-3.4-0.8-6.3-0.8c3.8,1.4,5,3.9,7.4,6.6c-1.2,1.8-2.9,3.9,4.3,1.7c0.1,0.1,0.2,0.1,0.3,0.2
	c1.9,0.9,3.5-0.4,4.9-2.7C745.4,50.3,749.2,49.3,749.5,49.2z"/>
<path fill="#72BE44" d="M1032.2,79.8c-1.2-0.8-3.5-1.2-6.1-1.2c1.9-4.7,2.9-10.7,3-12.8c-0.9,0.9-3,3.2-5.1,5.9
	c0.9-4.4-1.5-10.8-3.4-14.6c1.1,4.8,1,10.1-0.6,14.8c-0.5-1.8-1-3.3-1.3-4c-0.4,1.1-0.8,2.3-1.1,3.4c-2.1-4.3-4.5-8.3-4.9-9.9
	c0,1.8,0,9.4,1.3,15.3c-1.4-0.5-3.4-0.8-6.3-0.8c3.8,1.4,5,3.9,7.4,6.6c-1.2,1.8-2.9,3.9,4.3,1.7c0.1,0.1,0.2,0.1,0.3,0.2
	c1.9,0.9,3.5-0.4,4.9-2.7C1028.1,80.9,1031.9,79.9,1032.2,79.8z"/>
<path fill="#72BE44" d="M290.6,27.1c-1.2-0.8-3.8,2.3-6.5,2.3c2-5,4.5-9,4.6-11.3c-1,1-4.6,1.1-6.9,4c1-4.8,1.1-4.9-0.9-8.9
	c1.2,5.2-1.6,4.1-3.4,9.1c-0.5-1.9-1.1-3.5-1.4-4.3c-0.4,1.2-0.8,2.4-1.2,3.7c-2.3-4.6-4.7-4.5-5.2-6.1c0,1.9,0,5.6,1.4,11.9
	c-1.5-0.5-1.1,0.5-4.2,0.5c4.1,1.5,2.8,2.9,5.4,5.8c-1.3,2,1,0.1,4.6,1.8c0.1,0.1,0.2,0.1,0.3,0.2c2,0.9,3.8-0.4,5.3-2.8
	C286.2,31.8,290.3,27.2,290.6,27.1z"/>
<path fill="#72BE44" d="M52.3,79.1c-1.2-0.8-3.8,2.3-6.5,2.3c2-5,4.5-9,4.6-11.3c-1,1-4.6,1.1-6.9,4c1-4.8,1.1-4.9-0.9-8.9
	c1.2,5.2-1.6,4.1-3.4,9.1c-0.5-1.9-1.1-3.5-1.4-4.3c-0.4,1.2-0.8,2.4-1.2,3.7c-2.3-4.6-4.7-4.5-5.2-6.1c0,1.9,0,5.6,1.4,11.9
	c-1.5-0.5-1.1,0.5-4.2,0.5c4.1,1.5,2.8,2.9,5.4,5.8c-1.3,2,1,0.1,4.6,1.8c0.1,0.1,0.2,0.1,0.3,0.2c2,0.9,3.8-0.4,5.3-2.8
	C47.9,83.8,52,79.1,52.3,79.1z"/>
<path fill="#72BE44" d="M663.8,63.1c-1.2-0.8-3.8,2.3-6.5,2.3c2-5,4.5-9,4.6-11.3c-1,1-4.6,1.1-6.9,4c1-4.8,1.1-4.9-0.9-8.9
	c1.2,5.2-1.6,4.1-3.4,9.1c-0.5-1.9-1.1-3.5-1.4-4.3c-0.4,1.2-0.8,2.4-1.2,3.7c-2.3-4.6-4.7-4.5-5.2-6.1c0,1.9,0,5.6,1.4,11.9
	c-1.5-0.5-1.1,0.5-4.2,0.5c4.1,1.5,2.8,2.9,5.4,5.8c-1.3,2,1,0.1,4.6,1.8c0.1,0.1,0.2,0.1,0.3,0.2c2,0.9,3.8-0.4,5.3-2.8
	C659.4,67.8,663.5,63.1,663.8,63.1z"/>
<path fill="#72BE44" d="M938.2,20.7c1.3-0.7,3.6,2.6,6.3,2.9c-1.6-5.2-3.7-9.4-3.6-11.7c0.9,1,4.5,1.4,6.5,4.6
	c-0.6-4.8-0.6-5,1.7-8.8c-1.6,5,1.3,4.2,2.6,9.4c0.7-1.9,1.4-3.4,1.8-4.1c0.3,1.2,0.6,2.5,0.9,3.7c2.7-4.4,5.1-4,5.7-5.6
	c-0.1,1.9-0.5,5.6-2.4,11.8c1.5-0.4,1,0.5,4.1,0.8c-4.2,1.1-3,2.6-5.9,5.3c1.1,2.1-1,0-4.7,1.4c-0.1,0.1-0.2,0.1-0.4,0.2
	c-2.1,0.7-3.8-0.8-5-3.3C942.2,25.8,938.5,20.8,938.2,20.7z"/>
<g>
	<g>
		<defs>
			<polygon id="XMLID_21_" points="881.4,36 882.6,31.7 886.2,30.5 888.6,31.9 890.1,33.8 890.7,34.5 890.3,35.2 889.4,36.5 
				885.3,36.7 			"/>
		</defs>
		<use xlink:href="#XMLID_21_"  overflow="visible" fill="#989898"/>
		<clipPath id="XMLID_22_">
			<use xlink:href="#XMLID_21_"  overflow="visible"/>
		</clipPath>
	</g>
	<path fill="#989898" d="M885.6,32.8"/>
	<polygon fill="#CCCBCB" points="882.6,31.7 883.5,33.8 885.2,33.7 887.1,34.8 888.3,33.9 888.6,31.9 886.2,30.5 	"/>
</g>
<g>
	<g>
		<defs>
			<polygon id="XMLID_20_" points="252.6,73.2 257.9,58.5 269.1,54.5 276.9,59 281.6,64.9 283.3,67.1 285,69.3 283.6,74.2 
				268.6,77.3 			"/>
		</defs>
		<use xlink:href="#XMLID_20_"  overflow="visible" fill="#989898"/>
		<clipPath id="XMLID_23_">
			<use xlink:href="#XMLID_20_"  overflow="visible"/>
		</clipPath>
	</g>
	<polygon fill="#CCCBCB" points="257.9,58.5 259.5,67.1 265.8,68.7 268,62.7 275.7,65.5 276.9,59 269.1,54.5 	"/>
</g>
<g>
	<g>
		<defs>
			<polygon id="XMLID_19_" points="923.7,69.9 929.1,55.2 940.3,51.1 948,55.7 952.7,61.6 954.4,63.8 956.1,66 954.7,70.8 
				939.8,73.9 			"/>
		</defs>
		<use xlink:href="#XMLID_19_"  overflow="visible" fill="#989898"/>
		<clipPath id="XMLID_24_">
			<use xlink:href="#XMLID_19_"  overflow="visible"/>
		</clipPath>
	</g>
	<polygon fill="#CCCBCB" points="929.1,55.2 930.6,63.8 937,65.3 939.1,59.4 946.8,62.1 948,55.7 940.3,51.1 	"/>
</g>
<g>
	<g>
		<defs>
			<polygon id="XMLID_18_" points="480.3,41.6 476.1,42.3 473.1,41 474.2,37.2 477.7,35.3 480.8,37.1 481.9,39.3 			"/>
		</defs>
		<use xlink:href="#XMLID_18_"  overflow="visible" fill="#989898"/>
		<clipPath id="XMLID_25_">
			<use xlink:href="#XMLID_18_"  overflow="visible"/>
		</clipPath>
	</g>
	<polygon fill="#CCCBCB" points="474.2,37.2 477.5,37.5 480.8,37.1 477.7,35.3 	"/>
</g>
<g>
	<g>
		<defs>
			<polygon id="XMLID_17_" points="136.8,48.1 132.6,48.9 129.6,47.5 130.7,43.8 134.2,41.8 137.2,43.6 138.4,45.9 			"/>
		</defs>
		<use xlink:href="#XMLID_17_"  overflow="visible" fill="#989898"/>
		<clipPath id="XMLID_26_">
			<use xlink:href="#XMLID_17_"  overflow="visible"/>
		</clipPath>
	</g>
	<polygon fill="#CCCBCB" points="130.7,43.8 134,44 137.2,43.6 134.2,41.8 	"/>
</g>
<g>
	<g>
		<defs>
			<polygon id="XMLID_16_" points="692.4,74.1 695.5,65.4 702.2,63 706.7,65.7 709.5,69.2 710.5,70.5 711.5,71.8 710.7,74.6 
				701.9,76.5 			"/>
		</defs>
		<use xlink:href="#XMLID_16_"  overflow="visible" fill="#989898"/>
		<clipPath id="XMLID_27_">
			<use xlink:href="#XMLID_16_"  overflow="visible"/>
		</clipPath>
	</g>
	<path fill="#989898" d="M701.2,67.3"/>
	<polygon fill="#CCCBCB" points="695.5,65.4 696.5,70.5 700.2,71.4 701.5,67.9 706,69.5 706.7,65.7 702.2,63 	"/>
</g>
<g>
	<g>
		<defs>
			<polygon id="XMLID_15_" points="303,30.3 304.7,24.1 309.8,22.2 313.4,24.3 315.6,27 316.3,28 315.8,29 314.5,31 308.6,31.3 			
				"/>
		</defs>
		<use xlink:href="#XMLID_15_"  overflow="visible" fill="#989898"/>
		<clipPath id="XMLID_28_">
			<use xlink:href="#XMLID_15_"  overflow="visible"/>
		</clipPath>
	</g>
	<path fill="#989898" d="M309.1,25.5"/>
	<polygon fill="#CCCBCB" points="304.7,24.1 306,27 308.5,26.9 311.1,28.5 312.9,27.3 313.4,24.3 309.8,22.2 	"/>
</g>
<g>
	<g>
		<defs>
			<polygon id="XMLID_14_" points="444.9,78.6 447.5,69.1 455.4,66.3 460.8,69.5 464.1,73.6 465.3,75.1 464.5,76.7 462.5,79.6 
				453.4,80.1 			"/>
		</defs>
		<use xlink:href="#XMLID_14_"  overflow="visible" fill="#989898"/>
		<clipPath id="XMLID_41_">
			<use xlink:href="#XMLID_14_"  overflow="visible"/>
		</clipPath>
	</g>
	<path fill="#989898" d="M454.2,71.4"/>
	<polygon fill="#CCCBCB" points="447.5,69.1 449.5,73.6 453.3,73.4 457.4,75.9 460,74 460.8,69.5 455.4,66.3 	"/>
</g>
<g>
	<g>
		<defs>
			<polygon id="XMLID_13_" points="748.2,84.8 750.8,75.3 758.7,72.5 764.1,75.7 767.4,79.8 768.6,81.3 767.7,82.9 765.8,85.8 
				756.7,86.3 			"/>
		</defs>
		<use xlink:href="#XMLID_13_"  overflow="visible" fill="#989898"/>
		<clipPath id="XMLID_51_">
			<use xlink:href="#XMLID_13_"  overflow="visible"/>
		</clipPath>
	</g>
	<path fill="#989898" d="M757.5,77.6"/>
	<polygon fill="#CCCBCB" points="750.8,75.3 752.8,79.8 756.6,79.6 760.7,82.1 763.3,80.2 764.1,75.7 758.7,72.5 	"/>
</g>
<g>
	<g>
		<defs>
			<polygon id="XMLID_12_" points="138.4,67.1 141.4,56.4 150.3,53.2 156.4,56.8 160.2,61.5 161.5,63.2 160.5,65 158.3,68.3 
				148.1,68.9 			"/>
		</defs>
		<use xlink:href="#XMLID_12_"  overflow="visible" fill="#989898"/>
		<clipPath id="XMLID_52_">
			<use xlink:href="#XMLID_12_"  overflow="visible"/>
		</clipPath>
	</g>
	<path fill="#989898" d="M148.9,58.9"/>
	<polygon fill="#CCCBCB" points="141.4,56.4 143.6,61.5 147.9,61.2 152.5,64 155.5,61.9 156.4,56.8 150.3,53.2 	"/>
</g>
<g>
	<g>
		<defs>
			<polygon id="XMLID_11_" points="0,43.1 3,32.4 11.9,29.2 18.1,32.8 21.8,37.5 23.1,39.3 22.2,41 19.9,44.4 9.7,44.9 			"/>
		</defs>
		<use xlink:href="#XMLID_11_"  overflow="visible" fill="#989898"/>
		<clipPath id="XMLID_53_">
			<use xlink:href="#XMLID_11_"  overflow="visible"/>
		</clipPath>
	</g>
	<path fill="#989898" d="M10.6,35"/>
	<polygon fill="#CCCBCB" points="3,32.4 5.2,37.6 9.5,37.3 14.2,40.1 17.1,37.9 18.1,32.8 11.9,29.2 	"/>
</g>
<g>
	<g>
		<defs>
			<polygon id="XMLID_10_" points="320.8,20.9 321.6,17.9 324,17.1 325.7,18.1 326.7,19.3 327.1,19.8 326.8,20.3 326.2,21.2 
				323.4,21.4 			"/>
		</defs>
		<use xlink:href="#XMLID_10_"  overflow="visible" fill="#989898"/>
		<clipPath id="XMLID_54_">
			<use xlink:href="#XMLID_10_"  overflow="visible"/>
		</clipPath>
	</g>
	<path fill="#989898" d="M323.6,18.6"/>
	<polygon fill="#CCCBCB" points="321.6,17.9 322.2,19.4 323.4,19.3 324.6,20 325.4,19.5 325.7,18.1 324,17.1 	"/>
</g>
<g>
	<g>
		<defs>
			<polygon id="XMLID_9_" points="599.5,20.9 600.4,17.9 602.8,17.1 604.5,18.1 605.5,19.3 605.8,19.8 605.6,20.3 605,21.2 
				602.2,21.4 			"/>
		</defs>
		<use xlink:href="#XMLID_9_"  overflow="visible" fill="#989898"/>
		<clipPath id="XMLID_55_">
			<use xlink:href="#XMLID_9_"  overflow="visible"/>
		</clipPath>
	</g>
	<path fill="#989898" d="M602.4,18.6"/>
	<polygon fill="#CCCBCB" points="600.4,17.9 601,19.4 602.1,19.3 603.4,20 604.2,19.5 604.5,18.1 602.8,17.1 	"/>
</g>
<g>
	<g>
		<defs>
			<polygon id="XMLID_8_" points="1105,81.7 1105.9,78.8 1108.3,77.9 1110,78.9 1111,80.2 1111.3,80.6 1111.1,81.1 1110.5,82 
				1107.7,82.2 			"/>
		</defs>
		<use xlink:href="#XMLID_8_"  overflow="visible" fill="#989898"/>
		<clipPath id="XMLID_56_">
			<use xlink:href="#XMLID_8_"  overflow="visible"/>
		</clipPath>
	</g>
	<path fill="#989898" d="M1107.9,79.5"/>
	<polygon fill="#CCCBCB" points="1105.9,78.8 1106.5,80.2 1107.6,80.1 1108.9,80.9 1109.7,80.3 1110,78.9 1108.3,77.9 	"/>
</g>
<g>
	<g>
		<defs>
			<polygon id="XMLID_7_" points="614.9,49 618.6,38.8 632.4,35.7 637.8,38.9 641,43 642.2,44.5 643.4,46 642.4,49.3 632.1,51.5 			
				"/>
		</defs>
		<use xlink:href="#XMLID_7_"  overflow="visible" fill="#989898"/>
		<clipPath id="XMLID_57_">
			<use xlink:href="#XMLID_7_"  overflow="visible"/>
		</clipPath>
	</g>
	<path fill="#989898" d="M631.3,40.7"/>
	<polygon fill="#CCCBCB" points="618.6,38.8 621.2,41.9 625.5,40.7 631.6,41.4 634.5,40.7 637.8,38.9 632.4,35.7 	"/>
</g>
<g>
	<g>
		<defs>
			<polygon id="XMLID_6_" points="952.2,77 955.9,66.8 969.7,63.7 975.1,66.8 978.3,70.9 979.5,72.4 980.7,74 979.7,77.3 
				969.4,79.4 			"/>
		</defs>
		<use xlink:href="#XMLID_6_"  overflow="visible" fill="#989898"/>
		<clipPath id="XMLID_58_">
			<use xlink:href="#XMLID_6_"  overflow="visible"/>
		</clipPath>
	</g>
	<path fill="#989898" d="M968.5,68.7"/>
	<polygon fill="#CCCBCB" points="955.9,66.8 958.5,69.9 962.8,68.7 968.9,69.4 971.8,68.7 975.1,66.8 969.7,63.7 	"/>
</g>
<g>
	<g>
		<defs>
			<polygon id="XMLID_5_" points="214,39.9 210.5,31.2 200.3,28.9 196.3,31.3 193.9,34.3 193,35.4 192.2,36.5 192.9,39 203.1,42.8 
							"/>
		</defs>
		<use xlink:href="#XMLID_5_"  overflow="visible" fill="#989898"/>
		<clipPath id="XMLID_59_">
			<use xlink:href="#XMLID_5_"  overflow="visible"/>
		</clipPath>
	</g>
	<path fill="#989898" d="M201.1,32.6"/>
	<polygon fill="#CCCBCB" points="210.5,31.2 208.6,33.5 205.1,36.9 200.9,33.1 198.7,32.6 196.3,31.3 200.3,28.9 	"/>
</g>
<g>
	<g>
		<defs>
			<polygon id="XMLID_4_" points="665.7,85.3 660.8,86.2 657.3,84.6 658.6,80.2 662.7,78 666.2,80.1 667.6,82.7 			"/>
		</defs>
		<use xlink:href="#XMLID_4_"  overflow="visible" fill="#989898"/>
		<clipPath id="XMLID_60_">
			<use xlink:href="#XMLID_4_"  overflow="visible"/>
		</clipPath>
	</g>
	<polygon fill="#CCCBCB" points="658.6,80.2 662.4,80.6 666.2,80.1 662.7,78 	"/>
</g>
<g>
	<g>
		<defs>
			<polygon id="XMLID_3_" points="1012.3,43.9 1007.3,44.8 1003.9,43.2 1005.2,38.9 1009.2,36.6 1012.8,38.7 1014.1,41.3 			"/>
		</defs>
		<use xlink:href="#XMLID_3_"  overflow="visible" fill="#989898"/>
		<clipPath id="XMLID_61_">
			<use xlink:href="#XMLID_3_"  overflow="visible"/>
		</clipPath>
	</g>
	<polygon fill="#CCCBCB" points="1005.2,38.9 1009,39.2 1012.8,38.7 1009.2,36.6 	"/>
</g>
<g>
	<g>
		<defs>
			<polygon id="XMLID_2_" points="681,40.5 676.7,41.3 673.7,39.9 674.8,36.1 678.4,34.2 681.5,36 682.6,38.3 			"/>
		</defs>
		<use xlink:href="#XMLID_2_"  overflow="visible" fill="#989898"/>
		<clipPath id="XMLID_62_">
			<use xlink:href="#XMLID_2_"  overflow="visible"/>
		</clipPath>
	</g>
	<polygon fill="#CCCBCB" points="674.8,36.1 678.2,36.4 681.5,36 678.4,34.2 	"/>
</g>
<g>
	<g>
		<defs>
			<polygon id="XMLID_1_" points="1055.7,84.2 1051.5,84.9 1048.4,83.6 1049.6,79.8 1053.1,77.8 1056.2,79.6 1057.4,81.9 			"/>
		</defs>
		<use xlink:href="#XMLID_1_"  overflow="visible" fill="#989898"/>
		<clipPath id="XMLID_63_">
			<use xlink:href="#XMLID_1_"  overflow="visible"/>
		</clipPath>
	</g>
	<polygon fill="#CCCBCB" points="1049.6,79.8 1052.9,80.1 1056.2,79.6 1053.1,77.8 	"/>
</g>
<g>
	<path fill="#996733" d="M238.2,40.3c0,0-13.9,9.6-12.9,0.5s7-4,8.2-5.4c1.1-1.4-13.1,0.4-9.4-5.2s9.2,1.7,10.5-0.4
		c1.3-2.1-12.8-4-10.3-10c1.7-4,6-6.2,11.3,0.8c0,0-4.5-15.6,3-14.8s4.2,7.8,3,14.7c0,0,7.9-4.3,9.9,0.3c2,4.6-2.8,8.1-11.3,8.6
		c0,0,11.7-1.8,10.6,4.1c-0.8,4.2-6.3,2.5-11.3,1.7c0,0,15.4,1.4,9.5,7.4C243,48.5,238.2,40.3,238.2,40.3z"/>
	<g>
		<path fill="#663333" d="M238.6,63.2c0,0,0,0-0.1-0.1c0,0-0.1-0.1-0.1-0.2c-0.1-0.1-0.2-0.3-0.3-0.5c-0.3-0.5-0.3-0.6-0.4-0.9
			c-0.1-0.3-0.2-0.6-0.3-1c-0.3-1.4-0.6-3.3-0.8-5.7c-0.5-4.6-0.8-10.8-0.8-17c0-6.2,0.4-12.3,1.1-16.9c0.2-1.1,0.4-2.2,0.6-3.1
			c0.2-0.9,0.4-1.7,0.6-2.4c0.2-0.6,0.4-1.1,0.5-1.5c0.1-0.3,0.2-0.5,0.2-0.5s-0.1,0.2-0.2,0.5c-0.1,0.3-0.3,0.8-0.4,1.5
			c-0.2,0.6-0.3,1.5-0.5,2.4c-0.1,0.9-0.3,2-0.4,3.1c-0.4,4.6-0.4,10.7-0.1,16.8c0.4,6.1,1,12.2,1.8,16.7c0.4,2.2,0.8,4.1,1.1,5.3
			c0.1,0.3,0.2,0.6,0.2,0.8c0.1,0.2,0.2,0.4,0.1,0.3c0,0-0.1,0-0.1,0c0,0,0.1,0.1,0.1,0.1c0.1,0.1,0.1,0.1,0.1,0.1l0.1,0.1
			c0.6,0.6,0.5,1.6-0.1,2.1C240.2,63.9,239.2,63.8,238.6,63.2C238.6,63.2,238.6,63.2,238.6,63.2z"/>
	</g>
	<path fill="#996733" d="M251.7,46.4c0,0,0.8,9.3,4.3,5.7c3.6-3.6-0.7-4.4-0.5-5.4c0.2-1,4.4,5.8,5.5,2.2c1.1-3.5-3.9-3.3-3.5-4.6
		c0.4-1.3,6.2,4.1,7.9,0.9c1.1-2.1,0.5-4.7-4.3-4.6c0,0,8.2-3.5,5.3-6.4s-4.8,0.9-7.3,3.9c0,0-0.9-4.8-3.6-4.1
		c-2.7,0.7-2.4,4,0.3,7.8c0,0-3.3-5.6-5.5-3.1c-1.5,1.8,1.1,3.5,3.2,5.4c0,0-6-6.1-6.5-1.5S251.7,46.4,251.7,46.4z"/>
	<g>
		<path fill="#663333" d="M237.9,55.3c0,0,7.2-4.4,14.1-9.3c1.7-1.2,3.4-2.5,5-3.7c0.8-0.6,1.5-1.2,2.2-1.8c0.7-0.6,1.3-1.1,1.9-1.7
			c0.6-0.5,1.1-1,1.6-1.5c0.4-0.5,0.9-0.9,1.1-1.2c0.6-0.7,0.9-1.1,0.9-1.1s-0.3,0.4-0.9,1.2c-0.3,0.4-0.7,0.8-1.1,1.3
			c-0.4,0.5-0.9,1-1.5,1.6c-0.6,0.6-1.2,1.2-1.9,1.8c-0.7,0.6-1.4,1.3-2.2,1.9c-1.5,1.3-3.2,2.6-4.8,3.9c-6.7,5.2-13.8,9.9-13.8,9.9
			L237.9,55.3z"/>
	</g>
	<g>
		<path fill="#996733" d="M230.5,52.9c0,0-2.2,9.2-5.2,5s1.4-4.3,1.4-5.3c0-1-5.3,5.1-5.9,1.4s4.5-2.7,4.2-4c-0.2-1.3-6.9,3.1-8-0.4
			c-0.8-2.3,0.2-4.8,5-3.9c0,0-7.7-4.8-4.2-7.3c3.5-2.4,4.7,1.7,6.7,5c0,0,1.7-4.7,4.2-3.5c2.5,1.2,1.8,4.4-1.5,7.8
			c0,0,4.2-5.1,5.9-2.2c1.3,2.1-1.7,3.4-4.1,4.9c0,0,6.9-5.2,6.7-0.4S230.5,52.9,230.5,52.9z"/>
		<g>
			<path fill="#663333" d="M238.9,61.9c0,0-5-4.6-9.7-9.6c-2.3-2.5-4.6-5.1-6.1-7.1c-0.4-0.5-0.7-1-1-1.4c-0.3-0.4-0.5-0.8-0.7-1.1
				c-0.4-0.7-0.6-1-0.6-1s0.2,0.4,0.6,1c0.2,0.3,0.5,0.7,0.8,1.1c0.3,0.4,0.6,0.9,1,1.4c1.6,2,3.9,4.5,6.3,6.9
				c4.8,4.8,10,9.2,10,9.2L238.9,61.9z"/>
		</g>
	</g>
</g>
<g>
	<path fill="#996733" d="M987.1,40.7c0,0-16.4,11.3-15.2,0.6s8.3-4.7,9.6-6.4s-15.5,0.5-11.1-6.1c4.4-6.6,10.8,2,12.3-0.4
		c1.5-2.5-15.1-4.7-12.1-11.8c2-4.7,7-7.2,13.3,0.9c0,0-5.3-18.4,3.5-17.4c8.9,1,5,9.2,3.5,17.3c0,0,9.3-5,11.6,0.4
		s-3.3,9.5-13.3,10.1c0,0,13.8-2.1,12.5,4.8c-0.9,5-7.4,2.9-13.3,1.9c0,0,18.1,1.6,11.2,8.7C992.8,50.4,987.1,40.7,987.1,40.7z"/>
	<g>
		<path fill="#663333" d="M987.7,67.7c0,0-0.1,0-0.2-0.1c-0.1-0.1-0.3-0.4-0.4-0.6c-0.1-0.1-0.2-0.3-0.2-0.4
			c-0.3-0.6-0.4-1.2-0.6-2.1c-0.4-1.7-0.7-3.9-1-6.7c-0.6-5.5-0.9-12.7-0.9-20c0-7.3,0.5-14.5,1.3-19.9c0.4-2.7,0.9-4.9,1.4-6.4
			c0.2-0.8,0.4-1.3,0.6-1.7c0.2-0.4,0.2-0.6,0.2-0.6s-0.1,0.2-0.2,0.6c-0.1,0.4-0.3,1-0.5,1.8c-0.4,1.5-0.7,3.8-1,6.4
			c-0.5,5.4-0.5,12.6-0.1,19.8c0.4,7.2,1.2,14.3,2.1,19.6c0.4,2.6,0.9,4.8,1.3,6.2c0.2,0.7,0.4,1.2,0.5,1.4c0,0.1,0,0,0,0.1
			c0,0-0.1-0.2-0.2-0.2c0,0,0.1,0.1,0.1,0.1c0.7,0.6,0.8,1.7,0.2,2.5C989.6,68.3,988.5,68.4,987.7,67.7z"/>
	</g>
	<path fill="#996733" d="M1003,47.9c0,0,0.9,10.9,5.1,6.7c4.2-4.2-0.9-5.2-0.6-6.3c0.2-1.2,5.2,6.8,6.5,2.6c1.3-4.1-4.6-3.9-4.1-5.4
		c0.5-1.5,7.3,4.8,9.3,1c1.3-2.5,0.6-5.5-5-5.4c0,0,9.7-4.1,6.2-7.6s-5.7,1.1-8.6,4.5c0,0-1.1-5.7-4.2-4.8s-2.9,4.7,0.3,9.2
		c0,0-3.9-6.6-6.4-3.6c-1.8,2.1,1.3,4.2,3.8,6.3c0,0-7-7.2-7.6-1.7C996.9,48.9,1003,47.9,1003,47.9z"/>
	<g>
		<path fill="#663333" d="M986.8,58.4c0,0,8.5-5.2,16.6-11c2-1.5,4-2.9,5.8-4.4c0.9-0.7,1.8-1.4,2.6-2.1c0.8-0.7,1.6-1.4,2.3-2
			c0.3-0.3,0.7-0.6,1-0.9c0.3-0.3,0.6-0.6,0.8-0.9c0.5-0.5,1-1,1.3-1.4c0.7-0.8,1.1-1.3,1.1-1.3s-0.4,0.5-1,1.4
			c-0.3,0.4-0.8,0.9-1.3,1.5c-0.3,0.3-0.5,0.6-0.8,0.9c-0.3,0.3-0.6,0.6-1,0.9c-0.7,0.7-1.4,1.4-2.2,2.1c-0.8,0.7-1.6,1.5-2.5,2.2
			c-1.8,1.5-3.7,3.1-5.7,4.6c-7.9,6.1-16.3,11.7-16.3,11.7L986.8,58.4z"/>
	</g>
	<g>
		<path fill="#996733" d="M978.1,55.6c0,0-2.6,10.8-6.1,5.9s1.7-5,1.6-6.2c0-1.2-6.3,5.9-6.9,1.6c-0.6-4.4,5.3-3.2,5-4.8
			s-8.1,3.6-9.4-0.4c-0.9-2.7,0.2-5.6,5.9-4.6c0,0-9-5.7-5-8.6c4.1-2.9,5.5,2,7.9,5.9c0,0,2-5.5,5-4.2c3,1.4,2.1,5.2-1.8,9.1
			c0,0,4.9-6,7-2.6c1.5,2.4-2,4-4.8,5.7c0,0,8.2-6.1,7.9-0.5C984.1,57.5,978.1,55.6,978.1,55.6z"/>
		<g>
			<path fill="#663333" d="M988,66.1c0,0-5.9-5.4-11.4-11.3c-1.4-1.5-2.7-2.9-3.9-4.4c-0.6-0.7-1.2-1.4-1.7-2.1
				c-0.5-0.7-1-1.3-1.5-1.9c-0.5-0.6-0.8-1.2-1.2-1.7c-0.3-0.5-0.6-0.9-0.8-1.3c-0.4-0.8-0.7-1.2-0.7-1.2s0.3,0.4,0.7,1.2
				c0.2,0.4,0.5,0.8,0.9,1.3c0.3,0.5,0.8,1.1,1.2,1.6c0.5,0.6,1,1.2,1.5,1.9c0.6,0.7,1.2,1.3,1.8,2c1.3,1.4,2.7,2.8,4.1,4.2
				c5.7,5.6,11.8,10.8,11.8,10.8L988,66.1z"/>
		</g>
	</g>
</g>
<g>
	<g>
		<path fill="#FFFF00" d="M901.2,48.8c-0.1-0.3-0.5-0.4-0.9-0.4c0.2-0.3,0.1-0.6-0.1-0.8c-0.2-0.2-0.6-0.2-0.9-0.2
			c0-0.3-0.2-0.5-0.5-0.6c-0.4-0.1-0.8,0-1.1,0.2c-0.1-0.3-0.4-0.5-0.9-0.4c-0.4,0-0.7,0.2-0.9,0.4c-0.2-0.2-0.6-0.2-1-0.1
			c-0.4,0.1-0.7,0.4-0.8,0.7c-0.3-0.1-0.8-0.1-1.1,0.2c-0.3,0.2-0.5,0.6-0.4,0.8c-0.4,0-0.8,0.2-1,0.5c-0.2,0.3-0.2,0.5-0.1,0.8
			c-0.3,0.1-0.6,0.4-0.7,0.7c-0.1,0.3,0.1,0.6,0.4,0.8c-0.3,0.2-0.5,0.5-0.5,0.9c0.1,0.3,0.3,0.4,0.6,0.5c-0.2,0.3-0.2,0.5,0,0.8
			c0.2,0.2,0.6,0.3,1,0.3c-0.1,0.3,0,0.6,0.4,0.8c0.3,0.1,0.6,0.1,1,0c0.1,0.2,0.3,0.4,0.7,0.5c0.4,0,0.8-0.1,1.1-0.4
			c0.2,0.2,0.6,0.4,1,0.3c0.4-0.1,0.7-0.3,0.8-0.5c0.3,0.1,0.7,0.1,1-0.1c0.4-0.2,0.6-0.5,0.6-0.8c0.4,0.1,0.8-0.1,1.1-0.3
			c0.2-0.2,0.3-0.5,0.3-0.8c0.3-0.1,0.6-0.3,0.8-0.6c0.2-0.3,0.1-0.6-0.2-0.8c0.4-0.2,0.6-0.5,0.7-0.8c0-0.3-0.2-0.5-0.4-0.6
			C901.2,49.3,901.3,49,901.2,48.8z M896.5,52.3c-1.2,0.4-2.5,0-2.7-1c-0.3-0.9,0.5-2,1.7-2.3c1.2-0.4,2.5,0,2.7,1
			C898.5,50.9,897.8,51.9,896.5,52.3z"/>
	</g>
	
		<ellipse transform="matrix(-0.9559 0.2938 -0.2938 -0.9559 1767.4847 -164.2464)" fill="#FF9900" cx="896.1" cy="50.6" rx="2.7" ry="2"/>
</g>
<g>
	<g>
		<path fill="#FFFF00" d="M913.7,52.8c0.1-0.3-0.1-0.7-0.4-1c0.4-0.1,0.6-0.4,0.5-0.8c-0.1-0.3-0.3-0.6-0.6-0.8
			c0.2-0.2,0.2-0.5,0-0.9c-0.2-0.3-0.6-0.6-1-0.6c0.1-0.3,0-0.7-0.4-1c-0.3-0.2-0.7-0.4-1-0.3c-0.1-0.3-0.3-0.6-0.7-0.8
			c-0.4-0.2-0.8-0.2-1.1,0c-0.2-0.3-0.6-0.6-1-0.7c-0.4-0.1-0.8,0.1-0.9,0.4c-0.3-0.3-0.8-0.4-1.2-0.3c-0.3,0.1-0.6,0.3-0.6,0.6
			c-0.4-0.1-0.7-0.1-1,0.1c-0.3,0.2-0.4,0.5-0.2,0.9c-0.4-0.1-0.8,0.1-1,0.4c-0.1,0.3-0.1,0.6,0.1,0.8c-0.3,0.1-0.5,0.3-0.5,0.6
			c0,0.4,0.2,0.7,0.6,0.9c-0.3,0.2-0.4,0.5-0.3,0.9c0.1,0.3,0.4,0.6,0.8,0.7c-0.1,0.3,0,0.6,0.2,0.9c0.3,0.3,0.7,0.5,1.1,0.5
			c0,0.3,0.2,0.7,0.6,0.9c0.3,0.2,0.7,0.3,1,0.2c0.2,0.3,0.5,0.5,0.8,0.7c0.4,0.1,0.8,0,1.1-0.2c0.3,0.3,0.7,0.5,1.1,0.5
			c0.4,0,0.6-0.2,0.8-0.4c0.3,0.2,0.7,0.2,1,0.1c0.4-0.1,0.5-0.5,0.5-0.8c0.4,0.1,0.9,0.1,1.1-0.2c0.2-0.2,0.2-0.5,0.1-0.8
			C913.4,53.3,913.7,53.1,913.7,52.8z M907.5,52.4c-1.3-0.6-1.9-1.8-1.5-2.7c0.4-0.9,1.8-1.3,3-0.7c1.3,0.6,1.9,1.8,1.5,2.7
			S908.7,53,907.5,52.4z"/>
	</g>
	
		<ellipse transform="matrix(-0.912 -0.4103 0.4103 -0.912 1715.8921 469.5426)" fill="#FF9900" cx="908.3" cy="50.7" rx="2.8" ry="2.2"/>
</g>
<g>
	<g>
		<path fill="#FFFF00" d="M905.1,47.6c0-0.3-0.2-0.5-0.5-0.5c0.2-0.2,0.2-0.5,0.1-0.7c-0.1-0.2-0.4-0.3-0.6-0.3c0-0.2,0-0.4-0.3-0.6
			c-0.2-0.2-0.5-0.2-0.8-0.1c0-0.2-0.2-0.5-0.5-0.6c-0.3-0.1-0.5,0-0.7,0.1c-0.1-0.2-0.4-0.3-0.7-0.3c-0.3,0-0.6,0.2-0.7,0.4
			c-0.2-0.2-0.5-0.2-0.8-0.1c-0.3,0.1-0.5,0.3-0.5,0.6c-0.3-0.1-0.6,0-0.8,0.2c-0.2,0.2-0.3,0.4-0.2,0.6c-0.3,0-0.5,0.2-0.6,0.4
			c-0.1,0.2-0.1,0.5,0.1,0.7c-0.3,0.1-0.5,0.3-0.5,0.6c0,0.2,0.1,0.4,0.3,0.5c-0.2,0.2-0.2,0.4-0.1,0.6c0.1,0.2,0.3,0.4,0.6,0.4
			c-0.1,0.2-0.1,0.5,0.1,0.7c0.2,0.2,0.4,0.2,0.7,0.2c0,0.2,0.1,0.4,0.4,0.5c0.3,0.1,0.6,0.1,0.8,0c0.1,0.2,0.3,0.4,0.6,0.5
			c0.3,0,0.5-0.1,0.7-0.2c0.2,0.2,0.4,0.2,0.7,0.2c0.3-0.1,0.5-0.2,0.6-0.5c0.3,0.1,0.6,0.1,0.8,0c0.2-0.1,0.3-0.3,0.3-0.5
			c0.3,0,0.5-0.1,0.7-0.3c0.2-0.2,0.2-0.5,0.1-0.7c0.3,0,0.5-0.2,0.6-0.5c0.1-0.2,0-0.4-0.2-0.6C905,48,905.1,47.8,905.1,47.6z
			 M901.1,49.3c-0.9,0-1.7-0.6-1.7-1.4c0-0.8,0.7-1.4,1.7-1.5c0.9,0,1.7,0.6,1.7,1.4S902,49.3,901.1,49.3z"/>
	</g>
	
		<ellipse transform="matrix(-0.9999 1.528934e-02 -1.528934e-02 -0.9999 1802.8981 81.9052)" fill="#FF9900" cx="901.1" cy="47.8" rx="1.9" ry="1.6"/>
</g>
<g>
	<g>
		<path fill="#FFFF00" d="M161.6,34.1c-0.1-0.3-0.5-0.4-0.9-0.4c0.2-0.3,0.1-0.6-0.1-0.8c-0.2-0.2-0.6-0.2-0.9-0.2
			c0-0.3-0.2-0.5-0.5-0.6c-0.4-0.1-0.8,0-1.1,0.2c-0.1-0.3-0.4-0.5-0.9-0.4c-0.4,0-0.7,0.2-0.9,0.4c-0.2-0.2-0.6-0.2-1-0.1
			c-0.4,0.1-0.7,0.4-0.8,0.7c-0.3-0.1-0.8-0.1-1.1,0.2c-0.3,0.2-0.5,0.6-0.4,0.8c-0.4,0-0.8,0.2-1,0.5c-0.2,0.3-0.2,0.5-0.1,0.8
			c-0.3,0.1-0.6,0.4-0.7,0.7c-0.1,0.3,0.1,0.6,0.4,0.8c-0.3,0.2-0.5,0.5-0.5,0.9c0.1,0.3,0.3,0.4,0.6,0.5c-0.2,0.3-0.2,0.5,0,0.8
			c0.2,0.2,0.6,0.3,1,0.3c-0.1,0.3,0,0.6,0.4,0.8c0.3,0.1,0.6,0.1,1,0c0.1,0.2,0.3,0.4,0.7,0.5c0.4,0,0.8-0.1,1.1-0.4
			c0.2,0.2,0.6,0.4,1,0.3c0.4-0.1,0.7-0.3,0.8-0.5c0.3,0.1,0.7,0.1,1-0.1c0.4-0.2,0.6-0.5,0.6-0.8c0.4,0.1,0.8-0.1,1.1-0.3
			c0.2-0.2,0.3-0.5,0.3-0.8c0.3-0.1,0.6-0.3,0.8-0.6c0.2-0.3,0.1-0.6-0.2-0.8c0.4-0.2,0.6-0.5,0.7-0.8c0-0.3-0.2-0.5-0.4-0.6
			C161.6,34.7,161.7,34.4,161.6,34.1z M156.9,37.7c-1.2,0.4-2.5,0-2.7-1c-0.3-0.9,0.5-2,1.7-2.3c1.2-0.4,2.5,0,2.7,1
			C158.9,36.3,158.2,37.3,156.9,37.7z"/>
	</g>
	
		<ellipse transform="matrix(-0.9559 0.2938 -0.2938 -0.9559 316.6141 24.4234)" fill="#FF9900" cx="156.5" cy="36" rx="2.7" ry="2"/>
</g>
<g>
	<g>
		<path fill="#FFFF00" d="M172.2,38.9c0.1-0.3-0.1-0.7-0.4-1c0.4-0.1,0.6-0.4,0.5-0.8c-0.1-0.3-0.3-0.6-0.6-0.8
			c0.2-0.2,0.2-0.5,0-0.9c-0.2-0.3-0.6-0.6-1-0.6c0.1-0.3,0-0.7-0.4-1c-0.3-0.2-0.7-0.4-1-0.3c-0.1-0.3-0.3-0.6-0.7-0.8
			c-0.4-0.2-0.8-0.2-1.1,0c-0.2-0.3-0.6-0.6-1-0.7c-0.4-0.1-0.8,0.1-0.9,0.4c-0.3-0.3-0.8-0.4-1.2-0.3c-0.3,0.1-0.6,0.3-0.6,0.6
			c-0.4-0.1-0.7-0.1-1,0.1c-0.3,0.2-0.4,0.5-0.2,0.9c-0.4-0.1-0.8,0.1-1,0.4c-0.1,0.3-0.1,0.6,0.1,0.8c-0.3,0.1-0.5,0.3-0.5,0.6
			c0,0.4,0.2,0.7,0.6,0.9c-0.3,0.2-0.4,0.5-0.3,0.9c0.1,0.3,0.4,0.6,0.8,0.7c-0.1,0.3,0,0.6,0.2,0.9c0.3,0.3,0.7,0.5,1.1,0.5
			c0,0.3,0.2,0.7,0.6,0.9c0.3,0.2,0.7,0.3,1,0.2c0.2,0.3,0.5,0.5,0.8,0.7c0.4,0.1,0.8,0,1.1-0.2c0.3,0.3,0.7,0.5,1.1,0.5
			c0.4,0,0.6-0.2,0.8-0.4c0.3,0.2,0.7,0.2,1,0.1c0.4-0.1,0.5-0.5,0.5-0.8c0.4,0.1,0.9,0.1,1.1-0.2c0.2-0.2,0.2-0.5,0.1-0.8
			C171.8,39.4,172.1,39.2,172.2,38.9z M165.9,38.6c-1.3-0.6-1.9-1.8-1.5-2.7c0.4-0.9,1.8-1.3,3-0.7c1.3,0.6,1.9,1.8,1.5,2.7
			C168.5,38.8,167.2,39.1,165.9,38.6z"/>
	</g>
	
		<ellipse transform="matrix(-0.912 -0.4103 0.4103 -0.912 303.7423 138.8634)" fill="#FF9900" cx="166.8" cy="36.8" rx="2.8" ry="2.2"/>
</g>
<g>
	<g>
		<path fill="#FFFF00" d="M166.6,37.5c0-0.4-0.4-0.7-0.7-0.8c0.3-0.3,0.3-0.7,0.1-1c-0.2-0.3-0.5-0.5-0.9-0.5
			c0.1-0.3-0.1-0.6-0.4-0.8c-0.3-0.2-0.8-0.3-1.2-0.2c0-0.4-0.3-0.7-0.7-0.8c-0.4-0.1-0.7,0-1,0.1c-0.2-0.3-0.6-0.4-0.9-0.4
			c-0.4,0-0.8,0.2-1,0.5c-0.3-0.2-0.8-0.3-1.2-0.2c-0.4,0.1-0.7,0.5-0.7,0.8c-0.4-0.1-0.9-0.1-1.2,0.2c-0.3,0.2-0.4,0.5-0.3,0.8
			c-0.4,0-0.7,0.2-0.9,0.5c-0.2,0.3-0.1,0.7,0.2,1c-0.4,0.1-0.7,0.5-0.7,0.8c0,0.3,0.2,0.6,0.4,0.8c-0.2,0.2-0.3,0.6-0.2,0.9
			c0.1,0.4,0.5,0.6,0.9,0.6c-0.2,0.3-0.2,0.7,0.1,1c0.2,0.2,0.6,0.4,1,0.3c0,0.3,0.2,0.6,0.6,0.8c0.4,0.2,0.8,0.2,1.2,0
			c0.1,0.3,0.5,0.6,0.9,0.7c0.4,0,0.7-0.1,1-0.3c0.3,0.2,0.6,0.3,1,0.3c0.4-0.1,0.8-0.4,0.9-0.7c0.4,0.2,0.8,0.2,1.2,0
			c0.3-0.2,0.5-0.5,0.5-0.8c0.4,0,0.7-0.1,1-0.4c0.3-0.3,0.3-0.7,0.1-1c0.4-0.1,0.8-0.3,0.9-0.7c0.1-0.3,0-0.6-0.3-0.8
			C166.5,38.1,166.7,37.8,166.6,37.5z M160.9,40c-1.4,0-2.5-0.9-2.5-2c0-1.1,1.1-2.1,2.4-2.1c1.4,0,2.5,0.9,2.5,2
			C163.3,39.1,162.2,40,160.9,40z"/>
	</g>
	
		<ellipse transform="matrix(-0.9999 1.528934e-02 -1.528934e-02 -0.9999 322.4157 73.3391)" fill="#FF9900" cx="160.9" cy="37.9" rx="2.8" ry="2.4"/>
</g>
</svg>
