<!-- Generator: Adobe Illustrator 18.1.1, SVG Export Plug-In  -->
<svg version="1.1"
	 xmlns="http://www.w3.org/2000/svg" xmlns:xlink="http://www.w3.org/1999/xlink" xmlns:a="http://ns.adobe.com/AdobeSVGViewerExtensions/3.0/"
	 x="0px" y="0px" width="56.1px" height="85.9px" viewBox="0 0 56.1 85.9" enable-background="new 0 0 56.1 85.9"
	 xml:space="preserve">
<defs>
</defs>
<g id="frontLleg_copy">
	<g>
		<g>
			<g>
				<path fill="#CCCC66" d="M42.6,0c0,0,0.3,0.3,0.7,0.9c0.4,0.6,1,1.5,1.5,2.6c0.6,1.1,1.2,2.5,1.6,4c0.5,1.5,0.8,3.2,0.9,4.9
					c0.1,0.9,0,1.7,0,2.6c-0.1,0.8-0.2,1.7-0.4,2.4c-0.2,0.8-0.5,1.5-0.8,2.2c-0.3,0.7-0.7,1.3-1,1.8c-0.3,0.5-0.7,1-1.1,1.4
					c-0.4,0.4-0.7,0.7-1,0.9c-0.6,0.5-0.9,0.7-0.9,0.7s0.3-0.3,0.8-0.9c0.2-0.3,0.5-0.6,0.8-1c0.3-0.4,0.6-0.9,0.9-1.4
					c0.6-1.1,1.1-2.4,1.4-3.9c0.2-0.7,0.3-1.5,0.3-2.3c0.1-0.8,0-1.6,0-2.4c-0.1-1.6-0.4-3.2-0.8-4.7c-0.4-1.5-0.8-2.9-1.3-4
					C43.4,1.5,42.6,0,42.6,0z"/>
			</g>
			<g>
				<path fill="#CCCC66" d="M0.1,18.2c0,0,0,0.1,0,0.3c0,0.2,0,0.5,0.1,1c0.1,0.4,0.3,0.9,0.5,1.4c0.1,0.3,0.3,0.5,0.4,0.8
					c0.2,0.3,0.4,0.5,0.6,0.8c0.2,0.3,0.5,0.5,0.7,0.8c0.2,0.3,0.5,0.6,0.8,0.8c0.6,0.6,1.3,1.1,2,1.6c0.7,0.5,1.5,0.9,2.3,1.4
					c0.8,0.4,1.7,0.8,2.5,1.2c0.9,0.4,1.8,0.7,2.6,1c0.9,0.3,1.8,0.6,2.6,0.9c0.8,0.3,1.7,0.5,2.5,0.7c0.8,0.2,1.5,0.4,2.2,0.6
					c1.4,0.3,2.6,0.6,3.4,0.8c0.8,0.2,1.3,0.3,1.3,0.3s-0.5-0.1-1.3-0.1c-0.8-0.1-2-0.2-3.5-0.4c-0.7-0.1-1.5-0.3-2.3-0.5
					c-0.8-0.2-1.7-0.3-2.5-0.6c-0.9-0.3-1.8-0.5-2.7-0.8c-0.9-0.3-1.8-0.7-2.7-1C8.7,28.9,7.9,28.4,7,28c-0.8-0.5-1.6-1-2.4-1.6
					c-0.4-0.3-0.7-0.6-1.1-0.9C3.3,25.3,3,25,2.7,24.7c-0.3-0.3-0.6-0.6-0.8-0.9c-0.2-0.3-0.5-0.6-0.7-0.9c-0.2-0.3-0.3-0.6-0.5-0.9
					c-0.1-0.3-0.2-0.6-0.3-0.9c-0.2-0.6-0.3-1.1-0.3-1.5c-0.1-0.4,0-0.8,0-1C0,18.3,0.1,18.2,0.1,18.2z"/>
			</g>
			<g>
				<g>
					<path fill="#FFFF67" d="M35.5,3.7c0,0,21.3,21.3,20.3,46.7c-0.4,8.9-17.1,21.3-20.4,24.1l-6.2,4.7c0,0-0.1,0.1-0.1,0.1L8,85.9
						c-0.4,0.1-0.8-0.3-0.6-0.7l4.4-6.7c0.2-0.3,0-0.8-0.4-0.7l-9.7,0.5c-0.5,0-0.7-0.6-0.3-0.9l6.9-4.6c0.4-0.2,0.2-0.8-0.2-0.9
						l-5.2-1.1c-0.5-0.1-0.5-0.8,0-0.9l9.1-2.9c2.7-0.9,7.6-3.9,8.9-6.4c2.3-4.3,6.2-9.3,5.5-16.2c0-0.1-0.1-0.2-0.2-0.3
						C24.3,42.4,4.1,24.9,5.1,13.5"/>
				</g>
				<g>
					<g>
						<path fill="#CCCC66" d="M26.3,44.1c0,0-2.1-1.3-4.8-3.6c-1.4-1.2-3-2.6-4.6-4.2c-0.8-0.8-1.6-1.6-2.4-2.5
							c-0.8-0.9-1.6-1.8-2.4-2.7c-0.8-0.9-1.5-1.9-2.2-2.9c-0.7-1-1.3-2-1.9-3c-0.6-1-1.1-2-1.5-2.9c-0.4-1-0.8-1.9-1-2.8
							c-0.1-0.4-0.3-0.9-0.3-1.3c-0.1-0.4-0.1-0.8-0.2-1.2c-0.1-0.7-0.1-1.4-0.1-1.9c0-0.5,0.1-0.9,0.1-1.2c0-0.3,0.1-0.4,0.1-0.4
							s0,0.2,0,0.4c0,0.3,0.1,0.7,0.2,1.2c0.1,0.5,0.3,1.1,0.4,1.8c0.2,0.7,0.5,1.4,0.9,2.2C7,20,7.5,20.8,7.9,21.7
							c0.5,0.9,1.1,1.8,1.7,2.7c0.6,0.9,1.3,1.8,2,2.8c0.7,0.9,1.4,1.9,2.2,2.8c0.7,0.9,1.5,1.8,2.2,2.7c0.8,0.9,1.5,1.7,2.2,2.6
							c1.5,1.7,2.9,3.2,4.1,4.5C24.7,42.4,26.3,44.1,26.3,44.1z"/>
					</g>
					<g>
						<path fill="#CCCC66" d="M35.5,3.7c0,0,0.6,0.5,1.7,1.5C37.7,5.7,38.3,6.3,39,7c0.7,0.7,1.5,1.6,2.2,2.5c0.8,0.9,1.7,2,2.5,3.1
							c0.9,1.1,1.7,2.3,2.6,3.6c0.9,1.3,1.7,2.7,2.5,4.1c0.7,1.4,1.6,2.9,2.3,4.4c0.6,1.5,1.4,3,1.9,4.6c0.6,1.5,1.1,3,1.5,4.5
							c0.2,0.7,0.4,1.5,0.6,2.2c0.2,0.7,0.3,1.5,0.4,2.2c0.2,1.4,0.5,2.7,0.5,4c0.1,1.2,0.1,2.4,0.2,3.4c0,1-0.1,1.9-0.1,2.6
							c-0.1,1.4-0.2,2.2-0.2,2.2s-0.1-0.8-0.2-2.2c-0.1-0.7-0.1-1.6-0.2-2.5c-0.2-1-0.4-2.1-0.6-3.3c-0.1-1.2-0.6-2.5-0.9-3.8
							c-0.2-0.7-0.3-1.4-0.5-2.1c-0.2-0.7-0.4-1.4-0.7-2.1c-0.2-0.7-0.4-1.5-0.7-2.2c-0.3-0.7-0.6-1.4-0.9-2.2
							c-0.5-1.5-1.3-2.9-1.9-4.4c-0.6-1.5-1.4-2.9-2.1-4.3c-0.8-1.4-1.5-2.8-2.3-4.1c-0.8-1.3-1.5-2.6-2.3-3.7
							c-0.7-1.2-1.5-2.3-2.2-3.3c-1.4-2-2.6-3.6-3.4-4.8C36,4.3,35.5,3.7,35.5,3.7z"/>
					</g>
				</g>
			</g>
		</g>
		<path fill="#CCCC66" d="M27.8,21.9l0.8,1.9c0.3,0.7,0.1,1.4-0.4,1.9l-1.5,1.4c-0.5,0.5-1.3,0.5-1.9,0.2L23,26.2
			c-0.6-0.4-0.9-1.1-0.8-1.8l0.5-2c0.2-0.7,0.8-1.2,1.5-1.3l2-0.2C26.9,20.8,27.6,21.2,27.8,21.9z"/>
		<path fill="#CCCC66" d="M36,23.5l0.3,0.8c0.1,0.3,0,0.6-0.2,0.8l-0.6,0.6c-0.2,0.2-0.5,0.2-0.8,0.1L34,25.3
			c-0.3-0.2-0.4-0.5-0.3-0.7l0.2-0.8c0.1-0.3,0.3-0.5,0.6-0.5l0.8-0.1C35.6,23.1,35.9,23.2,36,23.5z"/>
		<path fill="#CCCC66" d="M31.8,33l0.3,0.8c0.1,0.3,0,0.6-0.2,0.8l-0.6,0.6c-0.2,0.2-0.5,0.2-0.8,0.1l-0.7-0.4
			c-0.3-0.2-0.4-0.5-0.3-0.7l0.2-0.8c0.1-0.3,0.3-0.5,0.6-0.5l0.8-0.1C31.4,32.6,31.7,32.7,31.8,33z"/>
	</g>
</g>
</svg>
