<!-- Generator: Adobe Illustrator 18.1.1, SVG Export Plug-In  -->
<svg version="1.1"
	 xmlns="http://www.w3.org/2000/svg" xmlns:xlink="http://www.w3.org/1999/xlink" xmlns:a="http://ns.adobe.com/AdobeSVGViewerExtensions/3.0/"
	 x="0px" y="0px" width="669.5px" height="485.8px" viewBox="0 0 669.5 485.8" enable-background="new 0 0 669.5 485.8"
	 xml:space="preserve">
<defs>
</defs>
<g>
	<g>
		<g>
			<defs>
				<path id="XMLID_7_" d="M366.5,247c-0.7,26.6-15.5,44.1-33.6,43.7c-18-0.4-32.4-18.6-31.7-45.2c0.7-26.6,11.4-52.2,34.1-51.5
					C357.2,194.8,367.2,220.4,366.5,247z"/>
			</defs>
			
				<radialGradient id="XMLID_8_" cx="13.2267" cy="103.8893" r="187.6807" gradientTransform="matrix(0.937 -0.1394 0.1122 1.081 324.1243 101.9624)" gradientUnits="userSpaceOnUse">
				<stop  offset="0" style="stop-color:#FFFFFF"/>
				<stop  offset="1" style="stop-color:#000000"/>
			</radialGradient>
			<use xlink:href="#XMLID_7_"  overflow="visible" fill="url(#XMLID_8_)"/>
			<clipPath id="XMLID_9_">
				<use xlink:href="#XMLID_7_"  overflow="visible"/>
			</clipPath>
			<path clip-path="url(#XMLID_9_)" fill="#FF0066" d="M340.8,241.6c-0.3,10.5-7.8,19-16.7,18.8c-8.9-0.2-15.9-8.8-15.6-19.4
				c0.3-10.5,7.8-19,16.7-18.8S341.2,231,340.8,241.6z"/>
			<path clip-path="url(#XMLID_9_)" fill="#FF0066" d="M364.3,285.4c-3.9,6-11.2,8.2-16.2,5s-5.9-10.7-1.9-16.7
				c3.9-6,11.2-8.2,16.2-5C367.4,271.9,368.3,279.4,364.3,285.4z"/>
			<path clip-path="url(#XMLID_9_)" fill="#FF0066" d="M321.7,271.3c3.1,6.5,1.2,13.8-4.2,16.4c-5.4,2.6-12.2-0.5-15.2-7
				c-3.1-6.5-1.2-13.8,4.2-16.4C311.8,261.7,318.6,264.8,321.7,271.3z"/>
			<path clip-path="url(#XMLID_9_)" fill="#FF0066" d="M366.6,216.5c2.6,7.5,0.4,15.1-4.9,17c-5.3,1.8-11.6-2.8-14.1-10.3
				c-2.6-7.5-0.4-15.1,4.9-17C357.7,204.4,364,209,366.6,216.5z"/>
			<path clip-path="url(#XMLID_9_)" fill="#FF0066" d="M324.3,207.9c-3.6,3.8-8.7,4.9-11.4,2.4c-2.7-2.5-2-7.6,1.6-11.4
				s8.7-4.9,11.4-2.4C328.6,199,327.9,204.1,324.3,207.9z"/>
		</g>
	</g>
	<path fill="#FFFFFF" d="M355,208.3c-0.7-4.1-4.6-6.9-8.7-6.3c-4.2,0.6-7,4.5-6.3,8.6s4.6,6.9,8.7,6.3S355.7,212.4,355,208.3z"/>
</g>
<g>
	<g>
		<g>
			<defs>
				<path id="XMLID_6_" d="M65.7,247c-0.7,26.6-15.5,44.1-33.6,43.7s-32.4-18.6-31.7-45.2s11.4-52.2,34.1-51.5
					C56.5,194.8,66.4,220.4,65.7,247z"/>
			</defs>
			
				<radialGradient id="XMLID_10_" cx="-302.8891" cy="63.1115" r="187.6807" gradientTransform="matrix(0.937 -0.1394 0.1122 1.081 324.1243 101.9624)" gradientUnits="userSpaceOnUse">
				<stop  offset="0" style="stop-color:#FFFFFF"/>
				<stop  offset="1" style="stop-color:#000000"/>
			</radialGradient>
			<use xlink:href="#XMLID_6_"  overflow="visible" fill="url(#XMLID_10_)"/>
			<clipPath id="XMLID_11_">
				<use xlink:href="#XMLID_6_"  overflow="visible"/>
			</clipPath>
			<path clip-path="url(#XMLID_11_)" fill="#FF0066" d="M40.1,241.6c-0.3,10.5-7.8,19-16.7,18.8c-8.9-0.2-15.9-8.8-15.6-19.4
				s7.8-19,16.7-18.8S40.4,231,40.1,241.6z"/>
			<path clip-path="url(#XMLID_11_)" fill="#FF0066" d="M63.5,285.4c-3.9,6-11.2,8.2-16.2,5s-5.9-10.7-1.9-16.7
				c3.9-6,11.2-8.2,16.2-5C66.6,271.9,67.5,279.4,63.5,285.4z"/>
			<path clip-path="url(#XMLID_11_)" fill="#FF0066" d="M20.9,271.3c3.1,6.5,1.2,13.8-4.2,16.4c-5.4,2.6-12.2-0.5-15.2-7
				s-1.2-13.8,4.2-16.4C11,261.7,17.8,264.8,20.9,271.3z"/>
			<path clip-path="url(#XMLID_11_)" fill="#FF0066" d="M65.8,216.5c2.6,7.5,0.4,15.1-4.9,17c-5.3,1.8-11.6-2.8-14.1-10.3
				c-2.6-7.5-0.4-15.1,4.9-17C56.9,204.4,63.2,209,65.8,216.5z"/>
			<path clip-path="url(#XMLID_11_)" fill="#FF0066" d="M23.6,207.9c-3.6,3.8-8.7,4.9-11.4,2.4s-2-7.6,1.6-11.4s8.7-4.9,11.4-2.4
				C27.9,199,27.2,204.1,23.6,207.9z"/>
		</g>
	</g>
	<path fill="#FFFFFF" d="M54.2,208.3c-0.7-4.1-4.6-6.9-8.7-6.3s-7,4.5-6.3,8.6c0.7,4.1,4.6,6.9,8.7,6.3S54.9,212.4,54.2,208.3z"/>
</g>
<g>
	<g>
		<g>
			<defs>
				<path id="XMLID_5_" d="M667.8,247c-0.7,26.6-15.5,44.1-33.6,43.7s-32.4-18.6-31.7-45.2c0.7-26.6,11.4-52.2,34.1-51.5
					C658.6,194.8,668.5,220.4,667.8,247z"/>
			</defs>
			
				<radialGradient id="XMLID_12_" cx="329.908" cy="144.7399" r="187.6807" gradientTransform="matrix(0.937 -0.1394 0.1122 1.081 324.1243 101.9624)" gradientUnits="userSpaceOnUse">
				<stop  offset="0" style="stop-color:#FFFFFF"/>
				<stop  offset="1" style="stop-color:#000000"/>
			</radialGradient>
			<use xlink:href="#XMLID_5_"  overflow="visible" fill="url(#XMLID_12_)"/>
			<clipPath id="XMLID_13_">
				<use xlink:href="#XMLID_5_"  overflow="visible"/>
			</clipPath>
			<path clip-path="url(#XMLID_13_)" fill="#FF0066" d="M642.2,241.6c-0.3,10.5-7.8,19-16.7,18.8c-8.9-0.2-15.9-8.8-15.6-19.4
				c0.3-10.5,7.8-19,16.7-18.8C635.5,222.3,642.5,231,642.2,241.6z"/>
			<path clip-path="url(#XMLID_13_)" fill="#FF0066" d="M665.6,285.4c-3.9,6-11.2,8.2-16.2,5s-5.9-10.7-1.9-16.7
				c3.9-6,11.2-8.2,16.2-5C668.7,271.9,669.6,279.4,665.6,285.4z"/>
			<path clip-path="url(#XMLID_13_)" fill="#FF0066" d="M623,271.3c3.1,6.5,1.2,13.8-4.2,16.4c-5.4,2.6-12.2-0.5-15.2-7
				s-1.2-13.8,4.2-16.4C613.1,261.7,619.9,264.8,623,271.3z"/>
			<path clip-path="url(#XMLID_13_)" fill="#FF0066" d="M667.9,216.5c2.6,7.5,0.4,15.1-4.9,17c-5.3,1.8-11.6-2.8-14.1-10.3
				c-2.6-7.5-0.4-15.1,4.9-17C659,204.4,665.3,209,667.9,216.5z"/>
			<path clip-path="url(#XMLID_13_)" fill="#FF0066" d="M625.7,207.9c-3.6,3.8-8.7,4.9-11.4,2.4s-2-7.6,1.6-11.4
				c3.6-3.8,8.7-4.9,11.4-2.4C630,199,629.2,204.1,625.7,207.9z"/>
		</g>
	</g>
	<path fill="#FFFFFF" d="M656.3,208.3c-0.7-4.1-4.6-6.9-8.7-6.3c-4.2,0.6-7,4.5-6.3,8.6s4.6,6.9,8.7,6.3S657,212.4,656.3,208.3z"/>
</g>
<g>
	<g>
		<g>
			<defs>
				<path id="XMLID_4_" d="M366.5,441c-0.7,26.6-15.5,44.1-33.6,43.7c-18-0.4-32.4-18.6-31.7-45.2c0.7-26.6,11.4-52.2,34.1-51.5
					C357.2,388.8,367.2,414.4,366.5,441z"/>
			</defs>
			
				<radialGradient id="XMLID_14_" cx="-7.9288" cy="280.6178" r="187.6807" gradientTransform="matrix(0.937 -0.1394 0.1122 1.081 324.1243 101.9624)" gradientUnits="userSpaceOnUse">
				<stop  offset="0" style="stop-color:#FFFFFF"/>
				<stop  offset="1" style="stop-color:#000000"/>
			</radialGradient>
			<use xlink:href="#XMLID_4_"  overflow="visible" fill="url(#XMLID_14_)"/>
			<clipPath id="XMLID_15_">
				<use xlink:href="#XMLID_4_"  overflow="visible"/>
			</clipPath>
			<path clip-path="url(#XMLID_15_)" fill="#FF0066" d="M340.8,435.6c-0.3,10.5-7.8,19-16.7,18.8c-8.9-0.2-15.9-8.8-15.6-19.4
				c0.3-10.5,7.8-19,16.7-18.8C334.2,416.3,341.2,425,340.8,435.6z"/>
			<path clip-path="url(#XMLID_15_)" fill="#FF0066" d="M364.3,479.4c-3.9,6-11.2,8.2-16.2,5s-5.9-10.7-1.9-16.7
				c3.9-6,11.2-8.2,16.2-5C367.4,465.9,368.3,473.4,364.3,479.4z"/>
			<path clip-path="url(#XMLID_15_)" fill="#FF0066" d="M321.7,465.3c3.1,6.5,1.2,13.8-4.2,16.4c-5.4,2.6-12.2-0.5-15.2-7
				c-3.1-6.5-1.2-13.8,4.2-16.4C311.8,455.7,318.6,458.8,321.7,465.3z"/>
			<path clip-path="url(#XMLID_15_)" fill="#FF0066" d="M366.6,410.5c2.6,7.5,0.4,15.1-4.9,17s-11.6-2.8-14.1-10.3
				c-2.6-7.5-0.4-15.1,4.9-17C357.7,398.4,364,403,366.6,410.5z"/>
			<path clip-path="url(#XMLID_15_)" fill="#FF0066" d="M324.3,401.9c-3.6,3.8-8.7,4.9-11.4,2.4c-2.7-2.5-2-7.6,1.6-11.4
				s8.7-4.9,11.4-2.4C328.6,393,327.9,398.1,324.3,401.9z"/>
		</g>
	</g>
	<path fill="#FFFFFF" d="M355,402.3c-0.7-4.1-4.6-6.9-8.7-6.3c-4.2,0.6-7,4.5-6.3,8.6s4.6,6.9,8.7,6.3
		C352.8,410.3,355.7,406.4,355,402.3z"/>
</g>
<g>
	<g>
		<g>
			<defs>
				<path id="XMLID_3_" d="M65.7,441c-0.7,26.6-15.5,44.1-33.6,43.7c-18-0.4-32.4-18.6-31.7-45.2s11.4-52.2,34.1-51.5
					C56.5,388.8,66.4,414.4,65.7,441z"/>
			</defs>
			
				<radialGradient id="XMLID_16_" cx="-324.0447" cy="239.8401" r="187.6807" gradientTransform="matrix(0.937 -0.1394 0.1122 1.081 324.1243 101.9624)" gradientUnits="userSpaceOnUse">
				<stop  offset="0" style="stop-color:#FFFFFF"/>
				<stop  offset="1" style="stop-color:#000000"/>
			</radialGradient>
			<use xlink:href="#XMLID_3_"  overflow="visible" fill="url(#XMLID_16_)"/>
			<clipPath id="XMLID_17_">
				<use xlink:href="#XMLID_3_"  overflow="visible"/>
			</clipPath>
			<path clip-path="url(#XMLID_17_)" fill="#FF0066" d="M40.1,435.6c-0.3,10.5-7.8,19-16.7,18.8c-8.9-0.2-15.9-8.8-15.6-19.4
				c0.3-10.5,7.8-19,16.7-18.8C33.4,416.3,40.4,425,40.1,435.6z"/>
			<path clip-path="url(#XMLID_17_)" fill="#FF0066" d="M63.5,479.4c-3.9,6-11.2,8.2-16.2,5s-5.9-10.7-1.9-16.7
				c3.9-6,11.2-8.2,16.2-5C66.6,465.9,67.5,473.4,63.5,479.4z"/>
			<path clip-path="url(#XMLID_17_)" fill="#FF0066" d="M20.9,465.3c3.1,6.5,1.2,13.8-4.2,16.4c-5.4,2.6-12.2-0.5-15.2-7
				s-1.2-13.8,4.2-16.4C11,455.7,17.8,458.8,20.9,465.3z"/>
			<path clip-path="url(#XMLID_17_)" fill="#FF0066" d="M65.8,410.5c2.6,7.5,0.4,15.1-4.9,17s-11.6-2.8-14.1-10.3
				c-2.6-7.5-0.4-15.1,4.9-17S63.2,403,65.8,410.5z"/>
			<path clip-path="url(#XMLID_17_)" fill="#FF0066" d="M23.6,401.9c-3.6,3.8-8.7,4.9-11.4,2.4c-2.7-2.5-2-7.6,1.6-11.4
				s8.7-4.9,11.4-2.4C27.9,393,27.2,398.1,23.6,401.9z"/>
		</g>
	</g>
	<path fill="#FFFFFF" d="M54.2,402.3c-0.7-4.1-4.6-6.9-8.7-6.3c-4.2,0.6-7,4.5-6.3,8.6c0.7,4.1,4.6,6.9,8.7,6.3
		C52.1,410.3,54.9,406.4,54.2,402.3z"/>
</g>
<g>
	<g>
		<g>
			<defs>
				<path id="XMLID_2_" d="M667.8,441c-0.7,26.6-15.5,44.1-33.6,43.7c-18-0.4-32.4-18.6-31.7-45.2c0.7-26.6,11.4-52.2,34.1-51.5
					C658.6,388.8,668.5,414.4,667.8,441z"/>
			</defs>
			
				<radialGradient id="XMLID_18_" cx="308.7524" cy="321.4684" r="187.6807" gradientTransform="matrix(0.937 -0.1394 0.1122 1.081 324.1243 101.9624)" gradientUnits="userSpaceOnUse">
				<stop  offset="0" style="stop-color:#FFFFFF"/>
				<stop  offset="1" style="stop-color:#000000"/>
			</radialGradient>
			<use xlink:href="#XMLID_2_"  overflow="visible" fill="url(#XMLID_18_)"/>
			<clipPath id="XMLID_19_">
				<use xlink:href="#XMLID_2_"  overflow="visible"/>
			</clipPath>
			<path clip-path="url(#XMLID_19_)" fill="#FF0066" d="M642.2,435.6c-0.3,10.5-7.8,19-16.7,18.8c-8.9-0.2-15.9-8.8-15.6-19.4
				c0.3-10.5,7.8-19,16.7-18.8C635.5,416.3,642.5,425,642.2,435.6z"/>
			<path clip-path="url(#XMLID_19_)" fill="#FF0066" d="M665.6,479.4c-3.9,6-11.2,8.2-16.2,5s-5.9-10.7-1.9-16.7
				c3.9-6,11.2-8.2,16.2-5C668.7,465.9,669.6,473.4,665.6,479.4z"/>
			<path clip-path="url(#XMLID_19_)" fill="#FF0066" d="M623,465.3c3.1,6.5,1.2,13.8-4.2,16.4c-5.4,2.6-12.2-0.5-15.2-7
				s-1.2-13.8,4.2-16.4C613.1,455.7,619.9,458.8,623,465.3z"/>
			<path clip-path="url(#XMLID_19_)" fill="#FF0066" d="M667.9,410.5c2.6,7.5,0.4,15.1-4.9,17s-11.6-2.8-14.1-10.3
				c-2.6-7.5-0.4-15.1,4.9-17S665.3,403,667.9,410.5z"/>
			<path clip-path="url(#XMLID_19_)" fill="#FF0066" d="M625.7,401.9c-3.6,3.8-8.7,4.9-11.4,2.4c-2.7-2.5-2-7.6,1.6-11.4
				c3.6-3.8,8.7-4.9,11.4-2.4C630,393,629.2,398.1,625.7,401.9z"/>
		</g>
	</g>
	<path fill="#FFFFFF" d="M656.3,402.3c-0.7-4.1-4.6-6.9-8.7-6.3c-4.2,0.6-7,4.5-6.3,8.6s4.6,6.9,8.7,6.3
		C654.2,410.3,657,406.4,656.3,402.3z"/>
</g>
<g>
	<g>
		<g>
			<defs>
				<path id="XMLID_1_" d="M668.3,53c-0.7,26.6-15.5,44.1-33.6,43.7c-18-0.4-32.4-18.6-31.7-45.2c0.7-26.6,11.4-52.2,34.1-51.5
					C659.1,0.8,669,26.4,668.3,53z"/>
			</defs>
			
				<radialGradient id="XMLID_20_" cx="351.6289" cy="-31.9157" r="187.6807" gradientTransform="matrix(0.937 -0.1394 0.1122 1.081 324.1243 101.9624)" gradientUnits="userSpaceOnUse">
				<stop  offset="0" style="stop-color:#FFFFFF"/>
				<stop  offset="1" style="stop-color:#000000"/>
			</radialGradient>
			<use xlink:href="#XMLID_1_"  overflow="visible" fill="url(#XMLID_20_)"/>
			<clipPath id="XMLID_21_">
				<use xlink:href="#XMLID_1_"  overflow="visible"/>
			</clipPath>
			<path clip-path="url(#XMLID_21_)" fill="#FF0066" d="M642.7,47.6c-0.3,10.5-7.8,19-16.7,18.8c-8.9-0.2-15.9-8.8-15.6-19.4
				s7.8-19,16.7-18.8S643,37,642.7,47.6z"/>
			<path clip-path="url(#XMLID_21_)" fill="#FF0066" d="M666.2,91.4c-3.9,6-11.2,8.2-16.2,5c-5-3.2-5.9-10.7-1.9-16.7
				c3.9-6,11.2-8.2,16.2-5C669.2,77.9,670.1,85.4,666.2,91.4z"/>
			<path clip-path="url(#XMLID_21_)" fill="#FF0066" d="M623.5,77.3c3.1,6.5,1.2,13.8-4.2,16.4c-5.4,2.6-12.2-0.5-15.2-7
				c-3.1-6.5-1.2-13.8,4.2-16.4C613.7,67.7,620.5,70.8,623.5,77.3z"/>
			<path clip-path="url(#XMLID_21_)" fill="#FF0066" d="M668.4,22.5c2.6,7.5,0.4,15.1-4.9,17c-5.3,1.8-11.6-2.8-14.1-10.3
				c-2.6-7.5-0.4-15.1,4.9-17S665.8,15,668.4,22.5z"/>
			<path clip-path="url(#XMLID_21_)" fill="#FF0066" d="M626.2,13.9c-3.6,3.8-8.7,4.9-11.4,2.4s-2-7.6,1.6-11.4s8.7-4.9,11.4-2.4
				C630.5,5,629.8,10.1,626.2,13.9z"/>
		</g>
	</g>
	<path fill="#FFFFFF" d="M656.8,14.3c-0.7-4.1-4.6-6.9-8.7-6.3s-7,4.5-6.3,8.6c0.7,4.1,4.6,6.9,8.7,6.3
		C654.7,22.3,657.5,18.4,656.8,14.3z"/>
</g>
</svg>
