<!-- Generator: Adobe Illustrator 18.1.1, SVG Export Plug-In  -->
<svg version="1.1"
	 xmlns="http://www.w3.org/2000/svg" xmlns:xlink="http://www.w3.org/1999/xlink" xmlns:a="http://ns.adobe.com/AdobeSVGViewerExtensions/3.0/"
	 x="0px" y="0px" width="120px" height="120px" viewBox="0 0 120 120" enable-background="new 0 0 120 120" xml:space="preserve">
<defs>
</defs>
<g>
	<g>
		<rect x="0" y="0" fill="none" width="120" height="120"/>
	</g>
	<g>
		<path fill="#FFFFFF" stroke="#FF0033" stroke-width="3.2399" stroke-miterlimit="10" d="M88.5,90.6h-57c-9.7,0-17.7-7.9-17.7-17.7
			V47c0-9.7,7.9-17.7,17.7-17.7h57c9.7,0,17.7,7.9,17.7,17.7v26C106.2,82.7,98.2,90.6,88.5,90.6z"/>
		<g>
			<path fill="#33CC00" d="M40.9,37.1c0.2-0.3,0.5-0.6,0.9-0.7c0.5-0.1,1.1-0.2,1.8-0.2c0.7,0,1.3,0.1,1.8,0.2
				c0.5,0.1,0.8,0.4,0.9,0.7c0.2,0.4,0.3,0.7,0.3,0.9c0,0.3,0.1,0.7,0.1,1.2v21.3c0,0.5,0,1-0.1,1.2c0,0.3-0.1,0.6-0.3,0.9
				c-0.4,0.6-1.4,1-3,1c-1.7,0-2.6-0.6-2.8-1.7c-1,1.1-2.4,1.7-4.2,1.7c-2.1,0-4.1-0.9-5.9-2.8c-1.8-1.9-2.6-4-2.6-6.5
				c0-2.5,0.9-4.7,2.7-6.6c1.8-1.9,3.7-2.8,5.8-2.8c1.8,0,3.1,0.6,4.1,1.8v-7.5c0-0.5,0-1,0.1-1.2C40.6,37.8,40.7,37.5,40.9,37.1z
				 M35.1,56.5c0.6,0.6,1.4,1,2.2,1s1.6-0.3,2.2-1c0.6-0.6,0.9-1.4,0.9-2.1c0-0.8-0.3-1.5-0.8-2.2c-0.6-0.7-1.3-1-2.3-1
				c-1,0-1.7,0.3-2.3,1s-0.9,1.4-0.9,2.2C34.2,55.2,34.5,55.9,35.1,56.5z"/>
			<path fill="#33CC00" d="M53.5,41.5c-0.2,0.3-0.5,0.6-0.9,0.7c-0.5,0.1-1.1,0.2-1.8,0.2c-0.7,0-1.4-0.1-1.8-0.2
				c-0.5-0.1-0.8-0.4-0.9-0.7c-0.2-0.4-0.3-0.7-0.3-0.9c0-0.3-0.1-0.7-0.1-1.2c0-0.5,0-1,0.1-1.2c0-0.3,0.1-0.6,0.3-0.9
				c0.3-0.6,1.3-1,2.8-1c1.5,0,2.4,0.3,2.7,1c0.2,0.4,0.3,0.7,0.3,0.9c0,0.3,0.1,0.7,0.1,1.2c0,0.5,0,1-0.1,1.2
				C53.8,40.8,53.7,41.1,53.5,41.5z M47.6,48.1c0-0.5,0-1,0.1-1.2c0-0.3,0.1-0.6,0.3-0.9c0.3-0.6,1.3-0.9,2.8-0.9
				c1.1,0,1.9,0.2,2.4,0.6c0.4,0.3,0.6,0.8,0.6,1.5c0,0.2,0,0.6,0,1v12.5c0,0.5,0,1-0.1,1.2c0,0.3-0.1,0.6-0.3,0.9
				c-0.3,0.6-1.2,0.9-2.7,0.9c-1.5,0-2.4-0.3-2.8-1c-0.2-0.4-0.3-0.7-0.3-0.9c0-0.3-0.1-0.7-0.1-1.2V48.1z"/>
			<path fill="#33CC00" d="M65.2,45c2.4,0,4.4,0.9,5.9,2.7c1.6,1.8,2.4,4,2.4,6.7v6.3c0,0.5,0,1-0.1,1.2c0,0.3-0.1,0.6-0.3,0.9
				c-0.3,0.6-1.3,1-2.8,1c-1.7,0-2.7-0.4-2.9-1.3c-0.1-0.4-0.2-1-0.2-1.8v-6.3c0-1-0.3-1.7-0.8-2.3c-0.6-0.5-1.3-0.8-2.3-0.8
				c-0.9,0-1.7,0.3-2.3,0.9c-0.6,0.6-0.9,1.3-0.9,2.2v6.3c0,0.5,0,1-0.1,1.2c0,0.3-0.1,0.6-0.3,0.9c-0.3,0.6-1.2,1-2.7,1
				c-1.5,0-2.4-0.3-2.8-1c-0.2-0.4-0.3-0.7-0.3-0.9c0-0.3-0.1-0.7-0.1-1.2V48c0-0.5,0-0.9,0.1-1.2s0.1-0.6,0.3-0.9
				c0.3-0.6,1.2-0.9,2.7-0.9c1.4,0,2.3,0.3,2.7,0.8c0.2,0.4,0.4,0.9,0.4,1.5c0.1-0.2,0.3-0.4,0.6-0.7c0.3-0.3,0.7-0.6,1-0.7
				C63.3,45.2,64.2,45,65.2,45z"/>
			<path fill="#33CC00" d="M75.4,47.3c2-1.9,4.3-2.8,6.9-2.8c2.6,0,4.8,0.9,6.8,2.8c2,1.8,3,4.2,3,7.1c0,2-0.5,3.7-1.5,5.3
				c-1,1.5-2.3,2.7-3.7,3.4c-1.5,0.7-3,1.1-4.6,1.1c-1.6,0-3.1-0.4-4.6-1.2c-1.5-0.8-2.7-1.9-3.7-3.4c-1-1.5-1.5-3.2-1.5-5.1
				C72.4,51.5,73.4,49.2,75.4,47.3z M79.9,56.9c0.8,0.6,1.5,0.9,2.3,0.9s1.6-0.3,2.4-0.9s1.2-1.5,1.2-2.6c0-1.2-0.4-2-1.1-2.6
				c-0.7-0.6-1.5-0.9-2.4-0.9c-0.9,0-1.7,0.3-2.4,0.9c-0.7,0.6-1.1,1.5-1.1,2.6S79.1,56.4,79.9,56.9z"/>
			<g>
				<path fill="#FFCC05" stroke="#FFFFFF" stroke-width="1.4188" stroke-miterlimit="10" d="M90.2,60.2c-0.7-0.3-1.2-0.4-1.7-0.4
					c-0.5,0-0.9,0.2-1.1,0.5c-0.2,0.2-0.3,0.4-0.4,0.5c-0.1,0.1-0.6,1.3-1.6,3.6c-1,2.2-1.6,3.5-1.7,3.8c-0.9-1.5-1.9-3.2-2.9-4.9
					c-1-1.8-1.6-2.7-1.7-2.9c-0.1-0.2-0.3-0.3-0.5-0.5c-0.2-0.2-0.6-0.2-1-0.2c-0.4,0-0.9,0.2-1.7,0.6c-0.6,0.3-1,0.7-1.3,1
					c-1.3-1-2.6-1.5-4.1-1.5c-1.5,0-2.7,0.5-3.6,1.5v-6.5c0-0.5,0-0.8,0-1.1c0-0.2-0.1-0.5-0.3-0.8c-0.3-0.6-1.1-0.8-2.4-0.8
					c-1.3,0-2.1,0.3-2.4,0.8c-0.1,0.3-0.2,0.6-0.3,0.8c0,0.2,0,0.6,0,1.1v18.6c0,0.5,0,0.8,0,1.1c0,0.2,0.1,0.5,0.3,0.8
					c0.3,0.6,1.1,0.8,2.4,0.8c1.6,0,2.5-0.5,2.7-1.5c0.7,1,2,1.5,3.8,1.5c1.8,0,3.4-0.8,5-2.4c1.3-1.4,2-2.9,2.2-4.7l3.2,5.3
					c-2,4.3-3,6.6-3,7.1c0,0.7,0.6,1.4,1.8,1.9c0.7,0.3,1.3,0.5,1.7,0.5s0.7-0.1,0.9-0.3c0.2-0.2,0.4-0.4,0.5-0.6
					c0.1-0.2,0.3-0.5,0.4-0.9l8.2-18.3c0,0,0.1-0.2,0.2-0.5c0.2-0.3,0.3-0.7,0.3-1.1C92,61.4,91.4,60.8,90.2,60.2z M71.6,69.8
					c-0.5,0.6-1.2,0.8-2,0.8s-1.4-0.3-1.9-0.8C67.2,69.3,67,68.7,67,68c0-0.7,0.2-1.3,0.7-1.9c0.5-0.6,1.1-0.9,2-0.9
					c0.8,0,1.5,0.3,2,0.9c0.5,0.6,0.7,1.2,0.7,1.9C72.4,68.6,72.2,69.3,71.6,69.8z"/>
				<path fill="#FFCC05" stroke="#FFFFFF" stroke-width="1.4188" stroke-miterlimit="10" d="M36.9,60.1c-1.5,0-2.7,0.5-3.6,1.5v-6.5
					c0-0.5,0-0.8,0-1.1c0-0.2-0.1-0.5-0.3-0.8c-0.3-0.6-1.1-0.8-2.4-0.8c-1.3,0-2.1,0.3-2.4,0.8C28.1,53.5,28,53.8,28,54
					c0,0.2,0,0.6,0,1.1v18.6c0,0.5,0,0.8,0,1.1c0,0.2,0.1,0.5,0.3,0.8c0.3,0.6,1.1,0.8,2.4,0.8c1.6,0,2.5-0.5,2.7-1.5
					c0.7,1,2,1.5,3.8,1.5c1.8,0,3.4-0.8,5-2.4c1.5-1.6,2.3-3.5,2.3-5.7c0-2.2-0.8-4.1-2.3-5.7C40.5,60.9,38.8,60.1,36.9,60.1z
					 M38.1,70.2c-0.5,0.6-1.2,0.8-2,0.8c-0.8,0-1.4-0.3-1.9-0.8c-0.5-0.6-0.8-1.2-0.8-1.9c0-0.7,0.2-1.3,0.7-1.9
					c0.5-0.6,1.1-0.9,2-0.9c0.8,0,1.5,0.3,2,0.9c0.5,0.6,0.7,1.2,0.7,1.9C38.9,69,38.6,69.6,38.1,70.2z"/>
				<path fill="#FFCC05" stroke="#FFFFFF" stroke-width="1.4188" stroke-miterlimit="10" d="M60.6,60.9c-0.2-0.3-0.4-0.5-0.8-0.7
					c-0.4-0.1-1-0.2-1.8-0.2c-1.5,0-2.3,0.6-2.5,1.7c-0.1-0.2-0.3-0.4-0.6-0.6c-0.2-0.2-0.6-0.5-1.2-0.7c-0.6-0.2-1.2-0.4-1.9-0.4
					c-1.8,0-3.5,0.8-5.1,2.4c-1.5,1.6-2.3,3.5-2.3,5.7c0,2.2,0.8,4.1,2.3,5.7c1.5,1.6,3.2,2.5,5,2.5c1.8,0,3.1-0.6,3.8-1.7
					c0.1,0.5,0.3,1,0.7,1.2c0.4,0.3,1.1,0.4,2.3,0.4c1.1,0,1.8-0.3,2.1-0.8c0.1-0.3,0.2-0.6,0.3-0.8c0-0.2,0-0.6,0-1.1V62.8
					c0-0.5,0-0.8,0-1.1C60.8,61.5,60.7,61.2,60.6,60.9z M54.5,70.1C54,70.7,53.3,71,52.6,71s-1.4-0.3-2-0.8
					c-0.5-0.6-0.8-1.2-0.8-1.9c0-0.7,0.3-1.3,0.8-1.9c0.5-0.6,1.2-0.9,2-0.9c0.8,0,1.5,0.3,2,0.9c0.5,0.6,0.7,1.2,0.7,1.9
					C55.3,69,55,69.6,54.5,70.1z"/>
				<path fill="#66CCFF" d="M90.1,71.3c-0.9,0-1.5,0.2-1.7,0.7c-0.1,0.2-0.2,0.4-0.2,0.6c0,0.2,0,0.5,0,0.8v0.1
					c0,0.8,0.1,1.4,0.4,1.7c0.3,0.3,0.9,0.4,1.8,0.4c0.9,0,1.5-0.2,1.7-0.7c0.1-0.2,0.2-0.5,0.2-0.6c0-0.2,0-0.4,0-0.8v-0.1
					c0-0.8-0.1-1.3-0.4-1.6C91.6,71.5,91,71.3,90.1,71.3z"/>
			</g>
		</g>
	</g>
</g>
</svg>
