<!-- Generator: Adobe Illustrator 18.1.1, SVG Export Plug-In  -->
<svg version="1.1"
	 xmlns="http://www.w3.org/2000/svg" xmlns:xlink="http://www.w3.org/1999/xlink" xmlns:a="http://ns.adobe.com/AdobeSVGViewerExtensions/3.0/"
	 x="0px" y="0px" width="118px" height="27.8px" viewBox="0 0 118 27.8" enable-background="new 0 0 118 27.8" xml:space="preserve"
	>
<defs>
</defs>
<path fill="#CA992C" d="M4,11.4L0,6l10,5.5L8,5l11.9,11.9v-6.4l8,2.3V6.4l9.5,6.4L38.8,0l6,9.6l3.5-7.8l5.5,12.8l5.5-8.2l4,6.4
	l0.5-9.2l3.5,5l6.5-8.4l0.5,11.6l10.7-9.4l-0.7,9.9l8-4.6l-0.9,4.9l8.3-5.3v6l10-10.5v11L118,5l-3,18.8c0,0-99.6,8.2-106.1,0.9
	S4,11.4,4,11.4z"/>
</svg>
