<!-- Generator: Adobe Illustrator 18.1.1, SVG Export Plug-In  -->
<svg version="1.1"
	 xmlns="http://www.w3.org/2000/svg" xmlns:xlink="http://www.w3.org/1999/xlink" xmlns:a="http://ns.adobe.com/AdobeSVGViewerExtensions/3.0/"
	 x="0px" y="0px" width="2193px" height="76.7px" viewBox="0 0 2193 76.7" enable-background="new 0 0 2193 76.7"
	 xml:space="preserve">
<defs>
</defs>
<g>
	<path fill="#FFFFFF" d="M147.1,37.1h-24.3v-0.5c0-0.5-0.1-0.9-0.2-1.3h2.4c2.7,0,4.8-2.2,4.8-4.8v0c0-2.7-2.2-4.8-4.8-4.8h-14v-0.5
		c0-2.1-1.8-3.9-3.9-3.9H42.8c-2.1,0-3.9,1.8-3.9,3.9v0.5H28.5c-2.7,0-4.8,2.2-4.8,4.8v0H4.8c-2.7,0-4.8,2.2-4.8,4.8v0
		c0,2.7,2.2,4.8,4.8,4.8h41.3c-0.2,0.6-0.3,1.2-0.3,1.8v0c0,0.2,0,0.3,0,0.5H26.1c-2.1,0-3.9,1.8-3.9,3.9v0.9c0,2.1,1.8,3.9,3.9,3.9
		h64.3c2.1,0,3.9-1.8,3.9-3.9v-0.5h52.9c2.7,0,4.8-2.2,4.8-4.8v0C151.9,39.3,149.8,37.1,147.1,37.1z"/>
	<path fill="#FFFFFF" d="M1167.7,37.1h-24.3v-0.5c0-0.5-0.1-0.9-0.2-1.3h2.4c2.7,0,4.8-2.2,4.8-4.8v0c0-2.7-2.2-4.8-4.8-4.8h-14
		v-0.5c0-2.1-1.8-3.9-3.9-3.9h-64.3c-2.1,0-3.9,1.8-3.9,3.9v0.5H1049c-2.7,0-4.8,2.2-4.8,4.8v0h-18.8c-2.7,0-4.8,2.2-4.8,4.8v0
		c0,2.7,2.2,4.8,4.8,4.8h41.3c-0.2,0.6-0.3,1.2-0.3,1.8v0c0,0.2,0,0.3,0,0.5h-19.7c-2.1,0-3.9,1.8-3.9,3.9v0.9
		c0,2.1,1.8,3.9,3.9,3.9h64.3c2.1,0,3.9-1.8,3.9-3.9v-0.5h52.9c2.7,0,4.8-2.2,4.8-4.8v0C1172.5,39.3,1170.3,37.1,1167.7,37.1z"/>
	<path fill="#FFFFFF" d="M257,12.4h10.9c-0.8,0.9-1.3,2.2-1.3,3.5v0c0,2.9,2.4,5.3,5.3,5.3h19.8c0.6,2.2,2.7,3.9,5.1,3.9h48
		c2.9,0,5.3-2.4,5.3-5.3c0-0.7-0.1-1.4-0.4-2h24.1c2.9,0,5.3-2.4,5.3-5.3v0c0-2.9-2.4-5.3-5.3-5.3h-12.4c0.2-0.6,0.3-1.2,0.3-1.8
		c0-2.9-2.4-5.3-5.3-5.3h-48c-1.6,0-3,0.7-4,1.8H257c-2.9,0-5.3,2.4-5.3,5.3C251.7,10,254.1,12.4,257,12.4z M320.8,10.6
		C320.8,10.6,320.8,10.7,320.8,10.6c-0.4,0-0.7,0-1,0H320.8z"/>
	<path fill="#FFFFFF" d="M885,53.1h-18.2c-0.4-1.2-1.5-2-2.9-2h-27.6c-1.7,0-3,1.4-3,3c0,0.8,0.3,1.5,0.8,2h-12.7c-1.7,0-3,1.4-3,3
		c0,1.7,1.4,3,3,3h25.1c-1.7,0-3,1.4-3,3v0c0,0.4,0.1,0.7,0.2,1H834c-1.7,0-3,1.4-3,3s1.4,3,3,3h27.6c1.7,0,3-1.4,3-3
		c0-0.4-0.1-0.7-0.2-1h9.6c1.7,0,3-1.4,3-3v0c0-1.7-1.4-3-3-3h2.9c1.7,0,3-1.4,3-3h5.1c1.7,0,3-1.4,3-3v0
		C888,54.5,886.6,53.1,885,53.1z M848.9,62.3c0.1,0,0.1,0,0.2,0c0.1,0,0.1,0,0.2,0H848.9z"/>
	<path fill="#FFFFFF" d="M456.1,71.4h-4.7v0c0-0.9-0.7-1.6-1.6-1.6h-4l0,0c0-0.8-0.6-1.4-1.4-1.4h-21c-0.8,0-1.4,0.6-1.4,1.4l0,0h-4
		c-0.9,0-1.6,0.7-1.6,1.6v0c0,0.9,0.7,1.6,1.6,1.6h-2.6c-0.8,0-1.4,0.6-1.4,1.4c0,0.8,0.6,1.4,1.4,1.4h10.7c0.2,0.4,0.7,0.7,1.3,0.7
		h21c0.8,0,1.4-0.6,1.4-1.4v0c0-0.2,0-0.4-0.1-0.6h6.7c0.8,0,1.4-0.6,1.4-1.4v-0.4C457.5,72,456.9,71.4,456.1,71.4z"/>
	<path fill="#FFFFFF" d="M701.2,10.8h-7.3v0c0-1.4-1.1-2.5-2.5-2.5h-6.3v0c0-1.2-1-2.2-2.2-2.2h-32.5c-1.2,0-2.2,1-2.2,2.2v0H642
		c-1.4,0-2.5,1.1-2.5,2.5v0c0,1.4,1.1,2.5,2.5,2.5h-4.1c-1.2,0-2.2,1-2.2,2.2c0,1.2,1,2.2,2.2,2.2h16.5c0.4,0.7,1.1,1.2,2,1.2h32.5
		c1.2,0,2.2-1,2.2-2.2v0c0-0.3-0.1-0.6-0.2-0.9h10.4c1.2,0,2.2-1,2.2-2.2V13C703.4,11.8,702.4,10.8,701.2,10.8z"/>
</g>
<g>
	<path fill="#FFFFFF" d="M1167.7,37.2h-24.3v-0.5c0-0.5-0.1-0.9-0.2-1.3h2.4c2.7,0,4.8-2.2,4.8-4.8v0c0-2.7-2.2-4.8-4.8-4.8h-14
		v-0.5c0-2.1-1.8-3.9-3.9-3.9h-64.3c-2.1,0-3.9,1.8-3.9,3.9v0.5H1049c-2.7,0-4.8,2.2-4.8,4.8v0h-18.8c-2.7,0-4.8,2.2-4.8,4.8v0
		c0,2.7,2.2,4.8,4.8,4.8h41.3c-0.2,0.6-0.3,1.2-0.3,1.8v0c0,0.2,0,0.3,0,0.5h-19.7c-2.1,0-3.9,1.8-3.9,3.9v0.9
		c0,2.1,1.8,3.9,3.9,3.9h64.3c2.1,0,3.9-1.8,3.9-3.9v-0.5h52.9c2.7,0,4.8-2.2,4.8-4.8v0C1172.5,39.4,1170.3,37.2,1167.7,37.2z"/>
	<path fill="#FFFFFF" d="M2188.2,37.2h-24.3v-0.5c0-0.5-0.1-0.9-0.2-1.3h2.4c2.7,0,4.8-2.2,4.8-4.8v0c0-2.7-2.2-4.8-4.8-4.8h-14
		v-0.5c0-2.1-1.8-3.9-3.9-3.9h-64.3c-2.1,0-3.9,1.8-3.9,3.9v0.5h-10.5c-2.7,0-4.8,2.2-4.8,4.8v0h-18.8c-2.7,0-4.8,2.2-4.8,4.8v0
		c0,2.7,2.2,4.8,4.8,4.8h41.3c-0.2,0.6-0.3,1.2-0.3,1.8v0c0,0.2,0,0.3,0,0.5h-19.7c-2.1,0-3.9,1.8-3.9,3.9v0.9
		c0,2.1,1.8,3.9,3.9,3.9h64.3c2.1,0,3.9-1.8,3.9-3.9v-0.5h52.9c2.7,0,4.8-2.2,4.8-4.8v0C2193,39.4,2190.9,37.2,2188.2,37.2z"/>
	<path fill="#FFFFFF" d="M1277.5,12.6h10.9c-0.8,0.9-1.3,2.2-1.3,3.5v0c0,2.9,2.4,5.3,5.3,5.3h19.8c0.6,2.2,2.7,3.9,5.1,3.9h48
		c2.9,0,5.3-2.4,5.3-5.3c0-0.7-0.1-1.4-0.4-2h24.1c2.9,0,5.3-2.4,5.3-5.3v0c0-2.9-2.4-5.3-5.3-5.3h-12.4c0.2-0.6,0.3-1.2,0.3-1.8
		c0-2.9-2.4-5.3-5.3-5.3h-48c-1.6,0-3,0.7-4,1.8h-47.5c-2.9,0-5.3,2.4-5.3,5.3C1272.2,10.2,1274.6,12.6,1277.5,12.6z M1341.4,10.7
		C1341.4,10.8,1341.3,10.8,1341.4,10.7c-0.4,0-0.7,0-1,0H1341.4z"/>
	<path fill="#FFFFFF" d="M1905.5,53.3h-18.2c-0.4-1.2-1.5-2-2.9-2h-27.6c-1.7,0-3,1.4-3,3c0,0.8,0.3,1.5,0.8,2h-12.7
		c-1.7,0-3,1.4-3,3c0,1.7,1.4,3,3,3h25.1c-1.7,0-3,1.4-3,3v0c0,0.4,0.1,0.7,0.2,1h-9.6c-1.7,0-3,1.4-3,3s1.4,3,3,3h27.6
		c1.7,0,3-1.4,3-3c0-0.4-0.1-0.7-0.2-1h9.6c1.7,0,3-1.4,3-3v0c0-1.7-1.4-3-3-3h2.9c1.7,0,3-1.4,3-3h5.1c1.7,0,3-1.4,3-3v0
		C1908.6,54.6,1907.2,53.3,1905.5,53.3z M1869.5,62.4c0.1,0,0.1,0,0.2,0c0.1,0,0.1,0,0.2,0H1869.5z"/>
	<path fill="#FFFFFF" d="M1476.6,71.5h-4.7v0c0-0.9-0.7-1.6-1.6-1.6h-4l0,0c0-0.8-0.6-1.4-1.4-1.4h-21c-0.8,0-1.4,0.6-1.4,1.4l0,0
		h-4c-0.9,0-1.6,0.7-1.6,1.6v0c0,0.9,0.7,1.6,1.6,1.6h-2.6c-0.8,0-1.4,0.6-1.4,1.4c0,0.8,0.6,1.4,1.4,1.4h10.7
		c0.2,0.4,0.7,0.7,1.3,0.7h21c0.8,0,1.4-0.6,1.4-1.4v0c0-0.2,0-0.4-0.1-0.6h6.7c0.8,0,1.4-0.6,1.4-1.4v-0.4
		C1478,72.1,1477.4,71.5,1476.6,71.5z"/>
	<path fill="#FFFFFF" d="M1721.8,11h-7.3v0c0-1.4-1.1-2.5-2.5-2.5h-6.3v0c0-1.2-1-2.2-2.2-2.2h-32.5c-1.2,0-2.2,1-2.2,2.2v0h-6.3
		c-1.4,0-2.5,1.1-2.5,2.5v0c0,1.4,1.1,2.5,2.5,2.5h-4.1c-1.2,0-2.2,1-2.2,2.2c0,1.2,1,2.2,2.2,2.2h16.5c0.4,0.7,1.1,1.2,2,1.2h32.5
		c1.2,0,2.2-1,2.2-2.2v0c0-0.3-0.1-0.6-0.2-0.9h10.4c1.2,0,2.2-1,2.2-2.2v-0.5C1724,12,1723,11,1721.8,11z"/>
</g>
</svg>
