<!-- Generator: Adobe Illustrator 18.1.1, SVG Export Plug-In  -->
<svg version="1.1"
	 xmlns="http://www.w3.org/2000/svg" xmlns:xlink="http://www.w3.org/1999/xlink" xmlns:a="http://ns.adobe.com/AdobeSVGViewerExtensions/3.0/"
	 x="0px" y="0px" width="341px" height="200.9px" viewBox="0 0 341 200.9" enable-background="new 0 0 341 200.9"
	 xml:space="preserve">
<defs>
</defs>
<g>
	<path fill="#66FF33" d="M340.3,77C302.8,45.3,254,15.7,186.9,45.1c-70.4,29.2-63.1,108.9-10,89.6c3.9-1.4,8-3.6,12.3-6.2l-36-35.6
		c0,0,34.9,20.1,49.2,26.9c4.9-3.3,9.9-6.8,14.9-9.9l-46.8-33.5c0,0,45.2,27,53.2,29.7c3.6-2,7.3-3.7,10.9-5.1
		c2.1-0.8,4.9-1.7,8.2-2.8L216,61.6c0,0,12.8,14.7,37.1,30.7c3.7-1,19.7-2.4,23.7-3.4l-23-27.1c0,0,33.8,17.1,43,23.1
		c13.4-2.2,26.6-3.5,37.5-2.7C338.5,82.7,342.7,79,340.3,77z"/>
</g>
<g>
	<path fill="#66FF33" d="M219.1,1.8c-20.9,1.7-49.5,20.9-61,50.1C145.6,82,176.7,90.6,187,68.7c0.8-1.6,1.3-3.5,1.9-5.6l-21.7,0.1
		c0,0,16.7-4.5,23.1-6.7c0.5-2.5,0.9-5,1.5-7.5l-24.3,4c0,0,21.9-5.5,25.1-7.1c0.5-1.7,1.1-3.3,1.8-4.8c0.4-0.9,1-2,1.7-3.3
		l-9.5-4.8c0,0,2.1-1.4,14.3-3.9c0.8-1.4,1.7-2.9,2.7-4.4l-9.2-2.6c0,0,9.5-3.6,14-4.6c3.4-4.7,7-9.1,10.6-12.2
		C220.3,4.1,220.4,1.7,219.1,1.8z"/>
</g>
<g>
	<path fill="#66FF33" d="M42.8,29.2c29.8-11.8,81.8-5,117.2,27.1c37.5,32.6,0.8,65.3-28.1,42.4c-2.1-1.7-4.2-3.9-6.3-6.4l29.7-14.5
		c0,0-25.8,5.2-36,6.5c-2.3-3.1-4.7-6.2-7.2-9.2L148,64c0,0-33.6,7.3-39.1,7.4c-1.8-2-3.7-3.8-5.7-5.4c-1.1-0.9-2.7-2.1-4.5-3.4
		l15.1-18.2c0,0-6.3,8.9-24.7,13.8c-2.1-1.4-10-9.4-12.3-10.8L93,33c0,0-13.5,9.6-20.4,11.4c-7.8-4.2-20.2-8.8-27.1-10.6
		C42.8,33.1,40.9,29.9,42.8,29.2z"/>
</g>
<g>
	<path fill="#339900" d="M124.7,132.6c0,0,0-0.8,0.2-2.3c0.2-1.4,0.5-3.5,1.1-5.9c0.6-2.4,1.5-5.2,2.8-8.1c0.7-1.4,1.3-2.9,2.2-4.3
		c0.8-1.4,1.8-2.9,2.7-4.2c1-1.3,2.1-2.7,3.3-3.9l0.9-0.9c0.3-0.3,0.6-0.6,0.9-0.8c0.6-0.6,1.2-1.1,1.9-1.5c1.3-1,2.6-1.8,3.8-2.5
		c1.3-0.7,2.5-1.3,3.7-1.7c1.2-0.5,2.3-0.7,3.3-1c1-0.2,1.9-0.4,2.6-0.4c1.5-0.1,2.3-0.2,2.3-0.2s-0.8,0.3-2.1,0.7
		c-0.7,0.2-1.5,0.6-2.4,0.9c-0.9,0.4-1.9,0.9-3,1.5c-0.5,0.3-1.1,0.6-1.6,0.9c-0.5,0.4-1.1,0.7-1.7,1.1c-1.1,0.8-2.2,1.7-3.4,2.6
		c-0.6,0.5-1.1,1-1.6,1.5s-1.1,1.1-1.6,1.7c-1.1,1.1-2,2.4-3,3.7c-0.9,1.3-1.8,2.6-2.7,3.9c-0.8,1.3-1.6,2.7-2.3,4s-1.3,2.6-1.9,3.9
		c-0.6,1.3-1.1,2.5-1.6,3.6C125.7,129.4,124.7,132.6,124.7,132.6z"/>
</g>
<path fill="#66FF33" d="M160.7,42.1l-4.5,3.5l1.2-8.1c-1-1.3-2-2.7-3.1-4.1l-5.1,6.6l4-7.9c-1.1-1.4-2.3-2.8-3.5-4.2l-8.2,2.9
	l1.9-10c-1.4-1.4-2.7-2.9-4.2-4.3l-6.7,4c-0.7-1.9,0.2-5.3,1.7-8.8c-4.5-4.2-9.3-8.1-14.3-11.7c0,0-2.1,11.4-1,26.5
	c3.4,0,6.3,0,6.3,0l-6,3.4c0.1,0.6,0.1,1.1,0.2,1.7l7.2-1.8l-6.2,9c-0.3,4.7,3.1,12,4.3,15.2l13.2-5.9L127,59.4
	c0.5,1.1,1.1,2.2,1.6,3.3l7.9-0.8l-5.3,5.3c0.2,0.4,0.5,0.8,0.7,1.2l16.9-10.1l-15.3,12.3c4.9,6.9,11.4,13.2,20,18.2
	c0,0,22.2-7.8,22.4-16.6C176,67.8,170.4,55.9,160.7,42.1z"/>
<g>
	<path fill="#66FF33" d="M0.6,76.2C32.8,50.9,99,40.5,154,67c57.7,26.4,24.6,79.8-19,62.1c-3.2-1.3-6.5-3.2-10-5.5L156,95
		c0,0-29.7,15.7-41.8,21c-4-2.9-8-5.9-12.1-8.7l40-26.5c0,0-38.5,21.1-45.2,23.2c-3-1.8-5.9-3.3-8.9-4.5c-1.7-0.7-4-1.6-6.8-2.6
		L81,85c0,0,2.5-6.8-18.2,5.9c-3.1-0.9-6.3-1.8-9.6-2.7l-0.1-11.9c0,0-8.6,3.3-16.4,7.9c-11-2.2-22-3.7-31.1-3.3
		C2,81-1.4,77.8,0.6,76.2z"/>
</g>
<g>
	<path fill="#339900" d="M112,59.2c0,0,0.9-0.3,2.6-0.6c1.6-0.3,4-0.7,6.9-0.9c1.4-0.1,3-0.2,4.7-0.2s3.4,0,5.2,0.1s3.7,0.3,5.5,0.6
		c1.9,0.3,3.8,0.7,5.6,1.2c0.9,0.3,1.9,0.5,2.8,0.8c0.9,0.3,1.8,0.6,2.7,1c1.8,0.7,3.5,1.5,5.1,2.4c0.8,0.4,1.6,0.9,2.3,1.4
		s1.4,1,2.1,1.5c1.3,1,2.5,2,3.6,3c1.1,0.9,1.9,2,2.7,2.8c0.7,0.9,1.4,1.7,1.9,2.4c0.9,1.4,1.5,2.2,1.5,2.2s-0.6-0.7-1.7-2
		c-0.5-0.6-1.3-1.3-2.1-2.2c-0.4-0.4-0.9-0.8-1.4-1.3c-0.2-0.2-0.5-0.4-0.7-0.7c-0.3-0.2-0.5-0.4-0.8-0.7c-1.1-0.9-2.3-1.8-3.7-2.7
		c-0.7-0.4-1.4-0.9-2.1-1.3c-0.8-0.4-1.5-0.9-2.3-1.3c-1.6-0.8-3.2-1.5-5-2.2c-0.9-0.3-1.7-0.7-2.6-0.9c-0.9-0.3-1.8-0.5-2.7-0.8
		c-1.8-0.5-3.7-0.9-5.5-1.2s-3.6-0.6-5.4-0.7c-1.8-0.2-3.5-0.3-5.1-0.3c-1.6-0.1-3.2-0.1-4.6,0c-2.9,0.1-5.2,0.2-6.9,0.4
		C113,59.1,112,59.2,112,59.2z"/>
</g>
<g>
	<path fill="#66FF33" d="M35.4,164.3c6.5-42.8,58.7-80.6,109.4-86.8c52.4-7.8,46,52.2,7.7,60.4c-2.8,0.6-6.1,0.7-9.6,0.5l-2-11.4
		c0,0-4.4-1.7-9.2,10.3c-4.2-0.5-8.6-1.1-12.8-1.4l0.6-10.2c0,0-2.7,4.2-5.9,10c-2.9,0-5.7,0.2-8.3,0.7c-1.5,0.3-3.5,0.8-5.8,1.4
		l-4.2-16.4c0,0-4.9-2.9-11.1,21.2c-2.5,0.9-5.1,1.9-7.8,2.9l-2.8-20.8c0,0-1.6,12.6-4,21.5c-8.5,4.2-22.6,14.1-28.3,19.7
		C39,168.2,34.9,167,35.4,164.3z"/>
</g>
<g>
	<path fill="#339900" d="M92.4,94.8c0,0,0.9-0.9,2.7-2.4c1.8-1.5,4.3-3.5,7.6-5.7c3.3-2.2,7.3-4.6,11.8-6.7c2.3-1,4.6-2.1,7.1-3
		c2.5-0.9,5-1.7,7.6-2.3c1.3-0.3,2.6-0.6,3.9-0.8c1.3-0.2,2.6-0.5,3.9-0.6c0.7-0.1,1.3-0.1,2-0.2c0.6-0.1,1.3-0.1,1.9-0.1
		c0.6,0,1.3-0.1,1.9-0.1c0.6,0,1.3,0,1.9,0c1.3,0,2.5,0.1,3.7,0.2c1.2,0.1,2.4,0.3,3.5,0.5s2.2,0.4,3.3,0.7c0.5,0.1,1,0.2,1.5,0.4
		c0.5,0.2,1,0.3,1.5,0.5c1.9,0.6,3.6,1.4,5.1,2c1.4,0.7,2.7,1.4,3.7,2c1.9,1.3,3,2,3,2s-1.2-0.5-3.3-1.5c-1.1-0.4-2.4-0.9-3.8-1.5
		c-1.5-0.4-3.2-1-5.1-1.4c-0.5-0.1-0.9-0.2-1.4-0.3c-0.5-0.1-1-0.2-1.5-0.2c-1-0.2-2.1-0.4-3.2-0.4c-1.1-0.1-2.2-0.2-3.4-0.2
		s-2.3-0.1-3.5,0c-0.6,0-1.2,0-1.8,0s-1.2,0.1-1.8,0.1c-1.2,0.1-2.5,0.2-3.7,0.4c-1.3,0.1-2.5,0.4-3.8,0.6s-2.5,0.5-3.7,0.8
		c-2.5,0.6-5,1.3-7.4,2.2c-2.4,0.8-4.7,1.7-7,2.6c-2.2,1-4.4,1.9-6.4,2.9s-3.9,2-5.6,2.9C96.8,91.8,92.4,94.8,92.4,94.8z"/>
</g>
<g>
	<path fill="#66FF33" d="M124,134.5l6.3,1.8l-8.4,4.3c-0.6,1.8-1.2,3.7-1.7,5.7l9.5,0.3l-10.1,1.6c-0.6,2-1.1,4-1.6,6.1l8.2,5.7
		l-10.6,4.9c-0.4,2.2-0.9,4.5-1.2,6.8l8.2,3.6c-1.4,2-5.1,3.4-9.4,4.4c-0.9,7-1.3,14.2-1.3,21.2c0,0,12.1-5.6,25.4-16.8
		c-2.3-3.2-4.3-5.9-4.3-5.9l7.2,3.4c0.5-0.4,1-0.9,1.5-1.3l-6.5-5.5l12.6-0.3c4.6-2.8,9.2-11,11.3-14.2l-14.4-8.4l17.9,2.5
		c0.7-1.2,1.4-2.5,2-3.8l-6.1-6.8l8.5,1.4c0.2-0.5,0.4-1,0.6-1.5l-20.8-9l21.9,6c3.1-9.3,4.7-19.6,3.7-31c0,0-22.2-15.5-30.6-9.8
		C137.8,102.8,130.4,116.2,124,134.5z"/>
</g>
<g>
	<path fill="#339900" d="M196.7,41.2c0,0-0.7,0.3-1.9,0.8s-2.9,1.3-4.9,2.4c-2,1-4.3,2.3-6.6,3.8c-1.2,0.7-2.4,1.6-3.5,2.4
		c-1.2,0.9-2.4,1.7-3.5,2.7c-1.1,0.9-2.2,1.9-3.2,3c-1,1-2,2.1-2.8,3.2c-0.9,1.1-1.6,2.2-2.3,3.2c-0.3,0.5-0.7,1.1-0.9,1.6
		c-0.3,0.5-0.6,1-0.8,1.5s-0.5,1-0.6,1.5c-0.2,0.5-0.3,0.9-0.5,1.3c-0.3,0.8-0.5,1.6-0.7,2.2c-0.3,1.3-0.4,2-0.4,2s0-0.7,0.2-2.1
		c0.1-0.6,0.2-1.4,0.4-2.3c0.1-0.4,0.2-0.9,0.4-1.4c0.1-0.5,0.4-1,0.5-1.5c0.4-1.1,0.9-2.2,1.5-3.3c0.6-1.2,1.4-2.3,2.2-3.5
		c0.8-1.1,1.8-2.3,2.8-3.4c1.1-1.1,2.1-2.1,3.3-3.1s2.4-1.9,3.6-2.7c1.2-0.9,2.5-1.6,3.7-2.3c2.4-1.4,4.8-2.6,6.9-3.5
		c2.1-0.9,3.9-1.5,5.1-1.9C196,41.3,196.7,41.2,196.7,41.2z"/>
</g>
<g>
	<g>
		<path fill="#66FF33" d="M299.6,164c-4.5-45.1-29.3-81.3-81.9-90.5c-54.4-11-78.6,45.9-39,56.5c2.9,0.8,6.3,1,10,1l-0.2-26.7
			c0,0,7.6,13.3,12,26.1c4.5-0.3,9-0.7,13.5-0.8l-0.1-10.7c0,0,2.6,4.5,5.6,10.8c3.1,0.2,6,0.5,8.7,1.2c1.5,0.4,3.6,1,6,1.8l3.2-36
			c0,0,7.4,16.4,12.6,41.9c2.6,1.1,5.3,2.2,8,3.5l4.1-21.6c0,0,7.1,18.8,9.1,28.3c8.6,4.8,16.7,10.4,22.3,16.6
			C295.6,167.9,299.8,166.9,299.6,164z"/>
	</g>
	<g>
		<path fill="#339900" d="M261.2,91c0,0-1.4-0.8-3.8-2c-2.5-1.2-6-3-10.3-4.9c-2.1-1-4.5-1.9-7-2.9s-5.2-2-7.9-2.9
			c-2.8-0.9-5.7-1.8-8.6-2.6c-2.9-0.8-6-1.5-9-2c-3.1-0.5-6.1-0.9-9.2-1.1c-0.8,0-1.5-0.1-2.3-0.1s-1.5,0-2.2,0
			c-1.5-0.1-2.9,0.1-4.4,0.2c-1.4,0.1-2.8,0.4-4.2,0.5c-1.4,0.3-2.7,0.5-4,0.9c-1.3,0.4-2.5,0.7-3.7,1.2c-1.1,0.5-2.3,0.9-3.3,1.4
			s-2,1-2.9,1.5c-0.9,0.6-1.7,1.1-2.5,1.6s-1.5,1.1-2.1,1.6s-1.2,1-1.8,1.4c-2,1.9-3.1,3-3.1,3s0.2-0.3,0.7-0.9
			c0.5-0.6,1.1-1.4,2-2.5c0.5-0.5,1-1,1.6-1.6c0.6-0.6,1.2-1.3,2-1.8c0.8-0.6,1.6-1.3,2.4-1.9c0.9-0.6,1.9-1.2,2.9-1.8
			c1-0.6,2.2-1.1,3.4-1.7c1.2-0.5,2.5-0.9,3.8-1.4c1.3-0.4,2.7-0.8,4.1-1.1c0.7-0.1,1.4-0.3,2.2-0.4c0.7-0.1,1.5-0.3,2.2-0.3
			c1.5-0.1,3-0.4,4.6-0.4c0.8,0,1.6,0,2.3-0.1c0.8,0,1.6,0.1,2.4,0.1c3.2,0.1,6.3,0.5,9.5,1c3.1,0.6,6.3,1.3,9.3,2.2
			c0.8,0.2,1.5,0.4,2.3,0.6c0.7,0.2,1.5,0.5,2.2,0.7c1.5,0.5,2.9,1,4.3,1.5c1.4,0.5,2.8,1.1,4.1,1.6c1.3,0.6,2.6,1.1,3.8,1.7
			c2.5,1.1,4.8,2.3,6.9,3.4c2.1,1.1,4,2.2,5.6,3.2c1.7,1,3.1,1.9,4.2,2.7c1.2,0.8,2,1.4,2.6,1.8C260.9,90.8,261.2,91,261.2,91z"/>
	</g>
</g>
</svg>
