<!-- Generator: Adobe Illustrator 18.1.1, SVG Export Plug-In  -->
<svg version="1.1"
	 xmlns="http://www.w3.org/2000/svg" xmlns:xlink="http://www.w3.org/1999/xlink" xmlns:a="http://ns.adobe.com/AdobeSVGViewerExtensions/3.0/"
	 x="0px" y="0px" width="475.4px" height="584.4px" viewBox="0 0 475.4 584.4" enable-background="new 0 0 475.4 584.4"
	 xml:space="preserve">
<defs>
</defs>
<g>
	<g>
		<path fill="#33CC00" d="M474.4,107.3c-52.3-44.1-120.4-85.5-213.8-44.5c-98.1,40.7-87.9,151.8-13.9,124.9c5.4-2,11.1-5,17.1-8.6
			l-50.2-49.6c0,0,48.7,28,68.5,37.5c6.8-4.7,13.8-9.5,20.8-13.8l-65.2-46.7c0,0,63,37.6,74.1,41.5c5.1-2.8,10.1-5.2,15.1-7.1
			c2.9-1.1,6.8-2.4,11.5-3.9L301,86c0,0,17.8,20.4,51.7,42.8c5.2-1.3,27.4-3.4,33-4.7l-32.1-37.8c0,0,47.2,23.9,59.9,32.2
			c18.6-3.1,37.1-4.9,52.3-3.8C471.9,115.3,477.8,110.1,474.4,107.3z"/>
	</g>
	<g>
		<path fill="#33CC00" d="M305.5,2.6c-29.2,2.4-69.1,29.2-85,69.9c-17.4,42,25.9,53.9,40.3,23.3c1-2.2,1.9-4.9,2.6-7.8L233,88.2
			c0,0,23.2-6.2,32.1-9.3c0.7-3.5,1.3-7,2.1-10.5l-33.9,5.6c0,0,30.5-7.6,35-9.8c0.7-2.4,1.5-4.6,2.5-6.7c0.6-1.2,1.3-2.8,2.3-4.6
			L259.9,46c0,0,2.9-2,20-5.4c1.2-2,2.4-4,3.7-6.1l-12.8-3.7c0,0,13.2-5.1,19.6-6.4c4.7-6.6,9.8-12.7,14.7-17
			C307.1,5.8,307.3,2.4,305.5,2.6z"/>
	</g>
	<g>
		<defs>
			<path id="XMLID_1_" d="M186.3,557.8c9.2-54.5,38.1-240.7,29.7-385.1c-0.6-10.6,6.9-20.2,17.5-21.4c2.8-0.3,5.9-0.1,9.1,1.1
				c8.4,3,13.6,11.3,13.2,20.1c-2.6,52.5-7.8,280,18.9,381.4c3.1,11.9-2.8,24.2-14.9,26.8c-16.3,3.6-38.6,6.1-59.1,0.2
				C190.8,577.9,184.6,568,186.3,557.8z"/>
		</defs>
		<use xlink:href="#XMLID_1_"  overflow="visible" fill="#CA992C"/>
		<clipPath id="XMLID_2_">
			<use xlink:href="#XMLID_1_"  overflow="visible"/>
		</clipPath>
		<g clip-path="url(#XMLID_2_)">
			<path fill="#996733" d="M261.3,277.3c0,0-0.1,0-0.4,0c-0.3,0-0.7,0-1.2,0c-1,0-2.3,0-3.9-0.1c-1.6-0.1-3.5-0.2-5.5-0.4
				c-2-0.2-4.1-0.5-6.2-0.8c-2.1-0.4-4.2-0.8-6.1-1.2c-1-0.2-1.9-0.5-2.8-0.7c-0.9-0.3-1.7-0.5-2.4-0.7c-0.7-0.3-1.4-0.5-2-0.7
				c-0.6-0.2-1.1-0.4-1.5-0.6c-0.8-0.3-1.3-0.5-1.3-0.5s0.5,0,1.4,0.1c0.4,0,1,0.1,1.6,0.1c0.6,0,1.3,0,2.1,0.1c0.8,0,1.6,0,2.5,0
				c0.9,0,1.8,0,2.8-0.1c1.9-0.1,3.9-0.3,5.9-0.5c2-0.2,4-0.6,5.9-0.9c1.9-0.4,3.6-0.7,5-1.1c1.5-0.4,2.7-0.7,3.5-0.9
				c0.4-0.1,0.7-0.2,0.9-0.3c0.2-0.1,0.3-0.1,0.3-0.1L261.3,277.3z"/>
		</g>
		<g clip-path="url(#XMLID_2_)">
			<path fill="#996733" d="M264.1,242c0,0-0.1,0-0.4,0c-0.3,0-0.7,0-1.2,0c-1,0-2.3,0-3.9-0.1c-1.6-0.1-3.5-0.2-5.5-0.4
				c-2-0.2-4.1-0.5-6.2-0.8c-2.1-0.4-4.2-0.8-6.1-1.2c-1-0.2-1.9-0.5-2.8-0.7c-0.9-0.3-1.7-0.5-2.4-0.7c-0.7-0.3-1.4-0.5-2-0.7
				c-0.6-0.2-1.1-0.4-1.5-0.6c-0.8-0.3-1.3-0.5-1.3-0.5s0.5,0,1.4,0.1c0.4,0,1,0.1,1.6,0.1c0.6,0,1.3,0,2.1,0.1c0.8,0,1.6,0,2.5,0
				c0.9,0,1.8,0,2.8-0.1c1.9-0.1,3.9-0.3,5.9-0.5c2-0.2,4-0.6,5.9-0.9c1.9-0.4,3.6-0.7,5-1.1c1.5-0.4,2.7-0.7,3.5-0.9
				c0.4-0.1,0.7-0.2,0.9-0.3c0.2-0.1,0.3-0.1,0.3-0.1L264.1,242z"/>
		</g>
		<g clip-path="url(#XMLID_2_)">
			<path fill="#996733" d="M261.3,317.5c0,0-0.1,0-0.4,0c-0.3,0-0.7,0-1.2,0c-1,0-2.3,0-3.9-0.1c-1.6-0.1-3.5-0.2-5.5-0.4
				c-2-0.2-4.1-0.5-6.2-0.8c-2.1-0.4-4.2-0.8-6.1-1.2c-1-0.2-1.9-0.5-2.8-0.7c-0.9-0.3-1.7-0.5-2.4-0.7c-0.7-0.3-1.4-0.5-2-0.7
				c-0.6-0.2-1.1-0.4-1.5-0.6c-0.8-0.3-1.3-0.5-1.3-0.5s0.5,0,1.4,0.1c0.4,0,1,0.1,1.6,0.1c0.6,0,1.3,0,2.1,0.1c0.8,0,1.6,0,2.5,0
				c0.9,0,1.8,0,2.8-0.1c1.9-0.1,3.9-0.3,5.9-0.5c2-0.2,4-0.6,5.9-0.9c1.9-0.4,3.6-0.7,5-1.1c1.5-0.4,2.7-0.7,3.5-0.9
				c0.4-0.1,0.7-0.2,0.9-0.3c0.2-0.1,0.3-0.1,0.3-0.1L261.3,317.5z"/>
		</g>
		<g clip-path="url(#XMLID_2_)">
			<path fill="#996733" d="M270.2,367c0,0-0.7,0-1.8,0.1c-1.1,0-2.8,0-4.7,0c-1.9,0-4.2-0.1-6.6-0.2c-2.4-0.1-5-0.3-7.5-0.5
				c-1.3-0.1-2.5-0.3-3.8-0.4c-1.2-0.2-2.5-0.4-3.7-0.5c-1.2-0.2-2.3-0.4-3.4-0.6c-1.1-0.2-2.1-0.5-3-0.7c-0.9-0.3-1.8-0.5-2.5-0.7
				c-0.7-0.2-1.4-0.4-1.9-0.6c-1-0.4-1.6-0.6-1.6-0.6s0.6,0.1,1.7,0.2c0.5,0,1.2,0.1,2,0.2c0.8,0,1.6,0.1,2.5,0.1c0.9,0,1.9,0,3,0
				c1.1-0.1,2.2-0.1,3.3-0.2c1.2-0.1,2.3-0.2,3.6-0.3c1.2-0.2,2.4-0.3,3.7-0.5c2.4-0.4,4.9-0.8,7.2-1.2c2.3-0.4,4.4-0.9,6.2-1.3
				c1.8-0.4,3.3-0.8,4.3-1.1c1-0.3,1.6-0.4,1.6-0.4L270.2,367z"/>
		</g>
		<g clip-path="url(#XMLID_2_)">
			<path fill="#996733" d="M276.8,416c0,0-1.3,0.2-3.4,0.5c-2.2,0.3-5.3,0.6-9,1c-7.4,0.7-17.4,1.4-27.3,1.3c-2.5,0-5-0.1-7.4-0.2
				c-1.2-0.1-2.4-0.1-3.6-0.2c-1.2-0.1-2.4-0.2-3.5-0.3c-2.3-0.2-4.6-0.6-6.7-1c-2.1-0.4-4.1-0.8-5.9-1.3c-0.9-0.3-1.8-0.6-2.6-0.8
				c-0.8-0.3-1.6-0.6-2.3-0.9c-0.7-0.3-1.3-0.6-1.9-0.9c-0.6-0.3-1.1-0.6-1.6-0.9c-0.5-0.3-0.9-0.5-1.2-0.8
				c-0.3-0.3-0.6-0.5-0.8-0.6c-0.5-0.4-0.7-0.5-0.7-0.5s0.3,0.2,0.8,0.4c0.2,0.1,0.6,0.3,0.9,0.5c0.4,0.2,0.8,0.4,1.3,0.6
				c0.5,0.2,1,0.5,1.6,0.7c0.6,0.2,1.2,0.5,2,0.6c0.7,0.2,1.5,0.4,2.3,0.6c0.8,0.1,1.7,0.3,2.6,0.5c1.8,0.3,3.8,0.5,5.8,0.6
				c2.1,0.1,4.3,0.2,6.6,0.1c1.1,0,2.3,0,3.5-0.1c1.2,0,2.4-0.1,3.5-0.2c2.4-0.2,4.8-0.4,7.2-0.7c9.7-1.1,19.2-2.9,26.3-4.5
				c3.6-0.8,6.5-1.5,8.6-2c2-0.5,3.2-0.8,3.2-0.8L276.8,416z"/>
		</g>
		<g clip-path="url(#XMLID_2_)">
			<path fill="#996733" d="M299.8,480.7c0,0-1.4,0.1-3.7,0.3c-2.4,0.2-5.8,0.5-9.8,0.7c-8.1,0.5-19,1.1-29.8,1.1
				c-5.4,0-10.8-0.1-15.9-0.4c-2.5-0.1-5-0.3-7.3-0.5c-1.2-0.1-2.3-0.2-3.4-0.4c-1.1-0.1-2.1-0.3-3.1-0.4c-1-0.2-2-0.3-2.9-0.5
				c-0.9-0.2-1.8-0.3-2.6-0.5c-1.6-0.4-3-0.7-4.1-1c-1.1-0.3-2-0.6-2.6-0.8c-0.6-0.2-0.9-0.3-0.9-0.3s0.3,0.1,0.9,0.2
				c0.6,0.1,1.5,0.4,2.7,0.5c1.2,0.2,2.6,0.4,4.2,0.6c0.8,0.1,1.7,0.1,2.6,0.2c0.9,0,1.9,0.1,2.9,0.1c1,0,2,0,3.1,0.1
				c1.1,0,2.2,0,3.3,0c2.3,0,4.7-0.1,7.2-0.3c5-0.3,10.3-0.8,15.7-1.4c10.6-1.2,21.2-2.9,29.1-4.3c3.9-0.7,7.2-1.3,9.5-1.8
				c2.3-0.5,3.6-0.7,3.6-0.7L299.8,480.7z"/>
		</g>
		<g clip-path="url(#XMLID_2_)">
			<path fill="#996733" d="M300.1,528.1c0,0-1.4,0.1-3.7,0.3c-2.4,0.2-5.8,0.5-9.8,0.7c-8.1,0.5-19,1.1-29.8,1.1
				c-5.4,0-10.8-0.1-15.9-0.4c-2.5-0.1-5-0.3-7.3-0.5c-1.2-0.1-2.3-0.2-3.4-0.4c-1.1-0.1-2.1-0.3-3.1-0.4c-1-0.2-2-0.3-2.9-0.5
				c-0.9-0.2-1.8-0.3-2.6-0.5c-1.6-0.4-3-0.7-4.1-1c-1.1-0.3-2-0.6-2.6-0.8c-0.6-0.2-0.9-0.3-0.9-0.3s0.3,0.1,0.9,0.2
				c0.6,0.1,1.5,0.4,2.7,0.5c1.2,0.2,2.6,0.4,4.2,0.6c0.8,0.1,1.7,0.1,2.6,0.2c0.9,0,1.9,0.1,2.9,0.1c1,0,2,0,3.1,0.1
				c1.1,0,2.2,0,3.3,0c2.3,0,4.7-0.1,7.2-0.3c5-0.3,10.3-0.8,15.7-1.4c10.6-1.2,21.2-2.9,29.1-4.3c3.9-0.7,7.2-1.3,9.5-1.8
				c2.3-0.5,3.6-0.7,3.6-0.7L300.1,528.1z"/>
		</g>
		<g clip-path="url(#XMLID_2_)">
			<path fill="#996733" d="M201.4,283.3c0,0,0.1,0,0.3,0.1c0.2,0.1,0.5,0.2,0.9,0.3c0.8,0.2,2,0.6,3.5,0.9c1.5,0.4,3.2,0.7,5,1.1
				c1.9,0.3,3.9,0.7,5.9,0.9c2,0.2,4,0.4,5.9,0.5c1,0.1,1.9,0.1,2.8,0.1c0.9,0,1.7,0,2.5,0c0.8,0,1.5-0.1,2.1-0.1
				c0.6-0.1,1.2-0.1,1.6-0.1c0.9-0.1,1.4-0.1,1.4-0.1s-0.5,0.2-1.3,0.5c-0.4,0.2-0.9,0.4-1.5,0.6c-0.6,0.2-1.3,0.4-2,0.7
				c-0.7,0.3-1.6,0.5-2.4,0.7c-0.9,0.3-1.8,0.5-2.8,0.7c-1.9,0.5-4,0.9-6.1,1.2c-2.1,0.4-4.2,0.6-6.2,0.8c-2,0.2-3.9,0.3-5.5,0.4
				c-1.6,0.1-3,0.1-3.9,0.1c-0.5,0-0.9,0-1.2,0c-0.3,0-0.4,0-0.4,0L201.4,283.3z"/>
		</g>
		<g clip-path="url(#XMLID_2_)">
			<path fill="#996733" d="M198.5,248c0,0,0.1,0,0.3,0.1c0.2,0.1,0.5,0.2,0.9,0.3c0.8,0.2,2,0.6,3.5,0.9c1.5,0.4,3.2,0.7,5,1.1
				c1.9,0.3,3.9,0.7,5.9,0.9c2,0.2,4,0.4,5.9,0.5c1,0.1,1.9,0.1,2.8,0.1c0.9,0,1.7,0,2.5,0c0.8,0,1.5-0.1,2.1-0.1
				c0.6-0.1,1.2-0.1,1.6-0.1c0.9-0.1,1.4-0.1,1.4-0.1s-0.5,0.2-1.3,0.5c-0.4,0.2-0.9,0.4-1.5,0.6c-0.6,0.2-1.3,0.4-2,0.7
				c-0.7,0.3-1.6,0.5-2.4,0.7c-0.9,0.3-1.8,0.5-2.8,0.7c-1.9,0.5-4,0.9-6.1,1.2c-2.1,0.4-4.2,0.6-6.2,0.8c-2,0.2-3.9,0.3-5.5,0.4
				c-1.6,0.1-3,0.1-3.9,0.1c-0.5,0-0.9,0-1.2,0c-0.3,0-0.4,0-0.4,0L198.5,248z"/>
		</g>
		<g clip-path="url(#XMLID_2_)">
			<path fill="#996733" d="M201.4,323.6c0,0,0.1,0,0.3,0.1c0.2,0.1,0.5,0.2,0.9,0.3c0.8,0.2,2,0.6,3.5,0.9c1.5,0.4,3.2,0.7,5,1.1
				c1.9,0.3,3.9,0.7,5.9,0.9c2,0.2,4,0.4,5.9,0.5c1,0.1,1.9,0.1,2.8,0.1c0.9,0,1.7,0,2.5,0c0.8,0,1.5-0.1,2.1-0.1
				c0.6-0.1,1.2-0.1,1.6-0.1c0.9-0.1,1.4-0.1,1.4-0.1s-0.5,0.2-1.3,0.5c-0.4,0.2-0.9,0.4-1.5,0.6c-0.6,0.2-1.3,0.4-2,0.7
				c-0.7,0.3-1.6,0.5-2.4,0.7c-0.9,0.3-1.8,0.5-2.8,0.7c-1.9,0.5-4,0.9-6.1,1.2c-2.1,0.4-4.2,0.6-6.2,0.8c-2,0.2-3.9,0.3-5.5,0.4
				c-1.6,0.1-3,0.1-3.9,0.1c-0.5,0-0.9,0-1.2,0c-0.3,0-0.4,0-0.4,0L201.4,323.6z"/>
		</g>
		<g clip-path="url(#XMLID_2_)">
			<path fill="#996733" d="M192.5,373c0,0,0.6,0.2,1.6,0.4c1,0.3,2.5,0.6,4.3,1.1c1.8,0.4,3.9,0.9,6.2,1.3c2.3,0.5,4.7,0.9,7.2,1.2
				c1.2,0.2,2.4,0.3,3.7,0.5c1.2,0.1,2.4,0.2,3.6,0.3c1.2,0.1,2.3,0.1,3.3,0.2c1.1,0,2.1,0,3,0c0.9,0,1.8-0.1,2.5-0.1
				c0.8,0,1.4-0.1,2-0.2c1.1-0.1,1.7-0.2,1.7-0.2s-0.6,0.2-1.6,0.6c-0.5,0.2-1.2,0.4-1.9,0.6c-0.7,0.2-1.6,0.4-2.5,0.7
				c-0.9,0.2-1.9,0.4-3,0.7c-1.1,0.2-2.2,0.4-3.4,0.6c-1.2,0.2-2.4,0.3-3.7,0.5c-1.2,0.1-2.5,0.3-3.8,0.4c-2.5,0.2-5.1,0.4-7.5,0.5
				c-2.4,0.1-4.6,0.2-6.6,0.2c-1.9,0-3.5,0-4.7,0c-1.2,0-1.8-0.1-1.8-0.1L192.5,373z"/>
		</g>
		<g clip-path="url(#XMLID_2_)">
			<path fill="#996733" d="M189.2,444.3c0,0,1.2,0.3,3.2,0.8c2,0.5,5,1.2,8.6,2c7.1,1.5,16.7,3.4,26.3,4.5c2.4,0.3,4.8,0.5,7.2,0.7
				c1.2,0.1,2.4,0.2,3.5,0.2c1.2,0.1,2.3,0.1,3.5,0.1c2.3,0,4.5,0,6.6-0.1c2.1-0.1,4-0.3,5.8-0.6c0.9-0.1,1.7-0.3,2.6-0.5
				c0.8-0.2,1.6-0.4,2.3-0.6c0.7-0.2,1.4-0.4,2-0.6c0.6-0.2,1.1-0.4,1.6-0.7c0.5-0.2,0.9-0.4,1.3-0.6c0.4-0.2,0.7-0.4,0.9-0.5
				c0.5-0.3,0.8-0.4,0.8-0.4s-0.2,0.2-0.7,0.5c-0.2,0.2-0.5,0.4-0.8,0.6c-0.3,0.3-0.8,0.5-1.2,0.8c-0.5,0.3-1,0.6-1.6,0.9
				c-0.6,0.3-1.2,0.6-1.9,0.9c-0.7,0.3-1.5,0.6-2.3,0.9c-0.8,0.3-1.7,0.6-2.6,0.8c-1.8,0.5-3.8,1-5.9,1.3c-2.1,0.4-4.3,0.7-6.7,1
				c-1.2,0.1-2.3,0.3-3.5,0.3c-1.2,0.1-2.4,0.2-3.6,0.2c-2.4,0.1-4.9,0.2-7.4,0.2c-10,0.1-19.9-0.6-27.3-1.3c-3.7-0.3-6.8-0.7-9-1
				c-2.2-0.3-3.4-0.5-3.4-0.5L189.2,444.3z"/>
		</g>
		<g clip-path="url(#XMLID_2_)">
			<path fill="#996733" d="M162.8,486.7c0,0,1.3,0.3,3.6,0.7c2.3,0.5,5.6,1.1,9.5,1.8c7.9,1.4,18.5,3.1,29.1,4.3
				c5.3,0.6,10.6,1.1,15.7,1.4c2.5,0.1,4.9,0.2,7.2,0.3c1.1,0,2.3,0,3.3,0c1.1,0,2.1,0,3.1-0.1c1,0,2-0.1,2.9-0.1
				c0.9-0.1,1.8-0.1,2.6-0.2c1.6-0.2,3-0.3,4.2-0.6c1.2-0.2,2.1-0.4,2.7-0.5c0.6-0.1,0.9-0.2,0.9-0.2s-0.3,0.1-0.9,0.3
				c-0.6,0.2-1.5,0.5-2.6,0.8c-1.1,0.4-2.5,0.7-4.1,1c-0.8,0.2-1.7,0.3-2.6,0.5c-0.9,0.1-1.9,0.3-2.9,0.5c-1,0.1-2.1,0.3-3.1,0.4
				c-1.1,0.1-2.2,0.2-3.4,0.4c-2.3,0.2-4.8,0.4-7.3,0.5c-5.1,0.3-10.5,0.4-15.9,0.4c-10.8,0-21.7-0.5-29.8-1.1
				c-4.1-0.3-7.4-0.5-9.8-0.7c-2.4-0.2-3.7-0.3-3.7-0.3L162.8,486.7z"/>
		</g>
		<g clip-path="url(#XMLID_2_)">
			<path fill="#996733" d="M162.5,534.1c0,0,1.3,0.3,3.6,0.7c2.3,0.5,5.6,1.1,9.5,1.8c7.9,1.4,18.5,3.1,29.1,4.3
				c5.3,0.6,10.6,1.1,15.7,1.4c2.5,0.1,4.9,0.2,7.2,0.3c1.1,0,2.3,0,3.3,0c1.1,0,2.1,0,3.1-0.1c1,0,2-0.1,2.9-0.1
				c0.9-0.1,1.8-0.1,2.6-0.2c1.6-0.2,3-0.3,4.2-0.6c1.2-0.2,2.1-0.4,2.7-0.5c0.6-0.1,0.9-0.2,0.9-0.2s-0.3,0.1-0.9,0.3
				c-0.6,0.2-1.5,0.5-2.6,0.8c-1.1,0.4-2.5,0.7-4.1,1c-0.8,0.2-1.7,0.3-2.6,0.5c-0.9,0.1-1.9,0.3-2.9,0.5c-1,0.1-2.1,0.3-3.1,0.4
				c-1.1,0.1-2.2,0.2-3.4,0.4c-2.3,0.2-4.8,0.4-7.3,0.5c-5.1,0.3-10.5,0.4-15.9,0.4c-10.8,0-21.7-0.5-29.8-1.1
				c-4.1-0.3-7.4-0.5-9.8-0.7c-2.4-0.2-3.7-0.3-3.7-0.3L162.5,534.1z"/>
		</g>
	</g>
	<g>
		<path fill="#33CC00" d="M59.7,40.7c41.5-16.5,114-6.9,163.4,37.8c52.3,45.5,1.1,91.1-39.1,59.1c-2.9-2.3-5.9-5.4-8.8-8.9
			l41.3-20.3c0,0-35.9,7.3-50.2,9c-3.3-4.3-6.6-8.7-10-12.9l50-15.4c0,0-46.8,10.2-54.5,10.3c-2.6-2.8-5.2-5.3-7.9-7.5
			c-1.6-1.3-3.7-2.9-6.3-4.8l21.1-25.4c0,0-8.8,12.4-34.4,19.3c-2.9-1.9-13.9-13.1-17.1-15L129.6,46c0,0-18.8,13.4-28.4,15.9
			c-10.9-5.8-28.1-12.3-37.8-14.8C59.6,46.2,57,41.7,59.7,40.7z"/>
	</g>
	<g>
		<path fill="#339900" d="M173.8,184.8c0,0,0-1.2,0.2-3.2c0.2-2,0.7-4.9,1.5-8.2c0.4-1.7,0.9-3.5,1.6-5.4c0.6-1.9,1.4-3.9,2.3-5.9
			c0.9-2,1.9-4,3-6c1.1-2,2.4-4,3.8-5.9c1.4-1.9,2.9-3.7,4.6-5.4c0.4-0.4,0.8-0.8,1.2-1.2c0.4-0.4,0.9-0.8,1.3-1.2
			c0.8-0.8,1.7-1.5,2.6-2.2c1.8-1.4,3.6-2.5,5.4-3.5c1.8-1,3.5-1.8,5.2-2.4c1.6-0.7,3.2-1,4.6-1.4c1.4-0.3,2.6-0.5,3.6-0.6
			c2-0.2,3.2-0.2,3.2-0.2s-1.1,0.4-3,1c-0.9,0.3-2,0.8-3.3,1.3c-0.6,0.3-1.3,0.6-2,0.9c-0.7,0.3-1.4,0.7-2.1,1.1
			c-0.7,0.4-1.5,0.8-2.3,1.3c-0.7,0.5-1.6,0.9-2.3,1.5c-1.6,1.1-3.1,2.3-4.7,3.7c-0.8,0.7-1.6,1.4-2.3,2.1c-0.4,0.4-0.8,0.8-1.1,1.1
			c-0.4,0.4-0.7,0.8-1.1,1.2c-1.5,1.6-2.8,3.3-4.2,5.1c-1.3,1.8-2.6,3.6-3.7,5.5c-1.2,1.9-2.2,3.8-3.2,5.6c-1,1.9-1.9,3.7-2.7,5.4
			c-0.8,1.8-1.5,3.4-2.2,5c-0.6,1.6-1.2,3-1.7,4.3c-0.5,1.3-0.9,2.4-1.2,3.4C174.1,183.7,173.8,184.8,173.8,184.8z"/>
	</g>
	<path fill="#33CC00" d="M224,58.6l-6.3,4.9l1.7-11.3c-1.4-1.9-2.9-3.8-4.4-5.7l-7.1,9.1l5.6-11c-1.6-1.9-3.2-3.9-4.8-5.8l-11.4,4.1
		l2.6-13.9c-1.9-2-3.8-4-5.8-6l-9.3,5.6c-1-2.7,0.3-7.4,2.3-12.3c-6.3-5.8-13-11.3-20-16.3c0,0-3,15.8-1.4,36.9c4.8,0,8.9,0,8.9,0
		l-8.4,4.7c0.1,0.8,0.2,1.6,0.3,2.4l10-2.5L167.9,54c-0.5,6.5,4.3,16.8,6,21.1l18.4-8.2l-15.1,15.8c0.7,1.5,1.5,3.1,2.3,4.6l11-1.1
		l-7.4,7.4c0.3,0.5,0.7,1.1,1,1.6l23.5-14.1l-21.3,17.2c6.9,9.6,16,18.4,27.8,25.4c0,0,30.9-10.9,31.2-23.2
		C245.4,94.6,237.5,77.9,224,58.6z"/>
	<g>
		<path fill="#33CC00" d="M0.9,106.2C45.7,71,138.1,56.4,214.7,93.3c80.5,36.8,34.3,111.2-26.5,86.6c-4.4-1.8-9.1-4.5-14-7.7
			l43.3-39.8c0,0-41.4,21.9-58.2,29.2c-5.5-4.1-11.2-8.3-16.9-12.1l55.7-37c0,0-53.6,29.5-63,32.3c-4.1-2.5-8.3-4.7-12.4-6.3
			c-2.4-1-5.6-2.2-9.4-3.6l-0.2-16.6c0,0,3.5-9.4-25.4,8.2c-4.3-1.3-8.8-2.5-13.4-3.8l-0.2-16.5c0,0-12,4.5-22.9,11.1
			c-15.4-3.2-30.8-5.2-43.5-4.7C2.8,112.9-2,108.4,0.9,106.2z"/>
	</g>
	<g>
		<path fill="#339900" d="M156.2,82.5c0,0,1.3-0.4,3.6-0.8c2.3-0.4,5.6-1,9.6-1.3c2-0.2,4.2-0.3,6.5-0.3c2.3,0,4.7,0,7.3,0.2
			c1.3,0.1,2.5,0.2,3.8,0.3c1.3,0.1,2.6,0.3,3.9,0.5c1.3,0.2,2.6,0.5,3.9,0.7c1.3,0.3,2.6,0.6,3.9,0.9c1.3,0.4,2.6,0.7,3.9,1.2
			c0.6,0.2,1.3,0.4,1.9,0.6c0.6,0.2,1.2,0.5,1.9,0.7c2.5,0.9,4.8,2.1,7.1,3.3c1.1,0.6,2.2,1.3,3.2,1.9c1,0.7,2,1.4,2.9,2
			c1.9,1.4,3.6,2.8,5,4.2c0.4,0.3,0.7,0.7,1.1,1c0.3,0.4,0.7,0.7,1,1c0.6,0.7,1.2,1.3,1.8,1.9c1,1.3,1.9,2.4,2.6,3.3
			c1.3,1.9,2.1,3,2.1,3s-0.9-1-2.4-2.8c-0.8-0.9-1.8-1.9-2.9-3.1c-0.6-0.6-1.2-1.1-1.9-1.7c-0.3-0.3-0.7-0.6-1-0.9
			c-0.4-0.3-0.7-0.6-1.1-0.9c-1.5-1.3-3.2-2.5-5.1-3.8c-1-0.6-1.9-1.3-2.9-1.8c-1-0.6-2.1-1.2-3.2-1.8c-2.2-1.1-4.5-2.2-6.9-3.1
			c-0.6-0.2-1.2-0.5-1.8-0.7c-0.6-0.2-1.2-0.4-1.9-0.6c-1.2-0.4-2.5-0.8-3.8-1.1c-1.3-0.4-2.6-0.6-3.8-0.9c-1.3-0.3-2.6-0.5-3.8-0.7
			c-2.6-0.4-5.1-0.8-7.6-1c-2.5-0.2-4.9-0.4-7.1-0.4c-2.3-0.1-4.4-0.1-6.4,0c-4,0.1-7.3,0.3-9.6,0.6c-1.2,0.1-2.1,0.2-2.7,0.3
			C156.5,82.5,156.2,82.5,156.2,82.5z"/>
	</g>
	<g>
		<path fill="#33CC00" d="M49.3,229c9.1-59.6,81.9-112.4,152.5-121c73.1-10.9,64.2,72.8,10.8,84.1c-3.9,0.8-8.5,0.9-13.4,0.7
			l-2.9-15.9c0,0-6.1-2.4-12.8,14.3c-5.9-0.7-12-1.5-17.8-1.9l0.9-14.2c0,0-3.8,5.8-8.2,13.9c-4.1,0-8,0.3-11.6,1
			c-2.1,0.4-4.9,1.1-8.1,2l-5.9-22.8c0,0-6.8-4.1-15.5,29.5c-3.5,1.2-7.1,2.6-10.8,4.1l-3.9-29c0,0-2.2,17.5-5.5,30
			c-11.8,5.8-31.4,19.7-39.4,27.5C54.4,234.4,48.7,232.8,49.3,229z"/>
	</g>
	<g>
		<path fill="#339900" d="M128.9,132.1c0,0,1.3-1.3,3.7-3.4c2.4-2.1,6.1-4.9,10.6-8c2.3-1.5,4.8-3.1,7.6-4.7
			c2.7-1.6,5.7-3.1,8.8-4.6c3.2-1.4,6.4-2.9,9.9-4.1c3.4-1.3,7-2.3,10.6-3.3c1.8-0.4,3.6-0.8,5.5-1.1c0.9-0.1,1.8-0.3,2.7-0.4
			l1.4-0.2l1.4-0.2c0.9-0.1,1.8-0.2,2.7-0.3c0.9-0.1,1.8-0.1,2.7-0.1c0.9,0,1.8-0.1,2.7-0.1c0.9,0,1.8,0,2.6,0
			c1.7,0,3.5,0.1,5.1,0.3c1.7,0.1,3.3,0.4,4.9,0.7c1.6,0.2,3.1,0.6,4.6,1c0.7,0.2,1.5,0.3,2.1,0.5c0.7,0.2,1.4,0.4,2,0.7
			c2.7,0.8,5,1.9,7.1,2.7c2,1,3.7,1.9,5.1,2.7c2.7,1.7,4.2,2.8,4.2,2.8s-1.7-0.7-4.6-2.1c-1.5-0.6-3.3-1.3-5.3-2
			c-2.1-0.6-4.5-1.4-7.1-2c-0.7-0.2-1.3-0.3-2-0.5c-0.7-0.1-1.4-0.2-2.1-0.3c-1.4-0.2-2.9-0.5-4.4-0.6c-1.5-0.1-3.1-0.3-4.7-0.3
			c-0.8,0-1.6,0-2.4-0.1c-0.8,0-1.6,0-2.5,0c-0.8,0-1.7,0-2.5,0.1c-0.8,0.1-1.7,0.1-2.6,0.2c-1.7,0.1-3.4,0.3-5.2,0.6l-1.3,0.2
			l-1.3,0.2c-0.9,0.2-1.7,0.3-2.6,0.5c-1.7,0.3-3.5,0.8-5.2,1.2c-3.5,0.9-6.9,1.8-10.3,3c-3.3,1.1-6.6,2.4-9.7,3.7
			c-3.1,1.4-6.1,2.7-8.9,4.1c-2.8,1.4-5.4,2.7-7.8,4c-2.4,1.3-4.6,2.5-6.5,3.7c-1.9,1.1-3.6,2.1-4.9,3c-1.3,0.9-2.4,1.5-3.1,2
			C129.2,131.9,128.9,132.1,128.9,132.1z"/>
	</g>
	<g>
		<path fill="#33CC00" d="M172.8,187.5l8.8,2.6l-11.7,6.1c-0.8,2.6-1.6,5.2-2.4,7.9l13.3,0.4l-14.1,2.2c-0.8,2.8-1.5,5.6-2.2,8.4
			l11.5,7.9l-14.8,6.9c-0.6,3.1-1.2,6.3-1.7,9.5l11.5,5c-1.9,2.7-7.1,4.7-13.1,6.1c-1.2,9.8-1.9,19.8-1.8,29.6
			c0,0,16.8-7.9,35.5-23.5c-3.2-4.5-6-8.3-6-8.3l10.1,4.7c0.7-0.6,1.3-1.2,2-1.8l-9.1-7.7l17.6-0.4c6.4-3.9,12.8-15.3,15.7-19.8
			l-20-11.7l25,3.5c1-1.7,1.9-3.5,2.8-5.2l-8.5-9.5l11.9,2c0.3-0.7,0.5-1.4,0.8-2.1l-29-12.5l30.5,8.4c4.4-12.9,6.5-27.3,5.1-43.2
			c0,0-31-21.6-42.7-13.7C192.1,143.3,181.8,161.9,172.8,187.5z"/>
	</g>
	<g>
		<path fill="#339900" d="M274.2,57.4c0,0-1,0.4-2.6,1.1c-0.8,0.4-1.8,0.8-3,1.4c-1.1,0.5-2.4,1.2-3.8,1.9c-1.4,0.7-2.9,1.5-4.4,2.4
			c-1.6,0.9-3.1,1.9-4.8,2.9c-0.8,0.5-1.6,1.1-2.5,1.6c-0.8,0.6-1.7,1.1-2.5,1.7c-1.6,1.2-3.3,2.4-4.8,3.8c-1.6,1.3-3.1,2.7-4.5,4.1
			c-1.4,1.5-2.8,2.9-3.9,4.4c-0.6,0.8-1.2,1.5-1.7,2.3c-0.5,0.8-1.1,1.5-1.5,2.2c-0.5,0.7-0.9,1.5-1.3,2.2c-0.4,0.7-0.8,1.4-1.1,2.1
			c-0.3,0.7-0.6,1.4-0.9,2c-0.3,0.7-0.5,1.3-0.7,1.9c-0.4,1.2-0.7,2.3-1,3.1c-0.4,1.8-0.6,2.8-0.6,2.8s0.1-1,0.2-2.9
			c0.2-0.9,0.3-2,0.6-3.3c0.2-0.6,0.3-1.3,0.5-2c0.2-0.7,0.5-1.4,0.7-2.2c0.6-1.5,1.3-3.1,2.2-4.7c0.4-0.8,0.9-1.6,1.4-2.4
			c0.5-0.8,1.1-1.6,1.7-2.4c1.2-1.6,2.5-3.2,3.9-4.7c1.5-1.5,3-3,4.6-4.3c1.6-1.4,3.3-2.6,5-3.8c1.7-1.2,3.4-2.3,5.1-3.3
			c1.7-1,3.4-1.9,5-2.7c1.6-0.8,3.2-1.5,4.6-2.1c2.9-1.2,5.4-2.1,7.1-2.6C273.2,57.6,274.2,57.4,274.2,57.4z"/>
	</g>
	<g>
		<g>
			<path fill="#33CC00" d="M417.6,228.7c-6.2-62.8-40.9-113.4-114.2-126.2c-75.8-15.4-109.6,64-54.4,78.8c4,1.1,8.8,1.4,14,1.4
				l-0.3-37.2c0,0,10.7,18.5,16.8,36.4c6.2-0.5,12.6-0.9,18.8-1l-0.1-14.9c0,0,3.6,6.3,7.8,15c4.3,0.2,8.4,0.7,12.1,1.7
				c2.2,0.6,5,1.4,8.4,2.5l4.4-50.2c0,0,10.3,22.8,17.5,58.4c3.6,1.5,7.3,3.1,11.1,4.9l5.7-30.1c0,0,9.9,26.2,12.7,39.5
				c12,6.7,23.2,14.5,31.1,23.1C412,234,418,232.6,417.6,228.7z"/>
		</g>
		<g>
			<path fill="#339900" d="M364.1,126.9c0,0-0.5-0.3-1.4-0.7c-0.9-0.5-2.3-1.2-4-2c-3.4-1.7-8.4-4.1-14.4-6.8
				c-3-1.3-6.3-2.7-9.8-4.1c-3.5-1.4-7.2-2.7-11-4.1c-3.9-1.3-7.9-2.5-12-3.6c-4.1-1.1-8.3-2.1-12.6-2.8c-4.2-0.8-8.5-1.3-12.8-1.5
				c-4.2-0.2-8.4-0.2-12.4,0.1c-4,0.4-7.8,1-11.4,1.9c-3.5,1-6.8,2.2-9.7,3.5c-2.9,1.4-5.5,2.9-7.6,4.4c-2.2,1.5-4,3-5.4,4.2
				c-1.4,1.3-2.5,2.3-3.2,3.1c-0.7,0.7-1.1,1.1-1.1,1.1s0.3-0.4,0.9-1.3c0.6-0.8,1.6-2,2.8-3.5c1.3-1.4,2.9-3.1,5.1-4.8
				c2.1-1.7,4.6-3.6,7.5-5.2c2.9-1.7,6.3-3.2,10-4.4c3.7-1.2,7.7-2.1,11.9-2.6c4.2-0.5,8.5-0.7,13-0.5c4.4,0.2,8.9,0.7,13.3,1.5
				c4.4,0.8,8.7,1.8,12.9,3c4.2,1.2,8.3,2.6,12.2,4.1c3.9,1.4,7.6,3.1,11,4.6c3.5,1.6,6.7,3.2,9.6,4.8c5.8,3.1,10.5,6,13.7,8.1
				c1.6,1.1,2.8,1.9,3.7,2.5C363.7,126.6,364.1,126.9,364.1,126.9z"/>
		</g>
	</g>
</g>
</svg>
