<!-- Generator: Adobe Illustrator 18.1.1, SVG Export Plug-In  -->
<svg version="1.1"
	 xmlns="http://www.w3.org/2000/svg" xmlns:xlink="http://www.w3.org/1999/xlink" xmlns:a="http://ns.adobe.com/AdobeSVGViewerExtensions/3.0/"
	 x="0px" y="0px" width="53px" height="16.3px" viewBox="0 0 53 16.3" enable-background="new 0 0 53 16.3" xml:space="preserve">
<defs>
</defs>
<g>
	<g>
		<defs>
			<polygon id="XMLID_2_" points="50.9,11.7 45.4,12.7 41.5,10.9 43,6.1 47.5,3.6 51.5,5.9 53,8.8 			"/>
		</defs>
		<use xlink:href="#XMLID_2_"  overflow="visible" fill="#989898"/>
		<clipPath id="XMLID_3_">
			<use xlink:href="#XMLID_2_"  overflow="visible"/>
		</clipPath>
	</g>
	<polygon fill="#CCCBCB" points="43,6.1 47.3,6.4 51.5,5.9 47.5,3.6 	"/>
</g>
<g>
	<g>
		<defs>
			<polygon id="XMLID_1_" points="0,13.7 3.8,3.2 18.1,0 23.6,3.3 27,7.5 28.2,9 29.4,10.6 28.4,14.1 17.7,16.3 			"/>
		</defs>
		<use xlink:href="#XMLID_1_"  overflow="visible" fill="#989898"/>
		<clipPath id="XMLID_4_">
			<use xlink:href="#XMLID_1_"  overflow="visible"/>
		</clipPath>
	</g>
	<path fill="#989898" d="M16.9,5.2"/>
	<polygon fill="#CCCBCB" points="3.8,3.2 6.5,6.4 10.9,5.2 17.3,5.9 20.3,5.2 23.6,3.3 18.1,0 	"/>
</g>
</svg>
