<!-- Generator: Adobe Illustrator 18.1.1, SVG Export Plug-In  -->
<svg version="1.1"
	 xmlns="http://www.w3.org/2000/svg" xmlns:xlink="http://www.w3.org/1999/xlink" xmlns:a="http://ns.adobe.com/AdobeSVGViewerExtensions/3.0/"
	 x="0px" y="0px" width="24px" height="28.7px" viewBox="0 0 24 28.7" enable-background="new 0 0 24 28.7" xml:space="preserve">
<defs>
</defs>
<path fill="#33CC00" d="M24,13.8c-0.7-0.5-2.1-0.7-3.7-0.7c1.1-2.9,1.8-6.5,1.8-7.8c-0.6,0.5-1.9,2-3.1,3.6c0.6-2.7-0.9-6.6-2.1-8.9
	c0.7,2.9,0.6,6.2-0.4,9c-0.3-1.1-0.6-2-0.8-2.4C15.5,7.3,15.3,8,15,8.7c-1.3-2.6-2.7-5.1-3-6c0,1.1,0,5.8,0.8,9.3
	c-0.9-0.3-2.1-0.5-3.9-0.5c2.3,0.8,3.1,2.4,4.5,4c-0.7,1.1-1.8,2.4,2.6,1c0.1,0,0.1,0.1,0.2,0.1c1.1,0.5,2.2-0.3,3-1.6
	C21.5,14.5,23.9,13.8,24,13.8z"/>
<g>
	<g>
		<defs>
			<polygon id="XMLID_1_" points="0,27.6 1.6,23.2 7.7,21.8 10.1,23.2 11.5,25 12,25.6 12.5,26.3 12.1,27.8 7.6,28.7 			"/>
		</defs>
		<use xlink:href="#XMLID_1_"  overflow="visible" fill="#989898"/>
		<clipPath id="XMLID_2_">
			<use xlink:href="#XMLID_1_"  overflow="visible"/>
		</clipPath>
	</g>
	<path fill="#989898" d="M7.2,24"/>
	<polygon fill="#CCCBCB" points="1.6,23.2 2.8,24.5 4.7,24 7.4,24.3 8.7,24 10.1,23.2 7.7,21.8 	"/>
</g>
</svg>
