<!-- Generator: Adobe Illustrator 18.1.1, SVG Export Plug-In  -->
<svg version="1.1"
	 xmlns="http://www.w3.org/2000/svg" xmlns:xlink="http://www.w3.org/1999/xlink" xmlns:a="http://ns.adobe.com/AdobeSVGViewerExtensions/3.0/"
	 x="0px" y="0px" width="47.3px" height="54.1px" viewBox="0 0 47.3 54.1" enable-background="new 0 0 47.3 54.1"
	 xml:space="preserve">
<defs>
</defs>
<path fill="#33CC00" d="M0,43.4c2.2-1.5,6.7-2.2,11.6-2.3C8,32.1,6,20.7,5.9,16.6c1.8,1.7,5.8,6.2,9.9,11.4C14,19.5,18.7,7.2,22.3,0
	c-2.1,9.2-1.9,19.4,1.2,28.4c1-3.5,2-6.3,2.6-7.6c0.8,2.1,1.5,4.3,2.2,6.5c4-8.2,8.6-16,9.4-19c0.1,3.4-0.1,18.1-2.6,29.4
	c2.7-0.9,6.6-1.5,12.2-1.5C39.9,38.9,37.7,43.7,33,49c2.3,3.5,5.6,7.5-8.2,3.3c-0.2,0.1-0.4,0.2-0.6,0.3c-3.6,1.6-6.8-0.8-9.5-5.1
	C7.8,45.5,0.5,43.6,0,43.4z"/>
</svg>
