<!-- Generator: Adobe Illustrator 18.1.1, SVG Export Plug-In  -->
<svg version="1.1"
	 xmlns="http://www.w3.org/2000/svg" xmlns:xlink="http://www.w3.org/1999/xlink" xmlns:a="http://ns.adobe.com/AdobeSVGViewerExtensions/3.0/"
	 x="0px" y="0px" width="30.5px" height="71.2px" viewBox="0 0 30.5 71.2" enable-background="new 0 0 30.5 71.2"
	 xml:space="preserve">
<defs>
</defs>
<g>
	<g id="rarm_1_">
		<path fill="#99FF66" d="M19.6,3.3c0,0-6,23.4-3.6,28s12.3,17.3,13.8,20.5c2.4,4.9-1.5,13.8-4.1,18.8c-0.5,0.9-1.8,0.5-1.7-0.5
			l0.4-5.7c0.1-0.9-1-1.3-1.6-0.7l-5.1,5.3c-0.7,0.7-1.8,0-1.5-0.9c1.3-4,3-10.1,2-12.8C16.4,51,2.5,38.6,1.9,31.4S4.5,5.7,3.2,0.1"
			/>
		<g>
			<g>
				<path fill="#99CC66" d="M18,55.3c0,0-0.1-0.2-0.3-0.6c-0.2-0.4-0.6-0.9-1.1-1.5c-0.5-0.6-1.2-1.4-2-2.2
					c-0.8-0.8-1.7-1.8-2.6-2.8c-1-1-2-2.2-3.1-3.4c-1.1-1.2-2.2-2.5-3.3-4c-1.1-1.4-2.2-3-3.1-4.7l-0.7-1.3
					c-0.2-0.5-0.4-0.9-0.5-1.4c-0.3-1-0.5-2.1-0.5-3c0-2,0.1-3.9,0.2-5.8c0.1-1.9,0.3-3.7,0.5-5.5c0.4-3.5,0.8-6.8,1.1-9.6
					C2.8,8,3,6.7,3.1,5.6c0.1-1.1,0.2-2.1,0.2-3c0-0.8,0-1.5,0-1.9C3.2,0.2,3.2,0,3.2,0s0.1,0.2,0.2,0.7c0.1,0.4,0.2,1.1,0.3,1.9
					c0.2,1.7,0.2,4,0.2,6.9c-0.1,2.9-0.3,6.2-0.5,9.7c-0.1,1.8-0.2,3.6-0.4,5.4c-0.1,1.9-0.2,3.7-0.1,5.5c0,1,0.1,1.7,0.4,2.6
					l0.4,1.2l0.6,1.2C5,36.7,6,38.2,7,39.6c2,2.9,4.1,5.4,5.8,7.7c1.7,2.2,3.2,4.2,4,5.6c0.2,0.3,0.4,0.7,0.6,1
					c0.2,0.3,0.3,0.5,0.4,0.7C17.9,55,18,55.3,18,55.3z"/>
			</g>
			<g>
				<path fill="#99CC66" d="M19.6,3.3c0,0-0.1,1.8-0.5,4.5c-0.2,1.3-0.4,2.9-0.7,4.5c-0.1,0.8-0.3,1.7-0.4,2.5
					c-0.1,0.9-0.3,1.7-0.4,2.6c-0.3,1.7-0.6,3.5-0.9,5.1c-0.3,1.6-0.5,3.1-0.7,4.5c-0.1,0.7-0.1,1.3-0.2,1.8c0,0.5,0,1,0,1.4
					c0,0.4,0,0.7,0.1,0.9c0,0.2,0.1,0.3,0.1,0.3s-0.1-0.1-0.2-0.3c-0.1-0.2-0.3-0.5-0.4-0.9c-0.1-0.4-0.3-0.9-0.4-1.4
					c-0.1-0.6-0.2-1.2-0.2-1.9c-0.1-1.4-0.1-3,0.1-4.6c0.1-0.8,0.1-1.7,0.3-2.6c0.1-0.9,0.3-1.8,0.4-2.7c0.2-0.9,0.3-1.8,0.5-2.6
					c0.2-0.9,0.4-1.7,0.6-2.5c0.4-1.6,0.9-3.1,1.3-4.4C18.8,4.9,19.6,3.3,19.6,3.3z"/>
			</g>
			<g>
				<path fill="#99CC66" d="M2.8,11.7c0,0-0.1-0.1-0.3-0.4c-0.2-0.2-0.5-0.6-0.7-1c-0.6-0.8-1.2-2-1.4-3.3c-0.1-0.3-0.1-0.6-0.2-1
					C0,5.8,0,5.5,0,5.2c0-0.3,0-0.6,0-0.9C0,4,0.1,3.8,0.1,3.5c0-0.2,0.1-0.5,0.1-0.6c0.1-0.2,0.1-0.4,0.1-0.5C0.5,2.1,0.5,2,0.5,2
					s0,0.2-0.1,0.4c0,0.1-0.1,0.3-0.1,0.5c0,0.2,0,0.4-0.1,0.6c0,0.2,0,0.5,0,0.8c0,0.3,0,0.6,0.1,0.9c0.1,0.3,0.1,0.6,0.1,0.9
					c0.1,0.3,0.1,0.6,0.3,0.9c0.4,1.2,1.1,2.3,1.6,3C3,10.6,3.4,11,3.4,11L2.8,11.7z"/>
			</g>
		</g>
	</g>
	<path fill="#99CC66" d="M10.6,10.4l0.5,0.6c0.2,0.2,0.2,0.5,0,0.7l-0.5,0.6c-0.2,0.2-0.5,0.3-0.7,0.2L9,12.3
		c-0.3-0.1-0.4-0.3-0.4-0.6l0-0.8c0-0.3,0.2-0.5,0.5-0.6l0.8-0.3C10.2,10.1,10.4,10.1,10.6,10.4z"/>
	<path fill="#99CC66" d="M11.5,15l0.2,0.3c0.1,0.1,0.1,0.2,0,0.4L11.5,16c-0.1,0.1-0.2,0.2-0.4,0.1L10.8,16c-0.1,0-0.2-0.1-0.2-0.3
		l0-0.4c0-0.1,0.1-0.2,0.2-0.3l0.4-0.1C11.3,14.9,11.4,14.9,11.5,15z"/>
	<path fill="#99CC66" d="M8.3,17.4l0.2,0.3c0.1,0.1,0.1,0.2,0,0.4l-0.2,0.3c-0.1,0.1-0.2,0.2-0.4,0.1l-0.4-0.1
		c-0.1,0-0.2-0.1-0.2-0.3l0-0.4c0-0.1,0.1-0.2,0.2-0.3L8,17.3C8.1,17.3,8.2,17.3,8.3,17.4z"/>
</g>
</svg>
