<!-- Generator: Adobe Illustrator 18.1.1, SVG Export Plug-In  -->
<svg version="1.1"
	 xmlns="http://www.w3.org/2000/svg" xmlns:xlink="http://www.w3.org/1999/xlink" xmlns:a="http://ns.adobe.com/AdobeSVGViewerExtensions/3.0/"
	 x="0px" y="0px" width="179.2px" height="61.6px" viewBox="0 0 179.2 61.6" enable-background="new 0 0 179.2 61.6"
	 xml:space="preserve">
<defs>
</defs>
<g id="tail_copy">
	<g>
		<path fill="#FFCC33" d="M40,11.4c0,0,7.5-12.1,17.1-10.6c0,0,0.3,0,0.7-0.2c0.1-0.1,0.2,0,0.2,0.2c-0.2,0.4-0.2,0.8-0.1,1
			c0.2,0.4,3.2,9.1-6.9,19.2C51,20.9,48.8,14.4,40,11.4z"/>
		<path fill="#FFCC33" d="M54.4,20.4c0,0,5.4-8.6,12.2-7.6c0,0,0.2,0,0.5-0.1c0.1-0.1,0.2,0,0.1,0.1c-0.1,0.3-0.2,0.5-0.1,0.7
			c0.1,0.3,2.3,6.5-5,13.7C62.2,27.2,60.7,22.6,54.4,20.4z"/>
		<g>
			<g>
				<path fill="#FF9900" d="M55.1,5.3c0,0-0.3,0.4-0.8,0.8c-0.5,0.5-1.2,1.1-1.9,1.7c-0.7,0.6-1.5,1.1-2.1,1.5c-0.6,0.4-1,0.6-1,0.6
					s0.3-0.4,0.8-0.8C50.6,8.6,51.3,8,52,7.4c0.7-0.6,1.5-1.1,2.1-1.5C54.7,5.5,55.1,5.3,55.1,5.3z"/>
			</g>
			<g>
				<path fill="#FF9900" d="M53.3,2.6c0,0-0.2,0.4-0.7,1c-0.4,0.6-1,1.4-1.6,2.1c-0.6,0.7-1.3,1.5-1.8,2c-0.5,0.5-0.9,0.8-0.9,0.8
					s0.2-0.4,0.7-1c0.4-0.6,1-1.4,1.6-2.1c0.6-0.7,1.3-1.5,1.8-2C52.9,3,53.3,2.6,53.3,2.6z"/>
			</g>
			<g>
				<path fill="#FF9900" d="M56.3,7.9c0,0-0.3,0.3-0.9,0.7C54.9,9,54.1,9.5,53.3,10c-0.8,0.5-1.6,0.9-2.2,1.2c-0.6,0.3-1,0.5-1,0.5
					s0.3-0.3,0.9-0.7c0.6-0.4,1.3-0.9,2.1-1.4c0.8-0.5,1.6-0.9,2.2-1.2C55.9,8.1,56.3,7.9,56.3,7.9z"/>
			</g>
		</g>
		<g>
			<g>
				<path fill="#FF9900" d="M65,15.2c0,0-0.1,0.3-0.4,0.8c-0.3,0.5-0.6,1.1-1.1,1.7c-0.4,0.6-0.9,1.1-1.2,1.5
					c-0.4,0.4-0.6,0.6-0.6,0.6s0.1-0.3,0.4-0.8c0.3-0.5,0.6-1.1,1.1-1.7c0.4-0.6,0.9-1.1,1.2-1.5C64.7,15.4,65,15.2,65,15.2z"/>
			</g>
			<g>
				<path fill="#FF9900" d="M63,13.6c0,0-0.1,0.4-0.2,0.9c-0.2,0.5-0.4,1.2-0.7,1.9c-0.3,0.7-0.6,1.3-0.9,1.8
					c-0.3,0.5-0.5,0.8-0.5,0.8s0.1-0.4,0.2-0.9c0.2-0.5,0.4-1.2,0.7-1.9c0.3-0.7,0.6-1.3,0.9-1.8C62.8,13.9,63,13.6,63,13.6z"/>
			</g>
			<g>
				<path fill="#FF9900" d="M66.4,16.9c0,0-0.2,0.3-0.5,0.7c-0.3,0.4-0.7,1-1.2,1.5c-0.5,0.5-1,1-1.4,1.3c-0.4,0.3-0.7,0.5-0.7,0.5
					s0.2-0.3,0.5-0.7c0.3-0.4,0.7-1,1.2-1.5c0.5-0.5,1-1,1.4-1.3C66.1,17.1,66.4,16.9,66.4,16.9z"/>
			</g>
		</g>
		<g>
			<path fill="#CCCCCC" d="M126.8,47.4c2-4.6,5.6-14.6,4.6-26c-0.1-0.8,1-1,1.3-0.3c2.7,6.4,6.6,19.1,0.7,28.9c0,0-1.2,2.2-3.9,2
				C127.2,51.8,125.9,49.4,126.8,47.4z"/>
			<path fill="#CCCCCC" d="M144.1,48.6c1.9-3.2,5.4-10.3,5.8-18.8c0-0.6,0.8-0.7,1-0.1c1.4,4.9,3.1,14.7-2.2,21.3
				c0,0-1.1,1.5-3.1,1.1C144.1,51.8,143.3,50,144.1,48.6z"/>
			<path fill="#FFFF67" d="M33.1,0c5.7-0.1,70.2,71.7,146.1,40.2c0,0-68.4,48.2-169.6-0.2c0,0-0.1,0-0.1-0.1
				c-8-3.9-11.6-13.3-8.3-21.6C4.8,9.4,13.3,0.3,33.1,0z"/>
			<path fill="#CCCCCC" d="M135.3,47.5c2.1-5,5.6-15.8,4.3-28c-0.1-0.8,1-1.1,1.4-0.4c3,6.8,7.6,20.3,1.4,30.9c0,0-1.2,2.4-4.1,2.3
				C135.9,52.2,134.4,49.7,135.3,47.5z"/>
			<path fill="#CCCCCC" d="M150.3,47.9c1.8-3,5-9.5,5.3-17.3c0-0.5,0.8-0.6,0.9-0.1c1.3,4.6,2.9,13.5-2,19.7c0,0-1,1.4-2.8,1
				C150.2,50.8,149.5,49.1,150.3,47.9z"/>
		</g>
	</g>
	<path fill="#CCCC66" d="M51.4,23.3l0.5,1.4c0.2,0.5,0.1,1-0.3,1.4l-1,1c-0.4,0.3-0.9,0.4-1.3,0.1l-1.2-0.8
		c-0.4-0.3-0.6-0.8-0.5-1.3l0.3-1.5c0.1-0.5,0.5-0.9,1-0.9l1.4-0.1C50.7,22.5,51.2,22.8,51.4,23.3z"/>
	<path fill="#CCCC66" d="M58.3,32.7l0.5,0.8c0.2,0.3,0.2,0.7,0,0.9l-0.6,0.7c-0.2,0.3-0.5,0.3-0.8,0.2L56.5,35
		c-0.3-0.1-0.5-0.4-0.5-0.8l0-1c0-0.3,0.2-0.6,0.5-0.7l0.9-0.2C57.8,32.3,58.1,32.4,58.3,32.7z"/>
	<path fill="#CCCC66" d="M67.3,29.6l0.2,0.7c0.1,0.3,0,0.5-0.2,0.6l-0.6,0.4c-0.2,0.1-0.5,0.1-0.6-0.1l-0.5-0.5
		c-0.2-0.2-0.2-0.4-0.1-0.7l0.3-0.7c0.1-0.2,0.3-0.4,0.5-0.4l0.7,0.1C67,29.1,67.2,29.3,67.3,29.6z"/>
</g>
</svg>
