<!-- Generator: Adobe Illustrator 18.1.1, SVG Export Plug-In  -->
<svg version="1.1"
	 xmlns="http://www.w3.org/2000/svg" xmlns:xlink="http://www.w3.org/1999/xlink" xmlns:a="http://ns.adobe.com/AdobeSVGViewerExtensions/3.0/"
	 x="0px" y="0px" width="153.9px" height="96.4px" viewBox="0 0 153.9 96.4" enable-background="new 0 0 153.9 96.4"
	 xml:space="preserve">
<defs>
</defs>
<g>
	<g>
		<path fill="#FFFFFF" d="M130.9,86.1c0,0-5.3,8.3-7.3,8.4s-4.7-10.2-4.7-10.2S125.6,82,130.9,86.1z"/>
		<path fill="#FFFFFF" d="M115.9,83.5c0,0-3.9,9-5.8,9.5s-6.3-9.2-6.3-9.2S110,80.4,115.9,83.5z"/>
		<path fill="#FFFFFF" d="M101.2,86.1c0,0-3,9.4-4.9,10s-7.1-8.6-7.1-8.6S95,83.5,101.2,86.1z"/>
		<path fill="#FFFFFF" d="M85.3,87.6c0,0-4.8,8.6-6.8,8.8c-2,0.2-5.3-9.8-5.3-9.8S79.7,83.9,85.3,87.6z"/>
		<path fill="#FFFFFF" d="M73.3,82.2c0,0-8,5.8-9.9,5.1c-1.9-0.6-0.7-11.2-0.7-11.2S69.7,76.5,73.3,82.2z"/>
		<path fill="#FFFFFF" d="M140.6,88.8c0,0-3.9,6.1-5.4,6.1c-1.5,0.1-3.4-7.4-3.4-7.4S136.6,85.8,140.6,88.8z"/>
	</g>
	<path id="body_1_" fill="none" stroke="#000000" stroke-miterlimit="10" d="M85.4,16.7c0,0-5.6-3.6-11.2-6.3"/>
	<path fill="#99CC66" d="M92.3,25.3l1,1.2c0.3,0.4,0.3,1,0,1.5l-1,1.3c-0.3,0.5-1,0.7-1.5,0.5l-1.6-0.4c-0.6-0.1-0.9-0.6-0.9-1.1
		v-1.6c0-0.5,0.4-1,0.9-1.2l1.6-0.6C91.3,24.7,91.9,24.9,92.3,25.3z"/>
	<path fill="#99FF66" d="M153.9,54.8c-0.1-3.5-2.1-6.4-4.7-6.8c-4.7-16.5-21.1-22.3-37-25.6c0,0,0,0-0.1,0c-4.5-1-9.2-2.1-13.6-3.1
		C96,13,89.4,8.5,81.6,8.7c-2.7,0.1-5.2,0.7-7.4,1.8c-7.1-3.8-13-5.4-17.5-5.9c0,0-18.3-9-29.4,5.8C7.5,36.6-10.4,21.2,7.1,78.1
		c1.4,4.5,18.8-4.5,18.8-4.5s16.5-7.2,26.7-0.4s14.1,13.9,34.7,15.5c3.4,0.3,18.1-2.3,29.6-2.4c11.9-0.1,25.2,3,25.2,3
		c3.7-6.9,6.2-13.6,7.6-21.9c0.3-2.1,0.6-4.1,0.7-6C152.5,60.5,154,57.9,153.9,54.8z"/>
	<g>
		<path fill="#99CC66" d="M14.1,79.4c0,0,1.7-1.2,5-2.9c1.6-0.8,3.7-1.8,6.1-2.8s5.1-2,8.3-2.7c3.1-0.8,6.6-1.4,10.3-1.3
			s7.8,0.8,11.5,2.9c3.5,2.1,6.8,4.5,10.1,6.9S72.2,84,76,85.4c1.9,0.7,3.8,1.2,5.8,1.5s4,0.5,6,0.5c0.9,0,1.9-0.2,3-0.3
			c1-0.1,2-0.2,3-0.4c2-0.2,4-0.4,6-0.6c4-0.3,7.8-0.6,11.4-0.6c3.6-0.1,7.1,0,10.3,0.2c6.3,0.4,11.6,1.3,15.2,2.1
			c0.9,0.2,1.7,0.4,2.4,0.6s1.3,0.3,1.8,0.5c0.9,0.3,1.4,0.4,1.4,0.4s-0.5-0.1-1.5-0.3c-1-0.2-2.4-0.5-4.2-0.7
			c-3.6-0.6-8.9-1.1-15.1-1.1c-3.1,0-6.5,0-10.1,0.3c-3.6,0.2-7.4,0.6-11.3,1C98,88.7,96,89,94,89.3c-1,0.1-2,0.3-3,0.4
			s-2,0.3-3.2,0.4c-4.3,0.1-8.7-0.4-12.9-1.9c-4.2-1.4-7.9-3.8-11.3-6.3c-3.4-2.5-6.5-5.1-9.7-7.1c-3.1-1.9-6.8-2.8-10.3-3
			s-6.8,0.2-9.9,0.8c-6.1,1.2-11,3.1-14.4,4.5C15.9,78.4,14.1,79.4,14.1,79.4z"/>
	</g>
	<g id="rarm_1_">
		<path fill="#99CC66" d="M104.4,32.1l0.4,0.9c0.1,0.3,0.1,0.7-0.1,0.9l-0.7,0.7c-0.2,0.2-0.6,0.3-0.9,0.1l-0.8-0.5
			c-0.3-0.2-0.5-0.5-0.4-0.8l0.2-1c0.1-0.3,0.3-0.6,0.6-0.6l0.9-0.1C104,31.6,104.3,31.8,104.4,32.1z"/>
		<path fill="#99CC66" d="M115.4,32.1l0.1,0.9c0,0.3-0.2,0.6-0.5,0.7l-1,0.2c-0.3,0.1-0.7,0-0.9-0.3l-0.7-0.7
			c-0.2-0.3-0.3-0.6-0.1-0.8l0.6-0.7c0.2-0.2,0.6-0.3,0.9-0.2l1,0.3C115.2,31.6,115.4,31.8,115.4,32.1z"/>
		<g>
			<path fill="#99CC66" d="M65.8,11.3c0,0-0.5-0.5-1.4-1.2s-2.2-1.7-3.9-2.7c-0.8-0.5-1.7-1-2.7-1.5s-2-0.9-3.1-1.3s-2.3-0.7-3.5-1
				C50,3.3,48.8,3.1,47.5,3c-1.2-0.1-2.5,0-3.7,0.1c-0.6,0.1-1.2,0.2-1.8,0.2c-0.6,0.1-1.2,0.2-1.8,0.3S39.1,3.9,38.5,4
				c-0.6,0.2-1.1,0.3-1.6,0.5s-1,0.4-1.5,0.5c-0.5,0.2-1,0.3-1.4,0.5c-0.9,0.4-1.7,0.7-2.4,1.1c-0.7,0.3-1.4,0.6-1.9,0.9
				C28.7,8,28,8.3,28,8.3s0.5-0.5,1.3-1.3c0.4-0.4,1-0.9,1.6-1.4c0.3-0.3,0.7-0.5,1-0.8c0.4-0.3,0.8-0.5,1.2-0.8c1-0.5,1.9-1,3-1.5
				c0.5-0.2,1.1-0.5,1.7-0.8c0.6-0.2,1.2-0.4,1.8-0.6s1.3-0.3,1.9-0.5c0.7-0.1,1.3-0.3,2-0.4C44.9,0,46.3-0.1,47.7,0
				s2.8,0.3,4.2,0.6C53.2,1,54.5,1.4,55.7,2S58,3.2,59,3.9s1.9,1.4,2.6,2.1c1.5,1.4,2.6,2.7,3.3,3.7C65.5,10.7,65.8,11.3,65.8,11.3z
				"/>
		</g>
		<g>
			<path fill="#99CC66" d="M140.2,49.1c0,0,0,0.9-0.2,2.1c-0.2,1.2-0.5,2.8-0.7,4.3c-0.1,0.7-0.2,1.5-0.2,2.1c0,0.3,0.1,0.6,0.1,0.8
				c0.1,0.2,0.2,0.5,0.3,0.6c0.1,0.2,0.3,0.3,0.5,0.4c0.2,0.1,0.4,0.2,0.6,0.2c0.3,0.1,0.6,0.2,0.6,0.2s-0.2,0.1-0.6,0.2
				c-0.2,0-0.4,0.1-0.7,0.1s-0.6,0-1-0.2s-0.7-0.5-1-0.8c-0.3-0.4-0.4-0.8-0.6-1.3c-0.2-0.9-0.2-1.8-0.1-2.7
				c0.3-1.7,0.9-3.3,1.6-4.4C139.6,49.7,140.2,49.1,140.2,49.1z"/>
		</g>
		<g>
			<path fill="#99CC66" d="M147.9,48.9c0,0,0.7,0.6,1.4,1.7c0.7,1.1,1.4,2.6,1.7,4.4c0.1,0.9,0.2,1.8,0,2.7s-0.7,1.7-1.3,2.2
				c-0.3,0.2-0.6,0.4-0.9,0.4c-0.3,0.1-0.5,0.1-0.7,0.1c-0.4,0-0.6-0.1-0.6-0.1s0.2-0.1,0.5-0.3c0.1-0.1,0.3-0.2,0.5-0.4
				s0.3-0.3,0.4-0.6c0.5-0.8,0.4-2.2,0.2-3.8c-0.2-1.5-0.6-3.1-0.8-4.3C148,49.8,147.9,48.9,147.9,48.9z"/>
		</g>
	</g>
	<path fill="#99CC66" d="M110.1,35.5l0.4,0.4c0.1,0.2,0.1,0.4,0,0.5l-0.4,0.5c-0.1,0.2-0.3,0.2-0.6,0.2l-0.6-0.1
		c-0.2-0.1-0.3-0.2-0.3-0.4V36c0-0.2,0.1-0.4,0.3-0.5l0.6-0.2C109.8,35.3,110,35.4,110.1,35.5z"/>
	<path fill="#99CC66" d="M99.7,40.2l0.5,0.6c0.2,0.2,0.2,0.5,0,0.7l-0.5,0.6c-0.2,0.2-0.5,0.3-0.7,0.3l-0.8-0.2
		c-0.3-0.1-0.5-0.3-0.5-0.6v-0.8c0-0.3,0.2-0.5,0.5-0.6L99,40C99.2,39.9,99.5,40,99.7,40.2z"/>
	<path fill="#99CC66" d="M101.4,25.6l0.3,1.6c0.1,0.5-0.2,1.1-0.7,1.3l-1.5,0.7c-0.5,0.3-1.2,0.2-1.6-0.2l-1.2-1.1
		c-0.4-0.4-0.6-1-0.3-1.5l0.7-1.4c0.3-0.5,0.8-0.8,1.4-0.7l1.7,0.2C100.9,24.6,101.3,25,101.4,25.6z"/>
</g>
</svg>
