<!-- Generator: Adobe Illustrator 18.1.1, SVG Export Plug-In  -->
<svg version="1.1"
	 xmlns="http://www.w3.org/2000/svg" xmlns:xlink="http://www.w3.org/1999/xlink" xmlns:a="http://ns.adobe.com/AdobeSVGViewerExtensions/3.0/"
	 x="0px" y="0px" width="92.5px" height="210.8px" viewBox="0 0 92.5 210.8" enable-background="new 0 0 92.5 210.8"
	 xml:space="preserve">
<defs>
</defs>
<path id="lleg_2_" fill="#99CC66" d="M83,195.8l7.4,0c1.8,0,2.7-2.1,1.5-3.4c-12-13.6-35.1-7.9-38.9-7.9c-4.1,0-9.8-17.9-10.1-23.5
	c-0.2-5,9.4-17,11.3-19.3c3.8-4.6,7.7-8.8,11.7-11.1c22.4-6.1,22.6-77.1,16.6-99.5C76.5,8.6,53.4-4.6,31,1.5
	C8.6,7.5-4.6,30.6,1.5,53c3.6,13.3,17.8,40.4,33.5,58.9c-1.7,3.3-3.7,8.8-5.3,15h0l0,0c-0.8,2.9-1.4,6-1.9,9l-1.1,5
	c0,0-15.8,17.9-20.4,21.4s18.9,30.7,20.4,43.4c0,0,48.8,4.3,62.3,5.1c1.6,0.1,2.8-1.4,2.5-2.9C90.7,204.7,88.6,199.6,83,195.8z"/>
</svg>
