<!-- Generator: Adobe Illustrator 18.1.1, SVG Export Plug-In  -->
<svg version="1.1"
	 xmlns="http://www.w3.org/2000/svg" xmlns:xlink="http://www.w3.org/1999/xlink" xmlns:a="http://ns.adobe.com/AdobeSVGViewerExtensions/3.0/"
	 x="0px" y="0px" width="108.8px" height="242.8px" viewBox="0 0 108.8 242.8" enable-background="new 0 0 108.8 242.8"
	 xml:space="preserve">
<defs>
</defs>
<g>
	<path fill="#99FF66" d="M99.7,226.6l7.4-0.5c1.5-0.1,2.3-1.9,1.4-3.1c-13.7-17.1-42.9-10.5-47.3-10.5c-4.7,0-11.3-20.7-11.6-27.1
		c-0.3-5.8,10.9-19.6,13.1-22.3c4.3-5.3,8.8-10.1,13.4-12.8c25.8-7,26.1-88.9,19.1-114.6c-7-25.8-33.5-41-59.3-34
		C10,8.7-5.3,35.2,1.7,61c4.2,15.3,20.5,46.5,38.5,67.8c-2,3.8-4.3,10.1-6.1,17.2h0l0,0c-0.9,3.4-1.6,6.9-2.2,10.4l-1.2,5.8
		c0,0-18.2,20.7-23.5,24.7s21.7,35.3,23.5,50c0,0,58.3,5,74.4,5.9c1.9,0.1,3.5-1.6,3.1-3.5C107.5,235.7,105.5,230.3,99.7,226.6z"/>
	<g>
		<g>
			<path fill="#99CC66" d="M75.6,150.5c0,0,0.5-0.2,1.3-0.5c0.8-0.4,2-1,3.2-2c1.3-1,2.7-2.5,4-4.3c1.3-1.8,2.6-4.1,3.7-6.7
				c1.1-2.6,2.2-5.5,3.1-8.6c0.9-3.1,1.7-6.4,2.4-9.9c0.7-3.5,1.2-7.1,1.7-10.8c0.5-3.7,0.9-7.5,1.2-11.2c0.3-3.8,0.6-7.6,0.7-11.3
				c0.1-3.7,0.3-7.4,0.3-11c0-3.6,0-7-0.1-10.3c-0.1-3.3-0.2-6.3-0.4-9.2C96.5,49,96,44.3,95.6,41c-0.4-3.3-0.9-5.2-0.9-5.2
				s0.1,0.5,0.4,1.3c0.3,0.9,0.6,2.1,1,3.8c0.8,3.3,1.7,8,2.4,13.7c0.7,5.7,1.2,12.4,1.4,19.6c0.1,3.6,0.1,7.3,0,11.1
				c-0.1,3.8-0.3,7.6-0.6,11.4c-0.3,3.8-0.8,7.6-1.3,11.4c-0.5,3.8-1.2,7.4-2,10.9c-0.8,3.5-1.7,6.9-2.8,10
				c-1.1,3.1-2.3,6.1-3.7,8.6c-1.3,2.6-2.8,4.8-4.4,6.6c-1.5,1.8-3.1,3.2-4.6,4.1c-1.4,0.9-2.7,1.4-3.5,1.7
				C76.1,150.3,75.6,150.5,75.6,150.5z"/>
		</g>
		<g>
			<path fill="#99CC66" d="M1.3,61.1c0,0,0.5,1.1,1.3,3.1c0.4,1,0.9,2.2,1.5,3.5c0.6,1.3,1.3,2.9,2.1,4.5c0.8,1.7,1.7,3.4,2.6,5.3
				c0.9,1.9,2,3.8,3,5.8c2.2,4,4.5,8.3,7,12.5c1.2,2.1,2.4,4.2,3.7,6.3c1.3,2,2.4,4.1,3.7,6c1.2,1.9,2.4,3.8,3.5,5.6
				c1.1,1.8,2.2,3.4,3.2,5c1,1.5,2,2.9,2.8,4.2c0.8,1.2,1.6,2.3,2.2,3.2c1.2,1.8,1.9,2.8,1.9,2.8s-0.9-0.9-2.4-2.4
				c-0.8-0.8-1.7-1.7-2.6-2.9c-1-1.1-2.1-2.4-3.3-3.8c-1.2-1.4-2.4-3-3.7-4.7c-0.6-0.9-1.3-1.7-1.9-2.6c-0.7-0.9-1.3-1.8-1.9-2.8
				c-2.7-3.8-5.2-8-7.7-12.2c-1.2-2.2-2.4-4.3-3.5-6.5c-1.2-2.1-2.2-4.3-3.2-6.4c-1-2.1-1.9-4.1-2.7-6.1c-0.4-1-0.8-1.9-1.2-2.9
				c-0.3-0.9-0.7-1.8-1-2.7c-0.7-1.7-1.1-3.4-1.6-4.8c-0.4-1.4-0.8-2.7-1-3.8c-0.3-1-0.4-1.9-0.5-2.4C1.4,61.4,1.3,61.1,1.3,61.1z"
				/>
		</g>
	</g>
	<g>
		<path fill="#99CC66" d="M106.7,44.4c0,0,0,0.1,0.1,0.4c0.1,0.2,0.2,0.6,0.2,1.1c0.1,0.5,0.1,1,0.2,1.7c0,0.7,0.1,1.4,0.1,2.2
			c0,1.6-0.1,3.5-0.3,5.5c-0.1,1-0.2,2-0.4,3.1c-0.2,1-0.3,2.1-0.6,3.2c-0.2,1.1-0.5,2.1-0.8,3.1c-0.2,1-0.6,2-0.9,3
			c-0.3,1-0.7,1.9-1,2.7c-0.4,0.9-0.8,1.7-1.1,2.4c-0.4,0.7-0.8,1.4-1.1,2c-0.3,0.6-0.7,1.1-1,1.5c-0.6,0.8-0.9,1.2-0.9,1.2
			c-0.3,0.4-0.9,0.6-1.4,0.2c-0.4-0.3-0.6-0.9-0.2-1.4c0,0,0,0,0,0l0.1-0.1c0,0,0.3-0.4,0.9-1.1c0.3-0.4,0.6-0.8,1-1.3
			c0.3-0.5,0.8-1.1,1.2-1.8c0.4-0.7,0.8-1.4,1.2-2.2c0.4-0.8,0.8-1.7,1.2-2.6c0.3-0.9,0.8-1.9,1.1-2.9c0.3-1,0.7-2,0.9-3
			c0.3-1,0.5-2.1,0.7-3.1c0.2-1,0.4-2,0.6-3c0.3-2,0.5-3.8,0.6-5.4c0-0.8,0-1.5,0.1-2.2c0-0.6,0-1.2-0.1-1.7c0-0.5-0.1-0.8-0.2-1.1
			C106.7,44.5,106.7,44.4,106.7,44.4z"/>
	</g>
	<path fill="#99CC66" d="M65.9,56.7l3.2,2.6c1.1,0.9,1.4,2.5,0.8,3.9l-1.9,4c-0.7,1.4-2.1,2.3-3.7,2.2L60,69.2
		c-1.5-0.1-2.8-1.1-3-2.5l-0.8-4.1c-0.3-1.4,0.4-2.9,1.8-3.7l3.9-2.3C63.1,55.7,64.8,55.8,65.9,56.7z"/>
	<path fill="#99CC66" d="M88.2,70.6l0.9,2c0.3,0.7,0.2,1.5-0.4,2l-1.5,1.5c-0.5,0.5-1.3,0.6-1.9,0.2l-1.8-1.1
		c-0.6-0.4-1-1.1-0.8-1.9l0.4-2.1c0.1-0.7,0.7-1.3,1.4-1.4l2.1-0.2C87.2,69.5,87.9,69.9,88.2,70.6z"/>
	<path fill="#99CC66" d="M77.9,30.3l0.9,2c0.3,0.7,0.2,1.5-0.4,2l-1.5,1.5c-0.5,0.5-1.3,0.6-1.9,0.2l-1.8-1.1
		c-0.6-0.4-1-1.1-0.8-1.9l0.4-2.1c0.1-0.7,0.7-1.3,1.4-1.4l2.1-0.2C76.9,29.2,77.6,29.6,77.9,30.3z"/>
	<path fill="#99CC66" d="M74.6,90.7l0.9,2c0.3,0.7,0.2,1.5-0.4,2l-1.5,1.5c-0.5,0.5-1.3,0.6-1.9,0.2l-1.8-1.1
		c-0.6-0.4-1-1.1-0.8-1.9l0.4-2.1c0.1-0.7,0.7-1.3,1.4-1.4l2.1-0.2C73.6,89.6,74.3,90,74.6,90.7z"/>
	<g>
		<path fill="#99CC66" d="M66.9,134.4c0,0,0.2,0.2,0.6,0.5c0.4,0.3,0.9,0.7,1.5,1.3c1.2,1,2.9,2.4,4.7,3.6c1.8,1.2,3.7,2.1,5.2,2.3
			c0.4,0.1,0.7,0.1,1.1,0.1c0.3,0,0.6,0,0.8-0.1c0.5-0.1,0.7-0.2,0.7-0.2s-0.1,0-0.2,0.1c-0.1,0.1-0.3,0.2-0.5,0.3
			c-0.2,0.1-0.5,0.2-0.8,0.3c-0.3,0.1-0.7,0.1-1.1,0.1c-0.4,0-0.9,0-1.4-0.1c-0.5-0.1-1-0.2-1.5-0.4c-0.5-0.2-1-0.4-1.5-0.7
			c-0.5-0.3-1-0.5-1.4-0.8c-1.9-1.2-3.4-2.8-4.5-4c-0.5-0.6-0.9-1.2-1.2-1.6C67.1,134.6,66.9,134.4,66.9,134.4z"/>
	</g>
	<g>
		<path fill="#99CC66" d="M68.2,143.7c0,0,0.6,0.3,1.5,0.8c0.9,0.4,2.2,1,3.4,1.3c0.3,0.1,0.6,0.2,1,0.2c0.3,0,0.6,0.1,0.9,0.1
			c0.3,0,0.6,0,0.9,0c0.3,0,0.6,0,0.8-0.1c0.2,0,0.5-0.1,0.7-0.1c0.2,0,0.4-0.1,0.5-0.1c0.3-0.1,0.5-0.1,0.5-0.1s-0.1,0.1-0.4,0.3
			c-0.1,0.1-0.3,0.2-0.5,0.3c-0.2,0.1-0.4,0.2-0.7,0.3c-0.2,0.1-0.5,0.2-0.8,0.2c-0.3,0.1-0.6,0.1-1,0.1c-0.3,0-0.7,0-1.1,0
			c-0.4,0-0.7-0.1-1.1-0.2c-0.7-0.2-1.4-0.4-2-0.8c-0.6-0.3-1.1-0.7-1.5-1C68.6,144.3,68.2,143.7,68.2,143.7z"/>
	</g>
	<path fill="#99CC66" d="M76.9,79l0.5,0.6c0.2,0.2,0.2,0.5,0,0.7l-0.5,0.6c-0.2,0.2-0.5,0.3-0.7,0.2l-0.8-0.2
		c-0.3-0.1-0.4-0.3-0.4-0.6l0-0.8c0-0.3,0.2-0.5,0.5-0.6l0.8-0.3C76.5,78.7,76.8,78.7,76.9,79z"/>
</g>
</svg>
