<!-- Generator: Adobe Illustrator 18.1.1, SVG Export Plug-In  -->
<svg version="1.1"
	 xmlns="http://www.w3.org/2000/svg" xmlns:xlink="http://www.w3.org/1999/xlink" xmlns:a="http://ns.adobe.com/AdobeSVGViewerExtensions/3.0/"
	 x="0px" y="0px" width="15.6px" height="9.5px" viewBox="0 0 15.6 9.5" enable-background="new 0 0 15.6 9.5" xml:space="preserve"
	>
<defs>
</defs>
<g>
	<path fill="#FF0066" d="M15.6,5c0,0-0.1,0-0.2,0c-0.1,0-0.3,0-0.5,0c-0.5,0-1.1,0-1.9,0c-1.6,0-3.7,0.1-5.8,0.5
		C5.1,5.8,3,6.5,1.7,7.5C1.4,7.7,1.2,7.9,0.9,8.2C0.7,8.4,0.5,8.6,0.4,8.8C0.2,9,0.2,9.2,0.1,9.3C0,9.4,0,9.5,0,9.5s0-0.1,0-0.2
		c0-0.1,0.1-0.3,0.1-0.6c0.1-0.2,0.2-0.5,0.4-0.8c0.2-0.3,0.4-0.7,0.7-1c1.1-1.4,3-2.8,5.1-3.8c2.1-1.1,4.3-1.8,6-2.3
		c0.8-0.3,1.5-0.4,2.1-0.6C14.6,0.1,14.8,0.1,15,0c0.1,0,0.2,0,0.2,0L15.6,5z"/>
</g>
</svg>
