<!-- Generator: Adobe Illustrator 18.1.1, SVG Export Plug-In  -->
<svg version="1.1"
	 xmlns="http://www.w3.org/2000/svg" xmlns:xlink="http://www.w3.org/1999/xlink" xmlns:a="http://ns.adobe.com/AdobeSVGViewerExtensions/3.0/"
	 x="0px" y="0px" width="289.6px" height="167.4px" viewBox="0 0 289.6 167.4" enable-background="new 0 0 289.6 167.4"
	 xml:space="preserve">
<defs>
</defs>
<path fill="#666666" d="M223.3,18.3c-1.4-4.9-6.3-6.7-11.1-7.7c0,0,0,0,0,0c-1.4-0.3-2.8-0.6-4.1-0.9c-0.7-1.9-2.7-3.2-5-3.2
	c-0.8,0-1.6,0.2-2.2,0.5c-1.9-1-3.6-1.5-4.9-1.7c-1.2-0.7-2.8-1.2-4.8-0.8c-1,0.1-1.9,0.4-2.9,1c-8.6,0.2-12.1,10.2-12.1,10.2
	c-3.9,4.3-13,9.9-33.7,8c-1.7-0.4-3.5-0.6-5.4-0.6c-1.4,0-2.7,0.1-4,0.4c-1.6,0-4.5,0.3-9.2,1.3c-13.1,2.6-26.6-10.4-32.4-14.7
	C81.4,2.6,78,1.7,72.2,0.6C66.5-0.6,64-0.1,65,2.7c1.4,4,14.2-2.5,26.7,30.1c6.4,16.6,18.1,26.9,29.1,31.7c1.8,1.4,3.7,2.5,5.8,3.3
	c1.6,2.6,3.4,5.2,5.3,7.4l-0.3-0.5c0.1,0.2,0.3,0.3,0.4,0.5c-0.6,1.1-1.3,3-1.8,5.2l0,0l0,0c-0.3,1-0.5,2.1-0.7,3.1l-0.4,1.7
	c0,0-5.4,6.2-7,7.4c-1.6,1.2,6.5,10.6,7,15c0,0,17.5,1.5,22.3,1.8c0.6,0,1-0.5,0.9-1.1c-0.2-1.1-0.8-2.7-2.5-3.8l2.2-0.2
	c0.5,0,0.7-0.6,0.4-0.9c-4.1-5.1-12.8-3.1-14.2-3.1c-1.4,0-3.4-6.2-3.5-8.1c-0.1-1.7,3.3-5.9,3.9-6.7c1.3-1.6,2.6-3,4-3.8
	c3.7-1,5.6-7,6.4-13.9c1.2-0.2,2.3-0.5,3.3-0.8c0.6,0.8,1.3,1.7,1.9,2.4c-0.5,1-1.1,2.6-1.6,4.5l0,0v0c-0.2,0.9-0.4,1.8-0.6,2.7
	l-0.3,1.5c0,0-4.7,5.4-6.1,6.4c-1.4,1,5.6,9.2,6.1,13c0,0,14.6,1.3,18.7,1.5c0.5,0,0.8-0.4,0.7-0.9c-0.2-1-0.8-2.5-2.5-3.6h2.2
	c0.5,0,0.8-0.6,0.5-1c-3.6-4.1-10.5-2.4-11.6-2.4c-1.2,0-2.9-5.4-3-7c-0.1-1.5,2.8-5.1,3.4-5.8c1.1-1.4,2.3-2.6,3.5-3.3
	c4.1-1.1,5.7-9.5,5.9-17.5c1.3-1.3,2.5-2.6,3.6-4c1.3,1.7,3,3.4,3.3,4.2c0.3,0.8-0.2,2.6-0.6,3.8c-0.1,0.3,0.3,0.5,0.5,0.3l1.5-1.6
	c0.2-0.2,0.5,0,0.5,0.2l-0.1,1.7c0,0.3,0.4,0.4,0.5,0.1c0.8-1.5,1.9-4.1,1.2-5.6c-0.5-1-3.4-4.8-4.1-6.1c0-0.1-0.1-0.2-0.1-0.4
	c0,0,0,0,0,0c0,0.1,0.1,0.2,0.1,0.3l0.1-0.6c0.8-1.1,1.5-2.2,2.2-3.2c0.1-0.1,0.1-0.2,0.2-0.3c0,0.5,0,1,0,1.4
	c0.1,1.9,3.7,5.1,4.1,6.3c0.2,0.7-0.2,2.2-0.5,3.2c-0.1,0.3,0.2,0.5,0.4,0.3l1.2-1.2c0.2-0.2,0.5,0,0.5,0.2l-0.1,1.3
	c0,0.3,0.4,0.4,0.5,0.1c0.7-1.3,1.6-3.5,1-4.8c-0.4-0.8-2.9-4.2-3.6-5.4c-0.5-0.9,0.3-4.4,0.7-6.2c4.7-4.1,9.6-5.7,11.5-6.2
	c0.2-0.1,0.5-0.1,0.7-0.2l0,0v0c0.2-0.1,0.4-0.1,0.6-0.2c0.9-0.3,2.4-0.6,4-0.5l1.2,0.6c-0.2-0.1-0.3-0.3-0.4-0.4l2.6,0.9
	c-0.9-0.6-1.8-0.9-2.8-1.1c0,0-0.1-0.1-0.1-0.1c0.9,0.1,1.8,0.5,2.7,1c3.6,2.4,16.8,4.8,19.1-4.8c0,0,0.3-0.3,0.3-0.5
	c0-0.3-0.1-0.4-0.2-0.5c0-0.2,0-0.3,0-0.5c0.7-1.6,1.3-3.2,1.6-5.2c0.1-0.6,0.2-1.2,0.2-1.8c0.6-0.3,1-1.1,1-2
	C224.7,19.2,224.1,18.4,223.3,18.3z"/>
<rect x="0" y="128.8" fill="none" width="289.6" height="38.6"/>
<text transform="matrix(1 0 0 1 100.9651 153.772)" fill="#33CC00" font-family="'FredokaOne-Regular'" font-size="32.3238" letter-spacing="-1">T-Rex</text>
</svg>
