<!-- Generator: Adobe Illustrator 18.1.1, SVG Export Plug-In  -->
<svg version="1.1"
	 xmlns="http://www.w3.org/2000/svg" xmlns:xlink="http://www.w3.org/1999/xlink" xmlns:a="http://ns.adobe.com/AdobeSVGViewerExtensions/3.0/"
	 x="0px" y="0px" width="269.7px" height="212px" viewBox="0 0 269.7 212" enable-background="new 0 0 269.7 212"
	 xml:space="preserve">
<defs>
</defs>
<g>
	<path fill="#99FF66" d="M269.7,99.6c0,0-34,6.8-56,38.3c-21.6,30.9-45.6,70.2-132.1,73.9c-1.6,0.1-3.3,0.2-4.9,0.2
		C34.3,212,0,177.6,0,135.3C0,93,34.3,58.6,76.7,58.6c6.2,0,12.2,0.8,18,2.1c69.2,6.5,99.6-12.3,112.5-26.6c0,0,14.5-42.2,51.6-32.8
		L269.7,99.6z"/>
	<path fill="#99CC66" d="M134.4,101.2l4.9,3c1.7,1.1,2.4,3.1,1.8,5.1l-1.8,5.7c-0.6,2-2.5,3.5-4.6,3.7l-6,0.5c-2.1,0.2-4-1-4.6-2.9
		l-1.9-5.4c-0.7-1.9,0-4.1,1.7-5.4l4.8-3.9C130.4,100.4,132.7,100.2,134.4,101.2z"/>
	<path fill="#99CC66" d="M164.9,87.6l0.9,2c0.3,0.7,0.2,1.5-0.4,2l-1.5,1.5c-0.5,0.5-1.3,0.6-1.9,0.2l-1.8-1.1
		c-0.6-0.4-1-1.1-0.8-1.9l0.4-2.1c0.1-0.7,0.7-1.3,1.4-1.4l2.1-0.2C163.9,86.5,164.6,86.9,164.9,87.6z"/>
	<path fill="#99CC66" d="M207.9,56.7l0.9,1.8c0.3,0.6,0.1,1.3-0.4,1.8l-1.6,1.3c-0.6,0.5-1.4,0.6-2.1,0.2l-1.9-0.9
		c-0.7-0.3-1-1-0.8-1.7l0.5-1.9c0.2-0.7,0.8-1.2,1.6-1.3l2.2-0.3C206.9,55.8,207.6,56.1,207.9,56.7z"/>
	<path fill="#99CC66" d="M97.2,95.1l2.3,1.9c0.8,0.7,1,1.8,0.6,2.8l-1.3,2.8c-0.5,1-1.5,1.6-2.6,1.6l-3.1-0.1c-1.1,0-2-0.8-2.2-1.8
		l-0.6-2.9c-0.2-1,0.3-2.1,1.3-2.7l2.8-1.7C95.2,94.4,96.4,94.5,97.2,95.1z"/>
	<path fill="#99CC66" d="M152.7,70.3l2.3,1.9c0.8,0.7,1,1.8,0.6,2.8l-1.3,2.8c-0.5,1-1.5,1.6-2.6,1.6l-3.1-0.1c-1.1,0-2-0.8-2.2-1.8
		l-0.6-2.9c-0.2-1,0.3-2.1,1.3-2.7l2.8-1.7C150.7,69.6,151.9,69.6,152.7,70.3z"/>
	<path fill="#99CC66" d="M76.4,77.5l1.6,2.5c0.5,0.9,0.4,2-0.4,2.8l-2.2,2.3c-0.8,0.8-2,1-3,0.6l-2.9-1.1c-1-0.4-1.6-1.4-1.5-2.4
		l0.4-3c0.1-1,1-1.9,2.1-2.1l3.2-0.7C74.7,76.1,75.8,76.6,76.4,77.5z"/>
	<path fill="#99CC66" d="M37.2,87.7l1.8,2.4c0.6,0.8,0.6,2-0.1,2.8L37,95.4c-0.7,0.9-1.8,1.2-2.9,1l-3-0.8c-1.1-0.3-1.8-1.2-1.7-2.2
		l0.1-3c0-1,0.8-2,1.8-2.3l3.1-1C35.4,86.6,36.5,86.9,37.2,87.7z"/>
	<path fill="#99CC66" d="M110.3,80.2l1,1.2c0.3,0.4,0.3,1,0,1.5l-1,1.3c-0.4,0.5-1,0.7-1.5,0.5l-1.6-0.4c-0.6-0.2-0.9-0.6-0.9-1.2
		l0-1.6c0-0.5,0.4-1,1-1.2l1.6-0.5C109.4,79.6,110,79.8,110.3,80.2z"/>
	<path fill="#99CC66" d="M210,44.8l0.8,2.2c0.3,0.8,0,1.6-0.7,2.1l-2,1.4c-0.7,0.5-1.7,0.5-2.4,0l-2-1.3c-0.7-0.5-1-1.3-0.7-2.1
		l0.8-2.2c0.3-0.8,1-1.3,1.9-1.3l2.5,0C209,43.5,209.8,44.1,210,44.8z"/>
	<g>
		<path fill="#99CC66" d="M153.8,170.2c0,0,1,1.1,2.4,2.7c0.4,0.4,0.8,0.8,1.2,1.2c0.4,0.4,0.9,0.8,1.4,1.3c0.5,0.5,1,0.8,1.5,1.3
			c0.5,0.4,1.1,0.8,1.7,1.2c0.6,0.4,1.1,0.8,1.7,1.1c0.3,0.2,0.6,0.3,0.9,0.5c0.3,0.2,0.6,0.3,0.9,0.4c0.3,0.1,0.6,0.3,0.9,0.4
			c0.3,0.1,0.6,0.2,0.9,0.3c0.6,0.2,1.1,0.4,1.6,0.5c0.5,0.1,1,0.2,1.4,0.4c0.4,0.1,0.8,0.1,1.1,0.2c0.6,0.1,1,0.2,1,0.2
			s-0.4,0.1-1,0.2c-0.3,0.1-0.7,0.1-1.2,0.2c-0.4,0-1,0-1.5,0c-0.6,0-1.2-0.1-1.8-0.2c-0.3-0.1-0.7-0.1-1-0.2
			c-0.3-0.1-0.7-0.2-1-0.3c-0.7-0.2-1.4-0.5-2-0.8c-0.7-0.3-1.3-0.7-1.9-1.1c-0.6-0.4-1.2-0.9-1.8-1.4c-0.5-0.5-1.1-1-1.5-1.5
			c-0.5-0.5-0.9-1-1.3-1.6c-0.4-0.5-0.7-1-1-1.5C154.1,171.6,153.8,170.2,153.8,170.2z"/>
	</g>
	<g>
		<path fill="#99CC66" d="M133.8,182.7c0,0,0.2,0.3,0.5,0.8c0.2,0.3,0.3,0.6,0.6,1c0.2,0.4,0.5,0.8,0.7,1.2c0.6,0.9,1.2,1.9,1.9,2.9
			c0.3,0.5,0.8,1,1.2,1.5c0.4,0.5,0.9,1,1.3,1.5c0.5,0.5,0.9,0.9,1.4,1.4c0.5,0.4,0.9,0.9,1.5,1.2c0.5,0.3,1,0.7,1.5,0.9
			c0.5,0.2,1,0.6,1.4,0.7c0.5,0.2,0.9,0.3,1.3,0.5c0.4,0.1,0.8,0.2,1.1,0.3c0.6,0.2,0.9,0.3,0.9,0.3s-0.3,0.1-1,0.1
			c-0.3,0-0.7,0.1-1.1,0.1c-0.4,0-0.9-0.1-1.5-0.2c-0.6,0-1.1-0.3-1.7-0.4c-0.6-0.2-1.2-0.5-1.8-0.8c-0.3-0.2-0.6-0.3-0.9-0.5
			c-0.3-0.2-0.6-0.4-0.9-0.6c-0.6-0.4-1.1-1-1.6-1.5c-0.5-0.6-1-1.1-1.4-1.7c-0.4-0.6-0.8-1.2-1.1-1.8c-0.4-0.6-0.6-1.2-0.9-1.8
			c-0.3-0.6-0.4-1.1-0.6-1.6C133.8,184.1,133.8,182.7,133.8,182.7z"/>
	</g>
	<g>
		<path fill="#99CC66" d="M258.4,101.2c0,0-0.5,0.3-1.4,0.7c-0.9,0.4-2.3,1-3.9,1.4c-0.8,0.2-1.8,0.4-2.7,0.6c-1,0.2-2,0.3-3.1,0.4
			c-2.2,0.2-4.5,0-6.8-0.6c-0.6-0.1-1.1-0.3-1.7-0.5c-0.5-0.2-1.1-0.4-1.6-0.6c-1.1-0.5-2.1-1-3-1.6c-0.5-0.3-0.9-0.6-1.3-0.9
			c-0.4-0.3-0.8-0.6-1.2-1c-0.8-0.7-1.4-1.4-2-2c-0.5-0.7-1.1-1.3-1.5-1.9c-0.4-0.6-0.8-1.1-1-1.5c-0.5-0.9-0.8-1.4-0.8-1.4
			s0.3,0.5,0.9,1.3c0.3,0.4,0.7,0.9,1.1,1.4c0.4,0.5,1,1.1,1.6,1.7c0.6,0.6,1.3,1.2,2.1,1.8c0.4,0.3,0.8,0.6,1.2,0.9
			c0.4,0.3,0.8,0.6,1.3,0.8c0.9,0.6,1.9,1,2.9,1.4c0.5,0.2,1,0.4,1.6,0.6c0.5,0.1,1.1,0.3,1.6,0.4c1.1,0.3,2.2,0.4,3.3,0.5
			c1.1,0.1,2.2,0.1,3.3,0.1c2.1-0.1,4.1-0.3,5.8-0.7c1.7-0.3,3-0.7,4-1C257.9,101.4,258.4,101.2,258.4,101.2z"/>
	</g>
	<g>
		<path fill="#99CC66" d="M220.5,108.4c0,0,0.6,0.7,1.5,1.7c0.5,0.5,1,1.1,1.6,1.6c0.3,0.3,0.6,0.5,1,0.8c0.3,0.3,0.7,0.5,1.1,0.8
			c0.4,0.2,0.7,0.5,1.1,0.7c0.4,0.2,0.7,0.4,1.1,0.6c0.4,0.2,0.7,0.3,1.1,0.4c0.4,0.1,0.7,0.2,1,0.3c0.3,0.1,0.6,0.1,0.9,0.2
			c0.3,0,0.5,0.1,0.7,0.1c0.4,0.1,0.6,0.1,0.6,0.1s-0.2,0-0.6,0.1c-0.2,0-0.4,0.1-0.7,0.1c-0.3,0-0.6,0-1,0c-0.4,0-0.7-0.1-1.1-0.1
			c-0.2,0-0.4-0.1-0.6-0.1c-0.2-0.1-0.4-0.1-0.6-0.2c-0.4-0.1-0.8-0.3-1.3-0.5c-0.4-0.2-0.8-0.5-1.2-0.7c-0.4-0.3-0.7-0.6-1.1-0.9
			c-0.3-0.3-0.7-0.6-1-1c-0.6-0.6-1.1-1.3-1.5-1.9C220.8,109.3,220.5,108.4,220.5,108.4z"/>
	</g>
	<path fill="#99CC66" d="M131.2,91.4l0.5,0.6c0.2,0.2,0.2,0.5,0,0.7l-0.5,0.6c-0.2,0.2-0.5,0.3-0.7,0.2l-0.8-0.2
		c-0.3-0.1-0.4-0.3-0.4-0.6l0-0.8c0-0.3,0.2-0.5,0.5-0.6l0.8-0.3C130.8,91.1,131.1,91.2,131.2,91.4z"/>
	<path fill="#99CC66" d="M195.1,58l0.5,0.6c0.2,0.2,0.2,0.5,0,0.7l-0.5,0.6c-0.2,0.2-0.5,0.3-0.7,0.2l-0.8-0.2
		c-0.3-0.1-0.4-0.3-0.4-0.6l0-0.8c0-0.3,0.2-0.5,0.5-0.6l0.8-0.3C194.7,57.7,195,57.8,195.1,58z"/>
</g>
</svg>
