<!-- Generator: Adobe Illustrator 18.1.1, SVG Export Plug-In  -->
<svg version="1.1"
	 xmlns="http://www.w3.org/2000/svg" xmlns:xlink="http://www.w3.org/1999/xlink" xmlns:a="http://ns.adobe.com/AdobeSVGViewerExtensions/3.0/"
	 x="0px" y="0px" width="24.7px" height="61.6px" viewBox="0 0 24.7 61.6" enable-background="new 0 0 24.7 61.6"
	 xml:space="preserve">
<defs>
</defs>
<g id="larm_2_">
	<path fill="#99CC66" d="M15.6,3c0,0-5.4,20.3-3.3,24.3s10.5,15.1,11.9,17.9c2,4.2-1.2,11.6-3.5,15.9c-0.4,0.9-1.7,0.5-1.7-0.5
		l0.3-4.3c0.1-0.8-0.9-1.3-1.5-0.7l-4.1,4.1c-0.7,0.7-1.8,0-1.5-0.9c1.2-3.5,2.5-8.5,1.7-10.8C12.6,44.3,0.5,33.4,0.1,27.2
		S2.5,4.9,1.4,0"/>
</g>
</svg>
