<!-- Generator: Adobe Illustrator 18.1.1, SVG Export Plug-In  -->
<svg version="1.1"
	 xmlns="http://www.w3.org/2000/svg" xmlns:xlink="http://www.w3.org/1999/xlink" xmlns:a="http://ns.adobe.com/AdobeSVGViewerExtensions/3.0/"
	 x="0px" y="0px" width="79.5px" height="91px" viewBox="0 0 79.5 91" enable-background="new 0 0 79.5 91" xml:space="preserve">
<defs>
</defs>
<path fill="#33CC00" d="M79.5,73c-3.8-2.5-11.3-3.7-19.5-3.8C66,54.1,69.5,34.8,69.5,28c-3,2.9-9.8,10.4-16.6,19.2
	C55.9,32.8,48,12.1,42,0c3.5,15.5,3.2,32.6-2.1,47.7c-1.7-5.8-3.3-10.6-4.3-12.8c-1.3,3.6-2.5,7.3-3.7,11C25.2,32.2,17.5,19,16.1,14
	c-0.1,5.7,0.1,30.5,4.3,49.5C15.9,61.9,9.4,61,0,61c12.4,4.4,16.2,12.5,23.9,21.4c-3.9,6-9.5,12.6,13.8,5.5c0.3,0.2,0.7,0.4,1,0.6
	c6.1,2.7,11.4-1.4,15.9-8.6C66.3,76.5,78.6,73.3,79.5,73z"/>
</svg>
