<!-- Generator: Adobe Illustrator 18.1.1, SVG Export Plug-In  -->
<svg version="1.1"
	 xmlns="http://www.w3.org/2000/svg" xmlns:xlink="http://www.w3.org/1999/xlink" xmlns:a="http://ns.adobe.com/AdobeSVGViewerExtensions/3.0/"
	 x="0px" y="0px" width="1024px" height="116px" viewBox="0 0 1024 116" enable-background="new 0 0 1024 116" xml:space="preserve"
	>
<defs>
</defs>
<g>
	<g>
		<path fill="#33CC00" d="M1023.5,64.4c-1.7-0.9-3.8-1.5-6.1-1.6c-0.4,0-0.8,0-1.2,0c0.1-3.5-3.5-6.6-8.8-7.2
			c-0.9-0.1-1.8-0.1-2.6-0.1c-1.4-2.1-4.3-3.8-7.9-4.3c-2.8-0.3-5.6,0.1-7.8,1.1c-0.5-0.2-1.1-0.4-1.7-0.5c-1-1.7-3-3.1-5.7-3.9
			c-1.7-0.5-3.5-0.7-5.2-0.5c-0.4-0.1-0.8-0.1-1.2-0.2c-1.7-0.2-3.3-0.1-4.8,0.2c-1.1-1-2.6-1.9-4.5-2.4c-0.9-0.3-1.9-0.4-2.8-0.5
			c-0.9-0.3-2-0.6-3.1-0.7c-0.1,0-0.2,0-0.3,0c-1-0.6-2.2-1-3.4-1.3c-1.6-1.5-4-2.6-6.9-3c-1.5-0.2-2.9-0.1-4.3,0.1
			c-0.8-0.2-1.7-0.3-2.6-0.4c-0.2,0-0.4,0-0.6,0c-1.6-2.3-5.1-4-9.2-4.1c-0.9,0-1.8,0-2.6,0.1c-1.8-2-5-3.4-8.7-3.5
			c-2.5-0.1-4.8,0.4-6.6,1.3c-1.6-2.2-4.7-3.7-8.6-4c-2-0.1-3.9,0.1-5.6,0.7c0,0-0.1,0-0.1,0c-0.4,0-0.8-0.1-1.2-0.1
			c-0.4,0-0.9,0-1.3,0c-1.7-1.6-4.5-2.8-7.7-3c-2.3-0.1-4.5,0.2-6.3,0.9c-0.2,0-0.3,0-0.5,0c-0.9,0-1.8,0-2.6,0.1
			c-1.8-2-5-3.4-8.7-3.5c-2.3-0.1-4.5,0.4-6.3,1.1c-1.3-0.5-2.8-0.8-4.3-0.9c-2-0.1-3.9,0.1-5.6,0.7c0,0,0,0-0.1,0
			c-0.8,0-1.6,0-2.4,0.1c-1.7-1.7-4.6-3-7.9-3.2c-3.7-0.2-7.2,0.8-9.3,2.7c-0.8-0.2-1.7-0.3-2.6-0.4c-1.1-0.1-2.2,0-3.3,0.1
			c-1-0.1-1.9-0.1-2.9,0c-0.6,0-1.1,0.1-1.6,0.2c-1.7,0.1-3.3,0.4-4.7,0.9c-1.1-0.4-2.3-0.6-3.6-0.7c-0.4,0-0.8,0-1.2,0
			c-1.6-0.4-3.4-0.6-5.2-0.4c-2.3,0.2-4.3,0.9-5.9,1.9c-0.7,0.2-1.4,0.5-2,0.9c-0.3,0-0.7,0.1-1,0.1c-1.7-1.3-4.2-2.3-7.1-2.4
			c-3.7-0.2-7.2,0.8-9.3,2.7c-0.8-0.2-1.7-0.3-2.6-0.4c-0.7,0-1.4,0-2.1,0c-0.9-0.3-1.9-0.4-3-0.5c-2.3-0.1-4.5,0.2-6.3,0.9
			c-0.2,0-0.3,0-0.5,0c-0.9,0-1.8,0-2.6,0.1c-1.8-2-5-3.4-8.7-3.5c-2.3-0.1-4.5,0.4-6.3,1.1c-1.3-0.5-2.8-0.8-4.3-0.9
			c-2-0.1-3.9,0.1-5.6,0.7c0,0,0,0-0.1,0c-0.8,0-1.6,0-2.4,0.1c-1.7-1.7-4.6-3-7.9-3.2c-3.7-0.2-7.2,0.8-9.3,2.7
			c-0.8-0.2-1.7-0.3-2.6-0.4c-1.1-0.1-2.2,0-3.3,0.1c-1-0.1-1.9-0.1-2.9,0c-0.6,0-1.1,0.1-1.6,0.2c-1.7,0.1-3.3,0.4-4.7,0.9
			c-1.1-0.4-2.3-0.6-3.6-0.7c-0.4,0-0.8,0-1.2,0c-1.6-0.4-3.4-0.6-5.2-0.4c-2.3,0.2-4.3,0.9-5.9,1.9c-0.7,0.2-1.4,0.5-2,0.9
			c-0.3,0-0.7,0.1-1,0.1c-1.7-1.3-4.2-2.3-7.1-2.4c-3.7-0.2-7.2,0.8-9.3,2.7c-0.8-0.2-1.7-0.3-2.6-0.4c-2.4-0.2-4.7,0.3-6.6,1.1
			c-1.5-0.6-3.2-1-5.1-1c-2.5-0.1-4.8,0.4-6.6,1.3c-1.6-2.2-4.7-3.7-8.6-4c-2-0.1-3.9,0.1-5.6,0.7c0,0-0.1,0-0.1,0
			c-0.4,0-0.8-0.1-1.2-0.1c-0.4,0-0.9,0-1.3,0c-1.7-1.6-4.5-2.8-7.7-3c-2.3-0.1-4.5,0.2-6.3,0.9c-0.2,0-0.3,0-0.5,0
			c-0.9,0-1.8,0-2.6,0.1c-1.8-2-5-3.4-8.7-3.5c-2.3-0.1-4.5,0.4-6.3,1.1c-1.3-0.5-2.8-0.8-4.3-0.9c-2-0.1-3.9,0.1-5.6,0.7
			c0,0,0,0-0.1,0c-0.8,0-1.6,0-2.4,0.1c-1.7-1.7-4.6-3-7.9-3.2c-3.7-0.2-7.2,0.8-9.3,2.7c-0.8-0.2-1.7-0.3-2.6-0.4
			c-1.1-0.1-2.2,0-3.3,0.1c-1-0.1-1.9-0.1-2.9,0c-0.6,0-1.1,0.1-1.6,0.2c-1.7,0.1-3.3,0.4-4.7,0.9c-1.1-0.4-2.3-0.6-3.6-0.7
			c-0.4,0-0.8,0-1.2,0c-1.6-0.4-3.4-0.6-5.2-0.4c-2.3,0.2-4.3,0.9-5.9,1.9c-0.7,0.2-1.4,0.5-2,0.9c-0.3,0-0.7,0.1-1,0.1
			c-1.7-1.3-4.2-2.3-7.1-2.4c-3.7-0.2-7.2,0.8-9.3,2.7c-0.8-0.2-1.7-0.3-2.6-0.4c-3-0.2-5.8,0.5-8,1.7c-0.3,0-0.7-0.1-1-0.1
			c-2.3-0.1-4.5,0.4-6.3,1.1c-1.3-0.5-2.8-0.8-4.3-0.9c-2-0.1-3.9,0.1-5.6,0.7c0,0,0,0-0.1,0c-0.8,0-1.6,0-2.4,0.1
			c-1.7-1.7-4.6-3-7.9-3.2c-3.7-0.2-7.2,0.8-9.3,2.7c-0.8-0.2-1.7-0.3-2.6-0.4c-1.1-0.1-2.2,0-3.3,0.1c-1-0.1-1.9-0.1-2.9,0
			c-0.6,0-1.1,0.1-1.6,0.2c-1.7,0.1-3.3,0.4-4.7,0.9c-1.1-0.4-2.3-0.6-3.6-0.7c-0.4,0-0.8,0-1.2,0c-1.6-0.4-3.4-0.6-5.2-0.4
			c-1.9,0.2-3.6,0.7-5,1.4c-1.8-0.7-4-1.1-6.3-1c-0.8,0-1.6,0.2-2.4,0.3c-0.1,0-0.3-0.1-0.4-0.1c-2.1-1.8-5.5-2.8-9.1-2.6
			c-2.5,0.1-4.6,0.8-6.3,1.9c-2-2-5.4-3.3-9.2-3.2c-2,0-3.9,0.5-5.4,1.1c0,0-0.1,0-0.1,0c-0.4,0-0.8,0-1.2,0c-0.4,0-0.8,0.1-1.3,0.1
			c-2-1.5-5-2.4-8.2-2.3c-2.3,0.1-4.4,0.6-6.1,1.4c-0.2,0-0.3,0-0.5,0c-0.9,0-1.8,0.2-2.6,0.4c-2.1-1.8-5.6-2.9-9.3-2.7
			c-2.3,0.1-4.4,0.7-6,1.7c-1.4-0.4-2.9-0.6-4.5-0.6c-2,0-3.8,0.5-5.4,1.1c0,0,0,0-0.1,0c-0.8,0-1.6,0.2-2.4,0.3
			c-2-1.6-5.1-2.6-8.4-2.5c-3.7,0.1-6.9,1.4-8.8,3.4c-0.8-0.1-1.7-0.2-2.6-0.2c-1.1,0-2.2,0.2-3.2,0.4c-1,0-1.9,0.1-2.9,0.2
			c-0.5,0.1-1,0.2-1.5,0.4c-1.7,0.2-3.2,0.7-4.5,1.3c-1.2-0.3-2.4-0.4-3.7-0.4c-0.4,0-0.8,0-1.2,0.1c-1.7-0.3-3.5-0.3-5.3,0
			c-2.2,0.4-4.1,1.2-5.5,2.3c-0.3,0.2-0.6,0.3-0.9,0.5c-1.8-1.9-4.9-3.1-8.4-3.3c-2.3-0.1-4.5,0.4-6.3,1.1c-1.3-0.5-2.8-0.8-4.3-0.9
			c-2-0.1-3.9,0.1-5.6,0.7c0,0,0,0-0.1,0c-0.8,0-1.6,0-2.4,0.1c-1.7-1.7-4.6-3-7.9-3.2c-3.7-0.2-7.2,0.8-9.3,2.7
			c-0.8-0.2-1.7-0.3-2.6-0.4c-1.1-0.1-2.2,0-3.3,0.1c-1-0.1-1.9-0.1-2.9,0c-0.6,0-1.1,0.1-1.6,0.2c-1.7,0.1-3.3,0.4-4.7,0.9
			c-1.1-0.4-2.3-0.6-3.6-0.7c-0.4,0-0.8,0-1.2,0c-1.6-0.4-3.4-0.6-5.2-0.4c-2.3,0.2-4.3,0.9-5.9,1.9c-0.7,0.2-1.4,0.5-2,0.9
			c-0.3,0-0.7,0.1-1,0.1c-1.7-1.3-4.2-2.3-7.1-2.4c-0.1,0-0.2,0-0.4,0c-1.2-0.4-2.6-0.6-4-0.7c-2.3-0.1-4.5,0.4-6.3,1.1
			c-1.3-0.5-2.8-0.8-4.3-0.9c-2-0.1-3.9,0.1-5.6,0.7c0,0,0,0-0.1,0c-0.8,0-1.6,0-2.4,0.1c-1.7-1.7-4.6-3-7.9-3.2
			c-3.7-0.2-7.2,0.8-9.3,2.7c-0.8-0.2-1.7-0.3-2.6-0.4c-1.1-0.1-2.2,0-3.3,0.1c-1-0.1-1.9-0.1-2.9,0c-0.6,0-1.1,0.1-1.6,0.2
			c-1.7,0.1-3.3,0.4-4.7,0.9c-1.1-0.4-2.3-0.6-3.6-0.7c-0.4,0-0.8,0-1.2,0c-1.6-0.4-3.4-0.6-5.2-0.4c-2.3,0.2-4.3,0.9-5.9,1.9
			c-0.7,0.2-1.4,0.5-2,0.9c-0.3,0-0.7,0.1-1,0.1c-1.7-1.3-4.2-2.3-7.1-2.4c-3.7-0.2-7.2,0.8-9.3,2.7c-0.8-0.2-1.7-0.3-2.6-0.4
			c-4.7-0.3-8.9,1.5-10.8,4.2c-1.9-0.9-4.2-1.4-6.7-1.4c-3,0.1-5.6,1-7.4,2.3c-1.3,0.2-2.6,0.5-3.7,1c-0.1,0-0.2,0-0.3,0
			c-1.1,0-2.2,0.2-3.2,0.4c-1,0-1.9,0.1-2.9,0.3c-2,0.4-3.6,1.1-4.9,2c-1.4-0.4-3.1-0.7-4.7-0.6c-0.4,0-0.8,0-1.2,0.1
			c-1.7-0.3-3.5-0.3-5.3,0.1c-2.8,0.5-5.1,1.7-6.4,3.3c-0.6,0.1-1.2,0.2-1.7,0.3c-2-1.2-4.6-1.9-7.5-1.8c-3.7,0.1-6.9,1.5-8.7,3.5
			c-0.8-0.1-1.7-0.2-2.6-0.2c-5.3,0.1-9.6,2.9-10.2,6.3c-0.4-0.1-0.8-0.1-1.1-0.1c-2.3-0.1-4.6,0.2-6.4,1c-1-0.2-2-0.2-3-0.2
			c-5.8,0.2-10.2,3.4-10,7.3c0,0.2,0,0.4,0.1,0.5c-3.4,1.1-5.6,3.4-5.8,5.9c-0.4,0.1-0.7,0.2-1,0.2c-0.9-0.1-1.8-0.1-2.8,0
			c-3,0.3-5.4,1.3-7.1,2.8c-2-0.9-4.3-1.4-6.8-1.4v51.7h1023.3V64.4C1023.6,64.4,1023.6,64.4,1023.5,64.4z"/>
	</g>
	<g>
		<path fill="none" d="M336,54.5l-0.5-0.7c-0.7-0.2-1.4-0.3-2.2-0.5c1.1,0.4,2.1,0.9,2.9,1.6l-0.1-0.2C336,54.7,336,54.6,336,54.5z"
			/>
		<path fill="none" d="M337.1,26.3L337.1,26.3C337,26.3,337,26.3,337.1,26.3C337,26.3,337,26.3,337.1,26.3z"/>
		<path fill="none" d="M338.1,53.8C338.1,53.8,338.1,53.8,338.1,53.8c0.4-0.2,0.8-0.5,1.2-0.7c-0.2,0-0.3,0-0.5,0
			C338.6,53.3,338.4,53.6,338.1,53.8z"/>
		<path fill="#339900" d="M1023.1,68.6c-1.6-0.6-3.5-0.9-5.4-0.9c-4.5,0-8.4,1.8-10.6,4.5c-0.5,0-0.9-0.1-1.4-0.1
			c-1.4,0-2.8,0.2-4,0.6c-2.1-3.1-6.3-5.3-11.2-5.3c-2.1,0-4.1,0.4-5.9,1.1c-1.8-0.7-3.8-1.1-5.9-1.1c-2,0-3.9,0.4-5.6,1
			c-1.5-0.5-3.1-0.7-4.8-0.7c-0.8,0-1.6,0.1-2.4,0.2c-1.2-0.3-2.5-0.5-3.8-0.5c-0.9,0-1.7,0.1-2.5,0.2c-0.8-0.1-1.7-0.2-2.5-0.2
			c-1.4,0-2.8,0.2-4,0.5c-2-3.3-6.4-5.6-11.4-5.6c-4.9,0-9.2,2.2-11.3,5.4c-0.2,0-0.3,0-0.5-0.1c-1.2-1.1-3.1-1.8-5.1-1.8
			c-2.2,0-4.1,0.9-5.4,2.1c-1.2-0.3-2.3-0.5-3.6-0.7c-2.9-1.1-6-1.8-9.3-2.1c-0.4-8.3-0.7-16.2-0.8-20.4c0,0,0,0,0,0
			c0.2,0.2,0.4,0.3,0.7,0.4c0,0.2,0,0.4,0.2,0.5c0.1,0.1,0.2,0.2,0.4,0.3c-0.1,0.2,0,0.4,0.1,0.6c0.1,0.1,0.3,0.2,0.4,0.3
			c-0.1,0.1,0,0.3,0.1,0.4c0.2,0.2,0.5,0.4,0.9,0.4c-0.1,0-0.1,0.1-0.2,0.1c-0.2,0.1-0.2,0.4,0,0.6c0.1,0.1,0.3,0.2,0.5,0.2
			c-0.1,0.1,0,0.3,0.1,0.4c0.1,0.1,0.2,0.1,0.3,0.1c-0.1,0.1-0.1,0.2,0.1,0.3c0.1,0.1,0.4,0.1,0.5,0.1c0,0,0.1,0,0.1-0.1l0,0
			c0,0.1,0,0.3,0,0.4c0,0.2,0.2,0.3,0.4,0.3c0.2,0,0.4-0.1,0.3-0.3c0,0,0-0.1-0.1-0.2c0.1,0.1,0.4,0.2,0.5,0.1
			c0.2-0.1,0.2-0.3,0-0.4c0,0-0.1-0.1-0.1-0.1c0,0,0,0,0-0.1c0.2,0,0.3,0,0.4-0.1c0.1-0.1,0-0.3-0.1-0.4c0.2,0,0.4-0.1,0.5-0.2
			c0.2-0.2,0-0.6-0.3-0.8c0,0-0.1-0.1-0.2-0.1c0.1-0.1,0.2-0.1,0.3-0.3c0.1-0.3-0.2-0.6-0.5-0.7c0,0,0,0,0,0c0.4,0,0.7-0.2,0.7-0.5
			c0-0.3-0.4-0.7-0.8-0.8c0.3-0.1,0.4-0.3,0.4-0.5c0.1,0,0.2,0,0.3,0c0,0.2,0.2,0.4,0.4,0.5c0.2,0.1,0.4,0.1,0.6,0.1
			c0,0.2,0.1,0.3,0.3,0.4c0.3,0.2,0.8,0.2,1.1,0c-0.1,0.1-0.1,0.1-0.1,0.1c-0.2,0.3,0,0.5,0.4,0.7c0.2,0.1,0.5,0,0.6,0
			c0,0.1,0.1,0.3,0.3,0.3c0.1,0,0.3,0,0.4,0c0,0.1,0.1,0.3,0.2,0.3c0.2,0.1,0.4,0,0.5-0.2c0,0,0-0.1,0.1-0.1l0,0
			c0,0.2,0.1,0.3,0.2,0.4c0.1,0.2,0.4,0.2,0.6,0.1c0.2-0.1,0.3-0.3,0.2-0.4c0,0-0.1-0.1-0.2-0.2c0.2,0.1,0.5,0,0.6-0.2
			c0.1-0.2,0-0.3-0.2-0.4c0,0-0.1,0-0.2,0c0,0,0-0.1,0-0.1c0.2-0.1,0.3-0.2,0.4-0.3c0-0.2-0.1-0.3-0.3-0.4c0.2-0.1,0.4-0.3,0.4-0.4
			c0-0.3-0.3-0.6-0.8-0.6c-0.1,0-0.1,0-0.2,0c0.1-0.1,0.2-0.2,0.1-0.4c-0.1-0.3-0.5-0.5-0.9-0.5c0,0,0,0,0,0
			c0.4-0.2,0.7-0.5,0.5-0.8c-0.2-0.3-0.7-0.5-1.2-0.4c0.2-0.2,0.3-0.5,0.1-0.8c-0.3-0.3-0.8-0.4-1.3-0.3c0.3-0.3,0.2-0.7-0.1-0.9
			c-0.3-0.2-0.8-0.3-1.2-0.2c0.2-0.3,0-0.7-0.3-0.9c-0.3-0.2-0.7-0.2-1-0.1c0-0.1,0-0.1-0.1-0.2c0,0,0,0,0-0.1
			c0.1,0.1,0.3,0.1,0.5,0c0.1,0,0.2-0.1,0.3-0.2c0.1,0.1,0.3,0.1,0.5,0.1c0.1,0,0.3-0.1,0.4-0.2c0.1,0.1,0.2,0.1,0.4,0.1
			c0.3-0.1,0.5-0.3,0.6-0.5c0,0.1,0,0.1,0,0.1c0.1,0.2,0.3,0.3,0.6,0.2c0.1-0.1,0.3-0.2,0.3-0.3c0.1,0.1,0.2,0.1,0.3,0
			c0.1,0,0.2-0.1,0.2-0.2c0.1,0.1,0.2,0.1,0.3,0c0.1-0.1,0.2-0.2,0.2-0.3c0,0,0-0.1,0-0.1l0,0c0.1,0.1,0.2,0.1,0.3,0.1
			c0.1,0,0.3-0.1,0.4-0.2c0.1-0.2,0-0.3-0.1-0.3c0,0-0.1,0-0.2,0c0.1-0.1,0.2-0.2,0.2-0.4c0-0.1-0.2-0.2-0.3-0.1c0,0-0.1,0-0.1,0.1
			c0,0,0,0,0-0.1c0.1-0.1,0.1-0.3,0-0.3c-0.1-0.1-0.2-0.1-0.3-0.1c0.1-0.2,0.1-0.3,0-0.4c-0.2-0.2-0.5-0.2-0.7,0
			c0,0-0.1,0.1-0.1,0.1c0-0.1-0.1-0.2-0.1-0.3c-0.2-0.1-0.6-0.1-0.8,0.2c0,0,0,0,0,0c0.2-0.3,0.1-0.6-0.2-0.7
			c-0.3-0.1-0.7,0.1-0.9,0.4c0-0.2-0.1-0.4-0.4-0.4c-0.3,0-0.7,0.2-0.8,0.5c0-0.3-0.3-0.5-0.6-0.4c-0.3,0-0.6,0.2-0.7,0.5
			c-0.1-0.2-0.3-0.4-0.6-0.3c0-0.1,0.1-0.1,0.1-0.2c0.2,0,0.3,0,0.5-0.1c0.1-0.1,0.2-0.2,0.2-0.3c0.1,0,0.3,0,0.4-0.1
			c0.2-0.2,0.3-0.5,0.3-0.7c0,0,0.1,0.1,0.1,0.1c0.1,0.2,0.4,0.1,0.6-0.1c0.1-0.1,0.2-0.3,0.1-0.4c0.1,0.1,0.2,0,0.3-0.1
			c0.1-0.1,0.1-0.2,0.1-0.2c0.1,0.1,0.2,0,0.3-0.1c0.1-0.1,0.1-0.3,0-0.4c0,0,0,0-0.1-0.1l0,0c0.1,0,0.3,0,0.3,0
			c0.1,0,0.3-0.2,0.3-0.4c0-0.2-0.1-0.3-0.3-0.2c0,0-0.1,0-0.2,0.1c0.1-0.1,0.1-0.3,0-0.4c-0.1-0.1-0.2-0.1-0.4,0c0,0,0,0.1-0.1,0.1
			c0,0,0,0-0.1,0c0-0.1,0-0.3-0.1-0.3c-0.1-0.1-0.2,0-0.3,0.1c0-0.2-0.1-0.3-0.2-0.4c-0.2-0.1-0.5,0-0.7,0.3c0,0,0,0.1-0.1,0.2
			c-0.1-0.1-0.1-0.2-0.3-0.2c-0.3,0-0.5,0.2-0.6,0.5c0,0,0,0,0,0c0-0.3-0.2-0.6-0.5-0.5c-0.3,0-0.6,0.3-0.6,0.7
			c-0.1-0.2-0.3-0.3-0.6-0.2c-0.3,0.1-0.5,0.4-0.5,0.8c-0.1-0.2-0.4-0.3-0.7-0.2c-0.2,0.1-0.4,0.4-0.4,0.7c-0.2-0.2-0.5-0.2-0.7,0
			c-0.2,0.1-0.3,0.4-0.3,0.6c-0.2,0-0.4,0-0.6,0.1c-0.3,0.2-0.4,0.6-0.4,0.9c0,0,0,0-0.1-0.1c-0.3-0.2-0.7-0.1-1,0.3
			c0,0.1-0.1,0.1-0.1,0.2c0,0-0.1,0.1-0.1,0.1c0,0-0.1,0-0.1,0.1c0-0.4-0.2-0.7-0.5-0.9c-0.2-0.1-0.5-0.1-0.7,0
			c-0.1-0.2-0.2-0.5-0.5-0.6c-0.3-0.2-0.7-0.1-0.9,0.2c-0.1-0.3-0.3-0.6-0.6-0.6c-0.4-0.1-0.7,0-0.9,0.3c0-0.4-0.3-0.7-0.7-0.7
			c-0.3,0-0.6,0.1-0.7,0.4c-0.1-0.4-0.4-0.6-0.8-0.6c-0.4,0-0.6,0.3-0.6,0.7c0,0,0,0,0,0c-0.1-0.3-0.5-0.5-0.8-0.4
			c-0.1,0-0.2,0.1-0.3,0.3c0-0.1-0.1-0.1-0.1-0.2c-0.2-0.3-0.6-0.4-0.8-0.2c-0.2,0.1-0.3,0.3-0.3,0.5c-0.1-0.1-0.3-0.1-0.4,0
			c-0.1,0.1-0.2,0.2-0.2,0.4c0,0-0.1,0-0.1,0c0,0-0.1-0.1-0.1-0.1c-0.1-0.1-0.4-0.1-0.5,0.1c-0.1,0.1-0.1,0.3,0.1,0.4
			c-0.1,0-0.2,0-0.2,0c-0.2,0-0.3,0.1-0.3,0.3c0,0.2,0.2,0.3,0.3,0.3c0.1,0,0.3,0,0.4-0.1l0,0c0,0-0.1,0.1-0.1,0.1
			c-0.1,0.1-0.1,0.3,0.1,0.4c0.1,0.1,0.3,0.1,0.4,0c0,0.1,0.1,0.2,0.1,0.2c0.1,0.1,0.3,0.1,0.4,0c0,0.2,0.1,0.3,0.2,0.4
			c0.2,0.2,0.6,0.2,0.7-0.1c0,0,0.1-0.1,0.1-0.1c-0.1,0.3,0.1,0.6,0.4,0.7c0.2,0.1,0.4,0.1,0.5,0c0.1,0.1,0.2,0.2,0.3,0.3
			c0.2,0.1,0.4,0.1,0.6,0c0.1,0.1,0.1,0.2,0.3,0.3c0.2,0.1,0.4,0.2,0.6,0.1c0,0.1,0.1,0.3,0.2,0.4c-0.1,0.1-0.3,0.3-0.3,0.4
			c-0.3-0.1-0.7-0.2-1,0c-0.4,0.2-0.6,0.6-0.6,1c-0.3-0.2-0.8-0.2-1.1,0c-0.4,0.2-0.5,0.7-0.4,1.1c-0.4-0.3-1-0.2-1.3,0.1
			c-0.3,0.3-0.3,0.6-0.2,0.9c-0.4-0.2-1-0.1-1.3,0.3c-0.2,0.4-0.1,0.8,0.3,1.1c0,0,0,0,0,0c-0.4-0.1-0.9,0.1-1,0.4
			c-0.1,0.2-0.1,0.3,0,0.5c-0.1,0-0.2,0-0.2,0c-0.4-0.1-0.8,0.2-0.9,0.6c0,0.2,0.1,0.5,0.3,0.6c-0.2,0-0.3,0.2-0.4,0.4
			c0,0.2,0.1,0.4,0.3,0.4c0,0,0,0.1,0,0.1c-0.1,0-0.1,0-0.2,0c-0.2,0-0.4,0.3-0.3,0.5c0.1,0.2,0.3,0.3,0.5,0.3
			c-0.1,0.1-0.2,0.1-0.2,0.2c-0.1,0.2-0.1,0.4,0.1,0.5c0.2,0.1,0.5,0.1,0.6,0c0.1-0.1,0.2-0.3,0.3-0.4l0,0c0,0.1,0,0.1,0,0.1
			c0,0.2,0.3,0.3,0.5,0.3c0.2,0,0.3-0.2,0.3-0.3c0.1,0.1,0.2,0.1,0.4,0.1c0.2,0,0.3-0.2,0.4-0.4c0.2,0.1,0.4,0.2,0.6,0.1
			c0.4-0.1,0.6-0.4,0.5-0.7c0-0.1,0-0.1-0.1-0.2c0.2,0.3,0.7,0.4,1,0.2c0.2-0.1,0.4-0.3,0.4-0.5c0.2,0,0.4,0,0.6,0
			c0.3-0.1,0.5-0.3,0.5-0.6c0.2,0,0.3,0,0.5,0c0.1,0,0.1,0,0.1-0.1c0.1,0.1,0.2,0.2,0.3,0.2c0,0,0,0,0,0c-0.3,0-0.6,0.2-0.7,0.5
			c0,0.1,0,0.2,0.1,0.3c-0.1,0-0.1,0-0.2,0c-0.3,0-0.6,0.3-0.5,0.6c0,0.2,0.1,0.3,0.3,0.4c-0.1,0.1-0.2,0.2-0.2,0.3
			c0,0.1,0.1,0.2,0.3,0.3c0,0,0,0.1,0,0.1c0,0-0.1,0-0.1,0c-0.2,0.1-0.2,0.2-0.1,0.4c0.1,0.1,0.3,0.2,0.4,0.1
			c-0.1,0.1-0.1,0.1-0.1,0.2c-0.1,0.1,0,0.3,0.2,0.4s0.4,0,0.4-0.1c0-0.1,0.1-0.2,0.1-0.4l0,0c0,0,0,0.1,0,0.1
			c0.1,0.1,0.2,0.2,0.4,0.1c0.1-0.1,0.2-0.2,0.2-0.3c0.1,0,0.2,0,0.3,0c0.1-0.1,0.2-0.2,0.2-0.3c0.1,0.1,0.3,0.1,0.5,0
			c0.3-0.1,0.4-0.4,0.2-0.6c0,0-0.1-0.1-0.1-0.1c0.2,0.1,0.5,0.1,0.8,0c0.1-0.1,0.2-0.2,0.2-0.4c0.1,0,0.3,0,0.4-0.1
			c0.2-0.1,0.3-0.3,0.3-0.5c0.1,0,0.3,0,0.4-0.1c0.2-0.1,0.3-0.2,0.3-0.4c0.2,0.1,0.5,0,0.7-0.1c0.2-0.1,0.3-0.3,0.4-0.5
			c0.2,0,0.4,0,0.5-0.1c0.1-0.1,0.2-0.1,0.3-0.2c0.1,3.2,0.1,11.5-0.1,20.5c-0.5,0-1,0.1-1.6,0.1c-2.3-1.7-5.3-2.7-8.7-2.7
			c-3.1,0-6,0.9-8.2,2.3c-1.9-1.1-4.2-1.8-6.8-1.8c-4.3,0-8,1.9-9.9,4.6c-0.1,0-0.2,0-0.3,0c-1.2-0.5-2.5-0.8-3.9-0.9
			c-0.9-0.4-1.9-0.6-3-0.7c-2.3-2.4-5.9-3.9-10.1-3.9c-0.3,0-0.6,0-0.8,0c-0.9-0.1-1.7-0.2-2.7-0.2c-2.1,0-4.1,0.4-5.9,1.1
			c-1.8-0.7-3.8-1.1-5.9-1.1c-2.8,0-5.3,0.7-7.4,1.9c-0.4-0.2-0.8-0.3-1.2-0.5c-2-1.4-4.6-2.2-7.5-2.2c-1.8,0-3.4,0.3-4.9,0.9
			c-0.2,0-0.4,0-0.6,0c-0.8,0-1.5,0.1-2.2,0.2c-1.6-2.2-4.5-3.8-7.8-4.3c-1.6-0.6-3.5-0.9-5.4-0.9c-4.5,0-8.4,1.8-10.6,4.5
			c-0.5,0-0.9-0.1-1.4-0.1c-1.4,0-2.8,0.2-4,0.6c-2.1-3.1-6.3-5.3-11.2-5.3c-2.1,0-4.1,0.4-5.9,1.1c-1.8-0.7-3.8-1.1-5.9-1.1
			c-2,0-3.9,0.4-5.6,1c-1.5-0.5-3.1-0.7-4.8-0.7c-0.8,0-1.6,0.1-2.4,0.2c-1.2-0.3-2.5-0.5-3.8-0.5c-0.9,0-1.7,0.1-2.5,0.2
			c-0.8-0.1-1.7-0.2-2.5-0.2c-0.7,0-1.5,0.1-2.2,0.2c-1.2-0.7-2.4-1.3-3.7-1.8c-2.3-2.1-5.7-3.4-9.5-3.4c-1.4,0-2.8,0.2-4.1,0.5
			c-0.4,0-0.7,0-1.1,0c-7.6,0-14.6,2.2-20,5.7c0,0,0,0-0.1,0c-0.7,0-1.3,0.1-1.9,0.2c-0.1,0-0.3,0-0.4,0.1c-1.9-0.9-4.1-1.4-6.5-1.4
			c-1.4,0-2.8,0.2-4,0.5c-2-3.3-6.4-5.6-11.4-5.6c-4.8,0-8.9,2.1-11.1,5.1c-0.1,0-0.1,0-0.2,0c-0.1,0-0.3,0-0.4,0
			c-1.2-1.1-3-1.8-5.1-1.8c-0.7,0-1.3,0.1-1.9,0.2c-1.6,0.1-3.1,0.7-4.2,1.6c-0.1,0-0.1,0-0.2,0c-0.3,0-0.7,0-1,0
			c-0.7,0-1.3,0.1-1.9,0.1c-0.5-0.1-1.1-0.1-1.6-0.1c-1.2-0.9-2.7-1.5-4.5-1.5c-2.3-2.4-5.9-3.9-10.1-3.9c-1.2,0-2.4,0.1-3.6,0.4
			c-3.7,0.3-7,1.8-9,4.1c-0.3,0-0.6,0-0.9,0.1c-1-0.4-2.1-0.7-3.4-0.7c-0.7,0-1.4,0.1-2.1,0.3c0,0-0.1,0-0.1,0
			c-2.3-2.3-5.9-3.7-9.9-3.7c-1.5,0-2.9,0.2-4.2,0.5c-0.5,0-0.9,0-1.4,0c-3.5,0-6.8,0.5-10,1.3c-2-1.1-4.5-1.8-7.2-1.8
			c-3.1,0-5.9,0.9-8.1,2.3c-0.8-11.3-1.9-32.8-2-40.7c0,0,0,0,0,0c0.2,0.2,0.4,0.3,0.7,0.3c0,0.2,0,0.3,0.2,0.5
			c0.1,0.1,0.2,0.2,0.4,0.2c-0.1,0.2,0,0.4,0.1,0.5c0.1,0.1,0.2,0.2,0.4,0.3c-0.1,0.1,0,0.3,0.1,0.4c0.2,0.2,0.5,0.4,0.8,0.3
			c-0.1,0-0.1,0-0.1,0.1c-0.2,0.1-0.2,0.4,0,0.6c0.1,0.1,0.3,0.2,0.5,0.2c-0.1,0.1,0,0.2,0.1,0.4c0.1,0.1,0.2,0.1,0.3,0.1
			c-0.1,0.1-0.1,0.2,0.1,0.3c0.1,0.1,0.3,0.1,0.5,0.1c0,0,0.1,0,0.1-0.1l0,0c0,0.1,0,0.3,0,0.4c0,0.2,0.2,0.3,0.4,0.3
			c0.2,0,0.3-0.1,0.3-0.3c0,0,0-0.1-0.1-0.2c0.1,0.1,0.4,0.2,0.5,0.1c0.1-0.1,0.1-0.3,0-0.4c0,0-0.1-0.1-0.1-0.1c0,0,0,0,0-0.1
			c0.2,0,0.3,0,0.4-0.1c0.1-0.1,0-0.3-0.1-0.4c0.2,0,0.4-0.1,0.5-0.2c0.2-0.2,0-0.5-0.3-0.7c0,0-0.1-0.1-0.2-0.1
			c0.1-0.1,0.2-0.1,0.2-0.3c0.1-0.3-0.2-0.6-0.5-0.7c0,0,0,0,0,0c0.4,0,0.7-0.2,0.7-0.5c0-0.3-0.3-0.6-0.8-0.7
			c0.2-0.1,0.4-0.3,0.3-0.5c0.1,0,0.2,0,0.3,0c0,0.2,0.2,0.4,0.4,0.5c0.2,0.1,0.4,0.1,0.6,0.1c0,0.2,0.1,0.3,0.3,0.4
			c0.3,0.2,0.7,0.1,1,0c0,0.1-0.1,0.1-0.1,0.1c-0.2,0.2,0,0.5,0.3,0.6c0.2,0.1,0.4,0,0.6,0c0,0.1,0.1,0.3,0.3,0.3c0.1,0,0.2,0,0.4,0
			c0,0.1,0.1,0.2,0.2,0.3c0.2,0.1,0.4,0,0.5-0.1c0,0,0-0.1,0.1-0.1l0,0c0,0.2,0.1,0.3,0.2,0.4c0.1,0.1,0.4,0.2,0.6,0.1
			s0.3-0.3,0.2-0.4c0,0-0.1-0.1-0.2-0.2c0.2,0.1,0.4,0,0.5-0.1c0.1-0.1,0-0.3-0.2-0.4c0,0-0.1,0-0.2,0c0,0,0-0.1,0-0.1
			c0.2,0,0.3-0.2,0.3-0.3c0-0.1-0.1-0.3-0.3-0.3c0.2-0.1,0.4-0.2,0.4-0.4c0-0.3-0.3-0.6-0.7-0.6c-0.1,0-0.1,0-0.2,0
			c0.1-0.1,0.1-0.2,0.1-0.4c-0.1-0.3-0.5-0.5-0.9-0.5c0,0,0,0,0,0c0.4-0.1,0.6-0.5,0.5-0.8c-0.2-0.3-0.7-0.5-1.2-0.4
			c0.2-0.2,0.2-0.5,0.1-0.7c-0.3-0.3-0.8-0.4-1.3-0.3c0.3-0.3,0.2-0.6-0.1-0.9c-0.3-0.2-0.7-0.3-1.1-0.2c0.2-0.3,0-0.6-0.3-0.8
			c-0.3-0.1-0.6-0.2-1-0.1c0-0.1,0-0.1-0.1-0.2c0,0,0,0,0-0.1c0.1,0.1,0.3,0.1,0.5,0c0.1,0,0.2-0.1,0.3-0.2c0.1,0.1,0.3,0.1,0.5,0.1
			c0.1,0,0.3-0.1,0.4-0.2c0.1,0.1,0.2,0.1,0.4,0.1c0.3-0.1,0.5-0.3,0.5-0.5c0,0.1,0,0.1,0,0.1c0.1,0.2,0.3,0.3,0.5,0.2
			c0.1-0.1,0.3-0.2,0.3-0.3c0.1,0.1,0.2,0.1,0.3,0c0.1,0,0.1-0.1,0.2-0.2c0,0.1,0.2,0.1,0.3,0c0.1-0.1,0.2-0.2,0.2-0.3
			c0,0,0-0.1,0-0.1l0,0c0.1,0.1,0.2,0.1,0.3,0.1c0.1,0,0.3-0.1,0.4-0.2c0.1-0.1,0-0.3-0.1-0.3c0,0-0.1,0-0.2,0
			c0.1-0.1,0.2-0.2,0.2-0.3c0-0.1-0.2-0.2-0.3-0.1c0,0-0.1,0-0.1,0.1c0,0,0,0,0,0c0.1-0.1,0.1-0.2,0-0.3c-0.1-0.1-0.2-0.1-0.3-0.1
			c0.1-0.1,0.1-0.3,0-0.4c-0.1-0.2-0.5-0.2-0.7,0c0,0-0.1,0.1-0.1,0.1c0-0.1-0.1-0.2-0.1-0.3c-0.2-0.1-0.5-0.1-0.7,0.2c0,0,0,0,0,0
			c0.1-0.3,0.1-0.6-0.2-0.7c-0.3-0.1-0.6,0.1-0.8,0.4c0-0.2-0.1-0.4-0.4-0.4c-0.3,0-0.7,0.2-0.8,0.5c0-0.3-0.2-0.4-0.6-0.4
			c-0.3,0-0.5,0.2-0.7,0.4c-0.1-0.2-0.3-0.3-0.6-0.3c0,0,0.1-0.1,0.1-0.2c0.1,0,0.3,0,0.5-0.1c0.1-0.1,0.2-0.2,0.2-0.3
			c0.1,0,0.3,0,0.4-0.1c0.2-0.2,0.3-0.4,0.3-0.7c0,0,0.1,0.1,0.1,0.1c0.1,0.2,0.4,0.1,0.6-0.1c0.1-0.1,0.1-0.3,0.1-0.4
			c0.1,0,0.2,0,0.3-0.1c0.1-0.1,0.1-0.2,0.1-0.2c0.1,0.1,0.2,0,0.3-0.1c0.1-0.1,0.1-0.3,0-0.4c0,0,0,0-0.1-0.1l0,0
			c0.1,0,0.3,0,0.3,0c0.1,0,0.2-0.2,0.2-0.3c0-0.2-0.1-0.3-0.3-0.2c0,0-0.1,0-0.2,0.1c0.1-0.1,0.1-0.3,0-0.4c-0.1-0.1-0.2-0.1-0.3,0
			c0,0,0,0.1-0.1,0.1c0,0,0,0-0.1,0c0-0.1,0-0.3-0.1-0.3c-0.1-0.1-0.2,0-0.3,0.1c0-0.2-0.1-0.3-0.2-0.4c-0.2-0.1-0.5,0-0.6,0.3
			c0,0,0,0.1-0.1,0.2c-0.1-0.1-0.1-0.2-0.2-0.2c-0.2,0-0.5,0.2-0.6,0.5c0,0,0,0,0,0c0-0.3-0.2-0.5-0.5-0.5c-0.3,0-0.6,0.3-0.6,0.7
			c-0.1-0.2-0.3-0.3-0.5-0.2c-0.3,0.1-0.5,0.4-0.5,0.7c-0.1-0.2-0.4-0.3-0.7-0.2c-0.2,0.1-0.4,0.4-0.4,0.7c-0.2-0.2-0.5-0.2-0.7,0
			c-0.2,0.1-0.3,0.4-0.3,0.6c-0.2,0-0.4,0-0.5,0.1c-0.3,0.2-0.4,0.6-0.4,0.9c0,0,0,0-0.1-0.1c-0.3-0.2-0.7-0.1-1,0.3
			c0,0.1-0.1,0.1-0.1,0.2c0,0-0.1,0-0.1,0.1c0,0,0,0-0.1,0.1c0-0.3-0.2-0.7-0.5-0.9c-0.2-0.1-0.5-0.1-0.7,0c0-0.2-0.2-0.4-0.4-0.6
			c-0.3-0.2-0.7-0.1-0.9,0.2c0-0.3-0.3-0.5-0.6-0.6c-0.3-0.1-0.7,0-0.9,0.3c0-0.4-0.3-0.7-0.7-0.7c-0.3,0-0.5,0.1-0.7,0.3
			c-0.1-0.4-0.4-0.6-0.8-0.6c-0.3,0-0.6,0.3-0.6,0.7c0,0,0,0,0,0c-0.1-0.3-0.5-0.5-0.8-0.4c-0.1,0-0.2,0.1-0.3,0.2
			c0-0.1-0.1-0.1-0.1-0.1c-0.2-0.3-0.5-0.4-0.8-0.2c-0.2,0.1-0.2,0.3-0.3,0.4c-0.1-0.1-0.3-0.1-0.4,0c-0.1,0.1-0.2,0.2-0.2,0.4
			c0,0-0.1,0-0.1,0c0,0-0.1-0.1-0.1-0.1c-0.1-0.1-0.3-0.1-0.4,0c-0.1,0.1-0.1,0.3,0.1,0.4c-0.1,0-0.2,0-0.2,0
			c-0.2,0-0.3,0.1-0.3,0.3c0,0.2,0.1,0.3,0.3,0.3c0.1,0,0.2,0,0.4-0.1l0,0c0,0-0.1,0.1-0.1,0.1c-0.1,0.1-0.1,0.3,0,0.4
			c0.1,0.1,0.2,0.1,0.3,0c0,0.1,0.1,0.2,0.1,0.2c0.1,0.1,0.3,0.1,0.4,0c0,0.1,0.1,0.3,0.2,0.4c0.2,0.2,0.5,0.2,0.7-0.1
			c0,0,0.1-0.1,0.1-0.1c-0.1,0.3,0.1,0.5,0.3,0.7c0.2,0.1,0.3,0.1,0.5,0c0.1,0.1,0.2,0.2,0.3,0.3c0.2,0.1,0.4,0.1,0.6,0
			c0.1,0.1,0.1,0.2,0.3,0.3c0.2,0.1,0.4,0.1,0.6,0.1c0,0.1,0.1,0.3,0.2,0.4c-0.1,0.1-0.2,0.3-0.3,0.4c-0.3-0.1-0.6-0.2-0.9,0
			c-0.4,0.2-0.6,0.6-0.5,0.9c-0.3-0.2-0.8-0.2-1.1,0c-0.4,0.2-0.5,0.7-0.4,1c-0.4-0.3-0.9-0.2-1.3,0.1c-0.2,0.2-0.3,0.6-0.1,0.9
			c-0.4-0.2-1-0.1-1.2,0.3c-0.2,0.3-0.1,0.8,0.2,1c0,0,0,0,0,0c-0.4-0.1-0.8,0.1-1,0.4c-0.1,0.2,0,0.3,0,0.5c-0.1,0-0.2,0-0.2,0
			c-0.4,0-0.8,0.2-0.8,0.6c0,0.2,0.1,0.4,0.3,0.6c-0.2,0-0.3,0.2-0.3,0.4c0,0.2,0.1,0.3,0.2,0.4c0,0,0,0.1,0,0.1c-0.1,0-0.1,0-0.2,0
			c-0.2,0-0.4,0.2-0.3,0.4c0.1,0.2,0.3,0.3,0.5,0.3c-0.1,0.1-0.2,0.1-0.2,0.2c-0.1,0.2-0.1,0.4,0.1,0.5c0.2,0.1,0.4,0.1,0.6,0
			c0.1-0.1,0.2-0.2,0.2-0.4l0,0c0,0.1,0,0.1,0,0.1c0,0.2,0.2,0.3,0.4,0.3c0.2,0,0.3-0.2,0.3-0.3c0.1,0.1,0.2,0.1,0.3,0.1
			c0.2,0,0.3-0.2,0.3-0.3c0.2,0.1,0.4,0.2,0.6,0.1c0.4-0.1,0.6-0.4,0.5-0.7c0,0,0-0.1-0.1-0.2c0.2,0.3,0.6,0.3,1,0.2
			c0.2-0.1,0.3-0.2,0.4-0.4c0.2,0,0.4,0,0.6,0c0.3-0.1,0.5-0.3,0.5-0.5c0.2,0,0.3,0,0.5,0c0,0,0.1,0,0.1,0c0.1,0.1,0.2,0.2,0.3,0.2
			c0,0,0,0,0,0c-0.3,0-0.6,0.2-0.6,0.5c0,0.1,0,0.2,0.1,0.3c-0.1,0-0.1,0-0.2,0c-0.3,0-0.5,0.3-0.5,0.6c0,0.2,0.1,0.3,0.3,0.4
			c-0.1,0.1-0.2,0.2-0.2,0.3c0,0.1,0.1,0.2,0.3,0.3c0,0,0,0.1,0,0.1c0,0-0.1,0-0.1,0c-0.1,0.1-0.2,0.2-0.1,0.4
			c0.1,0.1,0.3,0.2,0.4,0.1c-0.1,0.1-0.1,0.1-0.1,0.2c-0.1,0.1,0,0.3,0.1,0.4c0.2,0.1,0.3,0,0.4-0.1c0-0.1,0.1-0.2,0.1-0.3l0,0
			c0,0,0,0.1,0,0.1c0.1,0.1,0.2,0.2,0.4,0.1c0.1-0.1,0.2-0.2,0.1-0.3c0.1,0,0.2,0,0.3,0c0.1-0.1,0.2-0.2,0.2-0.3
			c0.1,0.1,0.3,0.1,0.4,0c0.2-0.1,0.3-0.4,0.2-0.6c0,0,0-0.1-0.1-0.1c0.2,0.1,0.5,0.1,0.7,0c0.1-0.1,0.2-0.2,0.2-0.4
			c0.1,0,0.3,0,0.4-0.1c0.2-0.1,0.3-0.3,0.3-0.5c0.1,0,0.2,0,0.4-0.1c0.2-0.1,0.3-0.2,0.3-0.4c0.2,0.1,0.4,0,0.6-0.1
			c0.2-0.1,0.3-0.3,0.3-0.5c0.2,0,0.3,0,0.5-0.1c0.1-0.1,0.2-0.1,0.3-0.2c0.1,5.6,0,28.1-0.8,40.4c-1.2-0.4-2.5-0.6-3.9-0.6
			c-0.9,0-1.7,0.1-2.5,0.2c-1.8-0.8-4-1.3-6.3-1.3c-2.8,0-5.3,0.7-7.4,1.9c-2.2-1.4-5-2.2-8-2.2c-5,0-9.3,2.2-11.3,5.5
			c-0.2,0-0.5,0-0.7,0c-1.2-1-2.9-1.7-4.8-1.7c-2.3-2.3-5.9-3.7-9.9-3.7c-2.4,0-4.6,0.5-6.5,1.4c-3.3-0.9-6.8-1.4-10.5-1.4
			c-3,0-6,0.4-8.7,1c-3.7,0.3-7.2,1.1-10.4,2.3c-1.9-1.2-4.3-1.9-6.9-1.9c-3.5,0-6.5,1.2-8.6,3.2c-1.1-0.6-2.4-0.9-3.8-0.9
			c-1.4,0-2.6,0.3-3.7,0.9c-2.3-2.5-6.1-4.2-10.3-4.2c-2.9,0-5.6,0.8-7.7,2c-3.4-1-7-1.5-10.8-1.5c0,0-0.1,0-0.1,0
			c-0.3-11.1-0.3-23.1-0.2-27c0.1,0.1,0.2,0.2,0.3,0.2c0.2,0.1,0.3,0.1,0.5,0.1c0,0.2,0.1,0.4,0.3,0.5c0.2,0.1,0.4,0.1,0.6,0.1
			c0,0.2,0.1,0.3,0.3,0.4c0.1,0.1,0.2,0.1,0.4,0.1c0,0.2,0.1,0.4,0.3,0.5c0.1,0.1,0.3,0.1,0.4,0.1c0,0.1,0.1,0.3,0.2,0.4
			c0.2,0.2,0.5,0.2,0.7,0c0,0-0.1,0.1-0.1,0.1c-0.1,0.2,0,0.5,0.2,0.6c0.1,0.1,0.3,0.1,0.4,0c0,0.1,0,0.2,0.2,0.3c0.1,0,0.2,0,0.3,0
			c0,0.1,0,0.2,0.1,0.3c0.1,0.1,0.3,0,0.4-0.1c0,0,0-0.1,0-0.1l0,0c0,0.1,0.1,0.3,0.1,0.3c0.1,0.1,0.3,0.2,0.4,0.1
			c0.2-0.1,0.2-0.2,0.1-0.4c0,0-0.1-0.1-0.1-0.2c0.1,0.1,0.3,0,0.4-0.1c0.1-0.1,0-0.3-0.1-0.4c0,0-0.1,0-0.1,0c0,0,0-0.1,0-0.1
			c0.1,0,0.2-0.1,0.3-0.3c0-0.1-0.1-0.3-0.2-0.3c0.2-0.1,0.3-0.2,0.3-0.4c0-0.3-0.2-0.5-0.5-0.6c0,0-0.1,0-0.2,0
			c0.1-0.1,0.1-0.2,0.1-0.3c0-0.3-0.3-0.5-0.6-0.5c0,0,0,0,0,0c0.1,0,0.2-0.1,0.3-0.2c0,0,0.1,0,0.1,0c0.2,0,0.3,0,0.5,0
			c0.1,0.2,0.2,0.4,0.5,0.5c0.2,0.1,0.4,0.1,0.6,0c0,0.2,0.2,0.3,0.4,0.4c0.3,0.1,0.7,0.1,1-0.2c0,0.1-0.1,0.1-0.1,0.2
			c-0.1,0.3,0.1,0.6,0.5,0.7c0.2,0,0.4,0,0.6-0.1c0,0.2,0.2,0.3,0.3,0.3c0.1,0,0.2,0,0.3-0.1c0,0.1,0.1,0.3,0.3,0.3
			c0.2,0,0.4-0.1,0.4-0.3c0,0,0-0.1,0-0.1l0,0c0.1,0.2,0.2,0.3,0.2,0.4c0.1,0.2,0.4,0.2,0.6,0s0.2-0.4,0.1-0.5c0,0-0.1-0.1-0.2-0.2
			c0.2,0,0.4-0.1,0.5-0.3c0.1-0.2-0.1-0.4-0.3-0.4c0,0-0.1,0-0.2,0c0,0,0-0.1,0-0.1c0.2-0.1,0.3-0.3,0.2-0.4c0-0.2-0.2-0.3-0.3-0.4
			c0.2-0.1,0.3-0.4,0.3-0.6c0-0.4-0.4-0.6-0.8-0.6c-0.1,0-0.1,0-0.2,0c0.1-0.1,0.1-0.3,0-0.5c-0.1-0.4-0.6-0.5-1-0.4c0,0,0,0,0,0
			c0.4-0.2,0.5-0.7,0.2-1c-0.2-0.4-0.8-0.5-1.2-0.3c0.1-0.3,0.1-0.6-0.1-0.9c-0.3-0.3-0.9-0.3-1.3-0.1c0.2-0.4,0-0.8-0.4-1
			c-0.3-0.2-0.8-0.2-1.1,0c0.1-0.4-0.1-0.8-0.5-0.9c-0.3-0.1-0.6-0.1-0.9,0c-0.1-0.2-0.2-0.3-0.3-0.4c0.1-0.1,0.1-0.2,0.2-0.4
			c0.2,0,0.4,0,0.6-0.1c0.1-0.1,0.2-0.2,0.3-0.3c0.2,0.1,0.4,0.1,0.6,0c0.1-0.1,0.2-0.2,0.3-0.3c0.1,0.1,0.3,0.1,0.5,0
			c0.3-0.1,0.4-0.4,0.3-0.7c0,0.1,0.1,0.1,0.1,0.1c0.2,0.2,0.5,0.2,0.7,0.1c0.1-0.1,0.2-0.3,0.2-0.4c0.1,0.1,0.3,0.1,0.4,0
			c0.1-0.1,0.1-0.1,0.1-0.2c0.1,0.1,0.2,0.1,0.3,0c0.1-0.1,0.1-0.3,0-0.4c0,0,0-0.1-0.1-0.1l0,0c0.2,0,0.3,0.1,0.4,0.1
			c0.2,0,0.3-0.1,0.3-0.3c0-0.2-0.1-0.3-0.3-0.3c-0.1,0-0.1,0-0.2,0c0.1-0.1,0.2-0.3,0.1-0.4c-0.1-0.1-0.3-0.2-0.4,0
			c0,0-0.1,0-0.1,0.1c0,0,0,0-0.1,0c0-0.1,0-0.3-0.2-0.4c-0.1-0.1-0.3-0.1-0.4,0c0-0.2-0.1-0.3-0.3-0.4c-0.3-0.2-0.6-0.1-0.8,0.2
			c0,0-0.1,0.1-0.1,0.1c-0.1-0.1-0.2-0.2-0.3-0.2c-0.3-0.1-0.6,0.1-0.8,0.4c0,0,0,0,0,0c0-0.3-0.2-0.6-0.6-0.7
			c-0.4,0-0.7,0.2-0.8,0.6c-0.1-0.2-0.4-0.4-0.7-0.3c-0.4,0-0.7,0.3-0.7,0.7c-0.2-0.3-0.5-0.4-0.9-0.3c-0.3,0.1-0.5,0.3-0.6,0.6
			c-0.2-0.2-0.6-0.3-0.9-0.2c-0.2,0.1-0.4,0.3-0.4,0.6c-0.2-0.1-0.5-0.1-0.7,0c-0.3,0.2-0.5,0.5-0.5,0.9c0,0-0.1-0.1-0.1-0.1
			c0,0-0.1-0.1-0.1-0.1c0-0.1-0.1-0.1-0.1-0.2c-0.3-0.4-0.7-0.5-1-0.3c0,0,0,0-0.1,0.1c0-0.3-0.1-0.7-0.4-0.9
			c-0.2-0.1-0.4-0.2-0.5-0.1c0-0.2-0.1-0.4-0.3-0.6c-0.2-0.2-0.5-0.2-0.7,0c0-0.3-0.2-0.5-0.4-0.7c-0.3-0.2-0.5-0.1-0.7,0.2
			c0-0.3-0.2-0.7-0.5-0.7c-0.2-0.1-0.4,0-0.5,0.2c0-0.3-0.3-0.6-0.6-0.7c-0.3,0-0.5,0.2-0.5,0.5c0,0,0,0,0,0
			c-0.1-0.3-0.3-0.5-0.6-0.5c-0.1,0-0.2,0.1-0.2,0.2c0-0.1,0-0.1-0.1-0.2c-0.1-0.3-0.4-0.4-0.6-0.3c-0.1,0.1-0.2,0.2-0.2,0.4
			c-0.1-0.1-0.2-0.1-0.3-0.1c-0.1,0.1-0.2,0.2-0.1,0.3c0,0,0,0-0.1,0c0,0-0.1-0.1-0.1-0.1c-0.1-0.1-0.3-0.1-0.3,0
			c-0.1,0.1-0.1,0.3,0,0.4c-0.1,0-0.1-0.1-0.2-0.1c-0.1,0-0.2,0.1-0.3,0.2c0,0.2,0.1,0.3,0.2,0.3c0.1,0,0.2,0,0.3,0l0,0
			c0,0-0.1,0-0.1,0.1c-0.1,0.1-0.1,0.3,0,0.4c0.1,0.1,0.2,0.1,0.3,0.1c0,0.1,0,0.2,0.1,0.2c0.1,0.1,0.2,0.1,0.3,0.1
			c0,0.1,0,0.3,0.1,0.4c0.2,0.2,0.4,0.2,0.6,0.1c0,0,0-0.1,0.1-0.1c-0.1,0.2,0,0.5,0.3,0.7c0.1,0.1,0.3,0.1,0.4,0.1
			c0,0.1,0.1,0.2,0.2,0.3c0.2,0.1,0.3,0.2,0.5,0.1c0,0.1,0,0.1,0.1,0.2c-0.3,0-0.5,0.1-0.6,0.3c-0.1-0.2-0.4-0.4-0.7-0.4
			c-0.3,0-0.5,0.1-0.6,0.4c-0.2-0.3-0.5-0.5-0.8-0.5c-0.2,0-0.4,0.2-0.4,0.4c-0.2-0.3-0.6-0.5-0.8-0.4c-0.3,0.1-0.3,0.4-0.2,0.7
			c0,0,0,0,0,0c-0.2-0.2-0.5-0.3-0.7-0.2c-0.1,0.1-0.1,0.2-0.1,0.3c0,0-0.1-0.1-0.1-0.1c-0.2-0.2-0.6-0.2-0.7,0
			c-0.1,0.1-0.1,0.3,0,0.4c-0.1,0-0.3,0-0.3,0.1c-0.1,0.1-0.1,0.2,0,0.3c0,0,0,0,0,0c0,0-0.1,0-0.1-0.1c-0.2-0.1-0.3,0-0.3,0.1
			c0,0.1,0.1,0.3,0.2,0.3c-0.1,0-0.2,0-0.2,0c-0.1,0-0.2,0.2-0.1,0.3c0.1,0.1,0.2,0.2,0.4,0.2c0.1,0,0.2-0.1,0.3-0.1l0,0
			c0,0,0,0.1,0,0.1c0,0.1,0.1,0.3,0.2,0.3c0.1,0.1,0.2,0,0.3,0c0,0.1,0.1,0.1,0.2,0.2c0.1,0.1,0.3,0,0.3,0c0.1,0.1,0.2,0.2,0.3,0.3
			c0.2,0.1,0.5,0,0.5-0.2c0,0,0-0.1,0-0.1c0.1,0.2,0.3,0.4,0.5,0.5c0.2,0,0.3,0,0.4-0.1c0.1,0.1,0.2,0.2,0.4,0.2
			c0.2,0.1,0.4,0,0.5-0.1c0.1,0.1,0.2,0.2,0.3,0.2c0.2,0.1,0.3,0.1,0.5,0c0,0,0,0,0,0.1c0,0.1,0,0.1-0.1,0.2c-0.3-0.1-0.7,0-1,0.1
			c-0.4,0.2-0.5,0.5-0.3,0.8c-0.4-0.1-0.8,0-1.1,0.2c-0.3,0.2-0.4,0.6-0.1,0.9c-0.5-0.2-1,0-1.3,0.3c-0.2,0.2-0.2,0.5,0.1,0.7
			c-0.5-0.1-1,0.1-1.2,0.4c-0.2,0.3,0.1,0.7,0.5,0.8c0,0,0,0,0,0c-0.4,0-0.8,0.2-0.9,0.5c0,0.1,0,0.3,0.1,0.4c-0.1,0-0.2,0-0.2,0
			c-0.4,0-0.8,0.3-0.7,0.6c0,0.2,0.2,0.3,0.4,0.4c-0.2,0.1-0.3,0.2-0.3,0.3c0,0.1,0.2,0.3,0.3,0.3c0,0,0,0.1,0,0.1
			c-0.1,0-0.1,0-0.2,0c-0.2,0.1-0.3,0.2-0.2,0.4c0.1,0.1,0.3,0.2,0.5,0.1c-0.1,0.1-0.2,0.1-0.2,0.2c-0.1,0.1,0,0.3,0.2,0.4
			c0.2,0.1,0.5,0,0.6-0.1c0.1-0.1,0.1-0.2,0.2-0.4l0,0c0,0,0,0.1,0.1,0.1c0.1,0.1,0.3,0.2,0.5,0.1c0.2,0,0.3-0.2,0.2-0.3
			c0.1,0,0.2,0,0.4,0c0.2-0.1,0.3-0.2,0.3-0.3c0.2,0.1,0.4,0.1,0.6,0c0.3-0.1,0.5-0.4,0.3-0.6c0,0-0.1-0.1-0.1-0.1
			c0.3,0.2,0.7,0.2,1,0c0.2-0.1,0.3-0.3,0.3-0.4c0.2,0,0.4,0,0.6-0.1c0.3-0.1,0.4-0.3,0.4-0.5c0.1,0,0.2,0,0.3,0
			c0,0.2,0.1,0.4,0.3,0.5c-0.4,0.1-0.8,0.4-0.8,0.7c0,0.3,0.3,0.5,0.7,0.5c0,0,0,0,0,0c-0.4,0.1-0.6,0.4-0.5,0.7
			c0,0.1,0.1,0.2,0.2,0.3c-0.1,0-0.1,0.1-0.2,0.1c-0.3,0.2-0.5,0.5-0.3,0.7c0.1,0.1,0.3,0.2,0.5,0.2c-0.1,0.1-0.1,0.3-0.1,0.4
			c0.1,0.1,0.2,0.1,0.4,0.1c0,0,0,0,0,0.1c0,0-0.1,0.1-0.1,0.1c-0.1,0.1-0.1,0.3,0,0.4c0.1,0.1,0.4,0,0.5-0.1c0,0.1-0.1,0.2-0.1,0.2
			c0,0.2,0.1,0.3,0.3,0.3c0.2,0,0.4-0.1,0.4-0.3c0-0.1,0-0.2,0-0.4l0,0c0,0,0.1,0.1,0.1,0.1c0.1,0.1,0.3,0,0.5-0.1
			c0.1-0.1,0.1-0.2,0.1-0.3c0.1,0,0.2-0.1,0.3-0.1c0.1-0.1,0.2-0.3,0.1-0.4c0.2,0,0.4-0.1,0.5-0.2c0.2-0.2,0.2-0.5,0-0.6
			c0,0-0.1,0-0.1-0.1c0.3,0,0.6-0.1,0.8-0.3c0.1-0.1,0.1-0.3,0.1-0.4c0.2-0.1,0.3-0.2,0.4-0.3c0.2-0.2,0.2-0.4,0.1-0.5
			c0.1-0.1,0.3-0.1,0.4-0.2c0.2-0.2,0.2-0.3,0.2-0.5c0.3,0,0.5-0.2,0.7-0.3c0,0,0,0,0,0c0,5.3-0.6,16.6-1.1,27
			c-3.3,0.4-6.5,1.2-9.4,2.3c-2.3-2.1-5.7-3.5-9.6-3.5c-1.2,0-2.4,0.1-3.6,0.4c-3.7,0.3-7,1.8-9,4.1c-0.3,0-0.6,0-0.9,0.1
			c-1-0.4-2.1-0.7-3.4-0.7c-0.1,0-0.2,0-0.3,0c-1.3-0.6-2.7-1.1-4.1-1.5c-2.1-1.3-4.8-2-7.7-2c-1.5,0-2.9,0.2-4.2,0.6
			c-3.7,0.1-7.2,0.7-10.5,1.7c-2.2-1.4-5-2.3-8.1-2.3c-2.6,0-5,0.6-7,1.7c-0.2,0-0.3,0-0.5,0c0.6-0.7,1.2-1.5,1.7-2.1
			c0.7,0,1.7,0.1,2.3,0.1c-0.8,0-1.5-0.1-2.3-0.1c0.1-0.1,0.2-0.2,0.3-0.3c0.6-0.6,1.2-1.2,1.8-1.8c0.5,0.1,1.4,0.2,2,0
			c-0.6,0-1.3-0.1-1.9-0.1c0.5-0.5,0.9-1,1.4-1.5c0.4,0,1.1,0,1.3-0.1c-0.4,0-0.9,0.1-1.3,0.1c0.4-0.4,0.8-0.8,1.2-1.2
			c0.3,0,0.8,0,1-0.1c-0.3,0-0.7,0.1-1,0.1c0.5-0.6,1.1-1.1,1.6-1.7l-1.9,1.7c0.1-0.2,0.5-1.1,0.5-1.4l-0.5,1.4l-1.3,1.2
			c0.2-0.3,0.6-1.3,0.7-1.9l-0.7,1.9l-1.6,1.5c0.2-0.5,0.7-2.1,0.8-2.8l-0.9,2.8l-2.2,2.1c0.2-0.7,0.8-2.5,1-3.3l-1,3.3l-1.9,1.8
			c0-0.1,0-0.3,0-0.4c0.3-1,0.8-2.4,0.9-3.2l-0.9,3.1c-0.1-2.4-0.1-4.8-0.2-7.2c0.2-0.2,0.4-0.4,0.6-0.6c0.6,0,1.3,0.1,1.8,0
			c-0.6,0-1.1,0-1.7,0c0.5-0.6,0.9-1.2,1.2-1.6c0.5,0,1.3,0.1,1.7,0c-0.6,0-1.1,0-1.7,0c0.5-0.5,1-1.1,1.5-1.6c0.4,0,1.1,0.1,1.4,0
			c-0.5,0-0.9,0-1.4,0c0.3-0.4,0.7-0.7,1-1.1c0.3,0,0.8,0,1-0.1c-0.3,0-0.6,0.1-1,0.1c0.3-0.3,0.6-0.6,0.9-0.9c0.2,0,0.6,0,0.7-0.1
			c-0.2,0-0.5,0-0.7,0.1c0.4-0.4,0.8-0.8,1.2-1.3l-1.3,1.3c0.1-0.2,0.3-0.9,0.4-1.1l-0.4,1.1l-0.9,0.9c0.1-0.2,0.4-1.1,0.5-1.4
			l-0.5,1.4l-1.1,1.1c0.1-0.3,0.6-1.5,0.6-2.1l-0.6,2.1l-1.6,1.5c0.2-0.5,0.6-1.8,0.7-2.4l-0.7,2.4l-1.5,1.5c0,0,0-0.1,0-0.1
			c0.2-0.7,0.6-2.1,0.8-2.7l-0.8,2.7c0-0.7,0-1.4-0.1-2.2c0-1.5-0.1-3-0.1-4.5c0.1-0.1,0.2-0.2,0.3-0.3c0.3,0,1.3,0,1.7-0.2
			c-0.6,0.1-1.1,0.1-1.7,0.2c0.4-0.4,0.8-0.8,1-1c0.1-0.1,0.1-0.2,0.2-0.3c0.4,0,1-0.1,1.3-0.2c-0.4,0-0.8,0.1-1.2,0.1
			c0.3-0.4,0.6-0.9,0.9-1.3c0.3,0,0.9-0.1,1.1-0.1c-0.4,0-0.7,0.1-1.1,0.1c0.2-0.3,0.4-0.6,0.6-0.9c0.2,0,0.6-0.1,0.7-0.2
			c-0.2,0.1-0.5,0.1-0.7,0.2c0.2-0.3,0.4-0.5,0.5-0.8c0.2,0,0.5-0.1,0.5-0.1c-0.2,0-0.4,0.1-0.5,0.1c0.2-0.3,0.5-0.7,0.7-1l-0.9,1.1
			c0-0.1,0.2-0.7,0.2-0.8l-0.2,0.8l-0.6,0.8c0.1-0.2,0.2-0.9,0.2-1.1l-0.2,1.1l-0.7,0.9c0.1-0.3,0.2-1.2,0.2-1.6l-0.2,1.6l-1,1.3
			c0.1-0.4,0.3-1.4,0.2-1.9l-0.3,1.9l-1,1.2c0.1-0.5,0.3-1.6,0.3-2.2l-0.3,2.2l-0.2,0.2c-0.1-2.2-0.1-4.5-0.2-6.7
			c0.3-0.2,0.6-0.5,0.9-0.8l0,0.1c0,0,0,0,0-0.1c0.3-0.3,0.7-0.6,1-1c0.1,0,0.8,0.1,1,0c-0.3,0-0.7,0-1,0c0.2-0.2,0.4-0.4,0.7-0.6
			c0.1,0,0.5,0,0.7-0.1c-0.2,0-0.4,0-0.7,0.1c0.2-0.2,0.4-0.4,0.6-0.6c0.7,0,0.2,0,0,0c0.3-0.3,0.5-0.5,0.7-0.8l-0.8,0.8
			c0-0.1,0.2-0.5,0.2-0.6l-0.2,0.6l-0.6,0.5c0.1-0.2,0.3-0.7,0.3-0.8l-0.3,0.8l-0.7,0.6c0.1-0.2,0.3-1,0.3-1.2l-0.3,1.2l-0.9,0.9
			c0.1-0.3,0.4-1.1,0.4-1.4l-0.4,1.5l-0.9,0.9c0,0,0,0,0,0c0.1-0.4,0.4-1.3,0.5-1.7l-0.5,1.6c0-1.3-0.1-2.5-0.1-3.8
			c0,0,0.1-0.1,0.1-0.1l0,0.1c0,0,0,0,0-0.1c0.1-0.2,0.3-0.4,0.5-0.6l0,0c0,0,0,0,0,0c0.2-0.2,0.4-0.4,0.5-0.7c1,0,0.2,0,0,0
			c0.1-0.2,0.2-0.3,0.4-0.5c0.6-0.1,0.2,0,0,0c0.1-0.1,0.2-0.3,0.3-0.4c0.5-0.1,0.1,0,0,0c0.1-0.2,0.3-0.4,0.4-0.5l-0.4,0.5
			c0-0.1,0.1-0.3,0.1-0.4l-0.1,0.4l-0.3,0.4c0-0.1,0.1-0.4,0.1-0.5l-0.1,0.5l-0.4,0.4c0-0.2,0.1-0.6,0.1-0.8l-0.1,0.8l-0.5,0.6
			c0-0.2,0.1-0.8,0.1-0.9l-0.1,0.9l-0.5,0.6c0.1-0.3,0.2-0.9,0.1-1.1l-0.2,1.1l-0.1,0.1c0-1.2-0.1-2.4-0.1-3.6c0,0,0,0,0.1-0.1l0,0
			c0,0,0,0,0,0c0.1-0.1,0.2-0.2,0.3-0.4c0.7,0,0.2,0,0,0c0.1-0.1,0.2-0.3,0.3-0.4c0.5,0,0.2,0,0,0c0.1-0.1,0.1-0.1,0.2-0.2
			c0.1,0.1,0.2,0.6,0.1-0.1c0.2,0,0.1,0,0,0c0,0,0,0,0,0c0,0,0.1-0.1,0.1-0.1c0.1,0.1,0.2,0.5,0.1-0.1c0.1,0,0.1,0,0,0c0,0,0,0,0,0
			c0.1-0.1,0.1-0.2,0.2-0.3l-0.2,0.2c0,0,0-0.1,0-0.1l0,0.2l-0.1,0.1c0-0.1,0-0.1,0-0.2l-0.1,0.3l-0.2,0.3c0-0.1,0.1-0.4,0.1-0.4
			l-0.1,0.5l-0.3,0.4c0-0.1,0.1-0.4,0.1-0.5l-0.1,0.5l-0.3,0.4c0-0.2,0.1-0.5,0.1-0.6l-0.1,0.6l-0.1,0.1c0-1-0.1-2-0.1-3.1l-0.1,3.2
			c0,0-0.1-0.1-0.1-0.2c0,0,0,0,0,0c0,0,0,0,0,0c-0.1-0.1-0.2-0.3-0.3-0.4c0-0.1,0-0.5,0-0.6l0,0.6c-0.1-0.1-0.2-0.2-0.2-0.4
			c0,0,0,0,0-0.2c0-0.1,0-0.3,0-0.3l0,0.3c0-0.1-0.1-0.2-0.2-0.4l0,0.2c0-0.1-0.1-0.2-0.2-0.3l0,0.2c-0.1-0.1-0.1-0.2-0.2-0.2
			l0.2,0.3c-0.3-0.1-0.1,0,0,0l0.2,0.2c-0.3-0.1-0.1,0,0,0l0.2,0.3c-0.5-0.2-0.1,0,0,0l0.3,0.4c-0.6-0.2-0.2,0,0,0l0.3,0.4
			c-0.7-0.2-0.2-0.1,0,0l0.1,0.2l-0.1,3.3c0,0,0,0-0.1,0c-0.2-0.2-0.3-0.4-0.5-0.6c0,0,0,0,0,0c0,0,0,0,0,0
			c-0.2-0.2-0.4-0.4-0.6-0.6c0-0.1-0.1-0.7-0.2-0.8l0.2,0.8c-0.1-0.1-0.3-0.3-0.4-0.4c0-0.1-0.1-0.4-0.1-0.5l0.1,0.5
			c-0.1-0.1-0.2-0.2-0.4-0.4c0-0.1-0.1-0.3-0.1-0.4l0.1,0.4c-0.2-0.2-0.3-0.3-0.5-0.4l0.5,0.5c-0.5-0.1-0.1,0,0,0l0.3,0.4
			c-0.6-0.2-0.2,0,0,0l0.4,0.4c-0.9-0.2-0.3,0,0,0l0.6,0.6c-0.2,0-0.6-0.1-0.7,0c0.2,0,0.5,0,0.7,0.1l0.6,0.6
			c-0.2,0-0.6-0.1-0.8-0.1c0.3,0,0.5,0,0.8,0.1l0.1,0.1l-0.1,4.4l0,0c0,0,0,0,0,0l0,0.4c-0.1-0.1-0.2-0.3-0.4-0.6c0,0,0.1,0,0.1,0
			c0,0,0,0-0.1-0.1c-0.2-0.3-0.4-0.7-0.7-1c0,0,0,0,0.1,0c0.1,0,0,0-0.1,0c-0.2-0.3-0.5-0.7-0.7-1.1c0,0,0,0,0,0c0,0,0-0.1-0.1-0.1
			c0-0.2,0-1.1-0.1-1.3l0.1,1.3c-0.2-0.3-0.4-0.5-0.5-0.8c0-0.2,0-0.7-0.1-0.9l0.1,0.8c-0.2-0.2-0.3-0.4-0.5-0.6
			c0-0.2,0-0.5-0.1-0.6L334,27c-0.2-0.3-0.4-0.6-0.6-0.8l0.6,0.9c-0.7-0.3-0.2-0.1,0,0l0.4,0.6c-0.1-0.1-0.5-0.2-0.6-0.2
			c0.2,0.1,0.4,0.1,0.6,0.2l0.5,0.7c-0.2-0.1-0.7-0.2-0.9-0.2c0.3,0.1,0.6,0.1,0.9,0.2l0.8,1.1c-0.3-0.1-0.9-0.2-1.1-0.2
			c0.4,0.1,0.7,0.2,1.1,0.2l0.7,1c-0.3-0.1-1-0.3-1.2-0.3c0.4,0.1,0.8,0.2,1.3,0.3l0.4,0.6l-0.1,5.3c0,0,0,0,0,0
			c-0.1-0.5-0.3-1.6-0.5-2.2l0.5,2.1c-0.3-0.4-0.6-0.8-0.9-1c-0.1-0.1-0.2-0.2-0.4-0.3c-0.1-0.5-0.2-1.3-0.4-1.6l0.4,1.6
			c-0.4-0.4-0.8-0.7-1.2-1.1c-0.1-0.4-0.2-1.1-0.3-1.4l0.3,1.4c-0.3-0.2-0.5-0.5-0.8-0.7c-0.1-0.3-0.2-0.8-0.3-0.9l0.3,0.9
			c-0.2-0.2-0.5-0.4-0.7-0.6c-0.1-0.2-0.2-0.6-0.2-0.7l0.2,0.7c-0.3-0.3-0.6-0.6-0.9-0.8l1,1c-0.1,0-0.5-0.1-0.6-0.1
			c0.2,0,0.4,0.1,0.6,0.1l0.7,0.7c-0.2,0-0.7-0.1-0.8-0.1c0.3,0,0.5,0.1,0.8,0.1l0.8,0.8c-0.3,0-0.9-0.1-1.2-0.1
			c0.4,0,0.8,0.1,1.2,0.1l1.2,1.2c-0.3,0-1.1-0.1-1.4-0.1c0.5,0,0.9,0.1,1.4,0.1l1.1,1.2c-0.4-0.1-1.2-0.1-1.6-0.1
			c0.5,0,1.1,0.1,1.6,0.1l0,0l-0.2,7.7c-0.2-0.2-0.4-0.5-0.6-0.7c0-0.8,0-1.8-0.1-2.3l0.1,2.3c-0.4-0.5-0.9-0.9-1.2-1.2
			c0-0.1-0.1-0.1-0.1-0.2c0-0.6,0-1.7-0.1-2.2l0.1,2.2c-0.4-0.5-0.9-1.1-1.3-1.6c0-0.5,0-1.4-0.1-1.9l0.1,1.8
			c-0.3-0.4-0.6-0.7-0.9-1.1c0-0.4-0.1-1-0.2-1.2l0.1,1.2c-0.3-0.3-0.5-0.6-0.8-1c0-0.3-0.1-0.8-0.1-1l0.1,0.9
			c-0.3-0.4-0.7-0.9-1-1.3l1.1,1.5c-0.1-0.1-0.6-0.3-0.8-0.3c0.3,0.1,0.5,0.2,0.8,0.3l0.7,1.1c-0.2-0.1-0.8-0.3-1-0.3
			c0.3,0.1,0.7,0.2,1,0.4l0.9,1.3c-0.3-0.1-1.2-0.3-1.5-0.3c0.5,0.1,1,0.2,1.6,0.4l1.3,1.8c-0.4-0.1-1.4-0.4-1.8-0.4
			c0.6,0.1,1.2,0.3,1.8,0.4l1.2,1.7c-0.5-0.2-1.5-0.5-2.1-0.4c0.7,0.2,1.4,0.3,2.1,0.5l0.7,0.9l-0.2,7.7c-0.2-0.3-0.4-0.6-0.7-0.9
			c0-1-0.1-2.4-0.2-3.1l0.1,3.1c-0.6-0.7-1.3-1.4-1.8-1.9c0-0.9,0-2.3-0.1-3l0.1,3c0,0-0.1-0.1-0.1-0.1c-0.6-0.7-1.1-1.4-1.7-2.2
			c0-0.7,0-2-0.1-2.5l0.1,2.5c-0.4-0.5-0.8-1-1.2-1.5c0-0.5-0.1-1.3-0.2-1.7l0.2,1.7c-0.3-0.4-0.7-0.9-1-1.3c0-0.4-0.1-1-0.2-1.3
			l0.1,1.3c-0.5-0.6-0.9-1.2-1.4-1.8l1.4,2.1c-0.2-0.1-0.9-0.3-1.1-0.4c0.4,0.1,0.7,0.3,1.1,0.4l1,1.5c-0.3-0.1-1.1-0.4-1.4-0.5
			c0.5,0.2,1,0.3,1.4,0.5l1.2,1.7c-0.4-0.1-1.5-0.5-2.1-0.4c0.7,0.2,1.4,0.3,2.1,0.5l1.7,2.5c-0.6-0.1-1.9-0.5-2.5-0.5
			c0.8,0.2,1.7,0.4,2.5,0.6l1.7,2.4c-0.6-0.1-1.6-0.4-2.4-0.6c-1.4-0.5-2.9-0.8-4.6-0.8c-0.9,0-1.7,0.1-2.5,0.2
			c-1.8-0.8-4-1.3-6.3-1.3c-2.8,0-5.3,0.7-7.4,1.9c-2.2-1.4-5-2.2-8-2.2c-1.9,0-3.7,0.3-5.3,0.9c-4.3,0.2-8.3,1-11.9,2.4
			c-2.3-2-5.7-3.3-9.5-3.3c-2,0-4,0.4-5.7,1c-2.8-0.7-5.8-1-8.9-1c-6.3,0-12.1,1.5-17,4c-0.4,0-0.7-0.1-1.1-0.1
			c-0.8,0-1.5,0.1-2.2,0.3c-2-1.7-4.9-2.7-8.1-2.7c-3.5,0-6.5,1.2-8.6,3.2c-1.1-0.6-2.4-0.9-3.8-0.9c-2,0-3.7,0.7-4.9,1.7
			c-0.3-0.3-0.6-0.6-0.9-0.9c-0.1-7.2,0-13.1,0-15.9c0.1,0.1,0.2,0.2,0.3,0.3c0.2,0.1,0.4,0.1,0.6,0.1c0,0.3,0.2,0.5,0.5,0.7
			c0.3,0.1,0.6,0.2,0.8,0.1c0,0.2,0.2,0.4,0.4,0.5c0.1,0.1,0.3,0.1,0.5,0.1c0,0.2,0.1,0.5,0.4,0.6c0.2,0.1,0.3,0.1,0.5,0.2
			c0,0.2,0.1,0.4,0.3,0.5c0.3,0.2,0.7,0.2,1,0c0,0.1-0.1,0.1-0.1,0.2c-0.2,0.3,0,0.6,0.3,0.8c0.2,0.1,0.4,0.1,0.6,0
			c0,0.2,0.1,0.3,0.2,0.4c0.1,0,0.2,0.1,0.3,0c0,0.1,0,0.3,0.2,0.4c0.2,0.1,0.4,0,0.5-0.1c0,0,0-0.1,0.1-0.1l0,0
			c0,0.2,0.1,0.4,0.1,0.5c0.1,0.2,0.3,0.3,0.5,0.2c0.2-0.1,0.3-0.3,0.2-0.5c0-0.1-0.1-0.1-0.2-0.2c0.2,0.1,0.4,0,0.5-0.1
			c0.1-0.2,0-0.4-0.2-0.5c0,0-0.1,0-0.1-0.1c0,0,0-0.1,0-0.1c0.2,0,0.3-0.2,0.3-0.3c0-0.2-0.1-0.3-0.2-0.4c0.2-0.1,0.4-0.3,0.4-0.5
			c0.1-0.4-0.2-0.7-0.6-0.7c-0.1,0-0.1,0-0.2,0c0.1-0.1,0.1-0.3,0.1-0.4c0-0.4-0.4-0.6-0.8-0.6c0,0,0,0,0,0c0.2-0.1,0.3-0.2,0.4-0.3
			c0.1,0,0.1,0,0.2,0.1c0.2,0.1,0.4,0.1,0.7,0c0.1,0.3,0.3,0.6,0.7,0.7c0.2,0.1,0.5,0.1,0.7,0c0.1,0.2,0.2,0.4,0.5,0.6
			c0.4,0.2,1,0.1,1.3-0.3c0,0.1-0.1,0.2-0.1,0.2c-0.1,0.4,0.2,0.8,0.7,0.9c0.3,0,0.6,0,0.8-0.2c0,0.2,0.2,0.4,0.5,0.4
			c0.2,0,0.3,0,0.5-0.1c0,0.2,0.2,0.4,0.4,0.4c0.3,0,0.5-0.1,0.6-0.3c0,0,0-0.1,0-0.2l0,0c0.1,0.2,0.2,0.5,0.3,0.6
			c0.2,0.2,0.5,0.2,0.8,0.1c0.2-0.2,0.3-0.5,0.1-0.7c-0.1-0.1-0.2-0.1-0.3-0.2c0.3,0,0.6-0.1,0.6-0.4c0.1-0.3-0.1-0.5-0.4-0.6
			c-0.1,0-0.1,0-0.2,0c0,0,0-0.1,0-0.1c0.2-0.1,0.3-0.3,0.3-0.6c0-0.2-0.2-0.4-0.4-0.5c0.2-0.2,0.4-0.5,0.3-0.8
			c-0.1-0.5-0.5-0.8-1.1-0.8c-0.1,0-0.2,0-0.3,0.1c0.1-0.2,0.1-0.4,0-0.6c-0.2-0.5-0.7-0.7-1.3-0.5c0,0,0,0,0,0
			c0.5-0.3,0.6-0.9,0.3-1.4c-0.3-0.5-1-0.6-1.6-0.3c0.2-0.4,0.1-0.8-0.2-1.1c-0.4-0.4-1.1-0.5-1.6-0.1c0.2-0.5,0-1.1-0.5-1.4
			c-0.4-0.3-1-0.3-1.4,0c0.1-0.5-0.2-1-0.7-1.2c-0.4-0.2-0.9-0.1-1.2,0c-0.1-0.2-0.2-0.4-0.4-0.6c0.1-0.1,0.2-0.3,0.2-0.5
			c0.2,0,0.5,0,0.7-0.1c0.1-0.1,0.3-0.2,0.3-0.4c0.2,0.1,0.5,0.1,0.8,0c0.2-0.1,0.3-0.2,0.4-0.4c0.2,0.1,0.4,0.1,0.6,0
			c0.3-0.2,0.5-0.5,0.5-0.9c0,0.1,0.1,0.1,0.1,0.2c0.2,0.3,0.6,0.3,0.9,0.1c0.2-0.1,0.3-0.3,0.3-0.5c0.2,0.1,0.4,0.1,0.5,0
			c0.1-0.1,0.2-0.2,0.2-0.3c0.1,0.1,0.3,0.1,0.5,0c0.2-0.1,0.2-0.4,0.1-0.5c0,0-0.1-0.1-0.1-0.1l0,0c0.2,0.1,0.4,0.1,0.5,0.1
			c0.2,0,0.4-0.2,0.4-0.4c0-0.2-0.2-0.4-0.4-0.4c-0.1,0-0.2,0-0.3,0.1c0.2-0.1,0.2-0.4,0.1-0.5c-0.1-0.2-0.4-0.2-0.6-0.1
			c0,0-0.1,0.1-0.1,0.1c0,0-0.1,0-0.1-0.1c0-0.2,0-0.4-0.2-0.5c-0.2-0.1-0.4-0.1-0.5,0c0-0.2-0.1-0.4-0.3-0.6
			c-0.4-0.2-0.8-0.1-1.1,0.3c0,0-0.1,0.1-0.1,0.2c-0.1-0.1-0.2-0.3-0.4-0.3c-0.4-0.1-0.8,0.1-1,0.5c0,0,0,0,0,0
			c0-0.4-0.3-0.8-0.7-0.9c-0.5-0.1-0.9,0.3-1,0.8c-0.2-0.3-0.5-0.5-0.9-0.5c-0.5,0-0.9,0.4-0.9,0.9c-0.2-0.4-0.7-0.5-1.1-0.4
			c-0.4,0.1-0.7,0.4-0.7,0.8c-0.3-0.3-0.8-0.4-1.2-0.2c-0.3,0.1-0.5,0.4-0.6,0.7c-0.3-0.1-0.6-0.1-0.9,0.1c-0.5,0.2-0.7,0.7-0.7,1.1
			c0,0-0.1-0.1-0.1-0.1c0,0-0.1-0.1-0.1-0.1c0-0.1-0.1-0.2-0.1-0.3c-0.3-0.5-0.9-0.6-1.3-0.3c0,0-0.1,0-0.1,0.1
			c0-0.4-0.1-0.9-0.5-1.2c-0.2-0.2-0.5-0.2-0.7-0.2c0-0.3-0.2-0.6-0.4-0.8c-0.3-0.2-0.7-0.2-0.9,0c0-0.4-0.2-0.7-0.5-0.9
			c-0.4-0.2-0.7-0.1-0.9,0.2c0-0.4-0.3-0.9-0.7-1c-0.3-0.1-0.6,0-0.7,0.3c-0.1-0.5-0.4-0.8-0.8-0.9c-0.4,0-0.6,0.3-0.6,0.7
			c0,0,0,0,0,0c-0.1-0.4-0.4-0.7-0.8-0.6c-0.1,0-0.2,0.1-0.3,0.2c0-0.1-0.1-0.1-0.1-0.2c-0.2-0.4-0.5-0.5-0.8-0.4
			c-0.2,0.1-0.3,0.3-0.3,0.5c-0.1-0.1-0.3-0.2-0.4-0.1c-0.1,0.1-0.2,0.2-0.2,0.4c0,0-0.1,0-0.1,0c0,0-0.1-0.1-0.1-0.1
			c-0.1-0.2-0.3-0.2-0.5,0c-0.1,0.1-0.1,0.4,0,0.5c-0.1,0-0.2-0.1-0.2-0.1c-0.2,0-0.3,0.1-0.3,0.3c0,0.2,0.1,0.4,0.3,0.5
			c0.1,0,0.3,0,0.4,0l0,0c0,0-0.1,0.1-0.1,0.1c-0.1,0.1-0.1,0.3,0,0.5c0.1,0.1,0.3,0.2,0.4,0.1c0,0.1,0,0.2,0.1,0.3
			c0.1,0.1,0.3,0.2,0.4,0.1c0,0.2,0.1,0.4,0.2,0.5c0.2,0.3,0.5,0.3,0.7,0.1c0,0,0.1-0.1,0.1-0.1c-0.1,0.3,0.1,0.7,0.3,0.9
			c0.2,0.1,0.3,0.2,0.5,0.1c0.1,0.2,0.2,0.3,0.3,0.4c0.2,0.2,0.4,0.2,0.6,0.2c0,0.1,0.1,0.1,0.1,0.2c-0.4-0.1-0.7,0.1-0.8,0.4
			c-0.2-0.3-0.5-0.5-0.9-0.6c-0.4,0-0.7,0.2-0.7,0.5c-0.2-0.4-0.7-0.7-1.1-0.6c-0.3,0-0.5,0.3-0.5,0.5c-0.3-0.4-0.7-0.6-1.1-0.5
			c-0.3,0.1-0.4,0.5-0.2,0.9c0,0,0,0,0,0c-0.3-0.3-0.7-0.4-1-0.2c-0.1,0.1-0.2,0.2-0.2,0.3c-0.1-0.1-0.1-0.1-0.2-0.1
			c-0.3-0.3-0.7-0.3-0.9,0c-0.1,0.1-0.1,0.3,0,0.5c-0.2-0.1-0.3,0-0.4,0.1c-0.1,0.1-0.1,0.3,0,0.4c0,0,0,0-0.1,0.1
			c-0.1,0-0.1-0.1-0.1-0.1c-0.2-0.1-0.4,0-0.4,0.2c0,0.2,0.1,0.4,0.3,0.5c-0.1,0-0.2,0-0.3,0c-0.2,0-0.3,0.2-0.2,0.4
			c0.1,0.2,0.3,0.3,0.5,0.3c0.1,0,0.2-0.1,0.4-0.2l0,0c0,0,0,0.1,0,0.1c0,0.1,0.1,0.3,0.3,0.4c0.2,0.1,0.3,0,0.4-0.1
			c0.1,0.1,0.1,0.2,0.3,0.2c0.2,0.1,0.3,0.1,0.4-0.1c0.1,0.2,0.2,0.3,0.4,0.4c0.3,0.1,0.6,0.1,0.7-0.2c0,0,0-0.1,0-0.2
			c0.1,0.3,0.4,0.6,0.7,0.7c0.2,0,0.4,0,0.5-0.1c0.1,0.1,0.3,0.2,0.5,0.3c0.3,0.1,0.5,0,0.6-0.1c0.1,0.1,0.3,0.2,0.4,0.3
			c0.2,0.1,0.5,0.1,0.6,0c0,0,0,0,0,0.1c0,0.1-0.1,0.2-0.1,0.2c-0.4-0.1-0.9-0.1-1.2,0.1c-0.5,0.3-0.7,0.7-0.4,1.1
			c-0.5-0.1-1.1,0-1.4,0.2c-0.4,0.3-0.5,0.8-0.2,1.2c-0.6-0.2-1.3-0.1-1.6,0.3c-0.3,0.3-0.2,0.7,0.1,1c-0.6-0.2-1.3,0.1-1.5,0.5
			c-0.2,0.4,0.1,0.9,0.6,1c0,0,0,0,0,0c-0.6-0.1-1.1,0.2-1.2,0.6c0,0.2,0,0.3,0.2,0.5c-0.1,0-0.2,0-0.3,0c-0.6,0-1,0.4-0.9,0.8
			c0,0.2,0.2,0.4,0.5,0.6c-0.2,0.1-0.4,0.3-0.3,0.5c0,0.2,0.2,0.3,0.4,0.4c0,0,0,0.1,0,0.1c-0.1,0-0.2,0-0.2,0
			c-0.3,0.1-0.4,0.3-0.3,0.5c0.1,0.2,0.4,0.3,0.7,0.2c-0.1,0.1-0.2,0.2-0.2,0.2c-0.1,0.2,0,0.4,0.2,0.5c0.3,0.1,0.6,0,0.8-0.2
			c0.1-0.1,0.2-0.3,0.2-0.5l0,0c0,0.1,0,0.1,0.1,0.1c0.1,0.2,0.4,0.3,0.7,0.2c0.2-0.1,0.3-0.2,0.3-0.4c0.1,0,0.3,0,0.5,0
			c0.3-0.1,0.4-0.2,0.4-0.4c0.2,0.1,0.5,0.1,0.8,0c0.5-0.1,0.7-0.5,0.5-0.8c0,0-0.1-0.1-0.1-0.2c0.4,0.2,0.9,0.2,1.3,0
			c0.2-0.1,0.4-0.3,0.4-0.5c0.2,0,0.5,0,0.7-0.1c0.3-0.2,0.5-0.4,0.5-0.7c0.1,0,0.2,0,0.4,0c-0.1,0.3,0.1,0.6,0.4,0.7
			c-0.6,0.1-1,0.5-1,0.9c0,0.4,0.4,0.6,0.9,0.6c0,0,0,0,0,0c-0.5,0.2-0.8,0.6-0.7,0.9c0,0.2,0.2,0.3,0.3,0.3c-0.1,0-0.2,0.1-0.2,0.1
			c-0.4,0.2-0.6,0.6-0.4,0.9c0.1,0.2,0.4,0.3,0.6,0.3c-0.1,0.1-0.2,0.3-0.1,0.5c0.1,0.1,0.3,0.2,0.5,0.2c0,0,0,0.1,0.1,0.1
			c-0.1,0-0.1,0.1-0.1,0.1c-0.2,0.2-0.2,0.4,0,0.5c0.2,0.1,0.5,0.1,0.6-0.1c-0.1,0.1-0.1,0.2-0.1,0.3c0,0.2,0.1,0.3,0.4,0.3
			s0.5-0.2,0.5-0.4c0-0.1,0-0.3,0-0.5l0,0c0,0,0.1,0.1,0.1,0.1c0.2,0.1,0.4,0.1,0.6-0.1c0.1-0.1,0.2-0.3,0.1-0.4
			c0.1,0,0.3-0.1,0.4-0.2c0.2-0.1,0.2-0.3,0.1-0.5c0.2,0,0.5-0.1,0.7-0.3c0.3-0.3,0.3-0.6,0-0.8c0,0-0.1-0.1-0.2-0.1
			c0.4,0,0.8-0.1,1.1-0.4c0.1-0.2,0.2-0.4,0.1-0.6c0.2-0.1,0.4-0.2,0.5-0.4c0.2-0.2,0.2-0.5,0.2-0.7c0.2-0.1,0.3-0.2,0.5-0.3
			c0.2-0.2,0.3-0.4,0.3-0.6c0.3-0.1,0.7-0.2,0.9-0.4c0,0,0,0,0,0c0,3.1-0.2,7.7-0.4,13.1c-1.1-0.3-2.4-0.6-3.6-0.6
			c-3.3-0.9-6.9-1.5-10.6-1.5c-8.3,0-15.7,2.5-21.3,6.6c-0.5,0-1,0-1.5,0.1c-0.5-0.1-0.9-0.1-1.4-0.1c-0.1,0-0.3,0-0.4,0
			c-1.6-0.6-3.4-1-5.3-1c-1.1,0-2.2,0.1-3.3,0.4c-1.2-0.4-2.6-0.6-4-0.6c-3.1,0-5.8,0.9-7.9,2.5c-1.1-0.7-2.5-1.2-4-1.2
			c-0.6,0-1.1,0.1-1.6,0.2c-1.7-0.8-3.7-1.3-5.9-1.3c-3.7,0-7,1.4-9,3.5c0,0-0.1,0-0.1,0c-2,0-3.7,0.7-4.8,1.9
			c-0.4,0-0.9,0.1-1.3,0.2c-2.4-1.1-5.3-1.7-8.3-1.7c-1.9,0-3.6,0.2-5.3,0.7c-5-4.1-12.1-6.7-19.9-6.7c-8.5,0-16,3-21,7.7
			c-2.6-1.4-5.8-2.2-9.2-2.2c-4.8,0-9.1,1.6-12.1,4.1c-4.9-5.8-13.3-9.6-22.9-9.6c-8.4,0-15.8,2.9-20.8,7.5c-0.3,0-0.6-0.1-0.8-0.1
			c-2,0-3.9,0.3-5.7,0.9V116h1024V68.8C1023.7,68.7,1023.4,68.7,1023.1,68.6z M333.4,53.3c0.7,0.2,1.4,0.3,2.2,0.5l0.5,0.7
			c0,0.1,0,0.1,0.1,0.1l0.1,0.2C335.4,54.2,334.4,53.7,333.4,53.3z M337.1,26.3C337,26.3,337,26.3,337.1,26.3
			C337,26.3,337,26.3,337.1,26.3L337.1,26.3z M338.1,53.8C338.1,53.8,338.1,53.8,338.1,53.8c0.3-0.2,0.5-0.5,0.8-0.8
			c0.1,0,0.3,0,0.5,0C338.9,53.3,338.5,53.5,338.1,53.8z"/>
	</g>
</g>
</svg>
